<?xml version="1.0" encoding="utf-8" standalone="no"?>
<!DOCTYPE svg PUBLIC "-//W3C//DTD SVG 1.1//EN" "http://www.w3.org/TR/2001/REC-SVG-20010904/DTD/svg11.dtd">
<svg width="10cm" height="10cm" viewBox="0 0 378 378" overflow="hidden"
 version="1.1" xmlns="http://www.w3.org/2000/svg"  xmlns:xlink="http://www.w3.org/1999/xlink">
<!--dessin  (Utilisateur) -->
<g fill="none" stroke="rgb(255,0,0)" stroke-width="1.594" stroke-linejoin="round" >
<polyline points="329.3188,378,328.8694,375.5696,327.478,368.4011,326.0663,361.4643,324.6345,354.748,323.183,348.2415
,321.7122,341.9352,318.7143,329.8878,315.6438,318.5407,312.5038,307.8375,309.2976,297.7292,306.0285,288.1726,302.6998,279.13
,299.315,270.5679,295.8775,262.4567,292.3909,254.7701,288.8587,247.4845,285.2847,240.5788,281.6723,234.0341,278.0254,227.8332
,274.3478,221.9607,270.6431,216.4024,266.9152,211.1455,263.168,206.1782,259.4052,201.4896,255.6308,197.0698,251.8486,192.9095
,248.0625,189,244.2764,185.3334,236.7198,178.6988,229.2098,172.9504,221.7772,168.0382,214.4527,163.9163,207.2663,160.5423
,200.2475,157.8759,193.4252,155.8785,180.4812,153.7429,168.647,153.8451,158.1167,155.8991,149.0633,159.6176,141.6356,164.7087
,135.9553,170.8754,132.1158,177.8148,130.1802,185.2197,130.1802,192.7803,132.1158,200.1852,135.9553,207.1246,141.6356,213.2913
,149.0633,218.3824,158.1167,222.1009,168.647,224.1549,180.4812,224.2571,193.4252,222.1215,200.2475,220.1241,207.2663,217.4577
,214.4527,214.0837,221.7772,209.9618,229.2098,205.0496,236.7198,199.3012,244.2764,192.6666,248.0625,189,251.8486,185.0905
,255.6308,180.9302,259.4052,176.5104,263.168,171.8218,266.9152,166.8545,270.6431,161.5976,274.3478,156.0393,278.0254,150.1668
,281.6723,143.9659,285.2847,137.4212,288.8587,130.5155,292.3909,123.2299,295.8775,115.5433,299.315,107.4321,302.6998,98.87
,306.0285,89.8274,309.2976,80.2708,312.5038,70.1625,315.6438,59.4593,318.7143,48.1122,321.7122,36.0648,323.183,29.7585
,324.6345,23.252,326.0663,16.5357,327.478,9.5989"/>
</g>
<g fill="none" stroke="rgb(0,0,0)" stroke-width="1.0627" stroke-linejoin="round" >
<polyline points="338.0475,0,0,307.0058"/>
</g>
<g fill="none" stroke="rgb(0,0,0)" stroke-width="1.0627" stroke-linejoin="round" >
<polyline points="378,65.2292,318.7606,0"/>
</g>
<g stroke="rgb(0,0,0)" stroke-width="0.5313" stroke-linecap="round"  stroke-linejoin="round" >
<path d="M329.8694,9.5989 A2.3913,2.3913 0 1,0 325.0867,9.5989 A2.3913,2.3913 0 1,0 329.8694,9.5989" fill="rgb(0,0,0)"/>
</g>
<svg viewBox="0 0 378 378">
<text font-size="13.2835px" x="334" y="3" text-anchor="start"  fill="rgb(0,0,0)">
A
</text>
</svg>
<svg viewBox="0 0 378 378">
<text font-size="13.2835px" x="21" y="12" text-anchor="start" dominant-baseline="middle" fill="rgb(0,0,0)">
AB = 1
</text>
</svg>
<g fill-opacity="0.5" fill-rule="evenodd" stroke="rgb(0,0,0)" stroke-width="1.0627" stroke-linejoin="round" >
<clipPath id="Clip1">
<rect x="0" y="0" width="10cm" height="10cm"/>
</clipPath>
<path d="M327.478 9.5989 L257.5924 -67.353 L257.5218 73.1313 L327.478 9.5989 M289.2206,22.8101 L283.3642 28.1288 A5.9063,5.9063 0 0,1 273.4871,23.7535 L273.5045 -10.8359 A5.9063,5.9063 0 0,1 283.783,-14.8037 L300.99 4.143 A5.9063,5.9063 0 0,1 300.5885,12.4861 L289.2206 22.8101" fill="rgb(211,211,211)" clip-path="url(#Clip1)"/>
</g>
<g fill="none" stroke="rgb(0,0,0)" stroke-width="0.2657" stroke-linejoin="round" >
<polyline points="324.3014,6.1011,315.9067,13.725"/>
<polyline points="323.0308,4.702,320.2325,7.2433"/>
<polyline points="321.7601,3.3028,318.9619,5.8441"/>
<polyline points="320.4895,1.9037,317.6912,4.445"/>
<polyline points="319.2188,0.5046,316.4206,3.0459"/>
<polyline points="316.9632,0,312.3517,4.1881"/>
<polyline points="314.152,0,313.8793,0.2476"/>
</g>
<svg viewBox="0 0 378 378">
<text font-size="5.3134px" x="296" y="32" text-anchor="start" dominant-baseline="middle" fill="rgb(0,0,0)" transform="rotate(138 296 32)">
\TeX graph
</text>
</svg>
<g stroke="rgb(0,0,0)" stroke-width="1.0627" stroke-linejoin="round" >
<polygon fill="rgb(128,128,128)" points="336.1971,37.3007,359.8221,78.2204,370.734,71.9204,347.109,31.0007"/>
</g>
<g stroke="rgb(0,0,0)" stroke-width="1.0627" stroke-linejoin="round" >
<polyline fill="rgb(128,128,128)" points="341.653,34.1507,365.278,75.0704"/>
<polyline fill="rgb(128,128,128)" points="337.5611,36.5132,361.1861,77.4329"/>
<polyline fill="rgb(128,128,128)" points="345.745,31.7882,369.37,72.7079"/>
</g>
<g stroke="rgb(0,0,0)" stroke-width="1.0627" stroke-linejoin="round" >
<polygon fill="rgb(255,228,196)" points="336.1971,37.3007,327.478,9.5989,347.109,31.0007,346.69,33.425,343.699,32.9695,342.598,35.7875
,339.6071,35.332,338.5061,38.15"/>
</g>
<g stroke="rgb(0,0,0)" stroke-width="1.0627" stroke-linejoin="round" >
<path d="M330.3844 18.8328 L327.478 9.5989 L334.0217 16.7328 C334.0574,18.8946 330.3487,16.6711 330.3844,18.8328z" fill="rgb(255,0,0)"/>
</g>
<g stroke="rgb(0,0,0)" stroke-width="1.0627" stroke-linejoin="round" >
<polygon fill="rgb(255,20,147)" points="359.8221,78.2204,367.3821,91.3147,378,85.1845,378,84.5055,370.734,71.9204"/>
</g>
<g stroke="rgb(0,0,0)" stroke-width="1.0627" stroke-linejoin="round" >
<polygon fill="rgb(192,192,192)" points="359.8221,78.2204,362.6571,83.1308,373.569,76.8308,370.734,71.9204"/>
</g>
<g stroke="rgb(0,0,0)" stroke-width="1.0627" stroke-linejoin="round" >
<polyline fill="rgb(192,192,192)" points="360.7671,79.8572,371.679,73.5572"/>
<polyline fill="rgb(192,192,192)" points="362.6571,83.1308,373.569,76.8308"/>
<polyline fill="rgb(192,192,192)" points="361.7121,81.494,372.624,75.194"/>
</g>
</svg>
