<?xml version="1.0" encoding="utf-8" standalone="no"?>
<!DOCTYPE svg PUBLIC "-//W3C//DTD SVG 1.1//EN" "http://www.w3.org/TR/2001/REC-SVG-20010904/DTD/svg11.dtd">
<svg width="10cm" height="10cm" viewBox="0 0 378 378" overflow="hidden"
 version="1.1" xmlns="http://www.w3.org/2000/svg"  xmlns:xlink="http://www.w3.org/1999/xlink">
<!--fond  (Utilisateur) -->
<g  stroke-linejoin="round" >
<polygon fill="rgb(245,245,220)" points="0,0,0,378,378,378,378,0"/>
</g>
<g fill="none" stroke="rgb(0,0,0)" stroke-width="0.797" stroke-linejoin="round" >
<polyline points="-0.378,189,377.2209,189"/>
</g>
<g fill="none" stroke="rgb(0,0,0)" stroke-width="0.797" stroke-linecap="round"  stroke-linejoin="round" >
<path d="M371.493,184.41 C371.493,186.705 377.163,189 377.973,189 C377.163,189 371.493,191.295 371.493,193.59"/>
</g>
<g fill="none" stroke="rgb(0,0,0)" stroke-width="0.797" stroke-linejoin="round" >
<polyline points="129.9375,192.78,129.9375,185.22"/>
</g>
<g fill="none" stroke="rgb(0,0,0)" stroke-width="0.797" stroke-linejoin="round" >
<polyline points="129.9375,378.378,129.9375,0.7791"/>
</g>
<g fill="none" stroke="rgb(0,0,0)" stroke-width="0.797" stroke-linecap="round"  stroke-linejoin="round" >
<path d="M125.3475,6.507 C127.6425,6.507 129.9375,0.837 129.9375,0.027 C129.9375,0.837 132.2325,6.507 134.5275,6.507"/>
</g>
<g fill="none" stroke="rgb(0,0,0)" stroke-width="0.797" stroke-linejoin="round" >
<polyline points="133.7175,307.125,126.1575,307.125"/>
<polyline points="133.7175,189,126.1575,189"/>
<polyline points="133.7175,70.875,126.1575,70.875"/>
</g>
<svg viewBox="0 0 378 378">
<text font-size="13.2835px" x="119" y="71" text-anchor="end" dominant-baseline="middle" fill="rgb(0,0,0)">
1
</text>
</svg>
<svg viewBox="0 0 378 378">
<text font-size="13.2835px" x="119" y="307" text-anchor="end" dominant-baseline="middle" fill="rgb(0,0,0)">
-1
</text>
</svg>
<g fill="none" stroke="rgb(0,0,0)" stroke-width="0.797" stroke-linejoin="round" >
<polyline points="248.0625,378,248.0625,0"/>
</g>
<g fill="none" stroke="rgb(0,0,0)" stroke-width="0.797" stroke-linejoin="round" >
<polyline points="366.1875,378,366.1875,0"/>
</g>
<svg viewBox="0 0 378 378">
<text font-size="13.2835px" x="239" y="197" text-anchor="middle" dominant-baseline="text-before-edge" fill="rgb(0,0,0)">
1
</text>
</svg>
<g fill="none" stroke="rgb(0,0,0)" stroke-width="0.5313" stroke-linejoin="round" >
<polyline points="250.1881,189,245.9369,189"/>
<polyline points="248.0625,186.8744,248.0625,191.1256"/>
</g>
<svg viewBox="0 0 378 378">
<text font-size="13.2835px" x="357" y="197" text-anchor="middle" dominant-baseline="text-before-edge" fill="rgb(0,0,0)">
2
</text>
</svg>
<g fill="none" stroke="rgb(0,0,0)" stroke-width="0.5313" stroke-linejoin="round" >
<polyline points="368.3131,189,364.0619,189"/>
<polyline points="366.1875,186.8744,366.1875,191.1256"/>
</g>
<svg viewBox="0 0 378 378">
<text font-size="13.2835px" x="12" y="197" text-anchor="middle" dominant-baseline="text-before-edge" fill="rgb(0,0,0)">
-1
</text>
</svg>
<g fill="none" stroke="rgb(0,0,0)" stroke-width="0.5313" stroke-linejoin="round" >
<polyline points="13.9381,189,9.6869,189"/>
<polyline points="11.8125,186.8744,11.8125,191.1256"/>
</g>
<g stroke="rgb(0,0,0)" stroke-width="0.5313" stroke-linecap="round"  stroke-linejoin="round" >
<path d="M132.0631,189 A2.1256,2.1256 0 1,0 127.8119,189 A2.1256,2.1256 0 1,0 132.0631,189" fill="rgb(0,0,0)"/>
</g>
<svg viewBox="0 0 378 378">
<text font-size="13.2835px" x="123" y="182" text-anchor="end"  fill="rgb(0,0,0)">
O
</text>
</svg>
<!--dessin  (Utilisateur) -->
<g fill="none" stroke="rgb(255,0,0)" stroke-width="1.594" stroke-linejoin="round" >
<polyline points="329.3188,378,328.8694,375.5696,327.478,368.4011,326.0663,361.4643,324.6345,354.748,323.183,348.2415"/>
</g>
<g fill="none" stroke="rgb(0,0,0)" stroke-width="1.0627" stroke-linejoin="round" >
<polyline points="359.296,378,0,81.9267"/>
</g>
<g fill="none" stroke="rgb(0,0,0)" stroke-width="1.0627" stroke-linejoin="round" >
<polyline points="298.6609,378,378,281.719"/>
</g>
<g stroke="rgb(0,0,0)" stroke-width="0.5313" stroke-linecap="round"  stroke-linejoin="round" >
<path d="M325.5743,348.2415 A2.3913,2.3913 0 1,0 320.7917,348.2415 A2.3913,2.3913 0 1,0 325.5743,348.2415" fill="rgb(0,0,0)"/>
</g>
<g fill-opacity="0.5" fill-rule="evenodd" stroke="rgb(0,0,0)" stroke-width="1.0627" stroke-linejoin="round" >
<clipPath id="Clip1">
<rect x="0" y="0" width="10cm" height="10cm"/>
</clipPath>
<path d="M323.183 348.2415 L257.077 428.4637 L250.2538 288.1451 L323.183 348.2415 M284.3348,336.8845 L278.2294 331.8535 A5.9063,5.9063 0 0,0 268.5741,336.6984 L270.2541 371.247 A5.9063,5.9063 0 0,0 280.7115,374.7162 L296.9878 354.9643 A5.9063,5.9063 0 0,0 296.1858,346.6502 L284.3348 336.8845" fill="rgb(211,211,211)" clip-path="url(#Clip1)"/>
</g>
<g fill="none" stroke="rgb(0,0,0)" stroke-width="0.2657" stroke-linejoin="round" >
<polyline points="320.1782,351.888,311.4267,344.6764"/>
<polyline points="318.9763,353.3466,316.0591,350.9427"/>
<polyline points="317.7743,354.8051,314.8572,352.4013"/>
<polyline points="316.5724,356.2637,313.6552,353.8599"/>
<polyline points="315.3705,357.7223,312.4533,355.3185"/>
<polyline points="314.1685,359.1809,308.3342,354.3732"/>
<polyline points="312.9666,360.6395,310.0494,358.2356"/>
<polyline points="311.7647,362.0981,308.8475,359.6942"/>
<polyline points="310.5628,363.5566,307.6456,361.1528"/>
<polyline points="309.3608,365.0152,306.4437,362.6114"/>
<polyline points="308.1589,366.4738,299.4074,359.2622"/>
<polyline points="306.957,367.9324,304.0398,365.5285"/>
<polyline points="305.755,369.391,302.8379,366.9871"/>
<polyline points="304.5531,370.8496,301.636,368.4457"/>
<polyline points="303.3512,372.3082,300.434,369.9043"/>
<polyline points="302.1493,373.7667,296.3149,368.959"/>
<polyline points="300.9473,375.2253,298.0302,372.8215"/>
<polyline points="299.7454,376.6839,296.8282,374.28"/>
<polyline points="298.3706,378,295.6263,375.7386"/>
<polyline points="295.3986,378,294.4244,377.1972"/>
<polyline points="292.4266,378,287.3881,373.8481"/>
</g>
<svg viewBox="0 0 378 378">
<text font-size="5.3134px" x="291" y="328" text-anchor="start" dominant-baseline="middle" fill="rgb(0,0,0)" transform="rotate(-141 291 328)">
\TeX graph
</text>
</svg>
<g stroke="rgb(0,0,0)" stroke-width="1.0627" stroke-linejoin="round" >
<polygon fill="rgb(128,128,128)" points="331.902,375.9433,333.0895,378,347.6387,378,342.814,369.6433"/>
</g>
<g stroke="rgb(0,0,0)" stroke-width="1.0627" stroke-linejoin="round" >
<polyline fill="rgb(128,128,128)" points="337.358,372.7933,340.3641,378"/>
<polyline fill="rgb(128,128,128)" points="333.266,375.1558,334.9081,378"/>
<polyline fill="rgb(128,128,128)" points="341.45,370.4308,345.82,378"/>
</g>
<g stroke="rgb(0,0,0)" stroke-width="1.0627" stroke-linejoin="round" >
<polygon fill="rgb(255,228,196)" points="331.902,375.9433,323.183,348.2415,342.814,369.6433,342.395,372.0676,339.404,371.6121,338.303,374.4301
,335.312,373.9746,334.211,376.7926"/>
</g>
<g stroke="rgb(0,0,0)" stroke-width="1.0627" stroke-linejoin="round" >
<path d="M326.0894 357.4754 L323.183 348.2415 L329.7267 355.3754 C329.7623,357.5372 326.0537,355.3137 326.0894,357.4754z" fill="rgb(255,0,0)"/>
</g>
</svg>
