<?xml version="1.0" encoding="utf-8" standalone="no"?>
<!DOCTYPE svg PUBLIC "-//W3C//DTD SVG 1.1//EN" "http://www.w3.org/TR/2001/REC-SVG-20010904/DTD/svg11.dtd">
<svg width="10cm" height="10cm" viewBox="0 0 378 378" overflow="hidden"
 version="1.1" xmlns="http://www.w3.org/2000/svg"  xmlns:xlink="http://www.w3.org/1999/xlink">
<!--dessin  (Utilisateur) -->
<g fill="none" stroke="rgb(255,0,0)" stroke-width="1.594" stroke-linejoin="round" >
<polyline points="329.3188,378,328.8694,375.5696,327.478,368.4011,326.0663,361.4643,324.6345,354.748,323.183,348.2415
,321.7122,341.9352,318.7143,329.8878,315.6438,318.5407,312.5038,307.8375,309.2976,297.7292,306.0285,288.1726,302.6998,279.13
,299.315,270.5679,295.8775,262.4567,292.3909,254.7701,288.8587,247.4845,285.2847,240.5788,281.6723,234.0341,278.0254,227.8332
,274.3478,221.9607,270.6431,216.4024,266.9152,211.1455,263.168,206.1782,259.4052,201.4896,255.6308,197.0698,251.8486,192.9095
,248.0625,189,244.2764,185.3334,236.7198,178.6988,229.2098,172.9504,221.7772,168.0382,214.4527,163.9163,207.2663,160.5423
,200.2475,157.8759,193.4252,155.8785,180.4812,153.7429,168.647,153.8451,158.1167,155.8991,149.0633,159.6176,141.6356,164.7087
,135.9553,170.8754,132.1158,177.8148,130.1802,185.2197,130.1802,192.7803,132.1158,200.1852,135.9553,207.1246,141.6356,213.2913
,149.0633,218.3824,158.1167,222.1009,168.647,224.1549,180.4812,224.2571,193.4252,222.1215,200.2475,220.1241,207.2663,217.4577
,214.4527,214.0837,221.7772,209.9618,229.2098,205.0496,236.7198,199.3012,244.2764,192.6666"/>
</g>
<g fill="none" stroke="rgb(0,0,0)" stroke-width="1.0627" stroke-linejoin="round" >
<polyline points="378,196.9549,0,184.8332"/>
</g>
<g fill="none" stroke="rgb(0,0,0)" stroke-width="1.0627" stroke-linejoin="round" >
<polyline points="238.3331,378,250.4549,0"/>
</g>
<g stroke="rgb(0,0,0)" stroke-width="0.5313" stroke-linecap="round"  stroke-linejoin="round" >
<path d="M250.4538,74.6023 A2.3913,2.3913 0 1,0 245.6712,74.6023 A2.3913,2.3913 0 1,0 250.4538,74.6023" fill="rgb(0,0,0)"/>
</g>
<svg viewBox="0 0 378 378">
<text font-size="13.2835px" x="258" y="75" text-anchor="start" dominant-baseline="middle" fill="rgb(0,0,0)">
B
</text>
</svg>
<g stroke="rgb(0,0,0)" stroke-width="0.5313" stroke-linecap="round"  stroke-linejoin="round" >
<path d="M246.6677,192.6666 A2.3913,2.3913 0 1,0 241.8851,192.6666 A2.3913,2.3913 0 1,0 246.6677,192.6666" fill="rgb(0,0,0)"/>
</g>
<svg viewBox="0 0 378 378">
<text font-size="13.2835px" x="251" y="186" text-anchor="start"  fill="rgb(0,0,0)">
A
</text>
</svg>
<svg viewBox="0 0 378 378">
<text font-size="13.2835px" x="21" y="12" text-anchor="start" dominant-baseline="middle" fill="rgb(0,0,0)">
AB = 1
</text>
</svg>
<g fill-opacity="0.5" fill-rule="evenodd" stroke="rgb(0,0,0)" stroke-width="1.0627" stroke-linejoin="round" >
<path d="M244.2764 192.6666 L247.6082 88.77 L149.825 189.6378 L244.2764 192.6666 M207.6034,175.5418 L199.6963 175.2883 A5.9063,5.9063 0 0,1 195.645,165.2741 L219.7207 140.4389 A5.9063,5.9063 0 0,1 229.8646,144.7392 L229.0443 170.3201 A5.9063,5.9063 0 0,1 222.9517,176.034 L207.6034 175.5418" fill="rgb(211,211,211)"/>
</g>
<g fill="none" stroke="rgb(0,0,0)" stroke-width="0.2657" stroke-linejoin="round" >
<polyline points="244.4279,187.9441,233.0937,187.5806"/>
<polyline points="244.4884,186.055,240.7104,185.9339"/>
<polyline points="244.549,184.166,240.7709,184.0448"/>
<polyline points="244.6096,182.277,240.8315,182.1558"/>
<polyline points="244.6702,180.3879,240.8921,180.2668"/>
<polyline points="244.7307,178.4989,237.1746,178.2566"/>
<polyline points="244.7913,176.6099,241.0133,176.4887"/>
<polyline points="244.8519,174.7209,241.0738,174.5997"/>
<polyline points="244.9125,172.8318,241.1344,172.7107"/>
<polyline points="244.973,170.9428,241.195,170.8216"/>
<polyline points="245.0336,169.0538,233.6995,168.6903"/>
<polyline points="245.0942,167.1647,241.3161,167.0436"/>
<polyline points="245.1548,165.2757,241.3767,165.1546"/>
<polyline points="245.2154,163.3867,241.4373,163.2655"/>
<polyline points="245.2759,161.4976,241.4979,161.3765"/>
<polyline points="245.3365,159.6086,237.7804,159.3663"/>
<polyline points="245.3971,157.7196,241.619,157.5984"/>
<polyline points="245.4577,155.8306,241.6796,155.7094"/>
<polyline points="245.5182,153.9415,241.7402,153.8204"/>
<polyline points="245.5788,152.0525,241.8008,151.9313"/>
<polyline points="245.6394,150.1635,234.3052,149.8"/>
<polyline points="245.7,148.2744,241.9219,148.1533"/>
<polyline points="245.7606,146.3854,241.9825,146.2643"/>
<polyline points="245.8211,144.4964,242.0431,144.3752"/>
<polyline points="245.8817,142.6074,242.1037,142.4862"/>
<polyline points="245.9423,140.7183,238.3862,140.476"/>
<polyline points="246.0029,138.8293,242.2248,138.7081"/>
<polyline points="246.0634,136.9403,242.2854,136.8191"/>
<polyline points="246.124,135.0512,242.346,134.9301"/>
<polyline points="246.1846,133.1622,242.4065,133.0411"/>
<polyline points="246.2452,131.2732,234.911,130.9097"/>
<polyline points="246.3058,129.3842,242.5277,129.263"/>
<polyline points="246.3663,127.4951,242.5883,127.374"/>
<polyline points="246.4269,125.6061,242.6489,125.4849"/>
<polyline points="246.4875,123.7171,242.7094,123.5959"/>
<polyline points="246.5481,121.828,238.9919,121.5857"/>
<polyline points="246.6086,119.939,242.8306,119.8179"/>
<polyline points="246.6692,118.05,242.8912,117.9288"/>
<polyline points="246.7298,116.161,242.9517,116.0398"/>
<polyline points="246.7904,114.2719,243.0123,114.1508"/>
<polyline points="246.851,112.3829,235.5168,112.0194"/>
<polyline points="246.9115,110.4939,243.1335,110.3727"/>
<polyline points="246.9721,108.6048,243.194,108.4837"/>
<polyline points="247.0327,106.7158,243.2546,106.5947"/>
<polyline points="247.0933,104.8268,243.3152,104.7056"/>
<polyline points="247.1538,102.9378,239.5977,102.6954"/>
<polyline points="247.2144,101.0487,243.4364,100.9276"/>
<polyline points="247.275,99.1597,243.4969,99.0385"/>
<polyline points="247.3356,97.2707,243.5575,97.1495"/>
<polyline points="247.3961,95.3816,243.6181,95.2605"/>
</g>
<svg viewBox="0 0 378 378">
<text font-size="5.3134px" x="207" y="187" text-anchor="start" dominant-baseline="middle" fill="rgb(0,0,0)" transform="rotate(-178 207 187)">
\TeX graph
</text>
</svg>
<g stroke="rgb(0,0,0)" stroke-width="1.0627" stroke-linejoin="round" >
<polygon fill="rgb(128,128,128)" points="252.9954,220.3684,276.6204,261.2881,287.5324,254.9881,263.9074,214.0684"/>
</g>
<g stroke="rgb(0,0,0)" stroke-width="1.0627" stroke-linejoin="round" >
<polyline fill="rgb(128,128,128)" points="258.4514,217.2184,282.0764,258.1381"/>
<polyline fill="rgb(128,128,128)" points="254.3594,219.5809,277.9844,260.5006"/>
<polyline fill="rgb(128,128,128)" points="262.5434,214.8559,286.1684,255.7756"/>
</g>
<g stroke="rgb(0,0,0)" stroke-width="1.0627" stroke-linejoin="round" >
<polygon fill="rgb(255,228,196)" points="252.9954,220.3684,244.2764,192.6666,263.9074,214.0684,263.4884,216.4927,260.4974,216.0372,259.3964,218.8552
,256.4054,218.3997,255.3044,221.2177"/>
</g>
<g stroke="rgb(0,0,0)" stroke-width="1.0627" stroke-linejoin="round" >
<path d="M247.1828 201.9006 L244.2764 192.6666 L250.8201 199.8006 C250.8557,201.9624 247.1471,199.7388 247.1828,201.9006z" fill="rgb(255,0,0)"/>
</g>
<g stroke="rgb(0,0,0)" stroke-width="1.0627" stroke-linejoin="round" >
<polygon fill="rgb(255,20,147)" points="276.6204,261.2881,284.1804,274.3825,295.0924,268.0825,287.5324,254.9881"/>
</g>
<g stroke="rgb(0,0,0)" stroke-width="1.0627" stroke-linejoin="round" >
<polygon fill="rgb(192,192,192)" points="276.6204,261.2881,279.4554,266.1985,290.3674,259.8985,287.5324,254.9881"/>
</g>
<g stroke="rgb(0,0,0)" stroke-width="1.0627" stroke-linejoin="round" >
<polyline fill="rgb(192,192,192)" points="277.5654,262.9249,288.4774,256.6249"/>
<polyline fill="rgb(192,192,192)" points="279.4554,266.1985,290.3674,259.8985"/>
<polyline fill="rgb(192,192,192)" points="278.5104,264.5617,289.4224,258.2617"/>
</g>
</svg>
