<?xml version="1.0" encoding="utf-8" standalone="no"?>
<!DOCTYPE svg PUBLIC "-//W3C//DTD SVG 1.1//EN" "http://www.w3.org/TR/2001/REC-SVG-20010904/DTD/svg11.dtd">
<svg width="10cm" height="10cm" viewBox="0 0 378 378" overflow="hidden"
 version="1.1" xmlns="http://www.w3.org/2000/svg"  xmlns:xlink="http://www.w3.org/1999/xlink">
<!--fond  (Utilisateur) -->
<g  stroke-linejoin="round" >
<polygon fill="rgb(245,245,220)" points="0,0,0,378,378,378,378,0"/>
</g>
<g fill="none" stroke="rgb(0,0,0)" stroke-width="0.797" stroke-linejoin="round" >
<polyline points="-0.378,189,377.2209,189"/>
</g>
<g fill="none" stroke="rgb(0,0,0)" stroke-width="0.797" stroke-linecap="round"  stroke-linejoin="round" >
<path d="M371.493,184.41 C371.493,186.705 377.163,189 377.973,189 C377.163,189 371.493,191.295 371.493,193.59"/>
</g>
<g fill="none" stroke="rgb(0,0,0)" stroke-width="0.797" stroke-linejoin="round" >
<polyline points="129.9375,192.78,129.9375,185.22"/>
</g>
<g fill="none" stroke="rgb(0,0,0)" stroke-width="0.797" stroke-linejoin="round" >
<polyline points="129.9375,378.378,129.9375,0.7791"/>
</g>
<g fill="none" stroke="rgb(0,0,0)" stroke-width="0.797" stroke-linecap="round"  stroke-linejoin="round" >
<path d="M125.3475,6.507 C127.6425,6.507 129.9375,0.837 129.9375,0.027 C129.9375,0.837 132.2325,6.507 134.5275,6.507"/>
</g>
<g fill="none" stroke="rgb(0,0,0)" stroke-width="0.797" stroke-linejoin="round" >
<polyline points="133.7175,307.125,126.1575,307.125"/>
<polyline points="133.7175,189,126.1575,189"/>
<polyline points="133.7175,70.875,126.1575,70.875"/>
</g>
<svg viewBox="0 0 378 378">
<text font-size="13.2835px" x="119" y="71" text-anchor="end" dominant-baseline="middle" fill="rgb(0,0,0)">
1
</text>
</svg>
<svg viewBox="0 0 378 378">
<text font-size="13.2835px" x="119" y="307" text-anchor="end" dominant-baseline="middle" fill="rgb(0,0,0)">
-1
</text>
</svg>
<g fill="none" stroke="rgb(0,0,0)" stroke-width="0.797" stroke-linejoin="round" >
<polyline points="248.0625,378,248.0625,0"/>
</g>
<g fill="none" stroke="rgb(0,0,0)" stroke-width="0.797" stroke-linejoin="round" >
<polyline points="366.1875,378,366.1875,0"/>
</g>
<svg viewBox="0 0 378 378">
<text font-size="13.2835px" x="239" y="197" text-anchor="middle" dominant-baseline="text-before-edge" fill="rgb(0,0,0)">
1
</text>
</svg>
<g fill="none" stroke="rgb(0,0,0)" stroke-width="0.5313" stroke-linejoin="round" >
<polyline points="250.1881,189,245.9369,189"/>
<polyline points="248.0625,186.8744,248.0625,191.1256"/>
</g>
<svg viewBox="0 0 378 378">
<text font-size="13.2835px" x="357" y="197" text-anchor="middle" dominant-baseline="text-before-edge" fill="rgb(0,0,0)">
2
</text>
</svg>
<g fill="none" stroke="rgb(0,0,0)" stroke-width="0.5313" stroke-linejoin="round" >
<polyline points="368.3131,189,364.0619,189"/>
<polyline points="366.1875,186.8744,366.1875,191.1256"/>
</g>
<svg viewBox="0 0 378 378">
<text font-size="13.2835px" x="12" y="197" text-anchor="middle" dominant-baseline="text-before-edge" fill="rgb(0,0,0)">
-1
</text>
</svg>
<g fill="none" stroke="rgb(0,0,0)" stroke-width="0.5313" stroke-linejoin="round" >
<polyline points="13.9381,189,9.6869,189"/>
<polyline points="11.8125,186.8744,11.8125,191.1256"/>
</g>
<g stroke="rgb(0,0,0)" stroke-width="0.5313" stroke-linecap="round"  stroke-linejoin="round" >
<path d="M132.0631,189 A2.1256,2.1256 0 1,0 127.8119,189 A2.1256,2.1256 0 1,0 132.0631,189" fill="rgb(0,0,0)"/>
</g>
<svg viewBox="0 0 378 378">
<text font-size="13.2835px" x="123" y="182" text-anchor="end"  fill="rgb(0,0,0)">
O
</text>
</svg>
<!--dessin  (Utilisateur) -->
<g fill="none" stroke="rgb(255,0,0)" stroke-width="1.594" stroke-linejoin="round" >
<polyline points="329.3188,378,328.8694,375.5696,327.478,368.4011,326.0663,361.4643,324.6345,354.748,323.183,348.2415
,321.7122,341.9352,318.7143,329.8878,315.6438,318.5407,312.5038,307.8375,309.2976,297.7292,306.0285,288.1726,302.6998,279.13
,299.315,270.5679,295.8775,262.4567,292.3909,254.7701,288.8587,247.4845,285.2847,240.5788,281.6723,234.0341,278.0254,227.8332
,274.3478,221.9607,270.6431,216.4024,266.9152,211.1455,263.168,206.1782,259.4052,201.4896,255.6308,197.0698,251.8486,192.9095
,248.0625,189,244.2764,185.3334,236.7198,178.6988,229.2098,172.9504,221.7772,168.0382,214.4527,163.9163,207.2663,160.5423
,200.2475,157.8759,193.4252,155.8785,180.4812,153.7429,168.647,153.8451"/>
</g>
<g fill="none" stroke="rgb(0,0,0)" stroke-width="1.0627" stroke-linejoin="round" >
<polyline points="338.0475,0,0,307.0058"/>
</g>
<g fill="none" stroke="rgb(0,0,0)" stroke-width="1.0627" stroke-linejoin="round" >
<polyline points="372.2185,378,28.9289,0"/>
</g>
<g stroke="rgb(0,0,0)" stroke-width="0.5313" stroke-linecap="round"  stroke-linejoin="round" >
<path d="M250.4538,241.2904 A2.3913,2.3913 0 1,0 245.6712,241.2904 A2.3913,2.3913 0 1,0 250.4538,241.2904" fill="rgb(0,0,0)"/>
</g>
<g stroke="rgb(0,0,0)" stroke-width="0.5313" stroke-linecap="round"  stroke-linejoin="round" >
<path d="M171.0383,153.8451 A2.3913,2.3913 0 1,0 166.2556,153.8451 A2.3913,2.3913 0 1,0 171.0383,153.8451" fill="rgb(0,0,0)"/>
</g>
<g fill-opacity="0.5" fill-rule="evenodd" stroke="rgb(0,0,0)" stroke-width="1.0627" stroke-linejoin="round" >
<path d="M168.647 153.8451 L238.5326 230.797 L98.6907 217.3775 L168.647 153.8451 M151.8232,190.6572 L145.9668 195.9758 A5.9063,5.9063 0 0,0 149.3734,206.2273 L183.8046 209.5314 A5.9063,5.9063 0 0,0 188.7411,199.6814 L171.5341 180.7347 A5.9063,5.9063 0 0,0 163.1911,180.3332 L151.8232 190.6572" fill="rgb(211,211,211)"/>
</g>
<g fill="none" stroke="rgb(0,0,0)" stroke-width="0.2657" stroke-linejoin="round" >
<polyline points="171.8236,157.3429,163.4288,164.9668"/>
<polyline points="173.0942,158.742,170.296,161.2833"/>
<polyline points="174.3649,160.1412,171.5666,162.6825"/>
<polyline points="175.6355,161.5403,172.8373,164.0816"/>
<polyline points="176.9062,162.9394,174.1079,165.4807"/>
<polyline points="178.1768,164.3385,172.5803,169.4211"/>
<polyline points="179.4475,165.7377,176.6492,168.279"/>
<polyline points="180.7181,167.1368,177.9199,169.6781"/>
<polyline points="181.9888,168.5359,179.1905,171.0772"/>
<polyline points="183.2594,169.935,180.4612,172.4763"/>
<polyline points="184.5301,171.3342,176.1353,178.9581"/>
<polyline points="185.8007,172.7333,183.0025,175.2746"/>
<polyline points="187.0714,174.1324,184.2731,176.6737"/>
<polyline points="188.342,175.5315,185.5438,178.0728"/>
<polyline points="189.6127,176.9307,186.8144,179.472"/>
<polyline points="190.8833,178.3298,185.2868,183.4124"/>
<polyline points="192.154,179.7289,189.3557,182.2702"/>
<polyline points="193.4246,181.128,190.6264,183.6693"/>
<polyline points="194.6953,182.5272,191.897,185.0685"/>
<polyline points="195.9659,183.9263,193.1677,186.4676"/>
<polyline points="197.2366,185.3254,188.8418,192.9493"/>
<polyline points="198.5072,186.7245,195.709,189.2658"/>
<polyline points="199.7779,188.1237,196.9796,190.665"/>
<polyline points="201.0485,189.5228,198.2502,192.0641"/>
<polyline points="202.3191,190.9219,199.5209,193.4632"/>
<polyline points="203.5898,192.321,197.9933,197.4036"/>
<polyline points="204.8604,193.7202,202.0622,196.2615"/>
<polyline points="206.1311,195.1193,203.3328,197.6606"/>
<polyline points="207.4017,196.5184,204.6035,199.0597"/>
<polyline points="208.6724,197.9175,205.8741,200.4588"/>
<polyline points="209.943,199.3167,201.5483,206.9406"/>
<polyline points="211.2137,200.7158,208.4154,203.2571"/>
<polyline points="212.4843,202.1149,209.6861,204.6562"/>
<polyline points="213.755,203.514,210.9567,206.0553"/>
<polyline points="215.0256,204.9132,212.2274,207.4545"/>
<polyline points="216.2963,206.3123,210.6998,211.3949"/>
<polyline points="217.5669,207.7114,214.7687,210.2527"/>
<polyline points="218.8376,209.1105,216.0393,211.6518"/>
<polyline points="220.1082,210.5097,217.31,213.051"/>
<polyline points="221.3789,211.9088,218.5806,214.4501"/>
<polyline points="222.6495,213.3079,214.2548,220.9318"/>
<polyline points="223.9202,214.7071,221.1219,217.2483"/>
<polyline points="225.1908,216.1062,222.3926,218.6475"/>
<polyline points="226.4615,217.5053,223.6632,220.0466"/>
<polyline points="227.7321,218.9044,224.9339,221.4457"/>
<polyline points="229.0028,220.3036,223.4063,225.3861"/>
<polyline points="230.2734,221.7027,227.4752,224.244"/>
<polyline points="231.5441,223.1018,228.7458,225.6431"/>
<polyline points="232.8147,224.5009,230.0165,227.0422"/>
<polyline points="234.0854,225.9001,231.2871,228.4414"/>
</g>
<svg viewBox="0 0 378 378">
<text font-size="5.3134px" x="144" y="183" text-anchor="start" dominant-baseline="middle" fill="rgb(0,0,0)" transform="rotate(138 144 183)">
\TeX graph
</text>
</svg>
<g stroke="rgb(0,0,0)" stroke-width="1.0627" stroke-linejoin="round" >
<polygon fill="rgb(128,128,128)" points="177.366,181.5469,200.991,222.4666,211.9029,216.1666,188.2779,175.2469"/>
</g>
<g stroke="rgb(0,0,0)" stroke-width="1.0627" stroke-linejoin="round" >
<polyline fill="rgb(128,128,128)" points="182.822,178.3969,206.447,219.3166"/>
<polyline fill="rgb(128,128,128)" points="178.73,180.7594,202.355,221.6791"/>
<polyline fill="rgb(128,128,128)" points="186.9139,176.0344,210.5389,216.9541"/>
</g>
<g stroke="rgb(0,0,0)" stroke-width="1.0627" stroke-linejoin="round" >
<polygon fill="rgb(255,228,196)" points="177.366,181.5469,168.647,153.8451,188.2779,175.2469,187.8589,177.6712,184.8679,177.2157,183.767,180.0337
,180.776,179.5782,179.675,182.3962"/>
</g>
<g stroke="rgb(0,0,0)" stroke-width="1.0627" stroke-linejoin="round" >
<path d="M171.5533 163.079 L168.647 153.8451 L175.1906 160.979 C175.2263,163.1408 171.5176,160.9172 171.5533,163.079z" fill="rgb(255,0,0)"/>
</g>
<g stroke="rgb(0,0,0)" stroke-width="1.0627" stroke-linejoin="round" >
<polygon fill="rgb(255,20,147)" points="200.991,222.4666,208.551,235.5609,219.4629,229.2609,211.9029,216.1666"/>
</g>
<g stroke="rgb(0,0,0)" stroke-width="1.0627" stroke-linejoin="round" >
<polygon fill="rgb(192,192,192)" points="200.991,222.4666,203.826,227.377,214.7379,221.077,211.9029,216.1666"/>
</g>
<g stroke="rgb(0,0,0)" stroke-width="1.0627" stroke-linejoin="round" >
<polyline fill="rgb(192,192,192)" points="201.936,224.1034,212.8479,217.8034"/>
<polyline fill="rgb(192,192,192)" points="203.826,227.377,214.7379,221.077"/>
<polyline fill="rgb(192,192,192)" points="202.881,225.7402,213.7929,219.4402"/>
</g>
</svg>
