<?xml version="1.0" encoding="utf-8" standalone="no"?>
<!DOCTYPE svg PUBLIC "-//W3C//DTD SVG 1.1//EN" "http://www.w3.org/TR/2001/REC-SVG-20010904/DTD/svg11.dtd">
<svg width="10cm" height="10cm" viewBox="0 0 378 378" overflow="hidden"
 version="1.1" xmlns="http://www.w3.org/2000/svg"  xmlns:xlink="http://www.w3.org/1999/xlink">
<!--dessin  (Utilisateur) -->
<g fill="none" stroke="rgb(255,0,0)" stroke-width="1.594" stroke-linejoin="round" >
<polyline points="329.3188,378,328.8694,375.5696,327.478,368.4011,326.0663,361.4643,324.6345,354.748,323.183,348.2415
,321.7122,341.9352,318.7143,329.8878,315.6438,318.5407,312.5038,307.8375,309.2976,297.7292"/>
</g>
<g fill="none" stroke="rgb(0,0,0)" stroke-width="1.0627" stroke-linejoin="round" >
<polyline points="378,339.3769,0,110.2311"/>
</g>
<g fill="none" stroke="rgb(0,0,0)" stroke-width="1.0627" stroke-linejoin="round" >
<polyline points="260.637,378,378,184.3974"/>
</g>
<g stroke="rgb(0,0,0)" stroke-width="0.5313" stroke-linecap="round"  stroke-linejoin="round" >
<path d="M311.689,297.7292 A2.3913,2.3913 0 1,0 306.9063,297.7292 A2.3913,2.3913 0 1,0 311.689,297.7292" fill="rgb(0,0,0)"/>
</g>
<svg viewBox="0 0 378 378">
<text font-size="13.2835px" x="316" y="291" text-anchor="start"  fill="rgb(0,0,0)">
A
</text>
</svg>
<svg viewBox="0 0 378 378">
<text font-size="13.2835px" x="21" y="12" text-anchor="start" dominant-baseline="middle" fill="rgb(0,0,0)">
AB = 1
</text>
</svg>
<g fill-opacity="0.5" fill-rule="evenodd" stroke="rgb(0,0,0)" stroke-width="1.0627" stroke-linejoin="round" >
<clipPath id="Clip1">
<rect x="0" y="0" width="10cm" height="10cm"/>
</clipPath>
<path d="M309.2976 297.7292 L255.4107 386.6213 L228.4866 248.7411 L309.2976 297.7292 M269.2202,292.0748 L262.4551 287.9738 A5.9063,5.9063 0 0,0 253.5966,294.1564 L260.2257 328.1046 A5.9063,5.9063 0 0,0 271.0732,330.0344 L284.341 308.1478 A5.9063,5.9063 0 0,0 282.352,300.0354 L269.2202 292.0748" fill="rgb(211,211,211)" clip-path="url(#Clip1)"/>
</g>
<g fill="none" stroke="rgb(0,0,0)" stroke-width="0.2657" stroke-linejoin="round" >
<polyline points="306.8482,301.7697,297.1509,295.8911"/>
<polyline points="305.8685,303.3859,302.636,301.4264"/>
<polyline points="304.8887,305.0021,301.6563,303.0426"/>
<polyline points="303.9089,306.6184,300.6765,304.6588"/>
<polyline points="302.9292,308.2346,299.6967,306.2751"/>
<polyline points="301.9494,309.8508,295.4845,305.9318"/>
<polyline points="300.9696,311.467,297.7372,309.5075"/>
<polyline points="299.9899,313.0832,296.7574,311.1237"/>
<polyline points="299.0101,314.6995,295.7777,312.7399"/>
<polyline points="298.0304,316.3157,294.7979,314.3562"/>
<polyline points="297.0506,317.9319,287.3533,312.0533"/>
<polyline points="296.0708,319.5481,292.8384,317.5886"/>
<polyline points="295.0911,321.1643,291.8586,319.2048"/>
<polyline points="294.1113,322.7806,290.8789,320.821"/>
<polyline points="293.1315,324.3968,289.8991,322.4373"/>
<polyline points="292.1518,326.013,285.6869,322.094"/>
<polyline points="291.172,327.6292,287.9396,325.6697"/>
<polyline points="290.1923,329.2454,286.9598,327.2859"/>
<polyline points="289.2125,330.8617,285.9801,328.9021"/>
<polyline points="288.2327,332.4779,285.0003,330.5184"/>
<polyline points="287.253,334.0941,277.5557,328.2155"/>
<polyline points="286.2732,335.7103,283.0408,333.7508"/>
<polyline points="285.2935,337.3265,282.061,335.367"/>
<polyline points="284.3137,338.9428,281.0813,336.9832"/>
<polyline points="283.3339,340.559,280.1015,338.5995"/>
<polyline points="282.3542,342.1752,275.8893,338.2562"/>
<polyline points="281.3744,343.7914,278.142,341.8319"/>
<polyline points="280.3946,345.4076,277.1622,343.4481"/>
<polyline points="279.4149,347.0239,276.1824,345.0643"/>
<polyline points="278.4351,348.6401,275.2027,346.6806"/>
<polyline points="277.4554,350.2563,267.758,344.3777"/>
<polyline points="276.4756,351.8725,273.2432,349.913"/>
<polyline points="275.4958,353.4887,272.2634,351.5292"/>
<polyline points="274.5161,355.105,271.2836,353.1454"/>
<polyline points="273.5363,356.7212,270.3039,354.7617"/>
<polyline points="272.5565,358.3374,266.0917,354.4184"/>
<polyline points="271.5768,359.9536,268.3443,357.9941"/>
<polyline points="270.597,361.5698,267.3646,359.6103"/>
<polyline points="269.6173,363.1861,266.3848,361.2265"/>
<polyline points="268.6375,364.8023,265.4051,362.8428"/>
<polyline points="267.6577,366.4185,257.9604,360.5399"/>
<polyline points="266.678,368.0347,263.4455,366.0752"/>
<polyline points="265.6982,369.6509,262.4658,367.6914"/>
<polyline points="264.7185,371.2672,261.486,369.3076"/>
<polyline points="263.7387,372.8834,260.5063,370.9239"/>
<polyline points="262.7589,374.4996,256.2941,370.5806"/>
<polyline points="261.7792,376.1158,258.5467,374.1563"/>
<polyline points="260.7994,377.732,257.567,375.7725"/>
<polyline points="257.5955,378,256.5872,377.3887"/>
</g>
<svg viewBox="0 0 378 378">
<text font-size="5.3134px" x="275" y="282" text-anchor="start" dominant-baseline="middle" fill="rgb(0,0,0)" transform="rotate(-149 275 282)">
\TeX graph
</text>
</svg>
<g stroke="rgb(0,0,0)" stroke-width="1.0627" stroke-linejoin="round" >
<polygon fill="rgb(128,128,128)" points="318.0167,325.431,341.6417,366.3507,352.5536,360.0507,328.9286,319.131"/>
</g>
<g stroke="rgb(0,0,0)" stroke-width="1.0627" stroke-linejoin="round" >
<polyline fill="rgb(128,128,128)" points="323.4726,322.281,347.0976,363.2007"/>
<polyline fill="rgb(128,128,128)" points="319.3807,324.6435,343.0057,365.5632"/>
<polyline fill="rgb(128,128,128)" points="327.5646,319.9185,351.1896,360.8382"/>
</g>
<g stroke="rgb(0,0,0)" stroke-width="1.0627" stroke-linejoin="round" >
<polygon fill="rgb(255,228,196)" points="318.0167,325.431,309.2976,297.7292,328.9286,319.131,328.5096,321.5553,325.5186,321.0997,324.4176,323.9178
,321.4266,323.4622,320.3257,326.2803"/>
</g>
<g stroke="rgb(0,0,0)" stroke-width="1.0627" stroke-linejoin="round" >
<path d="M312.204 306.9631 L309.2976 297.7292 L315.8413 304.8631 C315.8769,307.0249 312.1683,304.8013 312.204,306.9631z" fill="rgb(255,0,0)"/>
</g>
<g stroke="rgb(0,0,0)" stroke-width="1.0627" stroke-linejoin="round" >
<polygon fill="rgb(255,20,147)" points="341.6417,366.3507,348.3674,378,351.7044,378,360.1136,373.145,352.5536,360.0507"/>
</g>
<g stroke="rgb(0,0,0)" stroke-width="1.0627" stroke-linejoin="round" >
<polygon fill="rgb(192,192,192)" points="341.6417,366.3507,344.4767,371.261,355.3886,364.961,352.5536,360.0507"/>
</g>
<g stroke="rgb(0,0,0)" stroke-width="1.0627" stroke-linejoin="round" >
<polyline fill="rgb(192,192,192)" points="342.5867,367.9875,353.4986,361.6875"/>
<polyline fill="rgb(192,192,192)" points="344.4767,371.261,355.3886,364.961"/>
<polyline fill="rgb(192,192,192)" points="343.5317,369.6243,354.4436,363.3243"/>
</g>
</svg>
