<?xml version="1.0" encoding="utf-8" standalone="no"?>
<!DOCTYPE svg PUBLIC "-//W3C//DTD SVG 1.1//EN" "http://www.w3.org/TR/2001/REC-SVG-20010904/DTD/svg11.dtd">
<svg width="10cm" height="10cm" viewBox="0 0 378 378" overflow="hidden"
 version="1.1" xmlns="http://www.w3.org/2000/svg"  xmlns:xlink="http://www.w3.org/1999/xlink">
<!--fond  (Utilisateur) -->
<g  stroke-linejoin="round" >
<polygon fill="rgb(245,245,220)" points="0,0,0,378,378,378,378,0"/>
</g>
<g fill="none" stroke="rgb(0,0,0)" stroke-width="0.797" stroke-linejoin="round" >
<polyline points="-0.378,189,377.2209,189"/>
</g>
<g fill="none" stroke="rgb(0,0,0)" stroke-width="0.797" stroke-linecap="round"  stroke-linejoin="round" >
<path d="M371.493,184.41 C371.493,186.705 377.163,189 377.973,189 C377.163,189 371.493,191.295 371.493,193.59"/>
</g>
<g fill="none" stroke="rgb(0,0,0)" stroke-width="0.797" stroke-linejoin="round" >
<polyline points="129.9375,192.78,129.9375,185.22"/>
</g>
<g fill="none" stroke="rgb(0,0,0)" stroke-width="0.797" stroke-linejoin="round" >
<polyline points="129.9375,378.378,129.9375,0.7791"/>
</g>
<g fill="none" stroke="rgb(0,0,0)" stroke-width="0.797" stroke-linecap="round"  stroke-linejoin="round" >
<path d="M125.3475,6.507 C127.6425,6.507 129.9375,0.837 129.9375,0.027 C129.9375,0.837 132.2325,6.507 134.5275,6.507"/>
</g>
<g fill="none" stroke="rgb(0,0,0)" stroke-width="0.797" stroke-linejoin="round" >
<polyline points="133.7175,307.125,126.1575,307.125"/>
<polyline points="133.7175,189,126.1575,189"/>
<polyline points="133.7175,70.875,126.1575,70.875"/>
</g>
<svg viewBox="0 0 378 378">
<text font-size="13.2835px" x="119" y="71" text-anchor="end" dominant-baseline="middle" fill="rgb(0,0,0)">
1
</text>
</svg>
<svg viewBox="0 0 378 378">
<text font-size="13.2835px" x="119" y="307" text-anchor="end" dominant-baseline="middle" fill="rgb(0,0,0)">
-1
</text>
</svg>
<g fill="none" stroke="rgb(0,0,0)" stroke-width="0.797" stroke-linejoin="round" >
<polyline points="248.0625,378,248.0625,0"/>
</g>
<g fill="none" stroke="rgb(0,0,0)" stroke-width="0.797" stroke-linejoin="round" >
<polyline points="366.1875,378,366.1875,0"/>
</g>
<svg viewBox="0 0 378 378">
<text font-size="13.2835px" x="239" y="197" text-anchor="middle" dominant-baseline="text-before-edge" fill="rgb(0,0,0)">
1
</text>
</svg>
<g fill="none" stroke="rgb(0,0,0)" stroke-width="0.5313" stroke-linejoin="round" >
<polyline points="250.1881,189,245.9369,189"/>
<polyline points="248.0625,186.8744,248.0625,191.1256"/>
</g>
<svg viewBox="0 0 378 378">
<text font-size="13.2835px" x="357" y="197" text-anchor="middle" dominant-baseline="text-before-edge" fill="rgb(0,0,0)">
2
</text>
</svg>
<g fill="none" stroke="rgb(0,0,0)" stroke-width="0.5313" stroke-linejoin="round" >
<polyline points="368.3131,189,364.0619,189"/>
<polyline points="366.1875,186.8744,366.1875,191.1256"/>
</g>
<svg viewBox="0 0 378 378">
<text font-size="13.2835px" x="12" y="197" text-anchor="middle" dominant-baseline="text-before-edge" fill="rgb(0,0,0)">
-1
</text>
</svg>
<g fill="none" stroke="rgb(0,0,0)" stroke-width="0.5313" stroke-linejoin="round" >
<polyline points="13.9381,189,9.6869,189"/>
<polyline points="11.8125,186.8744,11.8125,191.1256"/>
</g>
<g stroke="rgb(0,0,0)" stroke-width="0.5313" stroke-linecap="round"  stroke-linejoin="round" >
<path d="M132.0631,189 A2.1256,2.1256 0 1,0 127.8119,189 A2.1256,2.1256 0 1,0 132.0631,189" fill="rgb(0,0,0)"/>
</g>
<svg viewBox="0 0 378 378">
<text font-size="13.2835px" x="123" y="182" text-anchor="end"  fill="rgb(0,0,0)">
O
</text>
</svg>
<!--dessin  (Utilisateur) -->
<g fill="none" stroke="rgb(255,0,0)" stroke-width="1.594" stroke-linejoin="round" >
<polyline points="329.3188,378,328.8694,375.5696,327.478,368.4011,326.0663,361.4643,324.6345,354.748,323.183,348.2415
,321.7122,341.9352,318.7143,329.8878,315.6438,318.5407,312.5038,307.8375"/>
</g>
<g fill="none" stroke="rgb(0,0,0)" stroke-width="1.0627" stroke-linejoin="round" >
<polyline points="378,350.4708,0,104.4201"/>
</g>
<g fill="none" stroke="rgb(0,0,0)" stroke-width="1.0627" stroke-linejoin="round" >
<polyline points="266.8331,378,378,207.2178"/>
</g>
<g stroke="rgb(0,0,0)" stroke-width="0.5313" stroke-linecap="round"  stroke-linejoin="round" >
<path d="M314.8951,307.8375 A2.3913,2.3913 0 1,0 310.1125,307.8375 A2.3913,2.3913 0 1,0 314.8951,307.8375" fill="rgb(0,0,0)"/>
</g>
<g fill-opacity="0.5" fill-rule="evenodd" stroke="rgb(0,0,0)" stroke-width="1.0627" stroke-linejoin="round" >
<clipPath id="Clip1">
<rect x="0" y="0" width="10cm" height="10cm"/>
</clipPath>
<path d="M312.5038 307.8375 L255.7955 394.9568 L233.3045 256.2845 L312.5038 307.8375 M272.6282,300.9015 L265.998 296.5857 A5.9063,5.9063 0 0,0 256.9459,302.4813 L262.4835 336.6245 A5.9063,5.9063 0 0,0 273.2636,338.901 L287.226 317.4509 A5.9063,5.9063 0 0,0 285.4981,309.2789 L272.6282 300.9015" fill="rgb(211,211,211)" clip-path="url(#Clip1)"/>
</g>
<g fill="none" stroke="rgb(0,0,0)" stroke-width="0.2657" stroke-linejoin="round" >
<polyline points="309.9262,311.7975,300.4222,305.6111"/>
<polyline points="308.8951,313.3815,305.7271,311.3193"/>
<polyline points="307.864,314.9654,304.6961,312.9033"/>
<polyline points="306.833,316.5494,303.665,314.4873"/>
<polyline points="305.8019,318.1334,302.6339,316.0713"/>
<polyline points="304.7709,319.7174,298.4349,315.5932"/>
<polyline points="303.7398,321.3014,300.5718,319.2393"/>
<polyline points="302.7087,322.8854,299.5408,320.8232"/>
<polyline points="301.6777,324.4694,298.5097,322.4072"/>
<polyline points="300.6466,326.0533,297.4786,323.9912"/>
<polyline points="299.6155,327.6373,290.1116,321.451"/>
<polyline points="298.5845,329.2213,295.4165,327.1592"/>
<polyline points="297.5534,330.8053,294.3855,328.7432"/>
<polyline points="296.5224,332.3893,293.3544,330.3272"/>
<polyline points="295.4913,333.9733,292.3233,331.9112"/>
<polyline points="294.4602,335.5573,288.1243,331.433"/>
<polyline points="293.4292,337.1412,290.2612,335.0791"/>
<polyline points="292.3981,338.7252,289.2301,336.6631"/>
<polyline points="291.3671,340.3092,288.1991,338.2471"/>
<polyline points="290.336,341.8932,287.168,339.8311"/>
<polyline points="289.3049,343.4772,279.801,337.2908"/>
<polyline points="288.2739,345.0612,285.1059,342.9991"/>
<polyline points="287.2428,346.6452,284.0748,344.583"/>
<polyline points="286.2118,348.2292,283.0438,346.167"/>
<polyline points="285.1807,349.8131,282.0127,347.751"/>
<polyline points="284.1496,351.3971,277.8137,347.2729"/>
<polyline points="283.1186,352.9811,279.9506,350.919"/>
<polyline points="282.0875,354.5651,278.9195,352.503"/>
<polyline points="281.0565,356.1491,277.8885,354.087"/>
<polyline points="280.0254,357.7331,276.8574,355.671"/>
<polyline points="278.9943,359.3171,269.4904,353.1307"/>
<polyline points="277.9633,360.901,274.7953,358.8389"/>
<polyline points="276.9322,362.485,273.7642,360.4229"/>
<polyline points="275.9011,364.069,272.7332,362.0069"/>
<polyline points="274.8701,365.653,271.7021,363.5909"/>
<polyline points="273.839,367.237,267.5031,363.1127"/>
<polyline points="272.808,368.821,269.64,366.7589"/>
<polyline points="271.7769,370.405,268.6089,368.3428"/>
<polyline points="270.7458,371.989,267.5779,369.9268"/>
<polyline points="269.7148,373.5729,266.5468,371.5108"/>
<polyline points="268.6837,375.1569,259.1798,368.9706"/>
<polyline points="267.6527,376.7409,264.4847,374.6788"/>
<polyline points="266.1225,378,263.4536,376.2628"/>
<polyline points="262.658,378,262.4226,377.8468"/>
</g>
<svg viewBox="0 0 378 378">
<text font-size="5.3134px" x="278" y="291" text-anchor="start" dominant-baseline="middle" fill="rgb(0,0,0)" transform="rotate(-147 278 291)">
\TeX graph
</text>
</svg>
<g stroke="rgb(0,0,0)" stroke-width="1.0627" stroke-linejoin="round" >
<polygon fill="rgb(128,128,128)" points="321.2229,335.5393,344.8479,376.459,355.7598,370.159,332.1348,329.2393"/>
</g>
<g stroke="rgb(0,0,0)" stroke-width="1.0627" stroke-linejoin="round" >
<polyline fill="rgb(128,128,128)" points="326.6788,332.3893,350.3038,373.309"/>
<polyline fill="rgb(128,128,128)" points="322.5868,334.7518,346.2118,375.6715"/>
<polyline fill="rgb(128,128,128)" points="330.7708,330.0268,354.3958,370.9465"/>
</g>
<g stroke="rgb(0,0,0)" stroke-width="1.0627" stroke-linejoin="round" >
<polygon fill="rgb(255,228,196)" points="321.2229,335.5393,312.5038,307.8375,332.1348,329.2393,331.7158,331.6636,328.7248,331.2081,327.6238,334.0261
,324.6328,333.5706,323.5318,336.3886"/>
</g>
<g stroke="rgb(0,0,0)" stroke-width="1.0627" stroke-linejoin="round" >
<path d="M315.4102 317.0714 L312.5038 307.8375 L319.0475 314.9714 C319.0831,317.1332 315.3745,314.9097 315.4102,317.0714z" fill="rgb(255,0,0)"/>
</g>
<g stroke="rgb(0,0,0)" stroke-width="1.0627" stroke-linejoin="round" >
<polygon fill="rgb(255,20,147)" points="344.8479,376.459,345.7375,378,360.2868,378,355.7598,370.159"/>
</g>
<g stroke="rgb(0,0,0)" stroke-width="1.0627" stroke-linejoin="round" >
<polygon fill="rgb(192,192,192)" points="344.8479,376.459,345.7375,378,353.5188,378,358.5948,375.0694,355.7598,370.159"/>
</g>
<g stroke="rgb(0,0,0)" stroke-width="1.0627" stroke-linejoin="round" >
<polyline fill="rgb(192,192,192)" points="345.9588,378,356.7048,371.7958"/>
<polyline fill="rgb(192,192,192)" points="353.5188,378,358.5948,375.0694"/>
<polyline fill="rgb(192,192,192)" points="349.7388,378,357.6498,373.4326"/>
</g>
</svg>
