<?xml version="1.0" encoding="utf-8" standalone="no"?>
<!DOCTYPE svg PUBLIC "-//W3C//DTD SVG 1.1//EN" "http://www.w3.org/TR/2001/REC-SVG-20010904/DTD/svg11.dtd">
<svg width="10cm" height="10cm" viewBox="0 0 378 378" overflow="hidden"
 version="1.1" xmlns="http://www.w3.org/2000/svg"  xmlns:xlink="http://www.w3.org/1999/xlink">
<!--dessin  (Utilisateur) -->
<g fill="none" stroke="rgb(255,0,0)" stroke-width="1.594" stroke-linejoin="round" >
<polyline points="329.3188,378,328.8694,375.5696,327.478,368.4011,326.0663,361.4643,324.6345,354.748"/>
</g>
<g fill="none" stroke="rgb(0,0,0)" stroke-width="1.0627" stroke-linejoin="round" >
<polyline points="351.9477,378,0,78.3826"/>
</g>
<g fill="none" stroke="rgb(0,0,0)" stroke-width="1.0627" stroke-linejoin="round" >
<polyline points="304.8397,378,378,292.0618"/>
</g>
<g stroke="rgb(0,0,0)" stroke-width="0.5313" stroke-linecap="round"  stroke-linejoin="round" >
<path d="M327.0258,354.748 A2.3913,2.3913 0 1,0 322.2431,354.748 A2.3913,2.3913 0 1,0 327.0258,354.748" fill="rgb(0,0,0)"/>
</g>
<svg viewBox="0 0 378 378">
<text font-size="13.2835px" x="331" y="348" text-anchor="start"  fill="rgb(0,0,0)">
A
</text>
</svg>
<svg viewBox="0 0 378 378">
<text font-size="13.2835px" x="21" y="12" text-anchor="start" dominant-baseline="middle" fill="rgb(0,0,0)">
AB = 1
</text>
</svg>
<g fill-opacity="0.5" fill-rule="evenodd" stroke="rgb(0,0,0)" stroke-width="1.0627" stroke-linejoin="round" >
<clipPath id="Clip1">
<rect x="0" y="0" width="10cm" height="10cm"/>
</clipPath>
<path d="M324.6345 354.748 L257.2511 433.9003 L252.6778 293.4904 L324.6345 354.748 M285.9732,342.7697 L279.9494 337.6415 A5.9063,5.9063 0 0,0 270.2176,342.3311 L271.3437 376.9022 A5.9063,5.9063 0 0,0 281.7441,380.5385 L298.3349 361.05 A5.9063,5.9063 0 0,0 297.6662,352.7241 L285.9732 342.7697" fill="rgb(211,211,211)" clip-path="url(#Clip1)"/>
</g>
<g fill="none" stroke="rgb(0,0,0)" stroke-width="0.2657" stroke-linejoin="round" >
<polyline points="321.5716,358.3458,312.9368,350.9949"/>
<polyline points="320.3464,359.7849,317.4682,357.3346"/>
<polyline points="319.1213,361.2241,316.243,358.7737"/>
<polyline points="317.8961,362.6632,315.0179,360.2129"/>
<polyline points="316.671,364.1023,313.7927,361.652"/>
<polyline points="315.4458,365.5415,309.6893,360.6408"/>
<polyline points="314.2207,366.9806,311.3424,364.5303"/>
<polyline points="312.9955,368.4197,310.1173,365.9694"/>
<polyline points="311.7704,369.8588,308.8921,367.4085"/>
<polyline points="310.5452,371.298,307.667,368.8477"/>
<polyline points="309.3201,372.7371,300.6853,365.3862"/>
<polyline points="308.0949,374.1762,305.2167,371.7259"/>
<polyline points="306.8698,375.6154,303.9915,373.1651"/>
<polyline points="305.6446,377.0545,302.7664,374.6042"/>
<polyline points="303.8396,378,301.5412,376.0433"/>
<polyline points="300.924,378,297.4378,375.0322"/>
</g>
<svg viewBox="0 0 378 378">
<text font-size="5.3134px" x="293" y="334" text-anchor="start" dominant-baseline="middle" fill="rgb(0,0,0)" transform="rotate(-140 293 334)">
\TeX graph
</text>
</svg>
<g stroke="rgb(0,0,0)" stroke-width="1.0627" stroke-linejoin="round" >
<polygon fill="rgb(128,128,128)" points="345.3337,378,344.2654,376.1498,341.0608,378"/>
</g>
<g stroke="rgb(0,0,0)" stroke-width="1.0627" stroke-linejoin="round" >
<polyline fill="rgb(128,128,128)" points="342.9014,376.9373,343.515,378"/>
</g>
<g stroke="rgb(0,0,0)" stroke-width="1.0627" stroke-linejoin="round" >
<polygon fill="rgb(255,228,196)" points="331.953,378,324.6345,354.748,344.2654,376.1498,343.9457,378"/>
</g>
<g stroke="rgb(0,0,0)" stroke-width="1.0627" stroke-linejoin="round" >
<path d="M327.5408 363.9819 L324.6345 354.748 L331.1781 361.8819 C331.2138,364.0437 327.5052,361.8201 327.5408,363.9819z" fill="rgb(255,0,0)"/>
</g>
</svg>
