<?xml version="1.0" encoding="utf-8" standalone="no"?>
<!DOCTYPE svg PUBLIC "-//W3C//DTD SVG 1.1//EN" "http://www.w3.org/TR/2001/REC-SVG-20010904/DTD/svg11.dtd">
<svg width="10cm" height="10cm" viewBox="0 0 378 378" overflow="hidden"
 version="1.1" xmlns="http://www.w3.org/2000/svg"  xmlns:xlink="http://www.w3.org/1999/xlink">
<!--dessin  (Utilisateur) -->
<g fill="none" stroke="rgb(255,0,0)" stroke-width="1.594" stroke-linejoin="round" >
<polyline points="329.3188,378,328.8694,375.5696,327.478,368.4011,326.0663,361.4643,324.6345,354.748,323.183,348.2415
,321.7122,341.9352,318.7143,329.8878,315.6438,318.5407,312.5038,307.8375,309.2976,297.7292,306.0285,288.1726,302.6998,279.13
,299.315,270.5679,295.8775,262.4567,292.3909,254.7701,288.8587,247.4845,285.2847,240.5788,281.6723,234.0341,278.0254,227.8332
,274.3478,221.9607,270.6431,216.4024,266.9152,211.1455,263.168,206.1782,259.4052,201.4896,255.6308,197.0698,251.8486,192.9095
,248.0625,189,244.2764,185.3334,236.7198,178.6988,229.2098,172.9504,221.7772,168.0382,214.4527,163.9163,207.2663,160.5423
,200.2475,157.8759,193.4252,155.8785,180.4812,153.7429,168.647,153.8451,158.1167,155.8991,149.0633,159.6176,141.6356,164.7087
,135.9553,170.8754,132.1158,177.8148,130.1802,185.2197,130.1802,192.7803,132.1158,200.1852"/>
</g>
<g fill="none" stroke="rgb(0,0,0)" stroke-width="1.0627" stroke-linejoin="round" >
<polyline points="166.7452,378,93.1298,0"/>
</g>
<g fill="none" stroke="rgb(0,0,0)" stroke-width="1.0627" stroke-linejoin="round" >
<polyline points="378,152.2993,0,225.9148"/>
</g>
<g stroke="rgb(0,0,0)" stroke-width="0.5313" stroke-linecap="round"  stroke-linejoin="round" >
<path d="M250.4538,177.6046 A2.3913,2.3913 0 1,0 245.6712,177.6046 A2.3913,2.3913 0 1,0 250.4538,177.6046" fill="rgb(0,0,0)"/>
</g>
<svg viewBox="0 0 378 378">
<text font-size="13.2835px" x="258" y="178" text-anchor="start" dominant-baseline="middle" fill="rgb(0,0,0)">
B
</text>
</svg>
<g stroke="rgb(0,0,0)" stroke-width="0.5313" stroke-linecap="round"  stroke-linejoin="round" >
<path d="M134.5072,200.1852 A2.3913,2.3913 0 1,0 129.7245,200.1852 A2.3913,2.3913 0 1,0 134.5072,200.1852" fill="rgb(0,0,0)"/>
</g>
<svg viewBox="0 0 378 378">
<text font-size="13.2835px" x="139" y="194" text-anchor="start"  fill="rgb(0,0,0)">
A
</text>
</svg>
<svg viewBox="0 0 378 378">
<text font-size="13.2835px" x="21" y="12" text-anchor="start" dominant-baseline="middle" fill="rgb(0,0,0)">
AB = 1
</text>
</svg>
<g fill-opacity="0.5" fill-rule="evenodd" stroke="rgb(0,0,0)" stroke-width="1.0627" stroke-linejoin="round" >
<path d="M132.1158 200.1852 L234.1489 180.3143 L114.0513 107.4279 L132.1158 200.1852 M140.6507,160.6211 L139.1385 152.8558 A5.9063,5.9063 0 0,1 148.0001,146.6777 L177.57 164.6234 A5.9063,5.9063 0 0,1 175.6347,175.4699 L150.5126 180.3624 A5.9063,5.9063 0 0,1 143.5862,175.6941 L140.6507 160.6211" fill="rgb(211,211,211)"/>
</g>
<g fill="none" stroke="rgb(0,0,0)" stroke-width="0.2657" stroke-linejoin="round" >
<polyline points="136.7537,199.282,134.586,188.1511"/>
<polyline points="138.6088,198.9207,137.8863,195.2104"/>
<polyline points="140.464,198.5594,139.7414,194.8491"/>
<polyline points="142.3191,198.1981,141.5966,194.4878"/>
<polyline points="144.1743,197.8369,143.4517,194.1266"/>
<polyline points="146.0294,197.4756,144.5843,190.055"/>
<polyline points="147.8846,197.1143,147.162,193.404"/>
<polyline points="149.7397,196.753,149.0171,193.0427"/>
<polyline points="151.5949,196.3917,150.8723,192.6814"/>
<polyline points="153.45,196.0304,152.7274,192.3201"/>
<polyline points="155.3052,195.6691,153.1374,184.5382"/>
<polyline points="157.1603,195.3078,156.4377,191.5975"/>
<polyline points="159.0155,194.9465,158.2929,191.2362"/>
<polyline points="160.8706,194.5852,160.148,190.875"/>
<polyline points="162.7257,194.224,162.0032,190.5137"/>
<polyline points="164.5809,193.8627,163.1357,186.4421"/>
<polyline points="166.436,193.5014,165.7135,189.7911"/>
<polyline points="168.2912,193.1401,167.5686,189.4298"/>
<polyline points="170.1463,192.7788,169.4238,189.0685"/>
<polyline points="172.0015,192.4175,171.2789,188.7072"/>
<polyline points="173.8566,192.0562,171.6889,180.9253"/>
<polyline points="175.7118,191.6949,174.9892,187.9846"/>
<polyline points="177.5669,191.3336,176.8443,187.6233"/>
<polyline points="179.4221,190.9723,178.6995,187.2621"/>
<polyline points="181.2772,190.6111,180.5546,186.9008"/>
<polyline points="183.1324,190.2498,181.6872,182.8292"/>
<polyline points="184.9875,189.8885,184.2649,186.1782"/>
<polyline points="186.8427,189.5272,186.1201,185.8169"/>
<polyline points="188.6978,189.1659,187.9752,185.4556"/>
<polyline points="190.5529,188.8046,189.8304,185.0943"/>
<polyline points="192.4081,188.4433,190.2404,177.3124"/>
<polyline points="194.2632,188.082,193.5407,184.3717"/>
<polyline points="196.1184,187.7207,195.3958,184.0104"/>
<polyline points="197.9735,187.3594,197.251,183.6492"/>
<polyline points="199.8287,186.9982,199.1061,183.2879"/>
<polyline points="201.6838,186.6369,200.2387,179.2163"/>
<polyline points="203.539,186.2756,202.8164,182.5653"/>
<polyline points="205.3941,185.9143,204.6715,182.204"/>
<polyline points="207.2493,185.553,206.5267,181.8427"/>
<polyline points="209.1044,185.1917,208.3818,181.4814"/>
<polyline points="210.9596,184.8304,208.7918,173.6995"/>
<polyline points="212.8147,184.4691,212.0921,180.7588"/>
<polyline points="214.6699,184.1078,213.9473,180.3975"/>
<polyline points="216.525,183.7466,215.8024,180.0363"/>
<polyline points="218.3802,183.3853,217.6576,179.675"/>
<polyline points="220.2353,183.024,218.7901,175.6034"/>
<polyline points="222.0904,182.6627,221.3679,178.9524"/>
<polyline points="223.9456,182.3014,223.223,178.5911"/>
<polyline points="225.8007,181.9401,225.0782,178.2298"/>
<polyline points="227.6559,181.5788,226.9333,177.8685"/>
</g>
<svg viewBox="0 0 378 378">
<text font-size="5.3134px" x="130" y="162" text-anchor="start" dominant-baseline="middle" fill="rgb(0,0,0)" transform="rotate(-101 130 162)">
\TeX graph
</text>
</svg>
<g stroke="rgb(0,0,0)" stroke-width="1.0627" stroke-linejoin="round" >
<polygon fill="rgb(128,128,128)" points="140.8349,227.8871,164.4599,268.8068,175.3718,262.5068,151.7468,221.5871"/>
</g>
<g stroke="rgb(0,0,0)" stroke-width="1.0627" stroke-linejoin="round" >
<polyline fill="rgb(128,128,128)" points="146.2908,224.7371,169.9158,265.6568"/>
<polyline fill="rgb(128,128,128)" points="142.1989,227.0996,165.8239,268.0193"/>
<polyline fill="rgb(128,128,128)" points="150.3828,222.3746,174.0078,263.2943"/>
</g>
<g stroke="rgb(0,0,0)" stroke-width="1.0627" stroke-linejoin="round" >
<polygon fill="rgb(255,228,196)" points="140.8349,227.8871,132.1158,200.1852,151.7468,221.5871,151.3278,224.0113,148.3368,223.5558,147.2358,226.3738
,144.2448,225.9183,143.1439,228.7363"/>
</g>
<g stroke="rgb(0,0,0)" stroke-width="1.0627" stroke-linejoin="round" >
<path d="M135.0222 209.4192 L132.1158 200.1852 L138.6595 207.3192 C138.6952,209.481 134.9865,207.2574 135.0222,209.4192z" fill="rgb(255,0,0)"/>
</g>
<g stroke="rgb(0,0,0)" stroke-width="1.0627" stroke-linejoin="round" >
<polygon fill="rgb(255,20,147)" points="164.4599,268.8068,172.0199,281.9011,182.9318,275.6011,175.3718,262.5068"/>
</g>
<g stroke="rgb(0,0,0)" stroke-width="1.0627" stroke-linejoin="round" >
<polygon fill="rgb(192,192,192)" points="164.4599,268.8068,167.2949,273.7171,178.2068,267.4171,175.3718,262.5068"/>
</g>
<g stroke="rgb(0,0,0)" stroke-width="1.0627" stroke-linejoin="round" >
<polyline fill="rgb(192,192,192)" points="165.4049,270.4435,176.3168,264.1435"/>
<polyline fill="rgb(192,192,192)" points="167.2949,273.7171,178.2068,267.4171"/>
<polyline fill="rgb(192,192,192)" points="166.3499,272.0803,177.2618,265.7803"/>
</g>
</svg>
