<?xml version="1.0" encoding="utf-8" standalone="no"?>
<!DOCTYPE svg PUBLIC "-//W3C//DTD SVG 1.1//EN" "http://www.w3.org/TR/2001/REC-SVG-20010904/DTD/svg11.dtd">
<svg width="10cm" height="10cm" viewBox="0 0 378 378" overflow="hidden"
 version="1.1" xmlns="http://www.w3.org/2000/svg"  xmlns:xlink="http://www.w3.org/1999/xlink">
<!--dessin  (Utilisateur) -->
<g fill="none" stroke="rgb(255,0,0)" stroke-width="1.594" stroke-linejoin="round" >
<polyline points="329.3188,378,328.8694,375.5696,327.478,368.4011,326.0663,361.4643"/>
</g>
<g fill="none" stroke="rgb(0,0,0)" stroke-width="1.0627" stroke-linejoin="round" >
<polyline points="344.8709,378,0,74.7405"/>
</g>
<g fill="none" stroke="rgb(0,0,0)" stroke-width="1.0627" stroke-linejoin="round" >
<polyline points="311.5258,378,378,302.4046"/>
</g>
<g stroke="rgb(0,0,0)" stroke-width="0.5313" stroke-linecap="round"  stroke-linejoin="round" >
<path d="M328.4576,361.4643 A2.3913,2.3913 0 1,0 323.6749,361.4643 A2.3913,2.3913 0 1,0 328.4576,361.4643" fill="rgb(0,0,0)"/>
</g>
<svg viewBox="0 0 378 378">
<text font-size="13.2835px" x="333" y="355" text-anchor="start"  fill="rgb(0,0,0)">
A
</text>
</svg>
<svg viewBox="0 0 378 378">
<text font-size="13.2835px" x="21" y="12" text-anchor="start" dominant-baseline="middle" fill="rgb(0,0,0)">
AB = 1
</text>
</svg>
<g fill-opacity="0.5" fill-rule="evenodd" stroke="rgb(0,0,0)" stroke-width="1.0627" stroke-linejoin="round" >
<clipPath id="Clip1">
<rect x="0" y="0" width="10cm" height="10cm"/>
</clipPath>
<path d="M326.0663 361.4643 L257.423 439.5264 L255.1007 299.0613 L326.0663 361.4643 M287.602,348.868 L281.6611 343.6439 A5.9063,5.9063 0 0,0 271.8554,348.1769 L272.4272 382.7616 A5.9063,5.9063 0 0,0 282.768,386.5641 L299.6691 367.344 A5.9063,5.9063 0 0,0 299.1339,359.0085 L287.602 348.868" fill="rgb(211,211,211)" clip-path="url(#Clip1)"/>
</g>
<g fill="none" stroke="rgb(0,0,0)" stroke-width="0.2657" stroke-linejoin="round" >
<polyline points="322.9461,365.0126,314.4303,357.5242"/>
<polyline points="321.6981,366.4319,318.8594,363.9358"/>
<polyline points="320.45,367.8512,317.6114,365.3551"/>
<polyline points="319.2019,369.2705,316.3633,366.7744"/>
<polyline points="317.9539,370.6898,315.1153,368.1937"/>
<polyline points="316.7058,372.1092,311.0286,367.1169"/>
<polyline points="315.4578,373.5285,312.6191,371.0323"/>
<polyline points="314.2097,374.9478,311.3711,372.4517"/>
<polyline points="312.9616,376.3671,310.123,373.871"/>
<polyline points="311.7136,377.7864,308.875,375.2903"/>
<polyline points="309.0944,378,301.9497,371.7173"/>
</g>
<svg viewBox="0 0 378 378">
<text font-size="5.3134px" x="295" y="340" text-anchor="start" dominant-baseline="middle" fill="rgb(0,0,0)" transform="rotate(-139 295 340)">
\TeX graph
</text>
</svg>
<g stroke="rgb(0,0,0)" stroke-width="1.0627" stroke-linejoin="round" >
<polygon fill="rgb(255,228,196)" points="331.2708,378,326.0663,361.4643,341.2337,378"/>
</g>
<g stroke="rgb(0,0,0)" stroke-width="1.0627" stroke-linejoin="round" >
<path d="M328.9726 370.6983 L326.0663 361.4643 L332.6099 368.5983 C332.6456,370.76 328.937,368.5365 328.9726,370.6983z" fill="rgb(255,0,0)"/>
</g>
</svg>
