<?xml version="1.0" encoding="utf-8" standalone="no"?>
<!DOCTYPE svg PUBLIC "-//W3C//DTD SVG 1.1//EN" "http://www.w3.org/TR/2001/REC-SVG-20010904/DTD/svg11.dtd">
<svg width="10cm" height="10cm" viewBox="0 0 378 378" overflow="hidden"
 version="1.1" xmlns="http://www.w3.org/2000/svg"  xmlns:xlink="http://www.w3.org/1999/xlink">
<!--dessin  (Utilisateur) -->
<g fill="none" stroke="rgb(255,0,0)" stroke-width="1.594" stroke-linejoin="round" >
<polyline points="329.3188,378,328.8694,375.5696,327.478,368.4011,326.0663,361.4643,324.6345,354.748,323.183,348.2415
,321.7122,341.9352,318.7143,329.8878,315.6438,318.5407,312.5038,307.8375,309.2976,297.7292,306.0285,288.1726,302.6998,279.13
,299.315,270.5679,295.8775,262.4567,292.3909,254.7701,288.8587,247.4845,285.2847,240.5788,281.6723,234.0341,278.0254,227.8332
,274.3478,221.9607,270.6431,216.4024,266.9152,211.1455,263.168,206.1782,259.4052,201.4896,255.6308,197.0698,251.8486,192.9095
,248.0625,189,244.2764,185.3334,236.7198,178.6988,229.2098,172.9504,221.7772,168.0382,214.4527,163.9163"/>
</g>
<g fill="none" stroke="rgb(0,0,0)" stroke-width="1.0627" stroke-linejoin="round" >
<polyline points="378,115.3764,0,227.5648"/>
</g>
<g fill="none" stroke="rgb(0,0,0)" stroke-width="1.0627" stroke-linejoin="round" >
<polyline points="277.9916,378,165.8032,0"/>
</g>
<g stroke="rgb(0,0,0)" stroke-width="0.5313" stroke-linecap="round"  stroke-linejoin="round" >
<path d="M250.4538,277.159 A2.3913,2.3913 0 1,0 245.6712,277.159 A2.3913,2.3913 0 1,0 250.4538,277.159" fill="rgb(0,0,0)"/>
</g>
<svg viewBox="0 0 378 378">
<text font-size="13.2835px" x="258" y="277" text-anchor="start" dominant-baseline="middle" fill="rgb(0,0,0)">
B
</text>
</svg>
<g stroke="rgb(0,0,0)" stroke-width="0.5313" stroke-linecap="round"  stroke-linejoin="round" >
<path d="M216.844,163.9163 A2.3913,2.3913 0 1,0 212.0613,163.9163 A2.3913,2.3913 0 1,0 216.844,163.9163" fill="rgb(0,0,0)"/>
</g>
<svg viewBox="0 0 378 378">
<text font-size="13.2835px" x="221" y="157" text-anchor="start"  fill="rgb(0,0,0)">
A
</text>
</svg>
<svg viewBox="0 0 378 378">
<text font-size="13.2835px" x="21" y="12" text-anchor="start" dominant-baseline="middle" fill="rgb(0,0,0)">
AB = 1
</text>
</svg>
<g fill-opacity="0.5" fill-rule="evenodd" stroke="rgb(0,0,0)" stroke-width="1.0627" stroke-linejoin="round" >
<path d="M214.4527 163.9163 L244.0293 263.5699 L123.8586 190.8042 L214.4527 163.9163 M183.3228,189.7833 L175.7387 192.0343 A5.9063,5.9063 0 0,0 174.36,202.7486 L203.9479 220.6647 A5.9063,5.9063 0 0,0 212.6692,213.9319 L205.387 189.3957 A5.9063,5.9063 0 0,0 198.0444,185.4141 L183.3228 189.7833" fill="rgb(211,211,211)"/>
</g>
<g fill="none" stroke="rgb(0,0,0)" stroke-width="0.2657" stroke-linejoin="round" >
<polyline points="215.7971,168.446,204.9258,171.6726"/>
<polyline points="216.3348,170.2579,212.7111,171.3334"/>
<polyline points="216.8726,172.0698,213.2488,173.1453"/>
<polyline points="217.4103,173.8817,213.7866,174.9572"/>
<polyline points="217.9481,175.6936,214.3243,176.7691"/>
<polyline points="218.4859,177.5055,211.2383,179.6565"/>
<polyline points="219.0236,179.3173,215.3999,180.3929"/>
<polyline points="219.5614,181.1292,215.9376,182.2047"/>
<polyline points="220.0991,182.9411,216.4754,184.0166"/>
<polyline points="220.6369,184.753,217.0131,185.8285"/>
<polyline points="221.1746,186.5649,210.3033,189.7914"/>
<polyline points="221.7124,188.3767,218.0886,189.4523"/>
<polyline points="222.2502,190.1886,218.6264,191.2641"/>
<polyline points="222.7879,192.0005,219.1641,193.076"/>
<polyline points="223.3257,193.8124,219.7019,194.8879"/>
<polyline points="223.8634,195.6243,216.6159,197.7753"/>
<polyline points="224.4012,197.4362,220.7774,198.5117"/>
<polyline points="224.9389,199.248,221.3152,200.3236"/>
<polyline points="225.4767,201.0599,221.8529,202.1354"/>
<polyline points="226.0145,202.8718,222.3907,203.9473"/>
<polyline points="226.5522,204.6837,215.6809,207.9102"/>
<polyline points="227.09,206.4956,223.4662,207.5711"/>
<polyline points="227.6277,208.3075,224.004,209.383"/>
<polyline points="228.1655,210.1193,224.5417,211.1949"/>
<polyline points="228.7032,211.9312,225.0795,213.0067"/>
<polyline points="229.241,213.7431,221.9935,215.8941"/>
<polyline points="229.7788,215.555,226.155,216.6305"/>
<polyline points="230.3165,217.3669,226.6927,218.4424"/>
<polyline points="230.8543,219.1787,227.2305,220.2543"/>
<polyline points="231.392,220.9906,227.7683,222.0661"/>
<polyline points="231.9298,222.8025,221.0585,226.0291"/>
<polyline points="232.4675,224.6144,228.8438,225.6899"/>
<polyline points="233.0053,226.4263,229.3815,227.5018"/>
<polyline points="233.5431,228.2382,229.9193,229.3137"/>
<polyline points="234.0808,230.05,230.457,231.1256"/>
<polyline points="234.6186,231.8619,227.371,234.013"/>
<polyline points="235.1563,233.6738,231.5326,234.7493"/>
<polyline points="235.6941,235.4857,232.0703,236.5612"/>
<polyline points="236.2318,237.2976,232.6081,238.3731"/>
<polyline points="236.7696,239.1095,233.1458,240.185"/>
<polyline points="237.3074,240.9213,226.4361,244.1479"/>
<polyline points="237.8451,242.7332,234.2213,243.8087"/>
<polyline points="238.3829,244.5451,234.7591,245.6206"/>
<polyline points="238.9206,246.357,235.2969,247.4325"/>
<polyline points="239.4584,248.1689,235.8346,249.2444"/>
<polyline points="239.9961,249.9807,232.7486,252.1318"/>
<polyline points="240.5339,251.7926,236.9101,252.8681"/>
<polyline points="241.0717,253.6045,237.4479,254.68"/>
<polyline points="241.6094,255.4164,237.9856,256.4919"/>
<polyline points="242.1472,257.2283,238.5234,258.3038"/>
</g>
<svg viewBox="0 0 378 378">
<text font-size="5.3134px" x="180" y="179" text-anchor="start" dominant-baseline="middle" fill="rgb(0,0,0)" transform="rotate(163 180 179)">
\TeX graph
</text>
</svg>
<g stroke="rgb(0,0,0)" stroke-width="1.0627" stroke-linejoin="round" >
<polygon fill="rgb(128,128,128)" points="223.1717,191.6182,246.7967,232.5379,257.7086,226.2379,234.0836,185.3182"/>
</g>
<g stroke="rgb(0,0,0)" stroke-width="1.0627" stroke-linejoin="round" >
<polyline fill="rgb(128,128,128)" points="228.6277,188.4682,252.2527,229.3879"/>
<polyline fill="rgb(128,128,128)" points="224.5357,190.8307,248.1607,231.7504"/>
<polyline fill="rgb(128,128,128)" points="232.7196,186.1057,256.3446,227.0254"/>
</g>
<g stroke="rgb(0,0,0)" stroke-width="1.0627" stroke-linejoin="round" >
<polygon fill="rgb(255,228,196)" points="223.1717,191.6182,214.4527,163.9163,234.0836,185.3182,233.6646,187.7424,230.6737,187.2869,229.5727,190.1049
,226.5817,189.6494,225.4807,192.4674"/>
</g>
<g stroke="rgb(0,0,0)" stroke-width="1.0627" stroke-linejoin="round" >
<path d="M217.359 173.1503 L214.4527 163.9163 L220.9963 171.0503 C221.032,173.2121 217.3234,170.9885 217.359,173.1503z" fill="rgb(255,0,0)"/>
</g>
<g stroke="rgb(0,0,0)" stroke-width="1.0627" stroke-linejoin="round" >
<polygon fill="rgb(255,20,147)" points="246.7967,232.5379,254.3567,245.6322,265.2686,239.3322,257.7086,226.2379"/>
</g>
<g stroke="rgb(0,0,0)" stroke-width="1.0627" stroke-linejoin="round" >
<polygon fill="rgb(192,192,192)" points="246.7967,232.5379,249.6317,237.4482,260.5436,231.1482,257.7086,226.2379"/>
</g>
<g stroke="rgb(0,0,0)" stroke-width="1.0627" stroke-linejoin="round" >
<polyline fill="rgb(192,192,192)" points="247.7417,234.1746,258.6536,227.8746"/>
<polyline fill="rgb(192,192,192)" points="249.6317,237.4482,260.5436,231.1482"/>
<polyline fill="rgb(192,192,192)" points="248.6867,235.8114,259.5986,229.5114"/>
</g>
</svg>
