<?xml version="1.0" encoding="utf-8" standalone="no"?>
<!DOCTYPE svg PUBLIC "-//W3C//DTD SVG 1.1//EN" "http://www.w3.org/TR/2001/REC-SVG-20010904/DTD/svg11.dtd">
<svg width="10cm" height="10cm" viewBox="0 0 378 378" overflow="hidden"
 version="1.1" xmlns="http://www.w3.org/2000/svg"  xmlns:xlink="http://www.w3.org/1999/xlink">
<!--dessin  (Utilisateur) -->
<g fill="none" stroke="rgb(255,0,0)" stroke-width="1.594" stroke-linejoin="round" >
<polyline points="329.3188,378,328.8694,375.5696,327.478,368.4011,326.0663,361.4643,324.6345,354.748,323.183,348.2415
,321.7122,341.9352,318.7143,329.8878,315.6438,318.5407,312.5038,307.8375,309.2976,297.7292,306.0285,288.1726,302.6998,279.13
,299.315,270.5679,295.8775,262.4567,292.3909,254.7701,288.8587,247.4845,285.2847,240.5788,281.6723,234.0341,278.0254,227.8332
,274.3478,221.9607,270.6431,216.4024,266.9152,211.1455,263.168,206.1782,259.4052,201.4896,255.6308,197.0698,251.8486,192.9095
,248.0625,189,244.2764,185.3334,236.7198,178.6988,229.2098,172.9504,221.7772,168.0382,214.4527,163.9163,207.2663,160.5423
,200.2475,157.8759,193.4252,155.8785,180.4812,153.7429,168.647,153.8451,158.1167,155.8991,149.0633,159.6176,141.6356,164.7087
,135.9553,170.8754,132.1158,177.8148,130.1802,185.2197,130.1802,192.7803,132.1158,200.1852,135.9553,207.1246,141.6356,213.2913
,149.0633,218.3824,158.1167,222.1009,168.647,224.1549,180.4812,224.2571,193.4252,222.1215,200.2475,220.1241,207.2663,217.4577
,214.4527,214.0837,221.7772,209.9618,229.2098,205.0496,236.7198,199.3012,244.2764,192.6666,248.0625,189,251.8486,185.0905
,255.6308,180.9302,259.4052,176.5104,263.168,171.8218,266.9152,166.8545,270.6431,161.5976,274.3478,156.0393,278.0254,150.1668
,281.6723,143.9659,285.2847,137.4212,288.8587,130.5155,292.3909,123.2299,295.8775,115.5433,299.315,107.4321,302.6998,98.87
,306.0285,89.8274,309.2976,80.2708,312.5038,70.1625,315.6438,59.4593,318.7143,48.1122,321.7122,36.0648,323.183,29.7585
,324.6345,23.252,326.0663,16.5357"/>
</g>
<g fill="none" stroke="rgb(0,0,0)" stroke-width="1.0627" stroke-linejoin="round" >
<polyline points="344.8709,0,0,303.2595"/>
</g>
<g fill="none" stroke="rgb(0,0,0)" stroke-width="1.0627" stroke-linejoin="round" >
<polyline points="378,75.5954,311.5258,0"/>
</g>
<g stroke="rgb(0,0,0)" stroke-width="0.5313" stroke-linecap="round"  stroke-linejoin="round" >
<path d="M328.4576,16.5357 A2.3913,2.3913 0 1,0 323.6749,16.5357 A2.3913,2.3913 0 1,0 328.4576,16.5357" fill="rgb(0,0,0)"/>
</g>
<svg viewBox="0 0 378 378">
<text font-size="13.2835px" x="333" y="10" text-anchor="start"  fill="rgb(0,0,0)">
A
</text>
</svg>
<svg viewBox="0 0 378 378">
<text font-size="13.2835px" x="21" y="12" text-anchor="start" dominant-baseline="middle" fill="rgb(0,0,0)">
AB = 1
</text>
</svg>
<g fill-opacity="0.5" fill-rule="evenodd" stroke="rgb(0,0,0)" stroke-width="1.0627" stroke-linejoin="round" >
<clipPath id="Clip1">
<rect x="0" y="0" width="10cm" height="10cm"/>
</clipPath>
<path d="M326.0663 16.5357 L257.423 -61.5264 L255.1007 78.9387 L326.0663 16.5357 M287.602,29.132 L281.6611 34.3561 A5.9063,5.9063 0 0,1 271.8554,29.8231 L272.4272 -4.7616 A5.9063,5.9063 0 0,1 282.768,-8.5641 L299.6691 10.656 A5.9063,5.9063 0 0,1 299.1339,18.9915 L287.602 29.132" fill="rgb(211,211,211)" clip-path="url(#Clip1)"/>
</g>
<g fill="none" stroke="rgb(0,0,0)" stroke-width="0.2657" stroke-linejoin="round" >
<polyline points="322.9461,12.9874,314.4303,20.4758"/>
<polyline points="321.6981,11.5681,318.8594,14.0642"/>
<polyline points="320.45,10.1488,317.6114,12.6449"/>
<polyline points="319.2019,8.7295,316.3633,11.2256"/>
<polyline points="317.9539,7.3102,315.1153,9.8063"/>
<polyline points="316.7058,5.8908,311.0286,10.8831"/>
<polyline points="315.4578,4.4715,312.6191,6.9677"/>
<polyline points="314.2097,3.0522,311.3711,5.5483"/>
<polyline points="312.9616,1.6329,310.123,4.129"/>
<polyline points="311.7136,0.2136,308.875,2.7097"/>
<polyline points="309.0944,0,301.9497,6.2827"/>
</g>
<svg viewBox="0 0 378 378">
<text font-size="5.3134px" x="295" y="38" text-anchor="start" dominant-baseline="middle" fill="rgb(0,0,0)" transform="rotate(139 295 38)">
\TeX graph
</text>
</svg>
<g stroke="rgb(0,0,0)" stroke-width="1.0627" stroke-linejoin="round" >
<polygon fill="rgb(128,128,128)" points="334.7853,44.2375,358.4103,85.1572,369.3222,78.8572,345.6972,37.9375"/>
</g>
<g stroke="rgb(0,0,0)" stroke-width="1.0627" stroke-linejoin="round" >
<polyline fill="rgb(128,128,128)" points="340.2413,41.0875,363.8663,82.0072"/>
<polyline fill="rgb(128,128,128)" points="336.1493,43.45,359.7743,84.3697"/>
<polyline fill="rgb(128,128,128)" points="344.3333,38.725,367.9583,79.6447"/>
</g>
<g stroke="rgb(0,0,0)" stroke-width="1.0627" stroke-linejoin="round" >
<polygon fill="rgb(255,228,196)" points="334.7853,44.2375,326.0663,16.5357,345.6972,37.9375,345.2783,40.3618,342.2873,39.9063,341.1863,42.7243
,338.1953,42.2688,337.0943,45.0868"/>
</g>
<g stroke="rgb(0,0,0)" stroke-width="1.0627" stroke-linejoin="round" >
<path d="M328.9726 25.7696 L326.0663 16.5357 L332.6099 23.6696 C332.6456,25.8314 328.937,23.6078 328.9726,25.7696z" fill="rgb(255,0,0)"/>
</g>
<g stroke="rgb(0,0,0)" stroke-width="1.0627" stroke-linejoin="round" >
<polygon fill="rgb(255,20,147)" points="358.4103,85.1572,365.9703,98.2515,376.8822,91.9515,369.3222,78.8572"/>
</g>
<g stroke="rgb(0,0,0)" stroke-width="1.0627" stroke-linejoin="round" >
<polygon fill="rgb(192,192,192)" points="358.4103,85.1572,361.2453,90.0676,372.1572,83.7676,369.3222,78.8572"/>
</g>
<g stroke="rgb(0,0,0)" stroke-width="1.0627" stroke-linejoin="round" >
<polyline fill="rgb(192,192,192)" points="359.3553,86.794,370.2672,80.494"/>
<polyline fill="rgb(192,192,192)" points="361.2453,90.0676,372.1572,83.7676"/>
<polyline fill="rgb(192,192,192)" points="360.3003,88.4308,371.2122,82.1308"/>
</g>
</svg>
