<?xml version="1.0" encoding="utf-8" standalone="no"?>
<!DOCTYPE svg PUBLIC "-//W3C//DTD SVG 1.1//EN" "http://www.w3.org/TR/2001/REC-SVG-20010904/DTD/svg11.dtd">
<svg width="10cm" height="10cm" viewBox="0 0 378 378" overflow="hidden"
 version="1.1" xmlns="http://www.w3.org/2000/svg"  xmlns:xlink="http://www.w3.org/1999/xlink">
<!--dessin  (Utilisateur) -->
<g fill="none" stroke="rgb(255,0,0)" stroke-width="1.594" stroke-linejoin="round" >
<polyline points="329.3188,378,328.8694,375.5696,327.478,368.4011,326.0663,361.4643,324.6345,354.748,323.183,348.2415
,321.7122,341.9352,318.7143,329.8878,315.6438,318.5407,312.5038,307.8375,309.2976,297.7292,306.0285,288.1726,302.6998,279.13
,299.315,270.5679,295.8775,262.4567,292.3909,254.7701,288.8587,247.4845,285.2847,240.5788,281.6723,234.0341,278.0254,227.8332
,274.3478,221.9607,270.6431,216.4024,266.9152,211.1455,263.168,206.1782,259.4052,201.4896,255.6308,197.0698,251.8486,192.9095
,248.0625,189,244.2764,185.3334,236.7198,178.6988,229.2098,172.9504,221.7772,168.0382,214.4527,163.9163,207.2663,160.5423
,200.2475,157.8759,193.4252,155.8785,180.4812,153.7429,168.647,153.8451,158.1167,155.8991,149.0633,159.6176,141.6356,164.7087
,135.9553,170.8754,132.1158,177.8148,130.1802,185.2197,130.1802,192.7803,132.1158,200.1852,135.9553,207.1246,141.6356,213.2913
,149.0633,218.3824,158.1167,222.1009,168.647,224.1549,180.4812,224.2571,193.4252,222.1215,200.2475,220.1241,207.2663,217.4577
,214.4527,214.0837,221.7772,209.9618,229.2098,205.0496,236.7198,199.3012,244.2764,192.6666,248.0625,189,251.8486,185.0905
,255.6308,180.9302,259.4052,176.5104,263.168,171.8218,266.9152,166.8545,270.6431,161.5976,274.3478,156.0393,278.0254,150.1668
,281.6723,143.9659,285.2847,137.4212,288.8587,130.5155,292.3909,123.2299,295.8775,115.5433,299.315,107.4321,302.6998,98.87
,306.0285,89.8274,309.2976,80.2708,312.5038,70.1625,315.6438,59.4593"/>
</g>
<g fill="none" stroke="rgb(0,0,0)" stroke-width="1.0627" stroke-linejoin="round" >
<polyline points="378,15.9623,0,279.6388"/>
</g>
<g fill="none" stroke="rgb(0,0,0)" stroke-width="1.0627" stroke-linejoin="round" >
<polyline points="378,148.8517,274.1675,0"/>
</g>
<g stroke="rgb(0,0,0)" stroke-width="0.5313" stroke-linecap="round"  stroke-linejoin="round" >
<path d="M318.0351,59.4593 A2.3913,2.3913 0 1,0 313.2524,59.4593 A2.3913,2.3913 0 1,0 318.0351,59.4593" fill="rgb(0,0,0)"/>
</g>
<svg viewBox="0 0 378 378">
<text font-size="13.2835px" x="322" y="53" text-anchor="start"  fill="rgb(0,0,0)">
A
</text>
</svg>
<svg viewBox="0 0 378 378">
<text font-size="13.2835px" x="21" y="12" text-anchor="start" dominant-baseline="middle" fill="rgb(0,0,0)">
AB = 1
</text>
</svg>
<g fill-opacity="0.5" fill-rule="evenodd" stroke="rgb(0,0,0)" stroke-width="1.0627" stroke-linejoin="round" >
<clipPath id="Clip1">
<rect x="0" y="0" width="10cm" height="10cm"/>
</clipPath>
<path d="M315.6438 59.4593 L256.1723 -25.7976 L238.1375 113.5244 L315.6438 59.4593 M276.011,67.6698 L269.5225 72.1959 A5.9063,5.9063 0 0,1 260.2861,66.5935 L264.7265 32.2903 A5.9063,5.9063 0 0,1 275.428,29.6695 L290.0709 50.6611 A5.9063,5.9063 0 0,1 288.6058,58.8843 L276.011 67.6698" fill="rgb(211,211,211)" clip-path="url(#Clip1)"/>
</g>
<g fill="none" stroke="rgb(0,0,0)" stroke-width="0.2657" stroke-linejoin="round" >
<polyline points="312.9405,55.584,303.6398,62.0718"/>
<polyline points="311.8592,54.0339,308.759,56.1965"/>
<polyline points="310.7779,52.4838,307.6777,54.6464"/>
<polyline points="309.6966,50.9336,306.5964,53.0962"/>
<polyline points="308.6153,49.3835,305.5151,51.5461"/>
<polyline points="307.534,47.8334,301.3335,52.1586"/>
<polyline points="306.4527,46.2833,303.3525,48.4459"/>
<polyline points="305.3714,44.7331,302.2712,46.8957"/>
<polyline points="304.2901,43.183,301.1899,45.3456"/>
<polyline points="303.2088,41.6329,300.1086,43.7955"/>
<polyline points="302.1275,40.0828,292.8268,46.5706"/>
<polyline points="301.0462,38.5326,297.946,40.6952"/>
<polyline points="299.9649,36.9825,296.8647,39.1451"/>
<polyline points="298.8836,35.4324,295.7834,37.595"/>
<polyline points="297.8023,33.8823,294.7021,36.0449"/>
<polyline points="296.721,32.3321,290.5205,36.6573"/>
<polyline points="295.6397,30.782,292.5395,32.9446"/>
<polyline points="294.5584,29.2319,291.4582,31.3945"/>
<polyline points="293.4771,27.6818,290.3769,29.8444"/>
<polyline points="292.3958,26.1316,289.2956,28.2942"/>
<polyline points="291.3145,24.5815,282.0138,31.0693"/>
<polyline points="290.2332,23.0314,287.133,25.194"/>
<polyline points="289.1519,21.4813,286.0517,23.6439"/>
<polyline points="288.0706,19.9311,284.9704,22.0937"/>
<polyline points="286.9893,18.381,283.8891,20.5436"/>
<polyline points="285.908,16.8309,279.7075,21.1561"/>
<polyline points="284.8267,15.2808,281.7265,17.4434"/>
<polyline points="283.7454,13.7306,280.6452,15.8932"/>
<polyline points="282.6641,12.1805,279.5639,14.3431"/>
<polyline points="281.5828,10.6304,278.4826,12.793"/>
<polyline points="280.5015,9.0803,271.2008,15.5681"/>
<polyline points="279.4202,7.5301,276.32,9.6927"/>
<polyline points="278.3389,5.98,275.2387,8.1426"/>
<polyline points="277.2576,4.4299,274.1574,6.5925"/>
<polyline points="276.1763,2.8798,273.0761,5.0424"/>
<polyline points="275.095,1.3296,268.8945,5.6548"/>
<polyline points="273.6976,0,270.9135,1.9421"/>
<polyline points="270.3941,0,269.8322,0.392"/>
<polyline points="260.4835,0,260.3878,0.0668"/>
</g>
<svg viewBox="0 0 378 378">
<text font-size="5.3134px" x="282" y="77" text-anchor="start" dominant-baseline="middle" fill="rgb(0,0,0)" transform="rotate(145 282 77)">
\TeX graph
</text>
</svg>
<g stroke="rgb(0,0,0)" stroke-width="1.0627" stroke-linejoin="round" >
<polygon fill="rgb(128,128,128)" points="324.3628,87.1612,347.9878,128.0809,358.8997,121.7809,335.2747,80.8612"/>
</g>
<g stroke="rgb(0,0,0)" stroke-width="1.0627" stroke-linejoin="round" >
<polyline fill="rgb(128,128,128)" points="329.8188,84.0112,353.4438,124.9309"/>
<polyline fill="rgb(128,128,128)" points="325.7268,86.3737,349.3518,127.2934"/>
<polyline fill="rgb(128,128,128)" points="333.9108,81.6487,357.5358,122.5684"/>
</g>
<g stroke="rgb(0,0,0)" stroke-width="1.0627" stroke-linejoin="round" >
<polygon fill="rgb(255,228,196)" points="324.3628,87.1612,315.6438,59.4593,335.2747,80.8612,334.8558,83.2854,331.8648,82.8299,330.7638,85.6479
,327.7728,85.1924,326.6718,88.0104"/>
</g>
<g stroke="rgb(0,0,0)" stroke-width="1.0627" stroke-linejoin="round" >
<path d="M318.5501 68.6933 L315.6438 59.4593 L322.1874 66.5933 C322.2231,68.7551 318.5145,66.5315 318.5501,68.6933z" fill="rgb(255,0,0)"/>
</g>
<g stroke="rgb(0,0,0)" stroke-width="1.0627" stroke-linejoin="round" >
<polygon fill="rgb(255,20,147)" points="347.9878,128.0809,355.5478,141.1752,366.4597,134.8752,358.8997,121.7809"/>
</g>
<g stroke="rgb(0,0,0)" stroke-width="1.0627" stroke-linejoin="round" >
<polygon fill="rgb(192,192,192)" points="347.9878,128.0809,350.8228,132.9912,361.7347,126.6912,358.8997,121.7809"/>
</g>
<g stroke="rgb(0,0,0)" stroke-width="1.0627" stroke-linejoin="round" >
<polyline fill="rgb(192,192,192)" points="348.9328,129.7176,359.8447,123.4176"/>
<polyline fill="rgb(192,192,192)" points="350.8228,132.9912,361.7347,126.6912"/>
<polyline fill="rgb(192,192,192)" points="349.8778,131.3544,360.7897,125.0544"/>
</g>
</svg>
