<?xml version="1.0" encoding="utf-8" standalone="no"?>
<!DOCTYPE svg PUBLIC "-//W3C//DTD SVG 1.1//EN" "http://www.w3.org/TR/2001/REC-SVG-20010904/DTD/svg11.dtd">
<svg width="10cm" height="10cm" viewBox="0 0 378 378" overflow="hidden"
 version="1.1" xmlns="http://www.w3.org/2000/svg"  xmlns:xlink="http://www.w3.org/1999/xlink">
<!--dessin  (Utilisateur) -->
<g fill="none" stroke="rgb(255,0,0)" stroke-width="1.594" stroke-linejoin="round" >
<polyline points="329.3188,378,328.8694,375.5696,327.478,368.4011,326.0663,361.4643,324.6345,354.748,323.183,348.2415
,321.7122,341.9352,318.7143,329.8878,315.6438,318.5407,312.5038,307.8375,309.2976,297.7292,306.0285,288.1726,302.6998,279.13
,299.315,270.5679,295.8775,262.4567,292.3909,254.7701,288.8587,247.4845,285.2847,240.5788,281.6723,234.0341,278.0254,227.8332
,274.3478,221.9607,270.6431,216.4024,266.9152,211.1455,263.168,206.1782,259.4052,201.4896,255.6308,197.0698,251.8486,192.9095
,248.0625,189,244.2764,185.3334,236.7198,178.6988,229.2098,172.9504,221.7772,168.0382,214.4527,163.9163,207.2663,160.5423
,200.2475,157.8759,193.4252,155.8785,180.4812,153.7429,168.647,153.8451,158.1167,155.8991,149.0633,159.6176,141.6356,164.7087
,135.9553,170.8754,132.1158,177.8148,130.1802,185.2197"/>
</g>
<g fill="none" stroke="rgb(0,0,0)" stroke-width="1.0627" stroke-linejoin="round" >
<polyline points="117.8033,378,142.0717,0"/>
</g>
<g fill="none" stroke="rgb(0,0,0)" stroke-width="1.0627" stroke-linejoin="round" >
<polyline points="378,201.1303,0,176.8619"/>
</g>
<g stroke="rgb(0,0,0)" stroke-width="0.5313" stroke-linecap="round"  stroke-linejoin="round" >
<path d="M250.4538,192.788 A2.3913,2.3913 0 1,0 245.6712,192.788 A2.3913,2.3913 0 1,0 250.4538,192.788" fill="rgb(0,0,0)"/>
</g>
<svg viewBox="0 0 378 378">
<text font-size="13.2835px" x="258" y="193" text-anchor="start" dominant-baseline="middle" fill="rgb(0,0,0)">
B
</text>
</svg>
<g stroke="rgb(0,0,0)" stroke-width="0.5313" stroke-linecap="round"  stroke-linejoin="round" >
<path d="M132.5715,185.2197 A2.3913,2.3913 0 1,0 127.7889,185.2197 A2.3913,2.3913 0 1,0 132.5715,185.2197" fill="rgb(0,0,0)"/>
</g>
<svg viewBox="0 0 378 378">
<text font-size="13.2835px" x="137" y="179" text-anchor="start"  fill="rgb(0,0,0)">
A
</text>
</svg>
<svg viewBox="0 0 378 378">
<text font-size="13.2835px" x="21" y="12" text-anchor="start" dominant-baseline="middle" fill="rgb(0,0,0)">
AB = 1
</text>
</svg>
<g fill-opacity="0.5" fill-rule="evenodd" stroke="rgb(0,0,0)" stroke-width="1.0627" stroke-linejoin="round" >
<path d="M130.1802 185.2197 L233.9166 191.8798 L124.1256 279.5256 L130.1802 185.2197 M143.7044,223.3677 L143.1975 231.2625 A5.9063,5.9063 0 0,0 152.7764,236.2568 L179.8087 214.6771 A5.9063,5.9063 0 0,0 176.5023,204.1671 L150.9608 202.5273 A5.9063,5.9063 0 0,0 144.6883,208.043 L143.7044 223.3677" fill="rgb(211,211,211)"/>
</g>
<g fill="none" stroke="rgb(0,0,0)" stroke-width="0.2657" stroke-linejoin="round" >
<polyline points="134.8955,185.5225,134.1689,196.8392"/>
<polyline points="136.7816,185.6436,136.5394,189.4158"/>
<polyline points="138.6677,185.7647,138.4255,189.5369"/>
<polyline points="140.5538,185.8858,140.3117,189.658"/>
<polyline points="142.44,186.0068,142.1978,189.7791"/>
<polyline points="144.3261,186.1279,143.8417,193.6724"/>
<polyline points="146.2122,186.249,145.97,190.0213"/>
<polyline points="148.0983,186.3701,147.8561,190.1424"/>
<polyline points="149.9844,186.4912,149.7422,190.2635"/>
<polyline points="151.8705,186.6123,151.6284,190.3845"/>
<polyline points="153.7567,186.7334,153.0301,198.0501"/>
<polyline points="155.6428,186.8545,155.4006,190.6267"/>
<polyline points="157.5289,186.9756,157.2867,190.7478"/>
<polyline points="159.415,187.0967,159.1728,190.8689"/>
<polyline points="161.3011,187.2178,161.0589,190.99"/>
<polyline points="163.1872,187.3389,162.7029,194.8833"/>
<polyline points="165.0734,187.46,164.8312,191.2322"/>
<polyline points="166.9595,187.5811,166.7173,191.3533"/>
<polyline points="168.8456,187.7021,168.6034,191.4744"/>
<polyline points="170.7317,187.8232,170.4895,191.5955"/>
<polyline points="172.6178,187.9443,171.8913,199.261"/>
<polyline points="174.5039,188.0654,174.2618,191.8377"/>
<polyline points="176.3901,188.1865,176.1479,191.9587"/>
<polyline points="178.2762,188.3076,178.034,192.0798"/>
<polyline points="180.1623,188.4287,179.9201,192.2009"/>
<polyline points="182.0484,188.5498,181.564,196.0943"/>
<polyline points="183.9345,188.6709,183.6923,192.4431"/>
<polyline points="185.8206,188.792,185.5785,192.5642"/>
<polyline points="187.7068,188.9131,187.4646,192.6853"/>
<polyline points="189.5929,189.0342,189.3507,192.8064"/>
<polyline points="191.479,189.1553,190.7524,200.472"/>
<polyline points="193.3651,189.2764,193.1229,193.0486"/>
<polyline points="195.2512,189.3974,195.009,193.1697"/>
<polyline points="197.1373,189.5185,196.8952,193.2908"/>
<polyline points="199.0235,189.6396,198.7813,193.4119"/>
<polyline points="200.9096,189.7607,200.4252,197.3052"/>
<polyline points="202.7957,189.8818,202.5535,193.654"/>
<polyline points="204.6818,190.0029,204.4396,193.7751"/>
<polyline points="206.5679,190.124,206.3257,193.8962"/>
<polyline points="208.454,190.2451,208.2119,194.0173"/>
<polyline points="210.3402,190.3662,209.6136,201.6829"/>
<polyline points="212.2263,190.4873,211.9841,194.2595"/>
<polyline points="214.1124,190.6084,213.8702,194.3806"/>
<polyline points="215.9985,190.7295,215.7563,194.5017"/>
<polyline points="217.8846,190.8506,217.6424,194.6228"/>
<polyline points="219.7707,190.9716,219.2864,198.5161"/>
<polyline points="221.6569,191.0927,221.4147,194.865"/>
<polyline points="223.543,191.2138,223.3008,194.9861"/>
<polyline points="225.4291,191.3349,225.1869,195.1072"/>
<polyline points="227.3152,191.456,227.073,195.2283"/>
</g>
<svg viewBox="0 0 378 378">
<text font-size="5.3134px" x="132" y="223" text-anchor="start" dominant-baseline="middle" fill="rgb(0,0,0)" transform="rotate(94 132 223)">
\TeX graph
</text>
</svg>
<g stroke="rgb(0,0,0)" stroke-width="1.0627" stroke-linejoin="round" >
<polygon fill="rgb(128,128,128)" points="138.8992,212.9216,162.5242,253.8413,173.4362,247.5413,149.8112,206.6216"/>
</g>
<g stroke="rgb(0,0,0)" stroke-width="1.0627" stroke-linejoin="round" >
<polyline fill="rgb(128,128,128)" points="144.3552,209.7716,167.9802,250.6913"/>
<polyline fill="rgb(128,128,128)" points="140.2632,212.1341,163.8882,253.0538"/>
<polyline fill="rgb(128,128,128)" points="148.4472,207.4091,172.0722,248.3288"/>
</g>
<g stroke="rgb(0,0,0)" stroke-width="1.0627" stroke-linejoin="round" >
<polygon fill="rgb(255,228,196)" points="138.8992,212.9216,130.1802,185.2197,149.8112,206.6216,149.3922,209.0459,146.4012,208.5903,145.3002,211.4084
,142.3092,210.9528,141.2082,213.7709"/>
</g>
<g stroke="rgb(0,0,0)" stroke-width="1.0627" stroke-linejoin="round" >
<path d="M133.0865 194.4537 L130.1802 185.2197 L136.7239 192.3537 C136.7595,194.5155 133.0509,192.2919 133.0865,194.4537z" fill="rgb(255,0,0)"/>
</g>
<g stroke="rgb(0,0,0)" stroke-width="1.0627" stroke-linejoin="round" >
<polygon fill="rgb(255,20,147)" points="162.5242,253.8413,170.0842,266.9356,180.9962,260.6356,173.4362,247.5413"/>
</g>
<g stroke="rgb(0,0,0)" stroke-width="1.0627" stroke-linejoin="round" >
<polygon fill="rgb(192,192,192)" points="162.5242,253.8413,165.3592,258.7516,176.2712,252.4516,173.4362,247.5413"/>
</g>
<g stroke="rgb(0,0,0)" stroke-width="1.0627" stroke-linejoin="round" >
<polyline fill="rgb(192,192,192)" points="163.4692,255.4781,174.3812,249.1781"/>
<polyline fill="rgb(192,192,192)" points="165.3592,258.7516,176.2712,252.4516"/>
<polyline fill="rgb(192,192,192)" points="164.4142,257.1148,175.3262,250.8148"/>
</g>
</svg>
