<?xml version="1.0" encoding="utf-8" standalone="no"?>
<!DOCTYPE svg PUBLIC "-//W3C//DTD SVG 1.1//EN" "http://www.w3.org/TR/2001/REC-SVG-20010904/DTD/svg11.dtd">
<svg width="10cm" height="10cm" viewBox="0 0 378 378" overflow="hidden"
 version="1.1" xmlns="http://www.w3.org/2000/svg"  xmlns:xlink="http://www.w3.org/1999/xlink">
<!--dessin  (Utilisateur) -->
<g fill="none" stroke="rgb(255,0,0)" stroke-width="1.594" stroke-linejoin="round" >
<polyline points="329.3188,378,328.8694,375.5696,327.478,368.4011"/>
</g>
<g fill="none" stroke="rgb(0,0,0)" stroke-width="1.0627" stroke-linejoin="round" >
<polyline points="338.0475,378,0,70.9942"/>
</g>
<g fill="none" stroke="rgb(0,0,0)" stroke-width="1.0627" stroke-linejoin="round" >
<polyline points="318.7606,378,378,312.7708"/>
</g>
<g stroke="rgb(0,0,0)" stroke-width="0.5313" stroke-linecap="round"  stroke-linejoin="round" >
<path d="M329.8694,368.4011 A2.3913,2.3913 0 1,0 325.0867,368.4011 A2.3913,2.3913 0 1,0 329.8694,368.4011" fill="rgb(0,0,0)"/>
</g>
<svg viewBox="0 0 378 378">
<text font-size="13.2835px" x="334" y="362" text-anchor="start"  fill="rgb(0,0,0)">
A
</text>
</svg>
<svg viewBox="0 0 378 378">
<text font-size="13.2835px" x="21" y="12" text-anchor="start" dominant-baseline="middle" fill="rgb(0,0,0)">
AB = 1
</text>
</svg>
<g fill-opacity="0.5" fill-rule="evenodd" stroke="rgb(0,0,0)" stroke-width="1.0627" stroke-linejoin="round" >
<clipPath id="Clip1">
<rect x="0" y="0" width="10cm" height="10cm"/>
</clipPath>
<path d="M327.478 368.4011 L257.5924 445.353 L257.5218 304.8687 L327.478 368.4011 M289.2206,355.1899 L283.3642 349.8712 A5.9063,5.9063 0 0,0 273.4871,354.2465 L273.5045 388.8359 A5.9063,5.9063 0 0,0 283.783,392.8037 L300.99 373.857 A5.9063,5.9063 0 0,0 300.5885,365.5139 L289.2206 355.1899" fill="rgb(211,211,211)" clip-path="url(#Clip1)"/>
</g>
<g fill="none" stroke="rgb(0,0,0)" stroke-width="0.2657" stroke-linejoin="round" >
<polyline points="324.3014,371.8989,315.9067,364.275"/>
<polyline points="323.0308,373.298,320.2325,370.7567"/>
<polyline points="321.7601,374.6972,318.9619,372.1559"/>
<polyline points="320.4895,376.0963,317.6912,373.555"/>
<polyline points="319.2188,377.4954,316.4206,374.9541"/>
<polyline points="316.9632,378,312.3517,373.8119"/>
<polyline points="314.152,378,313.8793,377.7524"/>
</g>
<svg viewBox="0 0 378 378">
<text font-size="5.3134px" x="296" y="346" text-anchor="start" dominant-baseline="middle" fill="rgb(0,0,0)" transform="rotate(-138 296 346)">
\TeX graph
</text>
</svg>
<g stroke="rgb(0,0,0)" stroke-width="1.0627" stroke-linejoin="round" >
<polygon fill="rgb(255,228,196)" points="330.4993,378,327.478,368.4011,336.2827,378"/>
</g>
<g stroke="rgb(0,0,0)" stroke-width="1.0627" stroke-linejoin="round" >
<path d="M330.3844 377.635 L327.478 368.4011 L334.0217 375.535 C334.0574,377.6968 330.3487,375.4732 330.3844,377.635z" fill="rgb(255,0,0)"/>
</g>
</svg>
