<?xml version="1.0" encoding="utf-8" standalone="no"?>
<!DOCTYPE svg PUBLIC "-//W3C//DTD SVG 1.1//EN" "http://www.w3.org/TR/2001/REC-SVG-20010904/DTD/svg11.dtd">
<svg width="10cm" height="10cm" viewBox="0 0 378 378" overflow="hidden"
 version="1.1" xmlns="http://www.w3.org/2000/svg"  xmlns:xlink="http://www.w3.org/1999/xlink">
<!--dessin  (Utilisateur) -->
<g fill="none" stroke="rgb(255,0,0)" stroke-width="1.594" stroke-linejoin="round" >
<polyline points="329.3188,378,328.8694,375.5696,327.478,368.4011,326.0663,361.4643,324.6345,354.748,323.183,348.2415
,321.7122,341.9352,318.7143,329.8878,315.6438,318.5407,312.5038,307.8375,309.2976,297.7292,306.0285,288.1726,302.6998,279.13
,299.315,270.5679,295.8775,262.4567,292.3909,254.7701,288.8587,247.4845,285.2847,240.5788,281.6723,234.0341,278.0254,227.8332
,274.3478,221.9607,270.6431,216.4024,266.9152,211.1455,263.168,206.1782,259.4052,201.4896,255.6308,197.0698,251.8486,192.9095
,248.0625,189,244.2764,185.3334,236.7198,178.6988,229.2098,172.9504,221.7772,168.0382,214.4527,163.9163,207.2663,160.5423
,200.2475,157.8759,193.4252,155.8785,180.4812,153.7429,168.647,153.8451,158.1167,155.8991,149.0633,159.6176,141.6356,164.7087
,135.9553,170.8754,132.1158,177.8148,130.1802,185.2197,130.1802,192.7803,132.1158,200.1852,135.9553,207.1246,141.6356,213.2913
,149.0633,218.3824,158.1167,222.1009,168.647,224.1549,180.4812,224.2571,193.4252,222.1215,200.2475,220.1241,207.2663,217.4577
,214.4527,214.0837,221.7772,209.9618,229.2098,205.0496,236.7198,199.3012,244.2764,192.6666,248.0625,189,251.8486,185.0905
,255.6308,180.9302,259.4052,176.5104,263.168,171.8218,266.9152,166.8545,270.6431,161.5976,274.3478,156.0393,278.0254,150.1668
,281.6723,143.9659,285.2847,137.4212,288.8587,130.5155,292.3909,123.2299,295.8775,115.5433,299.315,107.4321,302.6998,98.87"/>
</g>
<g fill="none" stroke="rgb(0,0,0)" stroke-width="1.0627" stroke-linejoin="round" >
<polyline points="378,59.586,0,256.7883"/>
</g>
<g fill="none" stroke="rgb(0,0,0)" stroke-width="1.0627" stroke-linejoin="round" >
<polyline points="378,243.2063,251.1194,0"/>
</g>
<g stroke="rgb(0,0,0)" stroke-width="0.5313" stroke-linecap="round"  stroke-linejoin="round" >
<path d="M305.0912,98.87 A2.3913,2.3913 0 1,0 300.3085,98.87 A2.3913,2.3913 0 1,0 305.0912,98.87" fill="rgb(0,0,0)"/>
</g>
<svg viewBox="0 0 378 378">
<text font-size="13.2835px" x="309" y="92" text-anchor="start"  fill="rgb(0,0,0)">
A
</text>
</svg>
<svg viewBox="0 0 378 378">
<text font-size="13.2835px" x="21" y="12" text-anchor="start" dominant-baseline="middle" fill="rgb(0,0,0)">
AB = 1
</text>
</svg>
<g fill-opacity="0.5" fill-rule="evenodd" stroke="rgb(0,0,0)" stroke-width="1.0627" stroke-linejoin="round" >
<path d="M302.6998 98.87 L254.619 6.708 L218.9162 142.5799 L302.6998 98.87 M262.3425,101.945 L255.3285 105.6041 A5.9063,5.9063 0 0,1 246.8843,98.8667 L255.6749 65.4129 A5.9063,5.9063 0 0,1 266.6237,64.182 L278.462 86.8738 A5.9063,5.9063 0 0,1 275.9574,94.8421 L262.3425 101.945" fill="rgb(211,211,211)"/>
</g>
<g fill="none" stroke="rgb(0,0,0)" stroke-width="0.2657" stroke-linejoin="round" >
<polyline points="300.5143,94.6808,290.4603,99.926"/>
<polyline points="299.6401,93.0051,296.2888,94.7535"/>
<polyline points="298.7659,91.3295,295.4146,93.0779"/>
<polyline points="297.8918,89.6538,294.5404,91.4022"/>
<polyline points="297.0176,87.9781,293.6662,89.7265"/>
<polyline points="296.1434,86.3025,289.4407,89.7992"/>
<polyline points="295.2692,84.6268,291.9178,86.3752"/>
<polyline points="294.395,82.9511,291.0436,84.6995"/>
<polyline points="293.5208,81.2754,290.1694,83.0238"/>
<polyline points="292.6466,79.5998,289.2952,81.3482"/>
<polyline points="291.7724,77.9241,281.7183,83.1693"/>
<polyline points="290.8982,76.2484,287.5468,77.9968"/>
<polyline points="290.024,74.5727,286.6726,76.3211"/>
<polyline points="289.1498,72.8971,285.7984,74.6455"/>
<polyline points="288.2756,71.2214,284.9242,72.9698"/>
<polyline points="287.4014,69.5457,280.6987,73.0425"/>
<polyline points="286.5272,67.8701,283.1758,69.6185"/>
<polyline points="285.653,66.1944,282.3016,67.9428"/>
<polyline points="284.7788,64.5187,281.4274,66.2671"/>
<polyline points="283.9046,62.843,280.5532,64.5914"/>
<polyline points="283.0304,61.1674,272.9764,66.4125"/>
<polyline points="282.1562,59.4917,278.8049,61.2401"/>
<polyline points="281.282,57.816,277.9307,59.5644"/>
<polyline points="280.4078,56.1403,277.0565,57.8887"/>
<polyline points="279.5336,54.4647,276.1823,56.2131"/>
<polyline points="278.6594,52.789,271.9567,56.2858"/>
<polyline points="277.7852,51.1133,274.4339,52.8617"/>
<polyline points="276.911,49.4377,273.5597,51.1861"/>
<polyline points="276.0368,47.762,272.6855,49.5104"/>
<polyline points="275.1626,46.0863,271.8113,47.8347"/>
<polyline points="274.2884,44.4106,264.2344,49.6558"/>
<polyline points="273.4142,42.735,270.0629,44.4834"/>
<polyline points="272.54,41.0593,269.1887,42.8077"/>
<polyline points="271.6658,39.3836,268.3145,41.132"/>
<polyline points="270.7916,37.7079,267.4403,39.4563"/>
<polyline points="269.9174,36.0323,263.2147,39.5291"/>
<polyline points="269.0432,34.3566,265.6919,36.105"/>
<polyline points="268.169,32.6809,264.8177,34.4293"/>
<polyline points="267.2948,31.0053,263.9435,32.7537"/>
<polyline points="266.4206,29.3296,263.0693,31.078"/>
<polyline points="265.5464,27.6539,255.4924,32.8991"/>
<polyline points="264.6723,25.9782,261.3209,27.7266"/>
<polyline points="263.7981,24.3026,260.4467,26.051"/>
<polyline points="262.9239,22.6269,259.5725,24.3753"/>
<polyline points="262.0497,20.9512,258.6983,22.6996"/>
<polyline points="261.1755,19.2755,254.4728,22.7723"/>
<polyline points="260.3013,17.5999,256.9499,19.3483"/>
<polyline points="259.4271,15.9242,256.0757,17.6726"/>
<polyline points="258.5529,14.2485,255.2015,15.9969"/>
<polyline points="257.6787,12.5729,254.3273,14.3213"/>
</g>
<svg viewBox="0 0 378 378">
<text font-size="5.3134px" x="267" y="112" text-anchor="start" dominant-baseline="middle" fill="rgb(0,0,0)" transform="rotate(152 267 112)">
\TeX graph
</text>
</svg>
<g stroke="rgb(0,0,0)" stroke-width="1.0627" stroke-linejoin="round" >
<polygon fill="rgb(128,128,128)" points="311.4189,126.5718,335.0439,167.4915,345.9558,161.1915,322.3308,120.2718"/>
</g>
<g stroke="rgb(0,0,0)" stroke-width="1.0627" stroke-linejoin="round" >
<polyline fill="rgb(128,128,128)" points="316.8748,123.4218,340.4998,164.3415"/>
<polyline fill="rgb(128,128,128)" points="312.7829,125.7843,336.4079,166.704"/>
<polyline fill="rgb(128,128,128)" points="320.9668,121.0593,344.5918,161.979"/>
</g>
<g stroke="rgb(0,0,0)" stroke-width="1.0627" stroke-linejoin="round" >
<polygon fill="rgb(255,228,196)" points="311.4189,126.5718,302.6998,98.87,322.3308,120.2718,321.9118,122.6961,318.9208,122.2406,317.8198,125.0586
,314.8289,124.6031,313.7279,127.4211"/>
</g>
<g stroke="rgb(0,0,0)" stroke-width="1.0627" stroke-linejoin="round" >
<path d="M305.6062 108.1039 L302.6998 98.87 L309.2435 106.0039 C309.2792,108.1657 305.5705,105.9422 305.6062,108.1039z" fill="rgb(255,0,0)"/>
</g>
<g stroke="rgb(0,0,0)" stroke-width="1.0627" stroke-linejoin="round" >
<polygon fill="rgb(255,20,147)" points="335.0439,167.4915,342.6039,180.5858,353.5158,174.2858,345.9558,161.1915"/>
</g>
<g stroke="rgb(0,0,0)" stroke-width="1.0627" stroke-linejoin="round" >
<polygon fill="rgb(192,192,192)" points="335.0439,167.4915,337.8789,172.4019,348.7908,166.1019,345.9558,161.1915"/>
</g>
<g stroke="rgb(0,0,0)" stroke-width="1.0627" stroke-linejoin="round" >
<polyline fill="rgb(192,192,192)" points="335.9889,169.1283,346.9008,162.8283"/>
<polyline fill="rgb(192,192,192)" points="337.8789,172.4019,348.7908,166.1019"/>
<polyline fill="rgb(192,192,192)" points="336.9339,170.7651,347.8458,164.4651"/>
</g>
</svg>
