<?xml version="1.0" encoding="utf-8" standalone="no"?>
<!DOCTYPE svg PUBLIC "-//W3C//DTD SVG 1.1//EN" "http://www.w3.org/TR/2001/REC-SVG-20010904/DTD/svg11.dtd">
<svg width="10cm" height="10cm" viewBox="0 0 378 378" overflow="hidden"
 version="1.1" xmlns="http://www.w3.org/2000/svg"  xmlns:xlink="http://www.w3.org/1999/xlink">
<!--dessin  (Utilisateur) -->
<g fill="none" stroke="rgb(255,0,0)" stroke-width="1.594" stroke-linejoin="round" >
<polyline points="329.3188,378,328.8694,375.5696"/>
</g>
<g fill="none" stroke="rgb(0,0,0)" stroke-width="1.0627" stroke-linejoin="round" >
<polyline points="331.4608,378,0,67.1372"/>
</g>
<g fill="none" stroke="rgb(0,0,0)" stroke-width="1.0627" stroke-linejoin="round" >
<polyline points="326.5901,378,378,323.1836"/>
</g>
<g stroke="rgb(0,0,0)" stroke-width="0.5313" stroke-linecap="round"  stroke-linejoin="round" >
<path d="M331.2607,375.5696 A2.3913,2.3913 0 1,0 326.4781,375.5696 A2.3913,2.3913 0 1,0 331.2607,375.5696" fill="rgb(0,0,0)"/>
</g>
<svg viewBox="0 0 378 378">
<text font-size="13.2835px" x="336" y="369" text-anchor="start"  fill="rgb(0,0,0)">
A
</text>
</svg>
<svg viewBox="0 0 378 378">
<text font-size="13.2835px" x="21" y="12" text-anchor="start" dominant-baseline="middle" fill="rgb(0,0,0)">
AB = 1
</text>
</svg>
<g fill-opacity="0.5" fill-rule="evenodd" stroke="rgb(0,0,0)" stroke-width="1.0627" stroke-linejoin="round" >
<clipPath id="Clip1">
<rect x="0" y="0" width="10cm" height="10cm"/>
</clipPath>
<path d="M328.8694 375.5696 L257.7593 451.3915 L259.9404 310.9241 L328.8694 375.5696 M290.8286,361.7469 L285.0582 356.3351 A5.9063,5.9063 0 0,0 275.1123,360.5515 L274.5753 395.1367 A5.9063,5.9063 0 0,0 284.7889,399.2688 L302.2973 380.6002 A5.9063,5.9063 0 0,0 302.0296,372.2518 L290.8286 361.7469" fill="rgb(211,211,211)" clip-path="url(#Clip1)"/>
</g>
<g fill="none" stroke="rgb(0,0,0)" stroke-width="0.2657" stroke-linejoin="round" >
<polyline points="324.5537,378,317.3656,371.2586"/>
<polyline points="321.7909,378,321.5871,377.8088"/>
</g>
<svg viewBox="0 0 378 378">
<text font-size="5.3134px" x="298" y="353" text-anchor="start" dominant-baseline="middle" fill="rgb(0,0,0)" transform="rotate(-137 298 353)">
\TeX graph
</text>
</svg>
<g stroke="rgb(0,0,0)" stroke-width="1.0627" stroke-linejoin="round" >
<polygon fill="rgb(255,228,196)" points="329.6344,378,328.8694,375.5696,331.0987,378"/>
</g>
<g stroke="rgb(0,0,0)" stroke-width="1.0627" stroke-linejoin="round" >
<path d="M331.7757 384.8036 L328.8694 375.5696 L335.4131 382.7036 C335.4487,384.8653 331.7401,382.6418 331.7757,384.8036z" fill="rgb(255,0,0)" clip-path="url(#Clip1)"/>
</g>
</svg>
