<?xml version="1.0" encoding="utf-8" standalone="no"?>
<!DOCTYPE svg PUBLIC "-//W3C//DTD SVG 1.1//EN" "http://www.w3.org/TR/2001/REC-SVG-20010904/DTD/svg11.dtd">
<svg width="10cm" height="10cm" viewBox="0 0 378 378" overflow="hidden"
 version="1.1" xmlns="http://www.w3.org/2000/svg"  xmlns:xlink="http://www.w3.org/1999/xlink">
<!--dessin  (Utilisateur) -->
<g fill="none" stroke="rgb(255,0,0)" stroke-width="1.594" stroke-linejoin="round" >
<polyline points="329.3188,378,328.8694,375.5696,327.478,368.4011,326.0663,361.4643,324.6345,354.748,323.183,348.2415
,321.7122,341.9352,318.7143,329.8878,315.6438,318.5407,312.5038,307.8375,309.2976,297.7292,306.0285,288.1726,302.6998,279.13
,299.315,270.5679,295.8775,262.4567,292.3909,254.7701,288.8587,247.4845,285.2847,240.5788,281.6723,234.0341,278.0254,227.8332
,274.3478,221.9607,270.6431,216.4024,266.9152,211.1455,263.168,206.1782,259.4052,201.4896,255.6308,197.0698,251.8486,192.9095
,248.0625,189,244.2764,185.3334,236.7198,178.6988,229.2098,172.9504,221.7772,168.0382,214.4527,163.9163,207.2663,160.5423
,200.2475,157.8759,193.4252,155.8785,180.4812,153.7429,168.647,153.8451,158.1167,155.8991,149.0633,159.6176,141.6356,164.7087
,135.9553,170.8754,132.1158,177.8148,130.1802,185.2197,130.1802,192.7803,132.1158,200.1852,135.9553,207.1246,141.6356,213.2913
,149.0633,218.3824,158.1167,222.1009,168.647,224.1549,180.4812,224.2571,193.4252,222.1215,200.2475,220.1241,207.2663,217.4577
,214.4527,214.0837,221.7772,209.9618,229.2098,205.0496,236.7198,199.3012,244.2764,192.6666,248.0625,189,251.8486,185.0905
,255.6308,180.9302,259.4052,176.5104,263.168,171.8218,266.9152,166.8545,270.6431,161.5976,274.3478,156.0393,278.0254,150.1668
,281.6723,143.9659,285.2847,137.4212"/>
</g>
<g fill="none" stroke="rgb(0,0,0)" stroke-width="1.0627" stroke-linejoin="round" >
<polyline points="378,106.6376,0,232.1422"/>
</g>
<g fill="none" stroke="rgb(0,0,0)" stroke-width="1.0627" stroke-linejoin="round" >
<polyline points="365.1623,378,239.6577,0"/>
</g>
<g stroke="rgb(0,0,0)" stroke-width="0.5313" stroke-linecap="round"  stroke-linejoin="round" >
<path d="M250.4538,25.314 A2.3913,2.3913 0 1,0 245.6712,25.314 A2.3913,2.3913 0 1,0 250.4538,25.314" fill="rgb(0,0,0)"/>
</g>
<svg viewBox="0 0 378 378">
<text font-size="13.2835px" x="258" y="25" text-anchor="start" dominant-baseline="middle" fill="rgb(0,0,0)">
B
</text>
</svg>
<g stroke="rgb(0,0,0)" stroke-width="0.5313" stroke-linecap="round"  stroke-linejoin="round" >
<path d="M287.676,137.4212 A2.3913,2.3913 0 1,0 282.8933,137.4212 A2.3913,2.3913 0 1,0 287.676,137.4212" fill="rgb(0,0,0)"/>
</g>
<svg viewBox="0 0 378 378">
<text font-size="13.2835px" x="292" y="131" text-anchor="start"  fill="rgb(0,0,0)">
A
</text>
</svg>
<svg viewBox="0 0 378 378">
<text font-size="13.2835px" x="21" y="12" text-anchor="start" dominant-baseline="middle" fill="rgb(0,0,0)">
AB = 1
</text>
</svg>
<g fill-opacity="0.5" fill-rule="evenodd" stroke="rgb(0,0,0)" stroke-width="1.0627" stroke-linejoin="round" >
<path d="M285.2847 137.4212 L252.5292 38.7668 L195.5989 167.1989 L285.2847 137.4212 M244.9539,134.0157 L237.4458 136.5086 A5.9063,5.9063 0 0,1 230.1851,128.5097 L244.2023 96.8878 A5.9063,5.9063 0 0,1 255.2072,97.4201 L263.2721 121.7104 A5.9063,5.9063 0 0,1 259.5278,129.1768 L244.9539 134.0157" fill="rgb(211,211,211)"/>
</g>
<g fill="none" stroke="rgb(0,0,0)" stroke-width="0.2657" stroke-linejoin="round" >
<polyline points="283.7958,132.9369,273.0335,136.5102"/>
<polyline points="283.2002,131.1432,279.6128,132.3343"/>
<polyline points="282.6047,129.3495,279.0172,130.5406"/>
<polyline points="282.0091,127.5558,278.4217,128.7469"/>
<polyline points="281.4136,125.762,277.8261,126.9531"/>
<polyline points="280.818,123.9683,273.6431,126.3505"/>
<polyline points="280.2224,122.1746,276.635,123.3657"/>
<polyline points="279.6269,120.3809,276.0395,121.572"/>
<polyline points="279.0313,118.5872,275.4439,119.7783"/>
<polyline points="278.4358,116.7935,274.8484,117.9846"/>
<polyline points="277.8402,114.9997,267.0779,118.5731"/>
<polyline points="277.2447,113.206,273.6572,114.3971"/>
<polyline points="276.6491,111.4123,273.0617,112.6034"/>
<polyline points="276.0536,109.6186,272.4661,110.8097"/>
<polyline points="275.458,107.8249,271.8706,109.016"/>
<polyline points="274.8625,106.0312,267.6876,108.4134"/>
<polyline points="274.2669,104.2375,270.6795,105.4286"/>
<polyline points="273.6713,102.4437,270.0839,103.6348"/>
<polyline points="273.0758,100.65,269.4884,101.8411"/>
<polyline points="272.4802,98.8563,268.8928,100.0474"/>
<polyline points="271.8847,97.0626,261.1224,100.6359"/>
<polyline points="271.2891,95.2689,267.7017,96.46"/>
<polyline points="270.6936,93.4752,267.1061,94.6663"/>
<polyline points="270.098,91.6814,266.5106,92.8726"/>
<polyline points="269.5025,89.8877,265.915,91.0788"/>
<polyline points="268.9069,88.094,261.732,90.4762"/>
<polyline points="268.3114,86.3003,264.7239,87.4914"/>
<polyline points="267.7158,84.5066,264.1284,85.6977"/>
<polyline points="267.1202,82.7129,263.5328,83.904"/>
<polyline points="266.5247,80.9192,262.9373,82.1103"/>
<polyline points="265.9291,79.1254,255.1668,82.6988"/>
<polyline points="265.3336,77.3317,261.7462,78.5228"/>
<polyline points="264.738,75.538,261.1506,76.7291"/>
<polyline points="264.1425,73.7443,260.555,74.9354"/>
<polyline points="263.5469,71.9506,259.9595,73.1417"/>
<polyline points="262.9514,70.1569,255.7765,72.5391"/>
<polyline points="262.3558,68.3631,258.7684,69.5543"/>
<polyline points="261.7603,66.5694,258.1728,67.7605"/>
<polyline points="261.1647,64.7757,257.5773,65.9668"/>
<polyline points="260.5691,62.982,256.9817,64.1731"/>
<polyline points="259.9736,61.1883,249.2113,64.7616"/>
<polyline points="259.378,59.3946,255.7906,60.5857"/>
<polyline points="258.7825,57.6009,255.1951,58.792"/>
<polyline points="258.1869,55.8071,254.5995,56.9982"/>
<polyline points="257.5914,54.0134,254.0039,55.2045"/>
<polyline points="256.9958,52.2197,249.821,54.6019"/>
<polyline points="256.4003,50.426,252.8128,51.6171"/>
<polyline points="255.8047,48.6323,252.2173,49.8234"/>
<polyline points="255.2092,46.8386,251.6217,48.0297"/>
<polyline points="254.6136,45.0448,251.0262,46.236"/>
</g>
<svg viewBox="0 0 378 378">
<text font-size="5.3134px" x="248" y="145" text-anchor="start" dominant-baseline="middle" fill="rgb(0,0,0)" transform="rotate(162 248 145)">
\TeX graph
</text>
</svg>
<g stroke="rgb(0,0,0)" stroke-width="1.0627" stroke-linejoin="round" >
<polygon fill="rgb(128,128,128)" points="294.0037,165.123,317.6287,206.0427,328.5406,199.7427,304.9156,158.823"/>
</g>
<g stroke="rgb(0,0,0)" stroke-width="1.0627" stroke-linejoin="round" >
<polyline fill="rgb(128,128,128)" points="299.4597,161.973,323.0847,202.8927"/>
<polyline fill="rgb(128,128,128)" points="295.3677,164.3355,318.9927,205.2552"/>
<polyline fill="rgb(128,128,128)" points="303.5516,159.6105,327.1766,200.5302"/>
</g>
<g stroke="rgb(0,0,0)" stroke-width="1.0627" stroke-linejoin="round" >
<polygon fill="rgb(255,228,196)" points="294.0037,165.123,285.2847,137.4212,304.9156,158.823,304.4966,161.2473,301.5056,160.7918,300.4047,163.6098
,297.4137,163.1543,296.3127,165.9723"/>
</g>
<g stroke="rgb(0,0,0)" stroke-width="1.0627" stroke-linejoin="round" >
<path d="M288.191 146.6551 L285.2847 137.4212 L291.8283 144.5551 C291.864,146.7169 288.1553,144.4933 288.191,146.6551z" fill="rgb(255,0,0)"/>
</g>
<g stroke="rgb(0,0,0)" stroke-width="1.0627" stroke-linejoin="round" >
<polygon fill="rgb(255,20,147)" points="317.6287,206.0427,325.1887,219.137,336.1006,212.837,328.5406,199.7427"/>
</g>
<g stroke="rgb(0,0,0)" stroke-width="1.0627" stroke-linejoin="round" >
<polygon fill="rgb(192,192,192)" points="317.6287,206.0427,320.4637,210.9531,331.3756,204.6531,328.5406,199.7427"/>
</g>
<g stroke="rgb(0,0,0)" stroke-width="1.0627" stroke-linejoin="round" >
<polyline fill="rgb(192,192,192)" points="318.5737,207.6795,329.4856,201.3795"/>
<polyline fill="rgb(192,192,192)" points="320.4637,210.9531,331.3756,204.6531"/>
<polyline fill="rgb(192,192,192)" points="319.5187,209.3163,330.4306,203.0163"/>
</g>
</svg>
