<?xml version="1.0" encoding="utf-8" standalone="no"?>
<!DOCTYPE svg PUBLIC "-//W3C//DTD SVG 1.1//EN" "http://www.w3.org/TR/2001/REC-SVG-20010904/DTD/svg11.dtd">
<svg width="10cm" height="10cm" viewBox="0 0 378 378" overflow="hidden"
 version="1.1" xmlns="http://www.w3.org/2000/svg"  xmlns:xlink="http://www.w3.org/1999/xlink">
<!--fond  (Utilisateur) -->
<g  stroke-linejoin="round" >
<polygon fill="rgb(245,245,220)" points="0,0,0,378,378,378,378,0"/>
</g>
<g fill="none" stroke="rgb(0,0,0)" stroke-width="0.797" stroke-linejoin="round" >
<polyline points="-0.378,189,377.2209,189"/>
</g>
<g fill="none" stroke="rgb(0,0,0)" stroke-width="0.797" stroke-linecap="round"  stroke-linejoin="round" >
<path d="M371.493,184.41 C371.493,186.705 377.163,189 377.973,189 C377.163,189 371.493,191.295 371.493,193.59"/>
</g>
<g fill="none" stroke="rgb(0,0,0)" stroke-width="0.797" stroke-linejoin="round" >
<polyline points="129.9375,192.78,129.9375,185.22"/>
</g>
<g fill="none" stroke="rgb(0,0,0)" stroke-width="0.797" stroke-linejoin="round" >
<polyline points="129.9375,378.378,129.9375,0.7791"/>
</g>
<g fill="none" stroke="rgb(0,0,0)" stroke-width="0.797" stroke-linecap="round"  stroke-linejoin="round" >
<path d="M125.3475,6.507 C127.6425,6.507 129.9375,0.837 129.9375,0.027 C129.9375,0.837 132.2325,6.507 134.5275,6.507"/>
</g>
<g fill="none" stroke="rgb(0,0,0)" stroke-width="0.797" stroke-linejoin="round" >
<polyline points="133.7175,307.125,126.1575,307.125"/>
<polyline points="133.7175,189,126.1575,189"/>
<polyline points="133.7175,70.875,126.1575,70.875"/>
</g>
<svg viewBox="0 0 378 378">
<text font-size="13.2835px" x="119" y="71" text-anchor="end" dominant-baseline="middle" fill="rgb(0,0,0)">
1
</text>
</svg>
<svg viewBox="0 0 378 378">
<text font-size="13.2835px" x="119" y="307" text-anchor="end" dominant-baseline="middle" fill="rgb(0,0,0)">
-1
</text>
</svg>
<g fill="none" stroke="rgb(0,0,0)" stroke-width="0.797" stroke-linejoin="round" >
<polyline points="248.0625,378,248.0625,0"/>
</g>
<g fill="none" stroke="rgb(0,0,0)" stroke-width="0.797" stroke-linejoin="round" >
<polyline points="366.1875,378,366.1875,0"/>
</g>
<svg viewBox="0 0 378 378">
<text font-size="13.2835px" x="239" y="197" text-anchor="middle" dominant-baseline="text-before-edge" fill="rgb(0,0,0)">
1
</text>
</svg>
<g fill="none" stroke="rgb(0,0,0)" stroke-width="0.5313" stroke-linejoin="round" >
<polyline points="250.1881,189,245.9369,189"/>
<polyline points="248.0625,186.8744,248.0625,191.1256"/>
</g>
<svg viewBox="0 0 378 378">
<text font-size="13.2835px" x="357" y="197" text-anchor="middle" dominant-baseline="text-before-edge" fill="rgb(0,0,0)">
2
</text>
</svg>
<g fill="none" stroke="rgb(0,0,0)" stroke-width="0.5313" stroke-linejoin="round" >
<polyline points="368.3131,189,364.0619,189"/>
<polyline points="366.1875,186.8744,366.1875,191.1256"/>
</g>
<svg viewBox="0 0 378 378">
<text font-size="13.2835px" x="12" y="197" text-anchor="middle" dominant-baseline="text-before-edge" fill="rgb(0,0,0)">
-1
</text>
</svg>
<g fill="none" stroke="rgb(0,0,0)" stroke-width="0.5313" stroke-linejoin="round" >
<polyline points="13.9381,189,9.6869,189"/>
<polyline points="11.8125,186.8744,11.8125,191.1256"/>
</g>
<g stroke="rgb(0,0,0)" stroke-width="0.5313" stroke-linecap="round"  stroke-linejoin="round" >
<path d="M132.0631,189 A2.1256,2.1256 0 1,0 127.8119,189 A2.1256,2.1256 0 1,0 132.0631,189" fill="rgb(0,0,0)"/>
</g>
<svg viewBox="0 0 378 378">
<text font-size="13.2835px" x="123" y="182" text-anchor="end"  fill="rgb(0,0,0)">
O
</text>
</svg>
<!--dessin  (Utilisateur) -->
<g fill="none" stroke="rgb(255,0,0)" stroke-width="1.594" stroke-linejoin="round" >
<polyline points="329.3188,378,328.8694,375.5696,327.478,368.4011,326.0663,361.4643,324.6345,354.748,323.183,348.2415
,321.7122,341.9352,318.7143,329.8878,315.6438,318.5407,312.5038,307.8375,309.2976,297.7292,306.0285,288.1726,302.6998,279.13
,299.315,270.5679"/>
</g>
<g fill="none" stroke="rgb(0,0,0)" stroke-width="1.0627" stroke-linejoin="round" >
<polyline points="378,308.4606,0,126.4254"/>
</g>
<g fill="none" stroke="rgb(0,0,0)" stroke-width="1.0627" stroke-linejoin="round" >
<polyline points="247.5785,378,378,107.1769"/>
</g>
<g stroke="rgb(0,0,0)" stroke-width="0.5313" stroke-linecap="round"  stroke-linejoin="round" >
<clipPath id="Clip1">
<rect x="0" y="0" width="10cm" height="10cm"/>
</clipPath>
<path d="M250.4538,376.9949 A2.3913,2.3913 0 1,0 245.6712,376.9949 A2.3913,2.3913 0 1,0 250.4538,376.9949" fill="rgb(0,0,0)" clip-path="url(#Clip1)"/>
</g>
<g stroke="rgb(0,0,0)" stroke-width="0.5313" stroke-linecap="round"  stroke-linejoin="round" >
<path d="M301.7063,270.5679 A2.3913,2.3913 0 1,0 296.9237,270.5679 A2.3913,2.3913 0 1,0 301.7063,270.5679" fill="rgb(0,0,0)"/>
</g>
<g fill-opacity="0.5" fill-rule="evenodd" stroke="rgb(0,0,0)" stroke-width="1.0627" stroke-linejoin="round" >
<path d="M299.315 270.5679 L254.2128 364.2236 L214.1735 229.5659 L299.315 270.5679 M258.8799,268.7881 L251.7522 265.3556 A5.9063,5.9063 0 0,0 243.5283,272.3602 L253.3866 305.5151 A5.9063,5.9063 0 0,0 264.3692,306.3943 L275.4741 283.3349 A5.9063,5.9063 0 0,0 272.7154,275.4509 L258.8799 268.7881" fill="rgb(211,211,211)"/>
</g>
<g fill="none" stroke="rgb(0,0,0)" stroke-width="0.2657" stroke-linejoin="round" >
<polyline points="297.2649,274.825,287.0479,269.9047"/>
<polyline points="296.4449,276.5278,293.0392,274.8877"/>
<polyline points="295.6248,278.2307,292.2192,276.5906"/>
<polyline points="294.8048,279.9335,291.3991,278.2934"/>
<polyline points="293.9848,281.6363,290.5791,279.9962"/>
<polyline points="293.1647,283.3391,286.3534,280.059"/>
<polyline points="292.3447,285.042,288.939,283.4019"/>
<polyline points="291.5246,286.7448,288.119,285.1047"/>
<polyline points="290.7046,288.4476,287.2989,286.8076"/>
<polyline points="289.8846,290.1505,286.4789,288.5104"/>
<polyline points="289.0645,291.8533,278.8475,286.9331"/>
<polyline points="288.2445,293.5561,284.8388,291.9161"/>
<polyline points="287.4244,295.259,284.0188,293.6189"/>
<polyline points="286.6044,296.9618,283.1987,295.3217"/>
<polyline points="285.7844,298.6646,282.3787,297.0245"/>
<polyline points="284.9643,300.3675,278.153,297.0873"/>
<polyline points="284.1443,302.0703,280.7386,300.4302"/>
<polyline points="283.3242,303.7731,279.9186,302.133"/>
<polyline points="282.5042,305.476,279.0985,303.8359"/>
<polyline points="281.6842,307.1788,278.2785,305.5387"/>
<polyline points="280.8641,308.8816,270.6471,303.9614"/>
<polyline points="280.0441,310.5844,276.6384,308.9444"/>
<polyline points="279.224,312.2873,275.8184,310.6472"/>
<polyline points="278.404,313.9901,274.9983,312.35"/>
<polyline points="277.5839,315.6929,274.1783,314.0529"/>
<polyline points="276.7639,317.3958,269.9526,314.1156"/>
<polyline points="275.9439,319.0986,272.5382,317.4585"/>
<polyline points="275.1238,320.8014,271.7182,319.1614"/>
<polyline points="274.3038,322.5043,270.8981,320.8642"/>
<polyline points="273.4837,324.2071,270.0781,322.567"/>
<polyline points="272.6637,325.9099,262.4467,320.9897"/>
<polyline points="271.8437,327.6128,268.438,325.9727"/>
<polyline points="271.0236,329.3156,267.618,327.6755"/>
<polyline points="270.2036,331.0184,266.7979,329.3783"/>
<polyline points="269.3835,332.7213,265.9779,331.0812"/>
<polyline points="268.5635,334.4241,261.7522,331.1439"/>
<polyline points="267.7435,336.1269,264.3378,334.4868"/>
<polyline points="266.9234,337.8297,263.5178,336.1897"/>
<polyline points="266.1034,339.5326,262.6977,337.8925"/>
<polyline points="265.2833,341.2354,261.8777,339.5953"/>
<polyline points="264.4633,342.9382,254.2463,338.018"/>
<polyline points="263.6433,344.6411,260.2376,343.001"/>
<polyline points="262.8232,346.3439,259.4176,344.7038"/>
<polyline points="262.0032,348.0467,258.5975,346.4067"/>
<polyline points="261.1831,349.7496,257.7775,348.1095"/>
<polyline points="260.3631,351.4524,253.5518,348.1722"/>
<polyline points="259.5431,353.1552,256.1374,351.5151"/>
<polyline points="258.723,354.8581,255.3174,353.218"/>
<polyline points="257.903,356.5609,254.4973,354.9208"/>
<polyline points="257.0829,358.2637,253.6773,356.6236"/>
</g>
<svg viewBox="0 0 378 378">
<text font-size="5.3134px" x="263" y="258" text-anchor="start" dominant-baseline="middle" fill="rgb(0,0,0)" transform="rotate(-154 263 258)">
\TeX graph
</text>
</svg>
<g stroke="rgb(0,0,0)" stroke-width="1.0627" stroke-linejoin="round" >
<polygon fill="rgb(128,128,128)" points="308.0341,298.2697,331.6591,339.1894,342.571,332.8894,318.946,291.9697"/>
</g>
<g stroke="rgb(0,0,0)" stroke-width="1.0627" stroke-linejoin="round" >
<polyline fill="rgb(128,128,128)" points="313.49,295.1197,337.115,336.0394"/>
<polyline fill="rgb(128,128,128)" points="309.398,297.4822,333.023,338.4019"/>
<polyline fill="rgb(128,128,128)" points="317.582,292.7572,341.207,333.6769"/>
</g>
<g stroke="rgb(0,0,0)" stroke-width="1.0627" stroke-linejoin="round" >
<polygon fill="rgb(255,228,196)" points="308.0341,298.2697,299.315,270.5679,318.946,291.9697,318.527,294.394,315.536,293.9385,314.435,296.7565
,311.444,296.301,310.343,299.119"/>
</g>
<g stroke="rgb(0,0,0)" stroke-width="1.0627" stroke-linejoin="round" >
<path d="M302.2214 279.8019 L299.315 270.5679 L305.8587 277.7019 C305.8943,279.8636 302.1857,277.6401 302.2214,279.8019z" fill="rgb(255,0,0)"/>
</g>
<g stroke="rgb(0,0,0)" stroke-width="1.0627" stroke-linejoin="round" >
<polygon fill="rgb(255,20,147)" points="331.6591,339.1894,339.2191,352.2837,350.131,345.9837,342.571,332.8894"/>
</g>
<g stroke="rgb(0,0,0)" stroke-width="1.0627" stroke-linejoin="round" >
<polygon fill="rgb(192,192,192)" points="331.6591,339.1894,334.4941,344.0998,345.406,337.7998,342.571,332.8894"/>
</g>
<g stroke="rgb(0,0,0)" stroke-width="1.0627" stroke-linejoin="round" >
<polyline fill="rgb(192,192,192)" points="332.6041,340.8262,343.516,334.5262"/>
<polyline fill="rgb(192,192,192)" points="334.4941,344.0998,345.406,337.7998"/>
<polyline fill="rgb(192,192,192)" points="333.5491,342.463,344.461,336.163"/>
</g>
</svg>
