<?xml version="1.0" encoding="utf-8" standalone="no"?>
<!DOCTYPE svg PUBLIC "-//W3C//DTD SVG 1.1//EN" "http://www.w3.org/TR/2001/REC-SVG-20010904/DTD/svg11.dtd">
<svg width="10cm" height="10cm" viewBox="0 0 378 378" overflow="hidden"
 version="1.1" xmlns="http://www.w3.org/2000/svg"  xmlns:xlink="http://www.w3.org/1999/xlink">
<!--dessin  (Utilisateur) -->
<g fill="none" stroke="rgb(0,0,0)" stroke-width="1.0627" stroke-linejoin="round" >
<polyline points="329.3188,378,0,65.828"/>
</g>
<g fill="none" stroke="rgb(0,0,0)" stroke-width="1.0627" stroke-linejoin="round" >
<polyline points="329.3188,378,378,326.6449"/>
</g>
<g stroke="rgb(0,0,0)" stroke-width="0.5313" stroke-linecap="round"  stroke-linejoin="round" >
<clipPath id="Clip1">
<rect x="0" y="0" width="10cm" height="10cm"/>
</clipPath>
<path d="M331.7101,378 A2.3913,2.3913 0 1,0 326.9275,378 A2.3913,2.3913 0 1,0 331.7101,378" fill="rgb(0,0,0)" clip-path="url(#Clip1)"/>
</g>
<svg viewBox="0 0 378 378">
<text font-size="13.2835px" x="336" y="371" text-anchor="start"  fill="rgb(0,0,0)">
A
</text>
</svg>
<svg viewBox="0 0 378 378">
<text font-size="13.2835px" x="21" y="12" text-anchor="start" dominant-baseline="middle" fill="rgb(0,0,0)">
AB = 1
</text>
</svg>
<g fill-opacity="0.5" fill-rule="evenodd" stroke="rgb(0,0,0)" stroke-width="1.0627" stroke-linejoin="round" >
<path d="M329.3188 378 L257.8053 453.4415 L260.7356 312.9877 L329.3188 378 M291.3523,363.9746 L285.6108 358.5321 A5.9063,5.9063 0 0,0 275.6426,362.6953 L274.9211 397.2772 A5.9063,5.9063 0 0,0 285.1125,401.4637 L302.7202 382.8888 A5.9063,5.9063 0 0,0 302.497,374.5391 L291.3523 363.9746" fill="rgb(211,211,211)" clip-path="url(#Clip1)"/>
</g>
<g fill="none" stroke="rgb(0,0,0)" stroke-width="0.2657" stroke-linejoin="round" >
<polyline points="322.4507,378,317.8382,373.6277"/>
</g>
<svg viewBox="0 0 378 378">
<text font-size="5.3134px" x="299" y="355" text-anchor="start" dominant-baseline="middle" fill="rgb(0,0,0)" transform="rotate(-137 299 355)">
\TeX graph
</text>
</svg>
<g stroke="rgb(0,0,0)" stroke-width="1.0627" stroke-linejoin="round" >
</g>
<g stroke="rgb(0,0,0)" stroke-width="1.0627" stroke-linejoin="round" >
<path d="M332.2251 387.2339 L329.3188 378 L335.8624 385.1339 C335.8981,387.2957 332.1895,385.0722 332.2251,387.2339z" fill="rgb(255,0,0)" clip-path="url(#Clip1)"/>
</g>
</svg>
