<?xml version="1.0" encoding="utf-8" standalone="no"?>
<!DOCTYPE svg PUBLIC "-//W3C//DTD SVG 1.1//EN" "http://www.w3.org/TR/2001/REC-SVG-20010904/DTD/svg11.dtd">
<svg width="10cm" height="10cm" viewBox="0 0 378 378" overflow="hidden"
 version="1.1" xmlns="http://www.w3.org/2000/svg"  xmlns:xlink="http://www.w3.org/1999/xlink">
<!--fond  (Utilisateur) -->
<g  stroke-linejoin="round" >
<polygon fill="rgb(245,245,220)" points="0,0,0,378,378,378,378,0"/>
</g>
<g fill="none" stroke="rgb(0,0,0)" stroke-width="0.797" stroke-linejoin="round" >
<polyline points="-0.378,189,377.2209,189"/>
</g>
<g fill="none" stroke="rgb(0,0,0)" stroke-width="0.797" stroke-linecap="round"  stroke-linejoin="round" >
<path d="M371.493,184.41 C371.493,186.705 377.163,189 377.973,189 C377.163,189 371.493,191.295 371.493,193.59"/>
</g>
<g fill="none" stroke="rgb(0,0,0)" stroke-width="0.797" stroke-linejoin="round" >
<polyline points="129.9375,192.78,129.9375,185.22"/>
</g>
<g fill="none" stroke="rgb(0,0,0)" stroke-width="0.797" stroke-linejoin="round" >
<polyline points="129.9375,378.378,129.9375,0.7791"/>
</g>
<g fill="none" stroke="rgb(0,0,0)" stroke-width="0.797" stroke-linecap="round"  stroke-linejoin="round" >
<path d="M125.3475,6.507 C127.6425,6.507 129.9375,0.837 129.9375,0.027 C129.9375,0.837 132.2325,6.507 134.5275,6.507"/>
</g>
<g fill="none" stroke="rgb(0,0,0)" stroke-width="0.797" stroke-linejoin="round" >
<polyline points="133.7175,307.125,126.1575,307.125"/>
<polyline points="133.7175,189,126.1575,189"/>
<polyline points="133.7175,70.875,126.1575,70.875"/>
</g>
<svg viewBox="0 0 378 378">
<text font-size="13.2835px" x="119" y="71" text-anchor="end" dominant-baseline="middle" fill="rgb(0,0,0)">
1
</text>
</svg>
<svg viewBox="0 0 378 378">
<text font-size="13.2835px" x="119" y="307" text-anchor="end" dominant-baseline="middle" fill="rgb(0,0,0)">
-1
</text>
</svg>
<g fill="none" stroke="rgb(0,0,0)" stroke-width="0.797" stroke-linejoin="round" >
<polyline points="248.0625,378,248.0625,0"/>
</g>
<g fill="none" stroke="rgb(0,0,0)" stroke-width="0.797" stroke-linejoin="round" >
<polyline points="366.1875,378,366.1875,0"/>
</g>
<svg viewBox="0 0 378 378">
<text font-size="13.2835px" x="239" y="197" text-anchor="middle" dominant-baseline="text-before-edge" fill="rgb(0,0,0)">
1
</text>
</svg>
<g fill="none" stroke="rgb(0,0,0)" stroke-width="0.5313" stroke-linejoin="round" >
<polyline points="250.1881,189,245.9369,189"/>
<polyline points="248.0625,186.8744,248.0625,191.1256"/>
</g>
<svg viewBox="0 0 378 378">
<text font-size="13.2835px" x="357" y="197" text-anchor="middle" dominant-baseline="text-before-edge" fill="rgb(0,0,0)">
2
</text>
</svg>
<g fill="none" stroke="rgb(0,0,0)" stroke-width="0.5313" stroke-linejoin="round" >
<polyline points="368.3131,189,364.0619,189"/>
<polyline points="366.1875,186.8744,366.1875,191.1256"/>
</g>
<svg viewBox="0 0 378 378">
<text font-size="13.2835px" x="12" y="197" text-anchor="middle" dominant-baseline="text-before-edge" fill="rgb(0,0,0)">
-1
</text>
</svg>
<g fill="none" stroke="rgb(0,0,0)" stroke-width="0.5313" stroke-linejoin="round" >
<polyline points="13.9381,189,9.6869,189"/>
<polyline points="11.8125,186.8744,11.8125,191.1256"/>
</g>
<g stroke="rgb(0,0,0)" stroke-width="0.5313" stroke-linecap="round"  stroke-linejoin="round" >
<path d="M132.0631,189 A2.1256,2.1256 0 1,0 127.8119,189 A2.1256,2.1256 0 1,0 132.0631,189" fill="rgb(0,0,0)"/>
</g>
<svg viewBox="0 0 378 378">
<text font-size="13.2835px" x="123" y="182" text-anchor="end"  fill="rgb(0,0,0)">
O
</text>
</svg>
<!--dessin  (Utilisateur) -->
<g fill="none" stroke="rgb(255,0,0)" stroke-width="1.594" stroke-linejoin="round" >
<polyline points="329.3188,378,328.8694,375.5696,327.478,368.4011,326.0663,361.4643,324.6345,354.748,323.183,348.2415
,321.7122,341.9352,318.7143,329.8878,315.6438,318.5407,312.5038,307.8375,309.2976,297.7292,306.0285,288.1726,302.6998,279.13
,299.315,270.5679,295.8775,262.4567,292.3909,254.7701,288.8587,247.4845,285.2847,240.5788,281.6723,234.0341,278.0254,227.8332
,274.3478,221.9607,270.6431,216.4024,266.9152,211.1455,263.168,206.1782,259.4052,201.4896,255.6308,197.0698,251.8486,192.9095
,248.0625,189,244.2764,185.3334,236.7198,178.6988,229.2098,172.9504,221.7772,168.0382,214.4527,163.9163,207.2663,160.5423
,200.2475,157.8759,193.4252,155.8785,180.4812,153.7429,168.647,153.8451,158.1167,155.8991,149.0633,159.6176,141.6356,164.7087
,135.9553,170.8754,132.1158,177.8148,130.1802,185.2197,130.1802,192.7803,132.1158,200.1852,135.9553,207.1246,141.6356,213.2913
,149.0633,218.3824,158.1167,222.1009,168.647,224.1549,180.4812,224.2571,193.4252,222.1215,200.2475,220.1241,207.2663,217.4577
,214.4527,214.0837,221.7772,209.9618,229.2098,205.0496,236.7198,199.3012,244.2764,192.6666,248.0625,189,251.8486,185.0905
,255.6308,180.9302,259.4052,176.5104,263.168,171.8218,266.9152,166.8545,270.6431,161.5976,274.3478,156.0393,278.0254,150.1668
,281.6723,143.9659,285.2847,137.4212,288.8587,130.5155,292.3909,123.2299,295.8775,115.5433,299.315,107.4321,302.6998,98.87
,306.0285,89.8274"/>
</g>
<g fill="none" stroke="rgb(0,0,0)" stroke-width="1.0627" stroke-linejoin="round" >
<polyline points="378,49.2938,0,262.1794"/>
</g>
<g fill="none" stroke="rgb(0,0,0)" stroke-width="1.0627" stroke-linejoin="round" >
<polyline points="378,217.6201,255.4387,0"/>
</g>
<g stroke="rgb(0,0,0)" stroke-width="0.5313" stroke-linecap="round"  stroke-linejoin="round" >
<path d="M308.4198,89.8274 A2.3913,2.3913 0 1,0 303.6372,89.8274 A2.3913,2.3913 0 1,0 308.4198,89.8274" fill="rgb(0,0,0)"/>
</g>
<g fill-opacity="0.5" fill-rule="evenodd" stroke="rgb(0,0,0)" stroke-width="1.0627" stroke-linejoin="round" >
<clipPath id="Clip1">
<rect x="0" y="0" width="10cm" height="10cm"/>
</clipPath>
<path d="M306.0285 89.8274 L255.0184 -0.7462 L223.6889 136.2002 L306.0285 89.8274 M265.7905,94.1943 L258.8974 98.0764 A5.9063,5.9063 0 0,1 250.2416,91.613 L257.9554 57.8947 A5.9063,5.9063 0 0,1 268.8591,56.3136 L281.4186 78.6142 A5.9063,5.9063 0 0,1 279.1707,86.6587 L265.7905 94.1943" fill="rgb(211,211,211)" clip-path="url(#Clip1)"/>
</g>
<g fill="none" stroke="rgb(0,0,0)" stroke-width="0.2657" stroke-linejoin="round" >
<polyline points="303.7099,85.7104,293.8291,91.2751"/>
<polyline points="302.7824,84.0636,299.4888,85.9185"/>
<polyline points="301.855,82.4168,298.5614,84.2717"/>
<polyline points="300.9275,80.77,297.6339,82.6249"/>
<polyline points="300,79.1232,296.7065,80.9782"/>
<polyline points="299.0726,77.4764,292.4854,81.1863"/>
<polyline points="298.1451,75.8297,294.8515,77.6846"/>
<polyline points="297.2177,74.1829,293.9241,76.0378"/>
<polyline points="296.2902,72.5361,292.9966,74.391"/>
<polyline points="295.3628,70.8893,292.0692,72.7442"/>
<polyline points="294.4353,69.2425,284.5546,74.8072"/>
<polyline points="293.5079,67.5957,290.2143,69.4506"/>
<polyline points="292.5804,65.9489,289.2868,67.8038"/>
<polyline points="291.6529,64.3021,288.3594,66.157"/>
<polyline points="290.7255,62.6553,287.4319,64.5102"/>
<polyline points="289.798,61.0085,283.2109,64.7183"/>
<polyline points="288.8706,59.3617,285.577,61.2166"/>
<polyline points="287.9431,57.7149,284.6495,59.5699"/>
<polyline points="287.0157,56.0681,283.7221,57.9231"/>
<polyline points="286.0882,54.4214,282.7946,56.2763"/>
<polyline points="285.1607,52.7746,275.28,58.3393"/>
<polyline points="284.2333,51.1278,280.9397,52.9827"/>
<polyline points="283.3058,49.481,280.0122,51.3359"/>
<polyline points="282.3784,47.8342,279.0848,49.6891"/>
<polyline points="281.4509,46.1874,278.1573,48.0423"/>
<polyline points="280.5235,44.5406,273.9363,48.2504"/>
<polyline points="279.596,42.8938,276.3024,44.7487"/>
<polyline points="278.6686,41.247,275.375,43.1019"/>
<polyline points="277.7411,39.6002,274.4475,41.4551"/>
<polyline points="276.8136,37.9534,273.5201,39.8083"/>
<polyline points="275.8862,36.3066,266.0054,41.8714"/>
<polyline points="274.9587,34.6598,271.6651,36.5148"/>
<polyline points="274.0313,33.0131,270.7377,34.868"/>
<polyline points="273.1038,31.3663,269.8102,33.2212"/>
<polyline points="272.1764,29.7195,268.8828,31.5744"/>
<polyline points="271.2489,28.0727,264.6617,31.7825"/>
<polyline points="270.3214,26.4259,267.0279,28.2808"/>
<polyline points="269.394,24.7791,266.1004,26.634"/>
<polyline points="268.4665,23.1323,265.173,24.9872"/>
<polyline points="267.5391,21.4855,264.2455,23.3404"/>
<polyline points="266.6116,19.8387,256.7309,25.4035"/>
<polyline points="265.6842,18.1919,262.3906,20.0468"/>
<polyline points="264.7567,16.5451,261.4631,18.4"/>
<polyline points="263.8293,14.8983,260.5357,16.7533"/>
<polyline points="262.9018,13.2515,259.6082,15.1065"/>
<polyline points="261.9743,11.6048,255.3872,15.3146"/>
<polyline points="261.0469,9.958,257.7533,11.8129"/>
<polyline points="260.1194,8.3112,256.8258,10.1661"/>
<polyline points="259.192,6.6644,255.8984,8.5193"/>
<polyline points="258.2645,5.0176,254.9709,6.8725"/>
</g>
<svg viewBox="0 0 378 378">
<text font-size="5.3134px" x="271" y="104" text-anchor="start" dominant-baseline="middle" fill="rgb(0,0,0)" transform="rotate(151 271 104)">
\TeX graph
</text>
</svg>
<g stroke="rgb(0,0,0)" stroke-width="1.0627" stroke-linejoin="round" >
<polygon fill="rgb(128,128,128)" points="314.7476,117.5292,338.3726,158.4489,349.2845,152.1489,325.6595,111.2292"/>
</g>
<g stroke="rgb(0,0,0)" stroke-width="1.0627" stroke-linejoin="round" >
<polyline fill="rgb(128,128,128)" points="320.2035,114.3792,343.8285,155.2989"/>
<polyline fill="rgb(128,128,128)" points="316.1115,116.7417,339.7365,157.6614"/>
<polyline fill="rgb(128,128,128)" points="324.2955,112.0167,347.9205,152.9364"/>
</g>
<g stroke="rgb(0,0,0)" stroke-width="1.0627" stroke-linejoin="round" >
<polygon fill="rgb(255,228,196)" points="314.7476,117.5292,306.0285,89.8274,325.6595,111.2292,325.2405,113.6535,322.2495,113.198,321.1485,116.016
,318.1575,115.5605,317.0565,118.3785"/>
</g>
<g stroke="rgb(0,0,0)" stroke-width="1.0627" stroke-linejoin="round" >
<path d="M308.9349 99.0613 L306.0285 89.8274 L312.5722 96.9613 C312.6078,99.1231 308.8992,96.8995 308.9349,99.0613z" fill="rgb(255,0,0)"/>
</g>
<g stroke="rgb(0,0,0)" stroke-width="1.0627" stroke-linejoin="round" >
<polygon fill="rgb(255,20,147)" points="338.3726,158.4489,345.9326,171.5432,356.8445,165.2432,349.2845,152.1489"/>
</g>
<g stroke="rgb(0,0,0)" stroke-width="1.0627" stroke-linejoin="round" >
<polygon fill="rgb(192,192,192)" points="338.3726,158.4489,341.2076,163.3593,352.1195,157.0593,349.2845,152.1489"/>
</g>
<g stroke="rgb(0,0,0)" stroke-width="1.0627" stroke-linejoin="round" >
<polyline fill="rgb(192,192,192)" points="339.3176,160.0857,350.2295,153.7857"/>
<polyline fill="rgb(192,192,192)" points="341.2076,163.3593,352.1195,157.0593"/>
<polyline fill="rgb(192,192,192)" points="340.2626,161.7225,351.1745,155.4225"/>
</g>
</svg>
