<?xml version="1.0" encoding="utf-8" standalone="no"?>
<!DOCTYPE svg PUBLIC "-//W3C//DTD SVG 1.1//EN" "http://www.w3.org/TR/2001/REC-SVG-20010904/DTD/svg11.dtd">
<svg width="10cm" height="10cm" viewBox="0 0 378 378" overflow="hidden"
 version="1.1" xmlns="http://www.w3.org/2000/svg"  xmlns:xlink="http://www.w3.org/1999/xlink">
<!--dessin  (Utilisateur) -->
<g fill="none" stroke="rgb(255,0,0)" stroke-width="1.594" stroke-linejoin="round" >
<polyline points="329.3188,378,328.8694,375.5696,327.478,368.4011,326.0663,361.4643,324.6345,354.748,323.183,348.2415
,321.7122,341.9352,318.7143,329.8878,315.6438,318.5407,312.5038,307.8375,309.2976,297.7292,306.0285,288.1726,302.6998,279.13
,299.315,270.5679,295.8775,262.4567,292.3909,254.7701,288.8587,247.4845,285.2847,240.5788,281.6723,234.0341,278.0254,227.8332
,274.3478,221.9607,270.6431,216.4024,266.9152,211.1455,263.168,206.1782,259.4052,201.4896,255.6308,197.0698"/>
</g>
<g fill="none" stroke="rgb(0,0,0)" stroke-width="1.0627" stroke-linejoin="round" >
<polyline points="378,204.9261,0,180.6577"/>
</g>
<g fill="none" stroke="rgb(0,0,0)" stroke-width="1.0627" stroke-linejoin="round" >
<polyline points="244.0147,378,268.2831,0"/>
</g>
<g stroke="rgb(0,0,0)" stroke-width="0.5313" stroke-linecap="round"  stroke-linejoin="round" >
<path d="M250.4538,314.9521 A2.3913,2.3913 0 1,0 245.6712,314.9521 A2.3913,2.3913 0 1,0 250.4538,314.9521" fill="rgb(0,0,0)"/>
</g>
<svg viewBox="0 0 378 378">
<text font-size="13.2835px" x="258" y="315" text-anchor="start" dominant-baseline="middle" fill="rgb(0,0,0)">
B
</text>
</svg>
<g stroke="rgb(0,0,0)" stroke-width="0.5313" stroke-linecap="round"  stroke-linejoin="round" >
<path d="M258.0221,197.0698 A2.3913,2.3913 0 1,0 253.2395,197.0698 A2.3913,2.3913 0 1,0 258.0221,197.0698" fill="rgb(0,0,0)"/>
</g>
<svg viewBox="0 0 378 378">
<text font-size="13.2835px" x="262" y="190" text-anchor="start"  fill="rgb(0,0,0)">
A
</text>
</svg>
<svg viewBox="0 0 378 378">
<text font-size="13.2835px" x="21" y="12" text-anchor="start" dominant-baseline="middle" fill="rgb(0,0,0)">
AB = 1
</text>
</svg>
<g fill-opacity="0.5" fill-rule="evenodd" stroke="rgb(0,0,0)" stroke-width="1.0627" stroke-linejoin="round" >
<path d="M255.6308 197.0698 L248.9707 300.8062 L161.325 191.0151 L255.6308 197.0698 M217.4829,210.594 L209.588 210.0871 A5.9063,5.9063 0 0,0 204.5937,219.666 L226.1735 246.6983 A5.9063,5.9063 0 0,0 236.6834,243.3919 L238.3233 217.8504 A5.9063,5.9063 0 0,0 232.8076,211.5779 L217.4829 210.594" fill="rgb(211,211,211)"/>
</g>
<g fill="none" stroke="rgb(0,0,0)" stroke-width="0.2657" stroke-linejoin="round" >
<polyline points="255.3281,201.7851,244.0114,201.0585"/>
<polyline points="255.207,203.6712,251.4347,203.429"/>
<polyline points="255.0859,205.5573,251.3136,205.3151"/>
<polyline points="254.9648,207.4434,251.1926,207.2012"/>
<polyline points="254.8437,209.3295,251.0715,209.0874"/>
<polyline points="254.7226,211.2157,247.1781,210.7313"/>
<polyline points="254.6015,213.1018,250.8293,212.8596"/>
<polyline points="254.4804,214.9879,250.7082,214.7457"/>
<polyline points="254.3593,216.874,250.5871,216.6318"/>
<polyline points="254.2382,218.7601,250.466,218.5179"/>
<polyline points="254.1171,220.6462,242.8004,219.9197"/>
<polyline points="253.996,222.5324,250.2238,222.2902"/>
<polyline points="253.875,224.4185,250.1027,224.1763"/>
<polyline points="253.7539,226.3046,249.9816,226.0624"/>
<polyline points="253.6328,228.1907,249.8605,227.9485"/>
<polyline points="253.5117,230.0768,245.9672,229.5925"/>
<polyline points="253.3906,231.9629,249.6183,231.7208"/>
<polyline points="253.2695,233.8491,249.4973,233.6069"/>
<polyline points="253.1484,235.7352,249.3762,235.493"/>
<polyline points="253.0273,237.6213,249.2551,237.3791"/>
<polyline points="252.9062,239.5074,241.5895,238.7808"/>
<polyline points="252.7851,241.3935,249.0129,241.1513"/>
<polyline points="252.664,243.2796,248.8918,243.0375"/>
<polyline points="252.5429,245.1658,248.7707,244.9236"/>
<polyline points="252.4218,247.0519,248.6496,246.8097"/>
<polyline points="252.3007,248.938,244.7563,248.4536"/>
<polyline points="252.1797,250.8241,248.4074,250.5819"/>
<polyline points="252.0586,252.7102,248.2863,252.468"/>
<polyline points="251.9375,254.5963,248.1652,254.3542"/>
<polyline points="251.8164,256.4825,248.0441,256.2403"/>
<polyline points="251.6953,258.3686,240.3786,257.642"/>
<polyline points="251.5742,260.2547,247.802,260.0125"/>
<polyline points="251.4531,262.1408,247.6809,261.8986"/>
<polyline points="251.332,264.0269,247.5598,263.7847"/>
<polyline points="251.2109,265.913,247.4387,265.6709"/>
<polyline points="251.0898,267.7992,243.5454,267.3148"/>
<polyline points="250.9687,269.6853,247.1965,269.4431"/>
<polyline points="250.8476,271.5714,247.0754,271.3292"/>
<polyline points="250.7265,273.4575,246.9543,273.2153"/>
<polyline points="250.6054,275.3436,246.8332,275.1014"/>
<polyline points="250.4844,277.2297,239.1677,276.5032"/>
<polyline points="250.3633,279.1159,246.591,278.8737"/>
<polyline points="250.2422,281.002,246.4699,280.7598"/>
<polyline points="250.1211,282.8881,246.3488,282.6459"/>
<polyline points="250,284.7742,246.2277,284.532"/>
<polyline points="249.8789,286.6603,242.3344,286.176"/>
<polyline points="249.7578,288.5464,245.9856,288.3043"/>
<polyline points="249.6367,290.4326,245.8645,290.1904"/>
<polyline points="249.5156,292.3187,245.7434,292.0765"/>
<polyline points="249.3945,294.2048,245.6223,293.9626"/>
</g>
<svg viewBox="0 0 378 378">
<text font-size="5.3134px" x="218" y="199" text-anchor="start" dominant-baseline="middle" fill="rgb(0,0,0)" transform="rotate(-176 218 199)">
\TeX graph
</text>
</svg>
<g stroke="rgb(0,0,0)" stroke-width="1.0627" stroke-linejoin="round" >
<polygon fill="rgb(128,128,128)" points="264.3498,224.7716,287.9748,265.6913,298.8868,259.3913,275.2618,218.4716"/>
</g>
<g stroke="rgb(0,0,0)" stroke-width="1.0627" stroke-linejoin="round" >
<polyline fill="rgb(128,128,128)" points="269.8058,221.6216,293.4308,262.5413"/>
<polyline fill="rgb(128,128,128)" points="265.7138,223.9841,289.3388,264.9038"/>
<polyline fill="rgb(128,128,128)" points="273.8978,219.2591,297.5228,260.1788"/>
</g>
<g stroke="rgb(0,0,0)" stroke-width="1.0627" stroke-linejoin="round" >
<polygon fill="rgb(255,228,196)" points="264.3498,224.7716,255.6308,197.0698,275.2618,218.4716,274.8428,220.8959,271.8518,220.4403,270.7508,223.2584
,267.7598,222.8028,266.6588,225.6209"/>
</g>
<g stroke="rgb(0,0,0)" stroke-width="1.0627" stroke-linejoin="round" >
<path d="M258.5371 206.3037 L255.6308 197.0698 L262.1744 204.2037 C262.2101,206.3655 258.5015,204.1419 258.5371,206.3037z" fill="rgb(255,0,0)"/>
</g>
<g stroke="rgb(0,0,0)" stroke-width="1.0627" stroke-linejoin="round" >
<polygon fill="rgb(255,20,147)" points="287.9748,265.6913,295.5348,278.7856,306.4468,272.4856,298.8868,259.3913"/>
</g>
<g stroke="rgb(0,0,0)" stroke-width="1.0627" stroke-linejoin="round" >
<polygon fill="rgb(192,192,192)" points="287.9748,265.6913,290.8098,270.6017,301.7218,264.3017,298.8868,259.3913"/>
</g>
<g stroke="rgb(0,0,0)" stroke-width="1.0627" stroke-linejoin="round" >
<polyline fill="rgb(192,192,192)" points="288.9198,267.3281,299.8318,261.0281"/>
<polyline fill="rgb(192,192,192)" points="290.8098,270.6017,301.7218,264.3017"/>
<polyline fill="rgb(192,192,192)" points="289.8648,268.9649,300.7768,262.6649"/>
</g>
</svg>
