<?xml version="1.0" encoding="utf-8" standalone="no"?>
<!DOCTYPE svg PUBLIC "-//W3C//DTD SVG 1.1//EN" "http://www.w3.org/TR/2001/REC-SVG-20010904/DTD/svg11.dtd">
<svg width="10cm" height="10cm" viewBox="0 0 378 378" overflow="hidden"
 version="1.1" xmlns="http://www.w3.org/2000/svg"  xmlns:xlink="http://www.w3.org/1999/xlink">
<!--dessin  (Utilisateur) -->
<g fill="none" stroke="rgb(255,0,0)" stroke-width="1.594" stroke-linejoin="round" >
<polyline points="329.3188,378,328.8694,375.5696,327.478,368.4011,326.0663,361.4643,324.6345,354.748,323.183,348.2415
,321.7122,341.9352,318.7143,329.8878,315.6438,318.5407,312.5038,307.8375,309.2976,297.7292,306.0285,288.1726,302.6998,279.13
,299.315,270.5679,295.8775,262.4567,292.3909,254.7701,288.8587,247.4845,285.2847,240.5788,281.6723,234.0341,278.0254,227.8332
,274.3478,221.9607,270.6431,216.4024,266.9152,211.1455,263.168,206.1782,259.4052,201.4896,255.6308,197.0698,251.8486,192.9095
,248.0625,189,244.2764,185.3334,236.7198,178.6988,229.2098,172.9504,221.7772,168.0382,214.4527,163.9163,207.2663,160.5423
,200.2475,157.8759,193.4252,155.8785,180.4812,153.7429,168.647,153.8451,158.1167,155.8991,149.0633,159.6176,141.6356,164.7087
,135.9553,170.8754,132.1158,177.8148,130.1802,185.2197,130.1802,192.7803,132.1158,200.1852,135.9553,207.1246,141.6356,213.2913
,149.0633,218.3824,158.1167,222.1009,168.647,224.1549,180.4812,224.2571,193.4252,222.1215,200.2475,220.1241,207.2663,217.4577
,214.4527,214.0837,221.7772,209.9618,229.2098,205.0496,236.7198,199.3012,244.2764,192.6666,248.0625,189,251.8486,185.0905
,255.6308,180.9302,259.4052,176.5104,263.168,171.8218,266.9152,166.8545,270.6431,161.5976,274.3478,156.0393,278.0254,150.1668
,281.6723,143.9659,285.2847,137.4212,288.8587,130.5155,292.3909,123.2299,295.8775,115.5433,299.315,107.4321,302.6998,98.87
,306.0285,89.8274,309.2976,80.2708,312.5038,70.1625,315.6438,59.4593,318.7143,48.1122,321.7122,36.0648,323.183,29.7585"/>
</g>
<g fill="none" stroke="rgb(0,0,0)" stroke-width="1.0627" stroke-linejoin="round" >
<polyline points="359.296,0,0,296.0733"/>
</g>
<g fill="none" stroke="rgb(0,0,0)" stroke-width="1.0627" stroke-linejoin="round" >
<polyline points="378,96.281,298.6609,0"/>
</g>
<g stroke="rgb(0,0,0)" stroke-width="0.5313" stroke-linecap="round"  stroke-linejoin="round" >
<path d="M325.5743,29.7585 A2.3913,2.3913 0 1,0 320.7917,29.7585 A2.3913,2.3913 0 1,0 325.5743,29.7585" fill="rgb(0,0,0)"/>
</g>
<svg viewBox="0 0 378 378">
<text font-size="13.2835px" x="330" y="23" text-anchor="start"  fill="rgb(0,0,0)">
A
</text>
</svg>
<svg viewBox="0 0 378 378">
<text font-size="13.2835px" x="21" y="12" text-anchor="start" dominant-baseline="middle" fill="rgb(0,0,0)">
AB = 1
</text>
</svg>
<g fill-opacity="0.5" fill-rule="evenodd" stroke="rgb(0,0,0)" stroke-width="1.0627" stroke-linejoin="round" >
<clipPath id="Clip1">
<rect x="0" y="0" width="10cm" height="10cm"/>
</clipPath>
<path d="M323.183 29.7585 L257.077 -50.4637 L250.2538 89.8549 L323.183 29.7585 M284.3348,41.1155 L278.2294 46.1465 A5.9063,5.9063 0 0,1 268.5741,41.3016 L270.2541 6.753 A5.9063,5.9063 0 0,1 280.7115,3.2838 L296.9878 23.0357 A5.9063,5.9063 0 0,1 296.1858,31.3498 L284.3348 41.1155" fill="rgb(211,211,211)" clip-path="url(#Clip1)"/>
</g>
<g fill="none" stroke="rgb(0,0,0)" stroke-width="0.2657" stroke-linejoin="round" >
<polyline points="320.1782,26.112,311.4267,33.3236"/>
<polyline points="318.9763,24.6534,316.0591,27.0573"/>
<polyline points="317.7743,23.1949,314.8572,25.5987"/>
<polyline points="316.5724,21.7363,313.6552,24.1401"/>
<polyline points="315.3705,20.2777,312.4533,22.6815"/>
<polyline points="314.1685,18.8191,308.3342,23.6268"/>
<polyline points="312.9666,17.3605,310.0494,19.7644"/>
<polyline points="311.7647,15.9019,308.8475,18.3058"/>
<polyline points="310.5628,14.4434,307.6456,16.8472"/>
<polyline points="309.3608,12.9848,306.4437,15.3886"/>
<polyline points="308.1589,11.5262,299.4074,18.7378"/>
<polyline points="306.957,10.0676,304.0398,12.4715"/>
<polyline points="305.755,8.609,302.8379,11.0129"/>
<polyline points="304.5531,7.1504,301.636,9.5543"/>
<polyline points="303.3512,5.6918,300.434,8.0957"/>
<polyline points="302.1493,4.2333,296.3149,9.041"/>
<polyline points="300.9473,2.7747,298.0302,5.1785"/>
<polyline points="299.7454,1.3161,296.8282,3.72"/>
<polyline points="298.3706,0,295.6263,2.2614"/>
<polyline points="295.3986,0,294.4244,0.8028"/>
<polyline points="292.4266,0,287.3881,4.1519"/>
</g>
<svg viewBox="0 0 378 378">
<text font-size="5.3134px" x="291" y="50" text-anchor="start" dominant-baseline="middle" fill="rgb(0,0,0)" transform="rotate(141 291 50)">
\TeX graph
</text>
</svg>
<g stroke="rgb(0,0,0)" stroke-width="1.0627" stroke-linejoin="round" >
<polygon fill="rgb(128,128,128)" points="331.902,57.4603,355.527,98.38,366.439,92.08,342.814,51.1603"/>
</g>
<g stroke="rgb(0,0,0)" stroke-width="1.0627" stroke-linejoin="round" >
<polyline fill="rgb(128,128,128)" points="337.358,54.3103,360.983,95.23"/>
<polyline fill="rgb(128,128,128)" points="333.266,56.6728,356.891,97.5925"/>
<polyline fill="rgb(128,128,128)" points="341.45,51.9478,365.075,92.8675"/>
</g>
<g stroke="rgb(0,0,0)" stroke-width="1.0627" stroke-linejoin="round" >
<polygon fill="rgb(255,228,196)" points="331.902,57.4603,323.183,29.7585,342.814,51.1603,342.395,53.5846,339.404,53.1291,338.303,55.9471
,335.312,55.4916,334.211,58.3096"/>
</g>
<g stroke="rgb(0,0,0)" stroke-width="1.0627" stroke-linejoin="round" >
<path d="M326.0894 38.9924 L323.183 29.7585 L329.7267 36.8924 C329.7623,39.0542 326.0537,36.8306 326.0894,38.9924z" fill="rgb(255,0,0)"/>
</g>
<g stroke="rgb(0,0,0)" stroke-width="1.0627" stroke-linejoin="round" >
<polygon fill="rgb(255,20,147)" points="355.527,98.38,363.087,111.4743,373.999,105.1743,366.439,92.08"/>
</g>
<g stroke="rgb(0,0,0)" stroke-width="1.0627" stroke-linejoin="round" >
<polygon fill="rgb(192,192,192)" points="355.527,98.38,358.362,103.2904,369.274,96.9904,366.439,92.08"/>
</g>
<g stroke="rgb(0,0,0)" stroke-width="1.0627" stroke-linejoin="round" >
<polyline fill="rgb(192,192,192)" points="356.472,100.0168,367.384,93.7168"/>
<polyline fill="rgb(192,192,192)" points="358.362,103.2904,369.274,96.9904"/>
<polyline fill="rgb(192,192,192)" points="357.417,101.6536,368.329,95.3536"/>
</g>
</svg>
