<?xml version="1.0" encoding="utf-8" standalone="no"?>
<!DOCTYPE svg PUBLIC "-//W3C//DTD SVG 1.1//EN" "http://www.w3.org/TR/2001/REC-SVG-20010904/DTD/svg11.dtd">
<svg width="10cm" height="10cm" viewBox="0 0 378 378" overflow="hidden"
 version="1.1" xmlns="http://www.w3.org/2000/svg"  xmlns:xlink="http://www.w3.org/1999/xlink">
<!--dessin  (Utilisateur) -->
<g fill="none" stroke="rgb(255,0,0)" stroke-width="1.594" stroke-linejoin="round" >
<polyline points="329.3188,378,328.8694,375.5696,327.478,368.4011,326.0663,361.4643,324.6345,354.748,323.183,348.2415
,321.7122,341.9352,318.7143,329.8878,315.6438,318.5407,312.5038,307.8375,309.2976,297.7292,306.0285,288.1726,302.6998,279.13
,299.315,270.5679,295.8775,262.4567,292.3909,254.7701,288.8587,247.4845,285.2847,240.5788,281.6723,234.0341,278.0254,227.8332
,274.3478,221.9607,270.6431,216.4024,266.9152,211.1455,263.168,206.1782,259.4052,201.4896,255.6308,197.0698,251.8486,192.9095
,248.0625,189,244.2764,185.3334,236.7198,178.6988,229.2098,172.9504,221.7772,168.0382,214.4527,163.9163,207.2663,160.5423
,200.2475,157.8759,193.4252,155.8785,180.4812,153.7429,168.647,153.8451,158.1167,155.8991,149.0633,159.6176,141.6356,164.7087
,135.9553,170.8754,132.1158,177.8148,130.1802,185.2197,130.1802,192.7803,132.1158,200.1852,135.9553,207.1246,141.6356,213.2913
,149.0633,218.3824,158.1167,222.1009,168.647,224.1549,180.4812,224.2571,193.4252,222.1215,200.2475,220.1241,207.2663,217.4577
,214.4527,214.0837,221.7772,209.9618,229.2098,205.0496,236.7198,199.3012,244.2764,192.6666,248.0625,189,251.8486,185.0905
,255.6308,180.9302,259.4052,176.5104,263.168,171.8218,266.9152,166.8545,270.6431,161.5976,274.3478,156.0393,278.0254,150.1668
,281.6723,143.9659,285.2847,137.4212,288.8587,130.5155,292.3909,123.2299,295.8775,115.5433,299.315,107.4321,302.6998,98.87
,306.0285,89.8274,309.2976,80.2708,312.5038,70.1625,315.6438,59.4593,318.7143,48.1122,321.7122,36.0648"/>
</g>
<g fill="none" stroke="rgb(0,0,0)" stroke-width="1.0627" stroke-linejoin="round" >
<polyline points="366.936,0,0,292.6217"/>
</g>
<g fill="none" stroke="rgb(0,0,0)" stroke-width="1.0627" stroke-linejoin="round" >
<polyline points="378,106.6474,292.9516,0"/>
</g>
<g stroke="rgb(0,0,0)" stroke-width="0.5313" stroke-linecap="round"  stroke-linejoin="round" >
<path d="M324.1036,36.0648 A2.3913,2.3913 0 1,0 319.3209,36.0648 A2.3913,2.3913 0 1,0 324.1036,36.0648" fill="rgb(0,0,0)"/>
</g>
<svg viewBox="0 0 378 378">
<text font-size="13.2835px" x="328" y="29" text-anchor="start"  fill="rgb(0,0,0)">
A
</text>
</svg>
<svg viewBox="0 0 378 378">
<text font-size="13.2835px" x="21" y="12" text-anchor="start" dominant-baseline="middle" fill="rgb(0,0,0)">
AB = 1
</text>
</svg>
<g fill-opacity="0.5" fill-rule="evenodd" stroke="rgb(0,0,0)" stroke-width="1.0627" stroke-linejoin="round" >
<clipPath id="Clip1">
<rect x="0" y="0" width="10cm" height="10cm"/>
</clipPath>
<path d="M321.7122 36.0648 L256.9005 -45.2066 L247.8292 94.9845 L321.7122 36.0648 M282.6869,46.7977 L276.5018 51.7302 A5.9063,5.9063 0 0,1 266.9254,46.7311 L269.1589 12.2138 A5.9063,5.9063 0 0,1 279.6705,8.9127 L295.6281 28.923 A5.9063,5.9063 0 0,1 294.6929,37.2232 L282.6869 46.7977" fill="rgb(211,211,211)" clip-path="url(#Clip1)"/>
</g>
<g fill="none" stroke="rgb(0,0,0)" stroke-width="0.2657" stroke-linejoin="round" >
<polyline points="318.7662,32.3706,309.9003,39.441"/>
<polyline points="317.5878,30.8929,314.6325,33.2497"/>
<polyline points="316.4095,29.4153,313.4541,31.7721"/>
<polyline points="315.2311,27.9376,312.2757,30.2944"/>
<polyline points="314.0527,26.46,311.0973,28.8167"/>
<polyline points="312.8743,24.9823,306.9636,29.6959"/>
<polyline points="311.6959,23.5046,308.7405,25.8614"/>
<polyline points="310.5175,22.027,307.5622,24.3838"/>
<polyline points="309.3391,20.5493,306.3838,22.9061"/>
<polyline points="308.1607,19.0716,305.2054,21.4284"/>
<polyline points="306.9823,17.594,298.1163,24.6644"/>
<polyline points="305.8039,16.1163,302.8486,18.4731"/>
<polyline points="304.6255,14.6387,301.6702,16.9955"/>
<polyline points="303.4471,13.161,300.4918,15.5178"/>
<polyline points="302.2687,11.6833,299.3134,14.0401"/>
<polyline points="301.0903,10.2057,295.1797,14.9193"/>
<polyline points="299.9119,8.728,296.9566,11.0848"/>
<polyline points="298.7335,7.2504,295.7782,9.6071"/>
<polyline points="297.5551,5.7727,294.5998,8.1295"/>
<polyline points="296.3767,4.295,293.4214,6.6518"/>
<polyline points="295.1983,2.8174,286.3324,9.8877"/>
<polyline points="294.0199,1.3397,291.0646,3.6965"/>
<polyline points="292.6686,0,289.8862,2.2188"/>
<polyline points="289.6372,0,288.7078,0.7412"/>
<polyline points="283.5746,0,283.3957,0.1426"/>
</g>
<svg viewBox="0 0 378 378">
<text font-size="5.3134px" x="289" y="56" text-anchor="start" dominant-baseline="middle" fill="rgb(0,0,0)" transform="rotate(141 289 56)">
\TeX graph
</text>
</svg>
<g stroke="rgb(0,0,0)" stroke-width="1.0627" stroke-linejoin="round" >
<polygon fill="rgb(128,128,128)" points="330.4313,63.7666,354.0563,104.6863,364.9682,98.3863,341.3432,57.4666"/>
</g>
<g stroke="rgb(0,0,0)" stroke-width="1.0627" stroke-linejoin="round" >
<polyline fill="rgb(128,128,128)" points="335.8872,60.6166,359.5122,101.5363"/>
<polyline fill="rgb(128,128,128)" points="331.7953,62.9791,355.4203,103.8988"/>
<polyline fill="rgb(128,128,128)" points="339.9792,58.2541,363.6042,99.1738"/>
</g>
<g stroke="rgb(0,0,0)" stroke-width="1.0627" stroke-linejoin="round" >
<polygon fill="rgb(255,228,196)" points="330.4313,63.7666,321.7122,36.0648,341.3432,57.4666,340.9242,59.8909,337.9332,59.4353,336.8322,62.2534
,333.8412,61.7978,332.7403,64.6159"/>
</g>
<g stroke="rgb(0,0,0)" stroke-width="1.0627" stroke-linejoin="round" >
<path d="M324.6186 45.2987 L321.7122 36.0648 L328.2559 43.1987 C328.2916,45.3605 324.5829,43.1369 324.6186,45.2987z" fill="rgb(255,0,0)"/>
</g>
<g stroke="rgb(0,0,0)" stroke-width="1.0627" stroke-linejoin="round" >
<polygon fill="rgb(255,20,147)" points="354.0563,104.6863,361.6163,117.7806,372.5282,111.4806,364.9682,98.3863"/>
</g>
<g stroke="rgb(0,0,0)" stroke-width="1.0627" stroke-linejoin="round" >
<polygon fill="rgb(192,192,192)" points="354.0563,104.6863,356.8913,109.5966,367.8032,103.2966,364.9682,98.3863"/>
</g>
<g stroke="rgb(0,0,0)" stroke-width="1.0627" stroke-linejoin="round" >
<polyline fill="rgb(192,192,192)" points="355.0013,106.3231,365.9132,100.0231"/>
<polyline fill="rgb(192,192,192)" points="356.8913,109.5966,367.8032,103.2966"/>
<polyline fill="rgb(192,192,192)" points="355.9463,107.9599,366.8582,101.6599"/>
</g>
</svg>
