<?xml version="1.0" encoding="utf-8" standalone="no"?>
<!DOCTYPE svg PUBLIC "-//W3C//DTD SVG 1.1//EN" "http://www.w3.org/TR/2001/REC-SVG-20010904/DTD/svg11.dtd">
<svg width="10cm" height="10cm" viewBox="0 0 378 378" overflow="hidden"
 version="1.1" xmlns="http://www.w3.org/2000/svg"  xmlns:xlink="http://www.w3.org/1999/xlink">
<!--dessin  (Utilisateur) -->
<g fill="none" stroke="rgb(255,0,0)" stroke-width="1.594" stroke-linejoin="round" >
<polyline points="329.3188,378,328.8694,375.5696,327.478,368.4011,326.0663,361.4643,324.6345,354.748,323.183,348.2415
,321.7122,341.9352,318.7143,329.8878,315.6438,318.5407,312.5038,307.8375,309.2976,297.7292,306.0285,288.1726,302.6998,279.13
,299.315,270.5679,295.8775,262.4567,292.3909,254.7701,288.8587,247.4845"/>
</g>
<g fill="none" stroke="rgb(0,0,0)" stroke-width="1.0627" stroke-linejoin="round" >
<polyline points="378,280.2893,0,141.1818"/>
</g>
<g fill="none" stroke="rgb(0,0,0)" stroke-width="1.0627" stroke-linejoin="round" >
<polyline points="240.8278,378,378,5.2589"/>
</g>
<g stroke="rgb(0,0,0)" stroke-width="0.5313" stroke-linecap="round"  stroke-linejoin="round" >
<path d="M250.4538,358.3411 A2.3913,2.3913 0 1,0 245.6712,358.3411 A2.3913,2.3913 0 1,0 250.4538,358.3411" fill="rgb(0,0,0)"/>
</g>
<svg viewBox="0 0 378 378">
<text font-size="13.2835px" x="258" y="358" text-anchor="start" dominant-baseline="middle" fill="rgb(0,0,0)">
B
</text>
</svg>
<g stroke="rgb(0,0,0)" stroke-width="0.5313" stroke-linecap="round"  stroke-linejoin="round" >
<path d="M291.2501,247.4845 A2.3913,2.3913 0 1,0 286.4674,247.4845 A2.3913,2.3913 0 1,0 291.2501,247.4845" fill="rgb(0,0,0)"/>
</g>
<svg viewBox="0 0 378 378">
<text font-size="13.2835px" x="296" y="241" text-anchor="start"  fill="rgb(0,0,0)">
A
</text>
</svg>
<svg viewBox="0 0 378 378">
<text font-size="13.2835px" x="21" y="12" text-anchor="start" dominant-baseline="middle" fill="rgb(0,0,0)">
AB = 1
</text>
</svg>
<g fill-opacity="0.5" fill-rule="evenodd" stroke="rgb(0,0,0)" stroke-width="1.0627" stroke-linejoin="round" >
<path d="M288.8587 247.4845 L252.958 345.0383 L200.1735 214.8475 L288.8587 247.4845 M248.4395,249.5956 L241.0152 246.8633 A5.9063,5.9063 0 0,0 233.5019,254.6253 L246.4983 286.6803 A5.9063,5.9063 0 0,0 257.5146,286.501 L266.3539 262.4817 A5.9063,5.9063 0 0,0 262.8509,254.8991 L248.4395 249.5956" fill="rgb(211,211,211)"/>
</g>
<g fill="none" stroke="rgb(0,0,0)" stroke-width="0.2657" stroke-linejoin="round" >
<polyline points="287.2269,251.9188,276.5847,248.0023"/>
<polyline points="286.5742,253.6925,283.0267,252.387"/>
<polyline points="285.9214,255.4662,282.374,254.1607"/>
<polyline points="285.2687,257.2399,281.7213,255.9344"/>
<polyline points="284.6159,259.0136,281.0685,257.7081"/>
<polyline points="283.9632,260.7873,276.8684,258.1763"/>
<polyline points="283.3105,262.561,279.763,261.2555"/>
<polyline points="282.6577,264.3347,279.1103,263.0292"/>
<polyline points="282.005,266.1084,278.4576,264.8029"/>
<polyline points="281.3522,267.8821,277.8048,266.5766"/>
<polyline points="280.6995,269.6558,270.0573,265.7394"/>
<polyline points="280.0468,271.4295,276.4993,270.124"/>
<polyline points="279.394,273.2032,275.8466,271.8977"/>
<polyline points="278.7413,274.9769,275.1939,273.6714"/>
<polyline points="278.0885,276.7506,274.5411,275.4451"/>
<polyline points="277.4358,278.5243,270.341,275.9134"/>
<polyline points="276.7831,280.298,273.2356,278.9926"/>
<polyline points="276.1303,282.0717,272.5829,280.7663"/>
<polyline points="275.4776,283.8454,271.9302,282.54"/>
<polyline points="274.8248,285.6192,271.2774,284.3137"/>
<polyline points="274.1721,287.3929,263.5299,283.4764"/>
<polyline points="273.5194,289.1666,269.9719,287.8611"/>
<polyline points="272.8666,290.9403,269.3192,289.6348"/>
<polyline points="272.2139,292.714,268.6665,291.4085"/>
<polyline points="271.5611,294.4877,268.0137,293.1822"/>
<polyline points="270.9084,296.2614,263.8136,293.6504"/>
<polyline points="270.2557,298.0351,266.7082,296.7296"/>
<polyline points="269.6029,299.8088,266.0555,298.5033"/>
<polyline points="268.9502,301.5825,265.4028,300.277"/>
<polyline points="268.2974,303.3562,264.75,302.0507"/>
<polyline points="267.6447,305.1299,257.0025,301.2135"/>
<polyline points="266.992,306.9036,263.4445,305.5981"/>
<polyline points="266.3392,308.6773,262.7918,307.3718"/>
<polyline points="265.6865,310.451,262.1391,309.1455"/>
<polyline points="265.0337,312.2247,261.4863,310.9193"/>
<polyline points="264.381,313.9984,257.2862,311.3875"/>
<polyline points="263.7283,315.7721,260.1808,314.4667"/>
<polyline points="263.0755,317.5458,259.5281,316.2404"/>
<polyline points="262.4228,319.3196,258.8754,318.0141"/>
<polyline points="261.77,321.0933,258.2226,319.7878"/>
<polyline points="261.1173,322.867,250.4751,318.9505"/>
<polyline points="260.4646,324.6407,256.9171,323.3352"/>
<polyline points="259.8118,326.4144,256.2644,325.1089"/>
<polyline points="259.1591,328.1881,255.6117,326.8826"/>
<polyline points="258.5063,329.9618,254.9589,328.6563"/>
<polyline points="257.8536,331.7355,250.7588,329.1245"/>
<polyline points="257.2009,333.5092,253.6534,332.2037"/>
<polyline points="256.5481,335.2829,253.0007,333.9774"/>
<polyline points="255.8954,337.0566,252.348,335.7511"/>
<polyline points="255.2426,338.8303,251.6952,337.5248"/>
</g>
<svg viewBox="0 0 378 378">
<text font-size="5.3134px" x="252" y="239" text-anchor="start" dominant-baseline="middle" fill="rgb(0,0,0)" transform="rotate(-160 252 239)">
\TeX graph
</text>
</svg>
<g stroke="rgb(0,0,0)" stroke-width="1.0627" stroke-linejoin="round" >
<polygon fill="rgb(128,128,128)" points="297.5778,275.1863,321.2028,316.106,332.1147,309.806,308.4897,268.8863"/>
</g>
<g stroke="rgb(0,0,0)" stroke-width="1.0627" stroke-linejoin="round" >
<polyline fill="rgb(128,128,128)" points="303.0337,272.0363,326.6587,312.956"/>
<polyline fill="rgb(128,128,128)" points="298.9418,274.3988,322.5668,315.3185"/>
<polyline fill="rgb(128,128,128)" points="307.1257,269.6738,330.7507,310.5935"/>
</g>
<g stroke="rgb(0,0,0)" stroke-width="1.0627" stroke-linejoin="round" >
<polygon fill="rgb(255,228,196)" points="297.5778,275.1863,288.8587,247.4845,308.4897,268.8863,308.0707,271.3106,305.0797,270.8551,303.9787,273.6731
,300.9878,273.2176,299.8868,276.0356"/>
</g>
<g stroke="rgb(0,0,0)" stroke-width="1.0627" stroke-linejoin="round" >
<path d="M291.7651 256.7184 L288.8587 247.4845 L295.4024 254.6184 C295.4381,256.7802 291.7294,254.5566 291.7651,256.7184z" fill="rgb(255,0,0)"/>
</g>
<g stroke="rgb(0,0,0)" stroke-width="1.0627" stroke-linejoin="round" >
<polygon fill="rgb(255,20,147)" points="321.2028,316.106,328.7628,329.2003,339.6747,322.9003,332.1147,309.806"/>
</g>
<g stroke="rgb(0,0,0)" stroke-width="1.0627" stroke-linejoin="round" >
<polygon fill="rgb(192,192,192)" points="321.2028,316.106,324.0378,321.0164,334.9497,314.7164,332.1147,309.806"/>
</g>
<g stroke="rgb(0,0,0)" stroke-width="1.0627" stroke-linejoin="round" >
<polyline fill="rgb(192,192,192)" points="322.1478,317.7428,333.0597,311.4428"/>
<polyline fill="rgb(192,192,192)" points="324.0378,321.0164,334.9497,314.7164"/>
<polyline fill="rgb(192,192,192)" points="323.0928,319.3796,334.0047,313.0796"/>
</g>
</svg>
