<?xml version="1.0" encoding="utf-8" standalone="no"?>
<!DOCTYPE svg PUBLIC "-//W3C//DTD SVG 1.1//EN" "http://www.w3.org/TR/2001/REC-SVG-20010904/DTD/svg11.dtd">
<svg width="10cm" height="10cm" viewBox="0 0 378 378" overflow="hidden"
 version="1.1" xmlns="http://www.w3.org/2000/svg"  xmlns:xlink="http://www.w3.org/1999/xlink">
<!--fond  (Utilisateur) -->
<g  stroke-linejoin="round" >
<polygon fill="rgb(0,0,139)" points="0,0,0,378,378,378,378,0"/>
</g>
<!--tangram  (Utilisateur) -->
<g stroke="rgb(0,0,139)" stroke-width="1.0627" stroke-linejoin="round" >
<path d="M233.3875 187.3862 L274.9229 166.2228 L273.1344 163.0292 L271.1009 159.9858 L268.8348 157.1113 L266.3502 154.4235 L263.6624 151.9389
 L260.7879 149.6728 L257.7444 147.6393 L254.5509 145.8508 L251.2268 144.3184 L247.7927 143.0515z" fill="rgb(255,215,0)"/>
</g>
<g stroke="rgb(0,0,139)" stroke-width="1.0627" stroke-linejoin="round" >
<path d="M208.0656 93.174 L176.4225 58.9426 L173.8343 61.5308 L171.4571 64.3141 L169.3056 67.2754 L167.3931 70.3963 L165.7314 73.6576
 L164.3307 77.0393 L163.1996 80.5204 L162.3451 84.0796 L161.7725 87.6948 L161.4853 91.3438z" fill="rgb(255,215,0)"/>
</g>
<g stroke="rgb(0,0,139)" stroke-width="1.0627" stroke-linejoin="round" >
<path d="M236.0839 167.8085 L188.9673 65.6046 L187.5764 69.5322 L186.2889 73.4949 L185.1055 77.49 L184.0271 81.5146 L183.0544 85.5661
 L182.1881 89.6417 L181.4288 93.7386 L180.777 97.8539 L180.2331 101.9849 L179.7976 106.1287 L179.4707 110.2824 L179.2526 114.4434
 L179.1436 118.6086 L179.1436 122.7752 L179.2526 126.9404 L179.4707 131.1013 L179.7976 135.2551 L180.2331 139.3989 L180.777 143.5299
 L181.4288 147.6452 L182.1881 151.742 L183.0544 155.8176 L184.0271 159.8691 L185.1055 163.8938 L186.2889 167.8888 L187.5764 171.8515
 L188.9673 175.7791 L190.4605 179.669 L192.055 183.5185 L193.7497 187.3249z" fill="rgb(255,215,0)"/>
</g>
<g stroke="rgb(0,0,139)" stroke-width="1.0627" stroke-linejoin="round" >
<path d="M168.1105 228.7895 L62.5249 189.8369 L64.3187 193.5976 L66.2103 197.3101 L68.1985 200.9718 L70.2818 204.5802 L72.4588 208.1329
 L74.7281 211.6273 L77.0882 215.0611 L79.5372 218.432 L82.0737 221.7376 L84.6959 224.9757 L87.4019 228.144 L90.1899 231.2404
 L93.058 234.2628 L96.0042 237.209 L99.0266 240.0771 L102.123 242.8651 L105.2913 245.5711 L108.5294 248.1933 L111.835 250.7298
 L115.2059 253.1788 L118.6397 255.5388 L122.1341 257.8082 L125.6868 259.9852 L129.2952 262.0685 L132.9569 264.0567 L136.6694 265.9483
 L140.4301 267.7421 L144.2365 269.4368 L148.086 271.0313 L151.9758 272.5245z" fill="rgb(255,215,0)"/>
</g>
<g stroke="rgb(0,0,139)" stroke-width="1.0627" stroke-linejoin="round" >
<path d="M241.5939 139.556 L317.278 114.9647 L217.0026 63.8719z" fill="rgb(255,215,0)"/>
</g>
<g stroke="rgb(0,0,139)" stroke-width="1.0627" stroke-linejoin="round" >
<path d="M191.9842 275.4057 L135.7134 331.6766 L248.255 331.6766z" fill="rgb(255,215,0)"/>
</g>
<g stroke="rgb(0,0,139)" stroke-width="1.0627" stroke-linejoin="round" >
<path d="M259.6263 207.7636 L214.2981 196.8813 L174.5512 221.2382 L163.6688 266.5665 L168.0368 267.4864 L172.4494 268.1599 L176.8929 268.585 L181.3533 268.7602 L185.8164 268.6851
 L190.2684 268.3599 L194.695 267.7855 L199.0825 266.9638 L203.4171 265.8974 L207.685 264.5897 L211.8729 263.0447 L215.9675 261.2673
 L219.9561 259.2632 L223.826 257.0385 L227.5651 254.6004 L231.1616 251.9564 L234.6042 249.1149 L237.8821 246.0849 L240.9849 242.8759
 L243.9029 239.4979 L246.6269 235.9616 L249.1483 232.2782 L251.4592 228.4592 L253.5524 224.5166 L255.4212 220.4628 L257.0598 216.3107
 L258.4629 212.0732 L259.6263 207.7636z" fill="rgb(255,215,0)"/>
</g>
<g stroke="rgb(0,0,139)" stroke-width="1.0627" stroke-linejoin="round" >
<path d="M136.2789 195.8268 L181.9995 204.9212 L220.7595 179.0226 L229.8539 133.302 L225.4532 132.5543 L221.0175 132.0545 L216.5607 131.8042 L212.0969 131.8042 L207.6402 132.0545
 L203.2044 132.5543 L198.8037 133.302 L194.4519 134.2953 L190.1625 135.531 L185.9492 137.0053 L181.8252 138.7135 L177.8035 140.6503
 L173.8967 142.8095 L170.1171 145.1844 L166.4766 147.7675 L162.9867 150.5506 L159.6583 153.525 L156.5019 156.6814 L153.5275 160.0098
 L150.7444 163.4997 L148.1613 167.1402 L145.7865 170.9198 L143.6272 174.8266 L141.6905 178.8483 L139.9823 182.9723 L138.508 187.1856
 L137.2722 191.4749 L136.2789 195.8268z" fill="rgb(255,215,0)"/>
</g>
<g stroke="rgb(0,0,139)" stroke-width="1.0627" stroke-linejoin="round" >
<path d="M124.3421 223.8451 L157.3048 223.8451 L124.3421 190.8824 L91.3794 223.8451z" fill="rgb(255,215,0)"/>
</g>
</svg>
