<?xml version="1.0" encoding="utf-8" standalone="no"?>
<!DOCTYPE svg PUBLIC "-//W3C//DTD SVG 1.1//EN" "http://www.w3.org/TR/2001/REC-SVG-20010904/DTD/svg11.dtd">
<svg width="10cm" height="10cm" viewBox="0 0 378 378" overflow="hidden"
 version="1.1" xmlns="http://www.w3.org/2000/svg"  xmlns:xlink="http://www.w3.org/1999/xlink">
<!--fond  (Utilisateur) -->
<g  stroke-linejoin="round" >
<polygon fill="rgb(0,0,139)" points="0,0,0,378,378,378,378,0"/>
</g>
<!--tangram  (Utilisateur) -->
<g stroke="rgb(0,0,139)" stroke-width="1.0627" stroke-linejoin="round" >
<path d="M290.5117 145.1831 L246.177 130.7778 L245.1834 134.3007 L244.4693 137.8907 L244.0391 141.5256 L243.8954 145.1831 L244.0391 148.8405
 L244.4693 152.4755 L245.1834 156.0654 L246.177 159.5883 L247.4439 163.0223 L248.9763 166.3464z" fill="rgb(255,215,0)"/>
</g>
<g stroke="rgb(0,0,139)" stroke-width="1.0627" stroke-linejoin="round" >
<path d="M138.5805 142.618 L127.6981 187.9462 L131.2881 188.6603 L134.923 189.0906 L138.5805 189.2343 L142.2379 189.0906 L145.8729 188.6603
 L149.4628 187.9462 L152.9857 186.9527 L156.4198 185.6858 L159.7438 184.1534 L162.9374 182.3649z" fill="rgb(255,215,0)"/>
</g>
<g stroke="rgb(0,0,139)" stroke-width="1.0627" stroke-linejoin="round" >
<path d="M141.8767 192.5305 L251.3088 166.2582 L247.728 164.1278 L244.0927 162.0919 L240.4052 160.1519 L236.6683 158.309 L232.8844 156.5646
 L229.0562 154.9199 L225.1862 153.3759 L221.2771 151.9338 L217.3316 150.5945 L213.3524 149.3589 L209.3422 148.2279 L205.3037 147.2023
 L201.2399 146.2827 L197.1533 145.4698 L193.0468 144.7642 L188.9233 144.1663 L184.7856 143.6766 L180.6365 143.2954 L176.4787 143.0228
 L172.3153 142.8593 L168.1491 142.8047 L163.9828 142.8593 L159.8194 143.0228 L155.6617 143.2954 L151.5125 143.6766 L147.3748 144.1663
 L143.2513 144.7642 L139.1448 145.4698 L135.0583 146.2827 L130.9944 147.2023z" fill="rgb(255,215,0)"/>
</g>
<g stroke="rgb(0,0,139)" stroke-width="1.0627" stroke-linejoin="round" >
<path d="M63.6632 228.7895 L122.466 132.832 L118.4276 133.8576 L114.4174 134.9886 L110.4382 136.2242 L106.4927 137.5635 L102.5836 139.0056
 L98.7136 140.5496 L94.8853 142.1943 L91.1014 143.9387 L87.3645 145.7816 L83.6771 147.7216 L80.0417 149.7575 L76.4609 151.8879
 L72.9371 154.1113 L69.4726 156.4261 L66.07 158.8309 L62.7315 161.3239 L59.4594 163.9034 L56.2559 166.5677 L53.1233 169.3149
 L50.0636 172.1433 L47.079 175.0507 L44.1716 178.0352 L41.3433 181.0949 L38.5961 184.2275 L35.9318 187.431 L33.3522 190.7031
 L30.8592 194.0416 L28.4545 197.4443 L26.1396 200.9087 L23.9163 204.4325z" fill="rgb(255,215,0)"/>
</g>
<g stroke="rgb(0,0,139)" stroke-width="1.0627" stroke-linejoin="round" >
<path d="M291.4771 139.556 L255.349 210.4613 L362.3825 175.6841z" fill="rgb(255,215,0)"/>
</g>
<g stroke="rgb(0,0,139)" stroke-width="1.0627" stroke-linejoin="round" >
<path d="M206.9053 275.4057 L150.6344 331.6766 L263.1761 331.6766z" fill="rgb(255,215,0)"/>
</g>
<g stroke="rgb(0,0,139)" stroke-width="1.0627" stroke-linejoin="round" >
<path d="M214.8632 267.4478 L207.5708 221.4055 L169.8574 194.0051 L123.8151 201.2975 L124.6367 205.685 L125.7031 210.0196 L127.0109 214.2875 L128.5559 218.4754 L130.3332 222.5701
 L132.3374 226.5586 L134.5621 230.4285 L137.0002 234.1676 L139.6442 237.7641 L142.4856 241.2067 L145.5157 244.4846 L148.7247 247.5874
 L152.1027 250.5054 L155.6389 253.2294 L159.3224 255.7508 L163.1414 258.0617 L167.084 260.1549 L171.1377 262.0237 L175.2899 263.6623
 L179.5274 265.0655 L183.8369 266.2288 L188.2049 267.1487 L192.6176 267.8223 L197.0611 268.2473 L201.5214 268.4226 L205.9846 268.3475
 L210.4365 268.0222 L214.8632 267.4478z" fill="rgb(255,215,0)"/>
</g>
<g stroke="rgb(0,0,139)" stroke-width="1.0627" stroke-linejoin="round" >
<path d="M270.5684 195.8268 L227.5006 177.9875 L184.4328 195.8268 L166.5935 238.8946 L170.7638 240.4865 L175.0168 241.842 L179.3391 242.957 L183.7171 243.8278 L188.137 244.4518
 L192.585 244.827 L197.0471 244.9522 L201.5091 244.827 L205.9571 244.4518 L210.377 243.8278 L214.755 242.957 L219.0773 241.842
 L223.3303 240.4865 L227.5006 238.8946 L231.5751 237.0714 L235.5409 235.0226 L239.3856 232.7547 L243.0971 230.2747 L246.6637 227.5906
 L250.0742 224.7107 L253.3179 221.6441 L256.3845 218.4004 L259.2644 214.9899 L261.9485 211.4233 L264.4285 207.7118 L266.6964 203.8671
 L268.7452 199.9013 L270.5684 195.8268z" fill="rgb(255,215,0)"/>
</g>
<g stroke="rgb(0,0,139)" stroke-width="1.0627" stroke-linejoin="round" >
<path d="M198.9474 199.1231 L231.91 199.1231 L198.9474 166.1604 L165.9847 199.1231z" fill="rgb(255,215,0)"/>
</g>
</svg>
