<?xml version="1.0" encoding="utf-8" standalone="no"?>
<!DOCTYPE svg PUBLIC "-//W3C//DTD SVG 1.1//EN" "http://www.w3.org/TR/2001/REC-SVG-20010904/DTD/svg11.dtd">
<svg width="10cm" height="10cm" viewBox="0 0 378 378" overflow="hidden"
 version="1.1" xmlns="http://www.w3.org/2000/svg"  xmlns:xlink="http://www.w3.org/1999/xlink">
<!--fond  (Utilisateur) -->
<g  stroke-linejoin="round" >
<polygon fill="rgb(0,0,139)" points="0,0,0,378,378,378,378,0"/>
</g>
<!--tangram  (Utilisateur) -->
<g stroke="rgb(0,0,139)" stroke-width="1.0627" stroke-linejoin="round" >
<path d="M202.1851 167.857 L243.7205 146.6937 L241.932 143.5001 L239.8984 140.4567 L237.6324 137.5822 L235.1478 134.8944 L232.4599 132.4097
 L229.5854 130.1437 L226.542 128.1101 L223.3484 126.3216 L220.0243 124.7892 L216.5903 123.5223z" fill="rgb(255,215,0)"/>
</g>
<g stroke="rgb(0,0,139)" stroke-width="1.0627" stroke-linejoin="round" >
<path d="M202.1851 122.8404 L174.7847 85.127 L171.9102 87.3931 L169.2224 89.8777 L166.7378 92.5655 L164.4717 95.44 L162.4382 98.4834
 L160.6497 101.677 L159.1173 105.0011 L157.8504 108.4352 L156.8568 111.958 L156.1427 115.548z" fill="rgb(255,215,0)"/>
</g>
<g stroke="rgb(0,0,139)" stroke-width="1.0627" stroke-linejoin="round" >
<path d="M215.3701 154.672 L315.6455 103.5791 L311.6663 102.3436 L307.6561 101.2126 L303.6176 100.1869 L299.5538 99.2674 L295.4672 98.4545
 L291.3608 97.7489 L287.2372 97.151 L283.0995 96.6613 L278.9504 96.28 L274.7927 96.0075 L270.6292 95.8439 L266.463 95.7894
 L262.2967 95.8439 L258.1333 96.0075 L253.9756 96.28 L249.8264 96.6613 L245.6887 97.151 L241.5652 97.7489 L237.4588 98.4545
 L233.3722 99.2674 L229.3083 100.1869 L225.2699 101.2126 L221.2597 102.3436 L217.2805 103.5791 L213.335 104.9185 L209.4259 106.3606
 L205.5559 107.9046 L201.7276 109.5493 L197.9437 111.2937 L194.2068 113.1366z" fill="rgb(255,215,0)"/>
</g>
<g stroke="rgb(0,0,139)" stroke-width="1.0627" stroke-linejoin="round" >
<path d="M189 181.0421 L300.1561 198.6475 L297.6631 195.309 L295.0835 192.0368 L292.4192 188.8334 L289.672 185.7007 L286.8437 182.6411
 L283.9362 179.6565 L280.9517 176.7491 L277.892 173.9208 L274.7594 171.1735 L271.5559 168.5092 L268.2838 165.9297 L264.9453 163.4367
 L261.5426 161.032 L258.0782 158.7171 L254.5544 156.4937 L250.9736 154.3634 L247.3382 152.3275 L243.6508 150.3874 L239.9139 148.5446
 L236.13 146.8002 L232.3017 145.1554 L228.4317 143.6115 L224.5226 142.1693 L220.5771 140.83 L216.5979 139.5944 L212.5877 138.4634
 L208.5493 137.4378 L204.4854 136.5182 L200.3988 135.7054 L196.2924 134.9998z" fill="rgb(255,215,0)"/>
</g>
<g stroke="rgb(0,0,139)" stroke-width="1.0627" stroke-linejoin="round" >
<path d="M206.0469 193.0961 L281.731 168.5048 L181.4556 117.412z" fill="rgb(255,215,0)"/>
</g>
<g stroke="rgb(0,0,139)" stroke-width="1.0627" stroke-linejoin="round" >
<path d="M189 247.436 L268.5789 247.436 L189 167.857z" fill="rgb(255,215,0)"/>
</g>
<g stroke="rgb(0,0,139)" stroke-width="1.0627" stroke-linejoin="round" >
<path d="M173.0842 215.6044 L187.4894 171.2697 L166.3261 129.7343 L121.9914 115.3291 L120.7316 119.6114 L119.7139 123.9576 L118.9415 128.3541 L118.4169 132.7869 L118.1416 137.2422
 L118.1165 141.7059 L118.3418 146.164 L118.8167 150.6025 L119.5397 155.0073 L120.5086 159.3647 L121.7202 163.6609 L123.1709 167.8824
 L124.8559 172.0159 L126.7701 176.0484 L128.9074 179.9673 L131.261 183.7601 L133.8236 187.415 L136.5871 190.9205 L139.5428 194.2656
 L142.6814 197.4396 L145.9931 200.4326 L149.4673 203.2353 L153.0933 205.8387 L156.8595 208.2348 L160.7541 210.4159 L164.7649 212.3752
 L168.8793 214.1065 L173.0842 215.6044z" fill="rgb(255,215,0)"/>
</g>
<g stroke="rgb(0,0,139)" stroke-width="1.0627" stroke-linejoin="round" >
<path d="M204.9158 215.6044 L177.5154 253.3178 L184.8078 299.3601 L222.5212 326.7605 L225.0426 323.077 L227.3535 319.258 L229.4467 315.3154 L231.3155 311.2616 L232.9541 307.1095
 L234.3573 302.872 L235.5206 298.5625 L236.4405 294.1945 L237.1141 289.7818 L237.5391 285.3383 L237.7144 280.878 L237.6393 276.4148
 L237.314 271.9629 L236.7397 267.5362 L235.918 263.1487 L234.8516 258.8142 L233.5439 254.5463 L231.9989 250.3584 L230.2215 246.2637
 L228.2173 242.2752 L225.9927 238.4052 L223.5545 234.6661 L220.9106 231.0696 L218.0691 227.6271 L215.0391 224.3492 L211.83 221.2464
 L208.4521 218.3284 L204.9158 215.6044z" fill="rgb(255,215,0)"/>
</g>
<g stroke="rgb(0,0,139)" stroke-width="1.0627" stroke-linejoin="round" >
<path d="M157.1684 228.7895 L190.1311 228.7895 L157.1684 195.8268 L124.2057 228.7895z" fill="rgb(255,215,0)"/>
</g>
</svg>
