<?xml version="1.0" encoding="utf-8" standalone="no"?>
<!DOCTYPE svg PUBLIC "-//W3C//DTD SVG 1.1//EN" "http://www.w3.org/TR/2001/REC-SVG-20010904/DTD/svg11.dtd">
<svg width="10cm" height="10cm" viewBox="0 0 378 378" overflow="hidden"
 version="1.1" xmlns="http://www.w3.org/2000/svg"  xmlns:xlink="http://www.w3.org/1999/xlink">
<!--tangram  (Utilisateur) -->
<g stroke="rgb(0,0,139)" stroke-width="1.0627" stroke-linejoin="round" >
<path d="M167.9056 198.1576 L200.8682 165.1949 L198.1804 162.7103 L195.3059 160.4443 L192.2625 158.4107 L189.0689 156.6222 L185.7448 155.0898
 L182.3108 153.8229 L178.7879 152.8294 L175.1979 152.1153 L171.563 151.685 L167.9056 151.5413z" fill="rgb(255,215,0)"/>
</g>
<g stroke="rgb(0,0,139)" stroke-width="1.0627" stroke-linejoin="round" >
<path d="M200.5369 165.5262 L242.0723 144.3629 L240.2838 141.1693 L238.2503 138.1259 L235.9842 135.2514 L233.4996 132.5635 L230.8118 130.0789
 L227.9373 127.8129 L224.8939 125.7793 L221.7003 123.9908 L218.3762 122.4584 L214.9422 121.1915z" fill="rgb(255,215,0)"/>
</g>
<g stroke="rgb(0,0,139)" stroke-width="1.0627" stroke-linejoin="round" >
<path d="M200.5369 165.5262 L226.8093 274.9583 L228.9396 271.3775 L230.9755 267.7421 L232.9156 264.0547 L234.7584 260.3178 L236.5028 256.5339
 L238.1476 252.7056 L239.6915 248.8356 L241.1337 244.9265 L242.473 240.981 L243.7086 237.0018 L244.8396 232.9916 L245.8652 228.9532
 L246.7848 224.8893 L247.5976 220.8028 L248.3032 216.6963 L248.9011 212.5728 L249.3909 208.4351 L249.7721 204.2859 L250.0446 200.1282
 L250.2082 195.9648 L250.2627 191.7985 L250.2082 187.6323 L250.0446 183.4689 L249.7721 179.3112 L249.3909 175.162 L248.9011 171.0243
 L248.3032 166.9008 L247.5976 162.7943 L246.7848 158.7078 L245.8652 154.6439z" fill="rgb(255,215,0)"/>
</g>
<g stroke="rgb(0,0,139)" stroke-width="1.0627" stroke-linejoin="round" >
<path d="M223.6108 142.4523 L309.1881 215.5423 L308.8069 211.3931 L308.3172 207.2554 L307.7193 203.1319 L307.0137 199.0254 L306.2008 194.9389
 L305.2812 190.875 L304.2556 186.8366 L303.1246 182.8264 L301.889 178.8472 L300.5497 174.9017 L299.1076 170.9926 L297.5636 167.1226
 L295.9188 163.2943 L294.1744 159.5104 L292.3316 155.7735 L290.3916 152.0861 L288.3557 148.4507 L286.2253 144.8699 L284.0019 141.3461
 L281.6871 137.8816 L279.2823 134.479 L276.7893 131.1405 L274.2098 127.8684 L271.5455 124.6649 L268.7982 121.5323 L265.9699 118.4726
 L263.0625 115.488 L260.0779 112.5806 L257.0183 109.7523 L253.8857 107.0051z" fill="rgb(255,215,0)"/>
</g>
<g stroke="rgb(0,0,139)" stroke-width="1.0627" stroke-linejoin="round" >
<path d="M161.1474 228.7895 L228.9996 270.3694 L202.7273 160.9373z" fill="rgb(255,215,0)"/>
</g>
<g stroke="rgb(0,0,139)" stroke-width="1.0627" stroke-linejoin="round" >
<path d="M161.1474 228.7895 L191.6009 302.3108 L234.6687 198.3359z" fill="rgb(255,215,0)"/>
</g>
<g stroke="rgb(0,0,139)" stroke-width="1.0627" stroke-linejoin="round" >
<path d="M176.6633 189.3999 L216.4102 165.043 L227.2925 119.7147 L202.9356 79.9678 L199.1965 82.406 L195.6 85.0499 L192.1574 87.8914 L188.8795 90.9214 L185.7767 94.1304
 L182.8587 97.5084 L180.1347 101.0447 L177.6133 104.7281 L175.3024 108.5472 L173.2092 112.4897 L171.3404 116.5435 L169.7018 120.6957
 L168.2987 124.9332 L167.1353 129.2427 L166.2154 133.6106 L165.5418 138.0233 L165.1168 142.4668 L164.9415 146.9272 L165.0166 151.3903
 L165.3419 155.8422 L165.9163 160.2689 L166.7379 164.6564 L167.8043 168.991 L169.1121 173.2589 L170.657 177.4468 L172.4344 181.5414
 L174.4386 185.53 L176.6633 189.3999z" fill="rgb(255,215,0)"/>
</g>
<g stroke="rgb(0,0,139)" stroke-width="1.0627" stroke-linejoin="round" >
<path d="M136.074 245.1052 L163.4743 282.8185 L209.5167 290.1109 L247.23 262.7106 L244.506 259.1743 L241.588 255.7963 L238.4852 252.5873 L235.2074 249.5573 L231.7648 246.7158
 L228.1683 244.0718 L224.4292 241.6337 L220.5593 239.409 L216.5707 237.4049 L212.476 235.6275 L208.2882 234.0825 L204.0202 232.7747
 L199.6857 231.7084 L195.2982 230.8867 L190.8715 230.3123 L186.4196 229.9871 L181.9564 229.9119 L177.4961 230.0872 L173.0526 230.5123
 L168.6399 231.1858 L164.272 232.1057 L159.9625 233.2691 L155.7249 234.6723 L151.5728 236.3108 L147.519 238.1796 L143.5764 240.2728
 L139.7574 242.5837 L136.074 245.1052z" fill="rgb(255,215,0)"/>
</g>
<g stroke="rgb(0,0,139)" stroke-width="1.0627" stroke-linejoin="round" >
<path d="M121.7578 245.1052 L154.7205 245.1052 L121.7578 278.0678 L88.7951 245.1052z" fill="rgb(255,215,0)"/>
</g>
</svg>
