<?xml version="1.0" encoding="utf-8" standalone="no"?>
<!DOCTYPE svg PUBLIC "-//W3C//DTD SVG 1.1//EN" "http://www.w3.org/TR/2001/REC-SVG-20010904/DTD/svg11.dtd">
<svg width="10cm" height="10cm" viewBox="0 0 378 378" overflow="hidden"
 version="1.1" xmlns="http://www.w3.org/2000/svg"  xmlns:xlink="http://www.w3.org/1999/xlink">
<!--fond  (Utilisateur) -->
<g  stroke-linejoin="round" >
<polygon fill="rgb(0,0,139)" points="0,0,0,378,378,378,378,0"/>
</g>
<!--tangram  (Utilisateur) -->
<g stroke="rgb(0,0,139)" stroke-width="1.0627" stroke-linejoin="round" >
<path d="M279.0868 153.6237 L246.1242 120.661 L243.6396 123.3488 L241.3735 126.2233 L239.3399 129.2668 L237.5514 132.4603 L236.019 135.7844
 L234.7521 139.2185 L233.7586 142.7413 L233.0445 146.3313 L232.6143 149.9662 L232.4706 153.6237z" fill="rgb(255,215,0)"/>
</g>
<g stroke="rgb(0,0,139)" stroke-width="1.0627" stroke-linejoin="round" >
<path d="M152.4775 132.7292 L178.3761 171.4892 L181.3374 169.3377 L184.1207 166.9606 L186.7089 164.3723 L189.0861 161.589 L191.2375 158.6278
 L193.15 155.5069 L194.8118 152.2455 L196.2125 148.8639 L197.3436 145.3827 L198.1981 141.8236z" fill="rgb(255,215,0)"/>
</g>
<g stroke="rgb(0,0,139)" stroke-width="1.0627" stroke-linejoin="round" >
<path d="M160.7182 187.5861 L254.2931 125.0613 L250.1963 124.302 L246.0809 123.6502 L241.95 123.1064 L237.8062 122.6709 L233.6524 122.3439
 L229.4915 122.1259 L225.3263 122.0168 L221.1596 122.0168 L216.9944 122.1259 L212.8335 122.3439 L208.6798 122.6709 L204.536 123.1064
 L200.405 123.6502 L196.2896 124.302 L192.1928 125.0613 L188.1172 125.9276 L184.0657 126.9003 L180.0411 127.9787 L176.046 129.1621
 L172.0833 130.4497 L168.1557 131.8405 L164.2658 133.3337 L160.4164 134.9282 L156.61 136.6229 L152.8492 138.4167 L149.1367 140.3083
 L145.475 142.2964 L141.8666 144.3798 L138.314 146.5568 L134.8196 148.8261z" fill="rgb(255,215,0)"/>
</g>
<g stroke="rgb(0,0,139)" stroke-width="1.0627" stroke-linejoin="round" >
<path d="M84.5526 228.7895 L106.5084 118.4103 L103.0746 120.7703 L99.7037 123.2194 L96.3981 125.7559 L93.16 128.378 L89.9917 131.084
 L86.8953 133.872 L83.8729 136.7401 L80.9267 139.6864 L78.0586 142.7088 L75.2706 145.8052 L72.5646 148.9735 L69.9424 152.2116
 L67.4059 155.5172 L64.9569 158.888 L62.5968 162.3219 L60.3275 165.8163 L58.1505 169.3689 L56.0672 172.9773 L54.079 176.639
 L52.1874 180.3515 L50.3936 184.1123 L48.6989 187.9187 L47.1044 191.7681 L45.6112 195.658 L44.2204 199.5856 L42.9328 203.5483
 L41.7495 207.5434 L40.6711 211.568 L39.6984 215.6195 L38.8321 219.6951z" fill="rgb(255,215,0)"/>
</g>
<g stroke="rgb(0,0,139)" stroke-width="1.0627" stroke-linejoin="round" >
<path d="M281.5005 139.556 L281.5005 219.1349 L361.0794 139.556z" fill="rgb(255,215,0)"/>
</g>
<g stroke="rgb(0,0,139)" stroke-width="1.0627" stroke-linejoin="round" >
<path d="M203.9211 275.4057 L147.6502 331.6766 L260.1919 331.6766z" fill="rgb(255,215,0)"/>
</g>
<g stroke="rgb(0,0,139)" stroke-width="1.0627" stroke-linejoin="round" >
<path d="M223.8158 255.511 L205.9765 212.4432 L162.9087 194.6039 L119.8409 212.4432 L121.6641 216.5177 L123.7129 220.4835 L125.9808 224.3282 L128.4608 228.0397 L131.1449 231.6063
 L134.0248 235.0168 L137.0914 238.2605 L140.3351 241.3271 L143.7456 244.207 L147.3122 246.8911 L151.0237 249.3711 L154.8684 251.639
 L158.8342 253.6878 L162.9087 255.511 L167.079 257.1029 L171.332 258.4584 L175.6543 259.5734 L180.0323 260.4442 L184.4522 261.0682
 L188.9002 261.4434 L193.3622 261.5686 L197.8243 261.4434 L202.2723 261.0682 L206.6922 260.4442 L211.0702 259.5734 L215.3925 258.4584
 L219.6455 257.1029 L223.8158 255.511z" fill="rgb(255,215,0)"/>
</g>
<g stroke="rgb(0,0,139)" stroke-width="1.0627" stroke-linejoin="round" >
<path d="M243.7105 195.8268 L217.8119 157.0668 L172.0914 147.9724 L133.3314 173.871 L135.9144 177.5115 L138.6975 181.0014 L141.672 184.3298 L144.8283 187.4862 L148.1567 190.4606
 L151.6467 193.2437 L155.2871 195.8268 L159.0667 198.2017 L162.9735 200.3609 L166.9953 202.2976 L171.1193 204.0059 L175.3326 205.4802
 L179.6219 206.7159 L183.9737 207.7092 L188.3745 208.4569 L192.8102 208.9567 L197.2669 209.207 L201.7307 209.207 L206.1875 208.9567
 L210.6232 208.4569 L215.0239 207.7092 L219.3758 206.7159 L223.6651 205.4802 L227.8784 204.0059 L232.0024 202.2976 L236.0241 200.3609
 L239.9309 198.2017 L243.7105 195.8268z" fill="rgb(255,215,0)"/>
</g>
<g stroke="rgb(0,0,139)" stroke-width="1.0627" stroke-linejoin="round" >
<path d="M184.0263 204.0675 L216.989 204.0675 L184.0263 171.1048 L151.0636 204.0675z" fill="rgb(255,215,0)"/>
</g>
</svg>
