<?xml version="1.0" encoding="utf-8" standalone="no"?>
<!DOCTYPE svg PUBLIC "-//W3C//DTD SVG 1.1//EN" "http://www.w3.org/TR/2001/REC-SVG-20010904/DTD/svg11.dtd">
<svg width="10cm" height="10cm" viewBox="0 0 378 378" overflow="hidden"
 version="1.1" xmlns="http://www.w3.org/2000/svg"  xmlns:xlink="http://www.w3.org/1999/xlink">
<!--fond  (Utilisateur) -->
<g  stroke-linejoin="round" >
<polygon fill="rgb(0,0,139)" points="0,0,0,378,378,378,378,0"/>
</g>
<!--tangram  (Utilisateur) -->
<g stroke="rgb(0,0,139)" stroke-width="1.0627" stroke-linejoin="round" >
<path d="M109.7381 166.6674 L129.2545 124.3331 L125.8728 122.9324 L122.3917 121.8013 L118.8325 120.9468 L115.2173 120.3742 L111.5683 120.087
 L107.908 120.087 L104.259 120.3742 L100.6438 120.9468 L97.0846 121.8013 L93.6034 122.9324z" fill="rgb(255,215,0)"/>
</g>
<g stroke="rgb(0,0,139)" stroke-width="1.0627" stroke-linejoin="round" >
<path d="M130.7155 160.5233 L177.3317 160.5233 A46.6163,46.6163 0 0,0 163.6781,127.5606z" fill="rgb(255,215,0)"/>
</g>
<g stroke="rgb(0,0,139)" stroke-width="1.0627" stroke-linejoin="round" >
<path d="M229.1551 210.8842 L341.3498 202.0543 L338.1463 199.39 L334.8742 196.8105 L331.5356 194.3175 L328.133 191.9127 L324.6686 189.5979
 L321.1448 187.3745 L317.5639 185.2441 L313.9286 183.2082 L310.2412 181.2682 L306.5042 179.4253 L302.7203 177.6809 L298.8921 176.0362
 L295.0221 174.4922 L291.113 173.0501 L287.1675 171.7108 L283.1883 170.4752 L279.1781 169.3442 L275.1397 168.3186 L271.0758 167.399
 L266.9892 166.5861 L262.8828 165.8805 L258.7593 165.2826 L254.6215 164.7929 L250.4724 164.4116 L246.3147 164.1391 L242.1513 163.9756
 L237.985 163.921 L233.8187 163.9756 L229.6553 164.1391 L225.4976 164.4116z" fill="rgb(255,215,0)"/>
</g>
<g stroke="rgb(0,0,139)" stroke-width="1.0627" stroke-linejoin="round" >
<path d="M196.1924 207.5879 L157.2398 102.0024 L155.5451 105.8088 L153.9506 109.6582 L152.4574 113.5481 L151.0666 117.4757 L149.779 121.4384
 L148.5956 125.4335 L147.5172 129.4581 L146.5445 133.5096 L145.6783 137.5852 L144.9189 141.6821 L144.2671 145.7974 L143.7233 149.9284
 L143.2878 154.0722 L142.9608 158.2259 L142.7428 162.3869 L142.6337 166.5521 L142.6337 170.7187 L142.7428 174.8839 L142.9608 179.0448
 L143.2878 183.1986 L143.7233 187.3424 L144.2671 191.4733 L144.9189 195.5887 L145.6783 199.6855 L146.5445 203.7611 L147.5172 207.8126
 L148.5956 211.8373 L149.779 215.8323 L151.0666 219.795 L152.4574 223.7226z" fill="rgb(255,215,0)"/>
</g>
<g stroke="rgb(0,0,139)" stroke-width="1.0627" stroke-linejoin="round" >
<path d="M189.7655 207.5879 L241.4479 147.0756 L129.2532 155.9056z" fill="rgb(255,215,0)"/>
</g>
<g stroke="rgb(0,0,139)" stroke-width="1.0627" stroke-linejoin="round" >
<path d="M189 261.845 L132.7292 318.1158 L245.2708 318.1158z" fill="rgb(255,215,0)"/>
</g>
<g stroke="rgb(0,0,139)" stroke-width="1.0627" stroke-linejoin="round" >
<path d="M98.9324 207.5879 L145.5487 207.5879 L178.5113 174.6253 L178.5113 128.009 A79.5789,79.5789 0 0,0 98.9324,207.5879z" fill="rgb(255,215,0)"/>
</g>
<g stroke="rgb(0,0,139)" stroke-width="1.0627" stroke-linejoin="round" >
<path d="M258.0903 207.5879 L294.6988 236.4478 L340.992 230.9686 L369.8518 194.3601 L366.2702 191.696 L362.5449 189.2369 L358.6875 186.9906 L354.7102 184.9641 L350.6256 183.1637
 L346.4464 181.5953 L342.1859 180.2636 L337.8574 179.1729 L333.4746 178.3267 L329.0512 177.7275 L324.6012 177.3773 L320.1385 177.2771
 L315.6773 177.4273 L311.2315 177.8274 L306.8151 178.4762 L302.442 179.3716 L298.1261 180.5108 L293.8808 181.8902 L289.7195 183.5054
 L285.6553 185.3515 L281.701 187.4225 L277.8691 189.7119 L274.1716 192.2127 L270.6201 194.9168 L267.2258 197.8158 L263.9994 200.9005
 L260.951 204.1613 L258.0903 207.5879z" fill="rgb(255,215,0)"/>
</g>
<g stroke="rgb(0,0,139)" stroke-width="1.0627" stroke-linejoin="round" >
<path d="M183.69 133.1877 L210.3574 113.8127 L164.315 106.5203 L157.0226 152.5626z" fill="rgb(255,215,0)"/>
</g>
</svg>
