<?xml version="1.0" encoding="utf-8" standalone="no"?>
<!DOCTYPE svg PUBLIC "-//W3C//DTD SVG 1.1//EN" "http://www.w3.org/TR/2001/REC-SVG-20010904/DTD/svg11.dtd">
<svg width="10cm" height="10cm" viewBox="0 0 378 378" overflow="hidden"
 version="1.1" xmlns="http://www.w3.org/2000/svg"  xmlns:xlink="http://www.w3.org/1999/xlink">
<!--fond  (Utilisateur) -->
<g  stroke-linejoin="round" >
<polygon fill="rgb(0,0,139)" points="0,0,0,378,378,378,378,0"/>
</g>
<!--tangram  (Utilisateur) -->
<g stroke="rgb(0,0,139)" stroke-width="1.0627" stroke-linejoin="round" >
<path d="M179.9595 170.1878 L212.9222 137.2252 L210.2344 134.7406 L207.3599 132.4745 L204.3165 130.4409 L201.1229 128.6524 L197.7988 127.12
 L194.3647 125.8531 L190.8419 124.8596 L187.2519 124.1455 L183.617 123.7153 L179.9595 123.5716z" fill="rgb(255,215,0)"/>
</g>
<g stroke="rgb(0,0,139)" stroke-width="1.0627" stroke-linejoin="round" >
<path d="M193.9444 156.203 L215.1077 114.6676 L211.7837 113.1352 L208.3496 111.8683 L204.8268 110.8747 L201.2368 110.1606 L197.6019 109.7304
 L193.9444 109.5867 L190.2869 109.7304 L186.652 110.1606 L183.0621 110.8747 L179.5392 111.8683z" fill="rgb(255,215,0)"/>
</g>
<g stroke="rgb(0,0,139)" stroke-width="1.0627" stroke-linejoin="round" >
<path d="M193.9444 156.203 L252.7472 252.1605 L253.6668 248.0966 L254.4797 244.01 L255.1853 239.9036 L255.7832 235.7801 L256.2729 231.6423
 L256.6542 227.4932 L256.9267 223.3355 L257.0902 219.1721 L257.1448 215.0058 L257.0902 210.8395 L256.9267 206.6761 L256.6542 202.5184
 L256.2729 198.3693 L255.7832 194.2315 L255.1853 190.108 L254.4797 186.0016 L253.6668 181.915 L252.7472 177.8511 L251.7216 173.8127
 L250.5906 169.8025 L249.355 165.8233 L248.0157 161.8778 L246.5736 157.9687 L245.0296 154.0987 L243.3849 150.2705 L241.6405 146.4866
 L239.7976 142.7496 L237.8576 139.0622 L235.8217 135.4269 L233.6913 131.846z" fill="rgb(255,215,0)"/>
</g>
<g stroke="rgb(0,0,139)" stroke-width="1.0627" stroke-linejoin="round" >
<path d="M203.8332 146.3142 L195.0033 258.5089 L198.1359 255.7616 L201.1956 252.9333 L204.1801 250.0259 L207.0876 247.0413 L209.9159 243.9817
 L212.6631 240.849 L215.3274 237.6456 L217.907 234.3734 L220.3999 231.0349 L222.8047 227.6323 L225.1195 224.1679 L227.3429 220.644
 L229.4733 217.0632 L231.5092 213.4278 L233.4492 209.7404 L235.2921 206.0035 L237.0365 202.2196 L238.6812 198.3913 L240.2252 194.5213
 L241.6673 190.6122 L243.0067 186.6667 L244.2422 182.6875 L245.3732 178.6773 L246.3989 174.6389 L247.3184 170.575 L248.1313 166.4885
 L248.8369 162.382 L249.4348 158.2585 L249.9245 154.1208 L250.3058 149.9716z" fill="rgb(255,215,0)"/>
</g>
<g stroke="rgb(0,0,139)" stroke-width="1.0627" stroke-linejoin="round" >
<path d="M177.0632 228.7895 L254.4433 247.3668 L195.6405 151.4093z" fill="rgb(255,215,0)"/>
</g>
<g stroke="rgb(0,0,139)" stroke-width="1.0627" stroke-linejoin="round" >
<path d="M177.0632 228.7895 L250.5845 198.3359 L146.6096 155.2681z" fill="rgb(255,215,0)"/>
</g>
<g stroke="rgb(0,0,139)" stroke-width="1.0627" stroke-linejoin="round" >
<path d="M138.2391 211.9082 L183.5674 201.0259 L207.9243 161.279 L197.042 115.9507 L192.7325 117.1141 L188.495 118.5173 L184.3428 120.1558 L180.289 122.0246 L176.3464 124.1178
 L172.5274 126.4287 L168.844 128.9502 L165.3077 131.6742 L161.9297 134.5922 L158.7207 137.695 L155.6907 140.9728 L152.8492 144.4154
 L150.2053 148.0119 L147.7671 151.751 L145.5424 155.6209 L143.5383 159.6095 L141.7609 163.7042 L140.2159 167.892 L138.9082 172.16
 L137.8418 176.4945 L137.0201 180.882 L136.4458 185.3087 L136.1205 189.7606 L136.0454 194.2237 L136.2206 198.6841 L136.6457 203.1276
 L137.3192 207.5403 L138.2391 211.9082z" fill="rgb(255,215,0)"/>
</g>
<g stroke="rgb(0,0,139)" stroke-width="1.0627" stroke-linejoin="round" >
<path d="M211.7911 235.7819 L184.3907 273.4953 L191.6831 319.5376 L229.3965 346.938 L231.9179 343.2545 L234.2289 339.4355 L236.322 335.4929 L238.1908 331.4392 L239.8294 327.287
 L241.2326 323.0495 L242.3959 318.74 L243.3158 314.372 L243.9894 309.9593 L244.4145 305.5158 L244.5897 301.0555 L244.5146 296.5923
 L244.1893 292.1404 L243.615 287.7137 L242.7933 283.3262 L241.7269 278.9917 L240.4192 274.7238 L238.8742 270.5359 L237.0968 266.4412
 L235.0926 262.4527 L232.868 258.5827 L230.4298 254.8437 L227.7859 251.2472 L224.9444 247.8046 L221.9144 244.5267 L218.7053 241.4239
 L215.3274 238.5059 L211.7911 235.7819z" fill="rgb(255,215,0)"/>
</g>
<g stroke="rgb(0,0,139)" stroke-width="1.0627" stroke-linejoin="round" >
<path d="M160.1819 235.7819 L193.1446 235.7819 L160.1819 268.7446 L127.2192 235.7819z" fill="rgb(255,215,0)"/>
</g>
</svg>
