<?xml version="1.0" encoding="utf-8" standalone="no"?>
<!DOCTYPE svg PUBLIC "-//W3C//DTD SVG 1.1//EN" "http://www.w3.org/TR/2001/REC-SVG-20010904/DTD/svg11.dtd">
<svg width="10cm" height="10cm" viewBox="0 0 378 378" overflow="hidden"
 version="1.1" xmlns="http://www.w3.org/2000/svg"  xmlns:xlink="http://www.w3.org/1999/xlink">
<!--fond  (Utilisateur) -->
<g  stroke-linejoin="round" >
<polygon fill="rgb(0,0,139)" points="0,0,0,378,378,378,378,0"/>
</g>
<!--tangram  (Utilisateur) -->
<g stroke="rgb(0,0,139)" stroke-width="1.0627" stroke-linejoin="round" >
<path d="M212.0739 181.8419 L257.4021 170.9596 L256.4086 167.4367 L255.1417 164.0026 L253.6093 160.6786 L251.8208 157.485 L249.7872 154.4416
 L247.5212 151.5671 L245.0366 148.8792 L242.3487 146.3946 L239.4742 144.1286 L236.4308 142.095z" fill="rgb(255,215,0)"/>
</g>
<g stroke="rgb(0,0,139)" stroke-width="1.0627" stroke-linejoin="round" >
<path d="M212.0739 103.0628 L170.5385 81.8994 L169.0061 85.2235 L167.7392 88.6576 L166.7456 92.1804 L166.0315 95.7704 L165.6013 99.4053
 L165.4576 103.0628 L165.6013 106.7202 L166.0315 110.3552 L166.7456 113.9451 L167.7392 117.468z" fill="rgb(255,215,0)"/>
</g>
<g stroke="rgb(0,0,139)" stroke-width="1.0627" stroke-linejoin="round" >
<path d="M235.1478 158.768 L252.7531 47.612 L249.4146 50.105 L246.1425 52.6845 L242.939 55.3488 L239.8064 58.0961 L236.7467 60.9244
 L233.7622 63.8318 L230.8547 66.8164 L228.0264 69.876 L225.2792 73.0086 L222.6149 76.2121 L220.0354 79.4842 L217.5424 82.8228
 L215.1376 86.2254 L212.8228 89.6898 L210.5994 93.2137 L208.469 96.7945 L206.4331 100.4298 L204.4931 104.1173 L202.6502 107.8542
 L200.9058 111.6381 L199.2611 115.4663 L197.7171 119.3363 L196.275 123.2454 L194.9357 127.1909 L193.7001 131.1701 L192.5691 135.1803
 L191.5435 139.2188 L190.6239 143.2826 L189.811 147.3692 L189.1054 151.4756z" fill="rgb(255,215,0)"/>
</g>
<g stroke="rgb(0,0,139)" stroke-width="1.0627" stroke-linejoin="round" >
<path d="M189 204.9158 L197.8299 92.7211 L194.6973 95.4683 L191.6376 98.2966 L188.6531 101.2041 L185.7456 104.1886 L182.9173 107.2483
 L180.1701 110.3809 L177.5058 113.5844 L174.9263 116.8565 L172.4333 120.195 L170.0285 123.5977 L167.7137 127.0621 L165.4903 130.5859
 L163.3599 134.1668 L161.324 137.8021 L159.384 141.4895 L157.5411 145.2265 L155.7967 149.0104 L154.152 152.8386 L152.608 156.7086
 L151.1659 160.6177 L149.8265 164.5632 L148.591 168.5424 L147.46 172.5526 L146.4343 176.591 L145.5148 180.6549 L144.7019 184.7415
 L143.9963 188.8479 L143.3984 192.9714 L142.9087 197.1092 L142.5274 201.2583z" fill="rgb(255,215,0)"/>
</g>
<g stroke="rgb(0,0,139)" stroke-width="1.0627" stroke-linejoin="round" >
<path d="M218.8321 166.326 L286.6843 124.7461 L177.2522 98.4738z" fill="rgb(255,215,0)"/>
</g>
<g stroke="rgb(0,0,139)" stroke-width="1.0627" stroke-linejoin="round" >
<path d="M189 261.4209 L219.4535 334.9422 L262.5214 230.9673z" fill="rgb(255,215,0)"/>
</g>
<g stroke="rgb(0,0,139)" stroke-width="1.0627" stroke-linejoin="round" >
<path d="M220.8316 205.7156 L193.4312 168.0022 L147.3889 160.7099 L109.6755 188.1102 L112.3995 191.6465 L115.3175 195.0244 L118.4203 198.2335 L121.6982 201.2635 L125.1408 204.105
 L128.7373 206.7489 L132.4764 209.1871 L136.3463 211.4117 L140.3348 213.4159 L144.4295 215.1933 L148.6174 216.7383 L152.8853 218.046
 L157.2198 219.1124 L161.6074 219.9341 L166.034 220.5084 L170.486 220.8337 L174.9491 220.9088 L179.4094 220.7336 L183.8529 220.3085
 L188.2656 219.635 L192.6336 218.7151 L196.9431 217.5517 L201.1806 216.1485 L205.3328 214.5099 L209.3865 212.6411 L213.3291 210.548
 L217.1481 208.237 L220.8316 205.7156z" fill="rgb(255,215,0)"/>
</g>
<g stroke="rgb(0,0,139)" stroke-width="1.0627" stroke-linejoin="round" >
<path d="M157.1684 205.7156 L160.8259 252.1882 L196.2732 282.463 L242.7457 278.8055 L242.2709 274.3671 L241.5478 269.9622 L240.579 265.6049 L239.3673 261.3087 L237.9167 257.0872
 L236.2316 252.9537 L234.3175 248.9211 L232.1802 245.0023 L229.8266 241.2094 L227.264 237.5545 L224.5005 234.049 L221.5448 230.704
 L218.4062 227.53 L215.0945 224.5369 L211.6202 221.7343 L207.9943 219.1308 L204.2281 216.7348 L200.3335 214.5537 L196.3227 212.5944
 L192.2083 210.8631 L188.0034 209.3652 L183.721 208.1054 L179.3748 207.0877 L174.9784 206.3153 L170.5455 205.7906 L166.0902 205.5154
 L161.6265 205.4903 L157.1684 205.7156z" fill="rgb(255,215,0)"/>
</g>
<g stroke="rgb(0,0,139)" stroke-width="1.0627" stroke-linejoin="round" >
<path d="M133.2947 228.7895 L166.2574 228.7895 L133.2947 195.8268 L100.3321 228.7895z" fill="rgb(255,215,0)"/>
</g>
</svg>
