<?xml version="1.0" encoding="utf-8" standalone="no"?>
<!DOCTYPE svg PUBLIC "-//W3C//DTD SVG 1.1//EN" "http://www.w3.org/TR/2001/REC-SVG-20010904/DTD/svg11.dtd">
<svg width="10cm" height="10cm" viewBox="0 0 378 378" overflow="hidden"
 version="1.1" xmlns="http://www.w3.org/2000/svg"  xmlns:xlink="http://www.w3.org/1999/xlink">
<!--fond  (Utilisateur) -->
<g  stroke-linejoin="round" >
<polygon fill="rgb(0,0,139)" points="0,0,0,378,378,378,378,0"/>
</g>
<!--tangram  (Utilisateur) -->
<g stroke="rgb(0,0,139)" stroke-width="1.0627" stroke-linejoin="round" >
<path d="M160.1577 238.7368 L134.259 199.9768 L131.2978 202.1283 L128.5145 204.5055 L125.9263 207.0937 L123.5491 209.877 L121.3976 212.8382
 L119.4851 215.9591 L117.8234 219.2205 L116.4227 222.6022 L115.2916 226.0833 L114.4371 229.6425z" fill="rgb(255,215,0)"/>
</g>
<g stroke="rgb(0,0,139)" stroke-width="1.0627" stroke-linejoin="round" >
<path d="M171.8117 260.0455 L162.7173 305.766 L166.3326 306.3386 L169.9816 306.6258 L173.6419 306.6258 L177.2909 306.3386 L180.9061 305.766
 L184.4653 304.9115 L187.9464 303.7804 L191.3281 302.3797 L194.5894 300.718 L197.7103 298.8055z" fill="rgb(255,215,0)"/>
</g>
<g stroke="rgb(0,0,139)" stroke-width="1.0627" stroke-linejoin="round" >
<path d="M216.4285 218.8421 L216.4285 106.3005 L219.3359 109.285 L222.1642 112.3447 L224.9115 115.4773 L227.5758 118.6808 L230.1553 121.9529
 L232.6483 125.2914 L235.053 128.6941 L237.3679 132.1585 L239.5913 135.6823 L241.7216 139.2632 L243.7575 142.8985 L245.6976 146.5859
 L247.5404 150.3229 L249.2848 154.1068 L250.9296 157.935 L252.4735 161.805 L253.9157 165.7141 L255.255 169.6596 L256.4906 173.6388
 L257.6216 177.649 L258.6472 181.6874 L259.5668 185.7513 L260.3796 189.8379 L261.0852 193.9443 L261.6831 198.0678 L262.1729 202.2056
 L262.5541 206.3547 L262.8266 210.5124 L262.9902 214.6758 L263.0447 218.8421z" fill="rgb(255,215,0)"/>
</g>
<g stroke="rgb(0,0,139)" stroke-width="1.0627" stroke-linejoin="round" >
<path d="M173.2256 227.0828 L62.8464 205.127 L65.2064 208.5608 L67.6555 211.9317 L70.192 215.2373 L72.8141 218.4754 L75.5201 221.6437
 L78.3082 224.7401 L81.1763 227.7625 L84.1225 230.7087 L87.1449 233.5768 L90.2413 236.3648 L93.4096 239.0709 L96.6477 241.693
 L99.9533 244.2295 L103.3242 246.6786 L106.758 249.0386 L110.2524 251.3079 L113.805 253.4849 L117.4135 255.5682 L121.0752 257.5564
 L124.7876 259.448 L128.5484 261.2418 L132.3548 262.9365 L136.2042 264.531 L140.0941 266.0242 L144.0218 267.415 L147.9844 268.7026
 L151.9795 269.886 L156.0041 270.9644 L160.0556 271.937 L164.1312 272.8033z" fill="rgb(255,215,0)"/>
</g>
<g stroke="rgb(0,0,139)" stroke-width="1.0627" stroke-linejoin="round" >
<path d="M125.1955 227.0828 L204.7744 227.0828 L125.1955 306.6617z" fill="rgb(255,215,0)"/>
</g>
<g stroke="rgb(0,0,139)" stroke-width="1.0627" stroke-linejoin="round" >
<path d="M253.8043 232.9098 L319.9718 188.6981 L209.5926 166.7423z" fill="rgb(255,215,0)"/>
</g>
<g stroke="rgb(0,0,139)" stroke-width="1.0627" stroke-linejoin="round" >
<path d="M203.3605 192.1206 L242.1205 166.222 L251.2149 120.5014 L225.3163 81.7414 L221.6758 84.3245 L218.1859 87.1076 L214.8575 90.082 L211.7011 93.2384 L208.7267 96.5668
 L205.9436 100.0567 L203.3605 103.6972 L200.9857 107.4768 L198.8264 111.3836 L196.8897 115.4053 L195.1815 119.5293 L193.7072 123.7426
 L192.4714 128.0319 L191.4781 132.3838 L190.7304 136.7845 L190.2306 141.2202 L189.9804 145.677 L189.9804 150.1408 L190.2306 154.5975
 L190.7304 159.0332 L191.4781 163.434 L192.4714 167.7858 L193.7072 172.0752 L195.1815 176.2884 L196.8897 180.4124 L198.8264 184.4342
 L200.9857 188.341 L203.3605 192.1206z" fill="rgb(255,215,0)"/>
</g>
<g stroke="rgb(0,0,139)" stroke-width="1.0627" stroke-linejoin="round" >
<path d="M267.872 227.0828 L222.1515 217.9884 L183.3914 243.887 L174.2971 289.6076 L178.6978 290.3553 L183.1335 290.855 L187.5903 291.1053 L192.054 291.1053 L196.5108 290.855
 L200.9465 290.3553 L205.3472 289.6076 L209.6991 288.6143 L213.9884 287.3785 L218.2017 285.9042 L222.3257 284.196 L226.3474 282.2593
 L230.2543 280.1 L234.0338 277.7252 L237.6743 275.1421 L241.1643 272.359 L244.4926 269.3846 L247.649 266.2282 L250.6234 262.8998
 L253.4066 259.4099 L255.9896 255.7694 L258.3645 251.9898 L260.5237 248.083 L262.4605 244.0613 L264.1687 239.9373 L265.643 235.724
 L266.8787 231.4346 L267.872 227.0828z" fill="rgb(255,215,0)"/>
</g>
<g stroke="rgb(0,0,139)" stroke-width="1.0627" stroke-linejoin="round" >
<path d="M253.8043 93.6467 L281.2118 75.3336 L235.4912 66.2392 L226.3968 111.9597z" fill="rgb(255,215,0)"/>
</g>
</svg>
