<?xml version="1.0" encoding="utf-8" standalone="no"?>
<!DOCTYPE svg PUBLIC "-//W3C//DTD SVG 1.1//EN" "http://www.w3.org/TR/2001/REC-SVG-20010904/DTD/svg11.dtd">
<svg width="10cm" height="10cm" viewBox="0 0 378 378" overflow="hidden"
 version="1.1" xmlns="http://www.w3.org/2000/svg"  xmlns:xlink="http://www.w3.org/1999/xlink">
<!--tangram  (Utilisateur) -->
<g stroke="rgb(0,0,139)" stroke-width="1.0627" stroke-linejoin="round" >
<path d="M176.946 177.1803 L209.9087 144.2176 L207.2209 141.733 L204.3464 139.4669 L201.303 137.4334 L198.1094 135.6449 L194.7853 134.1125
 L191.3512 132.8456 L187.8284 131.852 L184.2384 131.1379 L180.6035 130.7077 L176.946 130.564z" fill="rgb(255,215,0)"/>
</g>
<g stroke="rgb(0,0,139)" stroke-width="1.0627" stroke-linejoin="round" >
<path d="M195.5925 158.5338 L222.9929 120.8204 L219.9495 118.7869 L216.7559 116.9984 L213.4318 115.466 L209.9978 114.1991 L206.4749 113.2055
 L202.8849 112.4914 L199.25 112.0612 L195.5925 111.9175 L191.9351 112.0612 L188.3001 112.4914z" fill="rgb(255,215,0)"/>
</g>
<g stroke="rgb(0,0,139)" stroke-width="1.0627" stroke-linejoin="round" >
<path d="M195.5925 158.5338 L246.6854 258.8091 L247.9209 254.8299 L249.0519 250.8197 L250.0776 246.7813 L250.9971 242.7174 L251.81 238.6308
 L252.5156 234.5244 L253.1135 230.4009 L253.6032 226.2631 L253.9845 222.114 L254.257 217.9563 L254.4206 213.7929 L254.4751 209.6266
 L254.4206 205.4603 L254.257 201.2969 L253.9845 197.1392 L253.6032 192.9901 L253.1135 188.8523 L252.5156 184.7288 L251.81 180.6224
 L250.9971 176.5358 L250.0776 172.4719 L249.0519 168.4335 L247.9209 164.4233 L246.6854 160.4441 L245.346 156.4986 L243.9039 152.5895
 L242.3599 148.7195 L240.7152 144.8913 L238.9708 141.1074 L237.1279 137.3704z" fill="rgb(255,215,0)"/>
</g>
<g stroke="rgb(0,0,139)" stroke-width="1.0627" stroke-linejoin="round" >
<path d="M208.7776 145.3487 L226.383 256.5048 L228.7877 253.1021 L231.1026 249.6377 L233.326 246.1139 L235.4563 242.533 L237.4922 238.8977
 L239.4323 235.2103 L241.2751 231.4733 L243.0195 227.6894 L244.6643 223.8612 L246.2083 219.9912 L247.6504 216.0821 L248.9897 212.1366
 L250.2253 208.1574 L251.3563 204.1472 L252.3819 200.1088 L253.3015 196.0449 L254.1143 191.9583 L254.82 187.8519 L255.4178 183.7284
 L255.9076 179.5906 L256.2888 175.4415 L256.5613 171.2838 L256.7249 167.1204 L256.7794 162.9541 L256.7249 158.7878 L256.5613 154.6244
 L256.2888 150.4667 L255.9076 146.3176 L255.4178 142.1798 L254.82 138.0563z" fill="rgb(255,215,0)"/>
</g>
<g stroke="rgb(0,0,139)" stroke-width="1.0627" stroke-linejoin="round" >
<path d="M173.0842 228.7895 L248.7683 253.3807 L197.6755 153.1054z" fill="rgb(255,215,0)"/>
</g>
<g stroke="rgb(0,0,139)" stroke-width="1.0627" stroke-linejoin="round" >
<path d="M173.0842 228.7895 L252.6632 228.7895 L173.0842 149.2105z" fill="rgb(255,215,0)"/>
</g>
<g stroke="rgb(0,0,139)" stroke-width="1.0627" stroke-linejoin="round" >
<path d="M147.8452 206.2811 L192.1799 191.8759 L213.3432 150.3405 L198.938 106.0058 L194.733 107.5037 L190.6187 109.2351 L186.6079 111.1944 L182.7133 113.3754 L178.947 115.7715
 L175.3211 118.3749 L171.8469 121.1776 L168.5352 124.1706 L165.3966 127.3447 L162.4409 130.6897 L159.6774 134.1952 L157.1148 137.8501
 L154.7611 141.643 L152.6239 145.5618 L150.7097 149.5943 L149.0247 153.7279 L147.574 157.9494 L146.3624 162.2455 L145.3935 166.6029
 L144.6705 171.0078 L144.1956 175.4462 L143.9703 179.9043 L143.9954 184.368 L144.2707 188.8233 L144.7953 193.2561 L145.5677 197.6526
 L146.5854 201.9988 L147.8452 206.2811z" fill="rgb(255,215,0)"/>
</g>
<g stroke="rgb(0,0,139)" stroke-width="1.0627" stroke-linejoin="round" >
<path d="M192.8618 238.1127 L178.4566 282.4474 L199.6199 323.9828 L243.9546 338.3881 L245.2144 334.1057 L246.2321 329.7595 L247.0045 325.363 L247.5292 320.9302 L247.8044 316.4749
 L247.8295 312.0112 L247.6042 307.5531 L247.1293 303.1147 L246.4063 298.7098 L245.4374 294.3525 L244.2258 290.0563 L242.7752 285.8348
 L241.0901 281.7012 L239.1759 277.6687 L237.0387 273.7499 L234.685 269.957 L232.1224 266.3021 L229.3589 262.7966 L226.4032 259.4516
 L223.2646 256.2775 L219.953 253.2845 L216.4787 250.4818 L212.8528 247.8784 L209.0866 245.4824 L205.1919 243.3013 L201.1811 241.342
 L197.0668 239.6106 L192.8618 238.1127z" fill="rgb(255,215,0)"/>
</g>
<g stroke="rgb(0,0,139)" stroke-width="1.0627" stroke-linejoin="round" >
<path d="M150.5759 238.1127 L183.5386 238.1127 L150.5759 271.0754 L117.6132 238.1127z" fill="rgb(255,215,0)"/>
</g>
</svg>
