<?xml version="1.0" encoding="utf-8" standalone="no"?>
<!DOCTYPE svg PUBLIC "-//W3C//DTD SVG 1.1//EN" "http://www.w3.org/TR/2001/REC-SVG-20010904/DTD/svg11.dtd">
<svg width="10cm" height="10cm" viewBox="0 0 378 378" overflow="hidden"
 version="1.1" xmlns="http://www.w3.org/2000/svg"  xmlns:xlink="http://www.w3.org/1999/xlink">
<!--fond  (Utilisateur) -->
<g  stroke-linejoin="round" >
<polygon fill="rgb(0,0,139)" points="0,0,0,378,378,378,378,0"/>
</g>
<!--tangram  (Utilisateur) -->
<g stroke="rgb(0,0,139)" stroke-width="1.0627" stroke-linejoin="round" >
<path d="M248.3964 119.8612 L216.7533 85.6298 L214.165 88.218 L211.7879 91.0013 L209.6364 93.9626 L207.7239 97.0835 L206.0622 100.3448
 L204.6614 103.7265 L203.5303 107.2077 L202.6759 110.7668 L202.1033 114.382 L201.8161 118.0311z" fill="rgb(255,215,0)"/>
</g>
<g stroke="rgb(0,0,139)" stroke-width="1.0627" stroke-linejoin="round" >
<path d="M138.6683 126.1367 L140.4985 172.717 L144.1475 172.4298 L147.7627 171.8572 L151.3219 171.0027 L154.803 169.8716 L158.1847 168.4709
 L161.446 166.8092 L164.5669 164.8967 L167.5282 162.7452 L170.3115 160.368 L172.8997 157.7798z" fill="rgb(255,215,0)"/>
</g>
<g stroke="rgb(0,0,139)" stroke-width="1.0627" stroke-linejoin="round" >
<path d="M150.2053 207.3637 L258.5215 176.8154 L254.8598 174.8272 L251.1473 172.9356 L247.3866 171.1419 L243.5802 169.4471 L239.7308 167.8526
 L235.8409 166.3595 L231.9132 164.9686 L227.9505 163.681 L223.9555 162.4977 L219.9309 161.4193 L215.8794 160.4466 L211.8038 159.5803
 L207.7069 158.821 L203.5916 158.1692 L199.4606 157.6253 L195.3168 157.1898 L191.163 156.8629 L187.0021 156.6448 L182.8369 156.5358
 L178.6703 156.5358 L174.5051 156.6448 L170.3442 156.8629 L166.1904 157.1898 L162.0466 157.6253 L157.9156 158.1692 L153.8003 158.821
 L149.7034 159.5803 L145.6279 160.4466 L141.5764 161.4193 L137.5517 162.4977z" fill="rgb(255,215,0)"/>
</g>
<g stroke="rgb(0,0,139)" stroke-width="1.0627" stroke-linejoin="round" >
<path d="M86.942 217.2525 L141.9322 119.0604 L137.9372 120.2438 L133.9745 121.5314 L130.0469 122.9222 L126.157 124.4154 L122.3075 126.0099
 L118.5011 127.7046 L114.7404 129.4984 L111.0279 131.39 L107.3662 133.3781 L103.7578 135.4615 L100.2052 137.6385 L96.7107 139.9078
 L93.2769 142.2678 L89.906 144.7169 L86.6004 147.2534 L83.3624 149.8755 L80.194 152.5815 L77.0976 155.3695 L74.0753 158.2377
 L71.129 161.1839 L68.2609 164.2063 L65.4729 167.3027 L62.7669 170.471 L60.1447 173.7091 L57.6083 177.0147 L55.1592 180.3856
 L52.7992 183.8194 L50.5299 187.3138 L48.3528 190.8664 L46.2695 194.4748z" fill="rgb(255,215,0)"/>
</g>
<g stroke="rgb(0,0,139)" stroke-width="1.0627" stroke-linejoin="round" >
<path d="M299.3229 159.2508 L343.5346 225.4182 L365.4904 115.0391z" fill="rgb(255,215,0)"/>
</g>
<g stroke="rgb(0,0,139)" stroke-width="1.0627" stroke-linejoin="round" >
<path d="M201.9316 275.4057 L145.6608 331.6766 L258.2024 331.6766z" fill="rgb(255,215,0)"/>
</g>
<g stroke="rgb(0,0,139)" stroke-width="1.0627" stroke-linejoin="round" >
<path d="M174.0789 247.5531 L198.4359 207.8062 L187.5535 162.478 L147.8066 138.121 L145.582 141.9909 L143.5778 145.9795 L141.8004 150.0742 L140.2554 154.262 L138.9477 158.53
 L137.8813 162.8645 L137.0596 167.252 L136.4853 171.6787 L136.16 176.1306 L136.0849 180.5938 L136.2601 185.0541 L136.6852 189.4976
 L137.3588 193.9103 L138.2787 198.2782 L139.442 202.5878 L140.8452 206.8253 L142.4838 210.9774 L144.3526 215.0312 L146.4457 218.9738
 L148.7567 222.7928 L151.2781 226.4762 L154.0021 230.0125 L156.9201 233.3905 L160.0229 236.5995 L163.3008 239.6295 L166.7434 242.471
 L170.3399 245.115 L174.0789 247.5531z" fill="rgb(255,215,0)"/>
</g>
<g stroke="rgb(0,0,139)" stroke-width="1.0627" stroke-linejoin="round" >
<path d="M281.5105 195.8268 L308.9109 158.1134 L301.6185 112.0711 L263.9051 84.6707 L261.3837 88.3542 L259.0728 92.1732 L256.9796 96.1158 L255.1108 100.1696 L253.4722 104.3217
 L252.0691 108.5592 L250.9057 112.8687 L249.9858 117.2367 L249.3122 121.6494 L248.8872 126.0929 L248.7119 130.5532 L248.787 135.0164
 L249.1123 139.4683 L249.6867 143.895 L250.5083 148.2825 L251.5747 152.617 L252.8825 156.8849 L254.4274 161.0728 L256.2048 165.1675
 L258.209 169.156 L260.4337 173.026 L262.8718 176.7651 L265.5158 180.3616 L268.3572 183.8041 L271.3872 187.082 L274.5963 190.1848
 L277.9743 193.1028 L281.5105 195.8268z" fill="rgb(255,215,0)"/>
</g>
<g stroke="rgb(0,0,139)" stroke-width="1.0627" stroke-linejoin="round" >
<path d="M198.5525 164.5951 L230.2776 173.5425 L207.4999 132.87 L166.8274 155.6477z" fill="rgb(255,215,0)"/>
</g>
</svg>
