<?xml version="1.0" encoding="utf-8" standalone="no"?>
<!DOCTYPE svg PUBLIC "-//W3C//DTD SVG 1.1//EN" "http://www.w3.org/TR/2001/REC-SVG-20010904/DTD/svg11.dtd">
<svg width="10cm" height="10cm" viewBox="0 0 378 378" overflow="hidden"
 version="1.1" xmlns="http://www.w3.org/2000/svg"  xmlns:xlink="http://www.w3.org/1999/xlink">
<!--fond  (Utilisateur) -->
<g  stroke-linejoin="round" >
<polygon fill="rgb(0,0,139)" points="0,0,0,378,378,378,378,0"/>
</g>
<!--tangram  (Utilisateur) -->
<g stroke="rgb(0,0,139)" stroke-width="1.0627" stroke-linejoin="round" >
<path d="M255.501 122.6747 L220.0537 92.3999 L217.7876 95.2744 L215.7541 98.3178 L213.9656 101.5114 L212.4331 104.8355 L211.1663 108.2695
 L210.1727 111.7924 L209.4586 115.3823 L209.0284 119.0173 L208.8847 122.6747 L209.0284 126.3322z" fill="rgb(255,215,0)"/>
</g>
<g stroke="rgb(0,0,139)" stroke-width="1.0627" stroke-linejoin="round" >
<path d="M137.3322 129.4329 L133.6748 175.9055 L137.3322 176.0492 L140.9897 175.9055 L144.6246 175.4753 L148.2146 174.7612 L151.7375 173.7676
 L155.1715 172.5007 L158.4956 170.9683 L161.6892 169.1798 L164.7326 167.1463 L167.6071 164.8802z" fill="rgb(255,215,0)"/>
</g>
<g stroke="rgb(0,0,139)" stroke-width="1.0627" stroke-linejoin="round" >
<path d="M147.2211 205.7156 L256.6531 179.4433 L253.0723 177.3129 L249.437 175.277 L245.7495 173.337 L242.0126 171.4941 L238.2287 169.7497
 L234.4005 168.105 L230.5305 166.561 L226.6214 165.1189 L222.6759 163.7795 L218.6967 162.544 L214.6865 161.413 L210.648 160.3873
 L206.5842 159.4678 L202.4976 158.6549 L198.3912 157.9493 L194.2676 157.3514 L190.1299 156.8617 L185.9808 156.4804 L181.8231 156.2079
 L177.6596 156.0443 L173.4934 155.9898 L169.3271 156.0443 L165.1637 156.2079 L161.006 156.4804 L156.8568 156.8617 L152.7191 157.3514
 L148.5956 157.9493 L144.4892 158.6549 L140.4026 159.4678 L136.3387 160.3873z" fill="rgb(255,215,0)"/>
</g>
<g stroke="rgb(0,0,139)" stroke-width="1.0627" stroke-linejoin="round" >
<path d="M81.627 218.9007 L140.4298 122.9432 L136.3914 123.9688 L132.3812 125.0998 L128.402 126.3354 L124.4565 127.6747 L120.5474 129.1168
 L116.6774 130.6608 L112.8491 132.3055 L109.0653 134.0499 L105.3283 135.8928 L101.6409 137.8328 L98.0055 139.8687 L94.4247 141.9991
 L90.9009 144.2225 L87.4365 146.5373 L84.0338 148.9421 L80.6953 151.4351 L77.4232 154.0146 L74.2197 156.6789 L71.0871 159.4261
 L68.0274 162.2545 L65.0429 165.1619 L62.1354 168.1464 L59.3071 171.2061 L56.5599 174.3387 L53.8956 177.5422 L51.316 180.8143
 L48.8231 184.1528 L46.4183 187.5555 L44.1035 191.0199 L41.8801 194.5437z" fill="rgb(255,215,0)"/>
</g>
<g stroke="rgb(0,0,139)" stroke-width="1.0627" stroke-linejoin="round" >
<path d="M299.1522 156.4372 L329.6058 229.9586 L372.6736 125.9837z" fill="rgb(255,215,0)"/>
</g>
<g stroke="rgb(0,0,139)" stroke-width="1.0627" stroke-linejoin="round" >
<path d="M202.9263 275.4057 L146.6555 331.6766 L259.1971 331.6766z" fill="rgb(255,215,0)"/>
</g>
<g stroke="rgb(0,0,139)" stroke-width="1.0627" stroke-linejoin="round" >
<path d="M179.0526 251.5321 L200.216 209.9967 L185.8108 165.662 L144.2754 144.4986 L142.3612 148.5311 L140.6761 152.6647 L139.2255 156.8862 L138.0138 161.1823 L137.045 165.5397
 L136.322 169.9446 L135.8471 174.383 L135.6218 178.8411 L135.6468 183.3048 L135.9221 187.7601 L136.4468 192.1929 L137.2192 196.5894
 L138.2369 200.9356 L139.4966 205.2179 L140.9945 209.4229 L142.7259 213.5372 L144.6852 217.548 L146.8663 221.4427 L149.2623 225.2089
 L151.8658 228.8348 L154.6684 232.3091 L157.6615 235.6207 L160.8355 238.7593 L164.1805 241.7151 L167.686 244.4786 L171.3409 247.0412
 L175.1338 249.3948 L179.0526 251.5321z" fill="rgb(255,215,0)"/>
</g>
<g stroke="rgb(0,0,139)" stroke-width="1.0627" stroke-linejoin="round" >
<path d="M282.5053 195.8268 L296.9105 151.4921 L275.7471 109.9567 L231.4124 95.5515 L230.1527 99.8338 L229.135 104.18 L228.3626 108.5765 L227.8379 113.0093 L227.5626 117.4646
 L227.5376 121.9283 L227.7629 126.3864 L228.2378 130.8249 L228.9608 135.2297 L229.9296 139.5871 L231.1413 143.8833 L232.5919 148.1048
 L234.277 152.2383 L236.1911 156.2708 L238.3284 160.1897 L240.682 163.9825 L243.2446 167.6374 L246.0081 171.1429 L248.9639 174.4879
 L252.1025 177.662 L255.4141 180.655 L258.8884 183.4577 L262.5143 186.0611 L266.2805 188.4572 L270.1752 190.6383 L274.186 192.5976
 L278.3003 194.3289 L282.5053 195.8268z" fill="rgb(255,215,0)"/>
</g>
<g stroke="rgb(0,0,139)" stroke-width="1.0627" stroke-linejoin="round" >
<path d="M200.03 169.0567 L232.0819 176.7517 L207.7249 137.0048 L167.978 161.3618z" fill="rgb(255,215,0)"/>
</g>
</svg>
