<?xml version="1.0" encoding="utf-8" standalone="no"?>
<!DOCTYPE svg PUBLIC "-//W3C//DTD SVG 1.1//EN" "http://www.w3.org/TR/2001/REC-SVG-20010904/DTD/svg11.dtd">
<svg width="10cm" height="10cm" viewBox="0 0 378 378" overflow="hidden"
 version="1.1" xmlns="http://www.w3.org/2000/svg"  xmlns:xlink="http://www.w3.org/1999/xlink">
<!--tangram  (Utilisateur) -->
<g stroke="rgb(0,0,139)" stroke-width="1.0627" stroke-linejoin="round" >
<path d="M282.8951 150.8101 L245.1818 123.4098 L243.1482 126.4532 L241.3597 129.6468 L239.8273 132.9709 L238.5604 136.4049 L237.5669 139.9278
 L236.8528 143.5178 L236.4226 147.1527 L236.2789 150.8101 L236.4226 154.4676 L236.8528 158.1025z" fill="rgb(255,215,0)"/>
</g>
<g stroke="rgb(0,0,139)" stroke-width="1.0627" stroke-linejoin="round" >
<path d="M147.8452 136.0255 L162.2504 180.3602 L165.6844 179.0933 L169.0085 177.5609 L172.2021 175.7724 L175.2455 173.7388 L178.12 171.4727
 L180.8078 168.9881 L183.2925 166.3003 L185.5585 163.4258 L187.5921 160.3824 L189.3806 157.1888z" fill="rgb(255,215,0)"/>
</g>
<g stroke="rgb(0,0,139)" stroke-width="1.0627" stroke-linejoin="round" >
<path d="M154.4377 189.2343 L254.713 138.1414 L250.7338 136.9059 L246.7236 135.7749 L242.6852 134.7492 L238.6213 133.8297 L234.5348 133.0168
 L230.4283 132.3112 L226.3048 131.7133 L222.1671 131.2236 L218.0179 130.8423 L213.8602 130.5698 L209.6968 130.4062 L205.5305 130.3517
 L201.3643 130.4062 L197.2009 130.5698 L193.0431 130.8423 L188.894 131.2236 L184.7563 131.7133 L180.6328 132.3112 L176.5263 133.0168
 L172.4397 133.8297 L168.3759 134.7492 L164.3374 135.7749 L160.3272 136.9059 L156.348 138.1414 L152.4025 139.4807 L148.4934 140.9229
 L144.6234 142.4669 L140.7952 144.1116 L137.0113 145.856 L133.2744 147.6989z" fill="rgb(255,215,0)"/>
</g>
<g stroke="rgb(0,0,139)" stroke-width="1.0627" stroke-linejoin="round" >
<path d="M77.5895 228.7895 L112.3667 121.756 L108.6793 123.6961 L105.044 125.732 L101.4631 127.8623 L97.9393 130.0857 L94.4749 132.4006
 L91.0723 134.8053 L87.7337 137.2983 L84.4616 139.8778 L81.2581 142.5421 L78.1255 145.2894 L75.0659 148.1177 L72.0813 151.0251
 L69.1739 154.0097 L66.3456 157.0693 L63.5983 160.202 L60.934 163.4054 L58.3545 166.6776 L55.8615 170.0161 L53.4567 173.4187
 L51.1419 176.8831 L48.9185 180.407 L46.7881 183.9878 L44.7522 187.6232 L42.8122 191.3106 L40.9693 195.0475 L39.2249 198.8314
 L37.5802 202.6597 L36.0362 206.5297 L34.5941 210.4388 L33.2548 214.3843z" fill="rgb(255,215,0)"/>
</g>
<g stroke="rgb(0,0,139)" stroke-width="1.0627" stroke-linejoin="round" >
<path d="M284.826 139.556 L272.3771 218.1552 L363.4252 152.0049z" fill="rgb(255,215,0)"/>
</g>
<g stroke="rgb(0,0,139)" stroke-width="1.0627" stroke-linejoin="round" >
<path d="M204.9158 275.4057 L148.645 331.6766 L261.1866 331.6766z" fill="rgb(255,215,0)"/>
</g>
<g stroke="rgb(0,0,139)" stroke-width="1.0627" stroke-linejoin="round" >
<path d="M220.8316 259.49 L206.4264 215.1552 L164.891 193.9919 L120.5563 208.3971 L122.0542 212.6021 L123.7855 216.7164 L125.7448 220.7272 L127.9259 224.6219 L130.3219 228.3881
 L132.9254 232.014 L135.728 235.4883 L138.7211 238.7999 L141.8951 241.9385 L145.2401 244.8942 L148.7456 247.6577 L152.4005 250.2203
 L156.1934 252.574 L160.1122 254.7112 L164.1448 256.6254 L168.2783 258.3105 L172.4998 259.7611 L176.796 260.9727 L181.1534 261.9416
 L185.5582 262.6646 L189.9966 263.1395 L194.4547 263.3648 L198.9184 263.3397 L203.3737 263.0645 L207.8066 262.5398 L212.203 261.7674
 L216.5493 260.7497 L220.8316 259.49z" fill="rgb(255,215,0)"/>
</g>
<g stroke="rgb(0,0,139)" stroke-width="1.0627" stroke-linejoin="round" >
<path d="M252.6632 195.8268 L219.7005 162.8641 L173.0842 162.8641 L140.1215 195.8268 L143.3652 198.8934 L146.7757 201.7733 L150.3423 204.4575 L154.0538 206.9374 L157.8985 209.2053
 L161.8643 211.2541 L165.9388 213.0773 L170.1091 214.6692 L174.3621 216.0248 L178.6844 217.1397 L183.0624 218.0106 L187.4823 218.6346
 L191.9303 219.0097 L196.3923 219.1349 L200.8544 219.0097 L205.3024 218.6346 L209.7223 218.0106 L214.1003 217.1397 L218.4226 216.0248
 L222.6756 214.6692 L226.8459 213.0773 L230.9204 211.2541 L234.8862 209.2053 L238.7309 206.9374 L242.4424 204.4575 L246.009 201.7733
 L249.4195 198.8934 L252.6632 195.8268z" fill="rgb(255,215,0)"/>
</g>
<g stroke="rgb(0,0,139)" stroke-width="1.0627" stroke-linejoin="round" >
<path d="M189 202.4193 L221.9627 202.4193 L189 169.4567 L156.0373 202.4193z" fill="rgb(255,215,0)"/>
</g>
</svg>
