<?xml version="1.0" encoding="utf-8" standalone="no"?>
<!DOCTYPE svg PUBLIC "-//W3C//DTD SVG 1.1//EN" "http://www.w3.org/TR/2001/REC-SVG-20010904/DTD/svg11.dtd">
<svg width="10cm" height="10cm" viewBox="0 0 378 378" overflow="hidden"
 version="1.1" xmlns="http://www.w3.org/2000/svg"  xmlns:xlink="http://www.w3.org/1999/xlink">
<!--tangram  (Utilisateur) -->
<g stroke="rgb(0,0,139)" stroke-width="1.0627" stroke-linejoin="round" >
<path d="M188.4344 226.8586 L167.2711 185.3232 L164.0775 187.1117 L161.0341 189.1452 L158.1596 191.4113 L155.4718 193.8959 L152.9872 196.5837
 L150.7211 199.4582 L148.6875 202.5016 L146.8991 205.6952 L145.3666 209.0193 L144.0997 212.4533z" fill="rgb(255,215,0)"/>
</g>
<g stroke="rgb(0,0,139)" stroke-width="1.0627" stroke-linejoin="round" >
<path d="M197.7577 243.9055 L183.3525 288.2402 L186.8754 289.2337 L190.4653 289.9478 L194.1002 290.378 L197.7577 290.5217 L201.4152 290.378
 L205.0501 289.9478 L208.6401 289.2337 L212.1629 288.2402 L215.597 286.9733 L218.921 285.4409z" fill="rgb(255,215,0)"/>
</g>
<g stroke="rgb(0,0,139)" stroke-width="1.0627" stroke-linejoin="round" >
<path d="M197.7577 217.5353 L197.7577 104.9937 L194.8503 107.9782 L192.022 111.0379 L189.2747 114.1705 L186.6104 117.374 L184.0309 120.6461
 L181.5379 123.9846 L179.1331 127.3873 L176.8183 130.8517 L174.5949 134.3755 L172.4646 137.9564 L170.4286 141.5917 L168.4886 145.2791
 L166.6458 149.0161 L164.9014 152.8 L163.2566 156.6282 L161.7126 160.4982 L160.2705 164.4073 L158.9312 168.3528 L157.6956 172.332
 L156.5646 176.3422 L155.539 180.3806 L154.6194 184.4445 L153.8065 188.5311 L153.1009 192.6375 L152.5031 196.761 L152.0133 200.8988
 L151.6321 205.0479 L151.3596 209.2056 L151.196 213.369 L151.1414 217.5353z" fill="rgb(255,215,0)"/>
</g>
<g stroke="rgb(0,0,139)" stroke-width="1.0627" stroke-linejoin="round" >
<path d="M167.0572 210.9428 L76.0091 144.7925 L76.7148 148.8989 L77.5276 152.9855 L78.4472 157.0494 L79.4728 161.0878 L80.6038 165.098
 L81.8394 169.0772 L83.1787 173.0227 L84.6208 176.9318 L86.1648 180.8018 L87.8096 184.63 L89.554 188.4139 L91.3968 192.1509
 L93.3369 195.8383 L95.3728 199.4736 L97.5031 203.0545 L99.7265 206.5783 L102.0413 210.0427 L104.4461 213.4453 L106.9391 216.7839
 L109.5186 220.056 L112.1829 223.2595 L114.9302 226.3921 L117.7585 229.4518 L120.6659 232.4363 L123.6505 235.3437 L126.7101 238.1721
 L129.8427 240.9193 L133.0462 243.5836 L136.3183 246.1631 L139.6569 248.6561z" fill="rgb(255,215,0)"/>
</g>
<g stroke="rgb(0,0,139)" stroke-width="1.0627" stroke-linejoin="round" >
<path d="M149.2105 228.7895 L227.8097 241.2384 L161.6594 150.1903z" fill="rgb(255,215,0)"/>
</g>
<g stroke="rgb(0,0,139)" stroke-width="1.0627" stroke-linejoin="round" >
<path d="M250.1667 228.7895 L306.4375 172.5187 L193.8959 172.5187z" fill="rgb(255,215,0)"/>
</g>
<g stroke="rgb(0,0,139)" stroke-width="1.0627" stroke-linejoin="round" >
<path d="M235.0507 180.2423 L268.0134 147.2796 L268.0134 100.6633 L235.0507 67.7007 L231.9841 70.9443 L229.1042 74.3548 L226.4201 77.9214 L223.9401 81.6329 L221.6722 85.4776
 L219.6234 89.4435 L217.8002 93.5179 L216.2083 97.6882 L214.8527 101.9412 L213.7378 106.2635 L212.867 110.6415 L212.243 115.0615
 L211.8678 119.5095 L211.7426 123.9715 L211.8678 128.4335 L212.243 132.8815 L212.867 137.3015 L213.7378 141.6795 L214.8527 146.0018
 L216.2083 150.2547 L217.8002 154.425 L219.6234 158.4995 L221.6722 162.4653 L223.9401 166.31 L226.4201 170.0215 L229.1042 173.5881
 L231.9841 176.9986 L235.0507 180.2423z" fill="rgb(255,215,0)"/>
</g>
<g stroke="rgb(0,0,139)" stroke-width="1.0627" stroke-linejoin="round" >
<path d="M236.1818 233.4511 L198.4685 206.0507 L152.4261 213.3431 L125.0258 251.0565 L128.7092 253.5779 L132.5282 255.8889 L136.4708 257.982 L140.5246 259.8508 L144.6767 261.4894
 L148.9142 262.8926 L153.2238 264.0559 L157.5917 264.9758 L162.0044 265.6494 L166.4479 266.0745 L170.9082 266.2497 L175.3714 266.1746
 L179.8233 265.8493 L184.25 265.275 L188.6375 264.4533 L192.972 263.3869 L197.24 262.0792 L201.4278 260.5342 L205.5225 258.7568
 L209.5111 256.7526 L213.381 254.528 L217.1201 252.0898 L220.7166 249.4459 L224.1592 246.6044 L227.437 243.5744 L230.5398 240.3653
 L233.4578 236.9874 L236.1818 233.4511z" fill="rgb(255,215,0)"/>
</g>
<g stroke="rgb(0,0,139)" stroke-width="1.0627" stroke-linejoin="round" >
<path d="M238.9125 106.1248 L271.8752 106.1248 L238.9125 139.0875 L205.9499 106.1248z" fill="rgb(255,215,0)"/>
</g>
</svg>
