<?xml version="1.0" encoding="utf-8" standalone="no"?>
<!DOCTYPE svg PUBLIC "-//W3C//DTD SVG 1.1//EN" "http://www.w3.org/TR/2001/REC-SVG-20010904/DTD/svg11.dtd">
<svg width="10cm" height="10cm" viewBox="0 0 378 378" overflow="hidden"
 version="1.1" xmlns="http://www.w3.org/2000/svg"  xmlns:xlink="http://www.w3.org/1999/xlink">
<!--fond  (Utilisateur) -->
<g  stroke-linejoin="round" >
<polygon fill="rgb(0,0,139)" points="0,0,0,378,378,378,378,0"/>
</g>
<!--tangram  (Utilisateur) -->
<g stroke="rgb(0,0,139)" stroke-width="1.0627" stroke-linejoin="round" >
<path d="M184.4798 159.6992 L217.4424 126.7365 L214.7546 124.2519 L211.8801 121.9858 L208.8367 119.9523 L205.6431 118.1638 L202.319 116.6314
 L198.885 115.3645 L195.3621 114.3709 L191.7722 113.6568 L188.1372 113.2266 L184.4798 113.0829z" fill="rgb(255,215,0)"/>
</g>
<g stroke="rgb(0,0,139)" stroke-width="1.0627" stroke-linejoin="round" >
<path d="M191.4722 152.7067 L202.3546 107.3785 L198.7646 106.6644 L195.1297 106.2342 L191.4722 106.0905 L187.8147 106.2342 L184.1798 106.6644
 L180.5898 107.3785 L177.067 108.372 L173.6329 109.6389 L170.3089 111.1713 L167.1153 112.9598z" fill="rgb(255,215,0)"/>
</g>
<g stroke="rgb(0,0,139)" stroke-width="1.0627" stroke-linejoin="round" >
<path d="M191.4722 152.7067 L261.146 241.0876 L261.5816 236.9438 L261.9085 232.79 L262.1265 228.6291 L262.2356 224.4639 L262.2356 220.2973
 L262.1265 216.1321 L261.9085 211.9712 L261.5816 207.8174 L261.146 203.6736 L260.6022 199.5426 L259.9504 195.4273 L259.1911 191.3304
 L258.3248 187.2548 L257.3521 183.2033 L256.2737 179.1787 L255.0903 175.1837 L253.8028 171.221 L252.4119 167.2933 L250.9187 163.4034
 L249.3242 159.554 L247.6295 155.7476 L245.8357 151.9868 L243.9441 148.2744 L241.956 144.6127 L239.8727 141.0043 L237.6956 137.4516
 L235.4263 133.9572 L233.0663 130.5234 L230.6172 127.1525 L228.0807 123.8469z" fill="rgb(255,215,0)"/>
</g>
<g stroke="rgb(0,0,139)" stroke-width="1.0627" stroke-linejoin="round" >
<path d="M196.4166 147.7623 L149.3 249.9663 L153.1898 248.4731 L157.0393 246.8786 L160.8457 245.1839 L164.6064 243.3901 L168.3189 241.4985
 L171.9806 239.5103 L175.589 237.427 L179.1417 235.25 L182.6361 232.9806 L186.0699 230.6206 L189.4408 228.1716 L192.7464 225.6351
 L195.9845 223.0129 L199.1528 220.3069 L202.2492 217.5189 L205.2716 214.6508 L208.2178 211.7046 L211.0859 208.6822 L213.8739 205.5858
 L216.5799 202.4175 L219.2021 199.1794 L221.7386 195.8738 L224.1876 192.5029 L226.5476 189.0691 L228.817 185.5747 L230.994 182.022
 L233.0773 178.4136 L235.0655 174.7519 L236.9571 171.0394 L238.7508 167.2787z" fill="rgb(255,215,0)"/>
</g>
<g stroke="rgb(0,0,139)" stroke-width="1.0627" stroke-linejoin="round" >
<path d="M183.0316 228.7895 L262.0589 238.143 L192.3851 149.7621z" fill="rgb(255,215,0)"/>
</g>
<g stroke="rgb(0,0,139)" stroke-width="1.0627" stroke-linejoin="round" >
<path d="M183.0316 228.7895 L227.2433 162.622 L116.8641 184.5778z" fill="rgb(255,215,0)"/>
</g>
<g stroke="rgb(0,0,139)" stroke-width="1.0627" stroke-linejoin="round" >
<path d="M123.8301 220.3489 L170.1232 214.8697 L198.9831 178.2612 L193.5039 131.968 L189.0876 132.6168 L184.7145 133.5122 L180.3985 134.6514 L176.1532 136.0307 L171.9919 137.646
 L167.9277 139.492 L163.9735 141.563 L160.1415 143.8525 L156.444 146.3532 L152.8925 149.0573 L149.4982 151.9563 L146.2718 155.0411
 L143.2235 158.3019 L140.3627 161.7285 L137.6986 165.3101 L135.2396 169.0355 L132.9932 172.8928 L130.9667 176.8701 L129.1664 180.9547
 L127.5979 185.1339 L126.2663 189.3944 L125.1756 193.7229 L124.3293 198.1057 L123.7301 202.5291 L123.3799 206.9791 L123.2797 211.4418
 L123.43 215.903 L123.8301 220.3489z" fill="rgb(255,215,0)"/>
</g>
<g stroke="rgb(0,0,139)" stroke-width="1.0627" stroke-linejoin="round" >
<path d="M240.185 232.2857 L198.6496 253.449 L184.2444 297.7837 L205.4077 339.3191 L209.3266 337.1819 L213.1195 334.8282 L216.7744 332.2656 L220.2799 329.5021 L223.6249 326.5464
 L226.7989 323.4078 L229.792 320.0962 L232.5946 316.6219 L235.1981 312.996 L237.5941 309.2298 L239.7752 305.3351 L241.7345 301.3243
 L243.4658 297.21 L244.9637 293.005 L246.2235 288.7227 L247.2412 284.3765 L248.0136 279.98 L248.5382 275.5472 L248.8135 271.0919
 L248.8386 266.6282 L248.6133 262.1701 L248.1384 257.7316 L247.4154 253.3268 L246.4465 248.9694 L245.2349 244.6732 L243.7842 240.4517
 L242.0992 236.3182 L240.185 232.2857z" fill="rgb(255,215,0)"/>
</g>
<g stroke="rgb(0,0,139)" stroke-width="1.0627" stroke-linejoin="round" >
<path d="M174.591 232.2857 L207.5536 232.2857 L174.591 265.2484 L141.6283 232.2857z" fill="rgb(255,215,0)"/>
</g>
</svg>
