<?xml version="1.0" encoding="utf-8" standalone="no"?>
<!DOCTYPE svg PUBLIC "-//W3C//DTD SVG 1.1//EN" "http://www.w3.org/TR/2001/REC-SVG-20010904/DTD/svg11.dtd">
<svg width="10cm" height="10cm" viewBox="0 0 378 378" overflow="hidden"
 version="1.1" xmlns="http://www.w3.org/2000/svg"  xmlns:xlink="http://www.w3.org/1999/xlink">
<!--fond  (Utilisateur) -->
<g  stroke-linejoin="round" >
<polygon fill="rgb(0,0,139)" points="0,0,0,378,378,378,378,0"/>
</g>
<!--tangram  (Utilisateur) -->
<g stroke="rgb(0,0,139)" stroke-width="1.0627" stroke-linejoin="round" >
<path d="M170.2464 88.9122 L194.6033 49.1653 L191.4098 47.3769 L188.0857 45.8444 L184.6516 44.5775 L181.1288 43.584 L177.5388 42.8699
 L173.9039 42.4397 L170.2464 42.296 L166.5889 42.4397 L162.954 42.8699 L159.3641 43.584z" fill="rgb(255,215,0)"/>
</g>
<g stroke="rgb(0,0,139)" stroke-width="1.0627" stroke-linejoin="round" >
<path d="M153.3652 89.8777 L198.6934 100.7601 L199.4075 97.1701 L199.8377 93.5352 L199.9814 89.8777 L199.8377 86.2202 L199.4075 82.5853
 L198.6934 78.9954 L197.6999 75.4725 L196.433 72.0384 L194.9006 68.7144 L193.1121 65.5208z" fill="rgb(255,215,0)"/>
</g>
<g stroke="rgb(0,0,139)" stroke-width="1.0627" stroke-linejoin="round" >
<path d="M183.0316 225.4932 L268.6089 152.4033 L264.4512 152.1308 L260.2878 151.9672 L256.1215 151.9126 L251.9553 151.9672 L247.7918 152.1308
 L243.6341 152.4033 L239.485 152.7845 L235.3472 153.2743 L231.2237 153.8721 L227.1173 154.5777 L223.0307 155.3906 L218.9668 156.3102
 L214.9284 157.3358 L210.9182 158.4668 L206.939 159.7024 L202.9935 161.0417 L199.0844 162.4838 L195.2144 164.0278 L191.3862 165.6726
 L187.6023 167.417 L183.8653 169.2598 L180.1779 171.1998 L176.5426 173.2357 L172.9617 175.3661 L169.4379 177.5895 L165.9735 179.9043
 L162.5709 182.3091 L159.2323 184.8021 L155.9602 187.3816 L152.7567 190.0459z" fill="rgb(255,215,0)"/>
</g>
<g stroke="rgb(0,0,139)" stroke-width="1.0627" stroke-linejoin="round" >
<path d="M145.4073 199.1231 L154.2372 86.9284 L151.1046 89.6756 L148.0449 92.5039 L145.0603 95.4113 L142.1529 98.3959 L139.3246 101.4556
 L136.5774 104.5882 L133.9131 107.7917 L131.3335 111.0638 L128.8405 114.4023 L126.4358 117.805 L124.1209 121.2694 L121.8976 124.7932
 L119.7672 128.374 L117.7313 132.0094 L115.7912 135.6968 L113.9484 139.4337 L112.204 143.2176 L110.5592 147.0459 L109.0153 150.9159
 L107.5731 154.825 L106.2338 158.7705 L104.9982 162.7497 L103.8673 166.7599 L102.8416 170.7983 L101.9221 174.8622 L101.1092 178.9488
 L100.4036 183.0552 L99.8057 187.1787 L99.316 191.3164 L98.9347 195.4656z" fill="rgb(255,215,0)"/>
</g>
<g stroke="rgb(0,0,139)" stroke-width="1.0627" stroke-linejoin="round" >
<path d="M301.2003 190.1997 L331.6538 116.6784 L227.6789 159.7462z" fill="rgb(255,215,0)"/>
</g>
<g stroke="rgb(0,0,139)" stroke-width="1.0627" stroke-linejoin="round" >
<path d="M190.9895 275.4057 L134.7187 331.6766 L247.2603 331.6766z" fill="rgb(255,215,0)"/>
</g>
<g stroke="rgb(0,0,139)" stroke-width="1.0627" stroke-linejoin="round" >
<path d="M119.3684 203.7847 L165.4108 196.4923 L192.8111 158.7789 L185.5187 112.7366 L181.1312 113.5583 L176.7967 114.6246 L172.5288 115.9324 L168.3409 117.4774 L164.2462 119.2548
 L160.2577 121.2589 L156.3877 123.4836 L152.6486 125.9217 L149.0521 128.5657 L145.6095 131.4072 L142.3317 134.4372 L139.2289 137.6462
 L136.3109 141.0242 L133.5869 144.5605 L131.0655 148.2439 L128.7545 152.0629 L126.6614 156.0055 L124.7926 160.0593 L123.154 164.2114
 L121.7508 168.4489 L120.5874 172.7585 L119.6675 177.1264 L118.994 181.5391 L118.5689 185.9826 L118.3937 190.4429 L118.4688 194.9061
 L118.7941 199.358 L119.3684 203.7847z" fill="rgb(255,215,0)"/>
</g>
<g stroke="rgb(0,0,139)" stroke-width="1.0627" stroke-linejoin="round" >
<path d="M270.5684 195.8268 L232.8551 223.2271 L225.5627 269.2695 L252.963 306.9828 L256.4993 304.2589 L259.8773 301.3409 L263.0863 298.2381 L266.1163 294.9602 L268.9578 291.5176
 L271.6018 287.9211 L274.0399 284.182 L276.2646 280.3121 L278.2687 276.3235 L280.0461 272.2289 L281.5911 268.041 L282.8988 263.7731
 L283.9652 259.4385 L284.7869 255.051 L285.3613 250.6243 L285.6865 246.1724 L285.7616 241.7093 L285.5864 237.2489 L285.1613 232.8054
 L284.4878 228.3928 L283.5679 224.0248 L282.4045 219.7153 L281.0013 215.4778 L279.3628 211.3256 L277.4939 207.2719 L275.4008 203.3293
 L273.0899 199.5102 L270.5684 195.8268z" fill="rgb(255,215,0)"/>
</g>
<g stroke="rgb(0,0,139)" stroke-width="1.0627" stroke-linejoin="round" >
<path d="M182.3004 115.5167 L207.3654 136.9242 L203.7079 90.4516 L157.2354 94.1091z" fill="rgb(255,215,0)"/>
</g>
</svg>
