<?xml version="1.0" encoding="utf-8" standalone="no"?>
<!DOCTYPE svg PUBLIC "-//W3C//DTD SVG 1.1//EN" "http://www.w3.org/TR/2001/REC-SVG-20010904/DTD/svg11.dtd">
<svg width="10cm" height="10cm" viewBox="0 0 378 378" overflow="hidden"
 version="1.1" xmlns="http://www.w3.org/2000/svg"  xmlns:xlink="http://www.w3.org/1999/xlink">
<!--tangram  (Utilisateur) -->
<g stroke="rgb(0,0,139)" stroke-width="1.0627" stroke-linejoin="round" >
<path d="M210.4257 179.5111 L255.2918 166.8576 L254.1607 163.3764 L252.76 159.9947 L251.0982 156.7334 L249.1858 153.6125 L247.0343 150.6513
 L244.6571 147.8679 L242.0689 145.2797 L239.2856 142.9026 L236.3244 140.7511 L233.2034 138.8386z" fill="rgb(255,215,0)"/>
</g>
<g stroke="rgb(0,0,139)" stroke-width="1.0627" stroke-linejoin="round" >
<path d="M210.4257 106.359 L170.6788 82.0021 L168.8903 85.1957 L167.3579 88.5198 L166.091 91.9538 L165.0975 95.4767 L164.3834 99.0667
 L163.9532 102.7016 L163.8095 106.359 L163.9532 110.0165 L164.3834 113.6514 L165.0975 117.2414z" fill="rgb(255,215,0)"/>
</g>
<g stroke="rgb(0,0,139)" stroke-width="1.0627" stroke-linejoin="round" >
<path d="M231.8515 158.0854 L266.6288 51.0519 L262.9413 52.992 L259.306 55.0279 L255.7252 57.1582 L252.2013 59.3816 L248.7369 61.6964
 L245.3343 64.1012 L241.9957 66.5942 L238.7236 69.1737 L235.5201 71.838 L232.3875 74.5853 L229.3279 77.4136 L226.3433 80.321
 L223.4359 83.3056 L220.6076 86.3652 L217.8603 89.4979 L215.196 92.7013 L212.6165 95.9734 L210.1235 99.312 L207.7187 102.7146
 L205.4039 106.179 L203.1805 109.7029 L201.0502 113.2837 L199.0142 116.9191 L197.0742 120.6065 L195.2314 124.3434 L193.487 128.1273
 L191.8422 131.9555 L190.2982 135.8255 L188.8561 139.7346 L187.5168 143.6801z" fill="rgb(255,215,0)"/>
</g>
<g stroke="rgb(0,0,139)" stroke-width="1.0627" stroke-linejoin="round" >
<path d="M189 200.9368 L227.9526 95.3513 L224.1918 97.145 L220.4794 99.0366 L216.8177 101.0248 L213.2092 103.1081 L209.6566 105.2852
 L206.1622 107.5545 L202.7284 109.9145 L199.3575 112.3635 L196.0519 114.9 L192.8138 117.5222 L189.6455 120.2282 L186.5491 123.0162
 L183.5267 125.8843 L180.5805 128.8306 L177.7124 131.8529 L174.9243 134.9493 L172.2183 138.1177 L169.5962 141.3557 L167.0597 144.6613
 L164.6106 148.0322 L162.2506 151.466 L159.9813 154.9605 L157.8043 158.5131 L155.721 162.1215 L153.7328 165.7832 L151.8412 169.4957
 L150.0474 173.2564 L148.3527 177.0628 L146.7582 180.9123 L145.265 184.8022z" fill="rgb(255,215,0)"/>
</g>
<g stroke="rgb(0,0,139)" stroke-width="1.0627" stroke-linejoin="round" >
<path d="M216.7012 170.7877 L286.1335 131.9037 L177.8172 101.3554z" fill="rgb(255,215,0)"/>
</g>
<g stroke="rgb(0,0,139)" stroke-width="1.0627" stroke-linejoin="round" >
<path d="M189 259.09 L233.2117 325.2575 L255.1675 214.8784z" fill="rgb(255,215,0)"/>
</g>
<g stroke="rgb(0,0,139)" stroke-width="1.0627" stroke-linejoin="round" >
<path d="M212.8737 207.3637 L191.7103 165.8283 L147.3756 151.4231 L105.8402 172.5865 L107.9775 176.5053 L110.3311 180.2982 L112.8937 183.9531 L115.6572 187.4586 L118.6129 190.8036
 L121.7516 193.9776 L125.0632 196.9707 L128.5375 199.7733 L132.1634 202.3768 L135.9296 204.7728 L139.8242 206.9539 L143.835 208.9132
 L147.9494 210.6445 L152.1544 212.1424 L156.4367 213.4022 L160.7829 214.4199 L165.1794 215.1923 L169.6122 215.717 L174.0675 215.9922
 L178.5312 216.0173 L182.9893 215.792 L187.4277 215.3171 L191.8326 214.5941 L196.19 213.6252 L200.4861 212.4136 L204.7076 210.963
 L208.8412 209.2779 L212.8737 207.3637z" fill="rgb(255,215,0)"/>
</g>
<g stroke="rgb(0,0,139)" stroke-width="1.0627" stroke-linejoin="round" >
<path d="M165.1263 207.3637 L163.2962 253.9441 L194.9393 288.1754 L241.5197 290.0056 L241.5697 285.5421 L241.3695 281.0828 L240.9195 276.6417 L240.2212 272.2329 L239.2768 267.8702
 L238.0893 263.5673 L236.6623 259.3377 L235.0005 255.1948 L233.109 251.1516 L230.9937 247.2208 L228.6614 243.4148 L226.1194 239.7456
 L223.3756 236.2246 L220.4387 232.8631 L217.3179 229.6715 L214.0231 226.6599 L210.5646 223.8378 L206.9534 221.2141 L203.2006 218.7969
 L199.3183 216.594 L195.3186 214.6122 L191.214 212.8579 L187.0175 211.3364 L182.7423 210.0526 L178.4019 209.0106 L174.0098 208.2135
 L169.58 207.664 L165.1263 207.3637z" fill="rgb(255,215,0)"/>
</g>
<g stroke="rgb(0,0,139)" stroke-width="1.0627" stroke-linejoin="round" >
<path d="M137.2737 228.7895 L170.2364 228.7895 L137.2737 195.8268 L104.311 228.7895z" fill="rgb(255,215,0)"/>
</g>
</svg>
