<?xml version="1.0" encoding="utf-8" standalone="no"?>
<!DOCTYPE svg PUBLIC "-//W3C//DTD SVG 1.1//EN" "http://www.w3.org/TR/2001/REC-SVG-20010904/DTD/svg11.dtd">
<svg width="10cm" height="10cm" viewBox="0 0 378 378" overflow="hidden"
 version="1.1" xmlns="http://www.w3.org/2000/svg"  xmlns:xlink="http://www.w3.org/1999/xlink">
<!--fond  (Utilisateur) -->
<g  stroke-linejoin="round" >
<polygon fill="rgb(0,0,139)" points="0,0,0,378,378,378,378,0"/>
</g>
<!--tangram  (Utilisateur) -->
<g stroke="rgb(0,0,139)" stroke-width="1.0627" stroke-linejoin="round" >
<path d="M218.6664 191.1652 L265.139 187.5077 L264.7088 183.8728 L263.9947 180.2828 L263.0011 176.7599 L261.7342 173.3259 L260.2018 170.0018
 L258.4133 166.8082 L256.3798 163.7648 L254.1137 160.8903 L251.6291 158.2025 L248.9413 155.7179z" fill="rgb(255,215,0)"/>
</g>
<g stroke="rgb(0,0,139)" stroke-width="1.0627" stroke-linejoin="round" >
<path d="M218.6664 89.8777 L172.6241 82.5853 L172.1938 86.2202 L172.0501 89.8777 L172.1938 93.5352 L172.6241 97.1701 L173.3382 100.7601
 L174.3317 104.2829 L175.5986 107.717 L177.131 111.041 L178.9195 114.2346 L180.9531 117.2781z" fill="rgb(255,215,0)"/>
</g>
<g stroke="rgb(0,0,139)" stroke-width="1.0627" stroke-linejoin="round" >
<path d="M248.3328 161.4988 L197.24 61.2234 L196.0044 65.2026 L194.8734 69.2128 L193.8478 73.2513 L192.9282 77.3151 L192.1154 81.4017
 L191.4097 85.5081 L190.8119 89.6317 L190.3221 93.7694 L189.9409 97.9185 L189.6684 102.0762 L189.5048 106.2397 L189.4503 110.4059
 L189.5048 114.5722 L189.6684 118.7356 L189.9409 122.8933 L190.3221 127.0425 L190.8119 131.1802 L191.4097 135.3037 L192.1154 139.4101
 L192.9282 143.4967 L193.8478 147.5606 L194.8734 151.599 L196.0044 155.6092 L197.24 159.5884 L198.5793 163.5339 L200.0215 167.443
 L201.5654 171.313 L203.2102 175.1413 L204.9546 178.9252 L206.7974 182.6621z" fill="rgb(255,215,0)"/>
</g>
<g stroke="rgb(0,0,139)" stroke-width="1.0627" stroke-linejoin="round" >
<path d="M189 220.8316 L93.0425 162.0287 L94.0681 166.0672 L95.1991 170.0774 L96.4347 174.0566 L97.774 178.0021 L99.2161 181.9112
 L100.7601 185.7812 L102.4049 189.6094 L104.1493 193.3933 L105.9921 197.1302 L107.9322 200.8177 L109.9681 204.453 L112.0984 208.0338
 L114.3218 211.5577 L116.6366 215.0221 L119.0414 218.4247 L121.5344 221.7633 L124.1139 225.0354 L126.7782 228.2389 L129.5255 231.3715
 L132.3538 234.4311 L135.2612 237.4157 L138.2458 240.3231 L141.3054 243.1514 L144.4381 245.8987 L147.6415 248.563 L150.9137 251.1425
 L154.2522 253.6355 L157.6548 256.0403 L161.1192 258.3551 L164.6431 260.5785z" fill="rgb(255,215,0)"/>
</g>
<g stroke="rgb(0,0,139)" stroke-width="1.0627" stroke-linejoin="round" >
<path d="M227.3555 148.4793 L287.8678 96.7969 L175.6731 87.967z" fill="rgb(255,215,0)"/>
</g>
<g stroke="rgb(0,0,139)" stroke-width="1.0627" stroke-linejoin="round" >
<path d="M189 270.7441 L158.5465 344.2655 L262.5214 301.1977z" fill="rgb(255,215,0)"/>
</g>
<g stroke="rgb(0,0,139)" stroke-width="1.0627" stroke-linejoin="round" >
<path d="M252.6632 199.1231 L208.3285 184.7178 L166.7931 205.8812 L152.3878 250.2159 L156.6702 251.4757 L161.0164 252.4934 L165.4128 253.2657 L169.8457 253.7904 L174.301 254.0657
 L178.7647 254.0907 L183.2228 253.8654 L187.6612 253.3906 L192.0661 252.6675 L196.4234 251.6987 L200.7196 250.487 L204.9411 249.0364
 L209.0746 247.3513 L213.1072 245.4372 L217.026 243.2999 L220.8189 240.9463 L224.4738 238.3837 L227.9793 235.6202 L231.3243 232.6645
 L234.4983 229.5259 L237.4914 226.2142 L240.294 222.7399 L242.8975 219.114 L245.2935 215.3478 L247.4746 211.4532 L249.4339 207.4424
 L251.1653 203.328 L252.6632 199.1231z" fill="rgb(255,215,0)"/>
</g>
<g stroke="rgb(0,0,139)" stroke-width="1.0627" stroke-linejoin="round" >
<path d="M125.3368 199.1231 L149.6938 238.87 L195.022 249.7523 L234.7689 225.3954 L232.3308 221.6563 L229.6868 218.0598 L226.8454 214.6172 L223.8153 211.3393 L220.6063 208.2365
 L217.2283 205.3185 L213.6921 202.5945 L210.0086 200.0731 L206.1896 197.7622 L202.247 195.669 L198.1932 193.8002 L194.0411 192.1616
 L189.8036 190.7585 L185.4941 189.5951 L181.1261 188.6752 L176.7134 188.0016 L172.2699 187.5766 L167.8096 187.4013 L163.3464 187.4765
 L158.8945 187.8017 L154.4678 188.3761 L150.0803 189.1977 L145.7458 190.2641 L141.4779 191.5719 L137.29 193.1169 L133.1953 194.8942
 L129.2068 196.8984 L125.3368 199.1231z" fill="rgb(255,215,0)"/>
</g>
<g stroke="rgb(0,0,139)" stroke-width="1.0627" stroke-linejoin="round" >
<path d="M117.3789 228.7895 L150.3416 228.7895 L117.3789 195.8268 L84.4163 228.7895z" fill="rgb(255,215,0)"/>
</g>
</svg>
