<?xml version="1.0" encoding="utf-8" standalone="no"?>
<!DOCTYPE svg PUBLIC "-//W3C//DTD SVG 1.1//EN" "http://www.w3.org/TR/2001/REC-SVG-20010904/DTD/svg11.dtd">
<svg width="10cm" height="10cm" viewBox="0 0 378 378" overflow="hidden"
 version="1.1" xmlns="http://www.w3.org/2000/svg"  xmlns:xlink="http://www.w3.org/1999/xlink">
<!--tangram  (Utilisateur) -->
<g stroke="rgb(0,0,139)" stroke-width="1.0627" stroke-linejoin="round" >
<path d="M166.3988 201.6538 L199.3615 168.6911 L196.6736 166.2065 L193.7992 163.9405 L190.7557 161.9069 L187.5621 160.1184 L184.2381 158.586
 L180.804 157.3191 L177.2812 156.3256 L173.6912 155.6115 L170.0563 155.1813 L166.3988 155.0376z" fill="rgb(255,215,0)"/>
</g>
<g stroke="rgb(0,0,139)" stroke-width="1.0627" stroke-linejoin="round" >
<path d="M201.361 166.6916 L244.4288 148.8524 L242.8964 145.5283 L241.1079 142.3347 L239.0744 139.2913 L236.8083 136.4168 L234.3237 133.7289
 L231.6358 131.2443 L228.7614 128.9783 L225.7179 126.9447 L222.5243 125.1562 L219.2003 123.6238z" fill="rgb(255,215,0)"/>
</g>
<g stroke="rgb(0,0,139)" stroke-width="1.0627" stroke-linejoin="round" >
<path d="M201.361 166.6916 L223.3168 277.0708 L225.5861 273.5764 L227.7631 270.0237 L229.8465 266.4153 L231.8346 262.7536 L233.7262 259.0411
 L235.52 255.2804 L237.2147 251.474 L238.8092 247.6246 L240.3024 243.7347 L241.6932 239.807 L242.9808 235.8443 L244.1642 231.8493
 L245.2426 227.8246 L246.2153 223.7731 L247.0816 219.6976 L247.8409 215.6007 L248.4927 211.4854 L249.0365 207.3544 L249.472 203.2106
 L249.799 199.0568 L250.017 194.8959 L250.1261 190.7307 L250.1261 186.5641 L250.017 182.3989 L249.799 178.238 L249.472 174.0842
 L249.0365 169.9404 L248.4927 165.8094 L247.8409 161.6941 L247.0816 157.5972z" fill="rgb(255,215,0)"/>
</g>
<g stroke="rgb(0,0,139)" stroke-width="1.0627" stroke-linejoin="round" >
<path d="M226.083 141.9696 L319.658 204.4944 L318.7917 200.4188 L317.819 196.3673 L316.7406 192.3427 L315.5572 188.3476 L314.2696 184.3849
 L312.8788 180.4573 L311.3856 176.5674 L309.7911 172.718 L308.0964 168.9116 L306.3026 165.1508 L304.411 161.4383 L302.4229 157.7766
 L300.3396 154.1682 L298.1625 150.6156 L295.8932 147.1212 L293.5332 143.6873 L291.0841 140.3165 L288.5476 137.0109 L285.9255 133.7728
 L283.2195 130.6045 L280.4315 127.5081 L277.5633 124.4857 L274.6171 121.5395 L271.5947 118.6713 L268.4983 115.8833 L265.33 113.1773
 L262.0919 110.5552 L258.7863 108.0187 L255.4154 105.5696 L251.9816 103.2096z" fill="rgb(255,215,0)"/>
</g>
<g stroke="rgb(0,0,139)" stroke-width="1.0627" stroke-linejoin="round" >
<path d="M159.1579 228.7895 L225.3254 273.0012 L203.3696 162.622z" fill="rgb(255,215,0)"/>
</g>
<g stroke="rgb(0,0,139)" stroke-width="1.0627" stroke-linejoin="round" >
<path d="M159.1579 228.7895 L174.683 306.8393 L237.2078 213.2644z" fill="rgb(255,215,0)"/>
</g>
<g stroke="rgb(0,0,139)" stroke-width="1.0627" stroke-linejoin="round" >
<path d="M181.4663 186.5864 L220.2263 160.6878 L229.3207 114.9672 L203.4221 76.2072 L199.7816 78.7903 L196.2916 81.5734 L192.9633 84.5478 L189.8069 87.7042 L186.8325 91.0326
 L184.0493 94.5225 L181.4663 98.163 L179.0914 101.9426 L176.9322 105.8494 L174.9954 109.8711 L173.2872 113.9951 L171.8129 118.2084
 L170.5772 122.4977 L169.5839 126.8496 L168.8362 131.2503 L168.3364 135.686 L168.0861 140.1428 L168.0861 144.6066 L168.3364 149.0633
 L168.8362 153.499 L169.5839 157.8998 L170.5772 162.2516 L171.8129 166.5409 L173.2872 170.7542 L174.9954 174.8782 L176.9322 178.9
 L179.0914 182.8068 L181.4663 186.5864z" fill="rgb(255,215,0)"/>
</g>
<g stroke="rgb(0,0,139)" stroke-width="1.0627" stroke-linejoin="round" >
<path d="M126.6093 246.2706 L159.572 279.2333 L206.1883 279.2333 L239.151 246.2706 L235.9073 243.204 L232.4968 240.3241 L228.9302 237.6399 L225.2187 235.16 L221.374 232.892
 L217.4082 230.8432 L213.3337 229.02 L209.1634 227.4281 L204.9104 226.0726 L200.5881 224.9577 L196.2101 224.0868 L191.7902 223.4628
 L187.3422 223.0876 L182.8801 222.9624 L178.4181 223.0876 L173.9701 223.4628 L169.5502 224.0868 L165.1722 224.9577 L160.8499 226.0726
 L156.5969 227.4281 L152.4266 229.02 L148.3521 230.8432 L144.3863 232.892 L140.5416 235.16 L136.8301 237.6399 L133.2635 240.3241
 L129.853 243.204 L126.6093 246.2706z" fill="rgb(255,215,0)"/>
</g>
<g stroke="rgb(0,0,139)" stroke-width="1.0627" stroke-linejoin="round" >
<path d="M116.9548 246.2706 L149.9175 246.2706 L116.9548 279.2333 L83.9921 246.2706z" fill="rgb(255,215,0)"/>
</g>
</svg>
