<?xml version="1.0" encoding="utf-8" standalone="no"?>
<!DOCTYPE svg PUBLIC "-//W3C//DTD SVG 1.1//EN" "http://www.w3.org/TR/2001/REC-SVG-20010904/DTD/svg11.dtd">
<svg width="10cm" height="10cm" viewBox="0 0 378 378" overflow="hidden"
 version="1.1" xmlns="http://www.w3.org/2000/svg"  xmlns:xlink="http://www.w3.org/1999/xlink">
<!--tangram  (Utilisateur) -->
<g stroke="rgb(0,0,139)" stroke-width="1.0627" stroke-linejoin="round" >
<path d="M182.973 163.1954 L215.9357 130.2327 L213.2479 127.7481 L210.3734 125.4821 L207.3299 123.4485 L204.1364 121.66 L200.8123 120.1276
 L197.3782 118.8607 L193.8554 117.8671 L190.2654 117.1531 L186.6305 116.7228 L182.973 116.5791z" fill="rgb(255,215,0)"/>
</g>
<g stroke="rgb(0,0,139)" stroke-width="1.0627" stroke-linejoin="round" >
<path d="M192.2963 153.8722 L206.7015 109.5374 L203.1786 108.5439 L199.5887 107.8298 L195.9537 107.3996 L192.2963 107.2559 L188.6388 107.3996
 L185.0039 107.8298 L181.4139 108.5439 L177.891 109.5374 L174.457 110.8043 L171.1329 112.3368z" fill="rgb(255,215,0)"/>
</g>
<g stroke="rgb(0,0,139)" stroke-width="1.0627" stroke-linejoin="round" >
<path d="M192.2963 153.8722 L258.4466 244.9202 L259.0445 240.7967 L259.5342 236.659 L259.9154 232.5098 L260.188 228.3521 L260.3515 224.1887
 L260.4061 220.0225 L260.3515 215.8562 L260.188 211.6928 L259.9154 207.5351 L259.5342 203.3859 L259.0445 199.2482 L258.4466 195.1247
 L257.741 191.0182 L256.9281 186.9317 L256.0085 182.8678 L254.9829 178.8294 L253.8519 174.8192 L252.6163 170.84 L251.277 166.8945
 L249.8349 162.9854 L248.2909 159.1154 L246.6462 155.2871 L244.9018 151.5032 L243.0589 147.7663 L241.1189 144.0789 L239.083 140.4435
 L236.9526 136.8627 L234.7292 133.3389 L232.4144 129.8744 L230.0096 126.4718z" fill="rgb(255,215,0)"/>
</g>
<g stroke="rgb(0,0,139)" stroke-width="1.0627" stroke-linejoin="round" >
<path d="M198.8888 147.2796 L164.1115 254.3131 L167.7989 252.373 L171.4343 250.3371 L175.0151 248.2068 L178.539 245.9834 L182.0034 243.6685
 L185.406 241.2638 L188.7445 238.7708 L192.0167 236.1913 L195.2201 233.527 L198.3528 230.7797 L201.4124 227.9514 L204.397 225.044
 L207.3044 222.0594 L210.1327 218.9998 L212.88 215.8671 L215.5443 212.6637 L218.1238 209.3915 L220.6168 206.053 L223.0215 202.6504
 L225.3364 199.1859 L227.5598 195.6621 L229.6901 192.0813 L231.726 188.4459 L233.6661 184.7585 L235.5089 181.0216 L237.2533 177.2377
 L238.8981 173.4094 L240.4421 169.5394 L241.8842 165.6303 L243.2235 161.6848z" fill="rgb(255,215,0)"/>
</g>
<g stroke="rgb(0,0,139)" stroke-width="1.0627" stroke-linejoin="round" >
<path d="M181.0421 228.7895 L259.6413 241.2384 L193.491 150.1903z" fill="rgb(255,215,0)"/>
</g>
<g stroke="rgb(0,0,139)" stroke-width="1.0627" stroke-linejoin="round" >
<path d="M181.0421 228.7895 L237.3129 172.5187 L124.7713 172.5187z" fill="rgb(255,215,0)"/>
</g>
<g stroke="rgb(0,0,139)" stroke-width="1.0627" stroke-linejoin="round" >
<path d="M128.6331 217.5353 L174.6755 210.2429 L202.0758 172.5296 L194.7834 126.4872 L190.3959 127.3089 L186.0614 128.3753 L181.7935 129.683 L177.6056 131.228 L173.5109 133.0054
 L169.5223 135.0096 L165.6524 137.2342 L161.9133 139.6724 L158.3168 142.3163 L154.8742 145.1578 L151.5964 148.1878 L148.4936 151.3968
 L145.5756 154.7748 L142.8516 158.3111 L140.3302 161.9945 L138.0192 165.8136 L135.9261 169.7561 L134.0573 173.8099 L132.4187 177.9621
 L131.0155 182.1996 L129.8521 186.5091 L128.9322 190.8771 L128.2587 195.2897 L127.8336 199.7332 L127.6584 204.1936 L127.7335 208.6567
 L128.0587 213.1086 L128.6331 217.5353z" fill="rgb(255,215,0)"/>
</g>
<g stroke="rgb(0,0,139)" stroke-width="1.0627" stroke-linejoin="round" >
<path d="M230.7204 233.4511 L193.007 260.8515 L185.7146 306.8938 L213.115 344.6072 L216.6513 341.8832 L220.0292 338.9652 L223.2383 335.8624 L226.2683 332.5845 L229.1098 329.1419
 L231.7537 325.5454 L234.1919 321.8063 L236.4165 317.9364 L238.4207 313.9478 L240.1981 309.8532 L241.7431 305.6653 L243.0508 301.3974
 L244.1172 297.0628 L244.9389 292.6753 L245.5132 288.2486 L245.8385 283.7967 L245.9136 279.3336 L245.7384 274.8732 L245.3133 270.4297
 L244.6397 266.0171 L243.7198 261.6491 L242.5565 257.3396 L241.1533 253.1021 L239.5147 248.9499 L237.6459 244.8962 L235.5527 240.9536
 L233.2418 237.1345 L230.7204 233.4511z" fill="rgb(255,215,0)"/>
</g>
<g stroke="rgb(0,0,139)" stroke-width="1.0627" stroke-linejoin="round" >
<path d="M169.7879 233.4511 L202.7506 233.4511 L169.7879 266.4138 L136.8253 233.4511z" fill="rgb(255,215,0)"/>
</g>
</svg>
