<?xml version="1.0" encoding="utf-8" standalone="no"?>
<!DOCTYPE svg PUBLIC "-//W3C//DTD SVG 1.1//EN" "http://www.w3.org/TR/2001/REC-SVG-20010904/DTD/svg11.dtd">
<svg width="10cm" height="10cm" viewBox="0 0 378 378" overflow="hidden"
 version="1.1" xmlns="http://www.w3.org/2000/svg"  xmlns:xlink="http://www.w3.org/1999/xlink">
<!--fond  (Utilisateur) -->
<g  stroke-linejoin="round" >
<polygon fill="rgb(0,0,139)" points="0,0,0,378,378,378,378,0"/>
</g>
<!--tangram  (Utilisateur) -->
<g stroke="rgb(0,0,139)" stroke-width="1.0627" stroke-linejoin="round" >
<path d="M203.8332 170.1878 L246.1675 150.6715 L244.5057 147.4101 L242.5932 144.2892 L240.4418 141.328 L238.0646 138.5447 L235.4764 135.9565
 L232.6931 133.5793 L229.7318 131.4278 L226.6109 129.5153 L223.3496 127.8536 L219.9679 126.4529z" fill="rgb(255,215,0)"/>
</g>
<g stroke="rgb(0,0,139)" stroke-width="1.0627" stroke-linejoin="round" >
<path d="M203.8332 119.5441 L173.5584 84.0968 L170.8705 86.5814 L168.3859 89.2693 L166.1199 92.1438 L164.0863 95.1872 L162.2978 98.3808
 L160.7654 101.7048 L159.4985 105.1389 L158.5049 108.6618 L157.7909 112.2517 L157.3606 115.8866z" fill="rgb(255,215,0)"/>
</g>
<g stroke="rgb(0,0,139)" stroke-width="1.0627" stroke-linejoin="round" >
<path d="M218.6664 155.3546 L309.7145 89.2043 L305.591 88.6065 L301.4532 88.1167 L297.3041 87.7355 L293.1464 87.463 L288.983 87.2994
 L284.8167 87.2448 L280.6505 87.2994 L276.487 87.463 L272.3293 87.7355 L268.1802 88.1167 L264.0424 88.6065 L259.9189 89.2043
 L255.8125 89.9099 L251.7259 90.7228 L247.662 91.6424 L243.6236 92.668 L239.6134 93.799 L235.6342 95.0346 L231.6887 96.3739
 L227.7796 97.816 L223.9096 99.36 L220.0814 101.0048 L216.2975 102.7492 L212.5605 104.592 L208.8731 106.532 L205.2378 108.5679
 L201.6569 110.6983 L198.1331 112.9217 L194.6687 115.2365 L191.2661 117.6413z" fill="rgb(255,215,0)"/>
</g>
<g stroke="rgb(0,0,139)" stroke-width="1.0627" stroke-linejoin="round" >
<path d="M189 185.0211 L300.7615 171.7932 L297.4559 169.2567 L294.0851 166.8076 L290.6512 164.4476 L287.1568 162.1783 L283.6042 160.0013
 L279.9958 157.918 L276.3341 155.9298 L272.6216 154.0382 L268.8609 152.2444 L265.0545 150.5497 L261.205 148.9552 L257.3151 147.462
 L253.3875 146.0712 L249.4248 144.7836 L245.4297 143.6002 L241.4051 142.5218 L237.3536 141.5492 L233.278 140.6829 L229.1812 139.9236
 L225.0658 139.2718 L220.9349 138.7279 L216.7911 138.2924 L212.6373 137.9655 L208.4764 137.7474 L204.3112 137.6383 L200.1445 137.6383
 L195.9793 137.7474 L191.8184 137.9655 L187.6646 138.2924 L183.5208 138.7279z" fill="rgb(255,215,0)"/>
</g>
<g stroke="rgb(0,0,139)" stroke-width="1.0627" stroke-linejoin="round" >
<path d="M208.1778 188.6344 L282.838 161.0908 L180.6341 113.9741z" fill="rgb(255,215,0)"/>
</g>
<g stroke="rgb(0,0,139)" stroke-width="1.0627" stroke-linejoin="round" >
<path d="M189 249.7668 L267.0499 265.2919 L204.5251 171.7169z" fill="rgb(255,215,0)"/>
</g>
<g stroke="rgb(0,0,139)" stroke-width="1.0627" stroke-linejoin="round" >
<path d="M181.0421 213.9563 L188.3345 167.9139 L160.9341 130.2006 L114.8918 122.9082 L114.3174 127.3349 L113.9922 131.7868 L113.9171 136.2499 L114.0923 140.7103 L114.5174 145.1538
 L115.1909 149.5664 L116.1108 153.9344 L117.2742 158.2439 L118.6774 162.4814 L120.3159 166.6336 L122.1847 170.6873 L124.2779 174.6299
 L126.5888 178.449 L129.1103 182.1324 L131.8343 185.6687 L134.7523 189.0466 L137.8551 192.2557 L141.1329 195.2857 L144.5755 198.1272
 L148.172 200.7711 L151.9111 203.2093 L155.781 205.4339 L159.7696 207.4381 L163.8643 209.2155 L168.0521 210.7605 L172.3201 212.0682
 L176.6546 213.1346 L181.0421 213.9563z" fill="rgb(255,215,0)"/>
</g>
<g stroke="rgb(0,0,139)" stroke-width="1.0627" stroke-linejoin="round" >
<path d="M196.9579 213.9563 L174.1802 254.6288 L186.8337 299.4948 L227.5062 322.2725 L229.5773 318.3183 L231.4233 314.2541 L233.0385 310.0928 L234.4179 305.8475 L235.5571 301.5315
 L236.4525 297.1585 L237.1013 292.7421 L237.5014 288.2963 L237.6516 283.835 L237.5515 279.3724 L237.2012 274.9223 L236.6021 270.4989
 L235.7558 266.1161 L234.6651 261.7876 L233.3334 257.5271 L231.765 253.348 L229.9647 249.2633 L227.9381 245.2861 L225.6918 241.4287
 L223.2327 237.7033 L220.5686 234.1217 L217.7079 230.6951 L214.6595 227.4343 L211.4331 224.3496 L208.0388 221.4506 L204.4874 218.7465
 L200.7898 216.2457 L196.9579 213.9563z" fill="rgb(255,215,0)"/>
</g>
<g stroke="rgb(0,0,139)" stroke-width="1.0627" stroke-linejoin="round" >
<path d="M153.1895 228.7895 L186.1522 228.7895 L153.1895 195.8268 L120.2268 228.7895z" fill="rgb(255,215,0)"/>
</g>
</svg>
