<?xml version="1.0" encoding="utf-8" standalone="no"?>
<!DOCTYPE svg PUBLIC "-//W3C//DTD SVG 1.1//EN" "http://www.w3.org/TR/2001/REC-SVG-20010904/DTD/svg11.dtd">
<svg width="10cm" height="10cm" viewBox="0 0 378 378" overflow="hidden"
 version="1.1" xmlns="http://www.w3.org/2000/svg"  xmlns:xlink="http://www.w3.org/1999/xlink">
<!--tangram  (Utilisateur) -->
<g stroke="rgb(0,0,139)" stroke-width="1.0627" stroke-linejoin="round" >
<path d="M187.4933 152.7067 L220.4559 119.7441 L217.7681 117.2595 L214.8936 114.9934 L211.8502 112.9598 L208.6566 111.1713 L205.3325 109.6389
 L201.8985 108.372 L198.3756 107.3785 L194.7856 106.6644 L191.1507 106.2342 L187.4933 106.0905z" fill="rgb(255,215,0)"/>
</g>
<g stroke="rgb(0,0,139)" stroke-width="1.0627" stroke-linejoin="round" >
<path d="M189.8241 150.3759 L193.4815 103.9034 L189.8241 103.7597 L186.1666 103.9034 L182.5317 104.3336 L178.9417 105.0477 L175.4188 106.0412
 L171.9848 107.3081 L168.6607 108.8405 L165.4671 110.629 L162.4237 112.6626 L159.5492 114.9286z" fill="rgb(255,215,0)"/>
</g>
<g stroke="rgb(0,0,139)" stroke-width="1.0627" stroke-linejoin="round" >
<path d="M189.8241 150.3759 L266.2174 233.0178 L266.3265 228.8526 L266.3265 224.686 L266.2174 220.5208 L265.9993 216.3598 L265.6724 212.2061
 L265.2369 208.0623 L264.693 203.9313 L264.0412 199.816 L263.2819 195.7191 L262.4156 191.6435 L261.443 187.592 L260.3646 183.5674
 L259.1812 179.5723 L257.8936 175.6096 L256.5028 171.682 L255.0096 167.7921 L253.4151 163.9427 L251.7204 160.1363 L249.9266 156.3755
 L248.035 152.663 L246.0468 149.0013 L243.9635 145.3929 L241.7865 141.8403 L239.5172 138.3459 L237.1572 134.9121 L234.7081 131.5412
 L232.1716 128.2356 L229.5495 124.9975 L226.8435 121.8292 L224.0554 118.7328z" fill="rgb(255,215,0)"/>
</g>
<g stroke="rgb(0,0,139)" stroke-width="1.0627" stroke-linejoin="round" >
<path d="M191.4722 148.7278 L121.7984 237.1086 L125.9293 236.5648 L130.0447 235.913 L134.1415 235.1537 L138.2171 234.2874 L142.2686 233.3147
 L146.2932 232.2363 L150.2883 231.0529 L154.251 229.7654 L158.1786 228.3745 L162.0685 226.8813 L165.918 225.2868 L169.7244 223.5921
 L173.4851 221.7983 L177.1976 219.9067 L180.8593 217.9186 L184.4677 215.8353 L188.0203 213.6582 L191.5147 211.3889 L194.9486 209.0289
 L198.3194 206.5798 L201.625 204.0433 L204.8631 201.4212 L208.0314 198.7152 L211.1279 195.9272 L214.1502 193.0591 L217.0965 190.1128
 L219.9646 187.0905 L222.7526 183.9941 L225.4586 180.8257 L228.0807 177.5876z" fill="rgb(255,215,0)"/>
</g>
<g stroke="rgb(0,0,139)" stroke-width="1.0627" stroke-linejoin="round" >
<path d="M187.0105 228.7895 L266.5281 231.9137 L190.1348 149.2719z" fill="rgb(255,215,0)"/>
</g>
<g stroke="rgb(0,0,139)" stroke-width="1.0627" stroke-linejoin="round" >
<path d="M187.0105 228.7895 L202.5356 150.7396 L108.9607 213.2644z" fill="rgb(255,215,0)"/>
</g>
<g stroke="rgb(0,0,139)" stroke-width="1.0627" stroke-linejoin="round" >
<path d="M114.2241 225.9759 L160.8044 224.1458 L192.4476 189.9144 L190.6174 143.3341 L186.1637 143.6344 L181.7339 144.1839 L177.3419 144.9809 L173.0014 146.023 L168.7262 147.3067
 L164.5297 148.8282 L160.4252 150.5826 L156.4254 152.5644 L152.5431 154.7673 L148.7904 157.1844 L145.1791 159.8082 L141.7206 162.6303
 L138.4258 165.6418 L135.305 168.8334 L132.3682 172.195 L129.6244 175.7159 L127.0823 179.3851 L124.75 183.1911 L122.6347 187.1219
 L120.7432 191.1651 L119.0814 195.308 L117.6545 199.5376 L116.4669 203.8405 L115.5225 208.2033 L114.8242 212.6121 L114.3743 217.0531
 L114.174 221.5124 L114.2241 225.9759z" fill="rgb(255,215,0)"/>
</g>
<g stroke="rgb(0,0,139)" stroke-width="1.0627" stroke-linejoin="round" >
<path d="M259.1143 229.9549 L213.072 237.2473 L185.6716 274.9606 L192.964 321.003 L197.3515 320.1813 L201.686 319.1149 L205.954 317.8072 L210.1418 316.2622 L214.2365 314.4848
 L218.2251 312.4806 L222.095 310.256 L225.8341 307.8178 L229.4306 305.1739 L232.8732 302.3324 L236.151 299.3024 L239.2538 296.0933
 L242.1718 292.7154 L244.8958 289.1791 L247.4173 285.4957 L249.7282 281.6766 L251.8214 277.734 L253.6902 273.6803 L255.3287 269.5281
 L256.7319 265.2906 L257.8953 260.9811 L258.8152 256.6131 L259.4887 252.2005 L259.9138 247.757 L260.089 243.2966 L260.0139 238.8335
 L259.6887 234.3816 L259.1143 229.9549z" fill="rgb(255,215,0)"/>
</g>
<g stroke="rgb(0,0,139)" stroke-width="1.0627" stroke-linejoin="round" >
<path d="M184.197 229.9549 L217.1597 229.9549 L184.197 262.9176 L151.2343 229.9549z" fill="rgb(255,215,0)"/>
</g>
</svg>
