<?xml version="1.0" encoding="utf-8" standalone="no"?>
<!DOCTYPE svg PUBLIC "-//W3C//DTD SVG 1.1//EN" "http://www.w3.org/TR/2001/REC-SVG-20010904/DTD/svg11.dtd">
<svg width="10cm" height="10cm" viewBox="0 0 378 378" overflow="hidden"
 version="1.1" xmlns="http://www.w3.org/2000/svg"  xmlns:xlink="http://www.w3.org/1999/xlink">
<!--fond  (Utilisateur) -->
<g  stroke-linejoin="round" >
<polygon fill="rgb(0,0,139)" points="0,0,0,378,378,378,378,0"/>
</g>
<!--tangram  (Utilisateur) -->
<g stroke="rgb(0,0,139)" stroke-width="1.0627" stroke-linejoin="round" >
<path d="M219.9782 108.607 L207.3247 63.741 L203.8435 64.8721 L200.4619 66.2728 L197.2005 67.9345 L194.0796 69.847 L191.1184 71.9985
 L188.3351 74.3757 L185.7469 76.9639 L183.3697 79.7472 L181.2182 82.7084 L179.3057 85.8293z" fill="rgb(255,215,0)"/>
</g>
<g stroke="rgb(0,0,139)" stroke-width="1.0627" stroke-linejoin="round" >
<path d="M144.0126 112.9516 L166.7903 153.6241 L169.9112 151.7116 L172.8725 149.5601 L175.6558 147.183 L178.244 144.5947 L180.6212 141.8114
 L182.7726 138.8502 L184.6851 135.7293 L186.3469 132.4679 L187.7476 129.0863 L188.8787 125.6051z" fill="rgb(255,215,0)"/>
</g>
<g stroke="rgb(0,0,139)" stroke-width="1.0627" stroke-linejoin="round" >
<path d="M162.1421 213.9563 L264.346 166.8396 L260.4184 165.4488 L256.4557 164.1612 L252.4606 162.9778 L248.436 161.8994 L244.3845 160.9267
 L240.3089 160.0605 L236.2121 159.3012 L232.0967 158.6493 L227.9658 158.1055 L223.822 157.67 L219.6682 157.3431 L215.5073 157.125
 L211.3421 157.0159 L207.1754 157.0159 L203.0102 157.125 L198.8493 157.3431 L194.6955 157.67 L190.5517 158.1055 L186.4208 158.6493
 L182.3054 159.3012 L178.2086 160.0605 L174.133 160.9267 L170.0815 161.8994 L166.0569 162.9778 L162.0618 164.1612 L158.0991 165.4488
 L154.1715 166.8396 L150.2816 168.3328 L146.4322 169.9273 L142.6258 171.622z" fill="rgb(255,215,0)"/>
</g>
<g stroke="rgb(0,0,139)" stroke-width="1.0627" stroke-linejoin="round" >
<path d="M108.2021 210.66 L147.1547 105.0744 L143.3939 106.8682 L139.6815 108.7598 L136.0198 110.7479 L132.4114 112.8313 L128.8587 115.0083
 L125.3643 117.2776 L121.9305 119.6376 L118.5596 122.0867 L115.254 124.6232 L112.0159 127.2453 L108.8476 129.9513 L105.7512 132.7394
 L102.7288 135.6075 L99.7826 138.5537 L96.9145 141.5761 L94.1264 144.6725 L91.4204 147.8408 L88.7983 151.0789 L86.2618 154.3845
 L83.8127 157.7554 L81.4527 161.1892 L79.1834 164.6836 L77.0064 168.2362 L74.9231 171.8446 L72.9349 175.5063 L71.0433 179.2188
 L69.2495 182.9796 L67.5548 186.786 L65.9603 190.6354 L64.4671 194.5253z" fill="rgb(255,215,0)"/>
</g>
<g stroke="rgb(0,0,139)" stroke-width="1.0627" stroke-linejoin="round" >
<clipPath id="Clip1">
<rect x="0" y="0" width="10cm" height="10cm"/>
</clipPath>
<path d="M300.0056 170.5049 L378.0555 186.03 L315.5307 92.4551z" fill="rgb(255,215,0)" clip-path="url(#Clip1)"/>
</g>
<g stroke="rgb(0,0,139)" stroke-width="1.0627" stroke-linejoin="round" >
<path d="M197.9526 275.4057 L141.6818 331.6766 L254.2234 331.6766z" fill="rgb(255,215,0)"/>
</g>
<g stroke="rgb(0,0,139)" stroke-width="1.0627" stroke-linejoin="round" >
<path d="M154.1842 231.6373 L189.6315 201.3625 L193.289 154.8899 L163.0141 119.4426 L159.7025 122.4357 L156.5639 125.6097 L153.6082 128.9547 L150.8447 132.4602 L148.2821 136.1151
 L145.9284 139.908 L143.7912 143.8268 L141.877 147.8594 L140.1919 151.9929 L138.7413 156.2144 L137.5296 160.5106 L136.5608 164.8679
 L135.8378 169.2728 L135.3629 173.7112 L135.1376 178.1693 L135.1626 182.633 L135.4379 187.0883 L135.9626 191.5212 L136.735 195.9176
 L137.7527 200.2638 L139.0124 204.5462 L140.5103 208.7511 L142.2417 212.8655 L144.201 216.8763 L146.3821 220.7709 L148.7781 224.5371
 L151.3816 228.1631 L154.1842 231.6373z" fill="rgb(255,215,0)"/>
</g>
<g stroke="rgb(0,0,139)" stroke-width="1.0627" stroke-linejoin="round" >
<path d="M277.5316 195.8268 L321.8663 210.232 L363.4017 189.0687 L377.8069 144.734 L373.5246 143.4742 L369.1783 142.4565 L364.7819 141.6841 L360.3491 141.1595 L355.8938 140.8842
 L351.4301 140.8591 L346.972 141.0844 L342.5335 141.5593 L338.1287 142.2823 L333.7713 143.2512 L329.4751 144.4628 L325.2536 145.9135
 L321.1201 147.5985 L317.0876 149.5127 L313.1687 151.6499 L309.3759 154.0036 L305.7209 156.5662 L302.2154 159.3297 L298.8704 162.2854
 L295.6964 165.424 L292.7033 168.7356 L289.9007 172.2099 L287.2972 175.8358 L284.9012 179.6021 L282.7201 183.4967 L280.7608 187.5075
 L279.0295 191.6218 L277.5316 195.8268z" fill="rgb(255,215,0)"/>
</g>
<g stroke="rgb(0,0,139)" stroke-width="1.0627" stroke-linejoin="round" >
<path d="M192.6426 146.7484 L222.5775 160.5485 L206.4428 116.8135 L162.7078 132.9482z" fill="rgb(255,215,0)"/>
</g>
</svg>
