<?xml version="1.0" encoding="utf-8" standalone="no"?>
<!DOCTYPE svg PUBLIC "-//W3C//DTD SVG 1.1//EN" "http://www.w3.org/TR/2001/REC-SVG-20010904/DTD/svg11.dtd">
<svg width="10cm" height="10cm" viewBox="0 0 378 378" overflow="hidden"
 version="1.1" xmlns="http://www.w3.org/2000/svg"  xmlns:xlink="http://www.w3.org/1999/xlink">
<!--tangram  (Utilisateur) -->
<g stroke="rgb(0,0,139)" stroke-width="1.0627" stroke-linejoin="round" >
<path d="M164.4093 220.5831 L188.7663 180.8362 L185.5727 179.0477 L182.2486 177.5153 L178.8145 176.2484 L175.2917 175.2549 L171.7017 174.5408
 L168.0668 174.1105 L164.4093 173.9668 L160.7519 174.1105 L157.1169 174.5408 L153.527 175.2549z" fill="rgb(255,215,0)"/>
</g>
<g stroke="rgb(0,0,139)" stroke-width="1.0627" stroke-linejoin="round" >
<path d="M204.0332 185.9037 L247.7681 202.0384 L248.8992 198.5572 L249.7537 194.9981 L250.3263 191.3828 L250.6135 187.7338 L250.6135 184.0735
 L250.3263 180.4245 L249.7537 176.8093 L248.8992 173.2501 L247.7681 169.769 L246.3674 166.3873z" fill="rgb(255,215,0)"/>
</g>
<g stroke="rgb(0,0,139)" stroke-width="1.0627" stroke-linejoin="round" >
<path d="M204.0332 180.9593 L266.5579 274.5342 L267.3172 270.4374 L267.969 266.322 L268.5129 262.1911 L268.9484 258.0473 L269.2753 253.8935
 L269.4934 249.7326 L269.6025 245.5674 L269.6025 241.4007 L269.4934 237.2356 L269.2753 233.0746 L268.9484 228.9209 L268.5129 224.7771
 L267.969 220.6461 L267.3172 216.5307 L266.5579 212.4339 L265.6916 208.3583 L264.719 204.3068 L263.6406 200.2822 L262.4572 196.2871
 L261.1696 192.3244 L259.7788 188.3968 L258.2856 184.5069 L256.6911 180.6575 L254.9964 176.8511 L253.2026 173.0903 L251.311 169.3778
 L249.3228 165.7161 L247.2395 162.1077 L245.0625 158.5551 L242.7932 155.0607z" fill="rgb(255,215,0)"/>
</g>
<g stroke="rgb(0,0,139)" stroke-width="1.0627" stroke-linejoin="round" >
<path d="M225.059 152.941 L325.3343 101.8482 L321.3551 100.6126 L317.3449 99.4816 L313.3065 98.456 L309.2426 97.5364 L305.156 96.7235
 L301.0496 96.0179 L296.9261 95.4201 L292.7884 94.9303 L288.6392 94.5491 L284.4815 94.2766 L280.3181 94.113 L276.1518 94.0584
 L271.9856 94.113 L267.8221 94.2766 L263.6644 94.5491 L259.5153 94.9303 L255.3776 95.4201 L251.254 96.0179 L247.1476 96.7235
 L243.061 97.5364 L238.9972 98.456 L234.9587 99.4816 L230.9485 100.6126 L226.9693 101.8482 L223.0238 103.1875 L219.1147 104.6296
 L215.2447 106.1736 L211.4165 107.8184 L207.6326 109.5628 L203.8957 111.4056z" fill="rgb(255,215,0)"/>
</g>
<g stroke="rgb(0,0,139)" stroke-width="1.0627" stroke-linejoin="round" >
<path d="M149.2105 228.7895 L211.7052 278.0563 L198.4774 166.2948z" fill="rgb(255,215,0)"/>
</g>
<g stroke="rgb(0,0,139)" stroke-width="1.0627" stroke-linejoin="round" >
<path d="M168.1398 228.7895 L152.6147 306.8393 L246.1897 244.3146z" fill="rgb(255,215,0)"/>
</g>
<g stroke="rgb(0,0,139)" stroke-width="1.0627" stroke-linejoin="round" >
<path d="M211.0256 173.9668 L243.9883 141.0042 L243.9883 94.3879 L211.0256 61.4252 L207.959 64.6689 L205.0791 68.0794 L202.3949 71.646 L199.915 75.3575 L197.6471 79.2022
 L195.5983 83.168 L193.7751 87.2425 L192.1832 91.4128 L190.8276 95.6658 L189.7127 99.988 L188.8418 104.3661 L188.2178 108.786
 L187.8427 113.234 L187.7175 117.696 L187.8427 122.1581 L188.2178 126.606 L188.8418 131.026 L189.7127 135.404 L190.8276 139.7263
 L192.1832 143.9793 L193.7751 148.1496 L195.5983 152.224 L197.6471 156.1899 L199.915 160.0346 L202.3949 163.7461 L205.0791 167.3127
 L207.959 170.7232 L211.0256 173.9668z" fill="rgb(255,215,0)"/>
</g>
<g stroke="rgb(0,0,139)" stroke-width="1.0627" stroke-linejoin="round" >
<path d="M108.7041 248.6014 L150.2395 227.438 L164.6447 183.1033 L143.4813 141.5679 L139.5625 143.7052 L135.7696 146.0588 L132.1147 148.6214 L128.6092 151.3849 L125.2642 154.3406
 L122.0902 157.4793 L119.0971 160.7909 L116.2945 164.2652 L113.691 167.8911 L111.295 171.6573 L109.1139 175.5519 L107.1546 179.5628
 L105.4233 183.6771 L103.9254 187.8821 L102.6656 192.1644 L101.6479 196.5106 L100.8755 200.9071 L100.3508 205.3399 L100.0756 209.7952
 L100.0505 214.2589 L100.2758 218.717 L100.7507 223.1554 L101.4737 227.5603 L102.4426 231.9177 L103.6542 236.2138 L105.1048 240.4353
 L106.7899 244.5689 L108.7041 248.6014z" fill="rgb(255,215,0)"/>
</g>
<g stroke="rgb(0,0,139)" stroke-width="1.0627" stroke-linejoin="round" >
<path d="M120.3096 224.7277 L153.2723 224.7277 L120.3096 257.6904 L87.3469 224.7277z" fill="rgb(255,215,0)"/>
</g>
</svg>
