<?xml version="1.0" encoding="utf-8" standalone="no"?>
<!DOCTYPE svg PUBLIC "-//W3C//DTD SVG 1.1//EN" "http://www.w3.org/TR/2001/REC-SVG-20010904/DTD/svg11.dtd">
<svg width="10cm" height="10cm" viewBox="0 0 378 378" overflow="hidden"
 version="1.1" xmlns="http://www.w3.org/2000/svg"  xmlns:xlink="http://www.w3.org/1999/xlink">
<!--tangram  (Utilisateur) -->
<g stroke="rgb(0,0,139)" stroke-width="1.0627" stroke-linejoin="round" >
<path d="M262.6055 125.4883 L223.8455 99.5897 L221.933 102.7106 L220.2713 105.9719 L218.8705 109.3536 L217.7394 112.8347 L216.885 116.3939
 L216.3124 120.0091 L216.0252 123.6581 L216.0252 127.3184 L216.3124 130.9674 L216.885 134.5827z" fill="rgb(255,215,0)"/>
</g>
<g stroke="rgb(0,0,139)" stroke-width="1.0627" stroke-linejoin="round" >
<path d="M135.9962 132.7292 L126.9018 178.4497 L130.517 179.0223 L134.166 179.3095 L137.8263 179.3095 L141.4753 179.0223 L145.0906 178.4497
 L148.6497 177.5953 L152.1309 176.4642 L155.5125 175.0634 L158.7739 173.4017 L161.8948 171.4892z" fill="rgb(255,215,0)"/>
</g>
<g stroke="rgb(0,0,139)" stroke-width="1.0627" stroke-linejoin="round" >
<path d="M144.2368 204.0675 L254.616 182.1117 L251.1216 179.8424 L247.569 177.6653 L243.9606 175.582 L240.2989 173.5939 L236.5864 171.7023
 L232.8256 169.9085 L229.0192 168.2138 L225.1698 166.6193 L221.2799 165.1261 L217.3523 163.7352 L213.3896 162.4477 L209.3945 161.2643
 L205.3699 160.1859 L201.3184 159.2132 L197.2428 158.3469 L193.1459 157.5876 L189.0306 156.9358 L184.8996 156.392 L180.7558 155.9564
 L176.602 155.6295 L172.4411 155.4114 L168.2759 155.3024 L164.1093 155.3024 L159.9441 155.4114 L155.7832 155.6295 L151.6294 155.9564
 L147.4856 156.392 L143.3546 156.9358 L139.2393 157.5876 L135.1425 158.3469z" fill="rgb(255,215,0)"/>
</g>
<g stroke="rgb(0,0,139)" stroke-width="1.0627" stroke-linejoin="round" >
<path d="M76.312 220.5488 L138.8367 126.9739 L134.7612 127.8402 L130.7097 128.8128 L126.685 129.8912 L122.69 131.0746 L118.7273 132.3622
 L114.7996 133.753 L110.9098 135.2462 L107.0603 136.8407 L103.2539 138.5354 L99.4932 140.3292 L95.7807 142.2208 L92.119 144.209
 L88.5106 146.2923 L84.9579 148.4693 L81.4635 150.7386 L78.0297 153.0986 L74.6588 155.5477 L71.3532 158.0842 L68.1151 160.7063
 L64.9468 163.4123 L61.8504 166.2004 L58.828 169.0685 L55.8818 172.0147 L53.0137 175.0371 L50.2257 178.1335 L47.5197 181.3018
 L44.8975 184.5399 L42.361 187.8455 L39.912 191.2164 L37.552 194.6502z" fill="rgb(255,215,0)"/>
</g>
<g stroke="rgb(0,0,139)" stroke-width="1.0627" stroke-linejoin="round" >
<path d="M298.9816 153.6237 L314.5067 231.6735 L377.0314 138.0986z" fill="rgb(255,215,0)"/>
</g>
<g stroke="rgb(0,0,139)" stroke-width="1.0627" stroke-linejoin="round" >
<path d="M203.9211 275.4057 L147.6502 331.6766 L260.1919 331.6766z" fill="rgb(255,215,0)"/>
</g>
<g stroke="rgb(0,0,139)" stroke-width="1.0627" stroke-linejoin="round" >
<path d="M184.0263 255.511 L201.8656 212.4432 L184.0263 169.3754 L140.9585 151.5361 L139.3666 155.7064 L138.0111 159.9594 L136.8961 164.2817 L136.0253 168.6597 L135.4013 173.0796
 L135.0261 177.5276 L134.9009 181.9896 L135.0261 186.4517 L135.4013 190.8997 L136.0253 195.3196 L136.8961 199.6976 L138.0111 204.0199
 L139.3666 208.2729 L140.9585 212.4432 L142.7817 216.5177 L144.8305 220.4835 L147.0984 224.3282 L149.5784 228.0397 L152.2625 231.6063
 L155.1424 235.0168 L158.209 238.2605 L161.4527 241.3271 L164.8632 244.207 L168.4298 246.8911 L172.1413 249.3711 L175.986 251.639
 L179.9518 253.6878 L184.0263 255.511z" fill="rgb(255,215,0)"/>
</g>
<g stroke="rgb(0,0,139)" stroke-width="1.0627" stroke-linejoin="round" >
<path d="M283.5 195.8268 L283.5 149.2105 L250.5373 116.2478 L203.9211 116.2478 L204.0462 120.7099 L204.4214 125.1579 L205.0454 129.5778 L205.9163 133.9558 L207.0312 138.2781
 L208.3868 142.5311 L209.9786 146.7014 L211.8018 150.7759 L213.8506 154.7417 L216.1186 158.5864 L218.5985 162.2979 L221.2827 165.8645
 L224.1626 169.275 L227.2292 172.5187 L230.4728 175.5853 L233.8833 178.4652 L237.4499 181.1493 L241.1614 183.6293 L245.0062 185.8972
 L248.972 187.946 L253.0465 189.7692 L257.2167 191.3611 L261.4697 192.7166 L265.792 193.8316 L270.17 194.7024 L274.59 195.3264
 L279.038 195.7016 L283.5 195.8268z" fill="rgb(255,215,0)"/>
</g>
<g stroke="rgb(0,0,139)" stroke-width="1.0627" stroke-linejoin="round" >
<path d="M201.5074 173.5184 L233.8367 179.9491 L207.9381 141.1891 L169.1781 167.0877z" fill="rgb(255,215,0)"/>
</g>
</svg>
