<?xml version="1.0" encoding="utf-8" standalone="no"?>
<!DOCTYPE svg PUBLIC "-//W3C//DTD SVG 1.1//EN" "http://www.w3.org/TR/2001/REC-SVG-20010904/DTD/svg11.dtd">
<svg width="10cm" height="10cm" viewBox="0 0 378 378" overflow="hidden"
 version="1.1" xmlns="http://www.w3.org/2000/svg"  xmlns:xlink="http://www.w3.org/1999/xlink">
<!--fond  (Utilisateur) -->
<g  stroke-linejoin="round" >
<polygon fill="rgb(0,0,139)" points="0,0,0,378,378,378,378,0"/>
</g>
<!--tangram  (Utilisateur) -->
<g stroke="rgb(0,0,139)" stroke-width="1.0627" stroke-linejoin="round" >
<path d="M156.0373 83.2852 L189 50.3225 L186.3122 47.8379 L183.4377 45.5718 L180.3943 43.5383 L177.2007 41.7498 L173.8766 40.2174
 L170.4425 38.9505 L166.9197 37.9569 L163.3297 37.2428 L159.6948 36.8126 L156.0373 36.6689z" fill="rgb(255,215,0)"/>
</g>
<g stroke="rgb(0,0,139)" stroke-width="1.0627" stroke-linejoin="round" >
<path d="M156.0373 83.2852 L202.6536 83.2852 A46.6163,46.6163 0 0,0 189,50.3225z" fill="rgb(255,215,0)"/>
</g>
<g stroke="rgb(0,0,139)" stroke-width="1.0627" stroke-linejoin="round" >
<path d="M189 228.7895 L268.5789 149.2105 L264.4127 149.2651 L260.2493 149.4286 L256.0916 149.7012 L251.9424 150.0824 L247.8047 150.5721
 L243.6812 151.17 L239.5747 151.8756 L235.4882 152.6885 L231.4243 153.6081 L227.3859 154.6337 L223.3757 155.7647 L219.3965 157.0003
 L215.451 158.3396 L211.5419 159.7817 L207.6719 161.3257 L203.8436 162.9704 L200.0597 164.7148 L196.3228 166.5577 L192.6354 168.4977
 L189 170.5336 L185.4192 172.664 L181.8953 174.8874 L178.4309 177.2022 L175.0283 179.607 L171.6898 182.1 L168.4176 184.6795
 L165.2142 187.3438 L162.0815 190.0911 L159.0219 192.9194 L156.0373 195.8268z" fill="rgb(255,215,0)"/>
</g>
<g stroke="rgb(0,0,139)" stroke-width="1.0627" stroke-linejoin="round" >
<path d="M156.0373 195.8268 L156.0373 83.2852 L153.1299 86.2697 L150.3016 89.3294 L147.5543 92.462 L144.89 95.6655 L142.3105 98.9376
 L139.8175 102.2761 L137.4128 105.6788 L135.0979 109.1432 L132.8745 112.667 L130.7442 116.2478 L128.7083 119.8832 L126.7682 123.5706
 L124.9254 127.3076 L123.181 131.0914 L121.5362 134.9197 L119.9923 138.7897 L118.5501 142.6988 L117.2108 146.6443 L115.9752 150.6235
 L114.8442 154.6337 L113.8186 158.6721 L112.899 162.736 L112.0862 166.8226 L111.3806 170.929 L110.7827 175.0525 L110.2929 179.1903
 L109.9117 183.3394 L109.6392 187.4971 L109.4756 191.6605 L109.4211 195.8268z" fill="rgb(255,215,0)"/>
</g>
<g stroke="rgb(0,0,139)" stroke-width="1.0627" stroke-linejoin="round" >
<path d="M301.5416 195.8268 L301.5416 116.2478 L221.9627 195.8268z" fill="rgb(255,215,0)"/>
</g>
<g stroke="rgb(0,0,139)" stroke-width="1.0627" stroke-linejoin="round" >
<path d="M189 275.4057 L132.7292 331.6766 L245.2708 331.6766z" fill="rgb(255,215,0)"/>
</g>
<g stroke="rgb(0,0,139)" stroke-width="1.0627" stroke-linejoin="round" >
<path d="M109.4211 195.8268 L156.0373 195.8268 L189 228.7895 L189 275.4057 A79.5789,79.5789 0 0,1 109.4211,195.8268z" fill="rgb(255,215,0)"/>
</g>
<g stroke="rgb(0,0,139)" stroke-width="1.0627" stroke-linejoin="round" >
<path d="M268.5789 195.8268 L221.9627 195.8268 L189 228.7895 L189 275.4057 L193.462 275.2805 L197.91 274.9054 L202.33 274.2814 L206.708 273.4105 L211.0303 272.2956
 L215.2833 270.94 L219.4535 269.3482 L223.528 267.5249 L227.4938 265.4762 L231.3386 263.2082 L235.0501 260.7283 L238.6167 258.0441
 L242.0272 255.1642 L245.2708 252.0976 L248.3374 248.854 L251.2173 245.4435 L253.9015 241.8768 L256.3814 238.1653 L258.6494 234.3206
 L260.6982 230.3548 L262.5214 226.2803 L264.1132 222.1101 L265.4688 217.8571 L266.5837 213.5348 L267.4546 209.1568 L268.0786 204.7368
 L268.4538 200.2888 L268.5789 195.8268z" fill="rgb(255,215,0)"/>
</g>
<g stroke="rgb(0,0,139)" stroke-width="1.0627" stroke-linejoin="round" >
<path d="M179.3455 106.5933 L202.6536 129.9014 L202.6536 83.2852 L156.0373 83.2852z" fill="rgb(255,215,0)"/>
</g>
</svg>
