<?xml version="1.0" encoding="utf-8" standalone="no"?>
<!DOCTYPE svg PUBLIC "-//W3C//DTD SVG 1.1//EN" "http://www.w3.org/TR/2001/REC-SVG-20010904/DTD/svg11.dtd">
<svg width="10cm" height="10cm" viewBox="0 0 378 378" overflow="hidden"
 version="1.1" xmlns="http://www.w3.org/2000/svg"  xmlns:xlink="http://www.w3.org/1999/xlink">
<!--fond  (Utilisateur) -->
<g  stroke-linejoin="round" >
<polygon fill="rgb(0,0,139)" points="0,0,0,378,378,378,378,0"/>
</g>
<!--tangram  (Utilisateur) -->
<g stroke="rgb(0,0,139)" stroke-width="1.0627" stroke-linejoin="round" >
<path d="M221.9627 195.8268 L268.5789 195.8268 A46.6163,46.6163 0 0,0 254.9254,162.8641z" fill="rgb(255,215,0)"/>
</g>
<g stroke="rgb(0,0,139)" stroke-width="1.0627" stroke-linejoin="round" >
<path d="M221.9627 83.2852 L175.3464 83.2852 L175.4901 79.6277 L175.9203 75.9928 L176.6344 72.4028 L177.628 68.8799 L178.8949 65.4459
 L180.4273 62.1218 L182.2158 58.9282 L184.2493 55.8848 L186.5154 53.0103 L189 50.3225z" fill="rgb(255,215,0)"/>
</g>
<g stroke="rgb(0,0,139)" stroke-width="1.0627" stroke-linejoin="round" >
<path d="M254.9254 162.8641 L175.3464 83.2852 L175.401 87.4514 L175.5645 91.6148 L175.837 95.7726 L176.2183 99.9217 L176.708 104.0594
 L177.3059 108.1829 L178.0115 112.2894 L178.8244 116.376 L179.744 120.4398 L180.7696 124.4783 L181.9006 128.4885 L183.1362 132.4677
 L184.4755 136.4132 L185.9176 140.3223 L187.4616 144.1923 L189.1063 148.0205 L190.8507 151.8044 L192.6936 155.5413 L194.6336 159.2288
 L196.6695 162.8641 L198.7999 166.4449 L201.0233 169.9688 L203.3381 173.4332 L205.7429 176.8358 L208.2359 180.1744 L210.8154 183.4465
 L213.4797 186.65 L216.2269 189.7826 L219.0552 192.8422 L221.9627 195.8268z" fill="rgb(255,215,0)"/>
</g>
<g stroke="rgb(0,0,139)" stroke-width="1.0627" stroke-linejoin="round" >
<path d="M189 228.7895 L76.4584 228.7895 L79.4429 231.6969 L82.5026 234.5252 L85.6352 237.2725 L88.8387 239.9368 L92.1108 242.5163
 L95.4493 245.0093 L98.852 247.414 L102.3164 249.7289 L105.8402 251.9523 L109.4211 254.0826 L113.0564 256.1185 L116.7438 258.0586
 L120.4808 259.9014 L124.2647 261.6458 L128.0929 263.2906 L131.9629 264.8345 L135.872 266.2767 L139.8175 267.616 L143.7967 268.8516
 L147.8069 269.9826 L151.8453 271.0082 L155.9092 271.9278 L159.9958 272.7406 L164.1022 273.4462 L168.2257 274.0441 L172.3635 274.5339
 L176.5126 274.9151 L180.6703 275.1876 L184.8337 275.3512 L189 275.4057z" fill="rgb(255,215,0)"/>
</g>
<g stroke="rgb(0,0,139)" stroke-width="1.0627" stroke-linejoin="round" >
<path d="M231.6172 139.556 L287.888 83.2852 L175.3464 83.2852z" fill="rgb(255,215,0)"/>
</g>
<g stroke="rgb(0,0,139)" stroke-width="1.0627" stroke-linejoin="round" >
<path d="M189 275.4057 L132.7292 331.6766 L245.2708 331.6766z" fill="rgb(255,215,0)"/>
</g>
<g stroke="rgb(0,0,139)" stroke-width="1.0627" stroke-linejoin="round" >
<path d="M268.5789 195.8268 L221.9627 195.8268 L189 228.7895 L189 275.4057 L193.462 275.2805 L197.91 274.9054 L202.33 274.2814 L206.708 273.4105 L211.0303 272.2956
 L215.2833 270.94 L219.4535 269.3482 L223.528 267.5249 L227.4938 265.4762 L231.3386 263.2082 L235.0501 260.7283 L238.6167 258.0441
 L242.0272 255.1642 L245.2708 252.0976 L248.3374 248.854 L251.2173 245.4435 L253.9015 241.8768 L256.3814 238.1653 L258.6494 234.3206
 L260.6982 230.3548 L262.5214 226.2803 L264.1132 222.1101 L265.4688 217.8571 L266.5837 213.5348 L267.4546 209.1568 L268.0786 204.7368
 L268.4538 200.2888 L268.5789 195.8268z" fill="rgb(255,215,0)"/>
</g>
<g stroke="rgb(0,0,139)" stroke-width="1.0627" stroke-linejoin="round" >
<path d="M109.4211 195.8268 L142.3837 228.7895 L189 228.7895 L221.9627 195.8268 L218.719 192.7602 L215.3085 189.8803 L211.7419 187.1961 L208.0304 184.7162 L204.1857 182.4482
 L200.2199 180.3995 L196.1454 178.5762 L191.9751 176.9844 L187.7221 175.6288 L183.3998 174.5139 L179.0218 173.643 L174.6019 173.019
 L170.1539 172.6439 L165.6919 172.5187 L161.2298 172.6439 L156.7819 173.019 L152.3619 173.643 L147.9839 174.5139 L143.6616 175.6288
 L139.4086 176.9844 L135.2383 178.5762 L131.1639 180.3995 L127.198 182.4482 L123.3533 184.7162 L119.6418 187.1961 L116.0752 189.8803
 L112.6647 192.7602 L109.4211 195.8268z" fill="rgb(255,215,0)"/>
</g>
<g stroke="rgb(0,0,139)" stroke-width="1.0627" stroke-linejoin="round" >
<path d="M109.4211 228.7895 L142.3837 228.7895 L109.4211 195.8268 L76.4584 228.7895z" fill="rgb(255,215,0)"/>
</g>
</svg>
