<?xml version="1.0" encoding="utf-8" standalone="no"?>
<!DOCTYPE svg PUBLIC "-//W3C//DTD SVG 1.1//EN" "http://www.w3.org/TR/2001/REC-SVG-20010904/DTD/svg11.dtd">
<svg width="10cm" height="10cm" viewBox="0 0 378 378" overflow="hidden"
 version="1.1" xmlns="http://www.w3.org/2000/svg"  xmlns:xlink="http://www.w3.org/1999/xlink">
<!--fond  (Utilisateur) -->
<g  stroke-linejoin="round" >
<polygon fill="rgb(0,0,139)" points="0,0,0,378,378,378,378,0"/>
</g>
<!--tangram  (Utilisateur) -->
<g stroke="rgb(0,0,139)" stroke-width="1.0627" stroke-linejoin="round" >
<path d="M125.1712 138.8733 L149.5281 99.1264 L146.3345 97.3379 L143.0105 95.8055 L139.5764 94.5386 L136.0535 93.545 L132.4636 92.831
 L128.8287 92.4007 L125.1712 92.257 L121.5137 92.4007 L117.8788 92.831 L114.2888 93.545z" fill="rgb(255,215,0)"/>
</g>
<g stroke="rgb(0,0,139)" stroke-width="1.0627" stroke-linejoin="round" >
<path d="M139.1561 134.7772 L185.7723 134.7772 A46.6163,46.6163 0 0,0 172.1188,101.8145z" fill="rgb(255,215,0)"/>
</g>
<g stroke="rgb(0,0,139)" stroke-width="1.0627" stroke-linejoin="round" >
<path d="M215.77 216.8526 L322.8035 182.0754 L319.0666 180.2325 L315.2827 178.4881 L311.4544 176.8434 L307.5844 175.2994 L303.6753 173.8572
 L299.7298 172.5179 L295.7506 171.2823 L291.7404 170.1514 L287.702 169.1257 L283.6381 168.2062 L279.5515 167.3933 L275.4451 166.6877
 L271.3216 166.0898 L267.1839 165.6001 L263.0347 165.2188 L258.877 164.9463 L254.7136 164.7827 L250.5473 164.7282 L246.3811 164.7827
 L242.2176 164.9463 L238.0599 165.2188 L233.9108 165.6001 L229.773 166.0898 L225.6495 166.6877 L221.5431 167.3933 L217.4565 168.2062
 L213.3927 169.1257 L209.3542 170.1514 L205.344 171.2823 L201.3648 172.5179z" fill="rgb(255,215,0)"/>
</g>
<g stroke="rgb(0,0,139)" stroke-width="1.0627" stroke-linejoin="round" >
<path d="M182.8074 203.6676 L156.535 94.2355 L154.4047 97.8163 L152.3688 101.4517 L150.4287 105.1391 L148.5859 108.876 L146.8415 112.6599
 L145.1967 116.4881 L143.6528 120.3582 L142.2106 124.2672 L140.8713 128.2127 L139.6357 132.192 L138.5047 136.2021 L137.4791 140.2406
 L136.5595 144.3045 L135.7467 148.391 L135.0411 152.4975 L134.4432 156.621 L133.9534 160.7587 L133.5722 164.9079 L133.2997 169.0656
 L133.1361 173.229 L133.0816 177.3952 L133.1361 181.5615 L133.2997 185.7249 L133.5722 189.8826 L133.9534 194.0318 L134.4432 198.1695
 L135.0411 202.293 L135.7467 206.3995 L136.5595 210.486 L137.4791 214.5499z" fill="rgb(255,215,0)"/>
</g>
<g stroke="rgb(0,0,139)" stroke-width="1.0627" stroke-linejoin="round" >
<path d="M227.0242 203.6676 L263.1523 132.7622 L156.1188 167.5395z" fill="rgb(255,215,0)"/>
</g>
<g stroke="rgb(0,0,139)" stroke-width="1.0627" stroke-linejoin="round" >
<path d="M189 266.3653 L132.7292 322.6361 L245.2708 322.6361z" fill="rgb(255,215,0)"/>
</g>
<g stroke="rgb(0,0,139)" stroke-width="1.0627" stroke-linejoin="round" >
<path d="M102.4286 203.6676 L149.0449 203.6676 L182.0076 170.7049 L182.0076 124.0886 A79.5789,79.5789 0 0,0 102.4286,203.6676z" fill="rgb(255,215,0)"/>
</g>
<g stroke="rgb(0,0,139)" stroke-width="1.0627" stroke-linejoin="round" >
<path d="M261.5865 203.6676 L265.244 250.1401 L300.6913 280.415 L347.1638 276.7575 L346.6889 272.319 L345.9659 267.9142 L344.9971 263.5568 L343.7854 259.2606 L342.3348 255.0392
 L340.6497 250.9056 L338.7356 246.8731 L336.5983 242.9542 L334.2447 239.1614 L331.6821 235.5065 L328.9186 232.001 L325.9629 228.656
 L322.8242 225.4819 L319.5126 222.4889 L316.0383 219.6862 L312.4124 217.0828 L308.6462 214.6867 L304.7516 212.5056 L300.7407 210.5463
 L296.6264 208.815 L292.4214 207.3171 L288.1391 206.0573 L283.7929 205.0397 L279.3964 204.2673 L274.9636 203.7426 L270.5083 203.4673
 L266.0446 203.4423 L261.5865 203.6676z" fill="rgb(255,215,0)"/>
</g>
<g stroke="rgb(0,0,139)" stroke-width="1.0627" stroke-linejoin="round" >
<path d="M182.2418 124.3229 L214.7987 119.1664 L177.0853 91.766 L149.685 129.4794z" fill="rgb(255,215,0)"/>
</g>
</svg>
