<?xml version="1.0" encoding="utf-8" standalone="no"?>
<!DOCTYPE svg PUBLIC "-//W3C//DTD SVG 1.1//EN" "http://www.w3.org/TR/2001/REC-SVG-20010904/DTD/svg11.dtd">
<svg width="10cm" height="10cm" viewBox="0 0 378 378" overflow="hidden"
 version="1.1" xmlns="http://www.w3.org/2000/svg"  xmlns:xlink="http://www.w3.org/1999/xlink">
<!--fond  (Utilisateur) -->
<g  stroke-linejoin="round" >
<polygon fill="rgb(0,0,139)" points="0,0,0,378,378,378,378,0"/>
</g>
<!--tangram  (Utilisateur) -->
<g stroke="rgb(0,0,139)" stroke-width="1.0627" stroke-linejoin="round" >
<path d="M184.7383 225.8931 L170.3331 181.5584 L166.899 182.8253 L163.5749 184.3577 L160.3813 186.1462 L157.3379 188.1798 L154.4634 190.4458
 L151.7756 192.9304 L149.291 195.6183 L147.0249 198.4928 L144.9914 201.5362 L143.2029 204.7298z" fill="rgb(255,215,0)"/>
</g>
<g stroke="rgb(0,0,139)" stroke-width="1.0627" stroke-linejoin="round" >
<path d="M198.7232 234.9821 L195.0657 281.4547 L198.7232 281.5984 L202.3806 281.4547 L206.0155 281.0244 L209.6055 280.3104 L213.1284 279.3168
 L216.5624 278.0499 L219.8865 276.5175 L223.0801 274.729 L226.1235 272.6955 L228.998 270.4294z" fill="rgb(255,215,0)"/>
</g>
<g stroke="rgb(0,0,139)" stroke-width="1.0627" stroke-linejoin="round" >
<path d="M198.7232 211.9082 L241.791 107.9333 L237.9627 109.5781 L234.1788 111.3225 L230.4419 113.1653 L226.7545 115.1054 L223.1191 117.1413
 L219.5383 119.2716 L216.0145 121.495 L212.55 123.8099 L209.1474 126.2146 L205.8089 128.7076 L202.5368 131.2871 L199.3333 133.9514
 L196.2006 136.6987 L193.141 139.527 L190.1564 142.4344 L187.249 145.419 L184.4207 148.4786 L181.6735 151.6113 L179.0091 154.8147
 L176.4296 158.0869 L173.9366 161.4254 L171.5319 164.828 L169.217 168.2924 L166.9936 171.8163 L164.8633 175.3971 L162.8274 179.0325
 L160.8873 182.7199 L159.0445 186.4568 L157.3001 190.2407 L155.6553 194.069z" fill="rgb(255,215,0)"/>
</g>
<g stroke="rgb(0,0,139)" stroke-width="1.0627" stroke-linejoin="round" >
<path d="M175.9806 202.0194 L109.8303 110.9713 L109.2324 115.0948 L108.7427 119.2326 L108.3614 123.3817 L108.0889 127.5394 L107.9253 131.7028
 L107.8708 135.8691 L107.9253 140.0354 L108.0889 144.1988 L108.3614 148.3565 L108.7427 152.5056 L109.2324 156.6434 L109.8303 160.7669
 L110.5359 164.8733 L111.3487 168.9599 L112.2683 173.0238 L113.2939 177.0622 L114.4249 181.0724 L115.6605 185.0516 L116.9998 188.9971
 L118.442 192.9062 L119.9859 196.7762 L121.6307 200.6045 L123.3751 204.3884 L125.2179 208.1253 L127.158 211.8127 L129.1939 215.4481
 L131.3242 219.0289 L133.5476 222.5527 L135.8625 226.0171 L138.2672 229.4198z" fill="rgb(255,215,0)"/>
</g>
<g stroke="rgb(0,0,139)" stroke-width="1.0627" stroke-linejoin="round" >
<path d="M149.2105 228.7895 L226.5907 247.3668 L167.7879 151.4093z" fill="rgb(255,215,0)"/>
</g>
<g stroke="rgb(0,0,139)" stroke-width="1.0627" stroke-linejoin="round" >
<path d="M237.5472 228.7895 L311.0685 198.3359 L207.0936 155.2681z" fill="rgb(255,215,0)"/>
</g>
<g stroke="rgb(0,0,139)" stroke-width="1.0627" stroke-linejoin="round" >
<path d="M231.3545 179.2768 L264.3172 146.3142 L264.3172 99.6979 L231.3545 66.7352 L228.2879 69.9789 L225.408 73.3894 L222.7239 76.956 L220.2439 80.6675 L217.976 84.5122
 L215.9272 88.478 L214.104 92.5525 L212.5121 96.7228 L211.1566 100.9758 L210.0416 105.298 L209.1708 109.6761 L208.5468 114.096
 L208.1716 118.544 L208.0464 123.006 L208.1716 127.4681 L208.5468 131.916 L209.1708 136.336 L210.0416 140.714 L211.1566 145.0363
 L212.5121 149.2893 L214.104 153.4596 L215.9272 157.534 L217.976 161.4999 L220.2439 165.3446 L222.7239 169.0561 L225.408 172.6227
 L228.2879 176.0332 L231.3545 179.2768z" fill="rgb(255,215,0)"/>
</g>
<g stroke="rgb(0,0,139)" stroke-width="1.0627" stroke-linejoin="round" >
<path d="M216.5699 235.7819 L189.1695 198.0686 L143.1272 190.7762 L105.4138 218.1765 L108.1378 221.7128 L111.0558 225.0908 L114.1586 228.2998 L117.4365 231.3298 L120.879 234.1713
 L124.4755 236.8153 L128.2146 239.2534 L132.0846 241.4781 L136.0731 243.4822 L140.1678 245.2596 L144.3557 246.8046 L148.6236 248.1123
 L152.9581 249.1787 L157.3456 250.0004 L161.7723 250.5748 L166.2242 250.9 L170.6874 250.9751 L175.1477 250.7999 L179.5912 250.3748
 L184.0039 249.7013 L188.3719 248.7814 L192.6814 247.618 L196.9189 246.2148 L201.071 244.5762 L205.1248 242.7074 L209.0674 240.6143
 L212.8864 238.3033 L216.5699 235.7819z" fill="rgb(255,215,0)"/>
</g>
<g stroke="rgb(0,0,139)" stroke-width="1.0627" stroke-linejoin="round" >
<path d="M220.6659 124.3714 L253.6286 124.3714 L220.6659 157.3341 L187.7033 124.3714z" fill="rgb(255,215,0)"/>
</g>
</svg>
