<?xml version="1.0" encoding="utf-8" standalone="no"?>
<!DOCTYPE svg PUBLIC "-//W3C//DTD SVG 1.1//EN" "http://www.w3.org/TR/2001/REC-SVG-20010904/DTD/svg11.dtd">
<svg width="10cm" height="10cm" viewBox="0 0 378 378" overflow="hidden"
 version="1.1" xmlns="http://www.w3.org/2000/svg"  xmlns:xlink="http://www.w3.org/1999/xlink">
<!--tangram  (Utilisateur) -->
<g stroke="rgb(0,0,139)" stroke-width="1.0627" stroke-linejoin="round" >
<path d="M164.8921 205.15 L197.8547 172.1874 L195.1669 169.7028 L192.2924 167.4367 L189.249 165.4031 L186.0554 163.6146 L182.7313 162.0822
 L179.2973 160.8153 L175.7744 159.8218 L172.1844 159.1077 L168.5495 158.6775 L164.8921 158.5338z" fill="rgb(255,215,0)"/>
</g>
<g stroke="rgb(0,0,139)" stroke-width="1.0627" stroke-linejoin="round" >
<path d="M202.1851 167.857 L246.5198 153.4518 L245.2529 150.0178 L243.7205 146.6937 L241.932 143.5001 L239.8984 140.4567 L237.6324 137.5822
 L235.1478 134.8944 L232.4599 132.4097 L229.5854 130.1437 L226.542 128.1101 L223.3484 126.3216z" fill="rgb(255,215,0)"/>
</g>
<g stroke="rgb(0,0,139)" stroke-width="1.0627" stroke-linejoin="round" >
<path d="M202.1851 167.857 L219.7905 279.0131 L222.1952 275.6104 L224.5101 272.146 L226.7334 268.6222 L228.8638 265.0414 L230.8997 261.406
 L232.8397 257.7186 L234.6826 253.9817 L236.427 250.1978 L238.0717 246.3695 L239.6157 242.4995 L241.0579 238.5904 L242.3972 234.6449
 L243.6327 230.6657 L244.7637 226.6555 L245.7894 222.6171 L246.7089 218.5532 L247.5218 214.4666 L248.2274 210.3602 L248.8253 206.2367
 L249.315 202.099 L249.6963 197.9498 L249.9688 193.7921 L250.1324 189.6287 L250.1869 185.4624 L250.1324 181.2962 L249.9688 177.1327
 L249.6963 172.975 L249.315 168.8259 L248.8253 164.6881 L248.2274 160.5646z" fill="rgb(255,215,0)"/>
</g>
<g stroke="rgb(0,0,139)" stroke-width="1.0627" stroke-linejoin="round" >
<path d="M228.5552 141.4869 L328.8305 192.5797 L327.4912 188.6342 L326.0491 184.7251 L324.5051 180.8551 L322.8604 177.0269 L321.116 173.243
 L319.2731 169.506 L317.3331 165.8186 L315.2972 162.1833 L313.1668 158.6024 L310.9434 155.0786 L308.6286 151.6142 L306.2238 148.2116
 L303.7308 144.873 L301.1513 141.6009 L298.487 138.3974 L295.7398 135.2648 L292.9114 132.2051 L290.004 129.2206 L287.0195 126.3132
 L283.9598 123.4848 L280.8272 120.7376 L277.6237 118.0733 L274.3516 115.4938 L271.013 113.0008 L267.6104 110.596 L264.146 108.2812
 L260.6222 106.0578 L257.0413 103.9274 L253.406 101.8915 L249.7186 99.9515z" fill="rgb(255,215,0)"/>
</g>
<g stroke="rgb(0,0,139)" stroke-width="1.0627" stroke-linejoin="round" >
<path d="M157.1684 228.7895 L221.5491 275.5648 L203.9438 164.4088z" fill="rgb(255,215,0)"/>
</g>
<g stroke="rgb(0,0,139)" stroke-width="1.0627" stroke-linejoin="round" >
<path d="M157.1684 228.7895 L157.1684 308.3684 L236.7474 228.7895z" fill="rgb(255,215,0)"/>
</g>
<g stroke="rgb(0,0,139)" stroke-width="1.0627" stroke-linejoin="round" >
<path d="M186.2693 183.7728 L223.9826 156.3725 L231.275 110.3301 L203.8747 72.6168 L200.3384 75.3408 L196.9604 78.2588 L193.7514 81.3616 L190.7214 84.6394 L187.8799 88.082
 L185.2359 91.6785 L182.7978 95.4176 L180.5731 99.2875 L178.569 103.2761 L176.7916 107.3708 L175.2466 111.5586 L173.9389 115.8266
 L172.8725 120.1611 L172.0508 124.5486 L171.4764 128.9753 L171.1512 133.4272 L171.0761 137.8903 L171.2513 142.3507 L171.6764 146.7942
 L172.3499 151.2069 L173.2698 155.5748 L174.4332 159.8843 L175.8364 164.1218 L177.475 168.274 L179.3438 172.3278 L181.4369 176.2704
 L183.7479 180.0894 L186.2693 183.7728z" fill="rgb(255,215,0)"/>
</g>
<g stroke="rgb(0,0,139)" stroke-width="1.0627" stroke-linejoin="round" >
<path d="M117.1447 247.436 L154.858 274.8363 L200.9004 267.5439 L228.3007 229.8306 L224.6173 227.3092 L220.7983 224.9982 L216.8557 222.9051 L212.8019 221.0363 L208.6498 219.3977
 L204.4123 217.9945 L200.1027 216.8311 L195.7348 215.9112 L191.3221 215.2377 L186.8786 214.8126 L182.4183 214.6374 L177.9551 214.7125
 L173.5032 215.0378 L169.0765 215.6121 L164.689 216.4338 L160.3545 217.5002 L156.0866 218.8079 L151.8987 220.3529 L147.804 222.1303
 L143.8154 224.1344 L139.9455 226.3591 L136.2064 228.7973 L132.6099 231.4412 L129.1673 234.2827 L125.8895 237.3127 L122.7867 240.5217
 L119.8687 243.8997 L117.1447 247.436z" fill="rgb(255,215,0)"/>
</g>
<g stroke="rgb(0,0,139)" stroke-width="1.0627" stroke-linejoin="round" >
<path d="M112.1518 247.436 L145.1144 247.436 L112.1518 280.3987 L79.1891 247.436z" fill="rgb(255,215,0)"/>
</g>
</svg>
