<?xml version="1.0" encoding="utf-8" standalone="no"?>
<!DOCTYPE svg PUBLIC "-//W3C//DTD SVG 1.1//EN" "http://www.w3.org/TR/2001/REC-SVG-20010904/DTD/svg11.dtd">
<svg width="10cm" height="10cm" viewBox="0 0 378 378" overflow="hidden"
 version="1.1" xmlns="http://www.w3.org/2000/svg"  xmlns:xlink="http://www.w3.org/1999/xlink">
<!--fond  (Utilisateur) -->
<g  stroke-linejoin="round" >
<polygon fill="rgb(0,0,139)" points="0,0,0,378,378,378,378,0"/>
</g>
<!--tangram  (Utilisateur) -->
<g stroke="rgb(0,0,139)" stroke-width="1.0627" stroke-linejoin="round" >
<path d="M81.6856 260.6211 L74.3932 214.5787 L70.8032 215.2928 L67.2803 216.2863 L63.8463 217.5532 L60.5222 219.0857 L57.3286 220.8742
 L54.2852 222.9077 L51.4107 225.1738 L48.7229 227.6584 L46.2383 230.3462 L43.9722 233.2207z" fill="rgb(255,215,0)"/>
</g>
<g stroke="rgb(0,0,139)" stroke-width="1.0627" stroke-linejoin="round" >
<path d="M118.9786 256.2907 L160.514 277.4541 L162.0464 274.13 L163.3133 270.6959 L164.3068 267.1731 L165.0209 263.5831 L165.4511 259.9482
 L165.5948 256.2907 L165.4511 252.6332 L165.0209 248.9983 L164.3068 245.4084 L163.3133 241.8855z" fill="rgb(255,215,0)"/>
</g>
<g stroke="rgb(0,0,139)" stroke-width="1.0627" stroke-linejoin="round" >
<path d="M261.7522 196.9579 L372.9082 214.5633 L369.5056 216.968 L366.0411 219.2829 L362.5173 221.5063 L358.9365 223.6366 L355.3011 225.6725
 L351.6137 227.6126 L347.8768 229.4554 L344.0929 231.1998 L340.2646 232.8446 L336.3946 234.3885 L332.4855 235.8307 L328.54 237.17
 L324.5608 238.4056 L320.5506 239.5366 L316.5122 240.5622 L312.4483 241.4818 L308.3618 242.2946 L304.2553 243.0002 L300.1318 243.5981
 L295.9941 244.0879 L291.8449 244.4691 L287.6872 244.7416 L283.5238 244.9052 L279.3575 244.9597 L275.1913 244.9052 L271.0279 244.7416
 L266.8702 244.4691 L262.721 244.0879 L258.5833 243.5981 L254.4598 243.0002z" fill="rgb(255,215,0)"/>
</g>
<g stroke="rgb(0,0,139)" stroke-width="1.0627" stroke-linejoin="round" >
<path d="M226.0588 223.328 L135.0107 157.1777 L135.7163 161.2842 L136.5292 165.3707 L137.4487 169.4346 L138.4743 173.473 L139.6053 177.4832
 L140.8409 181.4624 L142.1802 185.4079 L143.6224 189.317 L145.1663 193.187 L146.8111 197.0153 L148.5555 200.7992 L150.3983 204.5361
 L152.3384 208.2235 L154.3743 211.8589 L156.5047 215.4397 L158.728 218.9636 L161.0429 222.428 L163.4476 225.8306 L165.9406 229.1691
 L168.5201 232.4413 L171.1845 235.6447 L173.9317 238.7774 L176.76 241.837 L179.6674 244.8216 L182.652 247.729 L185.7116 250.5573
 L188.8443 253.3046 L192.0478 255.9689 L195.3199 258.5484 L198.6584 261.0414z" fill="rgb(255,215,0)"/>
</g>
<g stroke="rgb(0,0,139)" stroke-width="1.0627" stroke-linejoin="round" >
<path d="M72.3623 223.328 L151.9412 223.328 L72.3623 302.907z" fill="rgb(255,215,0)"/>
</g>
<g stroke="rgb(0,0,139)" stroke-width="1.0627" stroke-linejoin="round" >
<path d="M206.2811 241.9745 L206.2811 321.5535 L285.8601 241.9745z" fill="rgb(255,215,0)"/>
</g>
<g stroke="rgb(0,0,139)" stroke-width="1.0627" stroke-linejoin="round" >
<path d="M117.3789 214.0048 L163.4213 206.7124 L190.8216 168.999 L183.5293 122.9567 L179.1417 123.7784 L174.8072 124.8447 L170.5393 126.1525 L166.3514 127.6975 L162.2567 129.4749
 L158.2682 131.479 L154.3983 133.7037 L150.6592 136.1418 L147.0627 138.7858 L143.6201 141.6273 L140.3422 144.6573 L137.2394 147.8663
 L134.3214 151.2443 L131.5974 154.7806 L129.076 158.464 L126.7651 162.283 L124.6719 166.2256 L122.8031 170.2794 L121.1645 174.4315
 L119.7613 178.669 L118.598 182.9786 L117.6781 187.3465 L117.0045 191.7592 L116.5795 196.2027 L116.4042 200.663 L116.4793 205.1262
 L116.8046 209.5781 L117.3789 214.0048z" fill="rgb(255,215,0)"/>
</g>
<g stroke="rgb(0,0,139)" stroke-width="1.0627" stroke-linejoin="round" >
<path d="M251.2978 223.328 L213.5844 195.9277 L167.5421 203.2201 L140.1417 240.9334 L143.8252 243.4549 L147.6442 245.7658 L151.5868 247.859 L155.6406 249.7278 L159.7927 251.3663
 L164.0302 252.7695 L168.3397 253.9329 L172.7077 254.8528 L177.1204 255.5263 L181.5639 255.9514 L186.0242 256.1266 L190.4874 256.0515
 L194.9393 255.7263 L199.366 255.1519 L203.7535 254.3302 L208.088 253.2639 L212.3559 251.9561 L216.5438 250.4111 L220.6385 248.6337
 L224.627 246.6296 L228.497 244.4049 L232.2361 241.9668 L235.8326 239.3228 L239.2751 236.4813 L242.553 233.4513 L245.6558 230.2423
 L248.5738 226.8643 L251.2978 223.328z" fill="rgb(255,215,0)"/>
</g>
<g stroke="rgb(0,0,139)" stroke-width="1.0627" stroke-linejoin="round" >
<path d="M206.2811 146.4798 L196.0951 115.1304 L174.9318 156.6658 L216.4672 177.8292z" fill="rgb(255,215,0)"/>
</g>
</svg>
