<?xml version="1.0" encoding="utf-8" standalone="no"?>
<!DOCTYPE svg PUBLIC "-//W3C//DTD SVG 1.1//EN" "http://www.w3.org/TR/2001/REC-SVG-20010904/DTD/svg11.dtd">
<svg width="10cm" height="10cm" viewBox="0 0 378 378" overflow="hidden"
 version="1.1" xmlns="http://www.w3.org/2000/svg"  xmlns:xlink="http://www.w3.org/1999/xlink">
<!--fond  (Utilisateur) -->
<g  stroke-linejoin="round" >
<polygon fill="rgb(0,0,139)" points="0,0,0,378,378,378,378,0"/>
</g>
<!--tangram  (Utilisateur) -->
<g stroke="rgb(0,0,139)" stroke-width="1.0627" stroke-linejoin="round" >
<path d="M170.919 191.1652 L203.8817 158.2025 L201.1939 155.7179 L198.3194 153.4518 L195.276 151.4183 L192.0824 149.6298 L188.7583 148.0974
 L185.3243 146.8305 L181.8014 145.8369 L178.2114 145.1228 L174.5765 144.6926 L170.919 144.5489z" fill="rgb(255,215,0)"/>
</g>
<g stroke="rgb(0,0,139)" stroke-width="1.0627" stroke-linejoin="round" >
<path d="M198.8888 163.1954 L236.6022 135.7951 L234.3361 132.9206 L231.8515 130.2327 L229.1636 127.7481 L226.2892 125.4821 L223.2457 123.4485
 L220.0521 121.66 L216.7281 120.1276 L213.294 118.8607 L209.7712 117.8671 L206.1812 117.1531z" fill="rgb(255,215,0)"/>
</g>
<g stroke="rgb(0,0,139)" stroke-width="1.0627" stroke-linejoin="round" >
<path d="M198.8888 163.1954 L233.6661 270.2289 L235.5089 266.4919 L237.2533 262.708 L238.8981 258.8798 L240.4421 255.0098 L241.8842 251.1007
 L243.2235 247.1552 L244.4591 243.176 L245.5901 239.1658 L246.6157 235.1274 L247.5353 231.0635 L248.3481 226.9769 L249.0538 222.8705
 L249.6516 218.747 L250.1414 214.6092 L250.5226 210.4601 L250.7951 206.3024 L250.9587 202.1389 L251.0133 197.9727 L250.9587 193.8064
 L250.7951 189.643 L250.5226 185.4853 L250.1414 181.3362 L249.6516 177.1984 L249.0538 173.0749 L248.3481 168.9685 L247.5353 164.8819
 L246.6157 160.818 L245.5901 156.7796 L244.4591 152.7694 L243.2235 148.7902z" fill="rgb(255,215,0)"/>
</g>
<g stroke="rgb(0,0,139)" stroke-width="1.0627" stroke-linejoin="round" >
<path d="M218.6664 143.4178 L284.8167 234.4659 L285.4146 230.3424 L285.9043 226.2046 L286.2856 222.0555 L286.5581 217.8978 L286.7217 213.7344
 L286.7762 209.5681 L286.7217 205.4018 L286.5581 201.2384 L286.2856 197.0807 L285.9043 192.9316 L285.4146 188.7938 L284.8167 184.6703
 L284.1111 180.5639 L283.2982 176.4773 L282.3787 172.4134 L281.353 168.375 L280.2221 164.3648 L278.9865 160.3856 L277.6472 156.4401
 L276.205 152.531 L274.661 148.661 L273.0163 144.8328 L271.2719 141.0489 L269.429 137.3119 L267.489 133.6245 L265.4531 129.9892
 L263.3227 126.4083 L261.0994 122.8845 L258.7845 119.4201 L256.3798 116.0174z" fill="rgb(255,215,0)"/>
</g>
<g stroke="rgb(0,0,139)" stroke-width="1.0627" stroke-linejoin="round" >
<path d="M165.1263 228.7895 L236.0317 264.9176 L201.2544 157.8841z" fill="rgb(255,215,0)"/>
</g>
<g stroke="rgb(0,0,139)" stroke-width="1.0627" stroke-linejoin="round" >
<path d="M165.1263 228.7895 L221.3971 285.0603 L221.3971 172.5187z" fill="rgb(255,215,0)"/>
</g>
<g stroke="rgb(0,0,139)" stroke-width="1.0627" stroke-linejoin="round" >
<path d="M167.0572 195.027 L208.5926 173.8636 L222.9978 129.5289 L201.8345 87.9935 L197.9156 90.1308 L194.1228 92.4844 L190.4679 95.047 L186.9624 97.8105 L183.6174 100.7662
 L180.4433 103.9049 L177.4503 107.2165 L174.6476 110.6908 L172.0442 114.3167 L169.6481 118.0829 L167.467 121.9775 L165.5077 125.9883
 L163.7764 130.1027 L162.2785 134.3077 L161.0187 138.59 L160.001 142.9362 L159.2287 147.3327 L158.704 151.7655 L158.4287 156.2208
 L158.4037 160.6845 L158.629 165.1426 L159.1038 169.581 L159.8269 173.9859 L160.7957 178.3433 L162.0074 182.6394 L163.458 186.8609
 L165.1431 190.9945 L167.0572 195.027z" fill="rgb(255,215,0)"/>
</g>
<g stroke="rgb(0,0,139)" stroke-width="1.0627" stroke-linejoin="round" >
<path d="M155.0033 242.7744 L169.4085 287.1091 L210.9439 308.2724 L255.2786 293.8672 L253.7807 289.6622 L252.0493 285.5479 L250.0901 281.5371 L247.909 277.6424 L245.5129 273.8762
 L242.9095 270.2503 L240.1068 266.776 L237.1138 263.4644 L233.9397 260.3258 L230.5947 257.3701 L227.0892 254.6066 L223.4343 252.044
 L219.6414 249.6903 L215.7226 247.5531 L211.6901 245.6389 L207.5565 243.9538 L203.335 242.5032 L199.0389 241.2916 L194.6815 240.3227
 L190.2766 239.5997 L185.8382 239.1248 L181.3801 238.8995 L176.9164 238.9246 L172.4611 239.1998 L168.0283 239.7245 L163.6318 240.4969
 L159.2856 241.5146 L155.0033 242.7744z" fill="rgb(255,215,0)"/>
</g>
<g stroke="rgb(0,0,139)" stroke-width="1.0627" stroke-linejoin="round" >
<path d="M131.3638 242.7744 L164.3265 242.7744 L131.3638 275.737 L98.4011 242.7744z" fill="rgb(255,215,0)"/>
</g>
</svg>
