<?xml version="1.0" encoding="utf-8" standalone="no"?>
<!DOCTYPE svg PUBLIC "-//W3C//DTD SVG 1.1//EN" "http://www.w3.org/TR/2001/REC-SVG-20010904/DTD/svg11.dtd">
<svg width="10cm" height="10cm" viewBox="0 0 378 378" overflow="hidden"
 version="1.1" xmlns="http://www.w3.org/2000/svg"  xmlns:xlink="http://www.w3.org/1999/xlink">
<!--fond  (Utilisateur) -->
<g  stroke-linejoin="round" >
<polygon fill="rgb(0,0,139)" points="0,0,0,378,378,378,378,0"/>
</g>
<!--tangram  (Utilisateur) -->
<g stroke="rgb(0,0,139)" stroke-width="1.0627" stroke-linejoin="round" >
<path d="M271.4703 159.2508 L250.3069 117.7154 L247.1134 119.5039 L244.0699 121.5374 L241.1954 123.8035 L238.5076 126.2881 L236.023 128.9759
 L233.7569 131.8504 L231.7234 134.8938 L229.9349 138.0874 L228.4025 141.4115 L227.1356 144.8455z" fill="rgb(255,215,0)"/>
</g>
<g stroke="rgb(0,0,139)" stroke-width="1.0627" stroke-linejoin="round" >
<path d="M161.7422 126.1367 L204.0764 145.653 L205.4772 142.2713 L206.6083 138.7902 L207.4628 135.231 L208.0353 131.6158 L208.3225 127.9668
 L208.3225 124.3065 L208.0353 120.6575 L207.4628 117.0423 L206.6083 113.4831 L205.4772 110.002z" fill="rgb(255,215,0)"/>
</g>
<g stroke="rgb(0,0,139)" stroke-width="1.0627" stroke-linejoin="round" >
<path d="M173.2791 184.2899 L249.6725 101.648 L245.5116 101.8661 L241.3578 102.193 L237.214 102.6285 L233.083 103.1724 L228.9677 103.8242
 L224.8708 104.5835 L220.7952 105.4498 L216.7437 106.4224 L212.7191 107.5008 L208.7241 108.6842 L204.7614 109.9718 L200.8337 111.3626
 L196.9438 112.8558 L193.0944 114.4503 L189.288 116.145 L185.5273 117.9388 L181.8148 119.8304 L178.1531 121.8186 L174.5447 123.9019
 L170.992 126.0789 L167.4976 128.3482 L164.0638 130.7082 L160.6929 133.1573 L157.3873 135.6938 L154.1492 138.3159 L150.9809 141.022
 L147.8845 143.81 L144.8621 146.6781 L141.9159 149.6243 L139.0478 152.6467z" fill="rgb(255,215,0)"/>
</g>
<g stroke="rgb(0,0,139)" stroke-width="1.0627" stroke-linejoin="round" >
<path d="M98.4789 228.7895 L94.0606 116.3346 L91.2726 119.431 L88.5666 122.5993 L85.9444 125.8374 L83.4079 129.143 L80.9589 132.5139
 L78.5989 135.9477 L76.3295 139.4421 L74.1525 142.9948 L72.0692 146.6032 L70.081 150.2649 L68.1894 153.9774 L66.3957 157.7381
 L64.7009 161.5445 L63.1064 165.394 L61.6133 169.2838 L60.2224 173.2115 L58.9348 177.1742 L57.7515 181.1692 L56.6731 185.1939
 L55.7004 189.2454 L54.8341 193.3209 L54.0748 197.4178 L53.423 201.5331 L52.8791 205.6641 L52.4436 209.8079 L52.1167 213.9617
 L51.8986 218.1226 L51.7895 222.2878 L51.7895 226.4544 L51.8986 230.6196z" fill="rgb(255,215,0)"/>
</g>
<g stroke="rgb(0,0,139)" stroke-width="1.0627" stroke-linejoin="round" >
<path d="M274.8494 139.556 L299.4406 215.2401 L350.5335 114.9647z" fill="rgb(255,215,0)"/>
</g>
<g stroke="rgb(0,0,139)" stroke-width="1.0627" stroke-linejoin="round" >
<path d="M201.9316 275.4057 L145.6608 331.6766 L258.2024 331.6766z" fill="rgb(255,215,0)"/>
</g>
<g stroke="rgb(0,0,139)" stroke-width="1.0627" stroke-linejoin="round" >
<path d="M229.7842 247.5531 L205.4273 207.8062 L160.099 196.9239 L120.3521 221.2808 L122.7903 225.0199 L125.4342 228.6164 L128.2757 232.059 L131.3057 235.3368 L134.5148 238.4396
 L137.8927 241.3576 L141.429 244.0816 L145.1124 246.6031 L148.9315 248.914 L152.8741 251.0071 L156.9278 252.876 L161.08 254.5145
 L165.3175 255.9177 L169.627 257.0811 L173.995 258.001 L178.4076 258.6745 L182.8511 259.0996 L187.3115 259.2748 L191.7746 259.1997
 L196.2265 258.8745 L200.6532 258.3001 L205.0407 257.4784 L209.3753 256.4121 L213.6432 255.1043 L217.8311 253.5593 L221.9257 251.7819
 L225.9143 249.7778 L229.7842 247.5531z" fill="rgb(255,215,0)"/>
</g>
<g stroke="rgb(0,0,139)" stroke-width="1.0627" stroke-linejoin="round" >
<path d="M225.8053 195.8268 L216.7109 150.1062 L177.9509 124.2076 L132.2303 133.302 L133.2236 137.6539 L134.4593 141.9432 L135.9336 146.1565 L137.6418 150.2805 L139.5786 154.3022
 L141.7378 158.209 L144.1127 161.9886 L146.6958 165.6291 L149.4789 169.119 L152.4533 172.4474 L155.6097 175.6038 L158.9381 178.5782
 L162.428 181.3613 L166.0685 183.9444 L169.8481 186.3193 L173.7549 188.4785 L177.7766 190.4153 L181.9006 192.1235 L186.1139 193.5978
 L190.4032 194.8335 L194.7551 195.8268 L199.1558 196.5745 L203.5915 197.0743 L208.0483 197.3246 L212.5121 197.3246 L216.9688 197.0743
 L221.4045 196.5745 L225.8053 195.8268z" fill="rgb(255,215,0)"/>
</g>
<g stroke="rgb(0,0,139)" stroke-width="1.0627" stroke-linejoin="round" >
<path d="M174.0789 207.3637 L207.0416 207.3637 L174.0789 174.4011 L141.1163 207.3637z" fill="rgb(255,215,0)"/>
</g>
</svg>
