<?xml version="1.0" encoding="utf-8" standalone="no"?>
<!DOCTYPE svg PUBLIC "-//W3C//DTD SVG 1.1//EN" "http://www.w3.org/TR/2001/REC-SVG-20010904/DTD/svg11.dtd">
<svg width="10cm" height="10cm" viewBox="0 0 378 378" overflow="hidden"
 version="1.1" xmlns="http://www.w3.org/2000/svg"  xmlns:xlink="http://www.w3.org/1999/xlink">
<!--tangram  (Utilisateur) -->
<g stroke="rgb(0,0,139)" stroke-width="1.0627" stroke-linejoin="round" >
<path d="M114.8825 157.4027 L136.0458 115.8673 L132.7218 114.3349 L129.2877 113.068 L125.7648 112.0744 L122.1749 111.3603 L118.54 110.9301
 L114.8825 110.7864 L111.225 110.9301 L107.5901 111.3603 L104.0001 112.0744 L100.4773 113.068z" fill="rgb(255,215,0)"/>
</g>
<g stroke="rgb(0,0,139)" stroke-width="1.0627" stroke-linejoin="round" >
<path d="M133.529 151.9412 L180.1453 151.9412 A46.6163,46.6163 0 0,0 166.4917,118.9786z" fill="rgb(255,215,0)"/>
</g>
<g stroke="rgb(0,0,139)" stroke-width="1.0627" stroke-linejoin="round" >
<path d="M224.6934 212.8737 L335.8494 195.2683 L332.4468 192.8635 L328.9824 190.5487 L325.4586 188.3253 L321.8777 186.195 L318.2424 184.1591
 L314.555 182.219 L310.818 180.3762 L307.0341 178.6318 L303.2059 176.987 L299.3359 175.443 L295.4268 174.0009 L291.4813 172.6616
 L287.5021 171.426 L283.4919 170.295 L279.4535 169.2694 L275.3896 168.3498 L271.303 167.537 L267.1966 166.8313 L263.0731 166.2335
 L258.9353 165.7437 L254.7862 165.3625 L250.6285 165.09 L246.4651 164.9264 L242.2988 164.8718 L238.1325 164.9264 L233.9691 165.09
 L229.8114 165.3625 L225.6623 165.7437 L221.5245 166.2335 L217.401 166.8313z" fill="rgb(255,215,0)"/>
</g>
<g stroke="rgb(0,0,139)" stroke-width="1.0627" stroke-linejoin="round" >
<path d="M191.7307 206.2811 L156.9534 99.2477 L155.1106 102.9846 L153.3662 106.7685 L151.7214 110.5968 L150.1775 114.4668 L148.7353 118.3759
 L147.396 122.3214 L146.1604 126.3006 L145.0294 130.3108 L144.0038 134.3492 L143.0843 138.4131 L142.2714 142.4997 L141.5658 146.6061
 L140.9679 150.7296 L140.4782 154.8673 L140.0969 159.0165 L139.8244 163.1742 L139.6608 167.3376 L139.6063 171.5039 L139.6608 175.6701
 L139.8244 179.8336 L140.0969 183.9913 L140.4782 188.1404 L140.9679 192.2781 L141.5658 196.4017 L142.2714 200.5081 L143.0843 204.5947
 L144.0038 208.6585 L145.0294 212.697 L146.1604 216.7072 L147.396 220.6864z" fill="rgb(255,215,0)"/>
</g>
<g stroke="rgb(0,0,139)" stroke-width="1.0627" stroke-linejoin="round" >
<path d="M202.1851 206.2811 L248.9604 141.9004 L137.8044 159.5058z" fill="rgb(255,215,0)"/>
</g>
<g stroke="rgb(0,0,139)" stroke-width="1.0627" stroke-linejoin="round" >
<path d="M189 263.3518 L132.7292 319.6226 L245.2708 319.6226z" fill="rgb(255,215,0)"/>
</g>
<g stroke="rgb(0,0,139)" stroke-width="1.0627" stroke-linejoin="round" >
<path d="M100.0978 206.2811 L146.7141 206.2811 L179.6767 173.3185 L179.6767 126.7022 A79.5789,79.5789 0 0,0 100.0978,206.2811z" fill="rgb(255,215,0)"/>
</g>
<g stroke="rgb(0,0,139)" stroke-width="1.0627" stroke-linejoin="round" >
<path d="M259.2557 206.2811 L286.656 243.9945 L332.6984 251.2869 L370.4117 223.8865 L367.6877 220.3503 L364.7698 216.9723 L361.667 213.7633 L358.3891 210.7332 L354.9465 207.8918
 L351.35 205.2478 L347.6109 202.8097 L343.741 200.585 L339.7524 198.5808 L335.6578 196.8035 L331.4699 195.2585 L327.202 193.9507
 L322.8674 192.8843 L318.4799 192.0627 L314.0532 191.4883 L309.6013 191.1631 L305.1382 191.0879 L300.6778 191.2632 L296.2343 191.6882
 L291.8217 192.3618 L287.4537 193.2817 L283.1442 194.4451 L278.9067 195.8482 L274.7545 197.4868 L270.7008 199.3556 L266.7582 201.4488
 L262.9391 203.7597 L259.2557 206.2811z" fill="rgb(255,215,0)"/>
</g>
<g stroke="rgb(0,0,139)" stroke-width="1.0627" stroke-linejoin="round" >
<path d="M183.2073 130.2327 L212.5772 115.268 L168.2425 100.8628 L153.8373 145.1975z" fill="rgb(255,215,0)"/>
</g>
</svg>
