<?xml version="1.0" encoding="utf-8" standalone="no"?>
<!DOCTYPE svg PUBLIC "-//W3C//DTD SVG 1.1//EN" "http://www.w3.org/TR/2001/REC-SVG-20010904/DTD/svg11.dtd">
<svg width="10cm" height="10cm" viewBox="0 0 378 378" overflow="hidden"
 version="1.1" xmlns="http://www.w3.org/2000/svg"  xmlns:xlink="http://www.w3.org/1999/xlink">
<!--fond  (Utilisateur) -->
<g  stroke-linejoin="round" >
<polygon fill="rgb(0,0,139)" points="0,0,0,378,378,378,378,0"/>
</g>
<!--tangram  (Utilisateur) -->
<g stroke="rgb(0,0,139)" stroke-width="1.0627" stroke-linejoin="round" >
<path d="M78.872 222.2555 L87.9664 176.535 L84.3512 175.9624 L80.7022 175.6752 L77.0419 175.6752 L73.3929 175.9624 L69.7776 176.535
 L66.2185 177.3894 L62.7373 178.5205 L59.3557 179.9213 L56.0943 181.583 L52.9734 183.4955z" fill="rgb(255,215,0)"/>
</g>
<g stroke="rgb(0,0,139)" stroke-width="1.0627" stroke-linejoin="round" >
<path d="M113.8342 212.0153 L160.4505 212.0153 A46.6163,46.6163 0 0,0 146.7969,179.0526z" fill="rgb(255,215,0)"/>
</g>
<g stroke="rgb(0,0,139)" stroke-width="1.0627" stroke-linejoin="round" >
<path d="M255.9251 198.9474 L359.9 242.0152 L358.2553 238.1869 L356.5109 234.403 L354.668 230.6661 L352.728 226.9787 L350.6921 223.3433
 L348.5617 219.7625 L346.3383 216.2387 L344.0235 212.7742 L341.6187 209.3716 L339.1258 206.0331 L336.5462 202.761 L333.8819 199.5575
 L331.1347 196.4249 L328.3064 193.3652 L325.3989 190.3806 L322.4144 187.4732 L319.3547 184.6449 L316.2221 181.8977 L313.0186 179.2334
 L309.7465 176.6538 L306.408 174.1608 L303.0053 171.7561 L299.5409 169.4412 L296.0171 167.2179 L292.4363 165.0875 L288.8009 163.0516
 L285.1135 161.1116 L281.3765 159.2687 L277.5927 157.5243 L273.7644 155.8796z" fill="rgb(255,215,0)"/>
</g>
<g stroke="rgb(0,0,139)" stroke-width="1.0627" stroke-linejoin="round" >
<path d="M222.9624 215.4287 L160.4377 121.8538 L159.6784 125.9506 L159.0266 130.0659 L158.4827 134.1969 L158.0472 138.3407 L157.7203 142.4945
 L157.5022 146.6554 L157.3931 150.8206 L157.3931 154.9872 L157.5022 159.1524 L157.7203 163.3134 L158.0472 167.4671 L158.4827 171.6109
 L159.0266 175.7419 L159.6784 179.8572 L160.4377 183.9541 L161.304 188.0297 L162.2766 192.0812 L163.355 196.1058 L164.5384 200.1009
 L165.826 204.0636 L167.2168 207.9912 L168.71 211.8811 L170.3045 215.7305 L171.9992 219.5369 L173.793 223.2977 L175.6846 227.0102
 L177.6728 230.6719 L179.7561 234.2803 L181.9331 237.8329 L184.2024 241.3273z" fill="rgb(255,215,0)"/>
</g>
<g stroke="rgb(0,0,139)" stroke-width="1.0627" stroke-linejoin="round" >
<path d="M115.2481 215.4287 L188.7694 184.9752 L84.7945 141.9073z" fill="rgb(255,215,0)"/>
</g>
<g stroke="rgb(0,0,139)" stroke-width="1.0627" stroke-linejoin="round" >
<path d="M189 252.8045 L132.7292 309.0754 L245.2708 309.0754z" fill="rgb(255,215,0)"/>
</g>
<g stroke="rgb(0,0,139)" stroke-width="1.0627" stroke-linejoin="round" >
<path d="M91.94 215.4287 L138.5562 215.4287 L171.5189 182.466 L171.5189 135.8498 A79.5789,79.5789 0 0,0 91.94,215.4287z" fill="rgb(255,215,0)"/>
</g>
<g stroke="rgb(0,0,139)" stroke-width="1.0627" stroke-linejoin="round" >
<path d="M251.0978 215.4287 L276.9965 176.6687 L267.9021 130.9481 L229.1421 105.0495 L226.7672 108.8291 L224.608 112.7359 L222.6712 116.7577 L220.963 120.8817 L219.4887 125.095
 L218.253 129.3843 L217.2597 133.7361 L216.512 138.1369 L216.0122 142.5726 L215.7619 147.0293 L215.7619 151.4931 L216.0122 155.9499
 L216.512 160.3856 L217.2597 164.7863 L218.253 169.1382 L219.4887 173.4275 L220.963 177.6408 L222.6712 181.7648 L224.608 185.7865
 L226.7672 189.6933 L229.1421 193.4729 L231.7251 197.1134 L234.5083 200.6033 L237.4827 203.9317 L240.639 207.0881 L243.9674 210.0625
 L247.4574 212.8456 L251.0978 215.4287z" fill="rgb(255,215,0)"/>
</g>
<g stroke="rgb(0,0,139)" stroke-width="1.0627" stroke-linejoin="round" >
<path d="M186.5864 150.9172 L186.5864 117.9545 L153.6237 150.9172 L186.5864 183.8799z" fill="rgb(255,215,0)"/>
</g>
</svg>
