<?xml version="1.0" encoding="utf-8" standalone="no"?>
<!DOCTYPE svg PUBLIC "-//W3C//DTD SVG 1.1//EN" "http://www.w3.org/TR/2001/REC-SVG-20010904/DTD/svg11.dtd">
<svg width="10cm" height="10cm" viewBox="0 0 378 378" overflow="hidden"
 version="1.1" xmlns="http://www.w3.org/2000/svg"  xmlns:xlink="http://www.w3.org/1999/xlink">
<!--fond  (Utilisateur) -->
<g  stroke-linejoin="round" >
<polygon fill="rgb(0,0,139)" points="0,0,0,378,378,378,378,0"/>
</g>
<!--tangram  (Utilisateur) -->
<g stroke="rgb(0,0,139)" stroke-width="1.0627" stroke-linejoin="round" >
<path d="M168.1055 221.5486 L185.9448 178.4807 L182.5107 177.2139 L178.9879 176.2203 L175.3979 175.5062 L171.763 175.076 L168.1055 174.9323
 L164.448 175.076 L160.8131 175.5062 L157.2232 176.2203 L153.7003 177.2139 L150.2662 178.4807z" fill="rgb(255,215,0)"/>
</g>
<g stroke="rgb(0,0,139)" stroke-width="1.0627" stroke-linejoin="round" >
<path d="M203.0677 194.827 L241.8277 220.7256 L243.7402 217.6047 L245.4019 214.3434 L246.8027 210.9617 L247.9338 207.4806 L248.7883 203.9214
 L249.3608 200.3062 L249.648 196.6572 L249.648 192.9969 L249.3608 189.3479 L248.7883 185.7327z" fill="rgb(255,215,0)"/>
</g>
<g stroke="rgb(0,0,139)" stroke-width="1.0627" stroke-linejoin="round" >
<path d="M203.0677 186.5864 L296.6426 249.1111 L295.7764 245.0356 L294.8037 240.9841 L293.7253 236.9594 L292.5419 232.9644 L291.2543 229.0017
 L289.8635 225.074 L288.3703 221.1842 L286.7758 217.3347 L285.0811 213.5283 L283.2873 209.7676 L281.3957 206.0551 L279.4076 202.3934
 L277.3242 198.785 L275.1472 195.2323 L272.8779 191.7379 L270.5179 188.3041 L268.0688 184.9332 L265.5323 181.6276 L262.9102 178.3895
 L260.2042 175.2212 L257.4162 172.1248 L254.548 169.1024 L251.6018 166.1562 L248.5794 163.2881 L245.483 160.5001 L242.3147 157.7941
 L239.0766 155.1719 L235.771 152.6354 L232.4001 150.1864 L228.9663 147.8264z" fill="rgb(255,215,0)"/>
</g>
<g stroke="rgb(0,0,139)" stroke-width="1.0627" stroke-linejoin="round" >
<path d="M216.1356 161.8644 L295.7146 82.2854 L291.5483 82.3399 L287.3849 82.5035 L283.2272 82.776 L279.0781 83.1573 L274.9403 83.647
 L270.8168 84.2449 L266.7104 84.9505 L262.6238 85.7634 L258.5599 86.683 L254.5215 87.7086 L250.5113 88.8396 L246.5321 90.0751
 L242.5866 91.4145 L238.6775 92.8566 L234.8075 94.4006 L230.9792 96.0453 L227.1954 97.7897 L223.4584 99.6326 L219.771 101.5726
 L216.1356 103.6085 L212.5548 105.7389 L209.031 107.9623 L205.5666 110.2771 L202.1639 112.6819 L198.8254 115.1749 L195.5533 117.7544
 L192.3498 120.4187 L189.2172 123.1659 L186.1575 125.9942 L183.173 128.9017z" fill="rgb(255,215,0)"/>
</g>
<g stroke="rgb(0,0,139)" stroke-width="1.0627" stroke-linejoin="round" >
<path d="M149.2105 228.7895 L215.378 273.0012 L193.4222 162.622z" fill="rgb(255,215,0)"/>
</g>
<g stroke="rgb(0,0,139)" stroke-width="1.0627" stroke-linejoin="round" >
<path d="M180.7593 228.7895 L196.2844 306.8393 L258.8092 213.2644z" fill="rgb(255,215,0)"/>
</g>
<g stroke="rgb(0,0,139)" stroke-width="1.0627" stroke-linejoin="round" >
<path d="M214.7218 174.9323 L247.6844 141.9696 L247.6844 95.3533 L214.7218 62.3907 L211.6552 65.6343 L208.7753 69.0448 L206.0911 72.6114 L203.6112 76.3229 L201.3432 80.1676
 L199.2944 84.1335 L197.4712 88.2079 L195.8793 92.3782 L194.5238 96.6312 L193.4088 100.9535 L192.538 105.3315 L191.914 109.7515
 L191.5388 114.1995 L191.4136 118.6615 L191.5388 123.1235 L191.914 127.5715 L192.538 131.9915 L193.4088 136.3695 L194.5238 140.6918
 L195.8793 144.9447 L197.4712 149.115 L199.2944 153.1895 L201.3432 157.1553 L203.6112 161 L206.0911 164.7115 L208.7753 168.2781
 L211.6552 171.6886 L214.7218 174.9323z" fill="rgb(255,215,0)"/>
</g>
<g stroke="rgb(0,0,139)" stroke-width="1.0627" stroke-linejoin="round" >
<path d="M128.316 246.2706 L161.2787 213.3079 L161.2787 166.6916 L128.316 133.7289 L125.2494 136.9726 L122.3695 140.3831 L119.6854 143.9497 L117.2054 147.6612 L114.9375 151.5059
 L112.8887 155.4717 L111.0655 159.5462 L109.4736 163.7165 L108.1181 167.9695 L107.0031 172.2918 L106.1323 176.6698 L105.5083 181.0897
 L105.1331 185.5377 L105.0079 189.9998 L105.1331 194.4618 L105.5083 198.9098 L106.1323 203.3297 L107.0031 207.7077 L108.1181 212.03
 L109.4736 216.283 L111.0655 220.4533 L112.8887 224.5278 L114.9375 228.4936 L117.2054 232.3383 L119.6854 236.0498 L122.3695 239.6164
 L125.2494 243.0269 L128.316 246.2706z" fill="rgb(255,215,0)"/>
</g>
<g stroke="rgb(0,0,139)" stroke-width="1.0627" stroke-linejoin="round" >
<path d="M138.5562 206.4811 L171.5189 206.4811 L138.5562 239.4438 L105.5935 206.4811z" fill="rgb(255,215,0)"/>
</g>
</svg>
