<?xml version="1.0" encoding="utf-8" standalone="no"?>
<!DOCTYPE svg PUBLIC "-//W3C//DTD SVG 1.1//EN" "http://www.w3.org/TR/2001/REC-SVG-20010904/DTD/svg11.dtd">
<svg width="10cm" height="10cm" viewBox="0 0 378 378" overflow="hidden"
 version="1.1" xmlns="http://www.w3.org/2000/svg"  xmlns:xlink="http://www.w3.org/1999/xlink">
<!--fond  (Utilisateur) -->
<g  stroke-linejoin="round" >
<polygon fill="rgb(0,0,139)" points="0,0,0,378,378,378,378,0"/>
</g>
<!--tangram  (Utilisateur) -->
<g stroke="rgb(0,0,139)" stroke-width="1.0627" stroke-linejoin="round" >
<path d="M172.4258 187.6689 L205.3885 154.7063 L202.7006 152.2217 L199.8261 149.9556 L196.7827 147.922 L193.5891 146.1335 L190.2651 144.6011
 L186.831 143.3342 L183.3081 142.3407 L179.7182 141.6266 L176.0833 141.1964 L172.4258 141.0527z" fill="rgb(255,215,0)"/>
</g>
<g stroke="rgb(0,0,139)" stroke-width="1.0627" stroke-linejoin="round" >
<path d="M198.0647 162.03 L233.512 131.7552 L231.0274 129.0673 L228.3396 126.5827 L225.4651 124.3166 L222.4217 122.2831 L219.2281 120.4946
 L215.904 118.9622 L212.47 117.6953 L208.9471 116.7017 L205.3571 115.9877 L201.7222 115.5574z" fill="rgb(255,215,0)"/>
</g>
<g stroke="rgb(0,0,139)" stroke-width="1.0627" stroke-linejoin="round" >
<path d="M198.0647 162.03 L237.0173 267.6156 L238.712 263.8092 L240.3065 259.9597 L241.7997 256.0698 L243.1906 252.1422 L244.4781 248.1795
 L245.6615 244.1845 L246.7399 240.1598 L247.7126 236.1083 L248.5789 232.0327 L249.3382 227.9359 L249.99 223.8206 L250.5338 219.6896
 L250.9694 215.5458 L251.2963 211.392 L251.5143 207.2311 L251.6234 203.0659 L251.6234 198.8993 L251.5143 194.7341 L251.2963 190.5732
 L250.9694 186.4194 L250.5338 182.2756 L249.99 178.1446 L249.3382 174.0293 L248.5789 169.9324 L247.7126 165.8568 L246.7399 161.8053
 L245.6615 157.7807 L244.4781 153.7856 L243.1906 149.8229 L241.7997 145.8953z" fill="rgb(255,215,0)"/>
</g>
<g stroke="rgb(0,0,139)" stroke-width="1.0627" stroke-linejoin="round" >
<path d="M216.1942 143.9005 L271.1844 242.0926 L272.2628 238.068 L273.2355 234.0165 L274.1018 229.9409 L274.8611 225.8441 L275.5129 221.7287
 L276.0568 217.5978 L276.4923 213.454 L276.8192 209.3002 L277.0373 205.1393 L277.1463 200.9741 L277.1463 196.8074 L277.0373 192.6422
 L276.8192 188.4813 L276.4923 184.3276 L276.0568 180.1838 L275.5129 176.0528 L274.8611 171.9374 L274.1018 167.8406 L273.2355 163.765
 L272.2628 159.7135 L271.1844 155.6889 L270.0011 151.6938 L268.7135 147.7311 L267.3226 143.8035 L265.8295 139.9136 L264.235 136.0642
 L262.5402 132.2578 L260.7465 128.497 L258.8549 124.7845 L256.8667 121.1228z" fill="rgb(255,215,0)"/>
</g>
<g stroke="rgb(0,0,139)" stroke-width="1.0627" stroke-linejoin="round" >
<path d="M167.1158 228.7895 L239.3849 262.106 L200.4323 156.5204z" fill="rgb(255,215,0)"/>
</g>
<g stroke="rgb(0,0,139)" stroke-width="1.0627" stroke-linejoin="round" >
<path d="M167.1158 228.7895 L233.2833 273.0012 L211.3275 162.622z" fill="rgb(255,215,0)"/>
</g>
<g stroke="rgb(0,0,139)" stroke-width="1.0627" stroke-linejoin="round" >
<path d="M162.2542 197.8405 L204.5885 178.3242 L220.7231 134.5892 L201.2068 92.2549 L197.207 94.2367 L193.3247 96.4396 L189.572 98.8568 L185.9607 101.4805 L182.5022 104.3026
 L179.2074 107.3142 L176.0867 110.5058 L173.1498 113.8673 L170.406 117.3883 L167.8639 121.0575 L165.5316 124.8635 L163.4164 128.7943
 L161.5248 132.8375 L159.863 136.9804 L158.4361 141.21 L157.2485 145.5129 L156.3042 149.8756 L155.6059 154.2844 L155.1559 158.7255
 L154.9556 163.1848 L155.0057 167.6483 L155.306 172.102 L155.8555 176.5318 L156.6525 180.9238 L157.6946 185.2643 L158.9784 189.5395
 L160.4998 193.736 L162.2542 197.8405z" fill="rgb(255,215,0)"/>
</g>
<g stroke="rgb(0,0,139)" stroke-width="1.0627" stroke-linejoin="round" >
<path d="M164.4679 241.6089 L171.7603 287.6513 L209.4736 315.0516 L255.516 307.7593 L254.6943 303.3717 L253.6279 299.0372 L252.3202 294.7693 L250.7752 290.5814 L248.9978 286.4867
 L246.9937 282.4982 L244.769 278.6283 L242.3308 274.8892 L239.6869 271.2927 L236.8454 267.8501 L233.8154 264.5722 L230.6064 261.4694
 L227.2284 258.5514 L223.6921 255.8274 L220.0087 253.306 L216.1896 250.9951 L212.2471 248.9019 L208.1933 247.0331 L204.0411 245.3945
 L199.8036 243.9913 L195.4941 242.828 L191.1262 241.9081 L186.7135 241.2345 L182.27 240.8095 L177.8096 240.6342 L173.3465 240.7093
 L168.8946 241.0346 L164.4679 241.6089z" fill="rgb(255,215,0)"/>
</g>
<g stroke="rgb(0,0,139)" stroke-width="1.0627" stroke-linejoin="round" >
<path d="M136.1668 241.6089 L169.1295 241.6089 L136.1668 274.5716 L103.2042 241.6089z" fill="rgb(255,215,0)"/>
</g>
</svg>
