<?xml version="1.0" encoding="utf-8" standalone="no"?>
<!DOCTYPE svg PUBLIC "-//W3C//DTD SVG 1.1//EN" "http://www.w3.org/TR/2001/REC-SVG-20010904/DTD/svg11.dtd">
<svg width="10cm" height="10cm" viewBox="0 0 378 378" overflow="hidden"
 version="1.1" xmlns="http://www.w3.org/2000/svg"  xmlns:xlink="http://www.w3.org/1999/xlink">
<!--fond  (Utilisateur) -->
<g  stroke-linejoin="round" >
<polygon fill="rgb(0,0,139)" points="0,0,0,378,378,378,378,0"/>
</g>
<!--tangram  (Utilisateur) -->
<g stroke="rgb(0,0,139)" stroke-width="1.0627" stroke-linejoin="round" >
<path d="M205.4813 172.5187 L248.5492 154.6794 L247.0167 151.3553 L245.2282 148.1617 L243.1947 145.1183 L240.9286 142.2438 L238.444 139.556
 L235.7562 137.0714 L232.8817 134.8053 L229.8383 132.7718 L226.6447 130.9833 L223.3206 129.4508z" fill="rgb(255,215,0)"/>
</g>
<g stroke="rgb(0,0,139)" stroke-width="1.0627" stroke-linejoin="round" >
<path d="M205.4813 116.2478 L172.5187 83.2852 L170.0341 85.973 L167.768 88.8475 L165.7344 91.8909 L163.9459 95.0845 L162.4135 98.4086
 L161.1466 101.8426 L160.1531 105.3655 L159.439 108.9555 L159.0088 112.5904 L158.8651 116.2478z" fill="rgb(255,215,0)"/>
</g>
<g stroke="rgb(0,0,139)" stroke-width="1.0627" stroke-linejoin="round" >
<path d="M221.9627 156.0373 L301.5416 76.4584 L297.3754 76.5129 L293.2119 76.6765 L289.0542 76.949 L284.9051 77.3303 L280.7674 77.82
 L276.6438 78.4179 L272.5374 79.1235 L268.4508 79.9364 L264.387 80.8559 L260.3485 81.8815 L256.3383 83.0125 L252.3591 84.2481
 L248.4136 85.5874 L244.5045 87.0296 L240.6345 88.5735 L236.8063 90.2183 L233.0224 91.9627 L229.2855 93.8055 L225.598 95.7456
 L221.9627 97.7815 L218.3819 99.9119 L214.858 102.1352 L211.3936 104.4501 L207.991 106.8548 L204.6524 109.3478 L201.3803 111.9274
 L198.1768 114.5917 L195.0442 117.3389 L191.9846 120.1672 L189 123.0746z" fill="rgb(255,215,0)"/>
</g>
<g stroke="rgb(0,0,139)" stroke-width="1.0627" stroke-linejoin="round" >
<path d="M189 189 L292.9749 145.9322 L289.1049 144.3882 L285.1958 142.9461 L281.2503 141.6068 L277.2711 140.3712 L273.2609 139.2402
 L269.2225 138.2146 L265.1586 137.295 L261.072 136.4821 L256.9656 135.7765 L252.8421 135.1786 L248.7043 134.6889 L244.5552 134.3076
 L240.3975 134.0351 L236.2341 133.8716 L232.0678 133.817 L227.9015 133.8716 L223.7381 134.0351 L219.5804 134.3076 L215.4313 134.6889
 L211.2935 135.1786 L207.17 135.7765 L203.0636 136.4821 L198.977 137.295 L194.9131 138.2146 L190.8747 139.2402 L186.8645 140.3712
 L182.8853 141.6068 L178.9398 142.9461 L175.0307 144.3882 L171.1607 145.9322z" fill="rgb(255,215,0)"/>
</g>
<g stroke="rgb(0,0,139)" stroke-width="1.0627" stroke-linejoin="round" >
<path d="M210.3086 184.1727 L283.83 153.7192 L179.8551 110.6514z" fill="rgb(255,215,0)"/>
</g>
<g stroke="rgb(0,0,139)" stroke-width="1.0627" stroke-linejoin="round" >
<path d="M189 252.0976 L262.5214 282.5512 L219.4535 178.5762z" fill="rgb(255,215,0)"/>
</g>
<g stroke="rgb(0,0,139)" stroke-width="1.0627" stroke-linejoin="round" >
<path d="M189 212.3081 L189 165.6919 L156.0373 132.7292 L109.4211 132.7292 L109.5462 137.1912 L109.9214 141.6392 L110.5454 146.0592 L111.4163 150.4372 L112.5312 154.7595
 L113.8868 159.0124 L115.4786 163.1827 L117.3018 167.2572 L119.3506 171.223 L121.6186 175.0677 L124.0985 178.7792 L126.7827 182.3458
 L129.6626 185.7563 L132.7292 189 L135.9728 192.0666 L139.3833 194.9465 L142.9499 197.6307 L146.6614 200.1106 L150.5062 202.3785
 L154.472 204.4273 L158.5465 206.2505 L162.7167 207.8424 L166.9697 209.198 L171.292 210.3129 L175.67 211.1838 L180.09 211.8078
 L184.538 212.1829 L189 212.3081z" fill="rgb(255,215,0)"/>
</g>
<g stroke="rgb(0,0,139)" stroke-width="1.0627" stroke-linejoin="round" >
<path d="M189 212.3081 L171.1607 255.376 L189 298.4438 L232.0678 316.283 L233.6597 312.1128 L235.0152 307.8598 L236.1302 303.5375 L237.001 299.1595 L237.625 294.7395
 L238.0002 290.2915 L238.1254 285.8295 L238.0002 281.3675 L237.625 276.9195 L237.001 272.4995 L236.1302 268.1215 L235.0152 263.7992
 L233.6597 259.5462 L232.0678 255.376 L230.2446 251.3015 L228.1958 247.3357 L225.9279 243.4909 L223.4479 239.7794 L220.7638 236.2128
 L217.8839 232.8023 L214.8173 229.5587 L211.5736 226.4921 L208.1631 223.6122 L204.5965 220.928 L200.885 218.4481 L197.0403 216.1801
 L193.0745 214.1313 L189 212.3081z" fill="rgb(255,215,0)"/>
</g>
<g stroke="rgb(0,0,139)" stroke-width="1.0627" stroke-linejoin="round" >
<path d="M149.2105 228.7895 L182.1732 228.7895 L149.2105 195.8268 L116.2478 228.7895z" fill="rgb(255,215,0)"/>
</g>
</svg>
