<?xml version="1.0" encoding="utf-8" standalone="no"?>
<!DOCTYPE svg PUBLIC "-//W3C//DTD SVG 1.1//EN" "http://www.w3.org/TR/2001/REC-SVG-20010904/DTD/svg11.dtd">
<svg width="10cm" height="10cm" viewBox="0 0 378 378" overflow="hidden"
 version="1.1" xmlns="http://www.w3.org/2000/svg"  xmlns:xlink="http://www.w3.org/1999/xlink">
<!--tangram  (Utilisateur) -->
<g stroke="rgb(0,0,139)" stroke-width="1.0627" stroke-linejoin="round" >
<path d="M103.087 254.6526 L90.4335 209.7866 L86.9523 210.9177 L83.5707 212.3184 L80.3093 213.9801 L77.1884 215.8926 L74.2272 218.0441
 L71.4439 220.4213 L68.8557 223.0095 L66.4785 225.7928 L64.327 228.754 L62.4145 231.8749z" fill="rgb(255,215,0)"/>
</g>
<g stroke="rgb(0,0,139)" stroke-width="1.0627" stroke-linejoin="round" >
<path d="M133.3876 257.3147 L165.0308 291.5461 L167.619 288.9579 L169.9962 286.1746 L172.1476 283.2133 L174.0601 280.0924 L175.7219 276.8311
 L177.1226 273.4494 L178.2537 269.9683 L179.1082 266.4091 L179.6808 262.7939 L179.9679 259.1449z" fill="rgb(255,215,0)"/>
</g>
<g stroke="rgb(0,0,139)" stroke-width="1.0627" stroke-linejoin="round" >
<path d="M249.3911 202.9263 L356.4246 168.149 L354.4846 171.8365 L352.4487 175.4718 L350.3183 179.0526 L348.0949 182.5765 L345.7801 186.0409
 L343.3753 189.4435 L340.8823 192.7821 L338.3028 196.0542 L335.6385 199.2577 L332.8912 202.3903 L330.0629 205.4499 L327.1555 208.4345
 L324.1709 211.3419 L321.1113 214.1702 L317.9787 216.9175 L314.7752 219.5818 L311.5031 222.1613 L308.1645 224.6543 L304.7619 227.0591
 L301.2975 229.3739 L297.7736 231.5973 L294.1928 233.7276 L290.5575 235.7635 L286.87 237.7036 L283.1331 239.5464 L279.3492 241.2908
 L275.521 242.9356 L271.651 244.4796 L267.7419 245.9217 L263.7964 247.261z" fill="rgb(255,215,0)"/>
</g>
<g stroke="rgb(0,0,139)" stroke-width="1.0627" stroke-linejoin="round" >
<path d="M211.6497 224.3521 L113.4576 169.3618 L114.641 173.3569 L115.9285 177.3196 L117.3194 181.2472 L118.8126 185.1371 L120.4071 188.9865
 L122.1018 192.7929 L123.8956 196.5537 L125.7872 200.2662 L127.7753 203.9279 L129.8586 207.5363 L132.0357 211.0889 L134.305 214.5833
 L136.665 218.0172 L139.1141 221.388 L141.6506 224.6936 L144.2727 227.9317 L146.9787 231.1 L149.7667 234.1964 L152.6348 237.2188
 L155.5811 240.165 L158.6034 243.0332 L161.6999 245.8212 L164.8682 248.5272 L168.1063 251.1493 L171.4119 253.6858 L174.7827 256.1349
 L178.2166 258.4949 L181.711 260.7642 L185.2636 262.9413 L188.872 265.0246z" fill="rgb(255,215,0)"/>
</g>
<g stroke="rgb(0,0,139)" stroke-width="1.0627" stroke-linejoin="round" >
<path d="M86.7713 224.3521 L166.3503 224.3521 L86.7713 303.931z" fill="rgb(255,215,0)"/>
</g>
<g stroke="rgb(0,0,139)" stroke-width="1.0627" stroke-linejoin="round" >
<path d="M219.242 239.5023 L263.4537 305.6698 L285.4095 195.2907z" fill="rgb(255,215,0)"/>
</g>
<g stroke="rgb(0,0,139)" stroke-width="1.0627" stroke-linejoin="round" >
<path d="M140.8285 208.0364 L185.6945 195.3828 L208.4722 154.7103 L195.8187 109.8442 L191.5582 111.1759 L187.379 112.7444 L183.2944 114.5447 L179.3171 116.5712 L175.4598 118.8175
 L171.7344 121.2766 L168.1528 123.9407 L164.7262 126.8015 L161.4654 129.8498 L158.3806 133.0762 L155.4816 136.4705 L152.7775 140.022
 L150.2768 143.7195 L147.9873 147.5515 L145.9163 151.5057 L144.0703 155.5699 L142.455 159.7312 L141.0756 163.9765 L139.9365 168.2925
 L139.0411 172.6655 L138.3923 177.0819 L137.9922 181.5277 L137.8419 185.989 L137.9421 190.4516 L138.2923 194.9017 L138.8915 199.3251
 L139.7378 203.7079 L140.8285 208.0364z" fill="rgb(255,215,0)"/>
</g>
<g stroke="rgb(0,0,139)" stroke-width="1.0627" stroke-linejoin="round" >
<path d="M255.818 224.3521 L215.1455 201.5744 L170.2795 214.2279 L147.5018 254.9004 L151.456 256.9714 L155.5202 258.8175 L159.6815 260.4327 L163.9268 261.8121 L168.2428 262.9513
 L172.6158 263.8467 L177.0322 264.4954 L181.478 264.8956 L185.9393 265.0458 L190.4019 264.9456 L194.852 264.5954 L199.2754 263.9962
 L203.6582 263.15 L207.9867 262.0593 L212.2472 260.7276 L216.4263 259.1591 L220.511 257.3588 L224.4882 255.3323 L228.3456 253.086
 L232.071 250.6269 L235.6526 247.9628 L239.0792 245.1021 L242.34 242.0537 L245.4247 238.8273 L248.3237 235.433 L251.0278 231.8815
 L253.5286 228.184 L255.818 224.3521z" fill="rgb(255,215,0)"/>
</g>
<g stroke="rgb(0,0,139)" stroke-width="1.0627" stroke-linejoin="round" >
<path d="M219.242 132.0708 L220.5361 99.1335 L186.3047 130.7767 L217.9479 165.008z" fill="rgb(255,215,0)"/>
</g>
</svg>
