<?xml version="1.0" encoding="utf-8" standalone="no"?>
<!DOCTYPE svg PUBLIC "-//W3C//DTD SVG 1.1//EN" "http://www.w3.org/TR/2001/REC-SVG-20010904/DTD/svg11.dtd">
<svg width="10cm" height="10cm" viewBox="0 0 378 378" overflow="hidden"
 version="1.1" xmlns="http://www.w3.org/2000/svg"  xmlns:xlink="http://www.w3.org/1999/xlink">
<!--tangram  (Utilisateur) -->
<g stroke="rgb(0,0,139)" stroke-width="1.0627" stroke-linejoin="round" >
<path d="M161.8786 212.1425 L194.8412 179.1798 L192.1534 176.6952 L189.2789 174.4291 L186.2355 172.3956 L183.0419 170.6071 L179.7178 169.0747
 L176.2838 167.8078 L172.7609 166.8142 L169.171 166.1001 L165.536 165.6699 L161.8786 165.5262z" fill="rgb(255,215,0)"/>
</g>
<g stroke="rgb(0,0,139)" stroke-width="1.0627" stroke-linejoin="round" >
<path d="M203.8332 170.1878 L249.8756 162.8955 L249.1615 159.3055 L248.1679 155.7826 L246.901 152.3486 L245.3686 149.0245 L243.5801 145.8309
 L241.5466 142.7875 L239.2805 139.913 L236.7959 137.2252 L234.1081 134.7406 L231.2336 132.4745z" fill="rgb(255,215,0)"/>
</g>
<g stroke="rgb(0,0,139)" stroke-width="1.0627" stroke-linejoin="round" >
<path d="M203.8332 170.1878 L212.6631 282.3825 L215.3274 279.1791 L217.907 275.9069 L220.3999 272.5684 L222.8047 269.1658 L225.1195 265.7014
 L227.3429 262.1775 L229.4733 258.5967 L231.5092 254.9613 L233.4492 251.2739 L235.2921 247.537 L237.0365 243.7531 L238.6812 239.9249
 L240.2252 236.0548 L241.6673 232.1458 L243.0067 228.2003 L244.2422 224.221 L245.3732 220.2109 L246.3989 216.1724 L247.3184 212.1085
 L248.1313 208.022 L248.8369 203.9155 L249.4348 199.792 L249.9245 195.6543 L250.3058 191.5051 L250.5783 187.3474 L250.7419 183.184
 L250.7964 179.0178 L250.7419 174.8515 L250.5783 170.6881 L250.3058 166.5304z" fill="rgb(255,215,0)"/>
</g>
<g stroke="rgb(0,0,139)" stroke-width="1.0627" stroke-linejoin="round" >
<path d="M233.4996 140.5214 L342.9317 166.7938 L340.7083 163.2699 L338.3935 159.8055 L335.9887 156.4029 L333.4957 153.0643 L330.9162 149.7922
 L328.2519 146.5887 L325.5047 143.4561 L322.6764 140.3965 L319.7689 137.4119 L316.7844 134.5045 L313.7247 131.6762 L310.5921 128.9289
 L307.3886 126.2646 L304.1165 123.6851 L300.778 121.1921 L297.3753 118.7873 L293.9109 116.4725 L290.3871 114.2491 L286.8062 112.1187
 L283.1709 110.0828 L279.4835 108.1428 L275.7465 106.3 L271.9626 104.5556 L268.1344 102.9108 L264.2644 101.3668 L260.3553 99.9247
 L256.4098 98.5854 L252.4306 97.3498 L248.4204 96.2188 L244.382 95.1932z" fill="rgb(255,215,0)"/>
</g>
<g stroke="rgb(0,0,139)" stroke-width="1.0627" stroke-linejoin="round" >
<path d="M153.1895 228.7895 L213.7018 280.4719 L204.8719 168.2772z" fill="rgb(255,215,0)"/>
</g>
<g stroke="rgb(0,0,139)" stroke-width="1.0627" stroke-linejoin="round" >
<path d="M153.1895 228.7895 L122.7359 302.3108 L226.7108 259.243z" fill="rgb(255,215,0)"/>
</g>
<g stroke="rgb(0,0,139)" stroke-width="1.0627" stroke-linejoin="round" >
<path d="M195.8753 178.1457 L231.3226 147.8709 L234.9801 101.3983 L204.7052 65.951 L201.3936 68.9441 L198.255 72.1181 L195.2993 75.4631 L192.5358 78.9686 L189.9732 82.6235
 L187.6195 86.4164 L185.4823 90.3353 L183.5681 94.3678 L181.883 98.5013 L180.4324 102.7228 L179.2207 107.019 L178.2519 111.3764
 L177.5289 115.7812 L177.054 120.2197 L176.8287 124.6778 L176.8537 129.1415 L177.129 133.5968 L177.6537 138.0296 L178.4261 142.426
 L179.4438 146.7723 L180.7035 151.0546 L182.2014 155.2596 L183.9328 159.3739 L185.8921 163.3847 L188.0732 167.2793 L190.4692 171.0455
 L193.0727 174.6715 L195.8753 178.1457z" fill="rgb(255,215,0)"/>
</g>
<g stroke="rgb(0,0,139)" stroke-width="1.0627" stroke-linejoin="round" >
<path d="M98.2154 249.7668 L142.5501 264.172 L184.0855 243.0087 L198.4907 198.674 L194.2084 197.4142 L189.8622 196.3965 L185.4657 195.6241 L181.0329 195.0995 L176.5776 194.8242
 L172.1139 194.7991 L167.6558 195.0244 L163.2173 195.4993 L158.8125 196.2223 L154.4551 197.1912 L150.1589 198.4028 L145.9374 199.8535
 L141.8039 201.5385 L137.7714 203.4527 L133.8525 205.5899 L130.0597 207.9436 L126.4048 210.5062 L122.8993 213.2697 L119.5543 216.2254
 L116.3802 219.364 L113.3872 222.6756 L110.5845 226.1499 L107.9811 229.7758 L105.585 233.5421 L103.4039 237.4367 L101.4446 241.4475
 L99.7133 245.5618 L98.2154 249.7668z" fill="rgb(255,215,0)"/>
</g>
<g stroke="rgb(0,0,139)" stroke-width="1.0627" stroke-linejoin="round" >
<path d="M102.5457 249.7668 L135.5084 249.7668 L102.5457 282.7295 L69.5831 249.7668z" fill="rgb(255,215,0)"/>
</g>
</svg>
