<?xml version="1.0" encoding="utf-8" standalone="no"?>
<!DOCTYPE svg PUBLIC "-//W3C//DTD SVG 1.1//EN" "http://www.w3.org/TR/2001/REC-SVG-20010904/DTD/svg11.dtd">
<svg width="10cm" height="10cm" viewBox="0 0 378 378" overflow="hidden"
 version="1.1" xmlns="http://www.w3.org/2000/svg"  xmlns:xlink="http://www.w3.org/1999/xlink">
<!--fond  (Utilisateur) -->
<g  stroke-linejoin="round" >
<polygon fill="rgb(0,0,139)" points="0,0,0,378,378,378,378,0"/>
</g>
<!--tangram  (Utilisateur) -->
<g stroke="rgb(0,0,139)" stroke-width="1.0627" stroke-linejoin="round" >
<path d="M130.3156 129.6086 L156.2142 90.8486 L153.0932 88.9361 L149.8319 87.2744 L146.4502 85.8736 L142.9691 84.7425 L139.4099 83.8881
 L135.7947 83.3155 L132.1457 83.0283 L128.4854 83.0283 L124.8364 83.3155 L121.2212 83.8881z" fill="rgb(255,215,0)"/>
</g>
<g stroke="rgb(0,0,139)" stroke-width="1.0627" stroke-linejoin="round" >
<path d="M141.9696 126.1952 L188.5859 126.1952 A46.6163,46.6163 0 0,0 174.9323,93.2325z" fill="rgb(255,215,0)"/>
</g>
<g stroke="rgb(0,0,139)" stroke-width="1.0627" stroke-linejoin="round" >
<path d="M211.3084 218.8421 L315.2833 175.7743 L311.4133 174.2303 L307.5042 172.7882 L303.5587 171.4489 L299.5795 170.2133 L295.5693 169.0823
 L291.5309 168.0567 L287.467 167.1371 L283.3804 166.3242 L279.274 165.6186 L275.1505 165.0207 L271.0127 164.531 L266.8636 164.1497
 L262.7059 163.8772 L258.5425 163.7137 L254.3762 163.6591 L250.2099 163.7137 L246.0465 163.8772 L241.8888 164.1497 L237.7397 164.531
 L233.6019 165.0207 L229.4784 165.6186 L225.372 166.3242 L221.2854 167.1371 L217.2215 168.0567 L213.1831 169.0823 L209.1729 170.2133
 L205.1937 171.4489 L201.2482 172.7882 L197.3391 174.2303 L193.4691 175.7743z" fill="rgb(255,215,0)"/>
</g>
<g stroke="rgb(0,0,139)" stroke-width="1.0627" stroke-linejoin="round" >
<path d="M178.3457 202.3608 L156.3899 91.9816 L154.1206 95.476 L151.9435 99.0287 L149.8602 102.6371 L147.8721 106.2988 L145.9805 110.0112
 L144.1867 113.772 L142.492 117.5784 L140.8975 121.4278 L139.4043 125.3177 L138.0135 129.2454 L136.7259 133.2081 L135.5425 137.2031
 L134.4641 141.2277 L133.4914 145.2792 L132.6251 149.3548 L131.8658 153.4517 L131.214 157.567 L130.6702 161.698 L130.2346 165.8418
 L129.9077 169.9956 L129.6897 174.1565 L129.5806 178.3217 L129.5806 182.4883 L129.6897 186.6535 L129.9077 190.8144 L130.2346 194.9682
 L130.6702 199.112 L131.214 203.243 L131.8658 207.3583 L132.6251 211.4551z" fill="rgb(255,215,0)"/>
</g>
<g stroke="rgb(0,0,139)" stroke-width="1.0627" stroke-linejoin="round" >
<path d="M239.4438 202.3608 L269.8973 128.8394 L165.9224 171.9072z" fill="rgb(255,215,0)"/>
</g>
<g stroke="rgb(0,0,139)" stroke-width="1.0627" stroke-linejoin="round" >
<path d="M189 267.872 L132.7292 324.1428 L245.2708 324.1428z" fill="rgb(255,215,0)"/>
</g>
<g stroke="rgb(0,0,139)" stroke-width="1.0627" stroke-linejoin="round" >
<path d="M103.594 202.3608 L150.2103 202.3608 L183.173 169.3981 L183.173 122.7818 A79.5789,79.5789 0 0,0 103.594,202.3608z" fill="rgb(255,215,0)"/>
</g>
<g stroke="rgb(0,0,139)" stroke-width="1.0627" stroke-linejoin="round" >
<path d="M262.7519 202.3608 L253.6575 248.0813 L279.5561 286.8413 L325.2767 295.9357 L326.0244 291.535 L326.5242 287.0993 L326.7745 282.6425 L326.7745 278.1787 L326.5242 273.722
 L326.0244 269.2863 L325.2767 264.8855 L324.2834 260.5337 L323.0477 256.2444 L321.5734 252.0311 L319.8652 247.9071 L317.9284 243.8853
 L315.7692 239.9785 L313.3943 236.1989 L310.8112 232.5584 L308.0281 229.0685 L305.0537 225.7401 L301.8973 222.5838 L298.5689 219.6093
 L295.079 216.8262 L291.4385 214.2431 L287.6589 211.8683 L283.7521 209.7091 L279.7304 207.7723 L275.6064 206.0641 L271.3931 204.5898
 L267.1038 203.3541 L262.7519 202.3608z" fill="rgb(255,215,0)"/>
</g>
<g stroke="rgb(0,0,139)" stroke-width="1.0627" stroke-linejoin="round" >
<path d="M181.7591 121.3679 L214.7218 121.3679 L181.7591 88.4053 L148.7964 121.3679z" fill="rgb(255,215,0)"/>
</g>
</svg>
