<?xml version="1.0" encoding="utf-8" standalone="no"?>
<!DOCTYPE svg PUBLIC "-//W3C//DTD SVG 1.1//EN" "http://www.w3.org/TR/2001/REC-SVG-20010904/DTD/svg11.dtd">
<svg width="10cm" height="10cm" viewBox="0 0 378 378" overflow="hidden"
 version="1.1" xmlns="http://www.w3.org/2000/svg"  xmlns:xlink="http://www.w3.org/1999/xlink">
<!--tangram  (Utilisateur) -->
<g stroke="rgb(0,0,139)" stroke-width="1.0627" stroke-linejoin="round" >
<path d="M145.89 242.7158 L123.1123 202.0433 L119.9914 203.9558 L117.0302 206.1072 L114.2468 208.4844 L111.6586 211.0726 L109.2815 213.8559
 L107.13 216.8172 L105.2175 219.9381 L103.5558 223.1994 L102.155 226.5811 L101.0239 230.0622z" fill="rgb(255,215,0)"/>
</g>
<g stroke="rgb(0,0,139)" stroke-width="1.0627" stroke-linejoin="round" >
<path d="M162.2057 259.3628 L164.0358 305.9431 L167.6848 305.6559 L171.3001 305.0833 L174.8592 304.2288 L178.3404 303.0978 L181.722 301.697
 L184.9834 300.0353 L188.1043 298.1228 L191.0655 295.9713 L193.8489 293.5941 L196.4371 291.0059z" fill="rgb(255,215,0)"/>
</g>
<g stroke="rgb(0,0,139)" stroke-width="1.0627" stroke-linejoin="round" >
<path d="M224.6691 214.8632 L259.4464 107.8297 L261.2893 111.5666 L263.0337 115.3505 L264.6784 119.1788 L266.2224 123.0488 L267.6645 126.9579
 L269.0038 130.9034 L270.2394 134.8826 L271.3704 138.8928 L272.396 142.9312 L273.3156 146.9951 L274.1285 151.0817 L274.8341 155.1881
 L275.432 159.3116 L275.9217 163.4494 L276.303 167.5985 L276.5755 171.7562 L276.739 175.9196 L276.7936 180.0859 L276.739 184.2522
 L276.5755 188.4156 L276.303 192.5733 L275.9217 196.7224 L275.432 200.8602 L274.8341 204.9837 L274.1285 209.0901 L273.3156 213.1767
 L272.396 217.2406 L271.3704 221.279 L270.2394 225.2892 L269.0038 229.2684z" fill="rgb(255,215,0)"/>
</g>
<g stroke="rgb(0,0,139)" stroke-width="1.0627" stroke-linejoin="round" >
<path d="M182.8316 226.4001 L74.5153 195.8517 L76.5987 199.4601 L78.7757 203.0128 L81.045 206.5072 L83.405 209.941 L85.8541 213.3119
 L88.3906 216.6175 L91.0127 219.8556 L93.7187 223.0239 L96.5068 226.1203 L99.3749 229.1427 L102.3211 232.0889 L105.3435 234.957
 L108.4399 237.7451 L111.6082 240.4511 L114.8463 243.0732 L118.1519 245.6097 L121.5228 248.0588 L124.9566 250.4188 L128.451 252.6881
 L132.0036 254.8651 L135.612 256.9484 L139.2737 258.9366 L142.9862 260.8282 L146.747 262.622 L150.5534 264.3167 L154.4028 265.9112
 L158.2927 267.4044 L162.2203 268.7952 L166.183 270.0828 L170.1781 271.2662z" fill="rgb(255,215,0)"/>
</g>
<g stroke="rgb(0,0,139)" stroke-width="1.0627" stroke-linejoin="round" >
<path d="M115.5894 226.4001 L195.1684 226.4001 L115.5894 305.979z" fill="rgb(255,215,0)"/>
</g>
<g stroke="rgb(0,0,139)" stroke-width="1.0627" stroke-linejoin="round" >
<path d="M245.1637 234.5579 L323.2136 219.0329 L229.6386 156.5081z" fill="rgb(255,215,0)"/>
</g>
<g stroke="rgb(0,0,139)" stroke-width="1.0627" stroke-linejoin="round" >
<path d="M187.7275 196.0995 L228.4 173.3218 L241.0536 128.4558 L218.2759 87.7832 L214.4439 90.0727 L210.7464 92.5734 L207.1949 95.2776 L203.8006 98.1766 L200.5742 101.2613
 L197.5259 104.5221 L194.6651 107.9487 L192.001 111.5303 L189.5419 115.2557 L187.2956 119.1131 L185.2691 123.0903 L183.4688 127.1749
 L181.9003 131.3541 L180.5687 135.6146 L179.478 139.9431 L178.6317 144.3259 L178.0325 148.7493 L177.6823 153.1993 L177.5821 157.662
 L177.7324 162.1232 L178.1325 166.5691 L178.7813 170.9854 L179.6767 175.3585 L180.8158 179.6745 L182.1952 183.9198 L183.8105 188.0811
 L185.6565 192.1452 L187.7275 196.0995z" fill="rgb(255,215,0)"/>
</g>
<g stroke="rgb(0,0,139)" stroke-width="1.0627" stroke-linejoin="round" >
<path d="M264.8585 226.4001 L219.9924 213.7466 L179.3199 236.5243 L166.6664 281.3903 L170.9949 282.481 L175.3777 283.3273 L179.8011 283.9265 L184.2511 284.2767 L188.7138 284.3768
 L193.175 284.2266 L197.6208 283.8265 L202.0372 283.1777 L206.4103 282.2823 L210.7263 281.1431 L214.9716 279.7638 L219.1329 278.1485
 L223.197 276.3025 L227.1513 274.2315 L230.9832 271.942 L234.6808 269.4413 L238.2323 266.7372 L241.6265 263.8382 L244.8529 260.7534
 L247.9013 257.4926 L250.762 254.066 L253.4261 250.4844 L255.8852 246.759 L258.1316 242.9017 L260.1581 238.9244 L261.9584 234.8398
 L263.5269 230.6606 L264.8585 226.4001z" fill="rgb(255,215,0)"/>
</g>
<g stroke="rgb(0,0,139)" stroke-width="1.0627" stroke-linejoin="round" >
<path d="M245.1637 103.2527 L267.5388 79.0474 L220.9585 80.8776 L222.7886 127.4579z" fill="rgb(255,215,0)"/>
</g>
</svg>
