<?xml version="1.0" encoding="utf-8" standalone="no"?>
<!DOCTYPE svg PUBLIC "-//W3C//DTD SVG 1.1//EN" "http://www.w3.org/TR/2001/REC-SVG-20010904/DTD/svg11.dtd">
<svg width="10cm" height="10cm" viewBox="0 0 378 378" overflow="hidden"
 version="1.1" xmlns="http://www.w3.org/2000/svg"  xmlns:xlink="http://www.w3.org/1999/xlink">
<!--fond  (Utilisateur) -->
<g  stroke-linejoin="round" >
<polygon fill="rgb(0,0,139)" points="0,0,0,378,378,378,378,0"/>
</g>
<!--tangram  (Utilisateur) -->
<g stroke="rgb(0,0,139)" stroke-width="1.0627" stroke-linejoin="round" >
<path d="M198.6646 100.1664 L202.3221 53.6938 L198.6646 53.5501 L195.0071 53.6938 L191.3722 54.1241 L187.7822 54.8382 L184.2594 55.8317
 L180.8253 57.0986 L177.5013 58.631 L174.3077 60.4195 L171.2642 62.4531 L168.3897 64.7191z" fill="rgb(255,215,0)"/>
</g>
<g stroke="rgb(0,0,139)" stroke-width="1.0627" stroke-linejoin="round" >
<path d="M148.0209 103.0628 L183.4681 133.3376 L185.7342 130.4631 L187.7678 127.4197 L189.5563 124.2261 L191.0887 120.902 L192.3556 117.468
 L193.3491 113.9451 L194.0632 110.3552 L194.4934 106.7202 L194.6371 103.0628 L194.4934 99.4053z" fill="rgb(255,215,0)"/>
</g>
<g stroke="rgb(0,0,139)" stroke-width="1.0627" stroke-linejoin="round" >
<path d="M171.0947 218.9007 L267.0522 160.0978 L262.9884 159.1783 L258.9018 158.3654 L254.7954 157.6598 L250.6718 157.0619 L246.5341 156.5722
 L242.385 156.1909 L238.2273 155.9184 L234.0638 155.7548 L229.8976 155.7003 L225.7313 155.7548 L221.5679 155.9184 L217.4102 156.1909
 L213.261 156.5722 L209.1233 157.0619 L204.9998 157.6598 L200.8934 158.3654 L196.8068 159.1783 L192.7429 160.0978 L188.7045 161.1235
 L184.6943 162.2545 L180.7151 163.49 L176.7696 164.8293 L172.8605 166.2715 L168.9905 167.8155 L165.1622 169.4602 L161.3783 171.2046
 L157.6414 173.0475 L153.954 174.9875 L150.3186 177.0234 L146.7378 179.1538z" fill="rgb(255,215,0)"/>
</g>
<g stroke="rgb(0,0,139)" stroke-width="1.0627" stroke-linejoin="round" >
<path d="M124.1472 205.7156 L150.4195 96.2835 L146.8957 98.5069 L143.4312 100.8217 L140.0286 103.2265 L136.6901 105.7195 L133.418 108.299
 L130.2145 110.9633 L127.0819 113.7106 L124.0222 116.5389 L121.0376 119.4463 L118.1302 122.4309 L115.3019 125.4905 L112.5547 128.6231
 L109.8904 131.8266 L107.3108 135.0987 L104.8178 138.4373 L102.4131 141.8399 L100.0982 145.3043 L97.8749 148.8281 L95.7445 152.409
 L93.7086 156.0443 L91.7685 159.7317 L89.9257 163.4687 L88.1813 167.2526 L86.5365 171.0808 L84.9926 174.9508 L83.5504 178.8599
 L82.2111 182.8054 L80.9755 186.7846 L79.8445 190.7948 L78.8189 194.8332z" fill="rgb(255,215,0)"/>
</g>
<g stroke="rgb(0,0,139)" stroke-width="1.0627" stroke-linejoin="round" >
<path d="M300.5176 178.9456 L374.039 148.492 L270.0641 105.4242z" fill="rgb(255,215,0)"/>
</g>
<g stroke="rgb(0,0,139)" stroke-width="1.0627" stroke-linejoin="round" >
<path d="M194.9684 275.4057 L138.6976 331.6766 L251.2392 331.6766z" fill="rgb(255,215,0)"/>
</g>
<g stroke="rgb(0,0,139)" stroke-width="1.0627" stroke-linejoin="round" >
<path d="M139.2632 219.7005 L180.7986 198.5371 L195.2038 154.2024 L174.0404 112.667 L170.1216 114.8043 L166.3287 117.1579 L162.6738 119.7205 L159.1683 122.484 L155.8233 125.4397
 L152.6493 128.5784 L149.6562 131.89 L146.8536 135.3643 L144.2501 138.9902 L141.8541 142.7564 L139.673 146.651 L137.7137 150.6618
 L135.9824 154.7762 L134.4844 158.9811 L133.2247 163.2635 L132.207 167.6097 L131.4346 172.0061 L130.9099 176.439 L130.6346 180.8943
 L130.6096 185.358 L130.8349 189.8161 L131.3098 194.2545 L132.0328 198.6594 L133.0016 203.0167 L134.2133 207.3129 L135.6639 211.5344
 L137.349 215.6679 L139.2632 219.7005z" fill="rgb(255,215,0)"/>
</g>
<g stroke="rgb(0,0,139)" stroke-width="1.0627" stroke-linejoin="round" >
<path d="M274.5474 195.8268 L288.9526 240.1615 L330.488 261.3248 L374.8227 246.9196 L373.3248 242.7147 L371.5935 238.6003 L369.6342 234.5895 L367.4531 230.6949 L365.057 226.9287
 L362.4536 223.3027 L359.6509 219.8285 L356.6579 216.5168 L353.4838 213.3782 L350.1388 210.4225 L346.6333 207.659 L342.9784 205.0964
 L339.1856 202.7428 L335.2667 200.6055 L331.2342 198.6913 L327.1007 197.0063 L322.8792 195.5557 L318.583 194.344 L314.2256 193.3751
 L309.8208 192.6521 L305.3823 192.1772 L300.9242 191.952 L296.4605 191.977 L292.0052 192.2523 L287.5724 192.7769 L283.1759 193.5493
 L278.8297 194.567 L274.5474 195.8268z" fill="rgb(255,215,0)"/>
</g>
<g stroke="rgb(0,0,139)" stroke-width="1.0627" stroke-linejoin="round" >
<path d="M188.2102 133.3633 L216.3155 150.5863 L205.4332 105.258 L160.1049 116.1404z" fill="rgb(255,215,0)"/>
</g>
</svg>
