<?xml version="1.0" encoding="utf-8" standalone="no"?>
<!DOCTYPE svg PUBLIC "-//W3C//DTD SVG 1.1//EN" "http://www.w3.org/TR/2001/REC-SVG-20010904/DTD/svg11.dtd">
<svg width="10cm" height="10cm" viewBox="0 0 378 378" overflow="hidden"
 version="1.1" xmlns="http://www.w3.org/2000/svg"  xmlns:xlink="http://www.w3.org/1999/xlink">
<!--fond  (Utilisateur) -->
<g  stroke-linejoin="round" >
<polygon fill="rgb(0,0,139)" points="0,0,0,378,378,378,378,0"/>
</g>
<!--tangram  (Utilisateur) -->
<g stroke="rgb(0,0,139)" stroke-width="1.0627" stroke-linejoin="round" >
<path d="M158.8651 219.1349 L191.8278 186.1722 L189.1399 183.6876 L186.2654 181.4216 L183.222 179.388 L180.0284 177.5995 L176.7043 176.0671
 L173.2703 174.8002 L169.7474 173.8067 L166.1575 173.0926 L162.5225 172.6624 L158.8651 172.5187z" fill="rgb(255,215,0)"/>
</g>
<g stroke="rgb(0,0,139)" stroke-width="1.0627" stroke-linejoin="round" >
<path d="M205.4813 172.5187 L252.0976 172.5187 A46.6163,46.6163 0 0,0 238.444,139.556z" fill="rgb(255,215,0)"/>
</g>
<g stroke="rgb(0,0,139)" stroke-width="1.0627" stroke-linejoin="round" >
<path d="M205.4813 172.5187 L205.4813 285.0603 L208.3888 282.0757 L211.2171 279.0161 L213.9643 275.8834 L216.6286 272.68 L219.2082 269.4078
 L221.7012 266.0693 L224.1059 262.6667 L226.4208 259.2023 L228.6441 255.6784 L230.7745 252.0976 L232.8104 248.4622 L234.7504 244.7748
 L236.5933 241.0379 L238.3377 237.254 L239.9824 233.4257 L241.5264 229.5557 L242.9685 225.6467 L244.3079 221.7012 L245.5434 217.7219
 L246.6744 213.7118 L247.7001 209.6733 L248.6196 205.6094 L249.4325 201.5229 L250.1381 197.4164 L250.736 193.2929 L251.2257 189.1552
 L251.607 185.006 L251.8795 180.8483 L252.0431 176.6849 L252.0976 172.5187z" fill="rgb(255,215,0)"/>
</g>
<g stroke="rgb(0,0,139)" stroke-width="1.0627" stroke-linejoin="round" >
<path d="M238.444 139.556 L350.9856 139.556 A159.1579,159.1579 0 0,0 238.444,92.9397z" fill="rgb(255,215,0)"/>
</g>
<g stroke="rgb(0,0,139)" stroke-width="1.0627" stroke-linejoin="round" >
<path d="M149.2105 228.7895 L205.4813 285.0603 L205.4813 172.5187z" fill="rgb(255,215,0)"/>
</g>
<g stroke="rgb(0,0,139)" stroke-width="1.0627" stroke-linejoin="round" >
<path d="M149.2105 228.7895 L92.9397 285.0603 L205.4813 285.0603z" fill="rgb(255,215,0)"/>
</g>
<g stroke="rgb(0,0,139)" stroke-width="1.0627" stroke-linejoin="round" >
<path d="M205.4813 172.5187 L238.444 139.556 L238.444 92.9397 L205.4813 59.977 L202.4147 63.2207 L199.5348 66.6312 L196.8507 70.1978 L194.3707 73.9093 L192.1028 77.754
 L190.054 81.7198 L188.2308 85.7943 L186.6389 89.9646 L185.2834 94.2176 L184.1684 98.5399 L183.2976 102.9179 L182.6736 107.3378
 L182.2984 111.7858 L182.1732 116.2478 L182.2984 120.7099 L182.6736 125.1579 L183.2976 129.5778 L184.1684 133.9558 L185.2834 138.2781
 L186.6389 142.5311 L188.2308 146.7014 L190.054 150.7759 L192.1028 154.7417 L194.3707 158.5864 L196.8507 162.2979 L199.5348 165.8645
 L202.4147 169.275 L205.4813 172.5187z" fill="rgb(255,215,0)"/>
</g>
<g stroke="rgb(0,0,139)" stroke-width="1.0627" stroke-linejoin="round" >
<path d="M79.2861 252.0976 L125.9024 252.0976 L158.8651 219.1349 L158.8651 172.5187 A79.5789,79.5789 0 0,0 79.2861,252.0976z" fill="rgb(255,215,0)"/>
</g>
<g stroke="rgb(0,0,139)" stroke-width="1.0627" stroke-linejoin="round" >
<path d="M92.9397 252.0976 L125.9024 252.0976 L92.9397 285.0603 L59.977 252.0976z" fill="rgb(255,215,0)"/>
</g>
</svg>
