<?xml version="1.0" encoding="utf-8" standalone="no"?>
<!DOCTYPE svg PUBLIC "-//W3C//DTD SVG 1.1//EN" "http://www.w3.org/TR/2001/REC-SVG-20010904/DTD/svg11.dtd">
<svg width="10cm" height="10cm" viewBox="0 0 378 378" overflow="hidden"
 version="1.1" xmlns="http://www.w3.org/2000/svg"  xmlns:xlink="http://www.w3.org/1999/xlink">
<!--tangram  (Utilisateur) -->
<g stroke="rgb(0,0,139)" stroke-width="1.0627" stroke-linejoin="round" >
<path d="M153.0238 240.7263 L128.6669 200.9794 L125.6235 203.013 L122.749 205.279 L120.0611 207.7636 L117.5765 210.4515 L115.3105 213.326
 L113.2769 216.3694 L111.4884 219.563 L109.956 222.887 L108.6891 226.3211 L107.6956 229.844z" fill="rgb(255,215,0)"/>
</g>
<g stroke="rgb(0,0,139)" stroke-width="1.0627" stroke-linejoin="round" >
<path d="M167.0087 259.7041 L163.3512 306.1767 L167.0087 306.3204 L170.6662 306.1767 L174.3011 305.7465 L177.8911 305.0324 L181.4139 304.0388
 L184.848 302.7719 L188.1721 301.2395 L191.3656 299.451 L194.4091 297.4175 L197.2836 295.1514z" fill="rgb(255,215,0)"/>
</g>
<g stroke="rgb(0,0,139)" stroke-width="1.0627" stroke-linejoin="round" >
<path d="M220.5488 216.8526 L238.1542 105.6966 L240.5589 109.0992 L242.8738 112.5636 L245.0972 116.0875 L247.2275 119.6683 L249.2634 123.3037
 L251.2035 126.9911 L253.0463 130.728 L254.7907 134.5119 L256.4355 138.3402 L257.9794 142.2102 L259.4216 146.1192 L260.7609 150.0647
 L261.9965 154.044 L263.1275 158.0541 L264.1531 162.0926 L265.0727 166.1565 L265.8855 170.243 L266.5911 174.3495 L267.189 178.473
 L267.6788 182.6107 L268.06 186.7599 L268.3325 190.9176 L268.4961 195.081 L268.5506 199.2472 L268.4961 203.4135 L268.3325 207.5769
 L268.06 211.7346 L267.6788 215.8838 L267.189 220.0215 L266.5911 224.145z" fill="rgb(255,215,0)"/>
</g>
<g stroke="rgb(0,0,139)" stroke-width="1.0627" stroke-linejoin="round" >
<path d="M178.0286 226.7414 L68.5965 200.4691 L70.8199 203.9929 L73.1347 207.4574 L75.5395 210.86 L78.0325 214.1985 L80.612 217.4707
 L83.2763 220.6741 L86.0236 223.8068 L88.8519 226.8664 L91.7593 229.851 L94.7439 232.7584 L97.8035 235.5867 L100.9361 238.334
 L104.1396 240.9983 L107.4117 243.5778 L110.7503 246.0708 L114.1529 248.4755 L117.6173 250.7904 L121.1412 253.0138 L124.722 255.1441
 L128.3573 257.18 L132.0448 259.1201 L135.7817 260.9629 L139.5656 262.7073 L143.3938 264.3521 L147.2638 265.896 L151.1729 267.3382
 L155.1184 268.6775 L159.0976 269.9131 L163.1078 271.0441 L167.1463 272.0697z" fill="rgb(255,215,0)"/>
</g>
<g stroke="rgb(0,0,139)" stroke-width="1.0627" stroke-linejoin="round" >
<path d="M120.3924 226.7414 L199.9714 226.7414 L120.3924 306.3204z" fill="rgb(255,215,0)"/>
</g>
<g stroke="rgb(0,0,139)" stroke-width="1.0627" stroke-linejoin="round" >
<path d="M249.484 233.7339 L323.0054 203.2803 L219.0305 160.2125z" fill="rgb(255,215,0)"/>
</g>
<g stroke="rgb(0,0,139)" stroke-width="1.0627" stroke-linejoin="round" >
<path d="M195.544 194.11 L235.2909 169.7531 L246.1733 124.4249 L221.8163 84.678 L218.0772 87.1161 L214.4807 89.7601 L211.0382 92.6015 L207.7603 95.6315 L204.6575 98.8406
 L201.7395 102.2186 L199.0155 105.7548 L196.4941 109.4383 L194.1831 113.2573 L192.09 117.1999 L190.2212 121.2536 L188.5826 125.4058
 L187.1794 129.6433 L186.0161 133.9528 L185.0961 138.3208 L184.4226 142.7335 L183.9975 147.177 L183.8223 151.6373 L183.8974 156.1005
 L184.2227 160.5524 L184.797 164.9791 L185.6187 169.3666 L186.6851 173.7011 L187.9928 177.969 L189.5378 182.1569 L191.3152 186.2516
 L193.3194 190.2401 L195.544 194.11z" fill="rgb(255,215,0)"/>
</g>
<g stroke="rgb(0,0,139)" stroke-width="1.0627" stroke-linejoin="round" >
<path d="M266.3653 226.7414 L221.037 215.8591 L181.2901 240.216 L170.4078 285.5443 L174.7757 286.4642 L179.1884 287.1377 L183.6319 287.5628 L188.0922 287.738 L192.5554 287.6629
 L197.0073 287.3377 L201.434 286.7633 L205.8215 285.9416 L210.156 284.8752 L214.4239 283.5675 L218.6118 282.0225 L222.7065 280.2451
 L226.6951 278.241 L230.565 276.0163 L234.3041 273.5782 L237.9006 270.9342 L241.3432 268.0927 L244.621 265.0627 L247.7238 261.8537
 L250.6418 258.4757 L253.3658 254.9394 L255.8872 251.256 L258.1982 247.437 L260.2913 243.4944 L262.1601 239.4406 L263.7987 235.2885
 L265.2019 231.051 L266.3653 226.7414z" fill="rgb(255,215,0)"/>
</g>
<g stroke="rgb(0,0,139)" stroke-width="1.0627" stroke-linejoin="round" >
<path d="M249.484 98.4497 L274.549 77.0421 L228.0765 73.3846 L224.419 119.8572z" fill="rgb(255,215,0)"/>
</g>
</svg>
