<?xml version="1.0" encoding="utf-8" standalone="no"?>
<!DOCTYPE svg PUBLIC "-//W3C//DTD SVG 1.1//EN" "http://www.w3.org/TR/2001/REC-SVG-20010904/DTD/svg11.dtd">
<svg width="10cm" height="10cm" viewBox="0 0 378 378" overflow="hidden"
 version="1.1" xmlns="http://www.w3.org/2000/svg"  xmlns:xlink="http://www.w3.org/1999/xlink">
<!--tangram  (Utilisateur) -->
<g stroke="rgb(0,0,139)" stroke-width="1.0627" stroke-linejoin="round" >
<path d="M241.0041 181.7591 L273.9667 148.7964 L271.2789 146.3118 L268.4044 144.0457 L265.361 142.0122 L262.1674 140.2237 L258.8433 138.6913
 L255.4093 137.4244 L251.8864 136.4308 L248.2965 135.7167 L244.6615 135.2865 L241.0041 135.1428z" fill="rgb(255,215,0)"/>
</g>
<g stroke="rgb(0,0,139)" stroke-width="1.0627" stroke-linejoin="round" >
<path d="M198.801 99.7665 L189.7066 54.046 L186.1474 54.9004 L182.6663 56.0315 L179.2846 57.4323 L176.0233 59.094 L172.9023 61.0065
 L169.9411 63.158 L167.1578 65.5351 L164.5696 68.1233 L162.1924 70.9067 L160.0409 73.8679z" fill="rgb(255,215,0)"/>
</g>
<g stroke="rgb(0,0,139)" stroke-width="1.0627" stroke-linejoin="round" >
<path d="M223.523 171.1048 L201.5672 60.7256 L199.2979 64.22 L197.1208 67.7727 L195.0375 71.3811 L193.0494 75.0428 L191.1578 78.7553
 L189.364 82.516 L187.6693 86.3224 L186.0748 90.1719 L184.5816 94.0617 L183.1907 97.9894 L181.9032 101.9521 L180.7198 105.9471
 L179.6414 109.9718 L178.6687 114.0233 L177.8024 118.0988 L177.0431 122.1957 L176.3913 126.311 L175.8475 130.442 L175.4119 134.5858
 L175.085 138.7396 L174.8669 142.9005 L174.7579 147.0657 L174.7579 151.2323 L174.8669 155.3975 L175.085 159.5584 L175.4119 163.7122
 L175.8475 167.856 L176.3913 171.987 L177.0431 176.1023 L177.8024 180.1992z" fill="rgb(255,215,0)"/>
</g>
<g stroke="rgb(0,0,139)" stroke-width="1.0627" stroke-linejoin="round" >
<path d="M154.1842 228.7895 L60.6093 166.2647 L61.4756 170.3403 L62.4482 174.3918 L63.5266 178.4164 L64.71 182.4115 L65.9976 186.3742
 L67.3884 190.3018 L68.8816 194.1917 L70.4761 198.0411 L72.1708 201.8475 L73.9646 205.6083 L75.8562 209.3208 L77.8444 212.9825
 L79.9277 216.5909 L82.1047 220.1435 L84.374 223.6379 L86.734 227.0717 L89.1831 230.4426 L91.7196 233.7482 L94.3417 236.9863
 L97.0477 240.1546 L99.8358 243.251 L102.7039 246.2734 L105.6501 249.2196 L108.6725 252.0878 L111.7689 254.8758 L114.9372 257.5818
 L118.1753 260.2039 L121.4809 262.7404 L124.8518 265.1895 L128.2856 267.5495z" fill="rgb(255,215,0)"/>
</g>
<g stroke="rgb(0,0,139)" stroke-width="1.0627" stroke-linejoin="round" >
<path d="M248.245 139.556 L327.8239 139.556 L248.245 59.977z" fill="rgb(255,215,0)"/>
</g>
<g stroke="rgb(0,0,139)" stroke-width="1.0627" stroke-linejoin="round" >
<path d="M193.9737 275.4057 L137.7029 331.6766 L250.2445 331.6766z" fill="rgb(255,215,0)"/>
</g>
<g stroke="rgb(0,0,139)" stroke-width="1.0627" stroke-linejoin="round" >
<path d="M253.6579 215.7215 L210.5901 197.8823 L167.5223 215.7215 L149.683 258.7893 L153.8533 260.3812 L158.1063 261.7368 L162.4286 262.8517 L166.8066 263.7226 L171.2265 264.3466
 L175.6745 264.7217 L180.1365 264.8469 L184.5986 264.7217 L189.0465 264.3466 L193.4665 263.7226 L197.8445 262.8517 L202.1668 261.7368
 L206.4198 260.3812 L210.5901 258.7893 L214.6645 256.9661 L218.6304 254.9173 L222.4751 252.6494 L226.1866 250.1695 L229.7532 247.4853
 L233.1637 244.6054 L236.4073 241.5388 L239.474 238.2951 L242.3539 234.8846 L245.038 231.318 L247.518 227.6065 L249.7859 223.7618
 L251.8347 219.796 L253.6579 215.7215z" fill="rgb(255,215,0)"/>
</g>
<g stroke="rgb(0,0,139)" stroke-width="1.0627" stroke-linejoin="round" >
<path d="M154.1842 195.8268 L199.9048 186.7324 L225.8034 147.9724 L216.709 102.2519 L212.3571 103.2451 L208.0678 104.4809 L203.8545 105.9552 L199.7305 107.6634 L195.7088 109.6001
 L191.802 111.7594 L188.0224 114.1342 L184.3819 116.7173 L180.892 119.5004 L177.5636 122.4748 L174.4072 125.6312 L171.4328 128.9596
 L168.6497 132.4495 L166.0666 136.09 L163.6917 139.8696 L161.5325 143.7764 L159.5957 147.7981 L157.8875 151.9221 L156.4132 156.1354
 L155.1775 160.4248 L154.1842 164.7766 L153.4365 169.1773 L152.9367 173.6131 L152.6864 178.0698 L152.6864 182.5336 L152.9367 186.9904
 L153.4365 191.4261 L154.1842 195.8268z" fill="rgb(255,215,0)"/>
</g>
<g stroke="rgb(0,0,139)" stroke-width="1.0627" stroke-linejoin="round" >
<path d="M134.2895 220.5488 L167.2522 220.5488 L134.2895 187.5861 L101.3268 220.5488z" fill="rgb(255,215,0)"/>
</g>
</svg>
