<?xml version="1.0" encoding="utf-8" standalone="no"?>
<!DOCTYPE svg PUBLIC "-//W3C//DTD SVG 1.1//EN" "http://www.w3.org/TR/2001/REC-SVG-20010904/DTD/svg11.dtd">
<svg width="10cm" height="10cm" viewBox="0 0 378 378" overflow="hidden"
 version="1.1" xmlns="http://www.w3.org/2000/svg"  xmlns:xlink="http://www.w3.org/1999/xlink">
<!--tangram  (Utilisateur) -->
<g stroke="rgb(0,0,139)" stroke-width="1.0627" stroke-linejoin="round" >
<path d="M145.7486 101.8145 L176.0235 66.3673 L173.149 64.1012 L170.1055 62.0676 L166.912 60.2791 L163.5879 58.7467 L160.1538 57.4798
 L156.631 56.4863 L153.041 55.7722 L149.4061 55.342 L145.7486 55.1983 L142.0911 55.342z" fill="rgb(255,215,0)"/>
</g>
<g stroke="rgb(0,0,139)" stroke-width="1.0627" stroke-linejoin="round" >
<path d="M150.4102 100.4492 L197.0265 100.4492 A46.6163,46.6163 0 0,0 183.3729,67.4865z" fill="rgb(255,215,0)"/>
</g>
<g stroke="rgb(0,0,139)" stroke-width="1.0627" stroke-linejoin="round" >
<path d="M197.9233 224.8105 L288.9714 158.6602 L284.8479 158.0623 L280.7102 157.5726 L276.561 157.1914 L272.4033 156.9188 L268.2399 156.7553
 L264.0737 156.7007 L259.9074 156.7553 L255.744 156.9188 L251.5863 157.1914 L247.4371 157.5726 L243.2994 158.0623 L239.1759 158.6602
 L235.0694 159.3658 L230.9829 160.1787 L226.919 161.0983 L222.8806 162.1239 L218.8704 163.2549 L214.8912 164.4905 L210.9457 165.8298
 L207.0366 167.2719 L203.1666 168.8159 L199.3383 170.4606 L195.5544 172.205 L191.8175 174.0479 L188.1301 175.9879 L184.4947 178.0238
 L180.9139 180.1542 L177.3901 182.3776 L173.9256 184.6924 L170.523 187.0972z" fill="rgb(255,215,0)"/>
</g>
<g stroke="rgb(0,0,139)" stroke-width="1.0627" stroke-linejoin="round" >
<path d="M164.9607 198.4404 L156.1308 86.2457 L153.4665 89.4492 L150.8869 92.7213 L148.3939 96.0598 L145.9892 99.4624 L143.6743 102.9269
 L141.451 106.4507 L139.3206 110.0315 L137.2847 113.6669 L135.3446 117.3543 L133.5018 121.0912 L131.7574 124.8751 L130.1126 128.7034
 L128.5687 132.5734 L127.1265 136.4825 L125.7872 140.428 L124.5516 144.4072 L123.4206 148.4174 L122.395 152.4558 L121.4755 156.5197
 L120.6626 160.6062 L119.957 164.7127 L119.3591 168.8362 L118.8694 172.9739 L118.4881 177.1231 L118.2156 181.2808 L118.052 185.4442
 L117.9975 189.6105 L118.052 193.7767 L118.2156 197.9401 L118.4881 202.0979z" fill="rgb(255,215,0)"/>
</g>
<g stroke="rgb(0,0,139)" stroke-width="1.0627" stroke-linejoin="round" >
<path d="M276.7025 198.4404 L289.1514 119.8412 L198.1033 185.9915z" fill="rgb(255,215,0)"/>
</g>
<g stroke="rgb(0,0,139)" stroke-width="1.0627" stroke-linejoin="round" >
<path d="M189 272.3922 L132.7292 328.6631 L245.2708 328.6631z" fill="rgb(255,215,0)"/>
</g>
<g stroke="rgb(0,0,139)" stroke-width="1.0627" stroke-linejoin="round" >
<path d="M107.0902 198.4404 L153.7065 198.4404 L186.6692 165.4777 L186.6692 118.8614 A79.5789,79.5789 0 0,0 107.0902,198.4404z" fill="rgb(255,215,0)"/>
</g>
<g stroke="rgb(0,0,139)" stroke-width="1.0627" stroke-linejoin="round" >
<path d="M266.2481 198.4404 L226.5012 222.7973 L215.6189 268.1256 L239.9758 307.8725 L243.7149 305.4343 L247.3114 302.7904 L250.754 299.9489 L254.0319 296.9189 L257.1347 293.7098
 L260.0527 290.3319 L262.7766 286.7956 L265.2981 283.1122 L267.609 279.2931 L269.7022 275.3505 L271.571 271.2968 L273.2095 267.1446
 L274.6127 262.9071 L275.7761 258.5976 L276.696 254.2296 L277.3696 249.817 L277.7946 245.3735 L277.9699 240.9131 L277.8947 236.45
 L277.5695 231.9981 L276.9951 227.5714 L276.1735 223.1839 L275.1071 218.8493 L273.7993 214.5814 L272.2543 210.3935 L270.477 206.2989
 L268.4728 202.3103 L266.2481 198.4404z" fill="rgb(255,215,0)"/>
</g>
<g stroke="rgb(0,0,139)" stroke-width="1.0627" stroke-linejoin="round" >
<path d="M180.3109 112.5032 L209.6809 127.4679 L195.2757 83.1332 L150.9409 97.5384z" fill="rgb(255,215,0)"/>
</g>
</svg>
