<?xml version="1.0" encoding="utf-8" standalone="no"?>
<!DOCTYPE svg PUBLIC "-//W3C//DTD SVG 1.1//EN" "http://www.w3.org/TR/2001/REC-SVG-20010904/DTD/svg11.dtd">
<svg width="10cm" height="10cm" viewBox="0 0 378 378" overflow="hidden"
 version="1.1" xmlns="http://www.w3.org/2000/svg"  xmlns:xlink="http://www.w3.org/1999/xlink">
<!--fond  (Utilisateur) -->
<g  stroke-linejoin="round" >
<polygon fill="rgb(0,0,139)" points="0,0,0,378,378,378,378,0"/>
</g>
<!--tangram  (Utilisateur) -->
<g stroke="rgb(0,0,139)" stroke-width="1.0627" stroke-linejoin="round" >
<path d="M171.8017 222.514 L182.684 177.1858 L179.0941 176.4717 L175.4591 176.0415 L171.8017 175.8978 L168.1442 176.0415 L164.5093 176.4717
 L160.9193 177.1858 L157.3965 178.1793 L153.9624 179.4462 L150.6383 180.9786 L147.4447 182.7671z" fill="rgb(255,215,0)"/>
</g>
<g stroke="rgb(0,0,139)" stroke-width="1.0627" stroke-linejoin="round" >
<path d="M202.1022 203.7504 L233.7454 237.9818 L236.3336 235.3935 L238.7108 232.6102 L240.8623 229.649 L242.7748 226.5281 L244.4365 223.2667
 L245.8372 219.8851 L246.9683 216.4039 L247.8228 212.8448 L248.3954 209.2295 L248.6826 205.5805z" fill="rgb(255,215,0)"/>
</g>
<g stroke="rgb(0,0,139)" stroke-width="1.0627" stroke-linejoin="round" >
<path d="M202.1022 192.2134 L312.4814 214.1692 L310.1214 210.7354 L307.6723 207.3645 L305.1359 204.0589 L302.5137 200.8209 L299.8077 197.6525
 L297.0197 194.5561 L294.1516 191.5338 L291.2053 188.5875 L288.183 185.7194 L285.0866 182.9314 L281.9182 180.2254 L278.6802 177.6032
 L275.3746 175.0667 L272.0037 172.6177 L268.5699 170.2577 L265.0754 167.9884 L261.5228 165.8113 L257.9144 163.728 L254.2527 161.7398
 L250.5402 159.8482 L246.7795 158.0545 L242.9731 156.3597 L239.1236 154.7652 L235.2337 153.2721 L231.3061 151.8812 L227.3434 150.5937
 L223.3484 149.4103 L219.3237 148.3319 L215.2722 147.3592 L211.1966 146.4929z" fill="rgb(255,215,0)"/>
</g>
<g stroke="rgb(0,0,139)" stroke-width="1.0627" stroke-linejoin="round" >
<path d="M207.2123 170.7877 L258.3051 70.5124 L254.3596 71.8517 L250.4505 73.2938 L246.5805 74.8378 L242.7523 76.4826 L238.9684 78.227
 L235.2314 80.0698 L231.544 82.0099 L227.9087 84.0458 L224.3278 86.1761 L220.804 88.3995 L217.3396 90.7143 L213.937 93.1191
 L210.5984 95.6121 L207.3263 98.1916 L204.1228 100.8559 L200.9902 103.6032 L197.9306 106.4315 L194.946 109.3389 L192.0386 112.3235
 L189.2103 115.3831 L186.463 118.5157 L183.7987 121.7192 L181.2192 124.9913 L178.7262 128.3299 L176.3214 131.7325 L174.0066 135.1969
 L171.7832 138.7208 L169.6528 142.3016 L167.6169 145.9369 L165.6769 149.6244z" fill="rgb(255,215,0)"/>
</g>
<g stroke="rgb(0,0,139)" stroke-width="1.0627" stroke-linejoin="round" >
<path d="M149.2105 228.7895 L218.6428 267.6734 L188.0945 159.3572z" fill="rgb(255,215,0)"/>
</g>
<g stroke="rgb(0,0,139)" stroke-width="1.0627" stroke-linejoin="round" >
<path d="M193.3789 228.7895 L237.5905 294.957 L259.5463 184.5778z" fill="rgb(255,215,0)"/>
</g>
<g stroke="rgb(0,0,139)" stroke-width="1.0627" stroke-linejoin="round" >
<path d="M218.4179 175.8978 L251.3806 142.9351 L251.3806 96.3188 L218.4179 63.3561 L215.3513 66.5998 L212.4714 70.0103 L209.7873 73.5769 L207.3073 77.2884 L205.0394 81.1331
 L202.9906 85.0989 L201.1674 89.1734 L199.5755 93.3437 L198.22 97.5967 L197.105 101.919 L196.2342 106.297 L195.6102 110.7169
 L195.235 115.1649 L195.1098 119.6269 L195.235 124.089 L195.6102 128.537 L196.2342 132.9569 L197.105 137.3349 L198.22 141.6572
 L199.5755 145.9102 L201.1674 150.0805 L202.9906 154.1549 L205.0394 158.1208 L207.3073 161.9655 L209.7873 165.677 L212.4714 169.2436
 L215.3513 172.6541 L218.4179 175.8978z" fill="rgb(255,215,0)"/>
</g>
<g stroke="rgb(0,0,139)" stroke-width="1.0627" stroke-linejoin="round" >
<path d="M147.928 243.9398 L169.0913 202.4044 L154.6861 158.0697 L113.1507 136.9063 L111.2365 140.9388 L109.5515 145.0724 L108.1009 149.2939 L106.8892 153.59 L105.9203 157.9474
 L105.1973 162.3523 L104.7224 166.7907 L104.4972 171.2488 L104.5222 175.7125 L104.7975 180.1678 L105.3222 184.6006 L106.0945 188.9971
 L107.1122 193.3433 L108.372 197.6256 L109.8699 201.8306 L111.6012 205.945 L113.5605 209.9558 L115.7416 213.8504 L118.1377 217.6166
 L120.7411 221.2425 L123.5438 224.7168 L126.5368 228.0284 L129.7109 231.1671 L133.0559 234.1228 L136.5614 236.8863 L140.2163 239.4489
 L144.0091 241.8025 L147.928 243.9398z" fill="rgb(255,215,0)"/>
</g>
<g stroke="rgb(0,0,139)" stroke-width="1.0627" stroke-linejoin="round" >
<path d="M156.8028 188.2345 L189.7655 188.2345 L156.8028 221.1972 L123.8401 188.2345z" fill="rgb(255,215,0)"/>
</g>
</svg>
