<?xml version="1.0" encoding="utf-8" standalone="no"?>
<!DOCTYPE svg PUBLIC "-//W3C//DTD SVG 1.1//EN" "http://www.w3.org/TR/2001/REC-SVG-20010904/DTD/svg11.dtd">
<svg width="10cm" height="10cm" viewBox="0 0 378 378" overflow="hidden"
 version="1.1" xmlns="http://www.w3.org/2000/svg"  xmlns:xlink="http://www.w3.org/1999/xlink">
<!--tangram  (Utilisateur) -->
<g stroke="rgb(0,0,139)" stroke-width="1.0627" stroke-linejoin="round" >
<path d="M217.0183 188.8344 L263.3114 183.3552 L262.7388 179.74 L261.8843 176.1808 L260.7533 172.6997 L259.3525 169.318 L257.6908 166.0567
 L255.7783 162.9357 L253.6268 159.9745 L251.2497 157.1912 L248.6614 154.603 L245.8781 152.2258z" fill="rgb(255,215,0)"/>
</g>
<g stroke="rgb(0,0,139)" stroke-width="1.0627" stroke-linejoin="round" >
<path d="M217.0183 93.174 L171.69 82.2916 L170.9759 85.8816 L170.5457 89.5165 L170.402 93.174 L170.5457 96.8314 L170.9759 100.4664
 L171.69 104.0563 L172.6836 107.5792 L173.9505 111.0132 L175.4829 114.3373 L177.2714 117.5309z" fill="rgb(255,215,0)"/>
</g>
<g stroke="rgb(0,0,139)" stroke-width="1.0627" stroke-linejoin="round" >
<path d="M245.0366 160.8161 L210.2593 53.7826 L208.4164 57.5196 L206.672 61.3035 L205.0273 65.1317 L203.4833 69.0017 L202.0412 72.9108
 L200.7018 76.8563 L199.4663 80.8355 L198.3353 84.8457 L197.3097 88.8841 L196.3901 92.948 L195.5772 97.0346 L194.8716 101.141
 L194.2737 105.2645 L193.784 109.4023 L193.4027 113.5514 L193.1302 117.7091 L192.9666 121.8725 L192.9121 126.0388 L192.9666 130.2051
 L193.1302 134.3685 L193.4027 138.5262 L193.784 142.6753 L194.2737 146.8131 L194.8716 150.9366 L195.5772 155.043 L196.3901 159.1296
 L197.3097 163.1935 L198.3353 167.2319 L199.4663 171.2421 L200.7018 175.2213z" fill="rgb(255,215,0)"/>
</g>
<g stroke="rgb(0,0,139)" stroke-width="1.0627" stroke-linejoin="round" >
<path d="M189 216.8526 L112.6067 134.2108 L112.4976 138.376 L112.4976 142.5426 L112.6067 146.7078 L112.8247 150.8687 L113.1516 155.0225
 L113.5872 159.1663 L114.131 163.2973 L114.7828 167.4126 L115.5421 171.5095 L116.4084 175.585 L117.3811 179.6365 L118.4595 183.6612
 L119.6429 187.6562 L120.9304 191.6189 L122.3213 195.5466 L123.8145 199.4364 L125.409 203.2859 L127.1037 207.0923 L128.8975 210.853
 L130.7891 214.5655 L132.7772 218.2272 L134.8605 221.8356 L137.0376 225.3883 L139.3069 228.8827 L141.6669 232.3165 L144.116 235.6874
 L146.6525 238.993 L149.2746 242.2311 L151.9806 245.3994 L154.7686 248.4958z" fill="rgb(255,215,0)"/>
</g>
<g stroke="rgb(0,0,139)" stroke-width="1.0627" stroke-linejoin="round" >
<path d="M225.2246 152.941 L287.7193 103.6742 L175.9578 90.4463z" fill="rgb(255,215,0)"/>
</g>
<g stroke="rgb(0,0,139)" stroke-width="1.0627" stroke-linejoin="round" >
<path d="M189 268.4133 L173.4749 346.4632 L267.0499 283.9384z" fill="rgb(255,215,0)"/>
</g>
<g stroke="rgb(0,0,139)" stroke-width="1.0627" stroke-linejoin="round" >
<path d="M244.7053 200.7712 L203.1699 179.6079 L158.8352 194.0131 L137.6718 235.5485 L141.7043 237.4626 L145.8379 239.1477 L150.0594 240.5983 L154.3555 241.81 L158.7129 242.7788
 L163.1178 243.5018 L167.5562 243.9767 L172.0143 244.202 L176.478 244.177 L180.9333 243.9017 L185.3661 243.377 L189.7626 242.6046
 L194.1088 241.587 L198.3911 240.3272 L202.5961 238.8293 L206.7105 237.098 L210.7213 235.1387 L214.6159 232.9576 L218.3821 230.5615
 L222.008 227.9581 L225.4823 225.1554 L228.7939 222.1624 L231.9326 218.9883 L234.8883 215.6433 L237.6518 212.1378 L240.2144 208.4829
 L242.568 204.6901 L244.7053 200.7712z" fill="rgb(255,215,0)"/>
</g>
<g stroke="rgb(0,0,139)" stroke-width="1.0627" stroke-linejoin="round" >
<path d="M133.2947 200.7712 L152.8111 243.1054 L196.5461 259.2401 L238.8803 239.7238 L236.8986 235.724 L234.6956 231.8417 L232.2785 228.089 L229.6548 224.4777 L226.8327 221.0192
 L223.8211 217.7244 L220.6295 214.6037 L217.2679 211.6668 L213.747 208.923 L210.0778 206.3809 L206.2718 204.0486 L202.341 201.9334
 L198.2978 200.0418 L194.1549 198.38 L189.9253 196.9531 L185.6224 195.7655 L181.2596 194.8211 L176.8508 194.1228 L172.4098 193.6729
 L167.9505 193.4726 L163.487 193.5227 L159.0333 193.823 L154.6035 194.3725 L150.2114 195.1695 L145.871 196.2116 L141.5958 197.4953
 L137.3993 199.0168 L133.2947 200.7712z" fill="rgb(255,215,0)"/>
</g>
<g stroke="rgb(0,0,139)" stroke-width="1.0627" stroke-linejoin="round" >
<path d="M121.3579 228.7895 L154.3206 228.7895 L121.3579 195.8268 L88.3952 228.7895z" fill="rgb(255,215,0)"/>
</g>
</svg>
