<?xml version="1.0" encoding="utf-8" standalone="no"?>
<!DOCTYPE svg PUBLIC "-//W3C//DTD SVG 1.1//EN" "http://www.w3.org/TR/2001/REC-SVG-20010904/DTD/svg11.dtd">
<svg width="10cm" height="10cm" viewBox="0 0 378 378" overflow="hidden"
 version="1.1" xmlns="http://www.w3.org/2000/svg"  xmlns:xlink="http://www.w3.org/1999/xlink">
<!--fond  (Utilisateur) -->
<g  stroke-linejoin="round" >
<polygon fill="rgb(0,0,139)" points="0,0,0,378,378,378,378,0"/>
</g>
<!--tangram  (Utilisateur) -->
<g stroke="rgb(0,0,139)" stroke-width="1.0627" stroke-linejoin="round" >
<path d="M208.7776 177.1803 L253.1123 162.7751 L251.8454 159.341 L250.313 156.0169 L248.5245 152.8234 L246.491 149.7799 L244.2249 146.9054
 L241.7403 144.2176 L239.0525 141.733 L236.178 139.4669 L233.1345 137.4334 L229.941 135.6449z" fill="rgb(255,215,0)"/>
</g>
<g stroke="rgb(0,0,139)" stroke-width="1.0627" stroke-linejoin="round" >
<path d="M208.7776 109.6553 L171.0643 82.255 L169.0307 85.2984 L167.2422 88.492 L165.7098 91.816 L164.4429 95.2501 L163.4494 98.773
 L162.7353 102.3629 L162.305 105.9978 L162.1613 109.6553 L162.305 113.3128 L162.7353 116.9477z" fill="rgb(255,215,0)"/>
</g>
<g stroke="rgb(0,0,139)" stroke-width="1.0627" stroke-linejoin="round" >
<path d="M228.5552 157.4027 L279.648 57.1274 L275.7025 58.4667 L271.7935 59.9088 L267.9234 61.4528 L264.0952 63.0975 L260.3113 64.8419
 L256.5744 66.6848 L252.887 68.6248 L249.2516 70.6607 L245.6708 72.7911 L242.1469 75.0145 L238.6825 77.3293 L235.2799 79.7341
 L231.9414 82.2271 L228.6692 84.8066 L225.4658 87.4709 L222.3331 90.2181 L219.2735 93.0465 L216.2889 95.9539 L213.3815 98.9384
 L210.5532 101.9981 L207.8059 105.1307 L205.1416 108.3342 L202.5621 111.6063 L200.0691 114.9448 L197.6643 118.3475 L195.3495 121.8119
 L193.1261 125.3357 L190.9958 128.9166 L188.9599 132.5519 L187.0198 136.2393z" fill="rgb(255,215,0)"/>
</g>
<g stroke="rgb(0,0,139)" stroke-width="1.0627" stroke-linejoin="round" >
<path d="M189 196.9579 L255.1503 105.9098 L251.0439 106.6154 L246.9573 107.4283 L242.8934 108.3479 L238.855 109.3735 L234.8448 110.5045
 L230.8656 111.7401 L226.9201 113.0794 L223.011 114.5215 L219.141 116.0655 L215.3127 117.7102 L211.5288 119.4546 L207.7919 121.2975
 L204.1045 123.2375 L200.4691 125.2734 L196.8883 127.4038 L193.3645 129.6272 L189.9001 131.942 L186.4974 134.3468 L183.1589 136.8398
 L179.8868 139.4193 L176.6833 142.0836 L173.5507 144.8308 L170.491 147.6591 L167.5065 150.5666 L164.599 153.5511 L161.7707 156.6108
 L159.0235 159.7434 L156.3592 162.9469 L153.7796 166.219 L151.2866 169.5575z" fill="rgb(255,215,0)"/>
</g>
<g stroke="rgb(0,0,139)" stroke-width="1.0627" stroke-linejoin="round" >
<path d="M214.5703 175.2494 L285.4757 139.1213 L178.4422 104.344z" fill="rgb(255,215,0)"/>
</g>
<g stroke="rgb(0,0,139)" stroke-width="1.0627" stroke-linejoin="round" >
<path d="M189 256.7592 L245.2708 313.03 L245.2708 200.4884z" fill="rgb(255,215,0)"/>
</g>
<g stroke="rgb(0,0,139)" stroke-width="1.0627" stroke-linejoin="round" >
<path d="M204.9158 209.0119 L190.5106 164.6772 L148.9752 143.5138 L104.6405 157.919 L106.1384 162.124 L107.8697 166.2383 L109.829 170.2491 L112.0101 174.1438 L114.4061 177.91
 L117.0096 181.5359 L119.8122 185.0102 L122.8053 188.3218 L125.9793 191.4604 L129.3243 194.4162 L132.8298 197.1797 L136.4847 199.7423
 L140.2776 202.0959 L144.1965 204.2332 L148.229 206.1473 L152.3625 207.8324 L156.584 209.283 L160.8802 210.4947 L165.2376 211.4635
 L169.6424 212.1865 L174.0809 212.6614 L178.5389 212.8867 L183.0027 212.8617 L187.4579 212.5864 L191.8908 212.0617 L196.2872 211.2893
 L200.6335 210.2716 L204.9158 209.0119z" fill="rgb(255,215,0)"/>
</g>
<g stroke="rgb(0,0,139)" stroke-width="1.0627" stroke-linejoin="round" >
<path d="M173.0842 209.0119 L165.7918 255.0542 L193.1922 292.7676 L239.2345 300.06 L239.8089 295.6333 L240.1341 291.1814 L240.2093 286.7182 L240.034 282.2579 L239.6089 277.8144
 L238.9354 273.4017 L238.0155 269.0337 L236.8521 264.7242 L235.4489 260.4867 L233.8104 256.3345 L231.9416 252.2808 L229.8484 248.3382
 L227.5375 244.5192 L225.016 240.8357 L222.292 237.2995 L219.3741 233.9215 L216.2712 230.7124 L212.9934 227.6824 L209.5508 224.841
 L205.9543 222.197 L202.2152 219.7589 L198.3453 217.5342 L194.3567 215.53 L190.2621 213.7527 L186.0742 212.2077 L181.8063 210.8999
 L177.4717 209.8335 L173.0842 209.0119z" fill="rgb(255,215,0)"/>
</g>
<g stroke="rgb(0,0,139)" stroke-width="1.0627" stroke-linejoin="round" >
<path d="M141.2526 228.7895 L174.2153 228.7895 L141.2526 195.8268 L108.29 228.7895z" fill="rgb(255,215,0)"/>
</g>
</svg>
