<?xml version="1.0" encoding="utf-8" standalone="no"?>
<!DOCTYPE svg PUBLIC "-//W3C//DTD SVG 1.1//EN" "http://www.w3.org/TR/2001/REC-SVG-20010904/DTD/svg11.dtd">
<svg width="10cm" height="10cm" viewBox="0 0 378 378" overflow="hidden"
 version="1.1" xmlns="http://www.w3.org/2000/svg"  xmlns:xlink="http://www.w3.org/1999/xlink">
<!--tangram  (Utilisateur) -->
<g stroke="rgb(0,0,139)" stroke-width="1.0627" stroke-linejoin="round" >
<path d="M192.1306 227.824 L164.7303 190.1107 L161.8558 192.3767 L159.1679 194.8613 L156.6833 197.5492 L154.4173 200.4237 L152.3837 203.4671
 L150.5952 206.6607 L149.0628 209.9847 L147.7959 213.4188 L146.8024 216.9417 L146.0883 220.5316z" fill="rgb(255,215,0)"/>
</g>
<g stroke="rgb(0,0,139)" stroke-width="1.0627" stroke-linejoin="round" >
<path d="M196.7922 252.8288 L172.4353 292.5757 L175.6289 294.3642 L178.953 295.8966 L182.387 297.1635 L185.9099 298.1571 L189.4999 298.8711
 L193.1348 299.3014 L196.7922 299.4451 L200.4497 299.3014 L204.0846 298.8711 L207.6746 298.1571z" fill="rgb(255,215,0)"/>
</g>
<g stroke="rgb(0,0,139)" stroke-width="1.0627" stroke-linejoin="round" >
<path d="M196.7922 223.1624 L153.7244 119.1875 L152.1805 123.0575 L150.7383 126.9666 L149.399 130.9121 L148.1634 134.8913 L147.0324 138.9015
 L146.0068 142.9399 L145.0872 147.0038 L144.2744 151.0904 L143.5688 155.1968 L142.9709 159.3203 L142.4811 163.458 L142.0999 167.6072
 L141.8274 171.7649 L141.6638 175.9283 L141.6093 180.0946 L141.6638 184.2608 L141.8274 188.4243 L142.0999 192.582 L142.4811 196.7311
 L142.9709 200.8689 L143.5688 204.9924 L144.2744 209.0988 L145.0872 213.1854 L146.0068 217.2492 L147.0324 221.2877 L148.1634 225.2979
 L149.399 229.2771 L150.7383 233.2226 L152.1805 237.1317 L153.7244 241.0017z" fill="rgb(255,215,0)"/>
</g>
<g stroke="rgb(0,0,139)" stroke-width="1.0627" stroke-linejoin="round" >
<path d="M158.1339 219.8661 L51.1004 185.0888 L53.0405 188.7763 L55.0764 192.4116 L57.2067 195.9924 L59.4301 199.5163 L61.745 202.9807
 L64.1497 206.3833 L66.6427 209.7219 L69.2222 212.994 L71.8865 216.1975 L74.6338 219.3301 L77.4621 222.3897 L80.3695 225.3743
 L83.3541 228.2817 L86.4137 231.11 L89.5464 233.8573 L92.7498 236.5216 L96.022 239.1011 L99.3605 241.5941 L102.7631 243.9989
 L106.2275 246.3137 L109.7514 248.5371 L113.3322 250.6675 L116.9676 252.7034 L120.655 254.6434 L124.3919 256.4863 L128.1758 258.2306
 L132.0041 259.8754 L135.8741 261.4194 L139.7832 262.8615 L143.7287 264.2008z" fill="rgb(255,215,0)"/>
</g>
<g stroke="rgb(0,0,139)" stroke-width="1.0627" stroke-linejoin="round" >
<path d="M149.2105 228.7895 L228.5442 235.0332 L155.4542 149.4558z" fill="rgb(255,215,0)"/>
</g>
<g stroke="rgb(0,0,139)" stroke-width="1.0627" stroke-linejoin="round" >
<path d="M262.7862 228.7895 L293.2398 155.2681 L189.2649 198.3359z" fill="rgb(255,215,0)"/>
</g>
<g stroke="rgb(0,0,139)" stroke-width="1.0627" stroke-linejoin="round" >
<path d="M238.7469 181.2078 L271.7096 148.2451 L271.7096 101.6288 L238.7469 68.6661 L235.6803 71.9098 L232.8004 75.3203 L230.1162 78.8869 L227.6363 82.5984 L225.3683 86.4431
 L223.3195 90.4089 L221.4963 94.4834 L219.9045 98.6537 L218.5489 102.9067 L217.434 107.229 L216.5631 111.607 L215.9391 116.0269
 L215.5639 120.4749 L215.4388 124.9369 L215.5639 129.399 L215.9391 133.847 L216.5631 138.2669 L217.434 142.6449 L218.5489 146.9672
 L219.9045 151.2202 L221.4963 155.3905 L223.3195 159.4649 L225.3683 163.4308 L227.6363 167.2755 L230.1162 170.987 L232.8004 174.5536
 L235.6803 177.9641 L238.7469 181.2078z" fill="rgb(255,215,0)"/>
</g>
<g stroke="rgb(0,0,139)" stroke-width="1.0627" stroke-linejoin="round" >
<path d="M255.7938 231.1203 L211.4591 216.7151 L169.9237 237.8784 L155.5185 282.2131 L159.8008 283.4729 L164.147 284.4906 L168.5435 285.263 L172.9763 285.7876 L177.4316 286.0629
 L181.8953 286.088 L186.3534 285.8627 L190.7918 285.3878 L195.1967 284.6648 L199.5541 283.6959 L203.8502 282.4843 L208.0717 281.0336
 L212.2053 279.3486 L216.2378 277.4344 L220.1566 275.2971 L223.9495 272.9435 L227.6044 270.3809 L231.1099 267.6174 L234.4549 264.6617
 L237.629 261.5231 L240.622 258.2114 L243.4247 254.7372 L246.0281 251.1112 L248.4242 247.345 L250.6053 243.4504 L252.5645 239.4396
 L254.2959 235.3252 L255.7938 231.1203z" fill="rgb(255,215,0)"/>
</g>
<g stroke="rgb(0,0,139)" stroke-width="1.0627" stroke-linejoin="round" >
<path d="M257.1591 87.8782 L290.1218 87.8782 L257.1591 120.8409 L224.1965 87.8782z" fill="rgb(255,215,0)"/>
</g>
</svg>
