<?xml version="1.0" encoding="utf-8" standalone="no"?>
<!DOCTYPE svg PUBLIC "-//W3C//DTD SVG 1.1//EN" "http://www.w3.org/TR/2001/REC-SVG-20010904/DTD/svg11.dtd">
<svg width="10cm" height="10cm" viewBox="0 0 378 378" overflow="hidden"
 version="1.1" xmlns="http://www.w3.org/2000/svg"  xmlns:xlink="http://www.w3.org/1999/xlink">
<!--fond  (Utilisateur) -->
<g  stroke-linejoin="round" >
<polygon fill="rgb(0,0,139)" points="0,0,0,378,378,378,378,0"/>
</g>
<!--tangram  (Utilisateur) -->
<g stroke="rgb(0,0,139)" stroke-width="1.0627" stroke-linejoin="round" >
<path d="M104.5938 175.9321 L122.4331 132.8642 L118.999 131.5974 L115.4761 130.6038 L111.8862 129.8897 L108.2513 129.4595 L104.5938 129.3158
 L100.9363 129.4595 L97.3014 129.8897 L93.7114 130.6038 L90.1886 131.5974 L86.7545 132.8642z" fill="rgb(255,215,0)"/>
</g>
<g stroke="rgb(0,0,139)" stroke-width="1.0627" stroke-linejoin="round" >
<path d="M127.9019 169.1053 L174.5182 169.1053 A46.6163,46.6163 0 0,0 160.8646,136.1426z" fill="rgb(255,215,0)"/>
</g>
<g stroke="rgb(0,0,139)" stroke-width="1.0627" stroke-linejoin="round" >
<path d="M233.6167 208.8947 L346.1584 208.8947 A159.1579,159.1579 0 0,0 233.6167,162.2785z" fill="rgb(255,215,0)"/>
</g>
<g stroke="rgb(0,0,139)" stroke-width="1.0627" stroke-linejoin="round" >
<path d="M200.6541 208.8947 L157.5863 104.9198 L156.0423 108.7898 L154.6001 112.6989 L153.2608 116.6444 L152.0252 120.6236 L150.8943 124.6338
 L149.8686 128.6722 L148.9491 132.7361 L148.1362 136.8227 L147.4306 140.9291 L146.8327 145.0526 L146.343 149.1904 L145.9617 153.3395
 L145.6892 157.4972 L145.5256 161.6607 L145.4711 165.8269 L145.5256 169.9932 L145.6892 174.1566 L145.9617 178.3143 L146.343 182.4635
 L146.8327 186.6012 L147.4306 190.7247 L148.1362 194.8311 L148.9491 198.9177 L149.8686 202.9816 L150.8943 207.02 L152.0252 211.0302
 L153.2608 215.0094 L154.6001 218.9549 L156.0423 222.864 L157.5863 226.734z" fill="rgb(255,215,0)"/>
</g>
<g stroke="rgb(0,0,139)" stroke-width="1.0627" stroke-linejoin="round" >
<path d="M177.3459 208.8947 L233.6167 152.6239 L121.0751 152.6239z" fill="rgb(255,215,0)"/>
</g>
<g stroke="rgb(0,0,139)" stroke-width="1.0627" stroke-linejoin="round" >
<path d="M189 260.3383 L132.7292 316.6091 L245.2708 316.6091z" fill="rgb(255,215,0)"/>
</g>
<g stroke="rgb(0,0,139)" stroke-width="1.0627" stroke-linejoin="round" >
<path d="M97.767 208.8947 L144.3833 208.8947 L177.3459 175.9321 L177.3459 129.3158 A79.5789,79.5789 0 0,0 97.767,208.8947z" fill="rgb(255,215,0)"/>
</g>
<g stroke="rgb(0,0,139)" stroke-width="1.0627" stroke-linejoin="round" >
<path d="M256.9249 208.8947 L299.9927 226.734 L343.0605 208.8947 L360.8998 165.8269 L356.7295 164.235 L352.4765 162.8795 L348.1542 161.7645 L343.7762 160.8937 L339.3563 160.2697
 L334.9083 159.8945 L330.4462 159.7693 L325.9842 159.8945 L321.5362 160.2697 L317.1163 160.8937 L312.7383 161.7645 L308.416 162.8795
 L304.163 164.235 L299.9927 165.8269 L295.9182 167.6501 L291.9524 169.6989 L288.1077 171.9669 L284.3962 174.4468 L280.8296 177.131
 L277.4191 180.0109 L274.1754 183.0775 L271.1088 186.3211 L268.2289 189.7316 L265.5448 193.2982 L263.0648 197.0097 L260.7969 200.8544
 L258.7481 204.8203 L256.9249 208.8947z" fill="rgb(255,215,0)"/>
</g>
<g stroke="rgb(0,0,139)" stroke-width="1.0627" stroke-linejoin="round" >
<path d="M184.1727 136.1426 L207.4809 112.8344 L160.8646 112.8344 L160.8646 159.4507z" fill="rgb(255,215,0)"/>
</g>
</svg>
