<?xml version="1.0" encoding="utf-8" standalone="no"?>
<!DOCTYPE svg PUBLIC "-//W3C//DTD SVG 1.1//EN" "http://www.w3.org/TR/2001/REC-SVG-20010904/DTD/svg11.dtd">
<svg width="10cm" height="10cm" viewBox="0 0 378 378" overflow="hidden"
 version="1.1" xmlns="http://www.w3.org/2000/svg"  xmlns:xlink="http://www.w3.org/1999/xlink">
<!--tangram  (Utilisateur) -->
<g stroke="rgb(0,0,139)" stroke-width="1.0627" stroke-linejoin="round" >
<path d="M227.0828 111.4206 L209.2435 68.3528 L205.9194 69.8852 L202.7258 71.6737 L199.6824 73.7072 L196.8079 75.9733 L194.1201 78.4579
 L191.6355 81.1457 L189.3694 84.0202 L187.3359 87.0636 L185.5474 90.2572 L184.015 93.5813z" fill="rgb(255,215,0)"/>
</g>
<g stroke="rgb(0,0,139)" stroke-width="1.0627" stroke-linejoin="round" >
<path d="M142.6766 116.2478 L160.5158 159.3157 L163.8399 157.7832 L167.0335 155.9947 L170.0769 153.9612 L172.9514 151.6951 L175.6392 149.2105
 L178.1238 146.5227 L180.3899 143.6482 L182.4235 140.6048 L184.212 137.4112 L185.7444 134.0871z" fill="rgb(255,215,0)"/>
</g>
<g stroke="rgb(0,0,139)" stroke-width="1.0627" stroke-linejoin="round" >
<path d="M159.1579 212.3081 L263.1328 169.2403 L259.2628 167.6963 L255.3537 166.2542 L251.4082 164.9149 L247.429 163.6793 L243.4188 162.5483
 L239.3804 161.5227 L235.3165 160.6031 L231.2299 159.7903 L227.1235 159.0846 L223 158.4868 L218.8622 157.997 L214.7131 157.6158
 L210.5554 157.3433 L206.392 157.1797 L202.2257 157.1251 L198.0594 157.1797 L193.896 157.3433 L189.7383 157.6158 L185.5892 157.997
 L181.4514 158.4868 L177.3279 159.0846 L173.2215 159.7903 L169.1349 160.6031 L165.071 161.5227 L161.0326 162.5483 L157.0224 163.6793
 L153.0432 164.9149 L149.0977 166.2542 L145.1886 167.6963 L141.3186 169.2403z" fill="rgb(255,215,0)"/>
</g>
<g stroke="rgb(0,0,139)" stroke-width="1.0627" stroke-linejoin="round" >
<path d="M102.8871 212.3081 L145.9549 108.3332 L142.1266 109.978 L138.3427 111.7224 L134.6058 113.5652 L130.9184 115.5053 L127.283 117.5412
 L123.7022 119.6715 L120.1784 121.8949 L116.714 124.2098 L113.3113 126.6145 L109.9728 129.1075 L106.7007 131.687 L103.4972 134.3513
 L100.3646 137.0986 L97.3049 139.9269 L94.3204 142.8343 L91.4129 145.8189 L88.5846 148.8785 L85.8374 152.0112 L83.1731 155.2146
 L80.5935 158.4868 L78.1005 161.8253 L75.6958 165.2279 L73.3809 168.6923 L71.1576 172.2162 L69.0272 175.797 L66.9913 179.4324
 L65.0513 183.1198 L63.2084 186.8567 L61.464 190.6406 L59.8193 194.4689z" fill="rgb(255,215,0)"/>
</g>
<g stroke="rgb(0,0,139)" stroke-width="1.0627" stroke-linejoin="round" >
<path d="M299.8349 167.6914 L373.3563 198.1449 L330.2885 94.17z" fill="rgb(255,215,0)"/>
</g>
<g stroke="rgb(0,0,139)" stroke-width="1.0627" stroke-linejoin="round" >
<path d="M198.9474 275.4057 L142.6766 331.6766 L255.2182 331.6766z" fill="rgb(255,215,0)"/>
</g>
<g stroke="rgb(0,0,139)" stroke-width="1.0627" stroke-linejoin="round" >
<path d="M159.1579 235.6163 L192.1206 202.6536 L192.1206 156.0373 L159.1579 123.0746 L156.0913 126.3183 L153.2114 129.7288 L150.5272 133.2954 L148.0473 137.0069 L145.7793 140.8516
 L143.7306 144.8174 L141.9073 148.8919 L140.3155 153.0622 L138.9599 157.3152 L137.845 161.6375 L136.9741 166.0155 L136.3501 170.4354
 L135.975 174.8834 L135.8498 179.3455 L135.975 183.8075 L136.3501 188.2555 L136.9741 192.6754 L137.845 197.0534 L138.9599 201.3757
 L140.3155 205.6287 L141.9073 209.799 L143.7306 213.8735 L145.7793 217.8393 L148.0473 221.684 L150.5272 225.3955 L153.2114 228.9621
 L156.0913 232.3726 L159.1579 235.6163z" fill="rgb(255,215,0)"/>
</g>
<g stroke="rgb(0,0,139)" stroke-width="1.0627" stroke-linejoin="round" >
<path d="M278.5263 195.8268 L325.1426 195.8268 L358.1053 162.8641 L358.1053 116.2478 A79.5789,79.5789 0 0,0 278.5263,195.8268z" fill="rgb(255,215,0)"/>
</g>
<g stroke="rgb(0,0,139)" stroke-width="1.0627" stroke-linejoin="round" >
<path d="M194.1201 151.21 L224.5736 163.8243 L206.7344 120.7565 L163.6666 138.5958z" fill="rgb(255,215,0)"/>
</g>
</svg>
