<?xml version="1.0" encoding="utf-8" standalone="no"?>
<!DOCTYPE svg PUBLIC "-//W3C//DTD SVG 1.1//EN" "http://www.w3.org/TR/2001/REC-SVG-20010904/DTD/svg11.dtd">
<svg width="10cm" height="10cm" viewBox="0 0 378 378" overflow="hidden"
 version="1.1" xmlns="http://www.w3.org/2000/svg"  xmlns:xlink="http://www.w3.org/1999/xlink">
<!--tangram  (Utilisateur) -->
<g stroke="rgb(0,0,139)" stroke-width="1.0627" stroke-linejoin="round" >
<path d="M63.4389 250.0496 L67.0964 203.577 L63.4389 203.4333 L59.7815 203.577 L56.1466 204.0072 L52.5566 204.7213 L49.0337 205.7149
 L45.5997 206.9818 L42.2756 208.5142 L39.082 210.3027 L36.0386 212.3362 L33.1641 214.6023z" fill="rgb(255,215,0)"/>
</g>
<g stroke="rgb(0,0,139)" stroke-width="1.0627" stroke-linejoin="round" >
<path d="M105.3936 237.7613 L152.0099 237.7613 A46.6163,46.6163 0 0,0 138.3563,204.7987z" fill="rgb(255,215,0)"/>
</g>
<g stroke="rgb(0,0,139)" stroke-width="1.0627" stroke-linejoin="round" >
<path d="M269.3101 192.9789 L360.3582 259.1293 L359.6526 255.0228 L358.8397 250.9362 L357.9202 246.8724 L356.8946 242.8339 L355.7636 238.8238
 L354.528 234.8445 L353.1887 230.899 L351.7465 226.9899 L350.2026 223.1199 L348.5578 219.2917 L346.8134 215.5078 L344.9706 211.7709
 L343.0305 208.0835 L340.9946 204.4481 L338.8642 200.8673 L336.6409 197.3434 L334.326 193.879 L331.9213 190.4764 L329.4283 187.1378
 L326.8488 183.8657 L324.1844 180.6623 L321.4372 177.5296 L318.6089 174.47 L315.7015 171.4854 L312.7169 168.578 L309.6573 165.7497
 L306.5246 163.0024 L303.3211 160.3381 L300.049 157.7586 L296.7105 155.2656z" fill="rgb(255,215,0)"/>
</g>
<g stroke="rgb(0,0,139)" stroke-width="1.0627" stroke-linejoin="round" >
<path d="M236.3475 219.3491 L163.2575 133.7718 L162.985 137.9295 L162.8214 142.0929 L162.7669 146.2592 L162.8214 150.4254 L162.985 154.5888
 L163.2575 158.7465 L163.6388 162.8957 L164.1285 167.0334 L164.7264 171.1569 L165.432 175.2634 L166.2449 179.3499 L167.1644 183.4138
 L168.1901 187.4522 L169.3211 191.4624 L170.5566 195.4416 L171.896 199.3871 L173.3381 203.2962 L174.8821 207.1662 L176.5268 210.9945
 L178.2712 214.7784 L180.1141 218.5153 L182.0541 222.2027 L184.09 225.8381 L186.2204 229.4189 L188.4437 232.9428 L190.7586 236.4072
 L193.1633 239.8098 L195.6563 243.1483 L198.2359 246.4205 L200.9002 249.6239z" fill="rgb(255,215,0)"/>
</g>
<g stroke="rgb(0,0,139)" stroke-width="1.0627" stroke-linejoin="round" >
<path d="M77.9894 219.3491 L156.5886 206.9002 L65.5405 140.7499z" fill="rgb(255,215,0)"/>
</g>
<g stroke="rgb(0,0,139)" stroke-width="1.0627" stroke-linejoin="round" >
<path d="M189 248.2843 L132.7292 304.5551 L245.2708 304.5551z" fill="rgb(255,215,0)"/>
</g>
<g stroke="rgb(0,0,139)" stroke-width="1.0627" stroke-linejoin="round" >
<path d="M88.4437 219.3491 L135.06 219.3491 L168.0227 186.3864 L168.0227 139.7701 A79.5789,79.5789 0 0,0 88.4437,219.3491z" fill="rgb(255,215,0)"/>
</g>
<g stroke="rgb(0,0,139)" stroke-width="1.0627" stroke-linejoin="round" >
<path d="M247.6016 219.3491 L236.7193 174.0208 L196.9724 149.6639 L151.6441 160.5463 L152.8075 164.8558 L154.2107 169.0933 L155.8492 173.2454 L157.718 177.2992 L159.8112 181.2418
 L162.1221 185.0608 L164.6436 188.7442 L167.3676 192.2805 L170.2856 195.6585 L173.3884 198.8675 L176.6662 201.8976 L180.1088 204.739
 L183.7053 207.383 L187.4444 209.8211 L191.3143 212.0458 L195.3029 214.05 L199.3976 215.8273 L203.5854 217.3723 L207.8534 218.6801
 L212.1879 219.7464 L216.5754 220.5681 L221.0021 221.1425 L225.454 221.4677 L229.9171 221.5429 L234.3775 221.3676 L238.821 220.9425
 L243.2337 220.269 L247.6016 219.3491z" fill="rgb(255,215,0)"/>
</g>
<g stroke="rgb(0,0,139)" stroke-width="1.0627" stroke-linejoin="round" >
<path d="M188.0345 159.782 L173.0698 130.412 L158.6646 174.7468 L202.9993 189.152z" fill="rgb(255,215,0)"/>
</g>
</svg>
