<?xml version="1.0" encoding="utf-8" standalone="no"?>
<!DOCTYPE svg PUBLIC "-//W3C//DTD SVG 1.1//EN" "http://www.w3.org/TR/2001/REC-SVG-20010904/DTD/svg11.dtd">
<svg width="10cm" height="10cm" viewBox="0 0 378 378" overflow="hidden"
 version="1.1" xmlns="http://www.w3.org/2000/svg"  xmlns:xlink="http://www.w3.org/1999/xlink">
<!--tangram  (Utilisateur) -->
<g stroke="rgb(0,0,139)" stroke-width="1.0627" stroke-linejoin="round" >
<path d="M174.4253 234.7579 L145.5655 198.1494 L142.7822 200.5265 L140.1939 203.1147 L137.8168 205.898 L135.6653 208.8593 L133.7528 211.9802
 L132.0911 215.2415 L130.6903 218.6232 L129.5592 222.1044 L128.7048 225.6635 L128.1322 229.2787z" fill="rgb(255,215,0)"/>
</g>
<g stroke="rgb(0,0,139)" stroke-width="1.0627" stroke-linejoin="round" >
<path d="M181.4178 260.7281 L161.9014 303.0624 L165.2831 304.4631 L168.7642 305.5942 L172.3234 306.4487 L175.9386 307.0213 L179.5876 307.3085
 L183.2479 307.3085 L186.8969 307.0213 L190.5121 306.4487 L194.0713 305.5942 L197.5524 304.4631z" fill="rgb(255,215,0)"/>
</g>
<g stroke="rgb(0,0,139)" stroke-width="1.0627" stroke-linejoin="round" >
<path d="M208.1878 222.8211 L173.4105 115.7876 L177.0979 117.7276 L180.7333 119.7635 L184.3141 121.8939 L187.838 124.1173 L191.3024 126.4321
 L194.705 128.8369 L198.0435 131.3299 L201.3157 133.9094 L204.5191 136.5737 L207.6518 139.321 L210.7114 142.1493 L213.696 145.0567
 L216.6034 148.0413 L219.4317 151.1009 L222.179 154.2335 L224.8433 157.437 L227.4228 160.7091 L229.9158 164.0477 L232.3205 167.4503
 L234.6354 170.9147 L236.8588 174.4386 L238.9891 178.0194 L241.025 181.6547 L242.9651 185.3422 L244.8079 189.0791 L246.5523 192.863
 L248.1971 196.6912 L249.741 200.5612 L251.1832 204.4703 L252.5225 208.4158z" fill="rgb(255,215,0)"/>
</g>
<g stroke="rgb(0,0,139)" stroke-width="1.0627" stroke-linejoin="round" >
<path d="M163.6196 227.7655 L51.858 214.5376 L54.4802 217.7757 L57.1862 220.944 L59.9742 224.0404 L62.8423 227.0628 L65.7886 230.009
 L68.8109 232.8771 L71.9073 235.6652 L75.0757 238.3712 L78.3137 240.9933 L81.6193 243.5298 L84.9902 245.9789 L88.424 248.3389
 L91.9185 250.6082 L95.4711 252.7852 L99.0795 254.8685 L102.7412 256.8567 L106.4537 258.7483 L110.2144 260.5421 L114.0208 262.2368
 L117.8703 263.8313 L121.7602 265.3245 L125.6878 266.7153 L129.6505 268.0029 L133.6455 269.1863 L137.6702 270.2647 L141.7217 271.2373
 L145.7973 272.1036 L149.8941 272.8629 L154.0094 273.5147 L158.1404 274.0586z" fill="rgb(255,215,0)"/>
</g>
<g stroke="rgb(0,0,139)" stroke-width="1.0627" stroke-linejoin="round" >
<path d="M134.8015 227.7655 L214.3804 227.7655 L134.8015 307.3444z" fill="rgb(255,215,0)"/>
</g>
<g stroke="rgb(0,0,139)" stroke-width="1.0627" stroke-linejoin="round" >
<path d="M262.4449 231.2617 L306.6566 165.0942 L196.2774 187.05z" fill="rgb(255,215,0)"/>
</g>
<g stroke="rgb(0,0,139)" stroke-width="1.0627" stroke-linejoin="round" >
<path d="M218.9935 188.1416 L255.6021 159.2818 L261.0812 112.9886 L232.2214 76.3801 L228.7948 79.2408 L225.534 82.2892 L222.4492 85.5156 L219.5502 88.9099 L216.8461 92.4614
 L214.3454 96.1589 L212.0559 99.9908 L209.9849 103.9451 L208.1389 108.0093 L206.5236 112.1706 L205.1442 116.4159 L204.0051 120.7318
 L203.1097 125.1049 L202.4609 129.5213 L202.0608 133.9671 L201.9105 138.4283 L202.0107 142.891 L202.3609 147.341 L202.9601 151.7644
 L203.8064 156.1472 L204.8971 160.4757 L206.2287 164.7362 L207.7972 168.9154 L209.5975 173 L211.624 176.9773 L213.8704 180.8347
 L216.3294 184.56 L218.9935 188.1416z" fill="rgb(255,215,0)"/>
</g>
<g stroke="rgb(0,0,139)" stroke-width="1.0627" stroke-linejoin="round" >
<path d="M270.8855 227.7655 L224.5924 222.2863 L187.9838 251.1461 L182.5047 297.4393 L186.9505 297.8394 L191.4117 297.9896 L195.8744 297.8895 L200.3244 297.5393 L204.7478 296.9401
 L209.1306 296.0938 L213.4591 295.0031 L217.7196 293.6715 L221.8988 292.103 L225.9834 290.3027 L229.9607 288.2762 L233.818 286.0298
 L237.5434 283.5707 L241.125 280.9066 L244.5516 278.0459 L247.8124 274.9976 L250.8972 271.7712 L253.7962 268.3769 L256.5003 264.8254
 L259.001 261.1278 L261.2905 257.2959 L263.3615 253.3416 L265.2075 249.2775 L266.8228 245.1162 L268.2022 240.8709 L269.3413 236.5549
 L270.2367 232.1818 L270.8855 227.7655z" fill="rgb(255,215,0)"/>
</g>
<g stroke="rgb(0,0,139)" stroke-width="1.0627" stroke-linejoin="round" >
<path d="M262.4449 84.0406 L293.3702 72.6317 L251.0359 53.1153 L231.5196 95.4496z" fill="rgb(255,215,0)"/>
</g>
</svg>
