<?xml version="1.0" encoding="utf-8" standalone="no"?>
<!DOCTYPE svg PUBLIC "-//W3C//DTD SVG 1.1//EN" "http://www.w3.org/TR/2001/REC-SVG-20010904/DTD/svg11.dtd">
<svg width="10cm" height="10cm" viewBox="0 0 378 378" overflow="hidden"
 version="1.1" xmlns="http://www.w3.org/2000/svg"  xmlns:xlink="http://www.w3.org/1999/xlink">
<!--fond  (Utilisateur) -->
<g  stroke-linejoin="round" >
<polygon fill="rgb(0,0,139)" points="0,0,0,378,378,378,378,0"/>
</g>
<!--tangram  (Utilisateur) -->
<g stroke="rgb(0,0,139)" stroke-width="1.0627" stroke-linejoin="round" >
<path d="M181.0421 224.9277 L173.7497 178.8853 L170.1598 179.5994 L166.6369 180.593 L163.2028 181.8598 L159.8788 183.3923 L156.6852 185.1808
 L153.6418 187.2143 L150.7673 189.4804 L148.0794 191.965 L145.5948 194.6528 L143.3288 197.5273z" fill="rgb(255,215,0)"/>
</g>
<g stroke="rgb(0,0,139)" stroke-width="1.0627" stroke-linejoin="round" >
<path d="M199.6886 226.0588 L206.981 272.1011 L210.571 271.387 L214.0938 270.3935 L217.5279 269.1266 L220.852 267.5942 L224.0455 265.8057
 L227.089 263.7721 L229.9635 261.506 L232.6513 259.0214 L235.1359 256.3336 L237.402 253.4591z" fill="rgb(255,215,0)"/>
</g>
<g stroke="rgb(0,0,139)" stroke-width="1.0627" stroke-linejoin="round" >
<path d="M199.6886 206.2811 L279.2676 126.7022 L275.1013 126.7567 L270.9379 126.9203 L266.7802 127.1928 L262.631 127.5741 L258.4933 128.0638
 L254.3698 128.6617 L250.2633 129.3673 L246.1768 130.1802 L242.1129 131.0997 L238.0745 132.1254 L234.0643 133.2564 L230.0851 134.4919
 L226.1396 135.8313 L222.2305 137.2734 L218.3605 138.8174 L214.5322 140.4621 L210.7483 142.2065 L207.0114 144.0494 L203.324 145.9894
 L199.6886 148.0253 L196.1078 150.1557 L192.584 152.3791 L189.1195 154.6939 L185.7169 157.0987 L182.3784 159.5916 L179.1063 162.1712
 L175.9028 164.8355 L172.7701 167.5827 L169.7105 170.411 L166.7259 173.3185z" fill="rgb(255,215,0)"/>
</g>
<g stroke="rgb(0,0,139)" stroke-width="1.0627" stroke-linejoin="round" >
<path d="M184.9039 193.0961 L150.1266 86.0626 L148.2838 89.7996 L146.5394 93.5835 L144.8946 97.4117 L143.3507 101.2817 L141.9085 105.1908
 L140.5692 109.1363 L139.3336 113.1155 L138.2026 117.1257 L137.177 121.1641 L136.2575 125.228 L135.4446 129.3146 L134.739 133.421
 L134.1411 137.5445 L133.6514 141.6823 L133.2701 145.8314 L132.9976 149.9891 L132.834 154.1525 L132.7795 158.3188 L132.834 162.4851
 L132.9976 166.6485 L133.2701 170.8062 L133.6514 174.9553 L134.1411 179.0931 L134.739 183.2166 L135.4446 187.323 L136.2575 191.4096
 L137.177 195.4735 L138.2026 199.5119 L139.3336 203.5221 L140.5692 207.5013z" fill="rgb(255,215,0)"/>
</g>
<g stroke="rgb(0,0,139)" stroke-width="1.0627" stroke-linejoin="round" >
<path d="M149.2105 228.7895 L224.8946 253.3807 L173.8018 153.1054z" fill="rgb(255,215,0)"/>
</g>
<g stroke="rgb(0,0,139)" stroke-width="1.0627" stroke-linejoin="round" >
<path d="M224.9277 228.7895 L304.5066 228.7895 L224.9277 149.2105z" fill="rgb(255,215,0)"/>
</g>
<g stroke="rgb(0,0,139)" stroke-width="1.0627" stroke-linejoin="round" >
<path d="M227.6584 178.3114 L260.6211 145.3487 L260.6211 98.7324 L227.6584 65.7698 L224.5918 69.0134 L221.7119 72.4239 L219.0277 75.9905 L216.5478 79.702 L214.2798 83.5467
 L212.231 87.5126 L210.4078 91.587 L208.8159 95.7573 L207.4604 100.0103 L206.3454 104.3326 L205.4746 108.7106 L204.8506 113.1306
 L204.4754 117.5785 L204.3502 122.0406 L204.4754 126.5026 L204.8506 130.9506 L205.4746 135.3705 L206.3454 139.7486 L207.4604 144.0709
 L208.8159 148.3238 L210.4078 152.4941 L212.231 156.5686 L214.2798 160.5344 L216.5478 164.3791 L219.0277 168.0906 L221.7119 171.6572
 L224.5918 175.0677 L227.6584 178.3114z" fill="rgb(255,215,0)"/>
</g>
<g stroke="rgb(0,0,139)" stroke-width="1.0627" stroke-linejoin="round" >
<path d="M196.9579 238.1127 L182.5527 193.778 L141.0173 172.6147 L96.6826 187.0199 L98.1805 191.2249 L99.9118 195.3392 L101.8711 199.35 L104.0522 203.2446 L106.4482 207.0108
 L109.0517 210.6368 L111.8543 214.111 L114.8474 217.4227 L118.0214 220.5613 L121.3664 223.517 L124.8719 226.2805 L128.5268 228.8431
 L132.3197 231.1967 L136.2386 233.334 L140.2711 235.2482 L144.4046 236.9332 L148.6261 238.3839 L152.9223 239.5955 L157.2797 240.5644
 L161.6845 241.2874 L166.123 241.7623 L170.5811 241.9876 L175.0448 241.9625 L179.5 241.6872 L183.9329 241.1626 L188.3293 240.3902
 L192.6756 239.3725 L196.9579 238.1127z" fill="rgb(255,215,0)"/>
</g>
<g stroke="rgb(0,0,139)" stroke-width="1.0627" stroke-linejoin="round" >
<path d="M202.4193 142.618 L235.382 142.618 L202.4193 175.5807 L169.4567 142.618z" fill="rgb(255,215,0)"/>
</g>
</svg>
