<?xml version="1.0" encoding="utf-8" standalone="no"?>
<!DOCTYPE svg PUBLIC "-//W3C//DTD SVG 1.1//EN" "http://www.w3.org/TR/2001/REC-SVG-20010904/DTD/svg11.dtd">
<svg width="10cm" height="10cm" viewBox="0 0 378 378" overflow="hidden"
 version="1.1" xmlns="http://www.w3.org/2000/svg"  xmlns:xlink="http://www.w3.org/1999/xlink">
<!--tangram  (Utilisateur) -->
<g stroke="rgb(0,0,139)" stroke-width="1.0627" stroke-linejoin="round" >
<path d="M188.693 230.7789 L157.0498 196.5476 L154.4616 199.1358 L152.0844 201.9191 L149.933 204.8803 L148.0205 208.0012 L146.3587 211.2626
 L144.958 214.6443 L143.8269 218.1254 L142.9724 221.6846 L142.3998 225.2998 L142.1126 228.9488z" fill="rgb(255,215,0)"/>
</g>
<g stroke="rgb(0,0,139)" stroke-width="1.0627" stroke-linejoin="round" >
<path d="M191.0238 261.4108 L162.1639 298.0194 L165.1252 300.1708 L168.2461 302.0833 L171.5074 303.7451 L174.8891 305.1458 L178.3702 306.2769
 L181.9294 307.1314 L185.5446 307.704 L189.1936 307.9911 L192.8539 307.9911 L196.5029 307.704z" fill="rgb(255,215,0)"/>
</g>
<g stroke="rgb(0,0,139)" stroke-width="1.0627" stroke-linejoin="round" >
<path d="M199.9471 226.8 L133.7968 135.7519 L137.9033 136.4575 L141.9898 137.2704 L146.0537 138.19 L150.0921 139.2156 L154.1023 140.3466
 L158.0815 141.5822 L162.027 142.9215 L165.9361 144.3636 L169.8061 145.9076 L173.6344 147.5523 L177.4183 149.2967 L181.1552 151.1396
 L184.8426 153.0796 L188.478 155.1155 L192.0588 157.2459 L195.5826 159.4693 L199.0471 161.7841 L202.4497 164.1889 L205.7882 166.6819
 L209.0603 169.2614 L212.2638 171.9257 L215.3965 174.6729 L218.4561 177.5013 L221.4407 180.4087 L224.3481 183.3932 L227.1764 186.4529
 L229.9237 189.5855 L232.588 192.789 L235.1675 196.0611 L237.6605 199.3996z" fill="rgb(255,215,0)"/>
</g>
<g stroke="rgb(0,0,139)" stroke-width="1.0627" stroke-linejoin="round" >
<path d="M154.0135 228.4481 L41.5587 224.0298 L44.4268 227.0521 L47.373 229.9984 L50.3954 232.8665 L53.4918 235.6545 L56.6601 238.3605
 L59.8982 240.9827 L63.2038 243.5191 L66.5747 245.9682 L70.0085 248.3282 L73.5029 250.5975 L77.0556 252.7746 L80.664 254.8579
 L84.3257 256.846 L88.0382 258.7377 L91.7989 260.5314 L95.6053 262.2261 L99.4548 263.8206 L103.3446 265.3138 L107.2723 266.7047
 L111.235 267.9922 L115.23 269.1756 L119.2547 270.254 L123.3062 271.2267 L127.3817 272.093 L131.4786 272.8523 L135.5939 273.5041
 L139.7249 274.048 L143.8687 274.4835 L148.0225 274.8104 L152.1834 275.0285z" fill="rgb(255,215,0)"/>
</g>
<g stroke="rgb(0,0,139)" stroke-width="1.0627" stroke-linejoin="round" >
<path d="M144.4075 228.4481 L223.9865 228.4481 L144.4075 308.0271z" fill="rgb(255,215,0)"/>
</g>
<g stroke="rgb(0,0,139)" stroke-width="1.0627" stroke-linejoin="round" >
<path d="M271.0855 229.6135 L286.6105 151.5637 L193.0356 214.0885z" fill="rgb(255,215,0)"/>
</g>
<g stroke="rgb(0,0,139)" stroke-width="1.0627" stroke-linejoin="round" >
<path d="M234.6266 184.1627 L268.8579 152.5195 L270.6881 105.9392 L239.0449 71.7078 L235.8533 74.8286 L232.8417 78.1234 L230.0196 81.5819 L227.3959 85.1931 L224.9788 88.9458
 L222.7759 92.8282 L220.7941 96.8279 L219.0397 100.9325 L217.5182 105.129 L216.2345 109.4042 L215.1924 113.7446 L214.3954 118.1367
 L213.8458 122.5665 L213.5456 127.0202 L213.4955 131.4837 L213.6958 135.943 L214.1457 140.384 L214.844 144.7928 L215.7884 149.1556
 L216.976 153.4585 L218.4029 157.6881 L220.0647 161.831 L221.9562 165.8742 L224.0715 169.805 L226.4038 173.611 L228.9459 177.2802
 L231.6897 180.8011 L234.6266 184.1627z" fill="rgb(255,215,0)"/>
</g>
<g stroke="rgb(0,0,139)" stroke-width="1.0627" stroke-linejoin="round" >
<path d="M273.899 228.4481 L227.3187 226.618 L193.0873 258.2611 L191.2571 304.8415 L195.7206 304.8916 L200.1799 304.6913 L204.621 304.2413 L209.0298 303.543 L213.3925 302.5986
 L217.6955 301.4111 L221.925 299.9842 L226.0679 298.3223 L230.1111 296.4308 L234.0419 294.3156 L237.8479 291.9832 L241.5172 289.4412
 L245.0381 286.6974 L248.3996 283.7605 L251.5912 280.6397 L254.6028 277.3449 L257.4249 273.8864 L260.0487 270.2752 L262.4658 266.5225
 L264.6687 262.6401 L266.6505 258.6404 L268.4049 254.5358 L269.9263 250.3393 L271.2101 246.0641 L272.2522 241.7237 L273.0492 237.3316
 L273.5987 232.9018 L273.899 228.4481z" fill="rgb(255,215,0)"/>
</g>
<g stroke="rgb(0,0,139)" stroke-width="1.0627" stroke-linejoin="round" >
<path d="M271.0855 74.4346 L303.8197 70.5602 L267.2111 41.7004 L238.3513 78.3089z" fill="rgb(255,215,0)"/>
</g>
</svg>
