<?xml version="1.0" encoding="utf-8" standalone="no"?>
<!DOCTYPE svg PUBLIC "-//W3C//DTD SVG 1.1//EN" "http://www.w3.org/TR/2001/REC-SVG-20010904/DTD/svg11.dtd">
<svg width="10cm" height="10cm" viewBox="0 0 378 378" overflow="hidden"
 version="1.1" xmlns="http://www.w3.org/2000/svg"  xmlns:xlink="http://www.w3.org/1999/xlink">
<!--tangram  (Utilisateur) -->
<g stroke="rgb(0,0,139)" stroke-width="1.0627" stroke-linejoin="round" >
<path d="M120.0268 148.138 L142.8045 107.4655 L139.5432 105.8037 L136.1615 104.403 L132.6804 103.2719 L129.1212 102.4174 L125.506 101.8448
 L121.857 101.5577 L118.1967 101.5577 L114.5477 101.8448 L110.9325 102.4174 L107.3733 103.2719z" fill="rgb(255,215,0)"/>
</g>
<g stroke="rgb(0,0,139)" stroke-width="1.0627" stroke-linejoin="round" >
<path d="M136.3425 143.3592 L182.9588 143.3592 A46.6163,46.6163 0 0,0 169.3052,110.3966z" fill="rgb(255,215,0)"/>
</g>
<g stroke="rgb(0,0,139)" stroke-width="1.0627" stroke-linejoin="round" >
<path d="M220.2317 214.8632 L329.6638 188.5908 L326.083 186.4605 L322.4476 184.4246 L318.7602 182.4845 L315.0233 180.6417 L311.2394 178.8973
 L307.4111 177.2525 L303.5411 175.7086 L299.632 174.2664 L295.6865 172.9271 L291.7073 171.6915 L287.6971 170.5605 L283.6587 169.5349
 L279.5948 168.6153 L275.5083 167.8025 L271.4018 167.0969 L267.2783 166.499 L263.1406 166.0092 L258.9914 165.628 L254.8337 165.3555
 L250.6703 165.1919 L246.504 165.1374 L242.3378 165.1919 L238.1744 165.3555 L234.0167 165.628 L229.8675 166.0092 L225.7298 166.499
 L221.6063 167.0969 L217.4998 167.8025 L213.4133 168.6153 L209.3494 169.5349z" fill="rgb(255,215,0)"/>
</g>
<g stroke="rgb(0,0,139)" stroke-width="1.0627" stroke-linejoin="round" >
<path d="M187.269 204.9744 L156.7207 96.6581 L154.7326 100.3198 L152.8409 104.0323 L151.0472 107.793 L149.3524 111.5994 L147.7579 115.4489
 L146.2648 119.3387 L144.8739 123.2664 L143.5864 127.2291 L142.403 131.2241 L141.3246 135.2488 L140.3519 139.3003 L139.4856 143.3758
 L138.7263 147.4727 L138.0745 151.588 L137.5306 155.719 L137.0951 159.8628 L136.7682 164.0166 L136.5501 168.1775 L136.4411 172.3427
 L136.4411 176.5093 L136.5501 180.6745 L136.7682 184.8354 L137.0951 188.9892 L137.5306 193.133 L138.0745 197.264 L138.7263 201.3793
 L139.4856 205.4762 L140.3519 209.5517 L141.3246 213.6032 L142.403 217.6279z" fill="rgb(255,215,0)"/>
</g>
<g stroke="rgb(0,0,139)" stroke-width="1.0627" stroke-linejoin="round" >
<path d="M214.6046 204.9744 L256.1845 137.1221 L146.7524 163.3945z" fill="rgb(255,215,0)"/>
</g>
<g stroke="rgb(0,0,139)" stroke-width="1.0627" stroke-linejoin="round" >
<path d="M189 264.8585 L132.7292 321.1293 L245.2708 321.1293z" fill="rgb(255,215,0)"/>
</g>
<g stroke="rgb(0,0,139)" stroke-width="1.0627" stroke-linejoin="round" >
<path d="M101.2632 204.9744 L147.8795 204.9744 L180.8422 172.0117 L180.8422 125.3954 A79.5789,79.5789 0 0,0 101.2632,204.9744z" fill="rgb(255,215,0)"/>
</g>
<g stroke="rgb(0,0,139)" stroke-width="1.0627" stroke-linejoin="round" >
<path d="M260.4211 204.9744 L276.5558 248.7093 L318.89 268.2257 L362.625 252.091 L360.9632 247.9481 L359.0717 243.9049 L356.9564 239.9741 L354.6241 236.1681 L352.082 232.4989
 L349.3382 228.9779 L346.4013 225.6164 L343.2806 222.4248 L339.9858 219.4132 L336.5273 216.5911 L332.916 213.9674 L329.1633 211.5502
 L325.281 209.3473 L321.2812 207.3656 L317.1767 205.6112 L312.9802 204.0897 L308.705 202.8059 L304.3645 201.7639 L299.9725 200.9668
 L295.5427 200.4173 L291.089 200.117 L286.6255 200.067 L282.1662 200.2672 L277.7252 200.7172 L273.3163 201.4155 L268.9536 202.3599
 L264.6507 203.5474 L260.4211 204.9744z" fill="rgb(255,215,0)"/>
</g>
<g stroke="rgb(0,0,139)" stroke-width="1.0627" stroke-linejoin="round" >
<path d="M182.7245 127.2778 L214.0739 117.0918 L172.5385 95.9284 L151.3752 137.4638z" fill="rgb(255,215,0)"/>
</g>
</svg>
