<?xml version="1.0" encoding="utf-8" standalone="no"?>
<!DOCTYPE svg PUBLIC "-//W3C//DTD SVG 1.1//EN" "http://www.w3.org/TR/2001/REC-SVG-20010904/DTD/svg11.dtd">
<svg width="10cm" height="10cm" viewBox="0 0 378 378" overflow="hidden"
 version="1.1" xmlns="http://www.w3.org/2000/svg"  xmlns:xlink="http://www.w3.org/1999/xlink">
<!--tangram  (Utilisateur) -->
<g stroke="rgb(0,0,139)" stroke-width="1.0627" stroke-linejoin="round" >
<path d="M110.2209 252.6632 L95.8156 208.3285 L92.3816 209.5953 L89.0575 211.1278 L85.8639 212.9163 L82.8205 214.9498 L79.946 217.2159
 L77.2582 219.7005 L74.7736 222.3883 L72.5075 225.2628 L70.474 228.3062 L68.6855 231.4998z" fill="rgb(255,215,0)"/>
</g>
<g stroke="rgb(0,0,139)" stroke-width="1.0627" stroke-linejoin="round" >
<path d="M138.1906 257.6561 L165.591 295.3694 L168.4655 293.1034 L171.1533 290.6188 L173.6379 287.9309 L175.904 285.0564 L177.9375 282.013
 L179.726 278.8194 L181.2584 275.4953 L182.5253 272.0613 L183.5189 268.5384 L184.233 264.9485z" fill="rgb(255,215,0)"/>
</g>
<g stroke="rgb(0,0,139)" stroke-width="1.0627" stroke-linejoin="round" >
<path d="M245.2708 204.9158 L345.5461 153.823 L344.2068 157.7685 L342.7647 161.6776 L341.2207 165.5476 L339.576 169.3758 L337.8316 173.1597
 L335.9887 176.8966 L334.0487 180.584 L332.0128 184.2194 L329.8824 187.8002 L327.659 191.3241 L325.3442 194.7885 L322.9394 198.1911
 L320.4464 201.5297 L317.8669 204.8018 L315.2026 208.0053 L312.4553 211.1379 L309.627 214.1975 L306.7196 217.1821 L303.735 220.0895
 L300.6754 222.9178 L297.5428 225.6651 L294.3393 228.3294 L291.0672 230.9089 L287.7286 233.4019 L284.326 235.8067 L280.8616 238.1215
 L277.3378 240.3449 L273.7569 242.4752 L270.1216 244.5111 L266.4342 246.4512z" fill="rgb(255,215,0)"/>
</g>
<g stroke="rgb(0,0,139)" stroke-width="1.0627" stroke-linejoin="round" >
<path d="M206.8467 224.6934 L106.5714 173.6006 L107.9107 177.5461 L109.3528 181.4552 L110.8968 185.3252 L112.5416 189.1534 L114.286 192.9373
 L116.1288 196.6742 L118.0688 200.3617 L120.1047 203.997 L122.2351 207.5778 L124.4585 211.1017 L126.7733 214.5661 L129.1781 217.9687
 L131.6711 221.3073 L134.2506 224.5794 L136.9149 227.7829 L139.6622 230.9155 L142.4905 233.9751 L145.3979 236.9597 L148.3825 239.8671
 L151.4421 242.6954 L154.5747 245.4427 L157.7782 248.107 L161.0503 250.6865 L164.3889 253.1795 L167.7915 255.5843 L171.2559 257.8991
 L174.7798 260.1225 L178.3606 262.2529 L181.9959 264.2888 L185.6834 266.2288z" fill="rgb(255,215,0)"/>
</g>
<g stroke="rgb(0,0,139)" stroke-width="1.0627" stroke-linejoin="round" >
<path d="M91.5744 224.6934 L171.1533 224.6934 L91.5744 304.2723z" fill="rgb(255,215,0)"/>
</g>
<g stroke="rgb(0,0,139)" stroke-width="1.0627" stroke-linejoin="round" >
<path d="M223.5623 238.6783 L279.8331 294.9491 L279.8331 182.4075z" fill="rgb(255,215,0)"/>
</g>
<g stroke="rgb(0,0,139)" stroke-width="1.0627" stroke-linejoin="round" >
<path d="M148.645 206.0469 L192.9797 191.6417 L214.143 150.1063 L199.7378 105.7716 L195.5329 107.2695 L191.4185 109.0008 L187.4077 110.9601 L183.5131 113.1412 L179.7469 115.5372
 L176.1209 118.1407 L172.6467 120.9433 L169.335 123.9364 L166.1964 127.1104 L163.2407 130.4554 L160.4772 133.9609 L157.9146 137.6158
 L155.561 141.4087 L153.4237 145.3276 L151.5095 149.3601 L149.8245 153.4936 L148.3738 157.7151 L147.1622 162.0113 L146.1933 166.3687
 L145.4703 170.7735 L144.9954 175.212 L144.7701 179.67 L144.7952 184.1338 L145.0705 188.589 L145.5951 193.0219 L146.3675 197.4183
 L147.3852 201.7646 L148.645 206.0469z" fill="rgb(255,215,0)"/>
</g>
<g stroke="rgb(0,0,139)" stroke-width="1.0627" stroke-linejoin="round" >
<path d="M257.3248 224.6934 L215.7894 203.5301 L171.4547 217.9353 L150.2913 259.4707 L154.3239 261.3848 L158.4574 263.0699 L162.6789 264.5205 L166.9751 265.7322 L171.3324 266.701
 L175.7373 267.424 L180.1757 267.8989 L184.6338 268.1242 L189.0975 268.0992 L193.5528 267.8239 L197.9857 267.2992 L202.3821 266.5268
 L206.7283 265.5092 L211.0107 264.2494 L215.2156 262.7515 L219.33 261.0202 L223.3408 259.0609 L227.2354 256.8798 L231.0016 254.4837
 L234.6276 251.8803 L238.1018 249.0776 L241.4135 246.0846 L244.5521 242.9105 L247.5078 239.5655 L250.2713 236.06 L252.8339 232.4051
 L255.1875 228.6123 L257.3248 224.6934z" fill="rgb(255,215,0)"/>
</g>
<g stroke="rgb(0,0,139)" stroke-width="1.0627" stroke-linejoin="round" >
<path d="M223.5623 127.2678 L228.7188 94.7109 L191.0054 122.1113 L218.4058 159.8246z" fill="rgb(255,215,0)"/>
</g>
</svg>
