<?xml version="1.0" encoding="utf-8" standalone="no"?>
<!DOCTYPE svg PUBLIC "-//W3C//DTD SVG 1.1//EN" "http://www.w3.org/TR/2001/REC-SVG-20010904/DTD/svg11.dtd">
<svg width="10cm" height="10cm" viewBox="0 0 378 378" overflow="hidden"
 version="1.1" xmlns="http://www.w3.org/2000/svg"  xmlns:xlink="http://www.w3.org/1999/xlink">
<!--fond  (Utilisateur) -->
<g  stroke-linejoin="round" >
<polygon fill="rgb(0,0,139)" points="0,0,0,378,378,378,378,0"/>
</g>
<!--tangram  (Utilisateur) -->
<g stroke="rgb(0,0,139)" stroke-width="1.0627" stroke-linejoin="round" >
<path d="M178.4528 173.6841 L211.4155 140.7214 L208.7276 138.2368 L205.8531 135.9707 L202.8097 133.9372 L199.6161 132.1487 L196.292 130.6163
 L192.858 129.3494 L189.3351 128.3558 L185.7452 127.6417 L182.1102 127.2115 L178.4528 127.0678z" fill="rgb(255,215,0)"/>
</g>
<g stroke="rgb(0,0,139)" stroke-width="1.0627" stroke-linejoin="round" >
<path d="M194.7685 157.3684 L219.1254 117.6215 L215.9318 115.833 L212.6077 114.3006 L209.1737 113.0337 L205.6508 112.0401 L202.0609 111.326
 L198.4259 110.8958 L194.7685 110.7521 L191.111 110.8958 L187.4761 111.326 L183.8861 112.0401z" fill="rgb(255,215,0)"/>
</g>
<g stroke="rgb(0,0,139)" stroke-width="1.0627" stroke-linejoin="round" >
<path d="M194.7685 157.3684 L249.7587 255.5605 L250.8371 251.5358 L251.8098 247.4843 L252.6761 243.4088 L253.4354 239.3119 L254.0872 235.1966
 L254.631 231.0656 L255.0666 226.9218 L255.3935 222.768 L255.6115 218.6071 L255.7206 214.4419 L255.7206 210.2753 L255.6115 206.1101
 L255.3935 201.9492 L255.0666 197.7954 L254.631 193.6516 L254.0872 189.5206 L253.4354 185.4053 L252.6761 181.3084 L251.8098 177.2329
 L250.8371 173.1814 L249.7587 169.1567 L248.5753 165.1617 L247.2878 161.199 L245.8969 157.2713 L244.4037 153.3815 L242.8092 149.532
 L241.1145 145.7256 L239.3207 141.9649 L237.4291 138.2524 L235.441 134.5907z" fill="rgb(255,215,0)"/>
</g>
<g stroke="rgb(0,0,139)" stroke-width="1.0627" stroke-linejoin="round" >
<path d="M206.3054 145.8314 L210.7238 258.2863 L213.5118 255.1899 L216.2178 252.0216 L218.8399 248.7835 L221.3764 245.4779 L223.8255 242.107
 L226.1855 238.6732 L228.4548 235.1788 L230.6319 231.6261 L232.7152 228.0177 L234.7033 224.356 L236.5949 220.6435 L238.3887 216.8828
 L240.0834 213.0764 L241.6779 209.2269 L243.1711 205.3371 L244.562 201.4094 L245.8495 197.4467 L247.0329 193.4517 L248.1113 189.427
 L249.084 185.3755 L249.9503 181.3 L250.7096 177.2031 L251.3614 173.0878 L251.9052 168.9568 L252.3408 164.813 L252.6677 160.6592
 L252.8857 156.4983 L252.9948 152.3331 L252.9948 148.1665 L252.8857 144.0013z" fill="rgb(255,215,0)"/>
</g>
<g stroke="rgb(0,0,139)" stroke-width="1.0627" stroke-linejoin="round" >
<path d="M175.0737 228.7895 L251.6649 250.3904 L196.6746 152.1983z" fill="rgb(255,215,0)"/>
</g>
<g stroke="rgb(0,0,139)" stroke-width="1.0627" stroke-linejoin="round" >
<path d="M175.0737 228.7895 L253.1235 213.2644 L159.5486 150.7396z" fill="rgb(255,215,0)"/>
</g>
<g stroke="rgb(0,0,139)" stroke-width="1.0627" stroke-linejoin="round" >
<path d="M143.0422 209.0947 L187.9082 196.4411 L210.6859 155.7686 L198.0324 110.9026 L193.7719 112.2342 L189.5927 113.8027 L185.5081 115.603 L181.5308 117.6295 L177.6734 119.8759
 L173.9481 122.335 L170.3665 124.999 L166.9399 127.8598 L163.6791 130.9081 L160.5943 134.1345 L157.6953 137.5288 L154.9912 141.0803
 L152.4905 144.7779 L150.201 148.6098 L148.13 152.5641 L146.284 156.6282 L144.6687 160.7895 L143.2893 165.0348 L142.1502 169.3508
 L141.2548 173.7239 L140.606 178.1402 L140.2059 182.5861 L140.0556 187.0473 L140.1558 191.51 L140.506 195.96 L141.1052 200.3834
 L141.9515 204.7662 L143.0422 209.0947z" fill="rgb(255,215,0)"/>
</g>
<g stroke="rgb(0,0,139)" stroke-width="1.0627" stroke-linejoin="round" >
<path d="M202.3265 236.9473 L181.1631 278.4827 L195.5683 322.8174 L237.1037 343.9808 L239.0179 339.9482 L240.703 335.8147 L242.1536 331.5932 L243.3652 327.297 L244.3341 322.9397
 L245.0571 318.5348 L245.532 314.0964 L245.7573 309.6383 L245.7322 305.1746 L245.457 300.7193 L244.9323 296.2864 L244.1599 291.89
 L243.1422 287.5438 L241.8824 283.2614 L240.3845 279.0565 L238.6532 274.9421 L236.6939 270.9313 L234.5128 267.0367 L232.1168 263.2705
 L229.5133 259.6445 L226.7107 256.1703 L223.7176 252.8586 L220.5436 249.72 L217.1986 246.7643 L213.6931 244.0008 L210.0382 241.4382
 L206.2453 239.0846 L202.3265 236.9473z" fill="rgb(255,215,0)"/>
</g>
<g stroke="rgb(0,0,139)" stroke-width="1.0627" stroke-linejoin="round" >
<path d="M155.3789 236.9473 L188.3416 236.9473 L155.3789 269.91 L122.4162 236.9473z" fill="rgb(255,215,0)"/>
</g>
</svg>
