<?xml version="1.0" encoding="utf-8" standalone="no"?>
<!DOCTYPE svg PUBLIC "-//W3C//DTD SVG 1.1//EN" "http://www.w3.org/TR/2001/REC-SVG-20010904/DTD/svg11.dtd">
<svg width="10cm" height="10cm" viewBox="0 0 378 378" overflow="hidden"
 version="1.1" xmlns="http://www.w3.org/2000/svg"  xmlns:xlink="http://www.w3.org/1999/xlink">
<!--tangram  (Utilisateur) -->
<g stroke="rgb(0,0,139)" stroke-width="1.0627" stroke-linejoin="round" >
<path d="M244.8123 178.9456 L272.2127 141.2322 L269.1693 139.1986 L265.9757 137.4102 L262.6516 135.8777 L259.2176 134.6108 L255.6947 133.6173
 L252.1047 132.9032 L248.4698 132.473 L244.8123 132.3293 L241.1549 132.473 L237.52 132.9032z" fill="rgb(255,215,0)"/>
</g>
<g stroke="rgb(0,0,139)" stroke-width="1.0627" stroke-linejoin="round" >
<path d="M194.1686 103.0628 L197.8261 56.5902 L194.1686 56.4465 L190.5111 56.5902 L186.8762 57.0204 L183.2863 57.7345 L179.7634 58.7281
 L176.3293 59.995 L173.0053 61.5274 L169.8117 63.3159 L166.7683 65.3494 L163.8938 67.6155z" fill="rgb(255,215,0)"/>
</g>
<g stroke="rgb(0,0,139)" stroke-width="1.0627" stroke-linejoin="round" >
<path d="M217.2425 172.7529 L208.4126 60.5582 L205.7483 63.7617 L203.1687 67.0338 L200.6757 70.3723 L198.271 73.775 L195.9561 77.2394
 L193.7328 80.7632 L191.6024 84.3441 L189.5665 87.9794 L187.6265 91.6668 L185.7836 95.4038 L184.0392 99.1877 L182.3945 103.0159
 L180.8505 106.8859 L179.4084 110.795 L178.069 114.7405 L176.8335 118.7197 L175.7025 122.7299 L174.6768 126.7683 L173.7573 130.8322
 L172.9444 134.9188 L172.2388 139.0252 L171.6409 143.1487 L171.1512 147.2865 L170.7699 151.4356 L170.4974 155.5933 L170.3338 159.7567
 L170.2793 163.923 L170.3338 168.0893 L170.4974 172.2527 L170.7699 176.4104z" fill="rgb(255,215,0)"/>
</g>
<g stroke="rgb(0,0,139)" stroke-width="1.0627" stroke-linejoin="round" >
<path d="M147.2211 228.7895 L61.6437 155.6995 L62.025 159.8487 L62.5147 163.9864 L63.1126 168.1099 L63.8182 172.2164 L64.6311 176.3029
 L65.5506 180.3668 L66.5763 184.4052 L67.7073 188.4154 L68.9428 192.3946 L70.2822 196.3401 L71.7243 200.2492 L73.2683 204.1192
 L74.913 207.9475 L76.6574 211.7314 L78.5003 215.4683 L80.4403 219.1557 L82.4762 222.7911 L84.6066 226.3719 L86.83 229.8958
 L89.1448 233.3602 L91.5496 236.7628 L94.0425 240.1013 L96.6221 243.3735 L99.2864 246.5769 L102.0336 249.7096 L104.8619 252.7692
 L107.7694 255.7538 L110.7539 258.6612 L113.8136 261.4895 L116.9462 264.2368z" fill="rgb(255,215,0)"/>
</g>
<g stroke="rgb(0,0,139)" stroke-width="1.0627" stroke-linejoin="round" >
<path d="M251.5705 139.556 L330.1697 152.0049 L264.0194 60.9568z" fill="rgb(255,215,0)"/>
</g>
<g stroke="rgb(0,0,139)" stroke-width="1.0627" stroke-linejoin="round" >
<path d="M194.9684 275.4057 L138.6976 331.6766 L251.2392 331.6766z" fill="rgb(255,215,0)"/>
</g>
<g stroke="rgb(0,0,139)" stroke-width="1.0627" stroke-linejoin="round" >
<path d="M250.6737 219.7005 L209.1383 198.5371 L164.8036 212.9424 L143.6402 254.4778 L147.6728 256.3919 L151.8063 258.077 L156.0278 259.5276 L160.324 260.7393 L164.6813 261.7081
 L169.0862 262.4311 L173.5246 262.906 L177.9827 263.1313 L182.4464 263.1063 L186.9017 262.831 L191.3346 262.3063 L195.731 261.5339
 L200.0772 260.5162 L204.3596 259.2565 L208.5645 257.7586 L212.6789 256.0272 L216.6897 254.0679 L220.5843 251.8868 L224.3505 249.4908
 L227.9765 246.8874 L231.4507 244.0847 L234.7624 241.0916 L237.901 237.9176 L240.8567 234.5726 L243.6202 231.0671 L246.1828 227.4122
 L248.5364 223.6193 L250.6737 219.7005z" fill="rgb(255,215,0)"/>
</g>
<g stroke="rgb(0,0,139)" stroke-width="1.0627" stroke-linejoin="round" >
<path d="M163.1368 195.8268 L206.2047 177.9875 L224.0439 134.9197 L206.2047 91.8519 L202.1302 93.6751 L198.1644 95.7239 L194.3197 97.9918 L190.6082 100.4718 L187.0415 103.1559
 L183.631 106.0358 L180.3874 109.1024 L177.3208 112.3461 L174.4409 115.7566 L171.7567 119.3232 L169.2768 123.0347 L167.0088 126.8794
 L164.96 130.8452 L163.1368 134.9197 L161.545 139.09 L160.1894 143.343 L159.0745 147.6653 L158.2036 152.0433 L157.5796 156.4632
 L157.2044 160.9112 L157.0793 165.3732 L157.2044 169.8353 L157.5796 174.2833 L158.2036 178.7032 L159.0745 183.0812 L160.1894 187.4035
 L161.545 191.6565 L163.1368 195.8268z" fill="rgb(255,215,0)"/>
</g>
<g stroke="rgb(0,0,139)" stroke-width="1.0627" stroke-linejoin="round" >
<path d="M139.2632 218.9007 L172.2258 218.9007 L139.2632 185.938 L106.3005 218.9007z" fill="rgb(255,215,0)"/>
</g>
</svg>
