<?xml version="1.0" encoding="utf-8" standalone="no"?>
<!DOCTYPE svg PUBLIC "-//W3C//DTD SVG 1.1//EN" "http://www.w3.org/TR/2001/REC-SVG-20010904/DTD/svg11.dtd">
<svg width="10cm" height="10cm" viewBox="0 0 378 378" overflow="hidden"
 version="1.1" xmlns="http://www.w3.org/2000/svg"  xmlns:xlink="http://www.w3.org/1999/xlink">
<!--fond  (Utilisateur) -->
<g  stroke-linejoin="round" >
<polygon fill="rgb(0,0,139)" points="0,0,0,378,378,378,378,0"/>
</g>
<!--tangram  (Utilisateur) -->
<g stroke="rgb(0,0,139)" stroke-width="1.0627" stroke-linejoin="round" >
<path d="M182.8902 225.4104 L172.0078 180.0821 L168.485 181.0757 L165.0509 182.3426 L161.7268 183.875 L158.5333 185.6635 L155.4898 187.697
 L152.6153 189.9631 L149.9275 192.4477 L147.4429 195.1355 L145.1768 198.01 L143.1433 201.0534z" fill="rgb(255,215,0)"/>
</g>
<g stroke="rgb(0,0,139)" stroke-width="1.0627" stroke-linejoin="round" >
<path d="M199.2059 230.5204 L201.036 277.1008 L204.685 276.8136 L208.3003 276.241 L211.8594 275.3865 L215.3406 274.2554 L218.7222 272.8547
 L221.9836 271.1929 L225.1045 269.2804 L228.0657 267.129 L230.849 264.7518 L233.4373 262.1636z" fill="rgb(255,215,0)"/>
</g>
<g stroke="rgb(0,0,139)" stroke-width="1.0627" stroke-linejoin="round" >
<path d="M199.2059 209.0947 L261.7307 115.5197 L257.6551 116.386 L253.6036 117.3587 L249.5789 118.4371 L245.5839 119.6205 L241.6212 120.9081
 L237.6936 122.2989 L233.8037 123.7921 L229.9542 125.3866 L226.1478 127.0813 L222.3871 128.8751 L218.6746 130.7667 L215.0129 132.7548
 L211.4045 134.8382 L207.8519 137.0152 L204.3574 139.2845 L200.9236 141.6445 L197.5527 144.0936 L194.2471 146.6301 L191.0091 149.2522
 L187.8407 151.9582 L184.7443 154.7462 L181.722 157.6144 L178.7757 160.5606 L175.9076 163.583 L173.1196 166.6794 L170.4136 169.8477
 L167.7914 173.0858 L165.255 176.3914 L162.8059 179.7623 L160.4459 183.1961z" fill="rgb(255,215,0)"/>
</g>
<g stroke="rgb(0,0,139)" stroke-width="1.0627" stroke-linejoin="round" >
<path d="M180.4422 197.5578 L129.3494 97.2824 L128.1138 101.2616 L126.9829 105.2718 L125.9572 109.3102 L125.0377 113.3741 L124.2248 117.4607
 L123.5192 121.5671 L122.9213 125.6906 L122.4316 129.8284 L122.0503 133.9775 L121.7778 138.1352 L121.6142 142.2987 L121.5597 146.4649
 L121.6142 150.6312 L121.7778 154.7946 L122.0503 158.9523 L122.4316 163.1015 L122.9213 167.2392 L123.5192 171.3627 L124.2248 175.4691
 L125.0377 179.5557 L125.9572 183.6196 L126.9829 187.658 L128.1138 191.6682 L129.3494 195.6474 L130.6887 199.5929 L132.1309 203.502
 L133.6749 207.372 L135.3196 211.2003 L137.064 214.9842 L138.9068 218.7211z" fill="rgb(255,215,0)"/>
</g>
<g stroke="rgb(0,0,139)" stroke-width="1.0627" stroke-linejoin="round" >
<path d="M149.2105 228.7895 L225.8017 250.3904 L170.8115 152.1983z" fill="rgb(255,215,0)"/>
</g>
<g stroke="rgb(0,0,139)" stroke-width="1.0627" stroke-linejoin="round" >
<path d="M231.2374 228.7895 L309.2873 213.2644 L215.7123 150.7396z" fill="rgb(255,215,0)"/>
</g>
<g stroke="rgb(0,0,139)" stroke-width="1.0627" stroke-linejoin="round" >
<path d="M229.5065 178.7941 L262.4691 145.8314 L262.4691 99.2152 L229.5065 66.2525 L226.4399 69.4961 L223.5599 72.9066 L220.8758 76.4732 L218.3959 80.1847 L216.1279 84.0295
 L214.0791 87.9953 L212.2559 92.0698 L210.664 96.24 L209.3085 100.493 L208.1935 104.8153 L207.3227 109.1933 L206.6987 113.6133
 L206.3235 118.0613 L206.1983 122.5233 L206.3235 126.9853 L206.6987 131.4333 L207.3227 135.8533 L208.1935 140.2313 L209.3085 144.5536
 L210.664 148.8066 L212.2559 152.9768 L214.0791 157.0513 L216.1279 161.0171 L218.3959 164.8619 L220.8758 168.5734 L223.5599 172.14
 L226.4399 175.5505 L229.5065 178.7941z" fill="rgb(255,215,0)"/>
</g>
<g stroke="rgb(0,0,139)" stroke-width="1.0627" stroke-linejoin="round" >
<path d="M206.7639 236.9473 L185.6005 195.4119 L141.2658 181.0067 L99.7304 202.17 L101.8677 206.0889 L104.2213 209.8818 L106.7839 213.5367 L109.5474 217.0422 L112.5031 220.3872
 L115.6418 223.5612 L118.9534 226.5543 L122.4277 229.3569 L126.0536 231.9604 L129.8198 234.3564 L133.7144 236.5375 L137.7252 238.4968
 L141.8396 240.2281 L146.0445 241.726 L150.3269 242.9858 L154.6731 244.0035 L159.0695 244.7759 L163.5024 245.3005 L167.9577 245.5758
 L172.4214 245.6009 L176.8795 245.3756 L181.3179 244.9007 L185.7228 244.1777 L190.0801 243.2088 L194.3763 241.9972 L198.5978 240.5465
 L202.7313 238.8615 L206.7639 236.9473z" fill="rgb(255,215,0)"/>
</g>
<g stroke="rgb(0,0,139)" stroke-width="1.0627" stroke-linejoin="round" >
<path d="M211.5426 133.4947 L244.5053 133.4947 L211.5426 166.4574 L178.58 133.4947z" fill="rgb(255,215,0)"/>
</g>
</svg>
