<?xml version="1.0" encoding="utf-8" standalone="no"?>
<!DOCTYPE svg PUBLIC "-//W3C//DTD SVG 1.1//EN" "http://www.w3.org/TR/2001/REC-SVG-20010904/DTD/svg11.dtd">
<svg width="10cm" height="10cm" viewBox="0 0 378 378" overflow="hidden"
 version="1.1" xmlns="http://www.w3.org/2000/svg"  xmlns:xlink="http://www.w3.org/1999/xlink">
<!--tangram  (Utilisateur) -->
<g stroke="rgb(0,0,139)" stroke-width="1.0627" stroke-linejoin="round" >
<path d="M276.8146 131.1154 L233.0796 114.9807 L231.9485 118.4618 L231.094 122.021 L230.5214 125.6362 L230.2343 129.2852 L230.2343 132.9455
 L230.5214 136.5945 L231.094 140.2097 L231.9485 143.7689 L233.0796 147.25 L234.4803 150.6317z" fill="rgb(255,215,0)"/>
</g>
<g stroke="rgb(0,0,139)" stroke-width="1.0627" stroke-linejoin="round" >
<path d="M133.324 139.3217 L113.8077 181.656 L117.1893 183.0567 L120.6705 184.1878 L124.2296 185.0423 L127.8449 185.6149 L131.4939 185.9021
 L135.1542 185.9021 L138.8032 185.6149 L142.4184 185.0423 L145.9776 184.1878 L149.4587 183.0567z" fill="rgb(255,215,0)"/>
</g>
<g stroke="rgb(0,0,139)" stroke-width="1.0627" stroke-linejoin="round" >
<path d="M138.2684 200.7712 L250.03 187.5433 L246.7244 185.0069 L243.3535 182.5578 L239.9197 180.1978 L236.4252 177.9285 L232.8726 175.7514
 L229.2642 173.6681 L225.6025 171.68 L221.89 169.7884 L218.1293 167.9946 L214.3229 166.2999 L210.4734 164.7054 L206.5835 163.2122
 L202.6559 161.8213 L198.6932 160.5338 L194.6982 159.3504 L190.6735 158.272 L186.622 157.2993 L182.5464 156.433 L178.4496 155.6737
 L174.3343 155.0219 L170.2033 154.4781 L166.0595 154.0425 L161.9057 153.7156 L157.7448 153.4975 L153.5796 153.3885 L149.413 153.3885
 L145.2478 153.4975 L141.0868 153.7156 L136.9331 154.0425 L132.7893 154.4781z" fill="rgb(255,215,0)"/>
</g>
<g stroke="rgb(0,0,139)" stroke-width="1.0627" stroke-linejoin="round" >
<path d="M65.6819 223.8451 L135.3558 135.4642 L131.2248 136.0081 L127.1094 136.6599 L123.0126 137.4192 L118.937 138.2855 L114.8855 139.2582
 L110.8609 140.3366 L106.8658 141.5199 L102.9031 142.8075 L98.9755 144.1984 L95.0856 145.6915 L91.2362 147.286 L87.4298 148.9808
 L83.669 150.7745 L79.9565 152.6661 L76.2948 154.6543 L72.6864 156.7376 L69.1338 158.9147 L65.6394 161.184 L62.2055 163.544
 L58.8347 165.993 L55.5291 168.5295 L52.291 171.1517 L49.1227 173.8577 L46.0263 176.6457 L43.0039 179.5138 L40.0576 182.4601
 L37.1895 185.4824 L34.4015 188.5788 L31.6955 191.7471 L29.0734 194.9852z" fill="rgb(255,215,0)"/>
</g>
<g stroke="rgb(0,0,139)" stroke-width="1.0627" stroke-linejoin="round" >
<path d="M298.6402 147.9966 L283.1152 226.0465 L376.6901 163.5217z" fill="rgb(255,215,0)"/>
</g>
<g stroke="rgb(0,0,139)" stroke-width="1.0627" stroke-linejoin="round" >
<path d="M205.9105 275.4057 L149.6397 331.6766 L262.1813 331.6766z" fill="rgb(255,215,0)"/>
</g>
<g stroke="rgb(0,0,139)" stroke-width="1.0627" stroke-linejoin="round" >
<path d="M193.9737 263.4689 L204.856 218.1406 L180.4991 178.3937 L135.1708 167.5114 L134.2509 171.8794 L133.5774 176.292 L133.1523 180.7355 L132.9771 185.1959 L133.0522 189.659
 L133.3775 194.1109 L133.9518 198.5376 L134.7735 202.9251 L135.8399 207.2597 L137.1476 211.5276 L138.6926 215.7155 L140.47 219.8101
 L142.4742 223.7987 L144.6988 227.6686 L147.137 231.4077 L149.7809 235.0042 L152.6224 238.4468 L155.6524 241.7247 L158.8614 244.8275
 L162.2394 247.7454 L165.7757 250.4694 L169.4591 252.9909 L173.2782 255.3018 L177.2207 257.395 L181.2745 259.2638 L185.4267 260.9023
 L189.6642 262.3055 L193.9737 263.4689z" fill="rgb(255,215,0)"/>
</g>
<g stroke="rgb(0,0,139)" stroke-width="1.0627" stroke-linejoin="round" >
<path d="M285.4895 195.8268 L258.0891 158.1134 L212.0468 150.8211 L174.3334 178.2214 L177.0574 181.7577 L179.9754 185.1356 L183.0782 188.3447 L186.3561 191.3747 L189.7987 194.2162
 L193.3952 196.8601 L197.1343 199.2983 L201.0042 201.5229 L204.9927 203.5271 L209.0874 205.3045 L213.2753 206.8495 L217.5432 208.1572
 L221.8777 209.2236 L226.2653 210.0453 L230.6919 210.6196 L235.1438 210.9449 L239.607 211.02 L244.0673 210.8448 L248.5108 210.4197
 L252.9235 209.7462 L257.2915 208.8262 L261.601 207.6629 L265.8385 206.2597 L269.9907 204.6211 L274.0444 202.7523 L277.987 200.6592
 L281.806 198.3482 L285.4895 195.8268z" fill="rgb(255,215,0)"/>
</g>
<g stroke="rgb(0,0,139)" stroke-width="1.0627" stroke-linejoin="round" >
<path d="M204.4623 182.4418 L237.1965 186.3161 L208.3367 149.7076 L171.7281 178.5674z" fill="rgb(255,215,0)"/>
</g>
</svg>
