<?xml version="1.0" encoding="utf-8" standalone="no"?>
<!DOCTYPE svg PUBLIC "-//W3C//DTD SVG 1.1//EN" "http://www.w3.org/TR/2001/REC-SVG-20010904/DTD/svg11.dtd">
<svg width="10cm" height="10cm" viewBox="0 0 378 378" overflow="hidden"
 version="1.1" xmlns="http://www.w3.org/2000/svg"  xmlns:xlink="http://www.w3.org/1999/xlink">
<!--tangram  (Utilisateur) -->
<g stroke="rgb(0,0,139)" stroke-width="1.0627" stroke-linejoin="round" >
<path d="M58.2946 259.3143 L60.1247 212.7339 L56.4644 212.7339 L52.8154 213.0211 L49.2002 213.5937 L45.6411 214.4482 L42.1599 215.5793
 L38.7782 216.98 L35.5169 218.6418 L32.396 220.5542 L29.4347 222.7057 L26.6514 225.0829z" fill="rgb(255,215,0)"/>
</g>
<g stroke="rgb(0,0,139)" stroke-width="1.0627" stroke-linejoin="round" >
<path d="M102.58 246.3433 L149.1963 246.3433 A46.6163,46.6163 0 0,0 135.5427,213.3807z" fill="rgb(255,215,0)"/>
</g>
<g stroke="rgb(0,0,139)" stroke-width="1.0627" stroke-linejoin="round" >
<path d="M273.7718 190.9895 L359.3491 264.0794 L358.9679 259.9303 L358.4782 255.7925 L357.8803 251.669 L357.1747 247.5626 L356.3618 243.476
 L355.4422 239.4121 L354.4166 235.3737 L353.2856 231.3635 L352.05 227.3843 L350.7107 223.4388 L349.2686 219.5297 L347.7246 215.6597
 L346.0798 211.8315 L344.3355 208.0476 L342.4926 204.3106 L340.5526 200.6232 L338.5167 196.9879 L336.3863 193.407 L334.1629 189.8832
 L331.8481 186.4188 L329.4433 183.0161 L326.9503 179.6776 L324.3708 176.4055 L321.7065 173.202 L318.9592 170.0694 L316.1309 167.0097
 L313.2235 164.0252 L310.2389 161.1177 L307.1793 158.2894 L304.0467 155.5422z" fill="rgb(255,215,0)"/>
</g>
<g stroke="rgb(0,0,139)" stroke-width="1.0627" stroke-linejoin="round" >
<path d="M240.8091 220.6559 L164.4158 138.014 L164.3067 142.1792 L164.3067 146.3459 L164.4158 150.5111 L164.6339 154.672 L164.9608 158.8257
 L165.3963 162.9695 L165.9402 167.1005 L166.592 171.2159 L167.3513 175.3127 L168.2176 179.3883 L169.1902 183.4398 L170.2686 187.4644
 L171.452 191.4595 L172.7396 195.4222 L174.1304 199.3498 L175.6236 203.2397 L177.2181 207.0891 L178.9128 210.8955 L180.7066 214.6563
 L182.5982 218.3688 L184.5864 222.0305 L186.6697 225.6389 L188.8467 229.1915 L191.116 232.6859 L193.476 236.1198 L195.9251 239.4906
 L198.4616 242.7962 L201.0837 246.0343 L203.7897 249.2026 L206.5778 252.299z" fill="rgb(255,215,0)"/>
</g>
<g stroke="rgb(0,0,139)" stroke-width="1.0627" stroke-linejoin="round" >
<path d="M65.5698 220.6559 L144.9034 214.4122 L59.3261 141.3223z" fill="rgb(255,215,0)"/>
</g>
<g stroke="rgb(0,0,139)" stroke-width="1.0627" stroke-linejoin="round" >
<path d="M189 246.7776 L132.7292 303.0484 L245.2708 303.0484z" fill="rgb(255,215,0)"/>
</g>
<g stroke="rgb(0,0,139)" stroke-width="1.0627" stroke-linejoin="round" >
<path d="M87.2783 220.6559 L133.8946 220.6559 L166.8573 187.6932 L166.8573 141.0769 A79.5789,79.5789 0 0,0 87.2783,220.6559z" fill="rgb(255,215,0)"/>
</g>
<g stroke="rgb(0,0,139)" stroke-width="1.0627" stroke-linejoin="round" >
<path d="M246.4362 220.6559 L223.6585 179.9834 L178.7924 167.3298 L138.1199 190.1075 L140.4094 193.9395 L142.9101 197.637 L145.6143 201.1885 L148.5133 204.5828 L151.598 207.8092
 L154.8588 210.8575 L158.2854 213.7183 L161.867 216.3824 L165.5924 218.8414 L169.4498 221.0878 L173.427 223.1143 L177.5116 224.9146
 L181.6908 226.4831 L185.9513 227.8147 L190.2798 228.9054 L194.6626 229.7517 L199.086 230.3509 L203.536 230.7011 L207.9987 230.8013
 L212.4599 230.651 L216.9058 230.2509 L221.3221 229.6021 L225.6952 228.7067 L230.0112 227.5676 L234.2565 226.1882 L238.4178 224.5729
 L242.4819 222.7269 L246.4362 220.6559z" fill="rgb(255,215,0)"/>
</g>
<g stroke="rgb(0,0,139)" stroke-width="1.0627" stroke-linejoin="round" >
<path d="M188.5173 162.7369 L169.1423 136.0696 L161.8499 182.1119 L207.8922 189.4043z" fill="rgb(255,215,0)"/>
</g>
</svg>
