<?xml version="1.0" encoding="utf-8" standalone="no"?>
<!DOCTYPE svg PUBLIC "-//W3C//DTD SVG 1.1//EN" "http://www.w3.org/TR/2001/REC-SVG-20010904/DTD/svg11.dtd">
<svg width="10cm" height="10cm" viewBox="0 0 378 378" overflow="hidden"
 version="1.1" xmlns="http://www.w3.org/2000/svg"  xmlns:xlink="http://www.w3.org/1999/xlink">
<!--tangram  (Utilisateur) -->
<g stroke="rgb(0,0,139)" stroke-width="1.0627" stroke-linejoin="round" >
<path d="M166.2574 221.0658 L187.4208 179.5304 L184.0967 177.998 L180.6626 176.7311 L177.1398 175.7376 L173.5498 175.0235 L169.9149 174.5933
 L166.2574 174.4496 L162.5999 174.5933 L158.965 175.0235 L155.3751 175.7376 L151.8522 176.7311z" fill="rgb(255,215,0)"/>
</g>
<g stroke="rgb(0,0,139)" stroke-width="1.0627" stroke-linejoin="round" >
<path d="M203.5504 190.3654 L245.0858 211.5287 L246.6182 208.2046 L247.8851 204.7706 L248.8787 201.2477 L249.5928 197.6577 L250.023 194.0228
 L250.1667 190.3654 L250.023 186.7079 L249.5928 183.073 L248.8787 179.483 L247.8851 175.9601z" fill="rgb(255,215,0)"/>
</g>
<g stroke="rgb(0,0,139)" stroke-width="1.0627" stroke-linejoin="round" >
<path d="M203.5504 183.7728 L283.1294 263.3518 L283.0748 259.1855 L282.9113 255.0221 L282.6387 250.8644 L282.2575 246.7152 L281.7678 242.5775
 L281.1699 238.454 L280.4643 234.3475 L279.6514 230.261 L278.7318 226.1971 L277.7062 222.1587 L276.5752 218.1485 L275.3396 214.1693
 L274.0003 210.2238 L272.5582 206.3147 L271.0142 202.4447 L269.3695 198.6164 L267.6251 194.8325 L265.7822 191.0956 L263.8422 187.4082
 L261.8063 183.7728 L259.6759 180.192 L257.4525 176.6682 L255.1377 173.2037 L252.7329 169.8011 L250.2399 166.4626 L247.6604 163.1905
 L244.9961 159.987 L242.2488 156.8544 L239.4205 153.7947 L236.5131 150.8101z" fill="rgb(255,215,0)"/>
</g>
<g stroke="rgb(0,0,139)" stroke-width="1.0627" stroke-linejoin="round" >
<path d="M220.5973 157.4027 L311.6454 91.2524 L307.5219 90.6545 L303.3842 90.1648 L299.235 89.7835 L295.0773 89.511 L290.9139 89.3474
 L286.7476 89.2929 L282.5814 89.3474 L278.4179 89.511 L274.2602 89.7835 L270.1111 90.1648 L265.9734 90.6545 L261.8498 91.2524
 L257.7434 91.958 L253.6568 92.7709 L249.593 93.6904 L245.5545 94.716 L241.5443 95.847 L237.5651 97.0826 L233.6196 98.4219
 L229.7105 99.8641 L225.8405 101.408 L222.0123 103.0528 L218.2284 104.7972 L214.4915 106.64 L210.804 108.5801 L207.1687 110.616
 L203.5879 112.7464 L200.064 114.9697 L196.5996 117.2846 L193.197 119.6893z" fill="rgb(255,215,0)"/>
</g>
<g stroke="rgb(0,0,139)" stroke-width="1.0627" stroke-linejoin="round" >
<path d="M149.2105 228.7895 L213.5912 275.5648 L195.9859 164.4088z" fill="rgb(255,215,0)"/>
</g>
<g stroke="rgb(0,0,139)" stroke-width="1.0627" stroke-linejoin="round" >
<path d="M174.4496 228.7895 L174.4496 308.3684 L254.0285 228.7895z" fill="rgb(255,215,0)"/>
</g>
<g stroke="rgb(0,0,139)" stroke-width="1.0627" stroke-linejoin="round" >
<path d="M212.8737 174.4496 L245.8364 141.4869 L245.8364 94.8706 L212.8737 61.9079 L209.8071 65.1516 L206.9272 68.5621 L204.243 72.1287 L201.7631 75.8402 L199.4951 79.6849
 L197.4463 83.6507 L195.6231 87.7252 L194.0313 91.8955 L192.6757 96.1485 L191.5608 100.4708 L190.6899 104.8488 L190.0659 109.2687
 L189.6907 113.7167 L189.5656 118.1788 L189.6907 122.6408 L190.0659 127.0888 L190.6899 131.5087 L191.5608 135.8867 L192.6757 140.209
 L194.0313 144.462 L195.6231 148.6323 L197.4463 152.7068 L199.4951 156.6726 L201.7631 160.5173 L204.243 164.2288 L206.9272 167.7954
 L209.8071 171.2059 L212.8737 174.4496z" fill="rgb(255,215,0)"/>
</g>
<g stroke="rgb(0,0,139)" stroke-width="1.0627" stroke-linejoin="round" >
<path d="M118.51 247.436 L156.2234 220.0356 L163.5158 173.9933 L136.1154 136.2799 L132.5792 139.0039 L129.2012 141.9219 L125.9922 145.0247 L122.9621 148.3026 L120.1207 151.7452
 L117.4767 155.3417 L115.0386 159.0808 L112.8139 162.9507 L110.8097 166.9392 L109.0324 171.0339 L107.4874 175.2218 L106.1796 179.4897
 L105.1132 183.8243 L104.2916 188.2118 L103.7172 192.6384 L103.392 197.0904 L103.3168 201.5535 L103.4921 206.0138 L103.9171 210.4573
 L104.5907 214.87 L105.5106 219.238 L106.674 223.5475 L108.0771 227.785 L109.7157 231.9372 L111.5845 235.9909 L113.6777 239.9335
 L115.9886 243.7525 L118.51 247.436z" fill="rgb(255,215,0)"/>
</g>
<g stroke="rgb(0,0,139)" stroke-width="1.0627" stroke-linejoin="round" >
<path d="M129.4329 215.6044 L162.3956 215.6044 L129.4329 248.5671 L96.4702 215.6044z" fill="rgb(255,215,0)"/>
</g>
</svg>
