<?xml version="1.0" encoding="utf-8" standalone="no"?>
<!DOCTYPE svg PUBLIC "-//W3C//DTD SVG 1.1//EN" "http://www.w3.org/TR/2001/REC-SVG-20010904/DTD/svg11.dtd">
<svg width="10cm" height="10cm" viewBox="0 0 378 378" overflow="hidden"
 version="1.1" xmlns="http://www.w3.org/2000/svg"  xmlns:xlink="http://www.w3.org/1999/xlink">
<!--tangram  (Utilisateur) -->
<g stroke="rgb(0,0,139)" stroke-width="1.0627" stroke-linejoin="round" >
<path d="M67.4179 264.6 L63.7604 218.1274 L60.1255 218.5577 L56.5355 219.2717 L53.0127 220.2653 L49.5786 221.5322 L46.2546 223.0646
 L43.061 224.8531 L40.0175 226.8866 L37.1431 229.1527 L34.4552 231.6373 L31.9706 234.3252z" fill="rgb(255,215,0)"/>
</g>
<g stroke="rgb(0,0,139)" stroke-width="1.0627" stroke-linejoin="round" >
<path d="M109.3725 255.608 L154.7008 266.4904 L155.4149 262.9004 L155.8451 259.2655 L155.9888 255.608 L155.8451 251.9506 L155.4149 248.3156
 L154.7008 244.7257 L153.7072 241.2028 L152.4404 237.7688 L150.9079 234.4447 L149.1194 231.2511z" fill="rgb(255,215,0)"/>
</g>
<g stroke="rgb(0,0,139)" stroke-width="1.0627" stroke-linejoin="round" >
<path d="M269.9928 192.9789 L370.2681 244.0718 L366.2889 245.3074 L362.2787 246.4383 L358.2403 247.464 L354.1764 248.3835 L350.0899 249.1964
 L345.9834 249.902 L341.8599 250.4999 L337.7222 250.9896 L333.573 251.3709 L329.4153 251.6434 L325.2519 251.807 L321.0857 251.8615
 L316.9194 251.807 L312.756 251.6434 L308.5983 251.3709 L304.4491 250.9896 L300.3114 250.4999 L296.1879 249.902 L292.0814 249.1964
 L287.9949 248.3835 L283.931 247.464 L279.8926 246.4383 L275.8824 245.3074 L271.9032 244.0718 L267.9577 242.7325 L264.0486 241.2903
 L260.1786 239.7463 L256.3503 238.1016 L252.5664 236.3572 L248.8295 234.5143z" fill="rgb(255,215,0)"/>
</g>
<g stroke="rgb(0,0,139)" stroke-width="1.0627" stroke-linejoin="round" >
<path d="M235.6648 222.6454 L150.0875 149.5554 L150.4687 153.7046 L150.9584 157.8423 L151.5563 161.9658 L152.2619 166.0723 L153.0748 170.1588
 L153.9944 174.2227 L155.02 178.2611 L156.151 182.2713 L157.3866 186.2505 L158.7259 190.196 L160.168 194.1051 L161.712 197.9751
 L163.3568 201.8034 L165.1012 205.5873 L166.944 209.3242 L168.884 213.0116 L170.9199 216.647 L173.0503 220.2278 L175.2737 223.7516
 L177.5885 227.2161 L179.9933 230.6187 L182.4863 233.9572 L185.0658 237.2293 L187.7301 240.4328 L190.4774 243.5655 L193.3057 246.6251
 L196.2131 249.6097 L199.1977 252.5171 L202.2573 255.3454 L205.3899 258.0926z" fill="rgb(255,215,0)"/>
</g>
<g stroke="rgb(0,0,139)" stroke-width="1.0627" stroke-linejoin="round" >
<path d="M62.7563 222.6454 L142.3352 222.6454 L62.7563 302.2243z" fill="rgb(255,215,0)"/>
</g>
<g stroke="rgb(0,0,139)" stroke-width="1.0627" stroke-linejoin="round" >
<path d="M197.6406 243.6227 L167.187 317.144 L271.1619 274.0762z" fill="rgb(255,215,0)"/>
</g>
<g stroke="rgb(0,0,139)" stroke-width="1.0627" stroke-linejoin="round" >
<path d="M101.7459 217.9837 L148.2185 214.3263 L178.4933 178.879 L174.8359 132.4064 L170.3974 132.8813 L165.9926 133.6043 L161.6352 134.5732 L157.339 135.7848 L153.1175 137.2355
 L148.984 138.9205 L144.9515 140.8347 L141.0326 142.9719 L137.2398 145.3256 L133.5848 147.8882 L130.0794 150.6517 L126.7343 153.6074
 L123.5603 156.746 L120.5673 160.0576 L117.7646 163.5319 L115.1612 167.1578 L112.7651 170.9241 L110.584 174.8187 L108.6247 178.8295
 L106.8934 182.9438 L105.3955 187.1488 L104.1357 191.4311 L103.118 195.7773 L102.3456 200.1738 L101.821 204.6066 L101.5457 209.0619
 L101.5207 213.5256 L101.7459 217.9837z" fill="rgb(255,215,0)"/>
</g>
<g stroke="rgb(0,0,139)" stroke-width="1.0627" stroke-linejoin="round" >
<path d="M248.2843 222.6454 L212.837 192.3705 L166.3645 196.028 L136.0896 231.4753 L139.5639 234.2779 L143.1898 236.8814 L146.956 239.2774 L150.8506 241.4585 L154.8614 243.4178
 L158.9758 245.1491 L163.1808 246.647 L167.4631 247.9068 L171.8093 248.9245 L176.2058 249.6969 L180.6386 250.2216 L185.0939 250.4968
 L189.5576 250.5219 L194.0157 250.2966 L198.4541 249.8217 L202.859 249.0987 L207.2164 248.1298 L211.5125 246.9182 L215.734 245.4676
 L219.8676 243.7825 L223.9001 241.8683 L227.8189 239.7311 L231.6118 237.3774 L235.2667 234.8148 L238.7722 232.0513 L242.1172 229.0956
 L245.2913 225.957 L248.2843 222.6454z" fill="rgb(255,215,0)"/>
</g>
<g stroke="rgb(0,0,139)" stroke-width="1.0627" stroke-linejoin="round" >
<path d="M197.6406 156.0858 L180.4176 127.9805 L169.5353 173.3088 L214.8635 184.1911z" fill="rgb(255,215,0)"/>
</g>
</svg>
