<?xml version="1.0" encoding="utf-8" standalone="no"?>
<!DOCTYPE svg PUBLIC "-//W3C//DTD SVG 1.1//EN" "http://www.w3.org/TR/2001/REC-SVG-20010904/DTD/svg11.dtd">
<svg width="10cm" height="10cm" viewBox="0 0 378 378" overflow="hidden"
 version="1.1" xmlns="http://www.w3.org/2000/svg"  xmlns:xlink="http://www.w3.org/1999/xlink">
<!--fond  (Utilisateur) -->
<g  stroke-linejoin="round" >
<polygon fill="rgb(0,0,139)" points="0,0,0,378,378,378,378,0"/>
</g>
<!--tangram  (Utilisateur) -->
<g stroke="rgb(0,0,139)" stroke-width="1.0627" stroke-linejoin="round" >
<path d="M215.3701 186.5035 L261.4125 179.2111 L260.6984 175.6212 L259.7048 172.0983 L258.438 168.6643 L256.9055 165.3402 L255.117 162.1466
 L253.0835 159.1032 L250.8174 156.2287 L248.3328 153.5409 L245.645 151.0563 L242.7705 148.7902z" fill="rgb(255,215,0)"/>
</g>
<g stroke="rgb(0,0,139)" stroke-width="1.0627" stroke-linejoin="round" >
<path d="M215.3701 96.4702 L171.0354 82.065 L170.0419 85.5879 L169.3278 89.1778 L168.8976 92.8128 L168.7539 96.4702 L168.8976 100.1277
 L169.3278 103.7626 L170.0419 107.3526 L171.0354 110.8755 L172.3023 114.3095 L173.8347 117.6336z" fill="rgb(255,215,0)"/>
</g>
<g stroke="rgb(0,0,139)" stroke-width="1.0627" stroke-linejoin="round" >
<path d="M241.7403 160.1334 L224.1349 48.9773 L221.7302 52.38 L219.4153 55.8444 L217.1919 59.3682 L215.0616 62.9491 L213.0257 66.5844
 L211.0856 70.2718 L209.2428 74.0088 L207.4984 77.7927 L205.8536 81.6209 L204.3096 85.4909 L202.8675 89.4 L201.5282 93.3455
 L200.2926 97.3247 L199.1616 101.3349 L198.136 105.3733 L197.2164 109.4372 L196.4036 113.5238 L195.6979 117.6302 L195.1001 121.7537
 L194.6103 125.8915 L194.2291 130.0406 L193.9566 134.1983 L193.793 138.3617 L193.7384 142.528 L193.793 146.6943 L193.9566 150.8577
 L194.2291 155.0154 L194.6103 159.1645 L195.1001 163.3023 L195.6979 167.4258z" fill="rgb(255,215,0)"/>
</g>
<g stroke="rgb(0,0,139)" stroke-width="1.0627" stroke-linejoin="round" >
<path d="M189 212.8737 L137.9072 112.5984 L136.6716 116.5776 L135.5406 120.5878 L134.515 124.6262 L133.5954 128.6901 L132.7825 132.7766
 L132.0769 136.8831 L131.479 141.0066 L130.9893 145.1443 L130.6081 149.2935 L130.3355 153.4512 L130.172 157.6146 L130.1174 161.7809
 L130.172 165.9471 L130.3355 170.1105 L130.6081 174.2682 L130.9893 178.4174 L131.479 182.5551 L132.0769 186.6786 L132.7825 190.7851
 L133.5954 194.8716 L134.515 198.9355 L135.5406 202.9739 L136.6716 206.9841 L137.9072 210.9633 L139.2465 214.9089 L140.6886 218.8179
 L142.2326 222.6879 L143.8774 226.5162 L145.6217 230.3001 L147.4646 234.037z" fill="rgb(255,215,0)"/>
</g>
<g stroke="rgb(0,0,139)" stroke-width="1.0627" stroke-linejoin="round" >
<path d="M223.0938 157.4027 L287.4745 110.6273 L176.3184 93.022z" fill="rgb(255,215,0)"/>
</g>
<g stroke="rgb(0,0,139)" stroke-width="1.0627" stroke-linejoin="round" >
<path d="M189 266.0825 L189 345.6614 L268.5789 266.0825z" fill="rgb(255,215,0)"/>
</g>
<g stroke="rgb(0,0,139)" stroke-width="1.0627" stroke-linejoin="round" >
<path d="M236.7474 202.4193 L199.034 175.019 L152.9917 182.3114 L125.5913 220.0247 L129.2748 222.5462 L133.0938 224.8571 L137.0364 226.9502 L141.0901 228.8191 L145.2423 230.4576
 L149.4798 231.8608 L153.7893 233.0242 L158.1573 233.9441 L162.57 234.6176 L167.0135 235.0427 L171.4738 235.2179 L175.9369 235.1428
 L180.3889 234.8176 L184.8155 234.2432 L189.203 233.4215 L193.5376 232.3551 L197.8055 231.0474 L201.9934 229.5024 L206.0881 227.725
 L210.0766 225.7209 L213.9465 223.4962 L217.6856 221.0581 L221.2821 218.4141 L224.7247 215.5726 L228.0026 212.5426 L231.1054 209.3336
 L234.0234 205.9556 L236.7474 202.4193z" fill="rgb(255,215,0)"/>
</g>
<g stroke="rgb(0,0,139)" stroke-width="1.0627" stroke-linejoin="round" >
<path d="M141.2526 202.4193 L155.6579 246.754 L197.1932 267.9174 L241.528 253.5122 L240.03 249.3072 L238.2987 245.1929 L236.3394 241.1821 L234.1583 237.2874 L231.7623 233.5212
 L229.1588 229.8953 L226.3562 226.421 L223.3631 223.1094 L220.1891 219.9708 L216.8441 217.015 L213.3386 214.2515 L209.6837 211.6889
 L205.8908 209.3353 L201.972 207.198 L197.9394 205.2839 L193.8059 203.5988 L189.5844 202.1482 L185.2882 200.9365 L180.9309 199.9677
 L176.526 199.2447 L172.0876 198.7698 L167.6295 198.5445 L163.1658 198.5695 L158.7105 198.8448 L154.2776 199.3695 L149.8812 200.1419
 L145.535 201.1596 L141.2526 202.4193z" fill="rgb(255,215,0)"/>
</g>
<g stroke="rgb(0,0,139)" stroke-width="1.0627" stroke-linejoin="round" >
<path d="M125.3368 228.7895 L158.2995 228.7895 L125.3368 195.8268 L92.3742 228.7895z" fill="rgb(255,215,0)"/>
</g>
</svg>
