<?xml version="1.0" encoding="utf-8" standalone="no"?>
<!DOCTYPE svg PUBLIC "-//W3C//DTD SVG 1.1//EN" "http://www.w3.org/TR/2001/REC-SVG-20010904/DTD/svg11.dtd">
<svg width="10cm" height="10cm" viewBox="0 0 378 378" overflow="hidden"
 version="1.1" xmlns="http://www.w3.org/2000/svg"  xmlns:xlink="http://www.w3.org/1999/xlink">
<!--fond  (Utilisateur) -->
<g  stroke-linejoin="round" >
<polygon fill="rgb(0,0,139)" points="0,0,0,378,378,378,378,0"/>
</g>
<!--tangram  (Utilisateur) -->
<g stroke="rgb(0,0,139)" stroke-width="1.0627" stroke-linejoin="round" >
<path d="M198.8888 163.1954 L238.6357 138.8385 L236.6022 135.7951 L234.3361 132.9206 L231.8515 130.2327 L229.1636 127.7481 L226.2892 125.4821
 L223.2457 123.4485 L220.0521 121.66 L216.7281 120.1276 L213.294 118.8607 L209.7712 117.8671z" fill="rgb(255,215,0)"/>
</g>
<g stroke="rgb(0,0,139)" stroke-width="1.0627" stroke-linejoin="round" >
<path d="M198.8888 129.4329 L177.7255 87.8975 L174.5319 89.686 L171.4884 91.7196 L168.614 93.9856 L165.9261 96.4702 L163.4415 99.1581
 L161.1755 102.0326 L159.1419 105.076 L157.3534 108.2696 L155.821 111.5936 L154.5541 115.0277z" fill="rgb(255,215,0)"/>
</g>
<g stroke="rgb(0,0,139)" stroke-width="1.0627" stroke-linejoin="round" >
<path d="M208.7776 153.3066 L319.9337 135.7012 L316.531 133.2965 L313.0666 130.9816 L309.5428 128.7582 L305.9619 126.6279 L302.3266 124.592
 L298.6392 122.6519 L294.9022 120.8091 L291.1183 119.0647 L287.2901 117.4199 L283.4201 115.876 L279.511 114.4338 L275.5655 113.0945
 L271.5863 111.8589 L267.5761 110.7279 L263.5377 109.7023 L259.4738 108.7827 L255.3872 107.9699 L251.2808 107.2643 L247.1573 106.6664
 L243.0195 106.1766 L238.8704 105.7954 L234.7127 105.5229 L230.5493 105.3593 L226.383 105.3048 L222.2167 105.3593 L218.0533 105.5229
 L213.8956 105.7954 L209.7465 106.1766 L205.6087 106.6664 L201.4852 107.2643z" fill="rgb(255,215,0)"/>
</g>
<g stroke="rgb(0,0,139)" stroke-width="1.0627" stroke-linejoin="round" >
<path d="M189 173.0842 L274.5773 246.1742 L274.1961 242.025 L273.7063 237.8873 L273.1085 233.7638 L272.4028 229.6573 L271.59 225.5707
 L270.6704 221.5069 L269.6448 217.4684 L268.5138 213.4583 L267.2782 209.479 L265.9389 205.5335 L264.4968 201.6244 L262.9528 197.7544
 L261.308 193.9262 L259.5636 190.1423 L257.7208 186.4054 L255.7807 182.718 L253.7448 179.0826 L251.6145 175.5018 L249.3911 171.9779
 L247.0762 168.5135 L244.6715 165.1109 L242.1785 161.7723 L239.599 158.5002 L236.9347 155.2968 L234.1874 152.1641 L231.3591 149.1045
 L228.4517 146.1199 L225.4671 143.2125 L222.4075 140.3842 L219.2748 137.6369z" fill="rgb(255,215,0)"/>
</g>
<g stroke="rgb(0,0,139)" stroke-width="1.0627" stroke-linejoin="round" >
<path d="M201.7852 202.0194 L279.1653 183.4421 L183.2078 124.6393z" fill="rgb(255,215,0)"/>
</g>
<g stroke="rgb(0,0,139)" stroke-width="1.0627" stroke-linejoin="round" >
<path d="M189 242.7744 L262.5214 212.3208 L158.5465 169.253z" fill="rgb(255,215,0)"/>
</g>
<g stroke="rgb(0,0,139)" stroke-width="1.0627" stroke-linejoin="round" >
<path d="M157.1684 218.9007 L184.5688 181.1873 L177.2764 135.145 L139.563 107.7446 L137.0416 111.4281 L134.7307 115.2471 L132.6375 119.1897 L130.7687 123.2434 L129.1301 127.3956
 L127.727 131.6331 L126.5636 135.9426 L125.6437 140.3106 L124.9701 144.7233 L124.5451 149.1668 L124.3698 153.6271 L124.4449 158.0902
 L124.7702 162.5422 L125.3446 166.9688 L126.1662 171.3563 L127.2326 175.6909 L128.5403 179.9588 L130.0853 184.1467 L131.8627 188.2414
 L133.8669 192.2299 L136.0915 196.0998 L138.5297 199.8389 L141.1737 203.4354 L144.0151 206.878 L147.0451 210.1559 L150.2542 213.2587
 L153.6322 216.1767 L157.1684 218.9007z" fill="rgb(255,215,0)"/>
</g>
<g stroke="rgb(0,0,139)" stroke-width="1.0627" stroke-linejoin="round" >
<path d="M220.8316 218.9007 L185.3843 249.1755 L181.7268 295.6481 L212.0017 331.0954 L215.3133 328.1023 L218.4519 324.9283 L221.4076 321.5833 L224.1711 318.0778 L226.7337 314.4229
 L229.0874 310.63 L231.2246 306.7111 L233.1388 302.6786 L234.8239 298.5451 L236.2745 294.3236 L237.4861 290.0274 L238.455 285.67
 L239.178 281.2652 L239.6529 276.8268 L239.8782 272.3687 L239.8531 267.9049 L239.5779 263.4497 L239.0532 259.0168 L238.2808 254.6204
 L237.2631 250.2741 L236.0033 245.9918 L234.5054 241.7869 L232.7741 237.6725 L230.8148 233.6617 L228.6337 229.7671 L226.2377 226.0009
 L223.6342 222.3749 L220.8316 218.9007z" fill="rgb(255,215,0)"/>
</g>
<g stroke="rgb(0,0,139)" stroke-width="1.0627" stroke-linejoin="round" >
<path d="M165.1263 228.7895 L198.089 228.7895 L165.1263 195.8268 L132.1636 228.7895z" fill="rgb(255,215,0)"/>
</g>
</svg>
