<?xml version="1.0" encoding="utf-8" standalone="no"?>
<!DOCTYPE svg PUBLIC "-//W3C//DTD SVG 1.1//EN" "http://www.w3.org/TR/2001/REC-SVG-20010904/DTD/svg11.dtd">
<svg width="10cm" height="10cm" viewBox="0 0 378 378" overflow="hidden"
 version="1.1" xmlns="http://www.w3.org/2000/svg"  xmlns:xlink="http://www.w3.org/1999/xlink">
<!--tangram  (Utilisateur) -->
<g stroke="rgb(0,0,139)" stroke-width="1.0627" stroke-linejoin="round" >
<path d="M195.8268 228.7895 L162.8641 195.8268 L160.3795 198.5146 L158.1134 201.3891 L156.0799 204.4325 L154.2914 207.6261 L152.759 210.9502
 L151.4921 214.3843 L150.4985 217.9071 L149.7844 221.4971 L149.3542 225.132 L149.2105 228.7895z" fill="rgb(255,215,0)"/>
</g>
<g stroke="rgb(0,0,139)" stroke-width="1.0627" stroke-linejoin="round" >
<path d="M195.8268 261.7522 L162.8641 294.7148 L165.552 297.1994 L168.4264 299.4655 L171.4699 301.4991 L174.6635 303.2876 L177.9875 304.82
 L181.4216 306.0869 L184.9444 307.0804 L188.5344 307.7945 L192.1693 308.2247 L195.8268 308.3684z" fill="rgb(255,215,0)"/>
</g>
<g stroke="rgb(0,0,139)" stroke-width="1.0627" stroke-linejoin="round" >
<path d="M195.8268 228.7895 L116.2478 149.2105 L120.4141 149.2651 L124.5775 149.4286 L128.7352 149.7012 L132.8844 150.0824 L137.0221 150.5721
 L141.1456 151.17 L145.2521 151.8756 L149.3386 152.6885 L153.4025 153.6081 L157.4409 154.6337 L161.4511 155.7647 L165.4303 157.0003
 L169.3758 158.3396 L173.2849 159.7817 L177.1549 161.3257 L180.9832 162.9704 L184.7671 164.7148 L188.504 166.5577 L192.1914 168.4977
 L195.8268 170.5336 L199.4076 172.664 L202.9314 174.8874 L206.3959 177.2022 L209.7985 179.607 L213.137 182.1 L216.4092 184.6795
 L219.6126 187.3438 L222.7453 190.0911 L225.8049 192.9194 L228.7895 195.8268z" fill="rgb(255,215,0)"/>
</g>
<g stroke="rgb(0,0,139)" stroke-width="1.0627" stroke-linejoin="round" >
<path d="M149.2105 228.7895 L36.6689 228.7895 L39.6535 231.6969 L42.7131 234.5252 L45.8457 237.2725 L49.0492 239.9368 L52.3213 242.5163
 L55.6599 245.0093 L59.0625 247.414 L62.5269 249.7289 L66.0508 251.9523 L69.6316 254.0826 L73.2669 256.1185 L76.9544 258.0586
 L80.6913 259.9014 L84.4752 261.6458 L88.3034 263.2906 L92.1734 264.8345 L96.0825 266.2767 L100.028 267.616 L104.0072 268.8516
 L108.0174 269.9826 L112.0559 271.0082 L116.1197 271.9278 L120.2063 272.7406 L124.3127 273.4462 L128.4363 274.0441 L132.574 274.5339
 L136.7231 274.9151 L140.8808 275.1876 L145.0443 275.3512 L149.2105 275.4057z" fill="rgb(255,215,0)"/>
</g>
<g stroke="rgb(0,0,139)" stroke-width="1.0627" stroke-linejoin="round" >
<path d="M149.2105 228.7895 L228.7895 228.7895 L149.2105 308.3684z" fill="rgb(255,215,0)"/>
</g>
<g stroke="rgb(0,0,139)" stroke-width="1.0627" stroke-linejoin="round" >
<path d="M275.4057 228.7895 L275.4057 149.2105 L195.8268 228.7895z" fill="rgb(255,215,0)"/>
</g>
<g stroke="rgb(0,0,139)" stroke-width="1.0627" stroke-linejoin="round" >
<path d="M242.4431 182.1732 L275.4057 149.2105 L275.4057 102.5943 L242.4431 69.6316 L239.3765 72.8752 L236.4965 76.2857 L233.8124 79.8523 L231.3325 83.5638 L229.0645 87.4086
 L227.0157 91.3744 L225.1925 95.4488 L223.6006 99.6191 L222.2451 103.8721 L221.1301 108.1944 L220.2593 112.5724 L219.6353 116.9924
 L219.2601 121.4404 L219.1349 125.9024 L219.2601 130.3644 L219.6353 134.8124 L220.2593 139.2324 L221.1301 143.6104 L222.2451 147.9327
 L223.6006 152.1857 L225.1925 156.3559 L227.0157 160.4304 L229.0645 164.3962 L231.3325 168.2409 L233.8124 171.9524 L236.4965 175.5191
 L239.3765 178.9296 L242.4431 182.1732z" fill="rgb(255,215,0)"/>
</g>
<g stroke="rgb(0,0,139)" stroke-width="1.0627" stroke-linejoin="round" >
<path d="M275.4057 228.7895 L228.7895 228.7895 L195.8268 261.7522 L195.8268 308.3684 L200.2888 308.2432 L204.7368 307.868 L209.1568 307.2441 L213.5348 306.3732 L217.8571 305.2583
 L222.1101 303.9027 L226.2803 302.3108 L230.3548 300.4876 L234.3206 298.4388 L238.1653 296.1709 L241.8768 293.6909 L245.4435 291.0068
 L248.854 288.1269 L252.0976 285.0603 L255.1642 281.8166 L258.0441 278.4061 L260.7283 274.8395 L263.2082 271.128 L265.4762 267.2833
 L267.5249 263.3175 L269.3482 259.243 L270.94 255.0727 L272.2956 250.8198 L273.4105 246.4975 L274.2814 242.1194 L274.9054 237.6995
 L275.2805 233.2515 L275.4057 228.7895z" fill="rgb(255,215,0)"/>
</g>
<g stroke="rgb(0,0,139)" stroke-width="1.0627" stroke-linejoin="round" >
<path d="M275.4057 69.6316 L308.3684 69.6316 L275.4057 102.5943 L242.4431 69.6316z" fill="rgb(255,215,0)"/>
</g>
</svg>
