<?xml version="1.0" encoding="utf-8" standalone="no"?>
<!DOCTYPE svg PUBLIC "-//W3C//DTD SVG 1.1//EN" "http://www.w3.org/TR/2001/REC-SVG-20010904/DTD/svg11.dtd">
<svg width="10cm" height="10cm" viewBox="0 0 378 378" overflow="hidden"
 version="1.1" xmlns="http://www.w3.org/2000/svg"  xmlns:xlink="http://www.w3.org/1999/xlink">
<!--fond  (Utilisateur) -->
<g  stroke-linejoin="round" >
<polygon fill="rgb(0,0,139)" points="0,0,0,378,378,378,378,0"/>
</g>
<!--tangram  (Utilisateur) -->
<g stroke="rgb(0,0,139)" stroke-width="1.0627" stroke-linejoin="round" >
<path d="M267.662 162.0643 L253.2568 117.7296 L249.8227 118.9965 L246.4987 120.5289 L243.3051 122.3174 L240.2617 124.351 L237.3872 126.617
 L234.6993 129.1016 L232.2147 131.7895 L229.9487 134.664 L227.9151 137.7074 L226.1266 140.901z" fill="rgb(255,215,0)"/>
</g>
<g stroke="rgb(0,0,139)" stroke-width="1.0627" stroke-linejoin="round" >
<path d="M166.3745 122.8404 L212.4169 130.1328 L212.8471 126.4979 L212.9908 122.8404 L212.8471 119.1829 L212.4169 115.548 L211.7028 111.958
 L210.7093 108.4352 L209.4424 105.0011 L207.9099 101.677 L206.1214 98.4834 L204.0879 95.44z" fill="rgb(255,215,0)"/>
</g>
<g stroke="rgb(0,0,139)" stroke-width="1.0627" stroke-linejoin="round" >
<path d="M179.5596 182.6417 L245.7099 91.5936 L241.6035 92.2993 L237.5169 93.1121 L233.453 94.0317 L229.4146 95.0573 L225.4044 96.1883
 L221.4252 97.4239 L217.4797 98.7632 L213.5706 100.2053 L209.7006 101.7493 L205.8724 103.3941 L202.0885 105.1385 L198.3515 106.9813
 L194.6641 108.9213 L191.0288 110.9573 L187.4479 113.0876 L183.9241 115.311 L180.4597 117.6258 L177.057 120.0306 L173.7185 122.5236
 L170.4464 125.1031 L167.2429 127.7674 L164.1103 130.5147 L161.0506 133.343 L158.0661 136.2504 L155.1586 139.235 L152.3303 142.2946
 L149.5831 145.4272 L146.9188 148.6307 L144.3393 151.9028 L141.8463 155.2414z" fill="rgb(255,215,0)"/>
</g>
<g stroke="rgb(0,0,139)" stroke-width="1.0627" stroke-linejoin="round" >
<path d="M105.4421 228.7895 L87.8367 117.6334 L85.432 121.0361 L83.1171 124.5005 L80.8937 128.0243 L78.7634 131.6051 L76.7275 135.2405
 L74.7874 138.9279 L72.9446 142.6648 L71.2002 146.4487 L69.5554 150.277 L68.0115 154.147 L66.5693 158.0561 L65.23 162.0016
 L63.9944 165.9808 L62.8634 169.991 L61.8378 174.0294 L60.9182 178.0933 L60.1054 182.1799 L59.3998 186.2863 L58.8019 190.4098
 L58.3121 194.5476 L57.9309 198.6967 L57.6584 202.8544 L57.4948 207.0178 L57.4403 211.1841 L57.4948 215.3504 L57.6584 219.5138
 L57.9309 223.6715 L58.3121 227.8206 L58.8019 231.9584 L59.3998 236.0819z" fill="rgb(255,215,0)"/>
</g>
<g stroke="rgb(0,0,139)" stroke-width="1.0627" stroke-linejoin="round" >
<path d="M271.5238 139.556 L307.6519 210.4613 L342.4292 103.4279z" fill="rgb(255,215,0)"/>
</g>
<g stroke="rgb(0,0,139)" stroke-width="1.0627" stroke-linejoin="round" >
<path d="M200.9368 275.4057 L144.666 331.6766 L257.2077 331.6766z" fill="rgb(255,215,0)"/>
</g>
<g stroke="rgb(0,0,139)" stroke-width="1.0627" stroke-linejoin="round" >
<path d="M232.7684 243.5742 L205.3681 205.8608 L159.3257 198.5684 L121.6124 225.9688 L124.3364 229.505 L127.2544 232.883 L130.3572 236.0921 L133.635 239.1221 L137.0776 241.9635
 L140.6741 244.6075 L144.4132 247.0456 L148.2831 249.2703 L152.2717 251.2745 L156.3664 253.0519 L160.5542 254.5968 L164.8222 255.9046
 L169.1567 256.971 L173.5442 257.7926 L177.9709 258.367 L182.4228 258.6923 L186.8859 258.7674 L191.3463 258.5921 L195.7898 258.1671
 L200.2025 257.4935 L204.5704 256.5736 L208.8799 255.4102 L213.1174 254.0071 L217.2696 252.3685 L221.3234 250.4997 L225.266 248.4065
 L229.085 246.0956 L232.7684 243.5742z" fill="rgb(255,215,0)"/>
</g>
<g stroke="rgb(0,0,139)" stroke-width="1.0627" stroke-linejoin="round" >
<path d="M216.8526 195.8268 L216.8526 149.2105 L183.89 116.2478 L137.2737 116.2478 L137.3989 120.7099 L137.7741 125.1579 L138.3981 129.5778 L139.2689 133.9558 L140.3838 138.2781
 L141.7394 142.5311 L143.3313 146.7014 L145.1545 150.7759 L147.2033 154.7417 L149.4712 158.5864 L151.9512 162.2979 L154.6353 165.8645
 L157.5152 169.275 L160.5818 172.5187 L163.8255 175.5853 L167.236 178.4652 L170.8026 181.1493 L174.5141 183.6293 L178.3588 185.8972
 L182.3246 187.946 L186.3991 189.7692 L190.5694 191.3611 L194.8224 192.7166 L199.1446 193.8316 L203.5227 194.7024 L207.9426 195.3264
 L212.3906 195.7016 L216.8526 195.8268z" fill="rgb(255,215,0)"/>
</g>
<g stroke="rgb(0,0,139)" stroke-width="1.0627" stroke-linejoin="round" >
<path d="M169.1053 209.0119 L202.0679 209.0119 L169.1053 176.0492 L136.1426 209.0119z" fill="rgb(255,215,0)"/>
</g>
</svg>
