<?xml version="1.0" encoding="utf-8" standalone="no"?>
<!DOCTYPE svg PUBLIC "-//W3C//DTD SVG 1.1//EN" "http://www.w3.org/TR/2001/REC-SVG-20010904/DTD/svg11.dtd">
<svg width="10cm" height="10cm" viewBox="0 0 378 378" overflow="hidden"
 version="1.1" xmlns="http://www.w3.org/2000/svg"  xmlns:xlink="http://www.w3.org/1999/xlink">
<!--fond  (Utilisateur) -->
<g  stroke-linejoin="round" >
<polygon fill="rgb(0,0,139)" points="0,0,0,378,378,378,378,0"/>
</g>
<!--tangram  (Utilisateur) -->
<g stroke="rgb(0,0,139)" stroke-width="1.0627" stroke-linejoin="round" >
<path d="M124.4885 248.6842 L106.6492 205.6164 L103.3252 207.1488 L100.1316 208.9373 L97.0882 210.9709 L94.2137 213.2369 L91.5258 215.7215
 L89.0412 218.4094 L86.7752 221.2839 L84.7416 224.3273 L82.9531 227.5209 L81.4207 230.8449z" fill="rgb(255,215,0)"/>
</g>
<g stroke="rgb(0,0,139)" stroke-width="1.0627" stroke-linejoin="round" >
<path d="M147.7967 258.3388 L165.6359 301.4066 L168.96 299.8742 L172.1536 298.0857 L175.197 296.0521 L178.0715 293.786 L180.7593 291.3014
 L183.2439 288.6136 L185.51 285.7391 L187.5436 282.6957 L189.332 279.5021 L190.8645 276.178z" fill="rgb(255,215,0)"/>
</g>
<g stroke="rgb(0,0,139)" stroke-width="1.0627" stroke-linejoin="round" >
<path d="M237.0301 208.8947 L316.6091 129.3158 L316.5546 133.4821 L316.391 137.6455 L316.1185 141.8032 L315.7372 145.9523 L315.2475 150.0901
 L314.6496 154.2136 L313.944 158.32 L313.1311 162.4066 L312.2115 166.4705 L311.1859 170.5089 L310.0549 174.5191 L308.8193 178.4983
 L307.48 182.4438 L306.0379 186.3529 L304.4939 190.2229 L302.8492 194.0511 L301.1048 197.835 L299.2619 201.572 L297.3219 205.2594
 L295.286 208.8947 L293.1556 212.4756 L290.9322 215.9994 L288.6174 219.4638 L286.2126 222.8665 L283.7196 226.205 L281.1401 229.4771
 L278.4758 232.6806 L275.7286 235.8132 L272.9003 238.8729 L269.9928 241.8574z" fill="rgb(255,215,0)"/>
</g>
<g stroke="rgb(0,0,139)" stroke-width="1.0627" stroke-linejoin="round" >
<path d="M197.2407 225.3761 L93.2658 182.3083 L94.9105 186.1365 L96.6549 189.9204 L98.4978 193.6573 L100.4378 197.3448 L102.4737 200.9801
 L104.6041 204.5609 L106.8274 208.0848 L109.1423 211.5492 L111.547 214.9518 L114.04 218.2904 L116.6196 221.5625 L119.2839 224.766
 L122.0311 227.8986 L124.8594 230.9582 L127.7669 233.9428 L130.7514 236.8502 L133.8111 239.6785 L136.9437 242.4258 L140.1472 245.0901
 L143.4193 247.6696 L146.7578 250.1626 L150.1605 252.5674 L153.6249 254.8822 L157.1487 257.1056 L160.7295 259.236 L164.3649 261.2719
 L168.0523 263.2119 L171.7892 265.0547 L175.5731 266.7991 L179.4014 268.4439z" fill="rgb(255,215,0)"/>
</g>
<g stroke="rgb(0,0,139)" stroke-width="1.0627" stroke-linejoin="round" >
<path d="M101.1804 225.3761 L180.7593 225.3761 L101.1804 304.955z" fill="rgb(255,215,0)"/>
</g>
<g stroke="rgb(0,0,139)" stroke-width="1.0627" stroke-linejoin="round" >
<path d="M232.2029 237.0301 L305.7242 267.4837 L262.6564 163.5088z" fill="rgb(255,215,0)"/>
</g>
<g stroke="rgb(0,0,139)" stroke-width="1.0627" stroke-linejoin="round" >
<path d="M164.278 202.0679 L207.3458 184.2287 L225.1851 141.1609 L207.3458 98.093 L203.2713 99.9162 L199.3055 101.965 L195.4608 104.233 L191.7493 106.7129 L188.1827 109.3971
 L184.7722 112.277 L181.5285 115.3436 L178.4619 118.5872 L175.582 121.9977 L172.8979 125.5643 L170.4179 129.2758 L168.15 133.1206
 L166.1012 137.0864 L164.278 141.1609 L162.6861 145.3311 L161.3306 149.5841 L160.2156 153.9064 L159.3448 158.2844 L158.7208 162.7044
 L158.3456 167.1524 L158.2204 171.6144 L158.3456 176.0764 L158.7208 180.5244 L159.3448 184.9444 L160.2156 189.3224 L161.3306 193.6447
 L162.6861 197.8977 L164.278 202.0679z" fill="rgb(255,215,0)"/>
</g>
<g stroke="rgb(0,0,139)" stroke-width="1.0627" stroke-linejoin="round" >
<path d="M260.3383 225.3761 L217.2705 207.5368 L174.2026 225.3761 L156.3634 268.4439 L160.5337 270.0358 L164.7866 271.3913 L169.1089 272.5063 L173.4869 273.3771 L177.9069 274.0011
 L182.3549 274.3763 L186.8169 274.5015 L191.2789 274.3763 L195.7269 274.0011 L200.1469 273.3771 L204.5249 272.5063 L208.8472 271.3913
 L213.1002 270.0358 L217.2705 268.4439 L221.3449 266.6207 L225.3108 264.5719 L229.1555 262.304 L232.867 259.824 L236.4336 257.1399
 L239.8441 254.26 L243.0877 251.1933 L246.1543 247.9497 L249.0342 244.5392 L251.7184 240.9726 L254.1983 237.2611 L256.4663 233.4164
 L258.5151 229.4505 L260.3383 225.3761z" fill="rgb(255,215,0)"/>
</g>
<g stroke="rgb(0,0,139)" stroke-width="1.0627" stroke-linejoin="round" >
<path d="M232.2029 117.6617 L244.8171 87.2082 L201.7493 105.0475 L219.5886 148.1153z" fill="rgb(255,215,0)"/>
</g>
</svg>
