<?xml version="1.0" encoding="utf-8" standalone="no"?>
<!DOCTYPE svg PUBLIC "-//W3C//DTD SVG 1.1//EN" "http://www.w3.org/TR/2001/REC-SVG-20010904/DTD/svg11.dtd">
<svg width="10cm" height="10cm" viewBox="0 0 378 378" overflow="hidden"
 version="1.1" xmlns="http://www.w3.org/2000/svg"  xmlns:xlink="http://www.w3.org/1999/xlink">
<!--tangram  (Utilisateur) -->
<g stroke="rgb(0,0,139)" stroke-width="1.0627" stroke-linejoin="round" >
<path d="M140.6043 111.0792 L169.4641 74.4707 L166.5029 72.3192 L163.382 70.4067 L160.1206 68.745 L156.7389 67.3443 L153.2578 66.2132
 L149.6986 65.3587 L146.0834 64.7861 L142.4344 64.4989 L138.7741 64.4989 L135.1251 64.7861z" fill="rgb(255,215,0)"/>
</g>
<g stroke="rgb(0,0,139)" stroke-width="1.0627" stroke-linejoin="round" >
<path d="M147.5967 109.0312 L194.213 109.0312 A46.6163,46.6163 0 0,0 180.5594,76.0685z" fill="rgb(255,215,0)"/>
</g>
<g stroke="rgb(0,0,139)" stroke-width="1.0627" stroke-linejoin="round" >
<path d="M202.385 222.8211 L298.3425 164.0182 L294.2786 163.0987 L290.1921 162.2858 L286.0856 161.5802 L281.9621 160.9823 L277.8244 160.4926
 L273.6752 160.1113 L269.5175 159.8388 L265.3541 159.6752 L261.1879 159.6207 L257.0216 159.6752 L252.8582 159.8388 L248.7005 160.1113
 L244.5513 160.4926 L240.4136 160.9823 L236.2901 161.5802 L232.1836 162.2858 L228.0971 163.0987 L224.0332 164.0182 L219.9948 165.0438
 L215.9846 166.1748 L212.0054 167.4104 L208.0599 168.7497 L204.1508 170.1919 L200.2808 171.7358 L196.4525 173.3806 L192.6686 175.125
 L188.9317 176.9678 L185.2443 178.9079 L181.6089 180.9438 L178.0281 183.0742z" fill="rgb(255,215,0)"/>
</g>
<g stroke="rgb(0,0,139)" stroke-width="1.0627" stroke-linejoin="round" >
<path d="M169.4223 199.7472 L156.1945 87.9856 L153.658 91.2912 L151.2089 94.6621 L148.8489 98.0959 L146.5796 101.5904 L144.4026 105.143
 L142.3193 108.7514 L140.3311 112.4131 L138.4395 116.1256 L136.6457 119.8863 L134.951 123.6927 L133.3565 127.5422 L131.8633 131.4321
 L130.4725 135.3597 L129.1849 139.3224 L128.0015 143.3174 L126.9231 147.3421 L125.9505 151.3936 L125.0842 155.4692 L124.3249 159.566
 L123.6731 163.6813 L123.1292 167.8123 L122.6937 171.9561 L122.3668 176.1099 L122.1487 180.2708 L122.0396 184.436 L122.0396 188.6026
 L122.1487 192.7678 L122.3668 196.9288 L122.6937 201.0825 L123.1292 205.2263z" fill="rgb(255,215,0)"/>
</g>
<g stroke="rgb(0,0,139)" stroke-width="1.0627" stroke-linejoin="round" >
<path d="M264.2829 199.7472 L282.8603 122.367 L186.9027 181.1698z" fill="rgb(255,215,0)"/>
</g>
<g stroke="rgb(0,0,139)" stroke-width="1.0627" stroke-linejoin="round" >
<path d="M189 270.8855 L132.7292 327.1563 L245.2708 327.1563z" fill="rgb(255,215,0)"/>
</g>
<g stroke="rgb(0,0,139)" stroke-width="1.0627" stroke-linejoin="round" >
<path d="M105.9248 199.7472 L152.5411 199.7472 L185.5038 166.7845 L185.5038 120.1682 A79.5789,79.5789 0 0,0 105.9248,199.7472z" fill="rgb(255,215,0)"/>
</g>
<g stroke="rgb(0,0,139)" stroke-width="1.0627" stroke-linejoin="round" >
<path d="M265.0827 199.7472 L233.4396 233.9786 L235.2697 280.5589 L269.5011 312.202 L272.438 308.8405 L275.1818 305.3196 L277.7238 301.6503 L280.0562 297.8443 L282.1714 293.9135
 L284.0629 289.8703 L285.7248 285.7274 L287.1517 281.4979 L288.3392 277.1949 L289.2836 272.8322 L289.9819 268.4234 L290.4319 263.9823
 L290.6322 259.523 L290.5821 255.0595 L290.2818 250.6059 L289.7323 246.176 L288.9352 241.784 L287.8932 237.4435 L286.6094 233.1683
 L285.0879 228.9719 L283.3336 224.8673 L281.3518 220.8675 L279.1489 216.9852 L276.7317 213.2325 L274.108 209.6212 L271.2859 206.1627
 L268.2743 202.8679 L265.0827 199.7472z" fill="rgb(255,215,0)"/>
</g>
<g stroke="rgb(0,0,139)" stroke-width="1.0627" stroke-linejoin="round" >
<path d="M180.7936 115.4581 L212.143 125.6441 L190.9797 84.1087 L149.4443 105.2721z" fill="rgb(255,215,0)"/>
</g>
</svg>
