<?xml version="1.0" encoding="utf-8" standalone="no"?>
<!DOCTYPE svg PUBLIC "-//W3C//DTD SVG 1.1//EN" "http://www.w3.org/TR/2001/REC-SVG-20010904/DTD/svg11.dtd">
<svg width="10cm" height="10cm" viewBox="0 0 378 378" overflow="hidden"
 version="1.1" xmlns="http://www.w3.org/2000/svg"  xmlns:xlink="http://www.w3.org/1999/xlink">
<!--tangram  (Utilisateur) -->
<g stroke="rgb(0,0,139)" stroke-width="1.0627" stroke-linejoin="round" >
<path d="M74.5517 262.6105 L69.0726 216.3174 L65.4573 216.89 L61.8982 217.7445 L58.417 218.8755 L55.0354 220.2763 L51.774 221.938
 L48.6531 223.8505 L45.6919 226.002 L42.9086 228.3792 L40.3203 230.9674 L37.9432 233.7507z" fill="rgb(255,215,0)"/>
</g>
<g stroke="rgb(0,0,139)" stroke-width="1.0627" stroke-linejoin="round" >
<path d="M114.1756 255.9494 L157.9105 272.0841 L159.0416 268.6029 L159.8961 265.0438 L160.4687 261.4285 L160.7559 257.7795 L160.7559 254.1192
 L160.4687 250.4702 L159.8961 246.855 L159.0416 243.2958 L157.9105 239.8147 L156.5098 236.433z" fill="rgb(255,215,0)"/>
</g>
<g stroke="rgb(0,0,139)" stroke-width="1.0627" stroke-linejoin="round" >
<path d="M265.8725 194.9684 L372.9059 229.7457 L369.169 231.5885 L365.3851 233.3329 L361.5569 234.9777 L357.6869 236.5217 L353.7778 237.9638
 L349.8323 239.3031 L345.853 240.5387 L341.8429 241.6697 L337.8044 242.6953 L333.7406 243.6149 L329.654 244.4278 L325.5475 245.1334
 L321.424 245.7313 L317.2863 246.221 L313.1371 246.6022 L308.9794 246.8747 L304.816 247.0383 L300.6498 247.0929 L296.4835 247.0383
 L292.3201 246.8747 L288.1624 246.6022 L284.0132 246.221 L279.8755 245.7313 L275.752 245.1334 L271.6455 244.4278 L267.559 243.6149
 L263.4951 242.6953 L259.4567 241.6697 L255.4465 240.5387 L251.4673 239.3031z" fill="rgb(255,215,0)"/>
</g>
<g stroke="rgb(0,0,139)" stroke-width="1.0627" stroke-linejoin="round" >
<path d="M230.8618 222.9867 L142.4809 153.3129 L143.0248 157.4438 L143.6766 161.5592 L144.4359 165.656 L145.3022 169.7316 L146.2749 173.7831
 L147.3533 177.8077 L148.5366 181.8028 L149.8242 185.7655 L151.2151 189.6931 L152.7082 193.583 L154.3027 197.4325 L155.9975 201.2389
 L157.7912 204.9996 L159.6828 208.7121 L161.671 212.3738 L163.7543 215.9822 L165.9314 219.5348 L168.2007 223.0292 L170.5607 226.4631
 L173.0097 229.8339 L175.5462 233.1395 L178.1684 236.3776 L180.8744 239.5459 L183.6624 242.6424 L186.5305 245.6647 L189.4767 248.611
 L192.4991 251.4791 L195.5955 254.2671 L198.7638 256.9731 L202.0019 259.5952z" fill="rgb(255,215,0)"/>
</g>
<g stroke="rgb(0,0,139)" stroke-width="1.0627" stroke-linejoin="round" >
<path d="M67.5593 222.9867 L147.1382 222.9867 L67.5593 302.5656z" fill="rgb(255,215,0)"/>
</g>
<g stroke="rgb(0,0,139)" stroke-width="1.0627" stroke-linejoin="round" >
<path d="M201.9609 242.7986 L186.4358 320.8485 L280.0107 258.3237z" fill="rgb(255,215,0)"/>
</g>
<g stroke="rgb(0,0,139)" stroke-width="1.0627" stroke-linejoin="round" >
<path d="M109.5624 215.9943 L155.8556 210.5151 L184.7154 173.9066 L179.2363 127.6134 L174.8199 128.2622 L170.4468 129.1576 L166.1309 130.2968 L161.8856 131.6761 L157.7243 133.2914
 L153.6601 135.1374 L149.7058 137.2084 L145.8739 139.4979 L142.1764 141.9986 L138.6249 144.7028 L135.2306 147.6018 L132.0042 150.6865
 L128.9558 153.9473 L126.0951 157.3739 L123.431 160.9555 L120.9719 164.6809 L118.7256 168.5383 L116.6991 172.5155 L114.8987 176.6001
 L113.3303 180.7793 L111.9986 185.0398 L110.9079 189.3683 L110.0617 193.7511 L109.4625 198.1745 L109.1122 202.6245 L109.0121 207.0872
 L109.1623 211.5484 L109.5624 215.9943z" fill="rgb(255,215,0)"/>
</g>
<g stroke="rgb(0,0,139)" stroke-width="1.0627" stroke-linejoin="round" >
<path d="M249.7911 222.9867 L213.1825 194.1268 L166.8894 199.606 L138.0295 236.2145 L141.6111 238.8786 L145.3365 241.3377 L149.1939 243.5841 L153.1711 245.6106 L157.2557 247.4109
 L161.4349 248.9794 L165.6954 250.311 L170.0239 251.4017 L174.4067 252.248 L178.8301 252.8472 L183.2801 253.1974 L187.7428 253.2975
 L192.204 253.1473 L196.6499 252.7472 L201.0662 252.0984 L205.4393 251.203 L209.7553 250.0639 L214.0006 248.6845 L218.1619 247.0692
 L222.226 245.2232 L226.1803 243.1522 L230.0123 240.8627 L233.7098 238.362 L237.2613 235.6579 L240.6556 232.7589 L243.882 229.6741
 L246.9303 226.4133 L249.7911 222.9867z" fill="rgb(255,215,0)"/>
</g>
<g stroke="rgb(0,0,139)" stroke-width="1.0627" stroke-linejoin="round" >
<path d="M201.9609 151.2828 L188.1607 121.348 L172.026 165.083 L215.761 181.2177z" fill="rgb(255,215,0)"/>
</g>
</svg>
