<?xml version="1.0" encoding="utf-8" standalone="no"?>
<!DOCTYPE svg PUBLIC "-//W3C//DTD SVG 1.1//EN" "http://www.w3.org/TR/2001/REC-SVG-20010904/DTD/svg11.dtd">
<svg width="10cm" height="10cm" viewBox="0 0 378 378" overflow="hidden"
 version="1.1" xmlns="http://www.w3.org/2000/svg"  xmlns:xlink="http://www.w3.org/1999/xlink">
<!--fond  (Utilisateur) -->
<g  stroke-linejoin="round" >
<polygon fill="rgb(0,0,139)" points="0,0,0,378,378,378,378,0"/>
</g>
<!--tangram  (Utilisateur) -->
<g stroke="rgb(0,0,139)" stroke-width="1.0627" stroke-linejoin="round" >
<path d="M89.1607 203.7261 L101.8143 158.8601 L98.2551 158.0056 L94.6399 157.433 L90.9909 157.1458 L87.3306 157.1458 L83.6816 157.433
 L80.0663 158.0056 L76.5072 158.8601 L73.026 159.9911 L69.6444 161.3919 L66.383 163.0536z" fill="rgb(255,215,0)"/>
</g>
<g stroke="rgb(0,0,139)" stroke-width="1.0627" stroke-linejoin="round" >
<path d="M119.4613 194.8513 L166.0776 194.8513 A46.6163,46.6163 0 0,0 152.424,161.8886z" fill="rgb(255,215,0)"/>
</g>
<g stroke="rgb(0,0,139)" stroke-width="1.0627" stroke-linejoin="round" >
<path d="M247.0018 202.9263 L356.4339 229.1986 L354.2105 225.6748 L351.8956 222.2104 L349.4909 218.8077 L346.9979 215.4692 L344.4184 212.1971
 L341.7541 208.9936 L339.0068 205.861 L336.1785 202.8013 L333.2711 199.8168 L330.2865 196.9094 L327.2269 194.081 L324.0942 191.3338
 L320.8908 188.6695 L317.6186 186.09 L314.2801 183.597 L310.8775 181.1922 L307.4131 178.8774 L303.8892 176.654 L300.3084 174.5236
 L296.673 172.4877 L292.9856 170.5477 L289.2487 168.7048 L285.4648 166.9604 L281.6365 165.3157 L277.7665 163.7717 L273.8574 162.3296
 L269.9119 160.9903 L265.9327 159.7547 L261.9225 158.6237 L257.8841 157.5981z" fill="rgb(255,215,0)"/>
</g>
<g stroke="rgb(0,0,139)" stroke-width="1.0627" stroke-linejoin="round" >
<path d="M214.0391 212.8151 L159.0489 114.623 L157.9705 118.6477 L156.9978 122.6992 L156.1315 126.7747 L155.3722 130.8716 L154.7204 134.9869
 L154.1765 139.1179 L153.741 143.2617 L153.4141 147.4155 L153.196 151.5764 L153.087 155.7416 L153.087 159.9082 L153.196 164.0734
 L153.4141 168.2343 L153.741 172.3881 L154.1765 176.5319 L154.7204 180.6629 L155.3722 184.7782 L156.1315 188.8751 L156.9978 192.9506
 L157.9705 197.0021 L159.0489 201.0268 L160.2322 205.0218 L161.5198 208.9845 L162.9107 212.9122 L164.4038 216.802 L165.9983 220.6515
 L167.6931 224.4579 L169.4868 228.2186 L171.3784 231.9311 L173.3666 235.5928z" fill="rgb(255,215,0)"/>
</g>
<g stroke="rgb(0,0,139)" stroke-width="1.0627" stroke-linejoin="round" >
<path d="M140.0872 212.8151 L207.9394 171.2352 L98.5073 144.9629z" fill="rgb(255,215,0)"/>
</g>
<g stroke="rgb(0,0,139)" stroke-width="1.0627" stroke-linejoin="round" >
<path d="M189 255.818 L132.7292 312.0889 L245.2708 312.0889z" fill="rgb(255,215,0)"/>
</g>
<g stroke="rgb(0,0,139)" stroke-width="1.0627" stroke-linejoin="round" >
<path d="M94.2708 212.8151 L140.887 212.8151 L173.8497 179.8524 L173.8497 133.2362 A79.5789,79.5789 0 0,0 94.2708,212.8151z" fill="rgb(255,215,0)"/>
</g>
<g stroke="rgb(0,0,139)" stroke-width="1.0627" stroke-linejoin="round" >
<path d="M253.4287 212.8151 L295.7629 193.2988 L311.8976 149.5638 L292.3812 107.2295 L288.3815 109.2113 L284.4992 111.4142 L280.7464 113.8314 L277.1352 116.4551 L273.6767 119.2772
 L270.3819 122.2888 L267.2611 125.4804 L264.3242 128.8419 L261.5804 132.3628 L259.0384 136.0321 L256.7061 139.8381 L254.5908 143.7689
 L252.6993 147.8121 L251.0375 151.955 L249.6105 156.1846 L248.423 160.4875 L247.4786 164.8502 L246.7803 169.259 L246.3303 173.7001
 L246.1301 178.1594 L246.1801 182.6229 L246.4804 187.0765 L247.0299 191.5064 L247.827 195.8984 L248.869 200.2389 L250.1528 204.5141
 L251.6743 208.7105 L253.4287 212.8151z" fill="rgb(255,215,0)"/>
</g>
<g stroke="rgb(0,0,139)" stroke-width="1.0627" stroke-linejoin="round" >
<path d="M185.6209 145.0074 L195.8069 113.658 L154.2715 134.8213 L175.4349 176.3567z" fill="rgb(255,215,0)"/>
</g>
</svg>
