<?xml version="1.0" encoding="utf-8" standalone="no"?>
<!DOCTYPE svg PUBLIC "-//W3C//DTD SVG 1.1//EN" "http://www.w3.org/TR/2001/REC-SVG-20010904/DTD/svg11.dtd">
<svg width="10cm" height="10cm" viewBox="0 0 378 378" overflow="hidden"
 version="1.1" xmlns="http://www.w3.org/2000/svg"  xmlns:xlink="http://www.w3.org/1999/xlink">
<!--fond  (Utilisateur) -->
<g  stroke-linejoin="round" >
<polygon fill="rgb(0,0,139)" points="0,0,0,378,378,378,378,0"/>
</g>
<!--tangram  (Utilisateur) -->
<g stroke="rgb(0,0,139)" stroke-width="1.0627" stroke-linejoin="round" >
<path d="M192.2963 153.8722 L227.7436 123.5973 L225.2589 120.9095 L222.5711 118.4249 L219.6966 116.1588 L216.6532 114.1253 L213.4596 112.3368
 L210.1355 110.8043 L206.7015 109.5374 L203.1786 108.5439 L199.5887 107.8298 L195.9537 107.3996z" fill="rgb(255,215,0)"/>
</g>
<g stroke="rgb(0,0,139)" stroke-width="1.0627" stroke-linejoin="round" >
<path d="M192.2963 142.618 L185.0039 96.5756 L181.4139 97.2897 L177.891 98.2833 L174.457 99.5502 L171.1329 101.0826 L167.9393 102.8711
 L164.8959 104.9046 L162.0214 107.1707 L159.3336 109.6553 L156.849 112.3431 L154.5829 115.2176z" fill="rgb(255,215,0)"/>
</g>
<g stroke="rgb(0,0,139)" stroke-width="1.0627" stroke-linejoin="round" >
<path d="M195.5925 150.5759 L295.8679 201.6687 L294.5285 197.7232 L293.0864 193.8141 L291.5424 189.9441 L289.8977 186.1159 L288.1533 182.332
 L286.3104 178.595 L284.3704 174.9076 L282.3345 171.2723 L280.2041 167.6914 L277.9807 164.1676 L275.6659 160.7032 L273.2611 157.3005
 L270.7682 153.962 L268.1886 150.6899 L265.5243 147.4864 L262.7771 144.3538 L259.9488 141.2941 L257.0413 138.3096 L254.0568 135.4022
 L250.9971 132.5738 L247.8645 129.8266 L244.661 127.1623 L241.3889 124.5828 L238.0504 122.0898 L234.6477 119.685 L231.1833 117.3702
 L227.6595 115.1468 L224.0787 113.0164 L220.4433 110.9805 L216.7559 109.0405z" fill="rgb(255,215,0)"/>
</g>
<g stroke="rgb(0,0,139)" stroke-width="1.0627" stroke-linejoin="round" >
<path d="M189 157.1684 L162.7277 266.6005 L166.2515 264.3771 L169.7159 262.0623 L173.1186 259.6575 L176.4571 257.1645 L179.7292 254.585
 L182.9327 251.9207 L186.0653 249.1735 L189.125 246.3452 L192.1095 243.4377 L195.017 240.4532 L197.8453 237.3935 L200.5925 234.2609
 L203.2568 231.0574 L205.8364 227.7853 L208.3293 224.4468 L210.7341 221.0441 L213.0489 217.5797 L215.2723 214.0559 L217.4027 210.475
 L219.4386 206.8397 L221.3786 203.1523 L223.2215 199.4153 L224.9659 195.6314 L226.6106 191.8032 L228.1546 187.9332 L229.5967 184.0241
 L230.9361 180.0786 L232.1716 176.0994 L233.3026 172.0892 L234.3283 168.0508z" fill="rgb(255,215,0)"/>
</g>
<g stroke="rgb(0,0,139)" stroke-width="1.0627" stroke-linejoin="round" >
<path d="M193.2617 219.8661 L272.5954 213.6224 L187.018 140.5325z" fill="rgb(255,215,0)"/>
</g>
<g stroke="rgb(0,0,139)" stroke-width="1.0627" stroke-linejoin="round" >
<path d="M189 233.4511 L219.4535 159.9297 L115.4786 202.9976z" fill="rgb(255,215,0)"/>
</g>
<g stroke="rgb(0,0,139)" stroke-width="1.0627" stroke-linejoin="round" >
<path d="M125.3368 225.4932 L169.6715 211.088 L190.8349 169.5526 L176.4297 125.2179 L172.2247 126.7158 L168.1104 128.4471 L164.0996 130.4064 L160.2049 132.5875 L156.4387 134.9835
 L152.8128 137.587 L149.3385 140.3897 L146.0269 143.3827 L142.8883 146.5567 L139.9326 149.9018 L137.1691 153.4072 L134.6065 157.0622
 L132.2528 160.855 L130.1156 164.7739 L128.2014 168.8064 L126.5163 172.9399 L125.0657 177.1614 L123.854 181.4576 L122.8852 185.815
 L122.1622 190.2198 L121.6873 194.6583 L121.462 199.1164 L121.487 203.5801 L121.7623 208.0354 L122.287 212.4682 L123.0594 216.8647
 L124.0771 221.2109 L125.3368 225.4932z" fill="rgb(255,215,0)"/>
</g>
<g stroke="rgb(0,0,139)" stroke-width="1.0627" stroke-linejoin="round" >
<path d="M252.6632 225.4932 L207.3349 236.3756 L182.978 276.1225 L193.8603 321.4507 L198.1698 320.2873 L202.4073 318.8842 L206.5595 317.2456 L210.6133 315.3768 L214.5558 313.2836
 L218.3749 310.9727 L222.0583 308.4513 L225.5946 305.7273 L228.9726 302.8093 L232.1816 299.7065 L235.2116 296.4286 L238.0531 292.986
 L240.697 289.3895 L243.1352 285.6504 L245.3598 281.7805 L247.364 277.7919 L249.1414 273.6973 L250.6864 269.5094 L251.9941 265.2415
 L253.0605 260.9069 L253.8822 256.5194 L254.4565 252.0928 L254.7818 247.6408 L254.8569 243.1777 L254.6817 238.7173 L254.2566 234.2738
 L253.5831 229.8612 L252.6632 225.4932z" fill="rgb(255,215,0)"/>
</g>
<g stroke="rgb(0,0,139)" stroke-width="1.0627" stroke-linejoin="round" >
<path d="M181.0421 228.7895 L214.0048 228.7895 L181.0421 195.8268 L148.0794 228.7895z" fill="rgb(255,215,0)"/>
</g>
</svg>
