<?xml version="1.0" encoding="utf-8" standalone="no"?>
<!DOCTYPE svg PUBLIC "-//W3C//DTD SVG 1.1//EN" "http://www.w3.org/TR/2001/REC-SVG-20010904/DTD/svg11.dtd">
<svg width="10cm" height="10cm" viewBox="0 0 378 378" overflow="hidden"
 version="1.1" xmlns="http://www.w3.org/2000/svg"  xmlns:xlink="http://www.w3.org/1999/xlink">
<!--tangram  (Utilisateur) -->
<g stroke="rgb(0,0,139)" stroke-width="1.0627" stroke-linejoin="round" >
<path d="M181.4663 166.6916 L214.4289 133.7289 L211.7411 131.2443 L208.8666 128.9783 L205.8232 126.9447 L202.6296 125.1562 L199.3055 123.6238
 L195.8715 122.3569 L192.3486 121.3634 L188.7587 120.6493 L185.1237 120.2191 L181.4663 120.0754z" fill="rgb(255,215,0)"/>
</g>
<g stroke="rgb(0,0,139)" stroke-width="1.0627" stroke-linejoin="round" >
<path d="M193.1203 155.0376 L210.9596 111.9697 L207.5256 110.7029 L204.0027 109.7093 L200.4127 108.9952 L196.7778 108.565 L193.1203 108.4213
 L189.4629 108.565 L185.8279 108.9952 L182.238 109.7093 L178.7151 110.7029 L175.2811 111.9697z" fill="rgb(255,215,0)"/>
</g>
<g stroke="rgb(0,0,139)" stroke-width="1.0627" stroke-linejoin="round" >
<path d="M193.1203 155.0376 L255.6451 248.6125 L256.4044 244.5156 L257.0562 240.4003 L257.6001 236.2693 L258.0356 232.1255 L258.3625 227.9718
 L258.5806 223.8108 L258.6897 219.6457 L258.6897 215.479 L258.5806 211.3138 L258.3625 207.1529 L258.0356 202.9991 L257.6001 198.8553
 L257.0562 194.7244 L256.4044 190.609 L255.6451 186.5122 L254.7788 182.4366 L253.8061 178.3851 L252.7277 174.3604 L251.5444 170.3654
 L250.2568 166.4027 L248.866 162.4751 L247.3728 158.5852 L245.7783 154.7357 L244.0835 150.9293 L242.2898 147.1686 L240.3982 143.4561
 L238.41 139.7944 L236.3267 136.186 L234.1497 132.6334 L231.8803 129.1389z" fill="rgb(255,215,0)"/>
</g>
<g stroke="rgb(0,0,139)" stroke-width="1.0627" stroke-linejoin="round" >
<path d="M201.361 146.7969 L179.4052 257.1761 L182.839 254.8161 L186.2099 252.367 L189.5155 249.8305 L192.7536 247.2084 L195.9219 244.5023
 L199.0183 241.7143 L202.0407 238.8462 L204.9869 235.9 L207.8551 232.8776 L210.6431 229.7812 L213.3491 226.6129 L215.9712 223.3748
 L218.5077 220.0692 L220.9568 216.6983 L223.3168 213.2645 L225.5861 209.7701 L227.7631 206.2174 L229.8465 202.609 L231.8346 198.9473
 L233.7262 195.2348 L235.52 191.4741 L237.2147 187.6677 L238.8092 183.8182 L240.3024 179.9284 L241.6932 176.0007 L242.9808 172.038
 L244.1642 168.043 L245.2426 164.0183 L246.2153 159.9668 L247.0816 155.8913z" fill="rgb(255,215,0)"/>
</g>
<g stroke="rgb(0,0,139)" stroke-width="1.0627" stroke-linejoin="round" >
<path d="M179.0526 228.7895 L257.1025 244.3146 L194.5777 150.7396z" fill="rgb(255,215,0)"/>
</g>
<g stroke="rgb(0,0,139)" stroke-width="1.0627" stroke-linejoin="round" >
<path d="M179.0526 228.7895 L245.2201 184.5778 L134.8409 162.622z" fill="rgb(255,215,0)"/>
</g>
<g stroke="rgb(0,0,139)" stroke-width="1.0627" stroke-linejoin="round" >
<path d="M133.4361 214.7218 L179.1567 205.6274 L205.0553 166.8674 L195.9609 121.1468 L191.609 122.1401 L187.3197 123.3758 L183.1064 124.8501 L178.9824 126.5584 L174.9607 128.4951
 L171.0539 130.6543 L167.2743 133.0292 L163.6338 135.6123 L160.1439 138.3954 L156.8155 141.3698 L153.6591 144.5262 L150.6847 147.8546
 L147.9016 151.3445 L145.3185 154.985 L142.9436 158.7646 L140.7844 162.6714 L138.8477 166.6931 L137.1394 170.8171 L135.6651 175.0304
 L134.4294 179.3197 L133.4361 183.6716 L132.6884 188.0723 L132.1886 192.508 L131.9383 196.9648 L131.9383 201.4286 L132.1886 205.8853
 L132.6884 210.3211 L133.4361 214.7218z" fill="rgb(255,215,0)"/>
</g>
<g stroke="rgb(0,0,139)" stroke-width="1.0627" stroke-linejoin="round" >
<path d="M221.2557 234.6165 L188.2931 267.5792 L188.2931 314.1955 L221.2557 347.1581 L224.3223 343.9145 L227.2023 340.504 L229.8864 336.9374 L232.3663 333.2259 L234.6343 329.3812
 L236.6831 325.4153 L238.5063 321.3409 L240.0982 317.1706 L241.4537 312.9176 L242.5687 308.5953 L243.4395 304.2173 L244.0635 299.7973
 L244.4387 295.3493 L244.5639 290.8873 L244.4387 286.4253 L244.0635 281.9773 L243.4395 277.5574 L242.5687 273.1793 L241.4537 268.857
 L240.0982 264.6041 L238.5063 260.4338 L236.6831 256.3593 L234.6343 252.3935 L232.3663 248.5488 L229.8864 244.8373 L227.2023 241.2707
 L224.3223 237.8602 L221.2557 234.6165z" fill="rgb(255,215,0)"/>
</g>
<g stroke="rgb(0,0,139)" stroke-width="1.0627" stroke-linejoin="round" >
<path d="M164.9849 234.6165 L197.9476 234.6165 L164.9849 267.5792 L132.0222 234.6165z" fill="rgb(255,215,0)"/>
</g>
</svg>
