<?xml version="1.0" encoding="utf-8" standalone="no"?>
<!DOCTYPE svg PUBLIC "-//W3C//DTD SVG 1.1//EN" "http://www.w3.org/TR/2001/REC-SVG-20010904/DTD/svg11.dtd">
<svg width="10cm" height="10cm" viewBox="0 0 378 378" overflow="hidden"
 version="1.1" xmlns="http://www.w3.org/2000/svg"  xmlns:xlink="http://www.w3.org/1999/xlink">
<!--tangram  (Utilisateur) -->
<g stroke="rgb(0,0,139)" stroke-width="1.0627" stroke-linejoin="round" >
<path d="M73.7277 231.5202 L81.02 185.4778 L77.3851 185.0476 L73.7277 184.9039 L70.0702 185.0476 L66.4353 185.4778 L62.8453 186.1919
 L59.3224 187.1855 L55.8884 188.4524 L52.5643 189.9848 L49.3707 191.7733 L46.3273 193.8068z" fill="rgb(255,215,0)"/>
</g>
<g stroke="rgb(0,0,139)" stroke-width="1.0627" stroke-linejoin="round" >
<path d="M111.0207 220.5973 L157.6369 220.5973 A46.6163,46.6163 0 0,0 143.9833,187.6346z" fill="rgb(255,215,0)"/>
</g>
<g stroke="rgb(0,0,139)" stroke-width="1.0627" stroke-linejoin="round" >
<path d="M260.3868 196.9579 L360.6621 248.0507 L359.3228 244.1052 L357.8807 240.1961 L356.3367 236.3261 L354.6919 232.4979 L352.9475 228.714
 L351.1047 224.977 L349.1646 221.2896 L347.1287 217.6543 L344.9984 214.0734 L342.775 210.5496 L340.4602 207.0852 L338.0554 203.6826
 L335.5624 200.344 L332.9829 197.0719 L330.3186 193.8684 L327.5713 190.7358 L324.743 187.6762 L321.8356 184.6916 L318.851 181.7842
 L315.7914 178.9559 L312.6587 176.2086 L309.4553 173.5443 L306.1832 170.9648 L302.8446 168.4718 L299.442 166.067 L295.9776 163.7522
 L292.4537 161.5288 L288.8729 159.3984 L285.2375 157.3625 L281.5501 155.4225z" fill="rgb(255,215,0)"/>
</g>
<g stroke="rgb(0,0,139)" stroke-width="1.0627" stroke-linejoin="round" >
<path d="M227.4241 216.7355 L161.2738 125.6874 L160.6759 129.8109 L160.1862 133.9487 L159.8049 138.0978 L159.5324 142.2555 L159.3688 146.4189
 L159.3143 150.5852 L159.3688 154.7515 L159.5324 158.9149 L159.8049 163.0726 L160.1862 167.2217 L160.6759 171.3595 L161.2738 175.483
 L161.9794 179.5894 L162.7923 183.676 L163.7119 187.7399 L164.7375 191.7783 L165.8685 195.7885 L167.1041 199.7677 L168.4434 203.7132
 L169.8855 207.6223 L171.4295 211.4923 L173.0742 215.3205 L174.8186 219.1044 L176.6615 222.8414 L178.6015 226.5288 L180.6374 230.1641
 L182.7678 233.745 L184.9912 237.2688 L187.306 240.7332 L189.7108 244.1359z" fill="rgb(255,215,0)"/>
</g>
<g stroke="rgb(0,0,139)" stroke-width="1.0627" stroke-linejoin="round" >
<path d="M102.8285 216.7355 L178.5126 192.1443 L78.2373 141.0514z" fill="rgb(255,215,0)"/>
</g>
<g stroke="rgb(0,0,139)" stroke-width="1.0627" stroke-linejoin="round" >
<path d="M189 251.2978 L132.7292 307.5686 L245.2708 307.5686z" fill="rgb(255,215,0)"/>
</g>
<g stroke="rgb(0,0,139)" stroke-width="1.0627" stroke-linejoin="round" >
<path d="M90.7745 216.7355 L137.3908 216.7355 L170.3535 183.7728 L170.3535 137.1566 A79.5789,79.5789 0 0,0 90.7745,216.7355z" fill="rgb(255,215,0)"/>
</g>
<g stroke="rgb(0,0,139)" stroke-width="1.0627" stroke-linejoin="round" >
<path d="M249.9324 216.7355 L264.3377 172.4008 L243.1743 130.8654 L198.8396 116.4602 L197.5798 120.7425 L196.5622 125.0887 L195.7898 129.4852 L195.2651 133.918 L194.9898 138.3733
 L194.9648 142.837 L195.1901 147.2951 L195.6649 151.7336 L196.388 156.1384 L197.3568 160.4958 L198.5685 164.792 L200.0191 169.0135
 L201.7042 173.147 L203.6183 177.1795 L205.7556 181.0984 L208.1092 184.8912 L210.6718 188.5461 L213.4353 192.0516 L216.391 195.3967
 L219.5296 198.5707 L222.8413 201.5637 L226.3156 204.3664 L229.9415 206.9698 L233.7077 209.3659 L237.6023 211.547 L241.6131 213.5063
 L245.7275 215.2376 L249.9324 216.7355z" fill="rgb(255,215,0)"/>
</g>
<g stroke="rgb(0,0,139)" stroke-width="1.0627" stroke-linejoin="round" >
<path d="M187.0691 153.8722 L181.9126 121.3153 L154.5122 159.0287 L192.2256 186.429z" fill="rgb(255,215,0)"/>
</g>
</svg>
