<?xml version="1.0" encoding="utf-8" standalone="no"?>
<!DOCTYPE svg PUBLIC "-//W3C//DTD SVG 1.1//EN" "http://www.w3.org/TR/2001/REC-SVG-20010904/DTD/svg11.dtd">
<svg width="10cm" height="10cm" viewBox="0 0 378 378" overflow="hidden"
 version="1.1" xmlns="http://www.w3.org/2000/svg"  xmlns:xlink="http://www.w3.org/1999/xlink">
<!--fond  (Utilisateur) -->
<g  stroke-linejoin="round" >
<polygon fill="rgb(0,0,139)" points="0,0,0,378,378,378,378,0"/>
</g>
<!--tangram  (Utilisateur) -->
<g stroke="rgb(0,0,139)" stroke-width="1.0627" stroke-linejoin="round" >
<path d="M256.2372 170.5049 L263.5296 124.4626 L259.8946 124.0324 L256.2372 123.8887 L252.5797 124.0324 L248.9448 124.4626 L245.3548 125.1767
 L241.832 126.1702 L238.3979 127.4371 L235.0738 128.9695 L231.8802 130.758 L228.8368 132.7916z" fill="rgb(255,215,0)"/>
</g>
<g stroke="rgb(0,0,139)" stroke-width="1.0627" stroke-linejoin="round" >
<path d="M180.2716 112.9516 L216.8801 84.0917 L214.503 81.3084 L211.9147 78.7202 L209.1314 76.343 L206.1702 74.1916 L203.0493 72.2791
 L199.7879 70.6173 L196.4063 69.2166 L192.9251 68.0855 L189.366 67.231 L185.7507 66.6584z" fill="rgb(255,215,0)"/>
</g>
<g stroke="rgb(0,0,139)" stroke-width="1.0627" stroke-linejoin="round" >
<path d="M198.4011 177.6973 L228.9494 69.381 L225.341 71.4644 L221.7884 73.6414 L218.2939 75.9107 L214.8601 78.2707 L211.4892 80.7198
 L208.1836 83.2563 L204.9456 85.8784 L201.7772 88.5844 L198.6808 91.3724 L195.6585 94.2406 L192.7122 97.1868 L189.8441 100.2092
 L187.0561 103.3056 L184.3501 106.4739 L181.7279 109.712 L179.1915 113.0176 L176.7424 116.3885 L174.3824 119.8223 L172.1131 123.3167
 L169.936 126.8693 L167.8527 130.4777 L165.8646 134.1394 L163.973 137.8519 L162.1792 141.6127 L160.4845 145.4191 L158.89 149.2685
 L157.3968 153.1584 L156.0059 157.086 L154.7184 161.0487 L153.535 165.0438z" fill="rgb(255,215,0)"/>
</g>
<g stroke="rgb(0,0,139)" stroke-width="1.0627" stroke-linejoin="round" >
<path d="M126.3316 228.7895 L71.3413 130.5974 L70.2629 134.622 L69.2903 138.6735 L68.424 142.7491 L67.6647 146.8459 L67.0129 150.9613
 L66.469 155.0922 L66.0335 159.236 L65.7066 163.3898 L65.4885 167.5507 L65.3794 171.7159 L65.3794 175.8826 L65.4885 180.0478
 L65.7066 184.2087 L66.0335 188.3624 L66.469 192.5062 L67.0129 196.6372 L67.6647 200.7526 L68.424 204.8494 L69.2903 208.925
 L70.2629 212.9765 L71.3413 217.0011 L72.5247 220.9962 L73.8123 224.9589 L75.2031 228.8865 L76.6963 232.7764 L78.2908 236.6258
 L79.9855 240.4322 L81.7793 244.193 L83.6709 247.9055 L85.6591 251.5672z" fill="rgb(255,215,0)"/>
</g>
<g stroke="rgb(0,0,139)" stroke-width="1.0627" stroke-linejoin="round" >
<path d="M261.5472 139.556 L325.9279 186.3313 L308.3225 75.1753z" fill="rgb(255,215,0)"/>
</g>
<g stroke="rgb(0,0,139)" stroke-width="1.0627" stroke-linejoin="round" >
<path d="M197.9526 275.4057 L141.6818 331.6766 L254.2234 331.6766z" fill="rgb(255,215,0)"/>
</g>
<g stroke="rgb(0,0,139)" stroke-width="1.0627" stroke-linejoin="round" >
<path d="M241.7211 231.6373 L206.2738 201.3625 L159.8012 205.0199 L129.5264 240.4672 L133.0006 243.2699 L136.6266 245.8733 L140.3928 248.2694 L144.2874 250.4505 L148.2982 252.4098
 L152.4125 254.1411 L156.6175 255.639 L160.8998 256.8988 L165.2461 257.9165 L169.6425 258.6889 L174.0753 259.2135 L178.5306 259.4888
 L182.9943 259.5138 L187.4524 259.2886 L191.8909 258.8137 L196.2957 258.0907 L200.6531 257.1218 L204.9493 255.9101 L209.1708 254.4595
 L213.3043 252.7745 L217.3368 250.8603 L221.2557 248.723 L225.0485 246.3694 L228.7035 243.8068 L232.209 241.0433 L235.554 238.0876
 L238.728 234.949 L241.7211 231.6373z" fill="rgb(255,215,0)"/>
</g>
<g stroke="rgb(0,0,139)" stroke-width="1.0627" stroke-linejoin="round" >
<path d="M189.9947 195.8268 L215.8933 157.0668 L206.799 111.3462 L168.039 85.4476 L165.6641 89.2272 L163.5049 93.134 L161.5681 97.1558 L159.8599 101.2798 L158.3856 105.493
 L157.1499 109.7824 L156.1566 114.1342 L155.4089 118.5349 L154.9091 122.9707 L154.6588 127.4274 L154.6588 131.8912 L154.9091 136.348
 L155.4089 140.7837 L156.1566 145.1844 L157.1499 149.5363 L158.3856 153.8256 L159.8599 158.0389 L161.5681 162.1629 L163.5049 166.1846
 L165.6641 170.0914 L168.039 173.871 L170.622 177.5115 L173.4051 181.0014 L176.3796 184.3298 L179.5359 187.4862 L182.8643 190.4606
 L186.3543 193.2437 L189.9947 195.8268z" fill="rgb(255,215,0)"/>
</g>
<g stroke="rgb(0,0,139)" stroke-width="1.0627" stroke-linejoin="round" >
<path d="M154.1842 213.9563 L187.1469 213.9563 L154.1842 180.9936 L121.2215 213.9563z" fill="rgb(255,215,0)"/>
</g>
</svg>
