<?xml version="1.0" encoding="utf-8" standalone="no"?>
<!DOCTYPE svg PUBLIC "-//W3C//DTD SVG 1.1//EN" "http://www.w3.org/TR/2001/REC-SVG-20010904/DTD/svg11.dtd">
<svg width="10cm" height="10cm" viewBox="0 0 378 378" overflow="hidden"
 version="1.1" xmlns="http://www.w3.org/2000/svg"  xmlns:xlink="http://www.w3.org/1999/xlink">
<!--fond  (Utilisateur) -->
<g  stroke-linejoin="round" >
<polygon fill="rgb(0,0,139)" points="0,0,0,378,378,378,378,0"/>
</g>
<!--tangram  (Utilisateur) -->
<g stroke="rgb(0,0,139)" stroke-width="1.0627" stroke-linejoin="round" >
<path d="M237.1958 184.5726 L274.9091 157.1723 L272.6431 154.2978 L270.1585 151.61 L267.4706 149.1253 L264.5961 146.8593 L261.5527 144.8257
 L258.3591 143.0372 L255.0351 141.5048 L251.601 140.2379 L248.0781 139.2444 L244.4882 138.5303z" fill="rgb(255,215,0)"/>
</g>
<g stroke="rgb(0,0,139)" stroke-width="1.0627" stroke-linejoin="round" >
<path d="M203.4333 96.4702 L182.27 54.9348 L179.0764 56.7233 L176.0329 58.7569 L173.1585 61.023 L170.4706 63.5076 L167.986 66.1954
 L165.7199 69.0699 L163.6864 72.1133 L161.8979 75.3069 L160.3655 78.631 L159.0986 82.065z" fill="rgb(255,215,0)"/>
</g>
<g stroke="rgb(0,0,139)" stroke-width="1.0627" stroke-linejoin="round" >
<path d="M229.8034 169.4567 L195.0262 62.4232 L193.1833 66.1601 L191.4389 69.944 L189.7942 73.7723 L188.2502 77.6423 L186.8081 81.5514
 L185.4687 85.4969 L184.2332 89.4761 L183.1022 93.4863 L182.0765 97.5247 L181.157 101.5886 L180.3441 105.6752 L179.6385 109.7816
 L179.0406 113.9051 L178.5509 118.0428 L178.1696 122.192 L177.8971 126.3497 L177.7335 130.5131 L177.679 134.6794 L177.7335 138.8456
 L177.8971 143.0091 L178.1696 147.1668 L178.5509 151.3159 L179.0406 155.4536 L179.6385 159.5772 L180.3441 163.6836 L181.157 167.7702
 L182.0765 171.834 L183.1022 175.8725 L184.2332 179.8827 L185.4687 183.8619z" fill="rgb(255,215,0)"/>
</g>
<g stroke="rgb(0,0,139)" stroke-width="1.0627" stroke-linejoin="round" >
<path d="M161.1474 228.7895 L60.872 177.6966 L62.2114 181.6421 L63.6535 185.5512 L65.1975 189.4212 L66.8422 193.2495 L68.5866 197.0334
 L70.4295 200.7703 L72.3695 204.4577 L74.4054 208.0931 L76.5358 211.6739 L78.7592 215.1978 L81.074 218.6622 L83.4788 222.0648
 L85.9718 225.4033 L88.5513 228.6755 L91.2156 231.8789 L93.9628 235.0116 L96.7911 238.0712 L99.6986 241.0558 L102.6831 243.9632
 L105.7428 246.7915 L108.8754 249.5388 L112.0789 252.2031 L115.351 254.7826 L118.6895 257.2756 L122.0922 259.6803 L125.5566 261.9952
 L129.0804 264.2186 L132.6613 266.3489 L136.2966 268.3848 L139.984 270.3249z" fill="rgb(255,215,0)"/>
</g>
<g stroke="rgb(0,0,139)" stroke-width="1.0627" stroke-linejoin="round" >
<path d="M244.9194 139.556 L323.5186 127.1071 L232.4705 60.9568z" fill="rgb(255,215,0)"/>
</g>
<g stroke="rgb(0,0,139)" stroke-width="1.0627" stroke-linejoin="round" >
<path d="M192.9789 275.4057 L136.7081 331.6766 L249.2498 331.6766z" fill="rgb(255,215,0)"/>
</g>
<g stroke="rgb(0,0,139)" stroke-width="1.0627" stroke-linejoin="round" >
<path d="M256.6421 211.7426 L212.3074 197.3374 L170.772 218.5007 L156.3668 262.8354 L160.6491 264.0952 L164.9953 265.1129 L169.3918 265.8853 L173.8246 266.4099 L178.2799 266.6852
 L182.7436 266.7102 L187.2017 266.485 L191.6402 266.0101 L196.045 265.2871 L200.4024 264.3182 L204.6986 263.1066 L208.9201 261.6559
 L213.0536 259.9709 L217.0861 258.0567 L221.005 255.9194 L224.7978 253.5658 L228.4528 251.0032 L231.9582 248.2397 L235.3033 245.284
 L238.4773 242.1454 L241.4703 238.8337 L244.273 235.3595 L246.8764 231.7335 L249.2725 227.9673 L251.4536 224.0727 L253.4129 220.0619
 L255.1442 215.9475 L256.6421 211.7426z" fill="rgb(255,215,0)"/>
</g>
<g stroke="rgb(0,0,139)" stroke-width="1.0627" stroke-linejoin="round" >
<path d="M145.2316 195.8268 L191.8478 195.8268 L224.8105 162.8641 L224.8105 116.2478 A79.5789,79.5789 0 0,0 145.2316,195.8268z" fill="rgb(255,215,0)"/>
</g>
<g stroke="rgb(0,0,139)" stroke-width="1.0627" stroke-linejoin="round" >
<path d="M129.3158 222.1969 L162.2785 222.1969 L129.3158 189.2343 L96.3531 222.1969z" fill="rgb(255,215,0)"/>
</g>
</svg>
