<?xml version="1.0" encoding="utf-8" standalone="no"?>
<!DOCTYPE svg PUBLIC "-//W3C//DTD SVG 1.1//EN" "http://www.w3.org/TR/2001/REC-SVG-20010904/DTD/svg11.dtd">
<svg width="10cm" height="10cm" viewBox="0 0 378 378" overflow="hidden"
 version="1.1" xmlns="http://www.w3.org/2000/svg"  xmlns:xlink="http://www.w3.org/1999/xlink">
<!--tangram  (Utilisateur) -->
<g stroke="rgb(0,0,139)" stroke-width="1.0627" stroke-linejoin="round" >
<path d="M179.194 224.4449 L175.5365 177.9724 L171.9016 178.4026 L168.3117 179.1167 L164.7888 180.1102 L161.3547 181.3771 L158.0307 182.9095
 L154.8371 184.698 L151.7937 186.7316 L148.9192 188.9976 L146.2313 191.4822 L143.7467 194.1701z" fill="rgb(255,215,0)"/>
</g>
<g stroke="rgb(0,0,139)" stroke-width="1.0627" stroke-linejoin="round" >
<path d="M200.1713 221.5971 L212.8249 266.4632 L216.306 265.3321 L219.6877 263.9313 L222.949 262.2696 L226.07 260.3571 L229.0312 258.2056
 L231.8145 255.8285 L234.4027 253.2402 L236.7799 250.4569 L238.9314 247.4957 L240.8438 244.3748z" fill="rgb(255,215,0)"/>
</g>
<g stroke="rgb(0,0,139)" stroke-width="1.0627" stroke-linejoin="round" >
<path d="M200.1713 203.4676 L293.7463 140.9428 L289.6494 140.1835 L285.5341 139.5317 L281.4031 138.9879 L277.2593 138.5523 L273.1055 138.2254
 L268.9446 138.0074 L264.7794 137.8983 L260.6128 137.8983 L256.4476 138.0074 L252.2867 138.2254 L248.1329 138.5523 L243.9891 138.9879
 L239.8581 139.5317 L235.7428 140.1835 L231.646 140.9428 L227.5704 141.8091 L223.5189 142.7818 L219.4942 143.8602 L215.4992 145.0436
 L211.5365 146.3311 L207.6089 147.722 L203.719 149.2152 L199.8695 150.8097 L196.0631 152.5044 L192.3024 154.2982 L188.5899 156.1898
 L184.9282 158.1779 L181.3198 160.2612 L177.7672 162.4383 L174.2727 164.7076z" fill="rgb(255,215,0)"/>
</g>
<g stroke="rgb(0,0,139)" stroke-width="1.0627" stroke-linejoin="round" >
<path d="M189.3656 188.6344 L171.7602 77.4783 L169.3555 80.881 L167.0406 84.3454 L164.8172 87.8692 L162.6869 91.4501 L160.651 95.0854
 L158.7109 98.7728 L156.8681 102.5098 L155.1237 106.2937 L153.4789 110.1219 L151.935 113.9919 L150.4928 117.901 L149.1535 121.8465
 L147.9179 125.8257 L146.7869 129.8359 L145.7613 133.8743 L144.8417 137.9382 L144.0289 142.0248 L143.3233 146.1312 L142.7254 150.2547
 L142.2356 154.3925 L141.8544 158.5416 L141.5819 162.6993 L141.4183 166.8627 L141.3638 171.029 L141.4183 175.1953 L141.5819 179.3587
 L141.8544 183.5164 L142.2356 187.6655 L142.7254 191.8033 L143.3233 195.9268z" fill="rgb(255,215,0)"/>
</g>
<g stroke="rgb(0,0,139)" stroke-width="1.0627" stroke-linejoin="round" >
<path d="M149.2105 228.7895 L223.8708 256.3331 L176.7542 154.1292z" fill="rgb(255,215,0)"/>
</g>
<g stroke="rgb(0,0,139)" stroke-width="1.0627" stroke-linejoin="round" >
<path d="M218.6179 228.7895 L296.6678 244.3146 L234.143 150.7396z" fill="rgb(255,215,0)"/>
</g>
<g stroke="rgb(0,0,139)" stroke-width="1.0627" stroke-linejoin="round" >
<path d="M225.8103 177.8287 L258.773 144.866 L258.773 98.2497 L225.8103 65.287 L222.7437 68.5307 L219.8638 71.9412 L217.1796 75.5078 L214.6997 79.2193 L212.4317 83.064
 L210.3829 87.0298 L208.5597 91.1043 L206.9679 95.2746 L205.6123 99.5276 L204.4974 103.8499 L203.6265 108.2279 L203.0025 112.6478
 L202.6273 117.0958 L202.5022 121.5578 L202.6273 126.0199 L203.0025 130.4679 L203.6265 134.8878 L204.4974 139.2658 L205.6123 143.5881
 L206.9679 147.8411 L208.5597 152.0114 L210.3829 156.0859 L212.4317 160.0517 L214.6997 163.8964 L217.1796 167.6079 L219.8638 171.1745
 L222.7437 174.585 L225.8103 177.8287z" fill="rgb(255,215,0)"/>
</g>
<g stroke="rgb(0,0,139)" stroke-width="1.0627" stroke-linejoin="round" >
<path d="M187.1519 239.2781 L179.8595 193.2358 L142.1462 165.8354 L96.1038 173.1278 L96.9255 177.5153 L97.9919 181.8499 L99.2996 186.1178 L100.8446 190.3057 L102.622 194.4003
 L104.6262 198.3889 L106.8508 202.2588 L109.289 205.9979 L111.9329 209.5944 L114.7744 213.037 L117.8044 216.3149 L121.0135 219.4177
 L124.3914 222.3357 L127.9277 225.0597 L131.6111 227.5811 L135.4302 229.892 L139.3728 231.9852 L143.4265 233.854 L147.5787 235.4926
 L151.8162 236.8957 L156.1257 238.0591 L160.4937 238.979 L164.9063 239.6526 L169.3498 240.0776 L173.8102 240.2529 L178.2733 240.1778
 L182.7252 239.8525 L187.1519 239.2781z" fill="rgb(255,215,0)"/>
</g>
<g stroke="rgb(0,0,139)" stroke-width="1.0627" stroke-linejoin="round" >
<path d="M193.296 151.7413 L226.2587 151.7413 L193.296 184.704 L160.3333 151.7413z" fill="rgb(255,215,0)"/>
</g>
</svg>
