<?xml version="1.0" encoding="utf-8" standalone="no"?>
<!DOCTYPE svg PUBLIC "-//W3C//DTD SVG 1.1//EN" "http://www.w3.org/TR/2001/REC-SVG-20010904/DTD/svg11.dtd">
<svg width="10cm" height="10cm" viewBox="0 0 378 378" overflow="hidden"
 version="1.1" xmlns="http://www.w3.org/2000/svg"  xmlns:xlink="http://www.w3.org/1999/xlink">
<!--tangram  (Utilisateur) -->
<g stroke="rgb(0,0,139)" stroke-width="1.0627" stroke-linejoin="round" >
<path d="M163.3853 208.6463 L196.348 175.6836 L193.6602 173.199 L190.7857 170.9329 L187.7422 168.8994 L184.5487 167.1109 L181.2246 165.5785
 L177.7905 164.3116 L174.2677 163.318 L170.6777 162.6039 L167.0428 162.1737 L163.3853 162.03z" fill="rgb(255,215,0)"/>
</g>
<g stroke="rgb(0,0,139)" stroke-width="1.0627" stroke-linejoin="round" >
<path d="M203.0091 169.0224 L248.3374 158.1401 L247.3438 154.6172 L246.077 151.1832 L244.5445 147.8591 L242.756 144.6655 L240.7225 141.6221
 L238.4564 138.7476 L235.9718 136.0598 L233.284 133.5752 L230.4095 131.3091 L227.3661 129.2755z" fill="rgb(255,215,0)"/>
</g>
<g stroke="rgb(0,0,139)" stroke-width="1.0627" stroke-linejoin="round" >
<path d="M203.0091 169.0224 L216.237 280.784 L218.7735 277.4784 L221.2225 274.1075 L223.5826 270.6737 L225.8519 267.1793 L228.0289 263.6266
 L230.1122 260.0182 L232.1004 256.3565 L233.992 252.644 L235.7858 248.8833 L237.4805 245.0769 L239.075 241.2274 L240.5682 237.3376
 L241.959 233.4099 L243.2466 229.4472 L244.4299 225.4522 L245.5084 221.4275 L246.481 217.376 L247.3473 213.3005 L248.1066 209.2036
 L248.7584 205.0883 L249.3023 200.9573 L249.7378 196.8135 L250.0647 192.6597 L250.2828 188.4988 L250.3919 184.3336 L250.3919 180.167
 L250.2828 176.0018 L250.0647 171.8409 L249.7378 167.6871 L249.3023 163.5433z" fill="rgb(255,215,0)"/>
</g>
<g stroke="rgb(0,0,139)" stroke-width="1.0627" stroke-linejoin="round" >
<path d="M231.0274 141.0042 L336.613 179.9567 L334.8192 176.196 L332.9276 172.4835 L330.9395 168.8218 L328.8562 165.2134 L326.6791 161.6608
 L324.4098 158.1664 L322.0498 154.7325 L319.6007 151.3617 L317.0642 148.0561 L314.4421 144.818 L311.7361 141.6497 L308.9481 138.5532
 L306.0799 135.5309 L303.1337 132.5846 L300.1113 129.7165 L297.0149 126.9285 L293.8466 124.2225 L290.6085 121.6004 L287.3029 119.0639
 L283.9321 116.6148 L280.4982 114.2548 L277.0038 111.9855 L273.4512 109.8084 L269.8428 107.7251 L266.1811 105.737 L262.4686 103.8454
 L258.7078 102.0516 L254.9014 100.3569 L251.052 98.7624 L247.1621 97.2692z" fill="rgb(255,215,0)"/>
</g>
<g stroke="rgb(0,0,139)" stroke-width="1.0627" stroke-linejoin="round" >
<path d="M155.1789 228.7895 L217.6736 278.0563 L204.4458 166.2948z" fill="rgb(255,215,0)"/>
</g>
<g stroke="rgb(0,0,139)" stroke-width="1.0627" stroke-linejoin="round" >
<path d="M155.1789 228.7895 L139.6539 306.8393 L233.2288 244.3146z" fill="rgb(255,215,0)"/>
</g>
<g stroke="rgb(0,0,139)" stroke-width="1.0627" stroke-linejoin="round" >
<path d="M191.0723 180.9593 L227.6808 152.0994 L233.16 105.8063 L204.3001 69.1977 L200.8735 72.0585 L197.6127 75.1068 L194.528 78.3332 L191.629 81.7275 L188.9249 85.279
 L186.4241 88.9765 L184.1347 92.8085 L182.0637 96.7627 L180.2176 100.8269 L178.6024 104.9882 L177.223 109.2335 L176.0838 113.5495
 L175.1884 117.9226 L174.5396 122.3389 L174.1395 126.7847 L173.9893 131.246 L174.0895 135.7087 L174.4397 140.1587 L175.0389 144.5821
 L175.8851 148.9649 L176.9758 153.2934 L178.3075 157.5539 L179.8759 161.7331 L181.6763 165.8177 L183.7028 169.7949 L185.9491 173.6523
 L188.4082 177.3777 L191.0723 180.9593z" fill="rgb(255,215,0)"/>
</g>
<g stroke="rgb(0,0,139)" stroke-width="1.0627" stroke-linejoin="round" >
<path d="M107.68 248.6014 L149.2154 269.7647 L193.5502 255.3595 L214.7135 213.8241 L210.681 211.9099 L206.5474 210.2249 L202.326 208.7743 L198.0298 207.5626 L193.6724 206.5937
 L189.2676 205.8707 L184.8291 205.3958 L180.371 205.1706 L175.9073 205.1956 L171.452 205.4709 L167.0192 205.9955 L162.6227 206.7679
 L158.2765 207.7856 L153.9942 209.0454 L149.7892 210.5433 L145.6749 212.2746 L141.6641 214.2339 L137.7694 216.415 L134.0032 218.8111
 L130.3773 221.4145 L126.903 224.2172 L123.5914 227.2102 L120.4528 230.3842 L117.497 233.7293 L114.7335 237.2348 L112.1709 240.8897
 L109.8173 244.6825 L107.68 248.6014z" fill="rgb(255,215,0)"/>
</g>
<g stroke="rgb(0,0,139)" stroke-width="1.0627" stroke-linejoin="round" >
<path d="M107.3488 248.6014 L140.3114 248.6014 L107.3488 281.5641 L74.3861 248.6014z" fill="rgb(255,215,0)"/>
</g>
</svg>
