<?xml version="1.0" encoding="utf-8" standalone="no"?>
<!DOCTYPE svg PUBLIC "-//W3C//DTD SVG 1.1//EN" "http://www.w3.org/TR/2001/REC-SVG-20010904/DTD/svg11.dtd">
<svg width="10cm" height="10cm" viewBox="0 0 378 378" overflow="hidden"
 version="1.1" xmlns="http://www.w3.org/2000/svg"  xmlns:xlink="http://www.w3.org/1999/xlink">
<!--tangram  (Utilisateur) -->
<g stroke="rgb(0,0,139)" stroke-width="1.0627" stroke-linejoin="round" >
<path d="M169.9536 222.0313 L184.3588 177.6966 L180.8359 176.703 L177.246 175.9889 L173.6111 175.5587 L169.9536 175.415 L166.2961 175.5587
 L162.6612 175.9889 L159.0712 176.703 L155.5484 177.6966 L152.1143 178.9635 L148.7902 180.4959z" fill="rgb(255,215,0)"/>
</g>
<g stroke="rgb(0,0,139)" stroke-width="1.0627" stroke-linejoin="round" >
<path d="M202.585 199.2887 L238.0323 229.5636 L240.2983 226.6891 L242.3319 223.6456 L244.1204 220.4521 L245.6528 217.128 L246.9197 213.6939
 L247.9132 210.1711 L248.6273 206.5811 L249.0575 202.9462 L249.2012 199.2887 L249.0575 195.6312z" fill="rgb(255,215,0)"/>
</g>
<g stroke="rgb(0,0,139)" stroke-width="1.0627" stroke-linejoin="round" >
<path d="M202.585 189.3999 L306.5599 232.4677 L304.9151 228.6395 L303.1707 224.8556 L301.3279 221.1186 L299.3878 217.4312 L297.3519 213.7959
 L295.2216 210.215 L292.9982 206.6912 L290.6833 203.2268 L288.2786 199.8241 L285.7856 196.4856 L283.2061 193.2135 L280.5418 190.01
 L277.7945 186.8774 L274.9662 183.8177 L272.0588 180.8332 L269.0742 177.9258 L266.0146 175.0974 L262.8819 172.3502 L259.6785 169.6859
 L256.4063 167.1064 L253.0678 164.6134 L249.6652 162.2086 L246.2008 159.8938 L242.6769 157.6704 L239.0961 155.54 L235.4607 153.5041
 L231.7733 151.5641 L228.0364 149.7212 L224.2525 147.9768 L220.4242 146.3321z" fill="rgb(255,215,0)"/>
</g>
<g stroke="rgb(0,0,139)" stroke-width="1.0627" stroke-linejoin="round" >
<path d="M211.674 166.326 L277.8243 75.2779 L273.7178 75.9836 L269.6313 76.7964 L265.5674 77.716 L261.529 78.7416 L257.5188 79.8726
 L253.5396 81.1082 L249.5941 82.4475 L245.685 83.8896 L241.815 85.4336 L237.9867 87.0784 L234.2028 88.8228 L230.4659 90.6656
 L226.7785 92.6057 L223.1431 94.6416 L219.5623 96.7719 L216.0385 98.9953 L212.574 101.3101 L209.1714 103.7149 L205.8329 106.2079
 L202.5608 108.7874 L199.3573 111.4517 L196.2246 114.199 L193.165 117.0273 L190.1804 119.9347 L187.273 122.9193 L184.4447 125.9789
 L181.6974 129.1116 L179.0331 132.315 L176.4536 135.5871 L173.9606 138.9257z" fill="rgb(255,215,0)"/>
</g>
<g stroke="rgb(0,0,139)" stroke-width="1.0627" stroke-linejoin="round" >
<path d="M149.2105 228.7895 L217.0627 270.3694 L190.7904 160.9373z" fill="rgb(255,215,0)"/>
</g>
<g stroke="rgb(0,0,139)" stroke-width="1.0627" stroke-linejoin="round" >
<path d="M187.0691 228.7895 L217.5226 302.3108 L260.5905 198.3359z" fill="rgb(255,215,0)"/>
</g>
<g stroke="rgb(0,0,139)" stroke-width="1.0627" stroke-linejoin="round" >
<path d="M216.5699 175.415 L249.5325 142.4523 L249.5325 95.8361 L216.5699 62.8734 L213.5033 66.1171 L210.6233 69.5275 L207.9392 73.0942 L205.4592 76.8057 L203.1913 80.6504
 L201.1425 84.6162 L199.3193 88.6907 L197.7274 92.861 L196.3719 97.1139 L195.2569 101.4362 L194.3861 105.8142 L193.7621 110.2342
 L193.3869 114.6822 L193.2617 119.1442 L193.3869 123.6062 L193.7621 128.0542 L194.3861 132.4742 L195.2569 136.8522 L196.3719 141.1745
 L197.7274 145.4275 L199.3193 149.5978 L201.1425 153.6722 L203.1913 157.6381 L205.4592 161.4828 L207.9392 165.1943 L210.6233 168.7609
 L213.5033 172.1714 L216.5699 175.415z" fill="rgb(255,215,0)"/>
</g>
<g stroke="rgb(0,0,139)" stroke-width="1.0627" stroke-linejoin="round" >
<path d="M138.122 245.1052 L165.5224 207.3918 L158.23 161.3495 L120.5166 133.9491 L117.9952 137.6326 L115.6843 141.4516 L113.5911 145.3942 L111.7223 149.4479 L110.0837 153.6001
 L108.6805 157.8376 L107.5172 162.1471 L106.5973 166.5151 L105.9237 170.9278 L105.4987 175.3713 L105.3234 179.8316 L105.3985 184.2947
 L105.7238 188.7467 L106.2981 193.1733 L107.1198 197.5608 L108.1862 201.8954 L109.4939 206.1633 L111.0389 210.3512 L112.8163 214.4459
 L114.8205 218.4344 L117.0451 222.3043 L119.4833 226.0434 L122.1272 229.6399 L124.9687 233.0825 L127.9987 236.3604 L131.2078 239.4632
 L134.5857 242.3812 L138.122 245.1052z" fill="rgb(255,215,0)"/>
</g>
<g stroke="rgb(0,0,139)" stroke-width="1.0627" stroke-linejoin="round" >
<path d="M147.6795 197.3578 L180.6422 197.3578 L147.6795 230.3205 L114.7168 197.3578z" fill="rgb(255,215,0)"/>
</g>
</svg>
