<?xml version="1.0" encoding="utf-8" standalone="no"?>
<!DOCTYPE svg PUBLIC "-//W3C//DTD SVG 1.1//EN" "http://www.w3.org/TR/2001/REC-SVG-20010904/DTD/svg11.dtd">
<svg width="10cm" height="10cm" viewBox="0 0 378 378" overflow="hidden"
 version="1.1" xmlns="http://www.w3.org/2000/svg"  xmlns:xlink="http://www.w3.org/1999/xlink">
<!--tangram  (Utilisateur) -->
<g stroke="rgb(0,0,139)" stroke-width="1.0627" stroke-linejoin="round" >
<path d="M175.4978 223.4795 L179.1553 177.0069 L175.4978 176.8632 L171.8404 177.0069 L168.2055 177.4371 L164.6155 178.1512 L161.0926 179.1448
 L157.6586 180.4117 L154.3345 181.9441 L151.1409 183.7326 L148.0975 185.7661 L145.223 188.0322z" fill="rgb(255,215,0)"/>
</g>
<g stroke="rgb(0,0,139)" stroke-width="1.0627" stroke-linejoin="round" >
<path d="M201.1368 212.6737 L223.9145 253.3462 L227.0354 251.4337 L229.9966 249.2823 L232.78 246.9051 L235.3682 244.3169 L237.7453 241.5336
 L239.8968 238.5723 L241.8093 235.4514 L243.471 232.1901 L244.8718 228.8084 L246.0029 225.3273z" fill="rgb(255,215,0)"/>
</g>
<g stroke="rgb(0,0,139)" stroke-width="1.0627" stroke-linejoin="round" >
<path d="M201.1368 197.8405 L311.516 175.8847 L308.0215 173.6154 L304.4689 171.4384 L300.8605 169.3551 L297.1988 167.3669 L293.4863 165.4753
 L289.7256 163.6815 L285.9192 161.9868 L282.0697 160.3923 L278.1798 158.8991 L274.2522 157.5083 L270.2895 156.2207 L266.2945 155.0373
 L262.2698 153.9589 L258.2183 152.9863 L254.1427 152.12 L250.0459 151.3607 L245.9306 150.7089 L241.7996 150.165 L237.6558 149.7295
 L233.502 149.4026 L229.3411 149.1845 L225.1759 149.0754 L221.0093 149.0754 L216.8441 149.1845 L212.6832 149.4026 L208.5294 149.7295
 L204.3856 150.165 L200.2546 150.7089 L196.1393 151.3607 L192.0424 152.12z" fill="rgb(255,215,0)"/>
</g>
<g stroke="rgb(0,0,139)" stroke-width="1.0627" stroke-linejoin="round" >
<path d="M198.2889 179.7111 L215.8943 68.555 L212.5558 71.048 L209.2837 73.6275 L206.0802 76.2918 L202.9476 79.0391 L199.8879 81.8674
 L196.9034 84.7748 L193.9959 87.7594 L191.1676 90.819 L188.4204 93.9517 L185.7561 97.1551 L183.1766 100.4273 L180.6836 103.7658
 L178.2788 107.1684 L175.964 110.6328 L173.7406 114.1567 L171.6102 117.7375 L169.5743 121.3729 L167.6343 125.0603 L165.7914 128.7972
 L164.047 132.5811 L162.4023 136.4094 L160.8583 140.2794 L159.4162 144.1884 L158.0768 148.1339 L156.8413 152.1132 L155.7103 156.1233
 L154.6847 160.1618 L153.7651 164.2257 L152.9522 168.3122 L152.2466 172.4187z" fill="rgb(255,215,0)"/>
</g>
<g stroke="rgb(0,0,139)" stroke-width="1.0627" stroke-linejoin="round" >
<path d="M149.2105 228.7895 L221.4796 262.106 L182.527 156.5204z" fill="rgb(255,215,0)"/>
</g>
<g stroke="rgb(0,0,139)" stroke-width="1.0627" stroke-linejoin="round" >
<path d="M205.9984 228.7895 L272.1658 273.0012 L250.2101 162.622z" fill="rgb(255,215,0)"/>
</g>
<g stroke="rgb(0,0,139)" stroke-width="1.0627" stroke-linejoin="round" >
<path d="M222.1141 176.8632 L255.0768 143.9005 L255.0768 97.2843 L222.1141 64.3216 L219.0475 67.5652 L216.1676 70.9757 L213.4835 74.5423 L211.0035 78.2538 L208.7356 82.0986
 L206.6868 86.0644 L204.8636 90.1388 L203.2717 94.3091 L201.9161 98.5621 L200.8012 102.8844 L199.9304 107.2624 L199.3064 111.6824
 L198.9312 116.1304 L198.806 120.5924 L198.9312 125.0544 L199.3064 129.5024 L199.9304 133.9224 L200.8012 138.3004 L201.9161 142.6227
 L203.2717 146.8757 L204.8636 151.0459 L206.6868 155.1204 L208.7356 159.0862 L211.0035 162.9309 L213.4835 166.6424 L216.1676 170.2091
 L219.0475 173.6196 L222.1141 176.8632z" fill="rgb(255,215,0)"/>
</g>
<g stroke="rgb(0,0,139)" stroke-width="1.0627" stroke-linejoin="round" >
<path d="M167.54 241.6089 L174.8323 195.5666 L147.432 157.8532 L101.3896 150.5609 L100.8153 154.9875 L100.49 159.4395 L100.4149 163.9026 L100.5902 168.3629 L101.0152 172.8064
 L101.6888 177.2191 L102.6087 181.5871 L103.772 185.8966 L105.1752 190.1341 L106.8138 194.2863 L108.6826 198.34 L110.7758 202.2826
 L113.0867 206.1016 L115.6081 209.7851 L118.3321 213.3214 L121.2501 216.6993 L124.3529 219.9084 L127.6308 222.9384 L131.0734 225.7798
 L134.6699 228.4238 L138.409 230.862 L142.2789 233.0866 L146.2674 235.0908 L150.3621 236.8682 L154.55 238.4132 L158.8179 239.7209
 L163.1524 240.7873 L167.54 241.6089z" fill="rgb(255,215,0)"/>
</g>
<g stroke="rgb(0,0,139)" stroke-width="1.0627" stroke-linejoin="round" >
<path d="M175.0494 169.9879 L208.0121 169.9879 L175.0494 202.9506 L142.0867 169.9879z" fill="rgb(255,215,0)"/>
</g>
</svg>
