<?xml version="1.0" encoding="utf-8" standalone="no"?>
<!DOCTYPE svg PUBLIC "-//W3C//DTD SVG 1.1//EN" "http://www.w3.org/TR/2001/REC-SVG-20010904/DTD/svg11.dtd">
<svg width="10cm" height="10cm" viewBox="0 0 378 378" overflow="hidden"
 version="1.1" xmlns="http://www.w3.org/2000/svg"  xmlns:xlink="http://www.w3.org/1999/xlink">
<!--fond  (Utilisateur) -->
<g  stroke-linejoin="round" >
<polygon fill="rgb(0,0,139)" points="0,0,0,378,378,378,378,0"/>
</g>
<!--tangram  (Utilisateur) -->
<g stroke="rgb(0,0,139)" stroke-width="1.0627" stroke-linejoin="round" >
<path d="M212.8737 105.7935 L205.5813 59.7511 L201.9913 60.4652 L198.4685 61.4588 L195.0344 62.7257 L191.7103 64.2581 L188.5168 66.0466
 L185.4733 68.0801 L182.5988 70.3462 L179.911 72.8308 L177.4264 75.5186 L175.1603 78.3931z" fill="rgb(255,215,0)"/>
</g>
<g stroke="rgb(0,0,139)" stroke-width="1.0627" stroke-linejoin="round" >
<path d="M145.3487 109.6553 L172.7491 147.3687 L175.6236 145.1026 L178.3114 142.618 L180.796 139.9302 L183.0621 137.0557 L185.0956 134.0122
 L186.8841 130.8187 L188.4165 127.4946 L189.6834 124.0605 L190.677 120.5377 L191.3911 116.9477z" fill="rgb(255,215,0)"/>
</g>
<g stroke="rgb(0,0,139)" stroke-width="1.0627" stroke-linejoin="round" >
<path d="M165.1263 215.6044 L265.4016 164.5116 L261.4224 163.276 L257.4122 162.145 L253.3738 161.1194 L249.3099 160.1998 L245.2234 159.3869
 L241.1169 158.6813 L236.9934 158.0834 L232.8557 157.5937 L228.7065 157.2125 L224.5488 156.94 L220.3854 156.7764 L216.2191 156.7218
 L212.0529 156.7764 L207.8895 156.94 L203.7318 157.2125 L199.5826 157.5937 L195.4449 158.0834 L191.3214 158.6813 L187.2149 159.3869
 L183.1284 160.1998 L179.0645 161.1194 L175.0261 162.145 L171.0159 163.276 L167.0367 164.5116 L163.0911 165.8509 L159.1821 167.293
 L155.3121 168.837 L151.4838 170.4818 L147.6999 172.2262 L143.963 174.069z" fill="rgb(255,215,0)"/>
</g>
<g stroke="rgb(0,0,139)" stroke-width="1.0627" stroke-linejoin="round" >
<path d="M113.5171 209.0119 L148.2944 101.9784 L144.607 103.9185 L140.9716 105.9544 L137.3908 108.0847 L133.867 110.3081 L130.4026 112.623
 L126.9999 115.0277 L123.6614 117.5207 L120.3893 120.1002 L117.1858 122.7645 L114.0532 125.5118 L110.9935 128.3401 L108.009 131.2475
 L105.1015 134.2321 L102.2732 137.2917 L99.526 140.4244 L96.8617 143.6278 L94.2821 146.9 L91.7891 150.2385 L89.3844 153.6411
 L87.0695 157.1055 L84.8462 160.6294 L82.7158 164.2102 L80.6799 167.8456 L78.7399 171.533 L76.897 175.2699 L75.1526 179.0538
 L73.5079 182.8821 L71.9639 186.7521 L70.5217 190.6611 L69.1824 194.6066z" fill="rgb(255,215,0)"/>
</g>
<g stroke="rgb(0,0,139)" stroke-width="1.0627" stroke-linejoin="round" >
<clipPath id="Clip1">
<rect x="0" y="0" width="10cm" height="10cm"/>
</clipPath>
<path d="M300.1763 173.3185 L379.7552 173.3185 L300.1763 93.7395z" fill="rgb(255,215,0)" clip-path="url(#Clip1)"/>
</g>
<g stroke="rgb(0,0,139)" stroke-width="1.0627" stroke-linejoin="round" >
<path d="M196.9579 275.4057 L140.6871 331.6766 L253.2287 331.6766z" fill="rgb(255,215,0)"/>
</g>
<g stroke="rgb(0,0,139)" stroke-width="1.0627" stroke-linejoin="round" >
<path d="M149.2105 227.6584 L186.9239 200.258 L194.2163 154.2157 L166.8159 116.5023 L163.2796 119.2263 L159.9017 122.1443 L156.6926 125.2471 L153.6626 128.525 L150.8212 131.9676
 L148.1772 135.5641 L145.739 139.3032 L143.5144 143.1731 L141.5102 147.1616 L139.7328 151.2563 L138.1878 155.4442 L136.8801 159.7121
 L135.8137 164.0466 L134.992 168.4342 L134.4177 172.8608 L134.0924 177.3127 L134.0173 181.7759 L134.1926 186.2362 L134.6176 190.6797
 L135.2912 195.0924 L136.2111 199.4604 L137.3744 203.7699 L138.7776 208.0074 L140.4162 212.1596 L142.285 216.2133 L144.3782 220.1559
 L146.6891 223.9749 L149.2105 227.6584z" fill="rgb(255,215,0)"/>
</g>
<g stroke="rgb(0,0,139)" stroke-width="1.0627" stroke-linejoin="round" >
<path d="M276.5368 195.8268 L314.2502 223.2271 L360.2925 215.9348 L387.6929 178.2214 L384.0095 175.7 L380.1904 173.389 L376.2478 171.2959 L372.1941 169.4271 L368.0419 167.7885
 L363.8044 166.3853 L359.4949 165.222 L355.1269 164.302 L350.7143 163.6285 L346.2708 163.2034 L341.8104 163.0282 L337.3473 163.1033
 L332.8953 163.4286 L328.4687 164.0029 L324.0812 164.8246 L319.7466 165.891 L315.4787 167.1987 L311.2908 168.7437 L307.1962 170.5211
 L303.2076 172.5253 L299.3377 174.7499 L295.5986 177.1881 L292.0021 179.832 L288.5595 182.6735 L285.2816 185.7035 L282.1788 188.9126
 L279.2608 192.2905 L276.5368 195.8268z" fill="rgb(255,215,0)" clip-path="url(#Clip1)"/>
</g>
<g stroke="rgb(0,0,139)" stroke-width="1.0627" stroke-linejoin="round" >
<path d="M191.1652 142.2867 L220.5351 157.2514 L206.1299 112.9167 L161.7952 127.322z" fill="rgb(255,215,0)"/>
</g>
</svg>
