<?xml version="1.0" encoding="utf-8" standalone="no"?>
<!DOCTYPE svg PUBLIC "-//W3C//DTD SVG 1.1//EN" "http://www.w3.org/TR/2001/REC-SVG-20010904/DTD/svg11.dtd">
<svg width="10cm" height="10cm" viewBox="0 0 378 378" overflow="hidden"
 version="1.1" xmlns="http://www.w3.org/2000/svg"  xmlns:xlink="http://www.w3.org/1999/xlink">
<!--fond  (Utilisateur) -->
<g  stroke-linejoin="round" >
<polygon fill="rgb(0,0,139)" points="0,0,0,378,378,378,378,0"/>
</g>
<!--tangram  (Utilisateur) -->
<g stroke="rgb(0,0,139)" stroke-width="1.0627" stroke-linejoin="round" >
<path d="M248.6206 176.132 L269.784 134.5966 L266.4599 133.0642 L263.0258 131.7973 L259.503 130.8038 L255.913 130.0897 L252.2781 129.6594
 L248.6206 129.5157 L244.9632 129.6594 L241.3282 130.0897 L237.7383 130.8038 L234.2154 131.7973z" fill="rgb(255,215,0)"/>
</g>
<g stroke="rgb(0,0,139)" stroke-width="1.0627" stroke-linejoin="round" >
<path d="M189.5363 106.359 L205.671 62.6241 L202.1898 61.493 L198.6307 60.6385 L195.0154 60.0659 L191.3664 59.7787 L187.7061 59.7787
 L184.0571 60.0659 L180.4419 60.6385 L176.8827 61.493 L173.4016 62.6241 L170.0199 64.0248z" fill="rgb(255,215,0)"/>
</g>
<g stroke="rgb(0,0,139)" stroke-width="1.0627" stroke-linejoin="round" >
<path d="M210.962 174.4011 L215.3804 61.9462 L212.358 64.8143 L209.4118 67.7606 L206.5436 70.7829 L203.7556 73.8793 L201.0496 77.0477
 L198.4275 80.2857 L195.891 83.5913 L193.4419 86.9622 L191.0819 90.396 L188.8126 93.8905 L186.6356 97.4431 L184.5522 101.0515
 L182.5641 104.7132 L180.6725 108.4257 L178.8787 112.1864 L177.184 115.9928 L175.5895 119.8423 L174.0963 123.7322 L172.7055 127.6598
 L171.4179 131.6225 L170.2345 135.6175 L169.1561 139.6422 L168.1834 143.6937 L167.3172 147.7693 L166.5578 151.8661 L165.906 155.9814
 L165.3622 160.1124 L164.9267 164.2562 L164.5997 168.41 L164.3817 172.5709z" fill="rgb(255,215,0)"/>
</g>
<g stroke="rgb(0,0,139)" stroke-width="1.0627" stroke-linejoin="round" >
<path d="M140.2579 228.7895 L63.8646 146.1476 L63.7555 150.3128 L63.7555 154.4794 L63.8646 158.6446 L64.0826 162.8056 L64.4095 166.9593
 L64.8451 171.1031 L65.3889 175.2341 L66.0407 179.3494 L66.8 183.4463 L67.6663 187.5219 L68.639 191.5734 L69.7174 195.598
 L70.9008 199.5931 L72.1883 203.5558 L73.5792 207.4834 L75.0724 211.3733 L76.6669 215.2227 L78.3616 219.0291 L80.1554 222.7899
 L82.047 226.5024 L84.0351 230.1641 L86.1184 233.7725 L88.2955 237.3251 L90.5648 240.8195 L92.9248 244.2533 L95.3739 247.6242
 L97.9104 250.9298 L100.5325 254.1679 L103.2385 257.3362 L106.0265 260.4326z" fill="rgb(255,215,0)"/>
</g>
<g stroke="rgb(0,0,139)" stroke-width="1.0627" stroke-linejoin="round" >
<path d="M254.8961 139.556 L330.5802 164.1472 L279.4873 63.8719z" fill="rgb(255,215,0)"/>
</g>
<g stroke="rgb(0,0,139)" stroke-width="1.0627" stroke-linejoin="round" >
<path d="M195.9632 275.4057 L139.6923 331.6766 L252.234 331.6766z" fill="rgb(255,215,0)"/>
</g>
<g stroke="rgb(0,0,139)" stroke-width="1.0627" stroke-linejoin="round" >
<path d="M247.6895 223.6794 L207.9426 199.3225 L162.6143 210.2048 L138.2574 249.9517 L142.1273 252.1764 L146.1159 254.1806 L150.2105 255.958 L154.3984 257.5029 L158.6663 258.8107
 L163.0009 259.8771 L167.3884 260.6987 L171.8151 261.2731 L176.267 261.5984 L180.7301 261.6735 L185.1905 261.4982 L189.634 261.0732
 L194.0466 260.3996 L198.4146 259.4797 L202.7241 258.3163 L206.9616 256.9132 L211.1138 255.2746 L215.1675 253.4058 L219.1101 251.3126
 L222.9292 249.0017 L226.6126 246.4803 L230.1489 243.7563 L233.5268 240.8383 L236.7359 237.7355 L239.7659 234.4576 L242.6074 231.015
 L245.2513 227.4185 L247.6895 223.6794z" fill="rgb(255,215,0)"/>
</g>
<g stroke="rgb(0,0,139)" stroke-width="1.0627" stroke-linejoin="round" >
<path d="M172.0895 195.8268 L210.8495 169.9282 L219.9439 124.2076 L194.0453 85.4476 L190.4048 88.0307 L186.9148 90.8138 L183.5865 93.7882 L180.4301 96.9446 L177.4557 100.273
 L174.6725 103.7629 L172.0895 107.4034 L169.7146 111.183 L167.5554 115.0898 L165.6186 119.1115 L163.9104 123.2355 L162.4361 127.4488
 L161.2004 131.7382 L160.2071 136.09 L159.4594 140.4907 L158.9596 144.9264 L158.7093 149.3832 L158.7093 153.847 L158.9596 158.3038
 L159.4594 162.7395 L160.2071 167.1402 L161.2004 171.492 L162.4361 175.7814 L163.9104 179.9947 L165.6186 184.1187 L167.5554 188.1404
 L169.7146 192.0472 L172.0895 195.8268z" fill="rgb(255,215,0)"/>
</g>
<g stroke="rgb(0,0,139)" stroke-width="1.0627" stroke-linejoin="round" >
<path d="M144.2368 217.2525 L177.1995 217.2525 L144.2368 184.2899 L111.2742 217.2525z" fill="rgb(255,215,0)"/>
</g>
</svg>
