<?xml version="1.0" encoding="utf-8" standalone="no"?>
<!DOCTYPE svg PUBLIC "-//W3C//DTD SVG 1.1//EN" "http://www.w3.org/TR/2001/REC-SVG-20010904/DTD/svg11.dtd">
<svg width="10cm" height="10cm" viewBox="0 0 378 378" overflow="hidden"
 version="1.1" xmlns="http://www.w3.org/2000/svg"  xmlns:xlink="http://www.w3.org/1999/xlink">
<!--fond  (Utilisateur) -->
<g  stroke-linejoin="round" >
<polygon fill="rgb(0,0,139)" points="0,0,0,378,378,378,378,0"/>
</g>
<!--tangram  (Utilisateur) -->
<g stroke="rgb(0,0,139)" stroke-width="1.0627" stroke-linejoin="round" >
<path d="M167.2915 236.7474 L139.8911 199.034 L137.0166 201.3001 L134.3288 203.7847 L131.8442 206.4725 L129.5781 209.347 L127.5446 212.3904
 L125.7561 215.584 L124.2237 218.9081 L122.9568 222.3421 L121.9632 225.865 L121.2491 229.455z" fill="rgb(255,215,0)"/>
</g>
<g stroke="rgb(0,0,139)" stroke-width="1.0627" stroke-linejoin="round" >
<path d="M176.6147 260.3868 L162.2095 304.7215 L165.7324 305.7151 L169.3223 306.4291 L172.9573 306.8594 L176.6147 307.0031 L180.2722 306.8594
 L183.9071 306.4291 L187.4971 305.7151 L191.02 304.7215 L194.454 303.4546 L197.7781 301.9222z" fill="rgb(255,215,0)"/>
</g>
<g stroke="rgb(0,0,139)" stroke-width="1.0627" stroke-linejoin="round" >
<path d="M212.3081 220.8316 L194.7027 109.6755 L198.0413 112.1685 L201.3134 114.7481 L204.5169 117.4124 L207.6495 120.1596 L210.7091 122.9879
 L213.6937 125.8953 L216.6011 128.8799 L219.4294 131.9395 L222.1767 135.0722 L224.841 138.2757 L227.4205 141.5478 L229.9135 144.8863
 L232.3183 148.2889 L234.6331 151.7534 L236.8565 155.2772 L238.9869 158.858 L241.0228 162.4934 L242.9628 166.1808 L244.8057 169.9177
 L246.5501 173.7016 L248.1948 177.5299 L249.7388 181.3999 L251.1809 185.309 L252.5202 189.2545 L253.7558 193.2337 L254.8868 197.2439
 L255.9124 201.2823 L256.832 205.3462 L257.6449 209.4327 L258.3505 213.5392z" fill="rgb(255,215,0)"/>
</g>
<g stroke="rgb(0,0,139)" stroke-width="1.0627" stroke-linejoin="round" >
<path d="M168.4226 227.4241 L57.2665 209.8187 L59.7595 213.1572 L62.3391 216.4294 L65.0034 219.6328 L67.7506 222.7655 L70.5789 225.8251
 L73.4863 228.8097 L76.4709 231.7171 L79.5306 234.5454 L82.6632 237.2927 L85.8667 239.957 L89.1388 242.5365 L92.4773 245.0295
 L95.8799 247.4343 L99.3444 249.7491 L102.8682 251.9725 L106.449 254.1028 L110.0844 256.1387 L113.7718 258.0788 L117.5087 259.9216
 L121.2926 261.666 L125.1209 263.3108 L128.9909 264.8548 L132.9 266.2969 L136.8455 267.6362 L140.8247 268.8718 L144.8349 270.0028
 L148.8733 271.0284 L152.9372 271.948 L157.0238 272.7608 L161.1302 273.4665z" fill="rgb(255,215,0)"/>
</g>
<g stroke="rgb(0,0,139)" stroke-width="1.0627" stroke-linejoin="round" >
<path d="M129.9985 227.4241 L209.5774 227.4241 L129.9985 307.0031z" fill="rgb(255,215,0)"/>
</g>
<g stroke="rgb(0,0,139)" stroke-width="1.0627" stroke-linejoin="round" >
<path d="M258.1246 232.0857 L314.3954 175.8149 L201.8538 175.8149z" fill="rgb(255,215,0)"/>
</g>
<g stroke="rgb(0,0,139)" stroke-width="1.0627" stroke-linejoin="round" >
<path d="M211.177 190.1311 L248.8904 162.7307 L256.1828 116.6884 L228.7824 78.975 L225.2462 81.699 L221.8682 84.617 L218.6591 87.7198 L215.6291 90.9977 L212.7877 94.4403
 L210.1437 98.0368 L207.7055 101.7759 L205.4809 105.6458 L203.4767 109.6344 L201.6993 113.729 L200.1543 117.9169 L198.8466 122.1848
 L197.7802 126.5194 L196.9586 130.9069 L196.3842 135.3336 L196.0589 139.7855 L195.9838 144.2486 L196.1591 148.709 L196.5841 153.1525
 L197.2577 157.5651 L198.1776 161.9331 L199.341 166.2426 L200.7441 170.4801 L202.3827 174.6323 L204.2515 178.686 L206.3447 182.6286
 L208.6556 186.4477 L211.177 190.1311z" fill="rgb(255,215,0)"/>
</g>
<g stroke="rgb(0,0,139)" stroke-width="1.0627" stroke-linejoin="round" >
<path d="M269.3788 227.4241 L223.3364 220.1317 L185.6231 247.5321 L178.3307 293.5744 L182.7573 294.1488 L187.2093 294.474 L191.6724 294.5492 L196.1328 294.3739 L200.5763 293.9489
 L204.9889 293.2753 L209.3569 292.3554 L213.6664 291.192 L217.9039 289.7888 L222.0561 288.1503 L226.1098 286.2815 L230.0524 284.1883
 L233.8714 281.8774 L237.5549 279.3559 L241.0912 276.6319 L244.4691 273.714 L247.6782 270.6112 L250.7082 267.3333 L253.5497 263.8907
 L256.1936 260.2942 L258.6318 256.5551 L260.8564 252.6852 L262.8606 248.6966 L264.638 244.602 L266.183 240.4141 L267.4907 236.1462
 L268.5571 231.8116 L269.3788 227.4241z" fill="rgb(255,215,0)"/>
</g>
<g stroke="rgb(0,0,139)" stroke-width="1.0627" stroke-linejoin="round" >
<path d="M258.1246 88.8436 L287.4946 73.8789 L243.1599 59.4737 L228.7546 103.8084z" fill="rgb(255,215,0)"/>
</g>
</svg>
