<?xml version="1.0" encoding="utf-8" standalone="no"?>
<!DOCTYPE svg PUBLIC "-//W3C//DTD SVG 1.1//EN" "http://www.w3.org/TR/2001/REC-SVG-20010904/DTD/svg11.dtd">
<svg width="10cm" height="10cm" viewBox="0 0 378 378" overflow="hidden"
 version="1.1" xmlns="http://www.w3.org/2000/svg"  xmlns:xlink="http://www.w3.org/1999/xlink">
<!--fond  (Utilisateur) -->
<g  stroke-linejoin="round" >
<polygon fill="rgb(0,0,139)" points="0,0,0,378,378,378,378,0"/>
</g>
<!--tangram  (Utilisateur) -->
<g stroke="rgb(0,0,139)" stroke-width="1.0627" stroke-linejoin="round" >
<path d="M163.1419 86.0987 L192.0017 49.4902 L189.0405 47.3387 L185.9196 45.4262 L182.6582 43.7645 L179.2766 42.3637 L175.7954 41.2326
 L172.2362 40.3782 L168.621 39.8056 L164.972 39.5184 L161.3117 39.5184 L157.6627 39.8056z" fill="rgb(255,215,0)"/>
</g>
<g stroke="rgb(0,0,139)" stroke-width="1.0627" stroke-linejoin="round" >
<path d="M154.7012 86.5814 L200.9944 92.0606 L201.2816 88.4116 L201.2816 84.7513 L200.9944 81.1023 L200.4218 77.4871 L199.5673 73.9279
 L198.4362 70.4468 L197.0355 67.0651 L195.3738 63.8037 L193.4613 60.6828 L191.3098 57.7216z" fill="rgb(255,215,0)"/>
</g>
<g stroke="rgb(0,0,139)" stroke-width="1.0627" stroke-linejoin="round" >
<path d="M186.0158 227.1413 L268.6576 150.748 L264.4924 150.6389 L260.3258 150.6389 L256.1606 150.748 L251.9997 150.9661 L247.8459 151.293
 L243.7021 151.7285 L239.5711 152.2724 L235.4558 152.9242 L231.359 153.6835 L227.2834 154.5498 L223.2319 155.5224 L219.2072 156.6008
 L215.2122 157.7842 L211.2495 159.0718 L207.3219 160.4626 L203.432 161.9558 L199.5825 163.5503 L195.7761 165.245 L192.0154 167.0388
 L188.3029 168.9304 L184.6412 170.9186 L181.0328 173.0019 L177.4802 175.1789 L173.9857 177.4482 L170.5519 179.8082 L167.181 182.2573
 L163.8754 184.7938 L160.6374 187.4159 L157.469 190.1219 L154.3726 192.91z" fill="rgb(255,215,0)"/>
</g>
<g stroke="rgb(0,0,139)" stroke-width="1.0627" stroke-linejoin="round" >
<path d="M150.7223 197.4749 L155.1407 85.0201 L152.1183 87.8882 L149.172 90.8344 L146.3039 93.8568 L143.5159 96.9532 L140.8099 100.1215
 L138.1878 103.3596 L135.6513 106.6652 L133.2022 110.0361 L130.8422 113.4699 L128.5729 116.9643 L126.3958 120.517 L124.3125 124.1254
 L122.3244 127.7871 L120.4328 131.4996 L118.639 135.2603 L116.9443 139.0667 L115.3498 142.9162 L113.8566 146.806 L112.4658 150.7337
 L111.1782 154.6964 L109.9948 158.6914 L108.9164 162.7161 L107.9437 166.7676 L107.0774 170.8431 L106.3181 174.94 L105.6663 179.0553
 L105.1225 183.1863 L104.6869 187.3301 L104.36 191.4839 L104.142 195.6448z" fill="rgb(255,215,0)"/>
</g>
<g stroke="rgb(0,0,139)" stroke-width="1.0627" stroke-linejoin="round" >
<path d="M301.371 193.0133 L316.896 114.9634 L223.3211 177.4882z" fill="rgb(255,215,0)"/>
</g>
<g stroke="rgb(0,0,139)" stroke-width="1.0627" stroke-linejoin="round" >
<path d="M189.9947 275.4057 L133.7239 331.6766 L246.2656 331.6766z" fill="rgb(255,215,0)"/>
</g>
<g stroke="rgb(0,0,139)" stroke-width="1.0627" stroke-linejoin="round" >
<path d="M114.3947 199.8057 L160.8673 196.1483 L191.1421 160.701 L187.4847 114.2284 L183.0462 114.7033 L178.6414 115.4263 L174.284 116.3952 L169.9878 117.6068 L165.7663 119.0575
 L161.6328 120.7425 L157.6003 122.6567 L153.6814 124.794 L149.8886 127.1476 L146.2336 129.7102 L142.7282 132.4737 L139.3831 135.4294
 L136.2091 138.568 L133.2161 141.8797 L130.4134 145.3539 L127.81 148.9799 L125.4139 152.7461 L123.2328 156.6407 L121.2735 160.6515
 L119.5422 164.7658 L118.0443 168.9708 L116.7845 173.2531 L115.7668 177.5994 L114.9944 181.9958 L114.4698 186.4286 L114.1945 190.8839
 L114.1695 195.3476 L114.3947 199.8057z" fill="rgb(255,215,0)"/>
</g>
<g stroke="rgb(0,0,139)" stroke-width="1.0627" stroke-linejoin="round" >
<path d="M269.5737 195.8268 L225.239 210.232 L204.0756 251.7674 L218.4809 296.1021 L222.6858 294.6042 L226.8002 292.8729 L230.811 290.9136 L234.7056 288.7325 L238.4718 286.3365
 L242.0977 283.733 L245.572 280.9303 L248.8836 277.9373 L252.0223 274.7633 L254.978 271.4182 L257.7415 267.9128 L260.3041 264.2578
 L262.6577 260.465 L264.795 256.5461 L266.7091 252.5136 L268.3942 248.3801 L269.8448 244.1586 L271.0565 239.8624 L272.0253 235.505
 L272.7483 231.1002 L273.2232 226.6617 L273.4485 222.2036 L273.4235 217.7399 L273.1482 213.2846 L272.6235 208.8518 L271.8511 204.4553
 L270.8335 200.1091 L269.5737 195.8268z" fill="rgb(255,215,0)"/>
</g>
<g stroke="rgb(0,0,139)" stroke-width="1.0627" stroke-linejoin="round" >
<path d="M180.8229 111.055 L205.0282 133.4301 L203.198 86.8497 L156.6177 88.6799z" fill="rgb(255,215,0)"/>
</g>
</svg>
