<?xml version="1.0" encoding="utf-8" standalone="no"?>
<!DOCTYPE svg PUBLIC "-//W3C//DTD SVG 1.1//EN" "http://www.w3.org/TR/2001/REC-SVG-20010904/DTD/svg11.dtd">
<svg width="10cm" height="10cm" viewBox="0 0 378 378" overflow="hidden"
 version="1.1" xmlns="http://www.w3.org/2000/svg"  xmlns:xlink="http://www.w3.org/1999/xlink">
<!--tangram  (Utilisateur) -->
<g stroke="rgb(0,0,139)" stroke-width="1.0627" stroke-linejoin="round" >
<path d="M181.5591 232.7684 L151.2843 197.3211 L148.5965 199.8057 L146.1119 202.4936 L143.8458 205.3681 L141.8122 208.4115 L140.0237 211.6051
 L138.4913 214.9291 L137.2244 218.3632 L136.2309 221.8861 L135.5168 225.476 L135.0866 229.111z" fill="rgb(255,215,0)"/>
</g>
<g stroke="rgb(0,0,139)" stroke-width="1.0627" stroke-linejoin="round" >
<path d="M186.2208 261.0695 L161.8638 300.8164 L165.0574 302.6049 L168.3815 304.1373 L171.8155 305.4042 L175.3384 306.3977 L178.9284 307.1118
 L182.5633 307.542 L186.2208 307.6857 L189.8782 307.542 L193.5132 307.1118 L197.1031 306.3977z" fill="rgb(255,215,0)"/>
</g>
<g stroke="rgb(0,0,139)" stroke-width="1.0627" stroke-linejoin="round" >
<path d="M204.0675 224.8105 L152.9746 124.5352 L156.9201 125.8745 L160.8292 127.3167 L164.6992 128.8606 L168.5275 130.5054 L172.3114 132.2498
 L176.0483 134.0926 L179.7357 136.0327 L183.3711 138.0686 L186.9519 140.1989 L190.4757 142.4223 L193.9402 144.7372 L197.3428 147.1419
 L200.6813 149.6349 L203.9534 152.2144 L207.1569 154.8787 L210.2896 157.626 L213.3492 160.4543 L216.3338 163.3617 L219.2412 166.3463
 L222.0695 169.4059 L224.8168 172.5386 L227.4811 175.742 L230.0606 179.0142 L232.5536 182.3527 L234.9583 185.7553 L237.2732 189.2198
 L239.4966 192.7436 L241.6269 196.3244 L243.6628 199.9598 L245.6029 203.6472z" fill="rgb(255,215,0)"/>
</g>
<g stroke="rgb(0,0,139)" stroke-width="1.0627" stroke-linejoin="round" >
<path d="M158.8166 228.1068 L46.6219 219.2769 L49.3691 222.4095 L52.1974 225.4692 L55.1048 228.4537 L58.0894 231.3612 L61.1491 234.1895
 L64.2817 236.9367 L67.4852 239.601 L70.7573 242.1805 L74.0958 244.6735 L77.4984 247.0783 L80.9629 249.3931 L84.4867 251.6165
 L88.0675 253.7469 L91.7029 255.7828 L95.3903 257.7228 L99.1272 259.5657 L102.9111 261.3101 L106.7394 262.9548 L110.6094 264.4988
 L114.5185 265.9409 L118.464 267.2802 L122.4432 268.5158 L126.4534 269.6468 L130.4918 270.6724 L134.5557 271.592 L138.6422 272.4049
 L142.7487 273.1105 L146.8722 273.7084 L151.0099 274.1981 L155.1591 274.5794z" fill="rgb(255,215,0)"/>
</g>
<g stroke="rgb(0,0,139)" stroke-width="1.0627" stroke-linejoin="round" >
<path d="M139.6045 228.1068 L219.1834 228.1068 L139.6045 307.6857z" fill="rgb(255,215,0)"/>
</g>
<g stroke="rgb(0,0,139)" stroke-width="1.0627" stroke-linejoin="round" >
<path d="M266.7652 230.4376 L297.2187 156.9162 L193.2438 199.9841z" fill="rgb(255,215,0)"/>
</g>
<g stroke="rgb(0,0,139)" stroke-width="1.0627" stroke-linejoin="round" >
<path d="M226.81 186.1522 L262.2573 155.8773 L265.9148 109.4047 L235.64 73.9575 L232.3283 76.9505 L229.1897 80.1245 L226.234 83.4696 L223.4705 86.975 L220.9079 90.63
 L218.5543 94.4228 L216.417 98.3417 L214.5028 102.3742 L212.8178 106.5077 L211.3671 110.7292 L210.1555 115.0254 L209.1866 119.3828
 L208.4636 123.7876 L207.9887 128.2261 L207.7634 132.6842 L207.7885 137.1479 L208.0638 141.6032 L208.5884 146.036 L209.3608 150.4325
 L210.3785 154.7787 L211.6383 159.061 L213.1362 163.266 L214.8675 167.3803 L216.8268 171.3911 L219.0079 175.2857 L221.4039 179.052
 L224.0074 182.6779 L226.81 186.1522z" fill="rgb(255,215,0)"/>
</g>
<g stroke="rgb(0,0,139)" stroke-width="1.0627" stroke-linejoin="round" >
<path d="M272.3922 228.1068 L225.9197 224.4493 L190.4724 254.7242 L186.8149 301.1967 L191.273 301.422 L195.7367 301.397 L200.192 301.1217 L204.6249 300.597 L209.0213 299.8246
 L213.3675 298.807 L217.6499 297.5472 L221.8548 296.0493 L225.9692 294.3179 L229.98 292.3587 L233.8746 290.1776 L237.6408 287.7815
 L241.2668 285.1781 L244.741 282.3754 L248.0527 279.3824 L251.1913 276.2083 L254.147 272.8633 L256.9105 269.3578 L259.4731 265.7029
 L261.8267 261.91 L263.964 257.9912 L265.8781 253.9587 L267.5632 249.8251 L269.0138 245.6036 L270.2255 241.3075 L271.1943 236.9501
 L271.9174 232.5452 L272.3922 228.1068z" fill="rgb(255,215,0)"/>
</g>
<g stroke="rgb(0,0,139)" stroke-width="1.0627" stroke-linejoin="round" >
<path d="M266.7652 79.2376 L298.8171 71.5426 L259.0702 47.1857 L234.7132 86.9326z" fill="rgb(255,215,0)"/>
</g>
</svg>
