<?xml version="1.0" encoding="utf-8" standalone="no"?>
<!DOCTYPE svg PUBLIC "-//W3C//DTD SVG 1.1//EN" "http://www.w3.org/TR/2001/REC-SVG-20010904/DTD/svg11.dtd">
<svg width="10cm" height="10cm" viewBox="0 0 378 378" overflow="hidden"
 version="1.1" xmlns="http://www.w3.org/2000/svg"  xmlns:xlink="http://www.w3.org/1999/xlink">
<!--tangram  (Utilisateur) -->
<g stroke="rgb(0,0,139)" stroke-width="1.0627" stroke-linejoin="round" >
<path d="M186.5864 226.3758 L168.7471 183.308 L165.423 184.8404 L162.2294 186.6289 L159.186 188.6625 L156.3115 190.9285 L153.6237 193.4132
 L151.1391 196.101 L148.873 198.9755 L146.8395 202.0189 L145.051 205.2125 L143.5185 208.5366z" fill="rgb(255,215,0)"/>
</g>
<g stroke="rgb(0,0,139)" stroke-width="1.0627" stroke-linejoin="round" >
<path d="M198.2404 239.4438 L189.146 285.1643 L192.7613 285.7369 L196.4103 286.0241 L200.0706 286.0241 L203.7196 285.7369 L207.3348 285.1643
 L210.894 284.3099 L214.3751 283.1788 L217.7568 281.778 L221.0181 280.1163 L224.139 278.2038z" fill="rgb(255,215,0)"/>
</g>
<g stroke="rgb(0,0,139)" stroke-width="1.0627" stroke-linejoin="round" >
<path d="M198.2404 214.7218 L220.1962 104.3426 L216.7624 106.7026 L213.3915 109.1517 L210.0859 111.6882 L206.8478 114.3103 L203.6795 117.0163
 L200.5831 119.8043 L197.5607 122.6724 L194.6145 125.6187 L191.7464 128.6411 L188.9584 131.7375 L186.2524 134.9058 L183.6302 138.1439
 L181.0937 141.4495 L178.6447 144.8203 L176.2846 148.2542 L174.0153 151.7486 L171.8383 155.3012 L169.755 158.9096 L167.7668 162.5713
 L165.8752 166.2838 L164.0814 170.0446 L162.3867 173.851 L160.7922 177.7004 L159.299 181.5903 L157.9082 185.5179 L156.6206 189.4806
 L155.4373 193.4757 L154.3589 197.5003 L153.3862 201.5518 L152.5199 205.6274z" fill="rgb(255,215,0)"/>
</g>
<g stroke="rgb(0,0,139)" stroke-width="1.0627" stroke-linejoin="round" >
<path d="M171.5189 206.4811 L91.94 126.9022 L91.9945 131.0684 L92.1581 135.2318 L92.4306 139.3895 L92.8118 143.5387 L93.3016 147.6764
 L93.8994 151.7999 L94.6051 155.9064 L95.4179 159.9929 L96.3375 164.0568 L97.3631 168.0952 L98.4941 172.1054 L99.7297 176.0846
 L101.069 180.0302 L102.5112 183.9392 L104.0551 187.8092 L105.6999 191.6375 L107.4443 195.4214 L109.2871 199.1583 L111.2272 202.8457
 L113.2631 206.4811 L115.3934 210.0619 L117.6168 213.5858 L119.9317 217.0502 L122.3364 220.4528 L124.8294 223.7913 L127.4089 227.0635
 L130.0732 230.2669 L132.8205 233.3996 L135.6488 236.4592 L138.5562 239.4438z" fill="rgb(255,215,0)"/>
</g>
<g stroke="rgb(0,0,139)" stroke-width="1.0627" stroke-linejoin="round" >
<path d="M149.2105 228.7895 L227.2604 244.3146 L164.7356 150.7396z" fill="rgb(255,215,0)"/>
</g>
<g stroke="rgb(0,0,139)" stroke-width="1.0627" stroke-linejoin="round" >
<path d="M243.8569 228.7895 L310.0244 184.5778 L199.6452 162.622z" fill="rgb(255,215,0)"/>
</g>
<g stroke="rgb(0,0,139)" stroke-width="1.0627" stroke-linejoin="round" >
<path d="M233.2026 179.7596 L266.1653 146.7969 L266.1653 100.1806 L233.2026 67.2179 L230.136 70.4616 L227.2561 73.8721 L224.572 77.4387 L222.092 81.1502 L219.8241 84.9949
 L217.7753 88.9607 L215.9521 93.0352 L214.3602 97.2055 L213.0047 101.4585 L211.8897 105.7808 L211.0189 110.1588 L210.3949 114.5787
 L210.0197 119.0267 L209.8945 123.4888 L210.0197 127.9508 L210.3949 132.3988 L211.0189 136.8187 L211.8897 141.1967 L213.0047 145.519
 L214.3602 149.772 L215.9521 153.9423 L217.7753 158.0168 L219.8241 161.9826 L222.092 165.8273 L224.572 169.5388 L227.2561 173.1054
 L230.136 176.5159 L233.2026 179.7596z" fill="rgb(255,215,0)"/>
</g>
<g stroke="rgb(0,0,139)" stroke-width="1.0627" stroke-linejoin="round" >
<path d="M226.3758 234.6165 L193.4132 201.6538 L146.7969 201.6538 L113.8342 234.6165 L117.0779 237.6831 L120.4884 240.563 L124.055 243.2472 L127.7665 245.7271 L131.6112 247.9951
 L135.577 250.0438 L139.6515 251.8671 L143.8218 253.4589 L148.0747 254.8145 L152.397 255.9294 L156.7751 256.8003 L161.195 257.4243
 L165.643 257.7994 L170.105 257.9246 L174.5671 257.7994 L179.015 257.4243 L183.435 256.8003 L187.813 255.9294 L192.1353 254.8145
 L196.3883 253.4589 L200.5586 251.8671 L204.633 250.0438 L208.5989 247.9951 L212.4436 245.7271 L216.1551 243.2472 L219.7217 240.563
 L223.1322 237.6831 L226.3758 234.6165z" fill="rgb(255,215,0)"/>
</g>
<g stroke="rgb(0,0,139)" stroke-width="1.0627" stroke-linejoin="round" >
<path d="M229.7892 115.2481 L262.7519 115.2481 L229.7892 148.2108 L196.8266 115.2481z" fill="rgb(255,215,0)"/>
</g>
</svg>
