<?xml version="1.0" encoding="utf-8" standalone="no"?>
<!DOCTYPE svg PUBLIC "-//W3C//DTD SVG 1.1//EN" "http://www.w3.org/TR/2001/REC-SVG-20010904/DTD/svg11.dtd">
<svg width="10cm" height="10cm" viewBox="0 0 378 378" overflow="hidden"
 version="1.1" xmlns="http://www.w3.org/2000/svg"  xmlns:xlink="http://www.w3.org/1999/xlink">
<!--tangram  (Utilisateur) -->
<g stroke="rgb(0,0,139)" stroke-width="1.0627" stroke-linejoin="round" >
<path d="M173.9325 184.1727 L206.8952 151.21 L204.2074 148.7254 L201.3329 146.4594 L198.2895 144.4258 L195.0959 142.6373 L191.7718 141.1049
 L188.3378 139.838 L184.8149 138.8445 L181.2249 138.1304 L177.59 137.7002 L173.9325 137.5565z" fill="rgb(255,215,0)"/>
</g>
<g stroke="rgb(0,0,139)" stroke-width="1.0627" stroke-linejoin="round" >
<path d="M197.2407 160.8646 L230.2033 127.9019 L227.5155 125.4173 L224.641 123.1512 L221.5976 121.1177 L218.404 119.3292 L215.0799 117.7968
 L211.6459 116.5299 L208.123 115.5363 L204.5331 114.8222 L200.8981 114.392 L197.2407 114.2483z" fill="rgb(255,215,0)"/>
</g>
<g stroke="rgb(0,0,139)" stroke-width="1.0627" stroke-linejoin="round" >
<path d="M197.2407 160.8646 L240.3085 264.8395 L241.8525 260.9695 L243.2946 257.0604 L244.6339 253.1149 L245.8695 249.1357 L247.0005 245.1255
 L248.0261 241.0871 L248.9457 237.0232 L249.7585 232.9366 L250.4642 228.8302 L251.062 224.7067 L251.5518 220.5689 L251.933 216.4198
 L252.2055 212.2621 L252.3691 208.0987 L252.4237 203.9324 L252.3691 199.7661 L252.2055 195.6027 L251.933 191.445 L251.5518 187.2959
 L251.062 183.1581 L250.4642 179.0346 L249.7585 174.9282 L248.9457 170.8416 L248.0261 166.7777 L247.0005 162.7393 L245.8695 158.7291
 L244.6339 154.7499 L243.2946 150.8044 L241.8525 146.8953 L240.3085 143.0253z" fill="rgb(255,215,0)"/>
</g>
<g stroke="rgb(0,0,139)" stroke-width="1.0627" stroke-linejoin="round" >
<path d="M213.722 144.3833 L256.7898 248.3582 L258.3338 244.4882 L259.7759 240.5791 L261.1153 236.6336 L262.3508 232.6544 L263.4818 228.6442
 L264.5075 224.6057 L265.427 220.5419 L266.2399 216.4553 L266.9455 212.3488 L267.5434 208.2253 L268.0331 204.0876 L268.4144 199.9385
 L268.6869 195.7808 L268.8505 191.6173 L268.905 187.4511 L268.8505 183.2848 L268.6869 179.1214 L268.4144 174.9637 L268.0331 170.8145
 L267.5434 166.6768 L266.9455 162.5533 L266.2399 158.4468 L265.427 154.3603 L264.5075 150.2964 L263.4818 146.258 L262.3508 142.2478
 L261.1153 138.2686 L259.7759 134.3231 L258.3338 130.414 L256.7898 126.544z" fill="rgb(255,215,0)"/>
</g>
<g stroke="rgb(0,0,139)" stroke-width="1.0627" stroke-linejoin="round" >
<path d="M169.1053 228.7895 L242.6266 259.243 L199.5588 155.2681z" fill="rgb(255,215,0)"/>
</g>
<g stroke="rgb(0,0,139)" stroke-width="1.0627" stroke-linejoin="round" >
<path d="M169.1053 228.7895 L242.6266 259.243 L199.5588 155.2681z" fill="rgb(255,215,0)"/>
</g>
<g stroke="rgb(0,0,139)" stroke-width="1.0627" stroke-linejoin="round" >
<path d="M157.4512 200.6541 L200.519 182.8148 L218.3583 139.747 L200.519 96.6792 L196.4445 98.5024 L192.4787 100.5512 L188.634 102.8191 L184.9225 105.299 L181.3559 107.9832
 L177.9454 110.8631 L174.7017 113.9297 L171.6351 117.1734 L168.7552 120.5839 L166.0711 124.1505 L163.5911 127.862 L161.3232 131.7067
 L159.2744 135.6725 L157.4512 139.747 L155.8593 143.9173 L154.5038 148.1702 L153.3888 152.4925 L152.518 156.8706 L151.894 161.2905
 L151.5188 165.7385 L151.3936 170.2005 L151.5188 174.6625 L151.894 179.1105 L152.518 183.5305 L153.3888 187.9085 L154.5038 192.2308
 L155.8593 196.4838 L157.4512 200.6541z" fill="rgb(255,215,0)"/>
</g>
<g stroke="rgb(0,0,139)" stroke-width="1.0627" stroke-linejoin="round" >
<path d="M173.9325 240.4435 L173.9325 287.0598 L206.8952 320.0225 L253.5115 320.0225 L253.3863 315.5605 L253.0111 311.1125 L252.3871 306.6925 L251.5163 302.3145 L250.4013 297.9922
 L249.0458 293.7392 L247.4539 289.5689 L245.6307 285.4945 L243.5819 281.5286 L241.314 277.6839 L238.834 273.9724 L236.1499 270.4058
 L233.27 266.9953 L230.2033 263.7517 L226.9597 260.6851 L223.5492 257.8052 L219.9826 255.121 L216.2711 252.6411 L212.4264 250.3731
 L208.4605 248.3243 L204.3861 246.5011 L200.2158 244.9092 L195.9628 243.5537 L191.6405 242.4388 L187.2625 241.5679 L182.8426 240.9439
 L178.3946 240.5687 L173.9325 240.4435z" fill="rgb(255,215,0)"/>
</g>
<g stroke="rgb(0,0,139)" stroke-width="1.0627" stroke-linejoin="round" >
<path d="M140.9699 240.4435 L173.9325 240.4435 L140.9699 273.4062 L108.0072 240.4435z" fill="rgb(255,215,0)"/>
</g>
</svg>
