<?xml version="1.0" encoding="utf-8" standalone="no"?>
<!DOCTYPE svg PUBLIC "-//W3C//DTD SVG 1.1//EN" "http://www.w3.org/TR/2001/REC-SVG-20010904/DTD/svg11.dtd">
<svg width="10cm" height="10cm" viewBox="0 0 378 378" overflow="hidden"
 version="1.1" xmlns="http://www.w3.org/2000/svg"  xmlns:xlink="http://www.w3.org/1999/xlink">
<!--tangram  (Utilisateur) -->
<g stroke="rgb(0,0,139)" stroke-width="1.0627" stroke-linejoin="round" >
<path d="M205.7691 102.98 L203.939 56.3996 L200.29 56.6868 L196.6748 57.2594 L193.1156 58.1139 L189.6345 59.245 L186.2528 60.6457
 L182.9914 62.3074 L179.8705 64.2199 L176.9093 66.3714 L174.126 68.7486 L171.5378 71.3368z" fill="rgb(255,215,0)"/>
</g>
<g stroke="rgb(0,0,139)" stroke-width="1.0627" stroke-linejoin="round" >
<path d="M146.6848 106.359 L178.3279 140.5904 L180.9162 138.0022 L183.2933 135.2189 L185.4448 132.2577 L187.3573 129.1367 L189.019 125.8754
 L190.4198 122.4937 L191.5509 119.0126 L192.4053 115.4534 L192.9779 111.8382 L193.2651 108.1892z" fill="rgb(255,215,0)"/>
</g>
<g stroke="rgb(0,0,139)" stroke-width="1.0627" stroke-linejoin="round" >
<path d="M168.1105 217.2525 L266.3026 162.2623 L262.278 161.1839 L258.2265 160.2112 L254.1509 159.3449 L250.0541 158.5856 L245.9387 157.9338
 L241.8078 157.39 L237.664 156.9544 L233.5102 156.6275 L229.3493 156.4095 L225.1841 156.3004 L221.0174 156.3004 L216.8522 156.4095
 L212.6913 156.6275 L208.5376 156.9544 L204.3938 157.39 L200.2628 157.9338 L196.1474 158.5856 L192.0506 159.3449 L187.975 160.2112
 L183.9235 161.1839 L179.8989 162.2623 L175.9038 163.4457 L171.9411 164.7332 L168.0135 166.1241 L164.1236 167.6173 L160.2742 169.2118
 L156.4678 170.9065 L152.707 172.7003 L148.9945 174.5919 L145.3328 176.58z" fill="rgb(255,215,0)"/>
</g>
<g stroke="rgb(0,0,139)" stroke-width="1.0627" stroke-linejoin="round" >
<path d="M118.8322 207.3637 L149.3805 99.0475 L145.7721 101.1308 L142.2195 103.3078 L138.725 105.5771 L135.2912 107.9371 L131.9203 110.3862
 L128.6147 112.9227 L125.3767 115.5448 L122.2083 118.2508 L119.1119 121.0389 L116.0896 123.907 L113.1433 126.8532 L110.2752 129.8756
 L107.4872 132.972 L104.7812 136.1403 L102.159 139.3784 L99.6226 142.684 L97.1735 146.0549 L94.8135 149.4887 L92.5442 152.9831
 L90.3671 156.5358 L88.2838 160.1442 L86.2957 163.8059 L84.4041 167.5183 L82.6103 171.2791 L80.9156 175.0855 L79.3211 178.9349
 L77.8279 182.8248 L76.437 186.7525 L75.1495 190.7151 L73.9661 194.7102z" fill="rgb(255,215,0)"/>
</g>
<g stroke="rgb(0,0,139)" stroke-width="1.0627" stroke-linejoin="round" >
<clipPath id="Clip1">
<rect x="0" y="0" width="10cm" height="10cm"/>
</clipPath>
<path d="M300.3469 176.132 L378.3968 160.6069 L284.8219 98.0821z" fill="rgb(255,215,0)" clip-path="url(#Clip1)"/>
</g>
<g stroke="rgb(0,0,139)" stroke-width="1.0627" stroke-linejoin="round" >
<path d="M195.9632 275.4057 L139.6923 331.6766 L252.234 331.6766z" fill="rgb(255,215,0)"/>
</g>
<g stroke="rgb(0,0,139)" stroke-width="1.0627" stroke-linejoin="round" >
<path d="M144.2368 223.6794 L183.9837 199.3225 L194.8661 153.9942 L170.5092 114.2473 L166.7701 116.6855 L163.1736 119.3294 L159.731 122.1709 L156.4531 125.2009 L153.3503 128.41
 L150.4323 131.7879 L147.7083 135.3242 L145.1869 139.0077 L142.876 142.8267 L140.7828 146.7693 L138.914 150.823 L137.2754 154.9752
 L135.8722 159.2127 L134.7089 163.5222 L133.789 167.8902 L133.1154 172.3028 L132.6904 176.7463 L132.5151 181.2067 L132.5902 185.6698
 L132.9155 190.1218 L133.4899 194.5484 L134.3115 198.9359 L135.3779 203.2705 L136.6856 207.5384 L138.2306 211.7263 L140.008 215.8209
 L142.0122 219.8095 L144.2368 223.6794z" fill="rgb(255,215,0)"/>
</g>
<g stroke="rgb(0,0,139)" stroke-width="1.0627" stroke-linejoin="round" >
<path d="M275.5421 195.8268 L302.9425 233.5401 L348.9848 240.8325 L386.6982 213.4322 L383.9742 209.8959 L381.0562 206.5179 L377.9534 203.3089 L374.6755 200.2789 L371.2329 197.4374
 L367.6364 194.7935 L363.8973 192.3553 L360.0274 190.1306 L356.0388 188.1265 L351.9442 186.3491 L347.7563 184.8041 L343.4884 183.4964
 L339.1538 182.43 L334.7663 181.6083 L330.3397 181.034 L325.8877 180.7087 L321.4246 180.6336 L316.9642 180.8088 L312.5207 181.2339
 L308.1081 181.9074 L303.7401 182.8273 L299.4306 183.9907 L295.1931 185.3939 L291.0409 187.0325 L286.9872 188.9013 L283.0446 190.9944
 L279.2255 193.3054 L275.5421 195.8268z" fill="rgb(255,215,0)" clip-path="url(#Clip1)"/>
</g>
<g stroke="rgb(0,0,139)" stroke-width="1.0627" stroke-linejoin="round" >
<path d="M189.6877 137.825 L218.4475 153.9313 L205.794 109.0652 L160.9279 121.7188z" fill="rgb(255,215,0)"/>
</g>
</svg>
