<?xml version="1.0" encoding="utf-8" standalone="no"?>
<!DOCTYPE svg PUBLIC "-//W3C//DTD SVG 1.1//EN" "http://www.w3.org/TR/2001/REC-SVG-20010904/DTD/svg11.dtd">
<svg width="10cm" height="10cm" viewBox="0 0 378 378" overflow="hidden"
 version="1.1" xmlns="http://www.w3.org/2000/svg"  xmlns:xlink="http://www.w3.org/1999/xlink">
<!--tangram  (Utilisateur) -->
<g stroke="rgb(0,0,139)" stroke-width="1.0627" stroke-linejoin="round" >
<path d="M88.8194 258.6316 L79.725 212.911 L76.1658 213.7655 L72.6847 214.8966 L69.303 216.2973 L66.0417 217.9591 L62.9208 219.8716
 L59.9595 222.023 L57.1762 224.4002 L54.588 226.9884 L52.2108 229.7717 L50.0594 232.733z" fill="rgb(255,215,0)"/>
</g>
<g stroke="rgb(0,0,139)" stroke-width="1.0627" stroke-linejoin="round" >
<path d="M123.7816 256.6321 L162.5416 282.5307 L164.4541 279.4098 L166.1158 276.1484 L167.5166 272.7667 L168.6477 269.2856 L169.5021 265.7264
 L170.0747 262.1112 L170.3619 258.4622 L170.3619 254.8019 L170.0747 251.1529 L169.5021 247.5377z" fill="rgb(255,215,0)"/>
</g>
<g stroke="rgb(0,0,139)" stroke-width="1.0627" stroke-linejoin="round" >
<path d="M257.6318 198.9474 L370.1734 198.9474 A159.1579,159.1579 0 0,1 257.6318,245.5636z" fill="rgb(255,215,0)"/>
</g>
<g stroke="rgb(0,0,139)" stroke-width="1.0627" stroke-linejoin="round" >
<path d="M221.2557 223.6694 L127.6808 161.1446 L128.5471 165.2202 L129.5198 169.2717 L130.5982 173.2963 L131.7816 177.2914 L133.0691 181.2541
 L134.46 185.1817 L135.9531 189.0716 L137.5476 192.921 L139.2424 196.7274 L141.0361 200.4882 L142.9278 204.2007 L144.9159 207.8624
 L146.9992 211.4708 L149.1763 215.0234 L151.4456 218.5178 L153.8056 221.9516 L156.2546 225.3225 L158.7911 228.6281 L161.4133 231.8662
 L164.1193 235.0345 L166.9073 238.1309 L169.7754 241.1533 L172.7217 244.0995 L175.744 246.9677 L178.8404 249.7557 L182.0088 252.4617
 L185.2468 255.0838 L188.5524 257.6203 L191.9233 260.0694 L195.3571 262.4294z" fill="rgb(255,215,0)"/>
</g>
<g stroke="rgb(0,0,139)" stroke-width="1.0627" stroke-linejoin="round" >
<path d="M77.1653 223.6694 L156.7443 223.6694 L77.1653 303.2483z" fill="rgb(255,215,0)"/>
</g>
<g stroke="rgb(0,0,139)" stroke-width="1.0627" stroke-linejoin="round" >
<path d="M210.6014 241.1505 L226.1265 319.2003 L288.6513 225.6254z" fill="rgb(255,215,0)"/>
</g>
<g stroke="rgb(0,0,139)" stroke-width="1.0627" stroke-linejoin="round" >
<path d="M125.1955 212.0153 L170.916 202.9209 L196.8146 164.1609 L187.7202 118.4404 L183.3684 119.4337 L179.079 120.6694 L174.8657 122.1437 L170.7418 123.8519 L166.72 125.7887
 L162.8132 127.9479 L159.0336 130.3228 L155.3931 132.9058 L151.9032 135.6889 L148.5748 138.6634 L145.4185 141.8197 L142.444 145.1481
 L139.6609 148.638 L137.0778 152.2785 L134.703 156.0581 L132.5437 159.9649 L130.607 163.9867 L128.8988 168.1107 L127.4245 172.324
 L126.1887 176.6133 L125.1955 180.9651 L124.4477 185.3659 L123.948 189.8016 L123.6977 194.2583 L123.6977 198.7221 L123.948 203.1789
 L124.4477 207.6146 L125.1955 212.0153z" fill="rgb(255,215,0)"/>
</g>
<g stroke="rgb(0,0,139)" stroke-width="1.0627" stroke-linejoin="round" >
<path d="M252.8045 223.6694 L214.0445 197.7708 L168.324 206.8651 L142.4254 245.6252 L146.205 248 L150.1118 250.1593 L154.1335 252.096 L158.2575 253.8042 L162.4708 255.2785
 L166.7601 256.5143 L171.112 257.5075 L175.5127 258.2553 L179.9484 258.755 L184.4052 259.0053 L188.869 259.0053 L193.3257 258.755
 L197.7614 258.2553 L202.1622 257.5075 L206.514 256.5143 L210.8033 255.2785 L215.0166 253.8042 L219.1406 252.096 L223.1624 250.1593
 L227.0692 248 L230.8488 245.6252 L234.4893 243.0421 L237.9792 240.259 L241.3076 237.2845 L244.4639 234.1282 L247.4384 230.7998
 L250.2215 227.3099 L252.8045 223.6694z" fill="rgb(255,215,0)"/>
</g>
<g stroke="rgb(0,0,139)" stroke-width="1.0627" stroke-linejoin="round" >
<path d="M210.6014 141.6768 L204.1707 109.3475 L178.2721 148.1075 L217.0321 174.0061z" fill="rgb(255,215,0)"/>
</g>
</svg>
