<?xml version="1.0" encoding="utf-8" standalone="no"?>
<!DOCTYPE svg PUBLIC "-//W3C//DTD SVG 1.1//EN" "http://www.w3.org/TR/2001/REC-SVG-20010904/DTD/svg11.dtd">
<svg width="10cm" height="10cm" viewBox="0 0 378 378" overflow="hidden"
 version="1.1" xmlns="http://www.w3.org/2000/svg"  xmlns:xlink="http://www.w3.org/1999/xlink">
<!--fond  (Utilisateur) -->
<g  stroke-linejoin="round" >
<polygon fill="rgb(0,0,139)" points="0,0,0,378,378,378,378,0"/>
</g>
<!--tangram  (Utilisateur) -->
<g stroke="rgb(0,0,139)" stroke-width="1.0627" stroke-linejoin="round" >
<path d="M252.4289 173.3185 L266.8341 128.9838 L263.3113 127.9902 L259.7213 127.2761 L256.0864 126.8459 L252.4289 126.7022 L248.7714 126.8459
 L245.1365 127.2761 L241.5465 127.9902 L238.0237 128.9838 L234.5896 130.2507 L231.2656 131.7831z" fill="rgb(255,215,0)"/>
</g>
<g stroke="rgb(0,0,139)" stroke-width="1.0627" stroke-linejoin="round" >
<path d="M184.9039 109.6553 L212.3043 71.942 L209.2609 69.9084 L206.0673 68.1199 L202.7432 66.5875 L199.3091 65.3206 L195.7863 64.3271
 L192.1963 63.613 L188.5614 63.1827 L184.9039 63.039 L181.2465 63.1827 L177.6115 63.613z" fill="rgb(255,215,0)"/>
</g>
<g stroke="rgb(0,0,139)" stroke-width="1.0627" stroke-linejoin="round" >
<path d="M204.6815 176.0492 L222.2869 64.8931 L218.9484 67.3861 L215.6763 69.9657 L212.4728 72.63 L209.3402 75.3772 L206.2805 78.2055
 L203.296 81.1129 L200.3885 84.0975 L197.5602 87.1572 L194.813 90.2898 L192.1487 93.4933 L189.5691 96.7654 L187.0761 100.1039
 L184.6714 103.5066 L182.3565 106.971 L180.1332 110.4948 L178.0028 114.0756 L175.9669 117.711 L174.0269 121.3984 L172.184 125.1353
 L170.4396 128.9192 L168.7949 132.7475 L167.2509 136.6175 L165.8087 140.5266 L164.4694 144.4721 L163.2339 148.4513 L162.1029 152.4615
 L161.0772 156.4999 L160.1577 160.5638 L159.3448 164.6504 L158.6392 168.7568z" fill="rgb(255,215,0)"/>
</g>
<g stroke="rgb(0,0,139)" stroke-width="1.0627" stroke-linejoin="round" >
<path d="M133.2947 228.7895 L67.1444 137.7414 L66.5465 141.8649 L66.0568 146.0026 L65.6756 150.1518 L65.4031 154.3095 L65.2395 158.4729
 L65.1849 162.6392 L65.2395 166.8054 L65.4031 170.9688 L65.6756 175.1265 L66.0568 179.2757 L66.5465 183.4134 L67.1444 187.5369
 L67.85 191.6434 L68.6629 195.73 L69.5825 199.7938 L70.6081 203.8323 L71.7391 207.8424 L72.9747 211.8217 L74.314 215.7672
 L75.7561 219.6763 L77.3001 223.5463 L78.9449 227.3745 L80.6893 231.1584 L82.5321 234.8953 L84.4721 238.5827 L86.508 242.2181
 L88.6384 245.7989 L90.8618 249.3228 L93.1766 252.7872 L95.5814 256.1898z" fill="rgb(255,215,0)"/>
</g>
<g stroke="rgb(0,0,139)" stroke-width="1.0627" stroke-linejoin="round" >
<path d="M258.2216 139.556 L329.127 175.6841 L294.3497 68.6506z" fill="rgb(255,215,0)"/>
</g>
<g stroke="rgb(0,0,139)" stroke-width="1.0627" stroke-linejoin="round" >
<path d="M196.9579 275.4057 L140.6871 331.6766 L253.2287 331.6766z" fill="rgb(255,215,0)"/>
</g>
<g stroke="rgb(0,0,139)" stroke-width="1.0627" stroke-linejoin="round" >
<path d="M244.7053 227.6584 L206.9919 200.258 L160.9496 207.5504 L133.5492 245.2638 L137.2327 247.7852 L141.0517 250.0961 L144.9943 252.1893 L149.048 254.0581 L153.2002 255.6967
 L157.4377 257.0998 L161.7472 258.2632 L166.1152 259.1831 L170.5278 259.8567 L174.9713 260.2817 L179.4317 260.457 L183.8948 260.3819
 L188.3468 260.0566 L192.7734 259.4822 L197.1609 258.6606 L201.4955 257.5942 L205.7634 256.2864 L209.9513 254.7415 L214.0459 252.9641
 L218.0345 250.9599 L221.9044 248.7352 L225.6435 246.2971 L229.24 243.6531 L232.6826 240.8117 L235.9605 237.7817 L239.0633 234.5726
 L241.9813 231.1946 L244.7053 227.6584z" fill="rgb(255,215,0)"/>
</g>
<g stroke="rgb(0,0,139)" stroke-width="1.0627" stroke-linejoin="round" >
<path d="M181.0421 195.8268 L214.0048 162.8641 L214.0048 116.2478 L181.0421 83.2852 L177.9755 86.5288 L175.0956 89.9393 L172.4114 93.5059 L169.9315 97.2174 L167.6636 101.0621
 L165.6148 105.028 L163.7916 109.1024 L162.1997 113.2727 L160.8441 117.5257 L159.7292 121.848 L158.8583 126.226 L158.2343 130.646
 L157.8592 135.094 L157.734 139.556 L157.8592 144.018 L158.2343 148.466 L158.8583 152.886 L159.7292 157.264 L160.8441 161.5863
 L162.1997 165.8392 L163.7916 170.0095 L165.6148 174.084 L167.6636 178.0498 L169.9315 181.8945 L172.4114 185.606 L175.0956 189.1726
 L177.9755 192.5831 L181.0421 195.8268z" fill="rgb(255,215,0)"/>
</g>
<g stroke="rgb(0,0,139)" stroke-width="1.0627" stroke-linejoin="round" >
<path d="M149.2105 215.6044 L182.1732 215.6044 L149.2105 182.6417 L116.2478 215.6044z" fill="rgb(255,215,0)"/>
</g>
</svg>
