<?xml version="1.0" encoding="utf-8" standalone="no"?>
<!DOCTYPE svg PUBLIC "-//W3C//DTD SVG 1.1//EN" "http://www.w3.org/TR/2001/REC-SVG-20010904/DTD/svg11.dtd">
<svg width="10cm" height="10cm" viewBox="0 0 378 378" overflow="hidden"
 version="1.1" xmlns="http://www.w3.org/2000/svg"  xmlns:xlink="http://www.w3.org/1999/xlink">
<!--fond  (Utilisateur) -->
<g  stroke-linejoin="round" >
<polygon fill="rgb(0,0,139)" points="0,0,0,378,378,378,378,0"/>
</g>
<!--tangram  (Utilisateur) -->
<g stroke="rgb(0,0,139)" stroke-width="1.0627" stroke-linejoin="round" >
<path d="M260.0455 167.6914 L260.0455 121.0751 L256.388 121.2188 L252.7531 121.649 L249.1631 122.3631 L245.6402 123.3567 L242.2062 124.6236
 L238.8821 126.156 L235.6885 127.9445 L232.6451 129.978 L229.7706 132.2441 L227.0828 134.7287z" fill="rgb(255,215,0)"/>
</g>
<g stroke="rgb(0,0,139)" stroke-width="1.0627" stroke-linejoin="round" >
<path d="M175.6392 116.2478 L218.7071 98.4086 L217.1746 95.0845 L215.3861 91.8909 L213.3526 88.8475 L211.0865 85.973 L208.6019 83.2852
 L205.9141 80.8006 L203.0396 78.5345 L199.9962 76.5009 L196.8026 74.7124 L193.4785 73.18z" fill="rgb(255,215,0)"/>
</g>
<g stroke="rgb(0,0,139)" stroke-width="1.0627" stroke-linejoin="round" >
<path d="M192.1206 179.3455 L235.1884 75.3705 L231.3601 77.0153 L227.5762 78.7597 L223.8393 80.6025 L220.1519 82.5426 L216.5165 84.5785
 L212.9357 86.7089 L209.4119 88.9322 L205.9475 91.2471 L202.5448 93.6518 L199.2063 96.1448 L195.9342 98.7244 L192.7307 101.3887
 L189.5981 104.1359 L186.5384 106.9642 L183.5539 109.8716 L180.6464 112.8562 L177.8181 115.9159 L175.0709 119.0485 L172.4066 122.252
 L169.827 125.5241 L167.334 128.8626 L164.9293 132.2652 L162.6144 135.7297 L160.3911 139.2535 L158.2607 142.8343 L156.2248 146.4697
 L154.2848 150.1571 L152.4419 153.894 L150.6975 157.6779 L149.0528 161.5062z" fill="rgb(255,215,0)"/>
</g>
<g stroke="rgb(0,0,139)" stroke-width="1.0627" stroke-linejoin="round" >
<path d="M119.3684 228.7895 L76.3006 124.8146 L74.7566 128.6846 L73.3145 132.5937 L71.9752 136.5392 L70.7396 140.5184 L69.6086 144.5286
 L68.583 148.567 L67.6634 152.6309 L66.8505 156.7174 L66.1449 160.8239 L65.547 164.9474 L65.0573 169.0851 L64.6761 173.2343
 L64.4036 177.392 L64.24 181.5554 L64.1854 185.7217 L64.24 189.8879 L64.4036 194.0513 L64.6761 198.209 L65.0573 202.3582
 L65.547 206.4959 L66.1449 210.6194 L66.8505 214.7259 L67.6634 218.8124 L68.583 222.8763 L69.6086 226.9148 L70.7396 230.9249
 L71.9752 234.9042 L73.3145 238.8497 L74.7566 242.7587 L76.3006 246.6287z" fill="rgb(255,215,0)"/>
</g>
<g stroke="rgb(0,0,139)" stroke-width="1.0627" stroke-linejoin="round" >
<path d="M264.8727 139.556 L321.1435 195.8268 L321.1435 83.2852z" fill="rgb(255,215,0)"/>
</g>
<g stroke="rgb(0,0,139)" stroke-width="1.0627" stroke-linejoin="round" >
<path d="M198.9474 275.4057 L142.6766 331.6766 L255.2182 331.6766z" fill="rgb(255,215,0)"/>
</g>
<g stroke="rgb(0,0,139)" stroke-width="1.0627" stroke-linejoin="round" >
<path d="M238.7368 235.6163 L205.7742 202.6536 L159.1579 202.6536 L126.1952 235.6163 L129.4389 238.6829 L132.8494 241.5628 L136.416 244.2469 L140.1275 246.7269 L143.9722 248.9948
 L147.938 251.0436 L152.0125 252.8668 L156.1828 254.4587 L160.4358 255.8142 L164.758 256.9292 L169.1361 257.8 L173.556 258.424
 L178.004 258.7992 L182.466 258.9244 L186.9281 258.7992 L191.376 258.424 L195.796 257.8 L200.174 256.9292 L204.4963 255.8142
 L208.7493 254.4587 L212.9196 252.8668 L216.994 251.0436 L220.9599 248.9948 L224.8046 246.7269 L228.5161 244.2469 L232.0827 241.5628
 L235.4932 238.6829 L238.7368 235.6163z" fill="rgb(255,215,0)"/>
</g>
<g stroke="rgb(0,0,139)" stroke-width="1.0627" stroke-linejoin="round" >
<path d="M198.9474 195.8268 L216.7866 152.759 L198.9474 109.6912 L155.8796 91.8519 L154.2877 96.0222 L152.9321 100.2752 L151.8172 104.5975 L150.9463 108.9755 L150.3223 113.3954
 L149.9472 117.8434 L149.822 122.3054 L149.9472 126.7675 L150.3223 131.2154 L150.9463 135.6354 L151.8172 140.0134 L152.9321 144.3357
 L154.2877 148.5887 L155.8796 152.759 L157.7028 156.8334 L159.7516 160.7993 L162.0195 164.644 L164.4994 168.3555 L167.1836 171.9221
 L170.0635 175.3326 L173.1301 178.5762 L176.3738 181.6429 L179.7843 184.5228 L183.3509 187.2069 L187.0624 189.6869 L190.9071 191.9548
 L194.8729 194.0036 L198.9474 195.8268z" fill="rgb(255,215,0)"/>
</g>
<g stroke="rgb(0,0,139)" stroke-width="1.0627" stroke-linejoin="round" >
<path d="M159.1579 212.3081 L192.1206 212.3081 L159.1579 179.3455 L126.1952 212.3081z" fill="rgb(255,215,0)"/>
</g>
</svg>
