<?xml version="1.0" encoding="utf-8" standalone="no"?>
<!DOCTYPE svg PUBLIC "-//W3C//DTD SVG 1.1//EN" "http://www.w3.org/TR/2001/REC-SVG-20010904/DTD/svg11.dtd">
<svg width="10cm" height="10cm" viewBox="0 0 378 378" overflow="hidden"
 version="1.1" xmlns="http://www.w3.org/2000/svg"  xmlns:xlink="http://www.w3.org/1999/xlink">
<!--tangram  (Utilisateur) -->
<g stroke="rgb(0,0,139)" stroke-width="1.0627" stroke-linejoin="round" >
<path d="M94.3051 194.4614 L108.7103 150.1267 L105.1874 149.1332 L101.5975 148.4191 L97.9625 147.9889 L94.3051 147.8452 L90.6476 147.9889
 L87.0127 148.4191 L83.4227 149.1332 L79.8999 150.1267 L76.4658 151.3936 L73.1417 152.926z" fill="rgb(255,215,0)"/>
</g>
<g stroke="rgb(0,0,139)" stroke-width="1.0627" stroke-linejoin="round" >
<path d="M122.2748 186.2693 L168.8911 186.2693 A46.6163,46.6163 0 0,0 155.2375,153.3066z" fill="rgb(255,215,0)"/>
</g>
<g stroke="rgb(0,0,139)" stroke-width="1.0627" stroke-linejoin="round" >
<path d="M242.5401 204.9158 L353.6961 222.5212 L351.2032 219.1827 L348.6236 215.9105 L345.9593 212.7071 L343.2121 209.5744 L340.3838 206.5148
 L337.4763 203.5302 L334.4918 200.6228 L331.4321 197.7945 L328.2995 195.0472 L325.096 192.3829 L321.8239 189.8034 L318.4854 187.3104
 L315.0827 184.9057 L311.6183 182.5908 L308.0945 180.3674 L304.5137 178.2371 L300.8783 176.2012 L297.1909 174.2611 L293.4539 172.4183
 L289.6701 170.6739 L285.8418 169.0291 L281.9718 167.4851 L278.0627 166.043 L274.1172 164.7037 L270.138 163.4681 L266.1278 162.3371
 L262.0894 161.3115 L258.0255 160.3919 L253.9389 159.5791 L249.8325 158.8734z" fill="rgb(255,215,0)"/>
</g>
<g stroke="rgb(0,0,139)" stroke-width="1.0627" stroke-linejoin="round" >
<path d="M209.5774 211.5083 L158.4846 111.233 L157.249 115.2122 L156.118 119.2224 L155.0924 123.2608 L154.1728 127.3247 L153.36 131.4113
 L152.6543 135.5177 L152.0565 139.6412 L151.5667 143.779 L151.1855 147.9281 L150.913 152.0858 L150.7494 156.2492 L150.6948 160.4155
 L150.7494 164.5818 L150.913 168.7452 L151.1855 172.9029 L151.5667 177.052 L152.0565 181.1898 L152.6543 185.3133 L153.36 189.4197
 L154.1728 193.5063 L155.0924 197.5702 L156.118 201.6086 L157.249 205.6188 L158.4846 209.598 L159.8239 213.5435 L161.266 217.4526
 L162.81 221.3226 L164.4548 225.1508 L166.1992 228.9347 L168.042 232.6717z" fill="rgb(255,215,0)"/>
</g>
<g stroke="rgb(0,0,139)" stroke-width="1.0627" stroke-linejoin="round" >
<path d="M152.5068 211.5083 L216.8875 164.733 L105.7315 147.1276z" fill="rgb(255,215,0)"/>
</g>
<g stroke="rgb(0,0,139)" stroke-width="1.0627" stroke-linejoin="round" >
<path d="M189 257.3248 L132.7292 313.5956 L245.2708 313.5956z" fill="rgb(255,215,0)"/>
</g>
<g stroke="rgb(0,0,139)" stroke-width="1.0627" stroke-linejoin="round" >
<path d="M95.4362 211.5083 L142.0524 211.5083 L175.0151 178.5456 L175.0151 131.9294 A79.5789,79.5789 0 0,0 95.4362,211.5083z" fill="rgb(255,215,0)"/>
</g>
<g stroke="rgb(0,0,139)" stroke-width="1.0627" stroke-linejoin="round" >
<path d="M254.5941 211.5083 L300.6364 204.2159 L328.0368 166.5026 L320.7444 120.4602 L316.3569 121.2819 L312.0223 122.3483 L307.7544 123.656 L303.5665 125.201 L299.4719 126.9784
 L295.4833 128.9826 L291.6134 131.2072 L287.8743 133.6454 L284.2778 136.2893 L280.8352 139.1308 L277.5573 142.1608 L274.4545 145.3699
 L271.5365 148.7478 L268.8125 152.2841 L266.2911 155.9675 L263.9802 159.7866 L261.887 163.7292 L260.0182 167.7829 L258.3796 171.9351
 L256.9765 176.1726 L255.8131 180.4821 L254.8932 184.8501 L254.2196 189.2627 L253.7946 193.7062 L253.6193 198.1666 L253.6944 202.6297
 L254.0197 207.0816 L254.5941 211.5083z" fill="rgb(255,215,0)"/>
</g>
<g stroke="rgb(0,0,139)" stroke-width="1.0627" stroke-linejoin="round" >
<path d="M185.1382 142.0524 L200.1029 112.6825 L155.7682 127.0877 L170.1734 171.4224z" fill="rgb(255,215,0)"/>
</g>
</svg>
