<?xml version="1.0" encoding="utf-8" standalone="no"?>
<!DOCTYPE svg PUBLIC "-//W3C//DTD SVG 1.1//EN" "http://www.w3.org/TR/2001/REC-SVG-20010904/DTD/svg11.dtd">
<svg width="10cm" height="10cm" viewBox="0 0 378 378" overflow="hidden"
 version="1.1" xmlns="http://www.w3.org/2000/svg"  xmlns:xlink="http://www.w3.org/1999/xlink">
<!--tangram  (Utilisateur) -->
<g stroke="rgb(0,0,139)" stroke-width="1.0627" stroke-linejoin="round" >
<path d="M160.7132 219.6177 L190.988 184.1704 L188.1135 181.9043 L185.0701 179.8708 L181.8765 178.0823 L178.5524 176.5498 L175.1184 175.283
 L171.5955 174.2894 L168.0055 173.5753 L164.3706 173.1451 L160.7132 173.0014 L157.0557 173.1451z" fill="rgb(255,215,0)"/>
</g>
<g stroke="rgb(0,0,139)" stroke-width="1.0627" stroke-linejoin="round" >
<path d="M204.9986 176.9803 L251.2918 182.4595 L251.5789 178.8105 L251.5789 175.1502 L251.2918 171.5012 L250.7192 167.886 L249.8647 164.3268
 L248.7336 160.8456 L247.3329 157.464 L245.6711 154.2026 L243.7586 151.0817 L241.6072 148.1205z" fill="rgb(255,215,0)"/>
</g>
<g stroke="rgb(0,0,139)" stroke-width="1.0627" stroke-linejoin="round" >
<path d="M204.9986 175.3322 L226.9544 285.7114 L229.2237 282.2169 L231.4008 278.6643 L233.4841 275.0559 L235.4722 271.3942 L237.3638 267.6817
 L239.1576 263.921 L240.8523 260.1146 L242.4468 256.2651 L243.94 252.3752 L245.3308 248.4476 L246.6184 244.4849 L247.8018 240.4899
 L248.8802 236.4652 L249.8529 232.4137 L250.7192 228.3381 L251.4785 224.2413 L252.1303 220.126 L252.6741 215.995 L253.1097 211.8512
 L253.4366 207.6974 L253.6546 203.5365 L253.7637 199.3713 L253.7637 195.2047 L253.6546 191.0395 L253.4366 186.8786 L253.1097 182.7248
 L252.6741 178.581 L252.1303 174.45 L251.4785 170.3347 L250.7192 166.2378z" fill="rgb(255,215,0)"/>
</g>
<g stroke="rgb(0,0,139)" stroke-width="1.0627" stroke-linejoin="round" >
<path d="M233.9823 144.0177 L345.1384 126.4123 L341.7358 124.0075 L338.2713 121.6927 L334.7475 119.4693 L331.1667 117.3389 L327.5313 115.303
 L323.8439 113.363 L320.107 111.5201 L316.3231 109.7757 L312.4948 108.131 L308.6248 106.587 L304.7157 105.1449 L300.7702 103.8056
 L296.791 102.57 L292.7808 101.439 L288.7424 100.4134 L284.6785 99.4938 L280.592 98.6809 L276.4855 97.9753 L272.362 97.3774
 L268.2243 96.8877 L264.0751 96.5064 L259.9174 96.2339 L255.754 96.0704 L251.5877 96.0158 L247.4215 96.0704 L243.2581 96.2339
 L239.1003 96.5064 L234.9512 96.8877 L230.8135 97.3774 L226.69 97.9753z" fill="rgb(255,215,0)"/>
</g>
<g stroke="rgb(0,0,139)" stroke-width="1.0627" stroke-linejoin="round" >
<path d="M149.2105 228.7895 L207.6471 282.8077 L203.2288 170.3529z" fill="rgb(255,215,0)"/>
</g>
<g stroke="rgb(0,0,139)" stroke-width="1.0627" stroke-linejoin="round" >
<path d="M155.5203 228.7895 L111.3086 294.957 L221.6878 273.0012z" fill="rgb(255,215,0)"/>
</g>
<g stroke="rgb(0,0,139)" stroke-width="1.0627" stroke-linejoin="round" >
<path d="M207.3294 173.0014 L240.2921 140.0387 L240.2921 93.4224 L207.3294 60.4598 L204.2628 63.7034 L201.3829 67.1139 L198.6988 70.6805 L196.2188 74.392 L193.9509 78.2367
 L191.9021 82.2026 L190.0789 86.277 L188.487 90.4473 L187.1315 94.7003 L186.0165 99.0226 L185.1457 103.4006 L184.5217 107.8206
 L184.1465 112.2685 L184.0213 116.7306 L184.1465 121.1926 L184.5217 125.6406 L185.1457 130.0605 L186.0165 134.4386 L187.1315 138.7609
 L188.487 143.0138 L190.0789 147.1841 L191.9021 151.2586 L193.9509 155.2244 L196.2188 159.0691 L198.6988 162.7806 L201.3829 166.3472
 L204.2628 169.7577 L207.3294 173.0014z" fill="rgb(255,215,0)"/>
</g>
<g stroke="rgb(0,0,139)" stroke-width="1.0627" stroke-linejoin="round" >
<path d="M89.0921 250.9322 L135.1344 243.6398 L162.5348 205.9265 L155.2424 159.8841 L150.8549 160.7058 L146.5204 161.7722 L142.2524 163.0799 L138.0646 164.6249 L133.9699 166.4023
 L129.9813 168.4064 L126.1114 170.6311 L122.3723 173.0693 L118.7758 175.7132 L115.3332 178.5547 L112.0554 181.5847 L108.9526 184.7937
 L106.0346 188.1717 L103.3106 191.708 L100.7892 195.3914 L98.4782 199.2104 L96.3851 203.153 L94.5163 207.2068 L92.8777 211.359
 L91.4745 215.5965 L90.3111 219.906 L89.3912 224.2739 L88.7177 228.6866 L88.2926 233.1301 L88.1174 237.5905 L88.1925 242.0536
 L88.5177 246.5055 L89.0921 250.9322z" fill="rgb(255,215,0)"/>
</g>
<g stroke="rgb(0,0,139)" stroke-width="1.0627" stroke-linejoin="round" >
<path d="M102.063 242.9743 L135.0257 242.9743 L102.063 275.937 L69.1003 242.9743z" fill="rgb(255,215,0)"/>
</g>
</svg>
