<?xml version="1.0" encoding="utf-8" standalone="no"?>
<!DOCTYPE svg PUBLIC "-//W3C//DTD SVG 1.1//EN" "http://www.w3.org/TR/2001/REC-SVG-20010904/DTD/svg11.dtd">
<svg width="10cm" height="10cm" viewBox="0 0 378 378" overflow="hidden"
 version="1.1" xmlns="http://www.w3.org/2000/svg"  xmlns:xlink="http://www.w3.org/1999/xlink">
<!--fond  (Utilisateur) -->
<g  stroke-linejoin="round" >
<polygon fill="rgb(0,0,139)" points="0,0,0,378,378,378,378,0"/>
</g>
<!--tangram  (Utilisateur) -->
<g stroke="rgb(0,0,139)" stroke-width="1.0627" stroke-linejoin="round" >
<path d="M99.4494 185.1967 L115.5841 141.4618 L112.103 140.3307 L108.5438 139.4762 L104.9286 138.9036 L101.2796 138.6164 L97.6193 138.6164
 L93.9703 138.9036 L90.355 139.4762 L86.7959 140.3307 L83.3147 141.4618 L79.9331 142.8625z" fill="rgb(255,215,0)"/>
</g>
<g stroke="rgb(0,0,139)" stroke-width="1.0627" stroke-linejoin="round" >
<path d="M125.0884 177.6873 L171.7046 177.6873 A46.6163,46.6163 0 0,0 158.0511,144.7246z" fill="rgb(255,215,0)"/>
</g>
<g stroke="rgb(0,0,139)" stroke-width="1.0627" stroke-linejoin="round" >
<path d="M238.0784 206.9053 L350.2731 215.7352 L347.5259 212.6025 L344.6976 209.5429 L341.7901 206.5583 L338.8056 203.6509 L335.7459 200.8226
 L332.6133 198.0753 L329.4098 195.411 L326.1377 192.8315 L322.7992 190.3385 L319.3965 187.9338 L315.9321 185.6189 L312.4083 183.3955
 L308.8275 181.2652 L305.1921 179.2293 L301.5047 177.2892 L297.7677 175.4464 L293.9839 173.702 L290.1556 172.0572 L286.2856 170.5133
 L282.3765 169.0711 L278.431 167.7318 L274.4518 166.4962 L270.4416 165.3652 L266.4032 164.3396 L262.3393 163.42 L258.2527 162.6072
 L254.1463 161.9016 L250.0228 161.3037 L245.885 160.814 L241.7359 160.4327z" fill="rgb(255,215,0)"/>
</g>
<g stroke="rgb(0,0,139)" stroke-width="1.0627" stroke-linejoin="round" >
<path d="M205.1157 210.2015 L157.9991 107.9976 L156.6082 111.9253 L155.3207 115.888 L154.1373 119.883 L153.0589 123.9076 L152.0862 127.9591
 L151.2199 132.0347 L150.4606 136.1316 L149.8088 140.2469 L149.265 144.3779 L148.8294 148.5217 L148.5025 152.6755 L148.2845 156.8364
 L148.1754 161.0016 L148.1754 165.1682 L148.2845 169.3334 L148.5025 173.4943 L148.8294 177.6481 L149.265 181.7919 L149.8088 185.9229
 L150.4606 190.0382 L151.2199 194.135 L152.0862 198.2106 L153.0589 202.2621 L154.1373 206.2868 L155.3207 210.2818 L156.6082 214.2445
 L157.9991 218.1721 L159.4923 222.062 L161.0868 225.9115 L162.7815 229.7179z" fill="rgb(255,215,0)"/>
</g>
<g stroke="rgb(0,0,139)" stroke-width="1.0627" stroke-linejoin="round" >
<path d="M164.9264 210.2015 L225.4387 158.5191 L113.244 149.6892z" fill="rgb(255,215,0)"/>
</g>
<g stroke="rgb(0,0,139)" stroke-width="1.0627" stroke-linejoin="round" >
<path d="M189 258.8315 L132.7292 315.1023 L245.2708 315.1023z" fill="rgb(255,215,0)"/>
</g>
<g stroke="rgb(0,0,139)" stroke-width="1.0627" stroke-linejoin="round" >
<path d="M96.6016 210.2015 L143.2178 210.2015 L176.1805 177.2389 L176.1805 130.6226 A79.5789,79.5789 0 0,0 96.6016,210.2015z" fill="rgb(255,215,0)"/>
</g>
<g stroke="rgb(0,0,139)" stroke-width="1.0627" stroke-linejoin="round" >
<path d="M255.7595 210.2015 L302.0526 215.6807 L338.6612 186.8208 L344.1403 140.5277 L339.6945 140.1276 L335.2333 139.9773 L330.7706 140.0775 L326.3206 140.4277 L321.8972 141.0269
 L317.5144 141.8732 L313.1859 142.9639 L308.9254 144.2955 L304.7462 145.864 L300.6616 147.6643 L296.6843 149.6908 L292.8269 151.9372
 L289.1016 154.3962 L285.52 157.0603 L282.0934 159.9211 L278.8326 162.9694 L275.7478 166.1958 L272.8488 169.5901 L270.1447 173.1416
 L267.644 176.8391 L265.3545 180.6711 L263.2835 184.6253 L261.4375 188.6895 L259.8222 192.8508 L258.4428 197.0961 L257.3036 201.4121
 L256.4083 205.7851 L255.7595 210.2015z" fill="rgb(255,215,0)"/>
</g>
<g stroke="rgb(0,0,139)" stroke-width="1.0627" stroke-linejoin="round" >
<path d="M184.6555 139.0975 L204.0304 112.4301 L157.9881 119.7225 L165.2805 165.7649z" fill="rgb(255,215,0)"/>
</g>
</svg>
