<?xml version="1.0" encoding="utf-8" standalone="no"?>
<!DOCTYPE svg PUBLIC "-//W3C//DTD SVG 1.1//EN" "http://www.w3.org/TR/2001/REC-SVG-20010904/DTD/svg11.dtd">
<svg width="10cm" height="10cm" viewBox="0 0 378 378" overflow="hidden"
 version="1.1" xmlns="http://www.w3.org/2000/svg"  xmlns:xlink="http://www.w3.org/1999/xlink">
<!--fond  (Utilisateur) -->
<g  stroke-linejoin="round" >
<polygon fill="rgb(0,0,139)" points="0,0,0,378,378,378,378,0"/>
</g>
<!--tangram  (Utilisateur) -->
<g stroke="rgb(0,0,139)" stroke-width="1.0627" stroke-linejoin="round" >
<path d="M213.722 184.1727 L259.4426 175.0783 L258.5881 171.5192 L257.457 168.038 L256.0563 164.6564 L254.3945 161.395 L252.482 158.2741
 L250.3306 155.3129 L247.9534 152.5296 L245.3652 149.9414 L242.5819 147.5642 L239.6206 145.4127z" fill="rgb(255,215,0)"/>
</g>
<g stroke="rgb(0,0,139)" stroke-width="1.0627" stroke-linejoin="round" >
<path d="M213.722 99.7665 L170.6542 81.9272 L169.3873 85.3613 L168.3938 88.8842 L167.6797 92.4741 L167.2494 96.109 L167.1057 99.7665
 L167.2494 103.424 L167.6797 107.0589 L168.3938 110.6489 L169.3873 114.1717 L170.6542 117.6058z" fill="rgb(255,215,0)"/>
</g>
<g stroke="rgb(0,0,139)" stroke-width="1.0627" stroke-linejoin="round" >
<path d="M238.444 159.4507 L238.444 46.9091 L235.5366 49.8937 L232.7083 52.9533 L229.961 56.0859 L227.2967 59.2894 L224.7172 62.5615
 L222.2242 65.9001 L219.8195 69.3027 L217.5046 72.7671 L215.2812 76.2909 L213.1509 79.8718 L211.115 83.5071 L209.1749 87.1945
 L207.3321 90.9315 L205.5877 94.7154 L203.9429 98.5436 L202.399 102.4136 L200.9568 106.3227 L199.6175 110.2682 L198.3819 114.2474
 L197.2509 118.2576 L196.2253 122.296 L195.3057 126.3599 L194.4929 130.4465 L193.7872 134.5529 L193.1894 138.6764 L192.6996 142.8142
 L192.3184 146.9633 L192.0459 151.121 L191.8823 155.2844 L191.8278 159.4507z" fill="rgb(255,215,0)"/>
</g>
<g stroke="rgb(0,0,139)" stroke-width="1.0627" stroke-linejoin="round" >
<path d="M189 208.8947 L167.0442 98.5156 L164.7749 102.01 L162.5979 105.5626 L160.5145 109.171 L158.5264 112.8327 L156.6348 116.5452
 L154.841 120.306 L153.1463 124.1124 L151.5518 127.9618 L150.0586 131.8517 L148.6678 135.7793 L147.3802 139.742 L146.1968 143.7371
 L145.1184 147.7617 L144.1457 151.8132 L143.2795 155.8888 L142.5201 159.9856 L141.8683 164.101 L141.3245 168.2319 L140.889 172.3757
 L140.562 176.5295 L140.344 180.6904 L140.2349 184.8556 L140.2349 189.0223 L140.344 193.1875 L140.562 197.3484 L140.889 201.5022
 L141.3245 205.646 L141.8683 209.7769 L142.5201 213.8923 L143.2795 217.9891z" fill="rgb(255,215,0)"/>
</g>
<g stroke="rgb(0,0,139)" stroke-width="1.0627" stroke-linejoin="round" >
<path d="M220.9629 161.8644 L287.1304 117.6527 L176.7512 95.6969z" fill="rgb(255,215,0)"/>
</g>
<g stroke="rgb(0,0,139)" stroke-width="1.0627" stroke-linejoin="round" >
<path d="M189 263.7517 L204.5251 341.8015 L267.0499 248.2266z" fill="rgb(255,215,0)"/>
</g>
<g stroke="rgb(0,0,139)" stroke-width="1.0627" stroke-linejoin="round" >
<path d="M228.7895 204.0675 L195.8268 171.1048 L149.2105 171.1048 L116.2478 204.0675 L119.4915 207.1341 L122.902 210.014 L126.4686 212.6981 L130.1801 215.1781 L134.0248 217.446
 L137.9906 219.4948 L142.0651 221.318 L146.2354 222.9099 L150.4884 224.2654 L154.8107 225.3804 L159.1887 226.2512 L163.6086 226.8752
 L168.0566 227.2504 L172.5187 227.3756 L176.9807 227.2504 L181.4287 226.8752 L185.8486 226.2512 L190.2266 225.3804 L194.5489 224.2654
 L198.8019 222.9099 L202.9722 221.318 L207.0467 219.4948 L211.0125 217.446 L214.8572 215.1781 L218.5687 212.6981 L222.1353 210.014
 L225.5458 207.1341 L228.7895 204.0675z" fill="rgb(255,215,0)"/>
</g>
<g stroke="rgb(0,0,139)" stroke-width="1.0627" stroke-linejoin="round" >
<path d="M149.2105 204.0675 L158.3049 249.788 L197.0649 275.6866 L242.7855 266.5922 L241.7922 262.2404 L240.5565 257.951 L239.0822 253.7378 L237.3739 249.6138 L235.4372 245.592
 L233.278 241.6852 L230.9031 237.9056 L228.32 234.2651 L225.5369 230.7752 L222.5625 227.4468 L219.4061 224.2905 L216.0777 221.316
 L212.5878 218.5329 L208.9473 215.9498 L205.1677 213.575 L201.2609 211.4158 L197.2392 209.479 L193.1152 207.7708 L188.9019 206.2965
 L184.6126 205.0607 L180.2607 204.0675 L175.86 203.3198 L171.4243 202.82 L166.9675 202.5697 L162.5037 202.5697 L158.047 202.82
 L153.6112 203.3198 L149.2105 204.0675z" fill="rgb(255,215,0)"/>
</g>
<g stroke="rgb(0,0,139)" stroke-width="1.0627" stroke-linejoin="round" >
<path d="M129.3158 228.7895 L162.2785 228.7895 L129.3158 195.8268 L96.3531 228.7895z" fill="rgb(255,215,0)"/>
</g>
</svg>
