<?xml version="1.0" encoding="utf-8" standalone="no"?>
<!DOCTYPE svg PUBLIC "-//W3C//DTD SVG 1.1//EN" "http://www.w3.org/TR/2001/REC-SVG-20010904/DTD/svg11.dtd">
<svg width="10cm" height="10cm" viewBox="0 0 378 378" overflow="hidden"
 version="1.1" xmlns="http://www.w3.org/2000/svg"  xmlns:xlink="http://www.w3.org/1999/xlink">
<!--fond  (Utilisateur) -->
<g  stroke-linejoin="round" >
<polygon fill="rgb(0,0,139)" points="0,0,0,378,378,378,378,0"/>
</g>
<!--tangram  (Utilisateur) -->
<g stroke="rgb(0,0,139)" stroke-width="1.0627" stroke-linejoin="round" >
<path d="M84.0164 212.9908 L94.8987 167.6626 L91.3088 166.9485 L87.6738 166.5182 L84.0164 166.3745 L80.3589 166.5182 L76.724 166.9485
 L73.134 167.6626 L69.6111 168.6561 L66.1771 169.923 L62.853 171.4554 L59.6594 173.2439z" fill="rgb(255,215,0)"/>
</g>
<g stroke="rgb(0,0,139)" stroke-width="1.0627" stroke-linejoin="round" >
<path d="M116.6478 203.4333 L163.264 203.4333 A46.6163,46.6163 0 0,0 149.6104,170.4706z" fill="rgb(255,215,0)"/>
</g>
<g stroke="rgb(0,0,139)" stroke-width="1.0627" stroke-linejoin="round" >
<path d="M251.4634 200.9368 L358.4969 235.7141 L356.5569 232.0267 L354.5209 228.3913 L352.3906 224.8105 L350.1672 221.2867 L347.8524 217.8223
 L345.4476 214.4196 L342.9546 211.0811 L340.3751 207.809 L337.7108 204.6055 L334.9635 201.4729 L332.1352 198.4132 L329.2278 195.4287
 L326.2432 192.5212 L323.1836 189.6929 L320.051 186.9457 L316.8475 184.2814 L313.5754 181.7018 L310.2368 179.2088 L306.8342 176.8041
 L303.3698 174.4892 L299.8459 172.2659 L296.2651 170.1355 L292.6298 168.0996 L288.9423 166.1596 L285.2054 164.3167 L281.4215 162.5723
 L277.5933 160.9276 L273.7233 159.3836 L269.8142 157.9415 L265.8687 156.6021z" fill="rgb(255,215,0)"/>
</g>
<g stroke="rgb(0,0,139)" stroke-width="1.0627" stroke-linejoin="round" >
<path d="M218.5008 214.1219 L159.6979 118.1644 L158.7784 122.2283 L157.9655 126.3149 L157.2599 130.4213 L156.662 134.5448 L156.1723 138.6825
 L155.791 142.8317 L155.5185 146.9894 L155.3549 151.1528 L155.3004 155.3191 L155.3549 159.4853 L155.5185 163.6488 L155.791 167.8065
 L156.1723 171.9556 L156.662 176.0933 L157.2599 180.2169 L157.9655 184.3233 L158.7784 188.4099 L159.6979 192.4737 L160.7236 196.5122
 L161.8545 200.5224 L163.0901 204.5016 L164.4294 208.4471 L165.8716 212.3562 L167.4156 216.2262 L169.0603 220.0544 L170.8047 223.8383
 L172.6476 227.5752 L174.5876 231.2627 L176.6235 234.898 L178.7539 238.4788z" fill="rgb(255,215,0)"/>
</g>
<g stroke="rgb(0,0,139)" stroke-width="1.0627" stroke-linejoin="round" >
<path d="M127.6677 214.1219 L198.573 177.9938 L91.5396 143.2166z" fill="rgb(255,215,0)"/>
</g>
<g stroke="rgb(0,0,139)" stroke-width="1.0627" stroke-linejoin="round" >
<path d="M189 254.3113 L132.7292 310.5821 L245.2708 310.5821z" fill="rgb(255,215,0)"/>
</g>
<g stroke="rgb(0,0,139)" stroke-width="1.0627" stroke-linejoin="round" >
<path d="M93.1054 214.1219 L139.7216 214.1219 L172.6843 181.1592 L172.6843 134.543 A79.5789,79.5789 0 0,0 93.1054,214.1219z" fill="rgb(255,215,0)"/>
</g>
<g stroke="rgb(0,0,139)" stroke-width="1.0627" stroke-linejoin="round" >
<path d="M252.2633 214.1219 L287.7105 183.8471 L291.368 137.3745 L261.0932 101.9272 L257.7815 104.9203 L254.6429 108.0943 L251.6872 111.4393 L248.9237 114.9448 L246.3611 118.5997
 L244.0075 122.3926 L241.8702 126.3114 L239.956 130.344 L238.271 134.4775 L236.8203 138.699 L235.6087 142.9952 L234.6398 147.3525
 L233.9168 151.7574 L233.4419 156.1958 L233.2166 160.6539 L233.2417 165.1176 L233.517 169.5729 L234.0416 174.0058 L234.814 178.4022
 L235.8317 182.7484 L237.0915 187.0308 L238.5894 191.2357 L240.3207 195.3501 L242.28 199.3609 L244.4611 203.2555 L246.8572 207.0217
 L249.4606 210.6477 L252.2633 214.1219z" fill="rgb(255,215,0)"/>
</g>
<g stroke="rgb(0,0,139)" stroke-width="1.0627" stroke-linejoin="round" >
<path d="M186.1036 147.9623 L191.2601 115.4054 L153.5468 142.8058 L180.9471 180.5192z" fill="rgb(255,215,0)"/>
</g>
</svg>
