<?xml version="1.0" encoding="utf-8" standalone="no"?>
<!DOCTYPE svg PUBLIC "-//W3C//DTD SVG 1.1//EN" "http://www.w3.org/TR/2001/REC-SVG-20010904/DTD/svg11.dtd">
<svg width="10cm" height="10cm" viewBox="0 0 378 378" overflow="hidden"
 version="1.1" xmlns="http://www.w3.org/2000/svg"  xmlns:xlink="http://www.w3.org/1999/xlink">
<!--tangram  (Utilisateur) -->
<g stroke="rgb(0,0,139)" stroke-width="1.0627" stroke-linejoin="round" >
<path d="M229.5792 190.1997 L273.9139 175.7945 L272.6471 172.3604 L271.1146 169.0364 L269.3261 165.8428 L267.2926 162.7994 L265.0265 159.9249
 L262.5419 157.237 L259.8541 154.7524 L256.9796 152.4864 L253.9362 150.4528 L250.7426 148.6643z" fill="rgb(255,215,0)"/>
</g>
<g stroke="rgb(0,0,139)" stroke-width="1.0627" stroke-linejoin="round" >
<path d="M212.698 89.8777 L172.9511 65.5208 L171.1626 68.7144 L169.6302 72.0384 L168.3633 75.4725 L167.3697 78.9954 L166.6556 82.5853
 L166.2254 86.2202 L166.0817 89.8777 L166.2254 93.5352 L166.6556 97.1701 L167.3697 100.7601z" fill="rgb(255,215,0)"/>
</g>
<g stroke="rgb(0,0,139)" stroke-width="1.0627" stroke-linejoin="round" >
<path d="M242.3644 166.1604 L183.5616 70.2029 L182.642 74.2668 L181.8291 78.3533 L181.1235 82.4598 L180.5256 86.5833 L180.0359 90.721
 L179.6546 94.8702 L179.3821 99.0279 L179.2186 103.1913 L179.164 107.3575 L179.2186 111.5238 L179.3821 115.6872 L179.6546 119.8449
 L180.0359 123.9941 L180.5256 128.1318 L181.1235 132.2553 L181.8291 136.3618 L182.642 140.4483 L183.5616 144.5122 L184.5872 148.5506
 L185.7182 152.5608 L186.9538 156.54 L188.2931 160.4855 L189.7352 164.3946 L191.2792 168.2646 L192.9239 172.0929 L194.6683 175.8768
 L196.5112 179.6137 L198.4512 183.3011 L200.4871 186.9365 L202.6175 190.5173z" fill="rgb(255,215,0)"/>
</g>
<g stroke="rgb(0,0,139)" stroke-width="1.0627" stroke-linejoin="round" >
<path d="M175.0737 228.7895 L65.6416 202.5172 L67.865 206.041 L70.1798 209.5054 L72.5846 212.908 L75.0776 216.2466 L77.6571 219.5187
 L80.3214 222.7222 L83.0686 225.8548 L85.8969 228.9144 L88.8044 231.899 L91.7889 234.8064 L94.8486 237.6347 L97.9812 240.382
 L101.1847 243.0463 L104.4568 245.6258 L107.7953 248.1188 L111.198 250.5236 L114.6624 252.8384 L118.1862 255.0618 L121.7671 257.1922
 L125.4024 259.2281 L129.0898 261.1681 L132.8268 263.011 L136.6107 264.7554 L140.4389 266.4001 L144.3089 267.9441 L148.218 269.3862
 L152.1635 270.7255 L156.1427 271.9611 L160.1529 273.0921 L164.1913 274.1177z" fill="rgb(255,215,0)"/>
</g>
<g stroke="rgb(0,0,139)" stroke-width="1.0627" stroke-linejoin="round" >
<path d="M238.2683 139.556 L309.1737 103.4279 L202.1402 68.6506z" fill="rgb(255,215,0)"/>
</g>
<g stroke="rgb(0,0,139)" stroke-width="1.0627" stroke-linejoin="round" >
<path d="M190.9895 275.4057 L134.7187 331.6766 L247.2603 331.6766z" fill="rgb(255,215,0)"/>
</g>
<g stroke="rgb(0,0,139)" stroke-width="1.0627" stroke-linejoin="round" >
<path d="M262.6105 203.7847 L216.5682 196.4923 L178.8548 223.8927 L171.5624 269.935 L175.9891 270.5094 L180.441 270.8346 L184.9042 270.9097 L189.3645 270.7345 L193.808 270.3094
 L198.2207 269.6359 L202.5887 268.716 L206.8982 267.5526 L211.1357 266.1494 L215.2878 264.5109 L219.3416 262.642 L223.2842 260.5489
 L227.1032 258.238 L230.7867 255.7165 L234.3229 252.9925 L237.7009 250.0745 L240.9099 246.9717 L243.94 243.6939 L246.7814 240.2513
 L249.4254 236.6548 L251.8635 232.9157 L254.0882 229.0458 L256.0924 225.0572 L257.8697 220.9625 L259.4147 216.7747 L260.7225 212.5067
 L261.7889 208.1722 L262.6105 203.7847z" fill="rgb(255,215,0)"/>
</g>
<g stroke="rgb(0,0,139)" stroke-width="1.0627" stroke-linejoin="round" >
<path d="M127.3263 195.8268 L170.3941 213.6661 L213.4619 195.8268 L231.3012 152.759 L227.1309 151.1671 L222.878 149.8116 L218.5557 148.6966 L214.1776 147.8258 L209.7577 147.2018
 L205.3097 146.8266 L200.8477 146.7014 L196.3856 146.8266 L191.9377 147.2018 L187.5177 147.8258 L183.1397 148.6966 L178.8174 149.8116
 L174.5644 151.1671 L170.3941 152.759 L166.3197 154.5822 L162.3538 156.631 L158.5091 158.8989 L154.7976 161.3789 L151.231 164.063
 L147.8205 166.9429 L144.5769 170.0095 L141.5103 173.2532 L138.6304 176.6637 L135.9462 180.2303 L133.4663 183.9418 L131.1983 187.7865
 L129.1495 191.7523 L127.3263 195.8268z" fill="rgb(255,215,0)"/>
</g>
<g stroke="rgb(0,0,139)" stroke-width="1.0627" stroke-linejoin="round" >
<path d="M119.3684 225.4932 L152.3311 225.4932 L119.3684 192.5305 L86.4057 225.4932z" fill="rgb(255,215,0)"/>
</g>
</svg>
