<?xml version="1.0" encoding="utf-8" standalone="no"?>
<!DOCTYPE svg PUBLIC "-//W3C//DTD SVG 1.1//EN" "http://www.w3.org/TR/2001/REC-SVG-20010904/DTD/svg11.dtd">
<svg width="10cm" height="10cm" viewBox="0 0 378 378" overflow="hidden"
 version="1.1" xmlns="http://www.w3.org/2000/svg"  xmlns:xlink="http://www.w3.org/1999/xlink">
<!--fond  (Utilisateur) -->
<g  stroke-linejoin="round" >
<polygon fill="rgb(0,0,139)" points="0,0,0,378,378,378,378,0"/>
</g>
<!--tangram  (Utilisateur) -->
<g stroke="rgb(0,0,139)" stroke-width="1.0627" stroke-linejoin="round" >
<path d="M286.7034 147.9966 L245.168 126.8333 L243.6356 130.1573 L242.3687 133.5914 L241.3751 137.1143 L240.6611 140.7042 L240.2308 144.3391
 L240.0871 147.9966 L240.2308 151.6541 L240.6611 155.289 L241.3751 158.879 L242.3687 162.4018z" fill="rgb(255,215,0)"/>
</g>
<g stroke="rgb(0,0,139)" stroke-width="1.0627" stroke-linejoin="round" >
<path d="M143.2128 139.3217 L145.043 185.9021 L148.692 185.6149 L152.3072 185.0423 L155.8664 184.1878 L159.3475 183.0567 L162.7292 181.656
 L165.9905 179.9942 L169.1114 178.0817 L172.0727 175.9303 L174.856 173.5531 L177.4442 170.9649z" fill="rgb(255,215,0)"/>
</g>
<g stroke="rgb(0,0,139)" stroke-width="1.0627" stroke-linejoin="round" >
<path d="M148.1572 190.8824 L253.7428 151.9298 L249.9364 150.2351 L246.0869 148.6406 L242.1971 147.1474 L238.2694 145.7566 L234.3067 144.469
 L230.3117 143.2856 L226.287 142.2072 L222.2355 141.2345 L218.16 140.3683 L214.0631 139.6089 L209.9478 138.9571 L205.8168 138.4133
 L201.673 137.9778 L197.5192 137.6508 L193.3583 137.4328 L189.1931 137.3237 L185.0265 137.3237 L180.8613 137.4328 L176.7004 137.6508
 L172.5466 137.9778 L168.4028 138.4133 L164.2718 138.9571 L160.1565 139.6089 L156.0596 140.3683 L151.9841 141.2345 L147.9326 142.2072
 L143.9079 143.2856 L139.9129 144.469 L135.9502 145.7566 L132.0225 147.1474z" fill="rgb(255,215,0)"/>
</g>
<g stroke="rgb(0,0,139)" stroke-width="1.0627" stroke-linejoin="round" >
<path d="M70.6263 228.7895 L117.743 126.5856 L113.8531 128.0787 L110.0036 129.6732 L106.1972 131.368 L102.4365 133.1617 L98.724 135.0534
 L95.0623 137.0415 L91.4539 139.1248 L87.9013 141.3019 L84.4068 143.5712 L80.973 145.9312 L77.6021 148.3803 L74.2965 150.9167
 L71.0585 153.5389 L67.8901 156.2449 L64.7937 159.0329 L61.7714 161.901 L58.8251 164.8473 L55.957 167.8696 L53.169 170.966
 L50.463 174.1344 L47.8408 177.3724 L45.3044 180.678 L42.8553 184.0489 L40.4953 187.4827 L38.226 190.9772 L36.0489 194.5298
 L33.9656 198.1382 L31.9775 201.7999 L30.0858 205.5124 L28.2921 209.2731z" fill="rgb(255,215,0)"/>
</g>
<g stroke="rgb(0,0,139)" stroke-width="1.0627" stroke-linejoin="round" >
<path d="M288.1516 139.556 L263.5603 215.2401 L363.8357 164.1472z" fill="rgb(255,215,0)"/>
</g>
<g stroke="rgb(0,0,139)" stroke-width="1.0627" stroke-linejoin="round" >
<path d="M205.9105 275.4057 L149.6397 331.6766 L262.1813 331.6766z" fill="rgb(255,215,0)"/>
</g>
<g stroke="rgb(0,0,139)" stroke-width="1.0627" stroke-linejoin="round" >
<path d="M217.8474 263.4689 L206.965 218.1406 L167.2181 193.7837 L121.8899 204.6661 L123.0532 208.9756 L124.4564 213.2131 L126.095 217.3652 L127.9638 221.419 L130.0569 225.3616
 L132.3679 229.1806 L134.8893 232.8641 L137.6133 236.4003 L140.5313 239.7783 L143.6341 242.9873 L146.912 246.0174 L150.3546 248.8588
 L153.9511 251.5028 L157.6901 253.9409 L161.5601 256.1656 L165.5486 258.1698 L169.6433 259.9471 L173.8312 261.4921 L178.0991 262.7999
 L182.4336 263.8663 L186.8211 264.6879 L191.2478 265.2623 L195.6997 265.5875 L200.1629 265.6627 L204.6232 265.4874 L209.0667 265.0624
 L213.4794 264.3888 L217.8474 263.4689z" fill="rgb(255,215,0)"/>
</g>
<g stroke="rgb(0,0,139)" stroke-width="1.0627" stroke-linejoin="round" >
<path d="M261.6158 195.8268 L222.8558 169.9282 L177.1352 179.0226 L151.2366 217.7826 L155.0162 220.1575 L158.923 222.3167 L162.9447 224.2534 L167.0687 225.9616 L171.282 227.4359
 L175.5714 228.6717 L179.9232 229.665 L184.3239 230.4127 L188.7597 230.9125 L193.2164 231.1627 L197.6802 231.1627 L202.137 230.9125
 L206.5727 230.4127 L210.9734 229.665 L215.3253 228.6717 L219.6146 227.4359 L223.8279 225.9616 L227.9519 224.2534 L231.9736 222.3167
 L235.8804 220.1575 L239.66 217.7826 L243.3005 215.1995 L246.7904 212.4164 L250.1188 209.442 L253.2752 206.2856 L256.2496 202.9572
 L259.0327 199.4673 L261.6158 195.8268z" fill="rgb(255,215,0)"/>
</g>
<g stroke="rgb(0,0,139)" stroke-width="1.0627" stroke-linejoin="round" >
<path d="M193.9737 200.7712 L226.9364 200.7712 L193.9737 167.8085 L161.011 200.7712z" fill="rgb(255,215,0)"/>
</g>
</svg>
