<?xml version="1.0" encoding="utf-8" standalone="no"?>
<!DOCTYPE svg PUBLIC "-//W3C//DTD SVG 1.1//EN" "http://www.w3.org/TR/2001/REC-SVG-20010904/DTD/svg11.dtd">
<svg width="10cm" height="10cm" viewBox="0 0 378 378" overflow="hidden"
 version="1.1" xmlns="http://www.w3.org/2000/svg"  xmlns:xlink="http://www.w3.org/1999/xlink">
<!--fond  (Utilisateur) -->
<g  stroke-linejoin="round" >
<polygon fill="rgb(0,0,139)" points="0,0,0,378,378,378,378,0"/>
</g>
<!--tangram  (Utilisateur) -->
<g stroke="rgb(0,0,139)" stroke-width="1.0627" stroke-linejoin="round" >
<path d="M200.5369 165.5262 L241.2094 142.7485 L239.2969 139.6276 L237.1455 136.6664 L234.7683 133.8831 L232.1801 131.2948 L229.3968 128.9177
 L226.4355 126.7662 L223.3146 124.8537 L220.0533 123.192 L216.6716 121.7912 L213.1905 120.6601z" fill="rgb(255,215,0)"/>
</g>
<g stroke="rgb(0,0,139)" stroke-width="1.0627" stroke-linejoin="round" >
<path d="M200.5369 126.1367 L176.18 86.3897 L173.1366 88.4233 L170.2621 90.6894 L167.5743 93.174 L165.0896 95.8618 L162.8236 98.7363
 L160.79 101.7797 L159.0015 104.9733 L157.4691 108.2974 L156.2022 111.7314 L155.2087 115.2543z" fill="rgb(255,215,0)"/>
</g>
<g stroke="rgb(0,0,139)" stroke-width="1.0627" stroke-linejoin="round" >
<path d="M212.0739 153.9893 L319.1073 119.212 L315.3704 117.3692 L311.5865 115.6248 L307.7582 113.98 L303.8882 112.436 L299.9791 110.9939
 L296.0336 109.6546 L292.0544 108.419 L288.0442 107.288 L284.0058 106.2624 L279.9419 105.3428 L275.8554 104.5299 L271.7489 103.8243
 L267.6254 103.2265 L263.4877 102.7367 L259.3385 102.3555 L255.1808 102.083 L251.0174 101.9194 L246.8512 101.8648 L242.6849 101.9194
 L238.5215 102.083 L234.3638 102.3555 L230.2146 102.7367 L226.0769 103.2265 L221.9534 103.8243 L217.8469 104.5299 L213.7604 105.3428
 L209.6965 106.2624 L205.6581 107.288 L201.6479 108.419 L197.6687 109.6546z" fill="rgb(255,215,0)"/>
</g>
<g stroke="rgb(0,0,139)" stroke-width="1.0627" stroke-linejoin="round" >
<path d="M189 177.0632 L291.2039 224.1798 L289.7107 220.2899 L288.1162 216.4405 L286.4215 212.6341 L284.6277 208.8733 L282.7361 205.1608
 L280.748 201.4991 L278.6647 197.8907 L276.4876 194.3381 L274.2183 190.8437 L271.8583 187.4099 L269.4092 184.039 L266.8727 180.7334
 L264.2506 177.4953 L261.5446 174.327 L258.7566 171.2306 L255.8885 168.2082 L252.9422 165.262 L249.9198 162.3938 L246.8234 159.6058
 L243.6551 156.8998 L240.417 154.2777 L237.1114 151.7412 L233.7406 149.2921 L230.3067 146.9321 L226.8123 144.6628 L223.2597 142.4858
 L219.6513 140.4024 L215.9896 138.4143 L212.2771 136.5227 L208.5164 134.7289z" fill="rgb(255,215,0)"/>
</g>
<g stroke="rgb(0,0,139)" stroke-width="1.0627" stroke-linejoin="round" >
<path d="M203.916 197.5578 L280.5072 175.9568 L182.3151 120.9666z" fill="rgb(255,215,0)"/>
</g>
<g stroke="rgb(0,0,139)" stroke-width="1.0627" stroke-linejoin="round" >
<path d="M189 245.1052 L267.0499 229.5801 L173.4749 167.0553z" fill="rgb(255,215,0)"/>
</g>
<g stroke="rgb(0,0,139)" stroke-width="1.0627" stroke-linejoin="round" >
<path d="M165.1263 217.2525 L186.2897 175.7171 L171.8844 131.3824 L130.349 110.2191 L128.4349 114.2516 L126.7498 118.3851 L125.2992 122.6066 L124.0875 126.9028 L123.1187 131.2602
 L122.3957 135.665 L121.9208 140.1035 L121.6955 144.5616 L121.7205 149.0253 L121.9958 153.4806 L122.5205 157.9134 L123.2929 162.3099
 L124.3105 166.6561 L125.5703 170.9384 L127.0682 175.1434 L128.7996 179.2577 L130.7589 183.2685 L132.94 187.1632 L135.336 190.9294
 L137.9394 194.5553 L140.7421 198.0296 L143.7351 201.3412 L146.9092 204.4798 L150.2542 207.4355 L153.7597 210.199 L157.4146 212.7616
 L161.2075 215.1153 L165.1263 217.2525z" fill="rgb(255,215,0)"/>
</g>
<g stroke="rgb(0,0,139)" stroke-width="1.0627" stroke-linejoin="round" >
<path d="M212.8737 217.2525 L181.2305 251.4839 L183.0607 298.0642 L217.292 329.7074 L220.2289 326.3458 L222.9727 322.8249 L225.5148 319.1557 L227.8471 315.3497 L229.9624 311.4189
 L231.8539 307.3757 L233.5157 303.2328 L234.9426 299.0032 L236.1302 294.7003 L237.0746 290.3376 L237.7729 285.9287 L238.2228 281.4877
 L238.4231 277.0284 L238.373 272.5649 L238.0728 268.1112 L237.5232 263.6814 L236.7262 259.2893 L235.6841 254.9489 L234.4004 250.6737
 L232.8789 246.4772 L231.1245 242.3726 L229.1427 238.3729 L226.9398 234.4906 L224.5227 230.7379 L221.899 227.1266 L219.0769 223.6681
 L216.0653 220.3733 L212.8737 217.2525z" fill="rgb(255,215,0)"/>
</g>
<g stroke="rgb(0,0,139)" stroke-width="1.0627" stroke-linejoin="round" >
<path d="M161.1474 228.7895 L194.11 228.7895 L161.1474 195.8268 L128.1847 228.7895z" fill="rgb(255,215,0)"/>
</g>
</svg>
