<?xml version="1.0" encoding="utf-8" standalone="no"?>
<!DOCTYPE svg PUBLIC "-//W3C//DTD SVG 1.1//EN" "http://www.w3.org/TR/2001/REC-SVG-20010904/DTD/svg11.dtd">
<svg width="10cm" height="10cm" viewBox="0 0 378 378" overflow="hidden"
 version="1.1" xmlns="http://www.w3.org/2000/svg"  xmlns:xlink="http://www.w3.org/1999/xlink">
<!--tangram  (Utilisateur) -->
<g stroke="rgb(0,0,139)" stroke-width="1.0627" stroke-linejoin="round" >
<path d="M184.4555 94.5393 L198.8607 50.2046 L195.3379 49.2111 L191.7479 48.497 L188.113 48.0668 L184.4555 47.9231 L180.798 48.0668
 L177.1631 48.497 L173.5732 49.2111 L170.0503 50.2046 L166.6162 51.4715 L163.2922 53.0039z" fill="rgb(255,215,0)"/>
</g>
<g stroke="rgb(0,0,139)" stroke-width="1.0627" stroke-linejoin="round" >
<path d="M150.693 96.4702 L192.2284 117.6336 L193.7608 114.3095 L195.0277 110.8755 L196.0213 107.3526 L196.7354 103.7626 L197.1656 100.1277
 L197.3093 96.4702 L197.1656 92.8128 L196.7354 89.1778 L196.0213 85.5879 L195.0277 82.065z" fill="rgb(255,215,0)"/>
</g>
<g stroke="rgb(0,0,139)" stroke-width="1.0627" stroke-linejoin="round" >
<path d="M177.0632 222.1969 L268.1112 156.0466 L263.9877 155.4487 L259.85 154.959 L255.7009 154.5778 L251.5431 154.3053 L247.3797 154.1417
 L243.2135 154.0871 L239.0472 154.1417 L234.8838 154.3053 L230.7261 154.5778 L226.5769 154.959 L222.4392 155.4487 L218.3157 156.0466
 L214.2092 156.7522 L210.1227 157.5651 L206.0588 158.4847 L202.0204 159.5103 L198.0102 160.6413 L194.031 161.8769 L190.0855 163.2162
 L186.1764 164.6583 L182.3064 166.2023 L178.4781 167.8471 L174.6942 169.5915 L170.9573 171.4343 L167.2699 173.3743 L163.6345 175.4102
 L160.0537 177.5406 L156.5299 179.764 L153.0654 182.0788 L149.6628 184.4836z" fill="rgb(255,215,0)"/>
</g>
<g stroke="rgb(0,0,139)" stroke-width="1.0627" stroke-linejoin="round" >
<path d="M134.7772 202.4193 L152.3826 91.2633 L149.0441 93.7563 L145.772 96.3358 L142.5685 99.0001 L139.4359 101.7474 L136.3762 104.5757
 L133.3917 107.4831 L130.4842 110.4677 L127.6559 113.5273 L124.9087 116.6599 L122.2444 119.8634 L119.6648 123.1355 L117.1718 126.4741
 L114.7671 129.8767 L112.4522 133.3411 L110.2289 136.8649 L108.0985 140.4458 L106.0626 144.0811 L104.1226 147.7685 L102.2797 151.5055
 L100.5353 155.2894 L98.8906 159.1176 L97.3466 162.9876 L95.9044 166.8967 L94.5651 170.8422 L93.3295 174.8214 L92.1986 178.8316
 L91.1729 182.87 L90.2534 186.9339 L89.4405 191.0205 L88.7349 195.1269z" fill="rgb(255,215,0)"/>
</g>
<g stroke="rgb(0,0,139)" stroke-width="1.0627" stroke-linejoin="round" >
<path d="M300.8589 184.5726 L357.1298 128.3018 L244.5881 128.3018z" fill="rgb(255,215,0)"/>
</g>
<g stroke="rgb(0,0,139)" stroke-width="1.0627" stroke-linejoin="round" >
<path d="M192.9789 275.4057 L136.7081 331.6766 L249.2498 331.6766z" fill="rgb(255,215,0)"/>
</g>
<g stroke="rgb(0,0,139)" stroke-width="1.0627" stroke-linejoin="round" >
<path d="M129.3158 211.7426 L173.6505 197.3374 L194.8138 155.802 L180.4086 111.4673 L176.2037 112.9652 L172.0893 114.6965 L168.0785 116.6558 L164.1839 118.8369 L160.4177 121.2329
 L156.7917 123.8364 L153.3175 126.639 L150.0058 129.6321 L146.8672 132.8061 L143.9115 136.1511 L141.148 139.6566 L138.5854 143.3115
 L136.2318 147.1044 L134.0945 151.0233 L132.1803 155.0558 L130.4953 159.1893 L129.0446 163.4108 L127.833 167.707 L126.8641 172.0644
 L126.1411 176.4692 L125.6662 180.9076 L125.441 185.3657 L125.466 189.8295 L125.7413 194.2847 L126.2659 198.7176 L127.0383 203.114
 L128.056 207.4603 L129.3158 211.7426z" fill="rgb(255,215,0)"/>
</g>
<g stroke="rgb(0,0,139)" stroke-width="1.0627" stroke-linejoin="round" >
<path d="M272.5579 195.8268 L258.1527 240.1615 L279.316 281.6969 L323.6507 296.1021 L324.9105 291.8198 L325.9282 287.4736 L326.7006 283.0771 L327.2252 278.6443 L327.5005 274.189
 L327.5256 269.7253 L327.3003 265.2672 L326.8254 260.8287 L326.1024 256.4239 L325.1335 252.0665 L323.9219 247.7703 L322.4712 243.5488
 L320.7862 239.4153 L318.872 235.3828 L316.7347 231.4639 L314.3811 227.6711 L311.8185 224.0161 L309.055 220.5107 L306.0993 217.1656
 L302.9607 213.9916 L299.649 210.9986 L296.1748 208.1959 L292.5488 205.5925 L288.7826 203.1964 L284.888 201.0153 L280.8772 199.056
 L276.7628 197.3247 L272.5579 195.8268z" fill="rgb(255,215,0)"/>
</g>
<g stroke="rgb(0,0,139)" stroke-width="1.0627" stroke-linejoin="round" >
<path d="M185.2553 124.44 L211.9227 143.815 L204.6303 97.7726 L158.5879 105.065z" fill="rgb(255,215,0)"/>
</g>
</svg>
