<?xml version="1.0" encoding="utf-8" standalone="no"?>
<!DOCTYPE svg PUBLIC "-//W3C//DTD SVG 1.1//EN" "http://www.w3.org/TR/2001/REC-SVG-20010904/DTD/svg11.dtd">
<svg width="10cm" height="10cm" viewBox="0 0 378 378" overflow="hidden"
 version="1.1" xmlns="http://www.w3.org/2000/svg"  xmlns:xlink="http://www.w3.org/1999/xlink">
<!--tangram  (Utilisateur) -->
<g stroke="rgb(0,0,139)" stroke-width="1.0627" stroke-linejoin="round" >
<path d="M207.1295 174.8495 L250.8645 158.7148 L249.4637 155.3331 L247.802 152.0718 L245.8895 148.9509 L243.738 145.9896 L241.3608 143.2063
 L238.7726 140.6181 L235.9893 138.2409 L233.0281 136.0895 L229.9072 134.177 L226.6458 132.5152z" fill="rgb(255,215,0)"/>
</g>
<g stroke="rgb(0,0,139)" stroke-width="1.0627" stroke-linejoin="round" >
<path d="M207.1295 112.9516 L171.6822 82.6767 L169.4161 85.5512 L167.3826 88.5946 L165.5941 91.7882 L164.0617 95.1123 L162.7948 98.5464
 L161.8012 102.0692 L161.0871 105.6592 L160.6569 109.2941 L160.5132 112.9516 L160.6569 116.609z" fill="rgb(255,215,0)"/>
</g>
<g stroke="rgb(0,0,139)" stroke-width="1.0627" stroke-linejoin="round" >
<path d="M225.2589 156.72 L291.4093 65.6719 L287.3028 66.3775 L283.2162 67.1904 L279.1524 68.11 L275.1139 69.1356 L271.1038 70.2666
 L267.1245 71.5022 L263.179 72.8415 L259.2699 74.2836 L255.3999 75.8276 L251.5717 77.4723 L247.7878 79.2167 L244.0509 81.0596
 L240.3635 82.9996 L236.7281 85.0355 L233.1473 87.1659 L229.6234 89.3893 L226.159 91.7041 L222.7564 94.1089 L219.4178 96.6019
 L216.1457 99.1814 L212.9423 101.8457 L209.8096 104.5929 L206.75 107.4213 L203.7654 110.3287 L200.858 113.3132 L198.0297 116.3729
 L195.2824 119.5055 L192.6181 122.709 L190.0386 125.9811 L187.5456 129.3196z" fill="rgb(255,215,0)"/>
</g>
<g stroke="rgb(0,0,139)" stroke-width="1.0627" stroke-linejoin="round" >
<path d="M189 192.9789 L277.3808 123.3051 L273.237 122.8696 L269.0833 122.5427 L264.9223 122.3246 L260.7572 122.2155 L256.5905 122.2155
 L252.4253 122.3246 L248.2644 122.5427 L244.1106 122.8696 L239.9668 123.3051 L235.8359 123.849 L231.7205 124.5008 L227.6237 125.2601
 L223.5481 126.1264 L219.4966 127.099 L215.4719 128.1774 L211.4769 129.3608 L207.5142 130.6484 L203.5866 132.0392 L199.6967 133.5324
 L195.8472 135.1269 L192.0408 136.8216 L188.2801 138.6154 L184.5676 140.507 L180.9059 142.4952 L177.2975 144.5785 L173.7449 146.7555
 L170.2505 149.0248 L166.8166 151.3848 L163.4458 153.8339 L160.1402 156.3704z" fill="rgb(255,215,0)"/>
</g>
<g stroke="rgb(0,0,139)" stroke-width="1.0627" stroke-linejoin="round" >
<path d="M212.4395 179.7111 L284.7086 146.3946 L179.123 107.442z" fill="rgb(255,215,0)"/>
</g>
<g stroke="rgb(0,0,139)" stroke-width="1.0627" stroke-linejoin="round" >
<path d="M189 254.4284 L255.1675 298.6401 L233.2117 188.2609z" fill="rgb(255,215,0)"/>
</g>
<g stroke="rgb(0,0,139)" stroke-width="1.0627" stroke-linejoin="round" >
<path d="M196.9579 210.66 L189.6655 164.6177 L151.9522 137.2173 L105.9098 144.5097 L106.7315 148.8972 L107.7979 153.2317 L109.1056 157.4997 L110.6506 161.6875 L112.428 165.7822
 L114.4321 169.7708 L116.6568 173.6407 L119.0949 177.3798 L121.7389 180.9763 L124.5804 184.4189 L127.6104 187.6967 L130.8194 190.7995
 L134.1974 193.7175 L137.7337 196.4415 L141.4171 198.963 L145.2361 201.2739 L149.1787 203.367 L153.2325 205.2359 L157.3846 206.8744
 L161.6222 208.2776 L165.9317 209.441 L170.2996 210.3609 L174.7123 211.0344 L179.1558 211.4595 L183.6161 211.6347 L188.0793 211.5596
 L192.5312 211.2344 L196.9579 210.66z" fill="rgb(255,215,0)"/>
</g>
<g stroke="rgb(0,0,139)" stroke-width="1.0627" stroke-linejoin="round" >
<path d="M181.0421 210.66 L168.3886 255.5261 L191.1663 296.1986 L236.0323 308.8521 L237.123 304.5236 L237.9693 300.1408 L238.5685 295.7174 L238.9187 291.2674 L239.0189 286.8047
 L238.8686 282.3435 L238.4685 277.8977 L237.8197 273.4813 L236.9243 269.1082 L235.7852 264.7923 L234.4058 260.5469 L232.7905 256.3857
 L230.9445 252.3215 L228.8735 248.3672 L226.584 244.5353 L224.0833 240.8378 L221.3792 237.2863 L218.4802 233.892 L215.3954 230.6656
 L212.1346 227.6172 L208.708 224.7565 L205.1264 222.0924 L201.401 219.6333 L197.5437 217.387 L193.5664 215.3604 L189.4818 213.5601
 L185.3026 211.9917 L181.0421 210.66z" fill="rgb(255,215,0)"/>
</g>
<g stroke="rgb(0,0,139)" stroke-width="1.0627" stroke-linejoin="round" >
<path d="M145.2316 228.7895 L178.1943 228.7895 L145.2316 195.8268 L112.2689 228.7895z" fill="rgb(255,215,0)"/>
</g>
</svg>
