<?xml version="1.0" encoding="utf-8" standalone="no"?>
<!DOCTYPE svg PUBLIC "-//W3C//DTD SVG 1.1//EN" "http://www.w3.org/TR/2001/REC-SVG-20010904/DTD/svg11.dtd">
<svg width="10cm" height="10cm" viewBox="0 0 378 378" overflow="hidden"
 version="1.1" xmlns="http://www.w3.org/2000/svg"  xmlns:xlink="http://www.w3.org/1999/xlink">
<!--tangram  (Utilisateur) -->
<g stroke="rgb(0,0,139)" stroke-width="1.0627" stroke-linejoin="round" >
<path d="M298.1282 139.556 L251.512 139.556 A46.6163,46.6163 0 0,0 265.1656,172.5187z" fill="rgb(255,215,0)"/>
</g>
<g stroke="rgb(0,0,139)" stroke-width="1.0627" stroke-linejoin="round" >
<path d="M129.3158 149.2105 L96.3531 182.1732 L99.0409 184.6578 L101.9154 186.9239 L104.9589 188.9574 L108.1524 190.7459 L111.4765 192.2783
 L114.9106 193.5452 L118.4334 194.5388 L122.0234 195.2529 L125.6583 195.6831 L129.3158 195.8268z" fill="rgb(255,215,0)"/>
</g>
<g stroke="rgb(0,0,139)" stroke-width="1.0627" stroke-linejoin="round" >
<path d="M129.3158 195.8268 L241.8574 195.8268 A159.1579,159.1579 0 0,0 129.3158,149.2105z" fill="rgb(255,215,0)"/>
</g>
<g stroke="rgb(0,0,139)" stroke-width="1.0627" stroke-linejoin="round" >
<path d="M49.7368 228.7895 L129.3158 149.2105 L125.1495 149.2651 L120.9861 149.4286 L116.8284 149.7012 L112.6793 150.0824 L108.5415 150.5721
 L104.418 151.17 L100.3116 151.8756 L96.225 152.6885 L92.1611 153.6081 L88.1227 154.6337 L84.1125 155.7647 L80.1333 157.0003
 L76.1878 158.3396 L72.2787 159.7817 L68.4087 161.3257 L64.5804 162.9704 L60.7965 164.7148 L57.0596 166.5577 L53.3722 168.4977
 L49.7368 170.5336 L46.156 172.664 L42.6322 174.8874 L39.1678 177.2022 L35.7651 179.607 L32.4266 182.1 L29.1545 184.6795
 L25.951 187.3438 L22.8184 190.0911 L19.7587 192.9194 L16.7742 195.8268z" fill="rgb(255,215,0)"/>
</g>
<g stroke="rgb(0,0,139)" stroke-width="1.0627" stroke-linejoin="round" >
<path d="M298.1282 139.556 L241.8574 195.8268 L354.399 195.8268z" fill="rgb(255,215,0)"/>
</g>
<g stroke="rgb(0,0,139)" stroke-width="1.0627" stroke-linejoin="round" >
<path d="M208.8947 275.4057 L152.6239 331.6766 L265.1656 331.6766z" fill="rgb(255,215,0)"/>
</g>
<g stroke="rgb(0,0,139)" stroke-width="1.0627" stroke-linejoin="round" >
<path d="M208.8947 275.4057 L208.8947 228.7895 L175.9321 195.8268 L129.3158 195.8268 L129.441 200.2888 L129.8162 204.7368 L130.4402 209.1568 L131.311 213.5348 L132.4259 217.8571
 L133.7815 222.1101 L135.3734 226.2803 L137.1966 230.3548 L139.2454 234.3206 L141.5133 238.1653 L143.9933 241.8768 L146.6774 245.4435
 L149.5573 248.854 L152.6239 252.0976 L155.8676 255.1642 L159.2781 258.0441 L162.8447 260.7283 L166.5562 263.2082 L170.4009 265.4762
 L174.3667 267.5249 L178.4412 269.3482 L182.6115 270.94 L186.8645 272.2956 L191.1868 273.4105 L195.5648 274.2814 L199.9847 274.9054
 L204.4327 275.2805 L208.8947 275.4057z" fill="rgb(255,215,0)"/>
</g>
<g stroke="rgb(0,0,139)" stroke-width="1.0627" stroke-linejoin="round" >
<path d="M288.4737 195.8268 L241.8574 195.8268 L208.8947 228.7895 L208.8947 275.4057 L213.3568 275.2805 L217.8048 274.9054 L222.2247 274.2814 L226.6027 273.4105 L230.925 272.2956
 L235.178 270.94 L239.3483 269.3482 L243.4227 267.5249 L247.3886 265.4762 L251.2333 263.2082 L254.9448 260.7283 L258.5114 258.0441
 L261.9219 255.1642 L265.1656 252.0976 L268.2322 248.854 L271.1121 245.4435 L273.7962 241.8768 L276.2762 238.1653 L278.5441 234.3206
 L280.5929 230.3548 L282.4161 226.2803 L284.008 222.1101 L285.3635 217.8571 L286.4785 213.5348 L287.3493 209.1568 L287.9733 204.7368
 L288.3485 200.2888 L288.4737 195.8268z" fill="rgb(255,215,0)"/>
</g>
<g stroke="rgb(0,0,139)" stroke-width="1.0627" stroke-linejoin="round" >
<path d="M208.8947 195.8268 L241.8574 195.8268 L208.8947 228.7895 L175.9321 195.8268z" fill="rgb(255,215,0)"/>
</g>
</svg>
