<?xml version="1.0" encoding="utf-8" standalone="no"?>
<!DOCTYPE svg PUBLIC "-//W3C//DTD SVG 1.1//EN" "http://www.w3.org/TR/2001/REC-SVG-20010904/DTD/svg11.dtd">
<svg width="10cm" height="10cm" viewBox="0 0 378 378" overflow="hidden"
 version="1.1" xmlns="http://www.w3.org/2000/svg"  xmlns:xlink="http://www.w3.org/1999/xlink">
<!--tangram  (Utilisateur) -->
<g stroke="rgb(0,0,139)" stroke-width="1.0627" stroke-linejoin="round" >
<path d="M234.1873 114.2341 L211.4096 73.5616 L208.2887 75.4741 L205.3275 77.6256 L202.5442 80.0027 L199.9559 82.591 L197.5788 85.3743
 L195.4273 88.3355 L193.5148 91.4564 L191.8531 94.7178 L190.4523 98.0994 L189.3212 101.5806z" fill="rgb(255,215,0)"/>
</g>
<g stroke="rgb(0,0,139)" stroke-width="1.0627" stroke-linejoin="round" >
<path d="M141.3405 119.5441 L153.994 164.4102 L157.4752 163.2791 L160.8568 161.8784 L164.1182 160.2166 L167.2391 158.3041 L170.2003 156.1527
 L172.9836 153.7755 L175.5719 151.1873 L177.949 148.404 L180.1005 145.4427 L182.013 142.3218z" fill="rgb(255,215,0)"/>
</g>
<g stroke="rgb(0,0,139)" stroke-width="1.0627" stroke-linejoin="round" >
<path d="M156.1737 210.66 L261.7593 171.7074 L257.9529 170.0127 L254.1034 168.4182 L250.2135 166.925 L246.2859 165.5342 L242.3232 164.2466
 L238.3282 163.0632 L234.3035 161.9848 L230.252 161.0121 L226.1764 160.1459 L222.0796 159.3866 L217.9642 158.7347 L213.8333 158.1909
 L209.6895 157.7554 L205.5357 157.4285 L201.3748 157.2104 L197.2096 157.1013 L193.0429 157.1013 L188.8778 157.2104 L184.7168 157.4285
 L180.5631 157.7554 L176.4193 158.1909 L172.2883 158.7347 L168.173 159.3866 L164.0761 160.1459 L160.0005 161.0121 L155.949 161.9848
 L151.9244 163.0632 L147.9293 164.2466 L143.9666 165.5342 L140.039 166.925z" fill="rgb(255,215,0)"/>
</g>
<g stroke="rgb(0,0,139)" stroke-width="1.0627" stroke-linejoin="round" >
<path d="M97.5721 213.9563 L144.6887 111.7524 L140.7988 113.2455 L136.9494 114.84 L133.143 116.5348 L129.3822 118.3285 L125.6697 120.2201
 L122.008 122.2083 L118.3996 124.2916 L114.847 126.4687 L111.3526 128.738 L107.9188 131.098 L104.5479 133.547 L101.2423 136.0835
 L98.0042 138.7057 L94.8359 141.4117 L91.7395 144.1997 L88.7171 147.0678 L85.7709 150.0141 L82.9027 153.0364 L80.1147 156.1328
 L77.4087 159.3012 L74.7866 162.5392 L72.2501 165.8448 L69.801 169.2157 L67.441 172.6495 L65.1717 176.144 L62.9947 179.6966
 L60.9113 183.305 L58.9232 186.9667 L57.0316 190.6792 L55.2378 194.4399z" fill="rgb(255,215,0)"/>
</g>
<g stroke="rgb(0,0,139)" stroke-width="1.0627" stroke-linejoin="round" >
<path d="M299.6643 164.8778 L365.8317 209.0895 L343.876 98.7104z" fill="rgb(255,215,0)"/>
</g>
<g stroke="rgb(0,0,139)" stroke-width="1.0627" stroke-linejoin="round" >
<path d="M199.9421 275.4057 L143.6713 331.6766 L256.2129 331.6766z" fill="rgb(255,215,0)"/>
</g>
<g stroke="rgb(0,0,139)" stroke-width="1.0627" stroke-linejoin="round" >
<path d="M164.1316 239.5952 L194.4064 204.1479 L190.749 157.6754 L155.3017 127.4005 L152.499 130.8748 L149.8956 134.5007 L147.4995 138.2669 L145.3184 142.1616 L143.3591 146.1724
 L141.6278 150.2867 L140.1299 154.4917 L138.8701 158.774 L137.8524 163.1202 L137.08 167.5167 L136.5554 171.9495 L136.2801 176.4048
 L136.2551 180.8685 L136.4803 185.3266 L136.9552 189.7651 L137.6782 194.1699 L138.6471 198.5273 L139.8588 202.8235 L141.3094 207.0449
 L142.9944 211.1785 L144.9086 215.211 L147.0459 219.1299 L149.3995 222.9227 L151.9621 226.5776 L154.7256 230.0831 L157.6813 233.4281
 L160.8199 236.6022 L164.1316 239.5952z" fill="rgb(255,215,0)"/>
</g>
<g stroke="rgb(0,0,139)" stroke-width="1.0627" stroke-linejoin="round" >
<path d="M279.5211 195.8268 L323.8558 181.4216 L345.0191 139.8862 L330.6139 95.5515 L326.4089 97.0494 L322.2946 98.7807 L318.2838 100.74 L314.3891 102.9211 L310.6229 105.3171
 L306.997 107.9206 L303.5227 110.7232 L300.2111 113.7163 L297.0725 116.8903 L294.1168 120.2353 L291.3533 123.7408 L288.7907 127.3957
 L286.437 131.1886 L284.2998 135.1075 L282.3856 139.14 L280.7005 143.2735 L279.2499 147.495 L278.0383 151.7912 L277.0694 156.1486
 L276.3464 160.5534 L275.8715 164.9919 L275.6462 169.4499 L275.6713 173.9137 L275.9465 178.3689 L276.4712 182.8018 L277.2436 187.1982
 L278.2613 191.5445 L279.5211 195.8268z" fill="rgb(255,215,0)"/>
</g>
<g stroke="rgb(0,0,139)" stroke-width="1.0627" stroke-linejoin="round" >
<path d="M195.5976 155.6717 L226.5229 167.0807 L207.0065 124.7464 L164.6723 144.2628z" fill="rgb(255,215,0)"/>
</g>
</svg>
