<?xml version="1.0" encoding="utf-8" standalone="no"?>
<!DOCTYPE svg PUBLIC "-//W3C//DTD SVG 1.1//EN" "http://www.w3.org/TR/2001/REC-SVG-20010904/DTD/svg11.dtd">
<svg width="10cm" height="10cm" viewBox="0 0 378 378" overflow="hidden"
 version="1.1" xmlns="http://www.w3.org/2000/svg"  xmlns:xlink="http://www.w3.org/1999/xlink">
<!--fond  (Utilisateur) -->
<g  stroke-linejoin="round" >
<polygon fill="rgb(0,0,139)" points="0,0,0,378,378,378,378,0"/>
</g>
<!--tangram  (Utilisateur) -->
<g stroke="rgb(0,0,139)" stroke-width="1.0627" stroke-linejoin="round" >
<path d="M241.2919 117.0477 L213.8915 79.3343 L211.017 81.6004 L208.3292 84.085 L205.8446 86.7728 L203.5785 89.6473 L201.545 92.6907
 L199.7565 95.8843 L198.224 99.2084 L196.9572 102.6424 L195.9636 106.1653 L195.2495 109.7553z" fill="rgb(255,215,0)"/>
</g>
<g stroke="rgb(0,0,139)" stroke-width="1.0627" stroke-linejoin="round" >
<path d="M140.0044 122.8404 L147.2968 168.8827 L150.8868 168.1686 L154.4096 167.1751 L157.8437 165.9082 L161.1677 164.3758 L164.3613 162.5873
 L167.4048 160.5537 L170.2792 158.2877 L172.9671 155.8031 L175.4517 153.1152 L177.7178 150.2407z" fill="rgb(255,215,0)"/>
</g>
<g stroke="rgb(0,0,139)" stroke-width="1.0627" stroke-linejoin="round" >
<path d="M153.1895 209.0119 L260.2229 174.2346 L256.486 172.3917 L252.7021 170.6473 L248.8738 169.0026 L245.0038 167.4586 L241.0947 166.0165
 L237.1492 164.6772 L233.17 163.4416 L229.1598 162.3106 L225.1214 161.285 L221.0575 160.3654 L216.971 159.5525 L212.8645 158.8469
 L208.741 158.249 L204.6033 157.7593 L200.4541 157.378 L196.2964 157.1055 L192.133 156.942 L187.9667 156.8874 L183.8005 156.942
 L179.6371 157.1055 L175.4794 157.378 L171.3302 157.7593 L167.1925 158.249 L163.069 158.8469 L158.9625 159.5525 L154.876 160.3654
 L150.8121 161.285 L146.7737 162.3106 L142.7635 163.4416 L138.7843 164.6772z" fill="rgb(255,215,0)"/>
</g>
<g stroke="rgb(0,0,139)" stroke-width="1.0627" stroke-linejoin="round" >
<path d="M92.257 215.6044 L143.3499 115.3291 L139.4044 116.6684 L135.4953 118.1105 L131.6253 119.6545 L127.797 121.2993 L124.0131 123.0437
 L120.2762 124.8865 L116.5888 126.8265 L112.9534 128.8625 L109.3726 130.9928 L105.8488 133.2162 L102.3843 135.531 L98.9817 137.9358
 L95.6432 140.4288 L92.371 143.0083 L89.1676 145.6726 L86.0349 148.4199 L82.9753 151.2482 L79.9907 154.1556 L77.0833 157.1402
 L74.255 160.1998 L71.5077 163.3324 L68.8434 166.5359 L66.2639 169.808 L63.7709 173.1466 L61.3662 176.5492 L59.0513 180.0136
 L56.8279 183.5375 L54.6976 187.1183 L52.6617 190.7536 L50.7216 194.4411z" fill="rgb(255,215,0)"/>
</g>
<g stroke="rgb(0,0,139)" stroke-width="1.0627" stroke-linejoin="round" >
<path d="M299.4936 162.0643 L355.7644 218.3351 L355.7644 105.7935z" fill="rgb(255,215,0)"/>
</g>
<g stroke="rgb(0,0,139)" stroke-width="1.0627" stroke-linejoin="round" >
<path d="M200.9368 275.4057 L144.666 331.6766 L257.2077 331.6766z" fill="rgb(255,215,0)"/>
</g>
<g stroke="rgb(0,0,139)" stroke-width="1.0627" stroke-linejoin="round" >
<path d="M169.1053 243.5742 L196.5056 205.8608 L189.2132 159.8185 L151.4999 132.4181 L148.9784 136.1016 L146.6675 139.9206 L144.5743 143.8632 L142.7055 147.9169 L141.067 152.0691
 L139.6638 156.3066 L138.5004 160.6161 L137.5805 164.9841 L136.907 169.3967 L136.4819 173.8402 L136.3067 178.3006 L136.3818 182.7637
 L136.707 187.2157 L137.2814 191.6423 L138.1031 196.0298 L139.1694 200.3644 L140.4772 204.6323 L142.0222 208.8202 L143.7996 212.9148
 L145.8037 216.9034 L148.0284 220.7733 L150.4665 224.5124 L153.1105 228.1089 L155.952 231.5515 L158.982 234.8294 L162.191 237.9322
 L165.569 240.8502 L169.1053 243.5742z" fill="rgb(255,215,0)"/>
</g>
<g stroke="rgb(0,0,139)" stroke-width="1.0627" stroke-linejoin="round" >
<path d="M280.5158 195.8268 L318.2291 168.4264 L325.5215 122.3841 L298.1212 84.6707 L294.5849 87.3947 L291.2069 90.3127 L287.9979 93.4155 L284.9679 96.6934 L282.1264 100.136
 L279.4825 103.7325 L277.0443 107.4716 L274.8196 111.3415 L272.8155 115.3301 L271.0381 119.4247 L269.4931 123.6126 L268.1854 127.8805
 L267.119 132.2151 L266.2973 136.6026 L265.7229 141.0292 L265.3977 145.4812 L265.3226 149.9443 L265.4978 154.4047 L265.9229 158.8482
 L266.5964 163.2608 L267.5163 167.6288 L268.6797 171.9383 L270.0829 176.1758 L271.7215 180.328 L273.5903 184.3817 L275.6834 188.3243
 L277.9944 192.1434 L280.5158 195.8268z" fill="rgb(255,215,0)"/>
</g>
<g stroke="rgb(0,0,139)" stroke-width="1.0627" stroke-linejoin="round" >
<path d="M197.075 160.1334 L228.4244 170.3194 L207.2611 128.784 L165.7257 149.9474z" fill="rgb(255,215,0)"/>
</g>
</svg>
