<?xml version="1.0" encoding="utf-8" standalone="no"?>
<!DOCTYPE svg PUBLIC "-//W3C//DTD SVG 1.1//EN" "http://www.w3.org/TR/2001/REC-SVG-20010904/DTD/svg11.dtd">
<svg width="10cm" height="10cm" viewBox="0 0 378 378" overflow="hidden"
 version="1.1" xmlns="http://www.w3.org/2000/svg"  xmlns:xlink="http://www.w3.org/1999/xlink">
<!--tangram  (Utilisateur) -->
<g stroke="rgb(0,0,139)" stroke-width="1.0627" stroke-linejoin="round" >
<path d="M269.71 128.3018 L228.1746 107.1385 L226.6422 110.4625 L225.3753 113.8966 L224.3818 117.4195 L223.6677 121.0094 L223.2375 124.6443
 L223.0938 128.3018 L223.2375 131.9593 L223.6677 135.5942 L224.3818 139.1842 L225.3753 142.707z" fill="rgb(255,215,0)"/>
</g>
<g stroke="rgb(0,0,139)" stroke-width="1.0627" stroke-linejoin="round" >
<path d="M134.6601 136.0255 L120.2549 180.3602 L123.7777 181.3537 L127.3677 182.0678 L131.0026 182.498 L134.6601 182.6417 L138.3176 182.498
 L141.9525 182.0678 L145.5424 181.3537 L149.0653 180.3602 L152.4994 179.0933 L155.8234 177.5609z" fill="rgb(255,215,0)"/>
</g>
<g stroke="rgb(0,0,139)" stroke-width="1.0627" stroke-linejoin="round" >
<path d="M141.2526 202.4193 L252.4087 184.8139 L249.006 182.4092 L245.5416 180.0943 L242.0178 177.871 L238.437 175.7406 L234.8016 173.7047
 L231.1142 171.7647 L227.3773 169.9218 L223.5934 168.1774 L219.7651 166.5327 L215.8951 164.9887 L211.986 163.5465 L208.0405 162.2072
 L204.0613 160.9717 L200.0511 159.8407 L196.0127 158.815 L191.9488 157.8955 L187.8622 157.0826 L183.7558 156.377 L179.6323 155.7791
 L175.4946 155.2894 L171.3454 154.9081 L167.1877 154.6356 L163.0243 154.472 L158.858 154.4175 L154.6918 154.472 L150.5283 154.6356
 L146.3706 154.9081 L142.2215 155.2894 L138.0837 155.7791 L133.9602 156.377z" fill="rgb(255,215,0)"/>
</g>
<g stroke="rgb(0,0,139)" stroke-width="1.0627" stroke-linejoin="round" >
<path d="M70.9969 222.1969 L137.1472 131.1488 L133.0408 131.8545 L128.9542 132.6673 L124.8904 133.5869 L120.8519 134.6125 L116.8417 135.7435
 L112.8625 136.9791 L108.917 138.3184 L105.0079 139.7606 L101.1379 141.3045 L97.3097 142.9493 L93.5258 144.6937 L89.7889 146.5365
 L86.1014 148.4766 L82.4661 150.5125 L78.8853 152.6428 L75.3614 154.8662 L71.897 157.1811 L68.4944 159.5858 L65.1558 162.0788
 L61.8837 164.6583 L58.6802 167.3226 L55.5476 170.0699 L52.488 172.8982 L49.5034 175.8056 L46.596 178.7902 L43.7677 181.8498
 L41.0204 184.9825 L38.3561 188.1859 L35.7766 191.4581 L33.2836 194.7966z" fill="rgb(255,215,0)"/>
</g>
<g stroke="rgb(0,0,139)" stroke-width="1.0627" stroke-linejoin="round" >
<clipPath id="Clip1">
<rect x="0" y="0" width="10cm" height="10cm"/>
</clipPath>
<path d="M298.8109 150.8101 L298.8109 230.3891 L378.3899 150.8101z" fill="rgb(255,215,0)" clip-path="url(#Clip1)"/>
</g>
<g stroke="rgb(0,0,139)" stroke-width="1.0627" stroke-linejoin="round" >
<path d="M204.9158 275.4057 L148.645 331.6766 L261.1866 331.6766z" fill="rgb(255,215,0)"/>
</g>
<g stroke="rgb(0,0,139)" stroke-width="1.0627" stroke-linejoin="round" >
<path d="M189 259.49 L203.4052 215.1552 L182.2419 173.6198 L137.9072 159.2146 L136.6474 163.497 L135.6297 167.8432 L134.8573 172.2396 L134.3327 176.6725 L134.0574 181.1278
 L134.0323 185.5915 L134.2576 190.0496 L134.7325 194.488 L135.4555 198.8929 L136.4244 203.2502 L137.636 207.5464 L139.0867 211.7679
 L140.7717 215.9014 L142.6859 219.934 L144.8232 223.8528 L147.1768 227.6457 L149.7394 231.3006 L152.5029 234.8061 L155.4586 238.1511
 L158.5972 241.3251 L161.9089 244.3182 L165.3831 247.1208 L169.0091 249.7243 L172.7753 252.1203 L176.6699 254.3014 L180.6807 256.2607
 L184.795 257.992 L189 259.49z" fill="rgb(255,215,0)"/>
</g>
<g stroke="rgb(0,0,139)" stroke-width="1.0627" stroke-linejoin="round" >
<path d="M284.4947 195.8268 L270.0895 151.4921 L228.5541 130.3287 L184.2194 144.734 L185.7173 148.9389 L187.4486 153.0533 L189.4079 157.0641 L191.589 160.9587 L193.9851 164.7249
 L196.5885 168.3509 L199.3912 171.8251 L202.3842 175.1368 L205.5583 178.2754 L208.9033 181.2311 L212.4088 183.9946 L216.0637 186.5572
 L219.8565 188.9108 L223.7754 191.0481 L227.8079 192.9622 L231.9415 194.6473 L236.1629 196.0979 L240.4591 197.3096 L244.8165 198.2784
 L249.2213 199.0015 L253.6598 199.4763 L258.1179 199.7016 L262.5816 199.6766 L267.0369 199.4013 L271.4697 198.8766 L275.8662 198.1043
 L280.2124 197.0866 L284.4947 195.8268z" fill="rgb(255,215,0)"/>
</g>
<g stroke="rgb(0,0,139)" stroke-width="1.0627" stroke-linejoin="round" >
<path d="M202.9849 177.9801 L235.5417 183.1366 L208.1414 145.4232 L170.428 172.8236z" fill="rgb(255,215,0)"/>
</g>
</svg>
