<?xml version="1.0" encoding="utf-8" standalone="no"?>
<!DOCTYPE svg PUBLIC "-//W3C//DTD SVG 1.1//EN" "http://www.w3.org/TR/2001/REC-SVG-20010904/DTD/svg11.dtd">
<svg width="10cm" height="10cm" viewBox="0 0 378 378" overflow="hidden"
 version="1.1" xmlns="http://www.w3.org/2000/svg"  xmlns:xlink="http://www.w3.org/1999/xlink">
<!--tangram  (Utilisateur) -->
<g stroke="rgb(0,0,139)" stroke-width="1.0627" stroke-linejoin="round" >
<path d="M189 149.2105 L221.9627 116.2478 L219.2748 113.7632 L216.4004 111.4972 L213.3569 109.4636 L210.1633 107.6751 L206.8393 106.1427
 L203.4052 104.8758 L199.8824 103.8823 L196.2924 103.1682 L192.6575 102.738 L189 102.5943z" fill="rgb(255,215,0)"/>
</g>
<g stroke="rgb(0,0,139)" stroke-width="1.0627" stroke-linejoin="round" >
<path d="M189 149.2105 L189 102.5943 L185.3425 102.738 L181.7076 103.1682 L178.1176 103.8823 L174.5948 104.8758 L171.1607 106.1427
 L167.8367 107.6751 L164.6431 109.4636 L161.5996 111.4972 L158.7252 113.7632 L156.0373 116.2478z" fill="rgb(255,215,0)"/>
</g>
<g stroke="rgb(0,0,139)" stroke-width="1.0627" stroke-linejoin="round" >
<path d="M189 149.2105 L268.5789 228.7895 L268.5244 224.6232 L268.3608 220.4598 L268.0883 216.3021 L267.7071 212.1529 L267.2173 208.0152
 L266.6194 203.8917 L265.9138 199.7853 L265.101 195.6987 L264.1814 191.6348 L263.1558 187.5964 L262.0248 183.5862 L260.7892 179.607
 L259.4499 175.6615 L258.0077 171.7524 L256.4638 167.8824 L254.819 164.0541 L253.0746 160.2702 L251.2318 156.5333 L249.2917 152.8459
 L247.2558 149.2105 L245.1255 145.6297 L242.9021 142.1059 L240.5872 138.6414 L238.1825 135.2388 L235.6895 131.9003 L233.11 128.6282
 L230.4457 125.4247 L227.6984 122.2921 L224.8701 119.2324 L221.9627 116.2478z" fill="rgb(255,215,0)"/>
</g>
<g stroke="rgb(0,0,139)" stroke-width="1.0627" stroke-linejoin="round" >
<path d="M189 149.2105 L109.4211 228.7895 L109.4756 224.6232 L109.6392 220.4598 L109.9117 216.3021 L110.2929 212.1529 L110.7827 208.0152
 L111.3806 203.8917 L112.0862 199.7853 L112.899 195.6987 L113.8186 191.6348 L114.8442 187.5964 L115.9752 183.5862 L117.2108 179.607
 L118.5501 175.6615 L119.9923 171.7524 L121.5362 167.8824 L123.181 164.0541 L124.9254 160.2702 L126.7682 156.5333 L128.7083 152.8459
 L130.7442 149.2105 L132.8745 145.6297 L135.0979 142.1059 L137.4128 138.6414 L139.8175 135.2388 L142.3105 131.9003 L144.89 128.6282
 L147.5543 125.4247 L150.3016 122.2921 L153.1299 119.2324 L156.0373 116.2478z" fill="rgb(255,215,0)"/>
</g>
<g stroke="rgb(0,0,139)" stroke-width="1.0627" stroke-linejoin="round" >
<path d="M189 228.7895 L268.5789 228.7895 L189 149.2105z" fill="rgb(255,215,0)"/>
</g>
<g stroke="rgb(0,0,139)" stroke-width="1.0627" stroke-linejoin="round" >
<path d="M189 228.7895 L189 149.2105 L109.4211 228.7895z" fill="rgb(255,215,0)"/>
</g>
<g stroke="rgb(0,0,139)" stroke-width="1.0627" stroke-linejoin="round" >
<path d="M109.4211 228.7895 L156.0373 228.7895 L189 261.7522 L189 308.3684 A79.5789,79.5789 0 0,1 109.4211,228.7895z" fill="rgb(255,215,0)"/>
</g>
<g stroke="rgb(0,0,139)" stroke-width="1.0627" stroke-linejoin="round" >
<path d="M268.5789 228.7895 L221.9627 228.7895 L189 261.7522 L189 308.3684 L193.462 308.2432 L197.91 307.868 L202.33 307.2441 L206.708 306.3732 L211.0303 305.2583
 L215.2833 303.9027 L219.4535 302.3108 L223.528 300.4876 L227.4938 298.4388 L231.3386 296.1709 L235.0501 293.6909 L238.6167 291.0068
 L242.0272 288.1269 L245.2708 285.0603 L248.3374 281.8166 L251.2173 278.4061 L253.9015 274.8395 L256.3814 271.128 L258.6494 267.2833
 L260.6982 263.3175 L262.5214 259.243 L264.1132 255.0727 L265.4688 250.8198 L266.5837 246.4975 L267.4546 242.1194 L268.0786 237.6995
 L268.4538 233.2515 L268.5789 228.7895z" fill="rgb(255,215,0)"/>
</g>
<g stroke="rgb(0,0,139)" stroke-width="1.0627" stroke-linejoin="round" >
<path d="M189 228.7895 L221.9627 228.7895 L189 261.7522 L156.0373 228.7895z" fill="rgb(255,215,0)"/>
</g>
</svg>
