<?xml version="1.0" encoding="utf-8" standalone="no"?>
<!DOCTYPE svg PUBLIC "-//W3C//DTD SVG 1.1//EN" "http://www.w3.org/TR/2001/REC-SVG-20010904/DTD/svg11.dtd">
<svg width="10cm" height="10cm" viewBox="0 0 378 378" overflow="hidden"
 version="1.1" xmlns="http://www.w3.org/2000/svg"  xmlns:xlink="http://www.w3.org/1999/xlink">
<!--tangram  (Utilisateur) -->
<g stroke="rgb(0,0,139)" stroke-width="1.0627" stroke-linejoin="round" >
<path d="M95.9532 256.6421 L85.0709 211.3138 L81.548 212.3074 L78.1139 213.5743 L74.7899 215.1067 L71.5963 216.8952 L68.5529 218.9288
 L65.6784 221.1948 L62.9905 223.6794 L60.5059 226.3673 L58.2399 229.2418 L56.2063 232.2852z" fill="rgb(255,215,0)"/>
</g>
<g stroke="rgb(0,0,139)" stroke-width="1.0627" stroke-linejoin="round" >
<path d="M128.5846 256.9734 L164.0319 287.2482 L166.2979 284.3738 L168.3315 281.3303 L170.12 278.1367 L171.6524 274.8127 L172.9193 271.3786
 L173.9129 267.8557 L174.6269 264.2658 L175.0572 260.6309 L175.2009 256.9734 L175.0572 253.3159z" fill="rgb(255,215,0)"/>
</g>
<g stroke="rgb(0,0,139)" stroke-width="1.0627" stroke-linejoin="round" >
<path d="M253.5115 200.9368 L364.6675 183.3315 L362.1745 186.67 L359.595 189.9421 L356.9307 193.1456 L354.1835 196.2782 L351.3552 199.3379
 L348.4477 202.3224 L345.4632 205.2298 L342.4035 208.0582 L339.2709 210.8054 L336.0674 213.4697 L332.7953 216.0492 L329.4568 218.5422
 L326.0541 220.947 L322.5897 223.2618 L319.0659 225.4852 L315.485 227.6156 L311.8497 229.6515 L308.1623 231.5915 L304.4253 233.4344
 L300.6414 235.1788 L296.8132 236.8235 L292.9432 238.3675 L289.0341 239.8096 L285.0886 241.1489 L281.1094 242.3845 L277.0992 243.5155
 L273.0608 244.5411 L268.9969 245.4607 L264.9103 246.2736 L260.8039 246.9792z" fill="rgb(255,215,0)"/>
</g>
<g stroke="rgb(0,0,139)" stroke-width="1.0627" stroke-linejoin="round" >
<path d="M216.4527 224.0107 L120.4952 165.2079 L121.5208 169.2463 L122.6518 173.2565 L123.8874 177.2357 L125.2267 181.1812 L126.6689 185.0903
 L128.2128 188.9603 L129.8576 192.7886 L131.602 196.5724 L133.4448 200.3094 L135.3849 203.9968 L137.4208 207.6322 L139.5512 211.213
 L141.7745 214.7368 L144.0894 218.2012 L146.4941 221.6039 L148.9871 224.9424 L151.5667 228.2145 L154.231 231.418 L156.9782 234.5506
 L159.8065 237.6103 L162.7139 240.5948 L165.6985 243.5023 L168.7581 246.3306 L171.8908 249.0778 L175.0943 251.7421 L178.3664 254.3217
 L181.7049 256.8146 L185.1075 259.2194 L188.572 261.5342 L192.0958 263.7576z" fill="rgb(255,215,0)"/>
</g>
<g stroke="rgb(0,0,139)" stroke-width="1.0627" stroke-linejoin="round" >
<path d="M81.9683 224.0107 L161.5473 224.0107 L81.9683 303.5897z" fill="rgb(255,215,0)"/>
</g>
<g stroke="rgb(0,0,139)" stroke-width="1.0627" stroke-linejoin="round" >
<path d="M214.9217 240.3264 L245.3753 313.8478 L288.4431 209.8729z" fill="rgb(255,215,0)"/>
</g>
<g stroke="rgb(0,0,139)" stroke-width="1.0627" stroke-linejoin="round" >
<path d="M133.012 210.0258 L178.3402 199.1435 L202.6972 159.3966 L191.8148 114.0683 L187.5053 115.2317 L183.2678 116.6349 L179.1156 118.2734 L175.0619 120.1423 L171.1193 122.2354
 L167.3002 124.5463 L163.6168 127.0678 L160.0805 129.7918 L156.7026 132.7098 L153.4935 135.8126 L150.4635 139.0904 L147.622 142.533
 L144.9781 146.1295 L142.5399 149.8686 L140.3153 153.7385 L138.3111 157.7271 L136.5337 161.8218 L134.9887 166.0096 L133.681 170.2776
 L132.6146 174.6121 L131.7929 178.9996 L131.2186 183.4263 L130.8933 187.8782 L130.8182 192.3414 L130.9934 196.8017 L131.4185 201.2452
 L132.0921 205.6579 L133.012 210.0258z" fill="rgb(255,215,0)"/>
</g>
<g stroke="rgb(0,0,139)" stroke-width="1.0627" stroke-linejoin="round" >
<path d="M254.3113 224.0107 L214.5644 199.6538 L169.2361 210.5361 L144.8792 250.283 L148.7491 252.5077 L152.7377 254.5119 L156.8323 256.2892 L161.0202 257.8342 L165.2882 259.142
 L169.6227 260.2084 L174.0102 261.03 L178.4369 261.6044 L182.8888 261.9296 L187.3519 262.0048 L191.8123 261.8295 L196.2558 261.4045
 L200.6685 260.7309 L205.0364 259.811 L209.3459 258.6476 L213.5834 257.2445 L217.7356 255.6059 L221.7894 253.7371 L225.7319 251.6439
 L229.551 249.333 L233.2344 246.8116 L236.7707 244.0876 L240.1487 241.1696 L243.3577 238.0668 L246.3877 234.7889 L249.2292 231.3463
 L251.8731 227.7498 L254.3113 224.0107z" fill="rgb(255,215,0)"/>
</g>
<g stroke="rgb(0,0,139)" stroke-width="1.0627" stroke-linejoin="round" >
<path d="M214.9217 136.8738 L212.3355 104.0127 L182.0607 139.46 L217.5079 169.7348z" fill="rgb(255,215,0)"/>
</g>
</svg>
