<?xml version="1.0" encoding="utf-8" standalone="no"?>
<!DOCTYPE svg PUBLIC "-//W3C//DTD SVG 1.1//EN" "http://www.w3.org/TR/2001/REC-SVG-20010904/DTD/svg11.dtd">
<svg width="10cm" height="10cm" viewBox="0 0 378 378" overflow="hidden"
 version="1.1" xmlns="http://www.w3.org/2000/svg"  xmlns:xlink="http://www.w3.org/1999/xlink">
<!--tangram  (Utilisateur) -->
<g stroke="rgb(0,0,139)" stroke-width="1.0627" stroke-linejoin="round" >
<path d="M193.9444 156.203 L230.5529 127.3431 L228.1758 124.5598 L225.5876 121.9716 L222.8043 119.5944 L219.843 117.443 L216.7221 115.5305
 L213.4608 113.8687 L210.0791 112.468 L206.5979 111.3369 L203.0388 110.4824 L199.4236 109.9098z" fill="rgb(255,215,0)"/>
</g>
<g stroke="rgb(0,0,139)" stroke-width="1.0627" stroke-linejoin="round" >
<path d="M193.9444 139.3217 L183.0621 93.9935 L179.5392 94.987 L176.1051 96.2539 L172.7811 97.7863 L169.5875 99.5748 L166.544 101.6084
 L163.6696 103.8744 L160.9817 106.359 L158.4971 109.0469 L156.231 111.9214 L154.1975 114.9648z" fill="rgb(255,215,0)"/>
</g>
<g stroke="rgb(0,0,139)" stroke-width="1.0627" stroke-linejoin="round" >
<path d="M198.8888 151.2586 L305.9223 186.0358 L303.9822 182.3484 L301.9463 178.7131 L299.8159 175.1322 L297.5926 171.6084 L295.2777 168.144
 L292.873 164.7413 L290.38 161.4028 L287.8004 158.1307 L285.1361 154.9272 L282.3889 151.7946 L279.5606 148.7349 L276.6532 145.7504
 L273.6686 142.843 L270.6089 140.0146 L267.4763 137.2674 L264.2728 134.6031 L261.0007 132.0236 L257.6622 129.5306 L254.2596 127.1258
 L250.7951 124.811 L247.2713 122.5876 L243.6905 120.4572 L240.0551 118.4213 L236.3677 116.4813 L232.6308 114.6384 L228.8469 112.894
 L225.0186 111.2493 L221.1486 109.7053 L217.2395 108.2632 L213.294 106.9239z" fill="rgb(255,215,0)"/>
</g>
<g stroke="rgb(0,0,139)" stroke-width="1.0627" stroke-linejoin="round" >
<path d="M189 161.1474 L193.4184 273.6022 L196.2064 270.5058 L198.9124 267.3375 L201.5345 264.0994 L204.071 260.7938 L206.5201 257.4229
 L208.8801 253.9891 L211.1494 250.4947 L213.3265 246.9421 L215.4098 243.3337 L217.3979 239.672 L219.2895 235.9595 L221.0833 232.1987
 L222.778 228.3923 L224.3725 224.5429 L225.8657 220.653 L227.2565 216.7254 L228.5441 212.7627 L229.7275 208.7676 L230.8059 204.743
 L231.7786 200.6915 L232.6449 196.6159 L233.4042 192.519 L234.056 188.4037 L234.5998 184.2727 L235.0354 180.1289 L235.3623 175.9752
 L235.5803 171.8142 L235.6894 167.649 L235.6894 163.4824 L235.5803 159.3172z" fill="rgb(255,215,0)"/>
</g>
<g stroke="rgb(0,0,139)" stroke-width="1.0627" stroke-linejoin="round" >
<path d="M195.3926 215.4044 L274.4199 206.0509 L186.0391 136.3771z" fill="rgb(255,215,0)"/>
</g>
<g stroke="rgb(0,0,139)" stroke-width="1.0627" stroke-linejoin="round" >
<path d="M189 235.7819 L233.2117 169.6144 L122.8325 191.5702z" fill="rgb(255,215,0)"/>
</g>
<g stroke="rgb(0,0,139)" stroke-width="1.0627" stroke-linejoin="round" >
<path d="M133.2947 223.8451 L174.8301 202.6817 L189.2354 158.347 L168.072 116.8116 L164.1532 118.9489 L160.3603 121.3025 L156.7054 123.8651 L153.1999 126.6286 L149.8549 129.5843
 L146.6808 132.7229 L143.6878 136.0346 L140.8851 139.5089 L138.2817 143.1348 L135.8856 146.901 L133.7045 150.7956 L131.7453 154.8064
 L130.0139 158.9208 L128.516 163.1257 L127.2562 167.4081 L126.2386 171.7543 L125.4662 176.1507 L124.9415 180.5836 L124.6662 185.0389
 L124.6412 189.5026 L124.8665 193.9607 L125.3414 198.3991 L126.0644 202.804 L127.0332 207.1613 L128.2449 211.4575 L129.6955 215.679
 L131.3806 219.8125 L133.2947 223.8451z" fill="rgb(255,215,0)"/>
</g>
<g stroke="rgb(0,0,139)" stroke-width="1.0627" stroke-linejoin="round" >
<path d="M244.7053 223.8451 L200.9703 239.9798 L181.4539 282.314 L197.5886 326.049 L201.7315 324.3871 L205.7747 322.4956 L209.7055 320.3804 L213.5115 318.0481 L217.1808 315.506
 L220.7017 312.7622 L224.0632 309.8253 L227.2548 306.7046 L230.2664 303.4098 L233.0885 299.9513 L235.7123 296.34 L238.1294 292.5873
 L240.3323 288.705 L242.3141 284.7052 L244.0684 280.6006 L245.5899 276.4041 L246.8737 272.129 L247.9157 267.7885 L248.7128 263.3965
 L249.2623 258.9666 L249.5626 254.513 L249.6127 250.0495 L249.4124 245.5902 L248.9624 241.1491 L248.2641 236.7403 L247.3197 232.3776
 L246.1322 228.0746 L244.7053 223.8451z" fill="rgb(255,215,0)"/>
</g>
<g stroke="rgb(0,0,139)" stroke-width="1.0627" stroke-linejoin="round" >
<path d="M177.0632 228.7895 L210.0258 228.7895 L177.0632 195.8268 L144.1005 228.7895z" fill="rgb(255,215,0)"/>
</g>
</svg>
