<?xml version="1.0" encoding="utf-8" standalone="no"?>
<!DOCTYPE svg PUBLIC "-//W3C//DTD SVG 1.1//EN" "http://www.w3.org/TR/2001/REC-SVG-20010904/DTD/svg11.dtd">
<svg width="10cm" height="10cm" viewBox="0 0 378 378" overflow="hidden"
 version="1.1" xmlns="http://www.w3.org/2000/svg"  xmlns:xlink="http://www.w3.org/1999/xlink">
<!--fond  (Utilisateur) -->
<g  stroke-linejoin="round" >
<polygon fill="rgb(0,0,139)" points="0,0,0,378,378,378,378,0"/>
</g>
<!--tangram  (Utilisateur) -->
<g stroke="rgb(0,0,139)" stroke-width="1.0627" stroke-linejoin="round" >
<path d="M138.7562 244.7053 L117.5928 203.1699 L114.3992 204.9584 L111.3558 206.9919 L108.4813 209.258 L105.7935 211.7426 L103.3089 214.4304
 L101.0428 217.3049 L99.0093 220.3483 L97.2208 223.5419 L95.6884 226.866 L94.4215 230.3z" fill="rgb(255,215,0)"/>
</g>
<g stroke="rgb(0,0,139)" stroke-width="1.0627" stroke-linejoin="round" >
<path d="M157.4027 259.0214 L164.6951 305.0638 L168.285 304.3497 L171.8079 303.3561 L175.242 302.0893 L178.566 300.5568 L181.7596 298.7683
 L184.803 296.7348 L187.6775 294.4687 L190.3654 291.9841 L192.85 289.2963 L195.116 286.4218z" fill="rgb(255,215,0)"/>
</g>
<g stroke="rgb(0,0,139)" stroke-width="1.0627" stroke-linejoin="round" >
<path d="M228.7895 212.8737 L279.8823 112.5984 L281.1179 116.5776 L282.2489 120.5878 L283.2745 124.6262 L284.1941 128.6901 L285.0069 132.7766
 L285.7125 136.8831 L286.3104 141.0066 L286.8002 145.1443 L287.1814 149.2935 L287.4539 153.4512 L287.6175 157.6146 L287.672 161.7809
 L287.6175 165.9471 L287.4539 170.1105 L287.1814 174.2682 L286.8002 178.4174 L286.3104 182.5551 L285.7125 186.6786 L285.0069 190.7851
 L284.1941 194.8716 L283.2745 198.9355 L282.2489 202.9739 L281.1179 206.9841 L279.8823 210.9633 L278.543 214.9089 L277.1008 218.8179
 L275.5569 222.6879 L273.9121 226.5162 L272.1677 230.3001 L270.3249 234.037z" fill="rgb(255,215,0)"/>
</g>
<g stroke="rgb(0,0,139)" stroke-width="1.0627" stroke-linejoin="round" >
<path d="M187.6346 226.0588 L80.6012 191.2815 L82.5412 194.9689 L84.5771 198.6043 L86.7075 202.1851 L88.9309 205.7089 L91.2457 209.1733
 L93.6505 212.576 L96.1435 215.9145 L98.723 219.1866 L101.3873 222.3901 L104.1346 225.5227 L106.9629 228.5824 L109.8703 231.5669
 L112.8549 234.4744 L115.9145 237.3027 L119.0471 240.0499 L122.2506 242.7142 L125.5227 245.2938 L128.8613 247.7868 L132.2639 250.1915
 L135.7283 252.5064 L139.2521 254.7297 L142.833 256.8601 L146.4683 258.896 L150.1557 260.836 L153.8927 262.6789 L157.6766 264.4233
 L161.5048 266.068 L165.3748 267.612 L169.2839 269.0541 L173.2294 270.3935z" fill="rgb(255,215,0)"/>
</g>
<g stroke="rgb(0,0,139)" stroke-width="1.0627" stroke-linejoin="round" >
<path d="M110.7864 226.0588 L190.3654 226.0588 L110.7864 305.6377z" fill="rgb(255,215,0)"/>
</g>
<g stroke="rgb(0,0,139)" stroke-width="1.0627" stroke-linejoin="round" >
<path d="M240.8434 235.382 L320.4224 235.382 L240.8434 155.8031z" fill="rgb(255,215,0)"/>
</g>
<g stroke="rgb(0,0,139)" stroke-width="1.0627" stroke-linejoin="round" >
<path d="M179.911 198.089 L221.4464 176.9257 L235.8516 132.5909 L214.6883 91.0555 L210.7694 93.1928 L206.9766 95.5464 L203.3216 98.109 L199.8162 100.8725 L196.4711 103.8283
 L193.2971 106.9669 L190.3041 110.2785 L187.5014 113.7528 L184.898 117.3787 L182.5019 121.1449 L180.3208 125.0396 L178.3615 129.0504
 L176.6302 133.1647 L175.1323 137.3697 L173.8725 141.652 L172.8548 145.9982 L172.0824 150.3947 L171.5578 154.8275 L171.2825 159.2828
 L171.2575 163.7465 L171.4827 168.2046 L171.9576 172.6431 L172.6806 177.0479 L173.6495 181.4053 L174.8611 185.7015 L176.3118 189.9229
 L177.9968 194.0565 L179.911 198.089z" fill="rgb(255,215,0)"/>
</g>
<g stroke="rgb(0,0,139)" stroke-width="1.0627" stroke-linejoin="round" >
<path d="M263.3518 226.0588 L219.0171 211.6535 L177.4817 232.8169 L163.0764 277.1516 L167.3588 278.4114 L171.705 279.429 L176.1014 280.2014 L180.5343 280.7261 L184.9896 281.0014
 L189.4533 281.0264 L193.9114 280.8011 L198.3498 280.3262 L202.7547 279.6032 L207.112 278.6344 L211.4082 277.4227 L215.6297 275.9721
 L219.7632 274.287 L223.7958 272.3729 L227.7146 270.2356 L231.5075 267.882 L235.1624 265.3194 L238.6679 262.5559 L242.0129 259.6002
 L245.1869 256.4615 L248.18 253.1499 L250.9827 249.6756 L253.5861 246.0497 L255.9821 242.2835 L258.1632 238.3889 L260.1225 234.3781
 L261.8539 230.2637 L263.3518 226.0588z" fill="rgb(255,215,0)"/>
</g>
<g stroke="rgb(0,0,139)" stroke-width="1.0627" stroke-linejoin="round" >
<path d="M240.8434 108.0557 L260.2184 81.3883 L214.1761 88.6807 L221.4685 134.7231z" fill="rgb(255,215,0)"/>
</g>
</svg>
