<?xml version="1.0" encoding="utf-8" standalone="no"?>
<!DOCTYPE svg PUBLIC "-//W3C//DTD SVG 1.1//EN" "http://www.w3.org/TR/2001/REC-SVG-20010904/DTD/svg11.dtd">
<svg width="10cm" height="10cm" viewBox="0 0 378 378" overflow="hidden"
 version="1.1" xmlns="http://www.w3.org/2000/svg"  xmlns:xlink="http://www.w3.org/1999/xlink">
<!--fond  (Utilisateur) -->
<g  stroke-linejoin="round" >
<polygon fill="rgb(0,0,139)" points="0,0,0,378,378,378,378,0"/>
</g>
<!--tangram  (Utilisateur) -->
<g stroke="rgb(0,0,139)" stroke-width="1.0627" stroke-linejoin="round" >
<path d="M190.2825 227.3413 L165.9256 187.5944 L162.8822 189.6279 L160.0077 191.894 L157.3199 194.3786 L154.8352 197.0664 L152.5692 199.9409
 L150.5356 202.9844 L148.7471 206.1779 L147.2147 209.502 L145.9478 212.9361 L144.9543 216.4589z" fill="rgb(255,215,0)"/>
</g>
<g stroke="rgb(0,0,139)" stroke-width="1.0627" stroke-linejoin="round" >
<path d="M197.275 248.3671 L177.7586 290.7014 L181.1403 292.1021 L184.6214 293.2332 L188.1806 294.0877 L191.7958 294.6603 L195.4448 294.9475
 L199.1051 294.9475 L202.7541 294.6603 L206.3694 294.0877 L209.9285 293.2332 L213.4097 292.1021z" fill="rgb(255,215,0)"/>
</g>
<g stroke="rgb(0,0,139)" stroke-width="1.0627" stroke-linejoin="round" >
<path d="M197.275 220.3489 L175.3192 109.9697 L173.0499 113.4641 L170.8728 117.0167 L168.7895 120.6251 L166.8014 124.2868 L164.9098 127.9993
 L163.116 131.7601 L161.4213 135.5665 L159.8268 139.4159 L158.3336 143.3058 L156.9427 147.2334 L155.6552 151.1961 L154.4718 155.1912
 L153.3934 159.2158 L152.4207 163.2673 L151.5544 167.3429 L150.7951 171.4398 L150.1433 175.5551 L149.5995 179.6861 L149.1639 183.8299
 L148.837 187.9836 L148.619 192.1446 L148.5099 196.3098 L148.5099 200.4764 L148.619 204.6416 L148.837 208.8025 L149.1639 212.9563
 L149.5995 217.1001 L150.1433 221.2311 L150.7951 225.3464 L151.5544 229.4432z" fill="rgb(255,215,0)"/>
</g>
<g stroke="rgb(0,0,139)" stroke-width="1.0627" stroke-linejoin="round" >
<path d="M162.5956 215.4044 L62.3202 164.3116 L63.6595 168.2571 L65.1017 172.1662 L66.6457 176.0362 L68.2904 179.8645 L70.0348 183.6484
 L71.8777 187.3853 L73.8177 191.0727 L75.8536 194.7081 L77.984 198.2889 L80.2073 201.8127 L82.5222 205.2772 L84.9269 208.6798
 L87.4199 212.0183 L89.9995 215.2904 L92.6638 218.4939 L95.411 221.6265 L98.2393 224.6862 L101.1468 227.6708 L104.1313 230.5782
 L107.191 233.4065 L110.3236 236.1537 L113.5271 238.818 L116.7992 241.3976 L120.1377 243.8906 L123.5404 246.2953 L127.0048 248.6102
 L130.5286 250.8335 L134.1094 252.9639 L137.7448 254.9998 L141.4322 256.9398z" fill="rgb(255,215,0)"/>
</g>
<g stroke="rgb(0,0,139)" stroke-width="1.0627" stroke-linejoin="round" >
<path d="M149.2105 228.7895 L228.2379 238.143 L158.564 149.7621z" fill="rgb(255,215,0)"/>
</g>
<g stroke="rgb(0,0,139)" stroke-width="1.0627" stroke-linejoin="round" >
<path d="M256.4765 228.7895 L300.6882 162.622 L190.309 184.5778z" fill="rgb(255,215,0)"/>
</g>
<g stroke="rgb(0,0,139)" stroke-width="1.0627" stroke-linejoin="round" >
<path d="M236.8988 180.725 L269.8615 147.7623 L269.8615 101.1461 L236.8988 68.1834 L233.8322 71.4271 L230.9523 74.8375 L228.2681 78.4042 L225.7882 82.1157 L223.5203 85.9604
 L221.4715 89.9262 L219.6483 94.0007 L218.0564 98.171 L216.7008 102.4239 L215.5859 106.7462 L214.715 111.1242 L214.091 115.5442
 L213.7159 119.9922 L213.5907 124.4542 L213.7159 128.9162 L214.091 133.3642 L214.715 137.7842 L215.5859 142.1622 L216.7008 146.4845
 L218.0564 150.7375 L219.6483 154.9078 L221.4715 158.9822 L223.5203 162.9481 L225.7882 166.7928 L228.2681 170.5043 L230.9523 174.0709
 L233.8322 177.4814 L236.8988 180.725z" fill="rgb(255,215,0)"/>
</g>
<g stroke="rgb(0,0,139)" stroke-width="1.0627" stroke-linejoin="round" >
<path d="M245.9878 232.2857 L204.4524 211.1224 L160.1177 225.5276 L138.9544 267.063 L142.9869 268.9771 L147.1204 270.6622 L151.3419 272.1128 L155.6381 273.3245 L159.9955 274.2933
 L164.4003 275.0163 L168.8387 275.4912 L173.2968 275.7165 L177.7606 275.6915 L182.2158 275.4162 L186.6487 274.8915 L191.0451 274.1191
 L195.3914 273.1015 L199.6737 271.8417 L203.8786 270.3438 L207.993 268.6125 L212.0038 266.6532 L215.8984 264.4721 L219.6646 262.076
 L223.2906 259.4726 L226.7648 256.6699 L230.0765 253.6769 L233.2151 250.5028 L236.1708 247.1578 L238.9343 243.6523 L241.4969 239.9974
 L243.8505 236.2046 L245.9878 232.2857z" fill="rgb(255,215,0)"/>
</g>
<g stroke="rgb(0,0,139)" stroke-width="1.0627" stroke-linejoin="round" >
<path d="M248.0358 97.0015 L280.9985 97.0015 L248.0358 129.9642 L215.0732 97.0015z" fill="rgb(255,215,0)"/>
</g>
</svg>
