<?xml version="1.0" encoding="utf-8" standalone="no"?>
<!DOCTYPE svg PUBLIC "-//W3C//DTD SVG 1.1//EN" "http://www.w3.org/TR/2001/REC-SVG-20010904/DTD/svg11.dtd">
<svg width="10cm" height="10cm" viewBox="0 0 378 378" overflow="hidden"
 version="1.1" xmlns="http://www.w3.org/2000/svg"  xmlns:xlink="http://www.w3.org/1999/xlink">
<!--fond  (Utilisateur) -->
<g  stroke-linejoin="round" >
<polygon fill="rgb(0,0,139)" points="0,0,0,378,378,378,378,0"/>
</g>
<!--tangram  (Utilisateur) -->
<g stroke="rgb(0,0,139)" stroke-width="1.0627" stroke-linejoin="round" >
<path d="M173.6498 222.9967 L180.9422 176.9544 L177.3072 176.5242 L173.6498 176.3805 L169.9923 176.5242 L166.3574 176.9544 L162.7674 177.6685
 L159.2445 178.662 L155.8105 179.9289 L152.4864 181.4613 L149.2928 183.2498 L146.2494 185.2834z" fill="rgb(255,215,0)"/>
</g>
<g stroke="rgb(0,0,139)" stroke-width="1.0627" stroke-linejoin="round" >
<path d="M201.6195 208.2121 L229.0199 245.9254 L231.8944 243.6593 L234.5822 241.1747 L237.0668 238.4869 L239.3329 235.6124 L241.3664 232.569
 L243.1549 229.3754 L244.6873 226.0513 L245.9542 222.6173 L246.9478 219.0944 L247.6619 215.5044z" fill="rgb(255,215,0)"/>
</g>
<g stroke="rgb(0,0,139)" stroke-width="1.0627" stroke-linejoin="round" >
<path d="M201.6195 195.027 L314.1611 195.027 A159.1579,159.1579 0 0,0 201.6195,148.4107z" fill="rgb(255,215,0)"/>
</g>
<g stroke="rgb(0,0,139)" stroke-width="1.0627" stroke-linejoin="round" >
<path d="M202.7506 175.2494 L237.5279 68.2159 L233.8405 70.156 L230.2051 72.1919 L226.6243 74.3222 L223.1005 76.5456 L219.636 78.8605
 L216.2334 81.2652 L212.8949 83.7582 L209.6228 86.3377 L206.4193 89.002 L203.2867 91.7493 L200.227 94.5776 L197.2424 97.485
 L194.335 100.4696 L191.5067 103.5292 L188.7595 106.6619 L186.0952 109.8653 L183.5156 113.1375 L181.0226 116.476 L178.6179 119.8786
 L176.303 123.3431 L174.0797 126.8669 L171.9493 130.4477 L169.9134 134.0831 L167.9733 137.7705 L166.1305 141.5074 L164.3861 145.2913
 L162.7413 149.1196 L161.1974 152.9896 L159.7552 156.8987 L158.4159 160.8442z" fill="rgb(255,215,0)"/>
</g>
<g stroke="rgb(0,0,139)" stroke-width="1.0627" stroke-linejoin="round" >
<path d="M149.2105 228.7895 L220.1159 264.9176 L185.3386 157.8841z" fill="rgb(255,215,0)"/>
</g>
<g stroke="rgb(0,0,139)" stroke-width="1.0627" stroke-linejoin="round" >
<path d="M199.6886 228.7895 L255.9594 285.0603 L255.9594 172.5187z" fill="rgb(255,215,0)"/>
</g>
<g stroke="rgb(0,0,139)" stroke-width="1.0627" stroke-linejoin="round" >
<path d="M220.266 176.3805 L253.2287 143.4178 L253.2287 96.8015 L220.266 63.8389 L217.1994 67.0825 L214.3195 70.493 L211.6354 74.0596 L209.1554 77.7711 L206.8875 81.6158
 L204.8387 85.5817 L203.0155 89.6561 L201.4236 93.8264 L200.0681 98.0794 L198.9531 102.4017 L198.0823 106.7797 L197.4583 111.1996
 L197.0831 115.6476 L196.9579 120.1097 L197.0831 124.5717 L197.4583 129.0197 L198.0823 133.4396 L198.9531 137.8176 L200.0681 142.1399
 L201.4236 146.3929 L203.0155 150.5632 L204.8387 154.6377 L206.8875 158.6035 L209.1554 162.4482 L211.6354 166.1597 L214.3195 169.7263
 L217.1994 173.1368 L220.266 176.3805z" fill="rgb(255,215,0)"/>
</g>
<g stroke="rgb(0,0,139)" stroke-width="1.0627" stroke-linejoin="round" >
<path d="M157.734 242.7744 L172.1392 198.4396 L150.9758 156.9042 L106.6411 142.499 L105.3814 146.7814 L104.3637 151.1276 L103.5913 155.524 L103.0666 159.9569 L102.7913 164.4122
 L102.7663 168.8759 L102.9916 173.334 L103.4665 177.7724 L104.1895 182.1773 L105.1583 186.5346 L106.37 190.8308 L107.8206 195.0523
 L109.5057 199.1858 L111.4199 203.2184 L113.5571 207.1372 L115.9108 210.9301 L118.4734 214.585 L121.2369 218.0905 L124.1926 221.4355
 L127.3312 224.6095 L130.6428 227.6026 L134.1171 230.4052 L137.743 233.0087 L141.5092 235.4047 L145.4039 237.5858 L149.4147 239.5451
 L153.529 241.2764 L157.734 242.7744z" fill="rgb(255,215,0)"/>
</g>
<g stroke="rgb(0,0,139)" stroke-width="1.0627" stroke-linejoin="round" >
<path d="M165.9261 179.1112 L198.8888 179.1112 L165.9261 212.0739 L132.9634 179.1112z" fill="rgb(255,215,0)"/>
</g>
</svg>
