<?xml version="1.0" encoding="utf-8" standalone="no"?>
<!DOCTYPE svg PUBLIC "-//W3C//DTD SVG 1.1//EN" "http://www.w3.org/TR/2001/REC-SVG-20010904/DTD/svg11.dtd">
<svg width="10cm" height="10cm" viewBox="0 0 378 378" overflow="hidden"
 version="1.1" xmlns="http://www.w3.org/2000/svg"  xmlns:xlink="http://www.w3.org/1999/xlink">
<!--tangram  (Utilisateur) -->
<g stroke="rgb(0,0,139)" stroke-width="1.0627" stroke-linejoin="round" >
<path d="M175.4393 180.6765 L208.402 147.7138 L205.7141 145.2292 L202.8396 142.9632 L199.7962 140.9296 L196.6026 139.1411 L193.2786 137.6087
 L189.8445 136.3418 L186.3216 135.3483 L182.7317 134.6342 L179.0968 134.2039 L175.4393 134.0602z" fill="rgb(255,215,0)"/>
</g>
<g stroke="rgb(0,0,139)" stroke-width="1.0627" stroke-linejoin="round" >
<path d="M196.4166 159.6992 L226.6914 124.2519 L223.817 121.9858 L220.7735 119.9523 L217.5799 118.1638 L214.2559 116.6314 L210.8218 115.3645
 L207.299 114.3709 L203.709 113.6568 L200.0741 113.2266 L196.4166 113.0829 L192.7591 113.2266z" fill="rgb(255,215,0)"/>
</g>
<g stroke="rgb(0,0,139)" stroke-width="1.0627" stroke-linejoin="round" >
<path d="M196.4166 159.6992 L243.5333 261.9031 L244.9241 257.9755 L246.2117 254.0128 L247.395 250.0177 L248.4734 245.9931 L249.4461 241.9416
 L250.3124 237.866 L251.0717 233.7691 L251.7235 229.6538 L252.2674 225.5228 L252.7029 221.379 L253.0298 217.2253 L253.2479 213.0643
 L253.357 208.8991 L253.357 204.7325 L253.2479 200.5673 L253.0298 196.4064 L252.7029 192.2526 L252.2674 188.1088 L251.7235 183.9779
 L251.0717 179.8625 L250.3124 175.7657 L249.4461 171.6901 L248.4734 167.6386 L247.395 163.6139 L246.2117 159.6189 L244.9241 155.6562
 L243.5333 151.7286 L242.0401 147.8387 L240.4456 143.9892 L238.7508 140.1828z" fill="rgb(255,215,0)"/>
</g>
<g stroke="rgb(0,0,139)" stroke-width="1.0627" stroke-linejoin="round" >
<path d="M211.2498 144.866 L241.7982 253.1823 L243.7863 249.5206 L245.6779 245.8081 L247.4717 242.0473 L249.1664 238.2409 L250.7609 234.3915
 L252.2541 230.5016 L253.6449 226.574 L254.9325 222.6113 L256.1159 218.6162 L257.1943 214.5916 L258.167 210.5401 L259.0333 206.4645
 L259.7926 202.3676 L260.4444 198.2523 L260.9882 194.1213 L261.4237 189.9775 L261.7507 185.8238 L261.9687 181.6628 L262.0778 177.4976
 L262.0778 173.331 L261.9687 169.1658 L261.7507 165.0049 L261.4237 160.8511 L260.9882 156.7073 L260.4444 152.5763 L259.7926 148.461
 L259.0333 144.3642 L258.167 140.2886 L257.1943 136.2371 L256.1159 132.2124z" fill="rgb(255,215,0)"/>
</g>
<g stroke="rgb(0,0,139)" stroke-width="1.0627" stroke-linejoin="round" >
<path d="M171.0947 228.7895 L245.755 256.3331 L198.6384 154.1292z" fill="rgb(255,215,0)"/>
</g>
<g stroke="rgb(0,0,139)" stroke-width="1.0627" stroke-linejoin="round" >
<path d="M171.0947 228.7895 L249.1446 244.3146 L186.6198 150.7396z" fill="rgb(255,215,0)"/>
</g>
<g stroke="rgb(0,0,139)" stroke-width="1.0627" stroke-linejoin="round" >
<path d="M152.6482 203.4676 L196.3832 187.3329 L215.8995 144.9987 L199.7648 101.2637 L195.6219 102.9255 L191.5787 104.8171 L187.6479 106.9323 L183.8419 109.2646 L180.1727 111.8067
 L176.6518 114.5505 L173.2902 117.4874 L170.0986 120.6081 L167.087 123.9029 L164.2649 127.3614 L161.6412 130.9727 L159.2241 134.7254
 L157.0211 138.6077 L155.0394 142.6075 L153.285 146.712 L151.7635 150.9085 L150.4798 155.1837 L149.4377 159.5242 L148.6407 163.9162
 L148.0911 168.346 L147.7909 172.7997 L147.7408 177.2632 L147.9411 181.7225 L148.391 186.1636 L149.0893 190.5724 L150.0337 194.9351
 L151.2213 199.238 L152.6482 203.4676z" fill="rgb(255,215,0)"/>
</g>
<g stroke="rgb(0,0,139)" stroke-width="1.0627" stroke-linejoin="round" >
<path d="M183.3972 239.2781 L176.1048 285.3205 L203.5051 323.0338 L249.5475 330.3262 L250.1218 325.8995 L250.4471 321.4476 L250.5222 316.9845 L250.347 312.5241 L249.9219 308.0806
 L249.2484 303.668 L248.3285 299.3 L247.1651 294.9905 L245.7619 290.753 L244.1233 286.6008 L242.2545 282.5471 L240.1614 278.6045
 L237.8504 274.7854 L235.329 271.102 L232.605 267.5657 L229.687 264.1878 L226.5842 260.9787 L223.3064 257.9487 L219.8638 255.1072
 L216.2673 252.4633 L212.5282 250.0251 L208.6583 247.8005 L204.6697 245.7963 L200.575 244.0189 L196.3871 242.4739 L192.1192 241.1662
 L187.7847 240.0998 L183.3972 239.2781z" fill="rgb(255,215,0)"/>
</g>
<g stroke="rgb(0,0,139)" stroke-width="1.0627" stroke-linejoin="round" >
<path d="M145.7729 239.2781 L178.7356 239.2781 L145.7729 272.2408 L112.8102 239.2781z" fill="rgb(255,215,0)"/>
</g>
</svg>
