<?xml version="1.0" encoding="utf-8" standalone="no"?>
<!DOCTYPE svg PUBLIC "-//W3C//DTD SVG 1.1//EN" "http://www.w3.org/TR/2001/REC-SVG-20010904/DTD/svg11.dtd">
<svg width="10cm" height="10cm" viewBox="0 0 378 378" overflow="hidden"
 version="1.1" xmlns="http://www.w3.org/2000/svg"  xmlns:xlink="http://www.w3.org/1999/xlink">
<!--tangram  (Utilisateur) -->
<g stroke="rgb(0,0,139)" stroke-width="1.0627" stroke-linejoin="round" >
<path d="M294.32 142.3695 L248.2776 135.0771 L247.8474 138.7121 L247.7037 142.3695 L247.8474 146.027 L248.2776 149.6619 L248.9917 153.2519
 L249.9852 156.7747 L251.2521 160.2088 L252.7846 163.5329 L254.573 166.7265 L256.6066 169.7699z" fill="rgb(255,215,0)"/>
</g>
<g stroke="rgb(0,0,139)" stroke-width="1.0627" stroke-linejoin="round" >
<path d="M133.9481 145.9143 L111.1704 186.5868 L114.4318 188.2485 L117.8134 189.6492 L121.2946 190.7803 L124.8538 191.6348 L128.469 192.2074
 L132.118 192.4946 L135.7783 192.4946 L139.4273 192.2074 L143.0425 191.6348 L146.6017 190.7803z" fill="rgb(255,215,0)"/>
</g>
<g stroke="rgb(0,0,139)" stroke-width="1.0627" stroke-linejoin="round" >
<path d="M135.5963 194.1787 L247.3578 180.9508 L244.0522 178.4143 L240.6813 175.9652 L237.2475 173.6052 L233.7531 171.3359 L230.2004 169.1589
 L226.592 167.0756 L222.9303 165.0874 L219.2179 163.1958 L215.4571 161.402 L211.6507 159.7073 L207.8013 158.1128 L203.9114 156.6196
 L199.9837 155.2288 L196.0211 153.9412 L192.026 152.7579 L188.0014 151.6794 L183.9499 150.7068 L179.8743 149.8405 L175.7774 149.0812
 L171.6621 148.4294 L167.5311 147.8855 L163.3873 147.45 L159.2335 147.1231 L155.0726 146.905 L150.9074 146.7959 L146.7408 146.7959
 L142.5756 146.905 L138.4147 147.1231 L134.2609 147.45 L130.1171 147.8855z" fill="rgb(255,215,0)"/>
</g>
<g stroke="rgb(0,0,139)" stroke-width="1.0627" stroke-linejoin="round" >
<path d="M56.7 228.7895 L126.3738 140.4086 L122.2429 140.9525 L118.1275 141.6043 L114.0307 142.3636 L109.9551 143.2299 L105.9036 144.2026
 L101.879 145.281 L97.8839 146.4643 L93.9212 147.7519 L89.9936 149.1428 L86.1037 150.6359 L82.2542 152.2304 L78.4478 153.9252
 L74.6871 155.7189 L70.9746 157.6105 L67.3129 159.5987 L63.7045 161.682 L60.1519 163.8591 L56.6575 166.1284 L53.2236 168.4884
 L49.8528 170.9374 L46.5472 173.4739 L43.3091 176.0961 L40.1408 178.8021 L37.0443 181.5901 L34.022 184.4582 L31.0757 187.4045
 L28.2076 190.4268 L25.4196 193.5232 L22.7136 196.6915 L20.0915 199.9296z" fill="rgb(255,215,0)"/>
</g>
<g stroke="rgb(0,0,139)" stroke-width="1.0627" stroke-linejoin="round" >
<path d="M294.8027 139.556 L248.0273 203.9367 L359.1834 186.3313z" fill="rgb(255,215,0)"/>
</g>
<g stroke="rgb(0,0,139)" stroke-width="1.0627" stroke-linejoin="round" >
<path d="M207.9 275.4057 L151.6292 331.6766 L264.1708 331.6766z" fill="rgb(255,215,0)"/>
</g>
<g stroke="rgb(0,0,139)" stroke-width="1.0627" stroke-linejoin="round" >
<path d="M211.8789 271.4268 L208.2215 224.9542 L172.7742 194.6794 L126.3016 198.3369 L126.7765 202.7753 L127.4995 207.1801 L128.4684 211.5375 L129.68 215.8337 L131.1307 220.0552
 L132.8157 224.1887 L134.7299 228.2212 L136.8672 232.1401 L139.2208 235.933 L141.7834 239.5879 L144.5469 243.0934 L147.5026 246.4384
 L150.6412 249.6124 L153.9529 252.6055 L157.4271 255.4081 L161.0531 258.0116 L164.8193 260.4076 L168.7139 262.5887 L172.7247 264.548
 L176.8391 266.2793 L181.044 267.7772 L185.3263 269.037 L189.6726 270.0547 L194.069 270.8271 L198.5019 271.3517 L202.9571 271.627
 L207.4209 271.6521 L211.8789 271.4268z" fill="rgb(255,215,0)"/>
</g>
<g stroke="rgb(0,0,139)" stroke-width="1.0627" stroke-linejoin="round" >
<path d="M279.5211 195.8268 L233.8005 186.7324 L195.0405 212.631 L185.9461 258.3516 L190.3468 259.0993 L194.7825 259.5991 L199.2393 259.8494 L203.7031 259.8494 L208.1598 259.5991
 L212.5956 259.0993 L216.9963 258.3516 L221.3481 257.3583 L225.6375 256.1226 L229.8508 254.6483 L233.9748 252.94 L237.9965 251.0033
 L241.9033 248.8441 L245.6829 246.4692 L249.3234 243.8861 L252.8133 241.103 L256.1417 238.1286 L259.2981 234.9722 L262.2725 231.6438
 L265.0556 228.1539 L267.6387 224.5134 L270.0135 220.7338 L272.1728 216.827 L274.1095 212.8053 L275.8177 208.6813 L277.292 204.468
 L278.5278 200.1787 L279.5211 195.8268z" fill="rgb(255,215,0)"/>
</g>
<g stroke="rgb(0,0,139)" stroke-width="1.0627" stroke-linejoin="round" >
<path d="M203.9211 197.4749 L236.8837 197.4749 L203.9211 164.5122 L170.9584 197.4749z" fill="rgb(255,215,0)"/>
</g>
</svg>
