<?xml version="1.0" encoding="utf-8" standalone="no"?>
<!DOCTYPE svg PUBLIC "-//W3C//DTD SVG 1.1//EN" "http://www.w3.org/TR/2001/REC-SVG-20010904/DTD/svg11.dtd">
<svg width="10cm" height="10cm" viewBox="0 0 378 378" overflow="hidden"
 version="1.1" xmlns="http://www.w3.org/2000/svg"  xmlns:xlink="http://www.w3.org/1999/xlink">
<!--fond  (Utilisateur) -->
<g  stroke-linejoin="round" >
<polygon fill="rgb(0,0,139)" points="0,0,0,378,378,378,378,0"/>
</g>
<!--tangram  (Utilisateur) -->
<g stroke="rgb(0,0,139)" stroke-width="1.0627" stroke-linejoin="round" >
<path d="M197.2407 160.8646 L236.0007 134.966 L233.8492 132.0047 L231.472 129.2214 L228.8838 126.6332 L226.1005 124.256 L223.1393 122.1046
 L220.0184 120.1921 L216.757 118.5303 L213.3754 117.1296 L209.8942 115.9985 L206.3351 115.144z" fill="rgb(255,215,0)"/>
</g>
<g stroke="rgb(0,0,139)" stroke-width="1.0627" stroke-linejoin="round" >
<path d="M197.2407 132.7292 L179.4014 89.6614 L176.0773 91.1938 L172.8837 92.9823 L169.8403 95.0158 L166.9658 97.2819 L164.278 99.7665
 L161.7934 102.4543 L159.5273 105.3288 L157.4938 108.3723 L155.7053 111.5658 L154.1729 114.8899z" fill="rgb(255,215,0)"/>
</g>
<g stroke="rgb(0,0,139)" stroke-width="1.0627" stroke-linejoin="round" >
<path d="M205.4813 152.6239 L318.023 152.6239 A159.1579,159.1579 0 0,0 205.4813,106.0077z" fill="rgb(255,215,0)"/>
</g>
<g stroke="rgb(0,0,139)" stroke-width="1.0627" stroke-linejoin="round" >
<path d="M189 169.1053 L251.5248 262.6802 L252.2841 258.5834 L252.9359 254.468 L253.4797 250.337 L253.9153 246.1932 L254.2422 242.0395
 L254.4602 237.8786 L254.5693 233.7134 L254.5693 229.5467 L254.4602 225.3815 L254.2422 221.2206 L253.9153 217.0668 L253.4797 212.923
 L252.9359 208.7921 L252.2841 204.6767 L251.5248 200.5799 L250.6585 196.5043 L249.6858 192.4528 L248.6074 188.4282 L247.424 184.4331
 L246.1365 180.4704 L244.7456 176.5428 L243.2524 172.6529 L241.6579 168.8034 L239.9632 164.997 L238.1694 161.2363 L236.2778 157.5238
 L234.2897 153.8621 L232.2064 150.2537 L230.0293 146.7011 L227.76 143.2067z" fill="rgb(255,215,0)"/>
</g>
<g stroke="rgb(0,0,139)" stroke-width="1.0627" stroke-linejoin="round" >
<path d="M199.6543 206.4811 L277.7042 190.956 L184.1292 128.4312z" fill="rgb(255,215,0)"/>
</g>
<g stroke="rgb(0,0,139)" stroke-width="1.0627" stroke-linejoin="round" >
<path d="M189 240.4435 L255.1675 196.2318 L144.7883 174.2761z" fill="rgb(255,215,0)"/>
</g>
<g stroke="rgb(0,0,139)" stroke-width="1.0627" stroke-linejoin="round" >
<path d="M149.2105 220.5488 L182.1732 187.5861 L182.1732 140.9699 L149.2105 108.0072 L146.1439 111.2508 L143.264 114.6613 L140.5799 118.2279 L138.0999 121.9394 L135.832 125.7842
 L133.7832 129.75 L131.96 133.8244 L130.3681 137.9947 L129.0126 142.2477 L127.8976 146.57 L127.0268 150.948 L126.4028 155.368
 L126.0276 159.816 L125.9024 164.278 L126.0276 168.74 L126.4028 173.188 L127.0268 177.608 L127.8976 181.986 L129.0126 186.3083
 L130.3681 190.5613 L131.96 194.7315 L133.7832 198.806 L135.832 202.7718 L138.0999 206.6165 L140.5799 210.328 L143.264 213.8947
 L146.1439 217.3051 L149.2105 220.5488z" fill="rgb(255,215,0)"/>
</g>
<g stroke="rgb(0,0,139)" stroke-width="1.0627" stroke-linejoin="round" >
<path d="M228.7895 220.5488 L190.0295 246.4474 L180.9351 292.168 L206.8337 330.928 L210.4742 328.3449 L213.9641 325.5618 L217.2925 322.5874 L220.4489 319.431 L223.4233 316.1026
 L226.2064 312.6127 L228.7895 308.9722 L231.1643 305.1926 L233.3236 301.2858 L235.2603 297.2641 L236.9685 293.1401 L238.4428 288.9268
 L239.6786 284.6374 L240.6719 280.2856 L241.4196 275.8849 L241.9194 271.4492 L242.1696 266.9924 L242.1696 262.5286 L241.9194 258.0718
 L241.4196 253.6361 L240.6719 249.2354 L239.6786 244.8835 L238.4428 240.5942 L236.9685 236.3809 L235.2603 232.2569 L233.3236 228.2352
 L231.1643 224.3284 L228.7895 220.5488z" fill="rgb(255,215,0)"/>
</g>
<g stroke="rgb(0,0,139)" stroke-width="1.0627" stroke-linejoin="round" >
<path d="M169.1053 228.7895 L202.0679 228.7895 L169.1053 195.8268 L136.1426 228.7895z" fill="rgb(255,215,0)"/>
</g>
</svg>
