<?xml version="1.0" encoding="utf-8" standalone="no"?>
<!DOCTYPE svg PUBLIC "-//W3C//DTD SVG 1.1//EN" "http://www.w3.org/TR/2001/REC-SVG-20010904/DTD/svg11.dtd">
<svg width="10cm" height="10cm" viewBox="0 0 378 378" overflow="hidden"
 version="1.1" xmlns="http://www.w3.org/2000/svg"  xmlns:xlink="http://www.w3.org/1999/xlink">
<!--tangram  (Utilisateur) -->
<g stroke="rgb(0,0,139)" stroke-width="1.0627" stroke-linejoin="round" >
<path d="M135.4599 120.3439 L162.8603 82.6306 L159.8168 80.597 L156.6232 78.8085 L153.2992 77.2761 L149.8651 76.0092 L146.3423 75.0157
 L142.7523 74.3016 L139.1174 73.8714 L135.4599 73.7277 L131.8024 73.8714 L128.1675 74.3016z" fill="rgb(255,215,0)"/>
</g>
<g stroke="rgb(0,0,139)" stroke-width="1.0627" stroke-linejoin="round" >
<path d="M144.7832 117.6132 L191.3994 117.6132 A46.6163,46.6163 0 0,0 177.7458,84.6505z" fill="rgb(255,215,0)"/>
</g>
<g stroke="rgb(0,0,139)" stroke-width="1.0627" stroke-linejoin="round" >
<path d="M206.8467 220.8316 L307.122 169.7387 L303.1428 168.5032 L299.1326 167.3722 L295.0942 166.3466 L291.0303 165.427 L286.9438 164.6141
 L282.8373 163.9085 L278.7138 163.3106 L274.5761 162.8209 L270.4269 162.4396 L266.2692 162.1671 L262.1058 162.0035 L257.9395 161.949
 L253.7733 162.0035 L249.6098 162.1671 L245.4521 162.4396 L241.303 162.8209 L237.1653 163.3106 L233.0417 163.9085 L228.9353 164.6141
 L224.8487 165.427 L220.7849 166.3466 L216.7464 167.3722 L212.7362 168.5032 L208.757 169.7387 L204.8115 171.0781 L200.9024 172.5202
 L197.0324 174.0642 L193.2042 175.7089 L189.4203 177.4533 L185.6834 179.2962z" fill="rgb(255,215,0)"/>
</g>
<g stroke="rgb(0,0,139)" stroke-width="1.0627" stroke-linejoin="round" >
<path d="M173.884 201.054 L156.2786 89.8979 L153.8739 93.3006 L151.559 96.765 L149.3357 100.2888 L147.2053 103.8696 L145.1694 107.505
 L143.2293 111.1924 L141.3865 114.9293 L139.6421 118.7132 L137.9974 122.5415 L136.4534 126.4115 L135.0112 130.3206 L133.6719 134.2661
 L132.4363 138.2453 L131.3054 142.2555 L130.2797 146.2939 L129.3602 150.3578 L128.5473 154.4444 L127.8417 158.5508 L127.2438 162.6743
 L126.7541 166.8121 L126.3728 170.9612 L126.1003 175.1189 L125.9367 179.2823 L125.8822 183.4486 L125.9367 187.6149 L126.1003 191.7783
 L126.3728 195.936 L126.7541 200.0851 L127.2438 204.2229 L127.8417 208.3464z" fill="rgb(255,215,0)"/>
</g>
<g stroke="rgb(0,0,139)" stroke-width="1.0627" stroke-linejoin="round" >
<path d="M251.8633 201.054 L276.4546 125.3699 L176.1793 176.4627z" fill="rgb(255,215,0)"/>
</g>
<g stroke="rgb(0,0,139)" stroke-width="1.0627" stroke-linejoin="round" >
<path d="M189 269.3788 L132.7292 325.6496 L245.2708 325.6496z" fill="rgb(255,215,0)"/>
</g>
<g stroke="rgb(0,0,139)" stroke-width="1.0627" stroke-linejoin="round" >
<path d="M104.7594 201.054 L151.3757 201.054 L184.3384 168.0913 L184.3384 121.475 A79.5789,79.5789 0 0,0 104.7594,201.054z" fill="rgb(255,215,0)"/>
</g>
<g stroke="rgb(0,0,139)" stroke-width="1.0627" stroke-linejoin="round" >
<path d="M263.9173 201.054 L242.754 242.5894 L257.1592 286.9241 L298.6946 308.0874 L300.6088 304.0549 L302.2938 299.9214 L303.7445 295.6999 L304.9561 291.4037 L305.925 287.0463
 L306.648 282.6415 L307.1229 278.203 L307.3481 273.7449 L307.3231 269.2812 L307.0478 264.8259 L306.5232 260.3931 L305.7508 255.9966
 L304.7331 251.6504 L303.4733 247.3681 L301.9754 243.1631 L300.2441 239.0488 L298.2848 235.038 L296.1037 231.1433 L293.7076 227.3771
 L291.1042 223.7512 L288.3015 220.2769 L285.3085 216.9653 L282.1345 213.8267 L278.7894 210.871 L275.284 208.1075 L271.629 205.5449
 L267.8362 203.1912 L263.9173 201.054z" fill="rgb(255,215,0)"/>
</g>
<g stroke="rgb(0,0,139)" stroke-width="1.0627" stroke-linejoin="round" >
<path d="M181.2764 118.413 L213.8332 123.5695 L186.4329 85.8562 L148.7195 113.2565z" fill="rgb(255,215,0)"/>
</g>
</svg>
