<?xml version="1.0" encoding="utf-8" standalone="no"?>
<!DOCTYPE svg PUBLIC "-//W3C//DTD SVG 1.1//EN" "http://www.w3.org/TR/2001/REC-SVG-20010904/DTD/svg11.dtd">
<svg width="10cm" height="10cm" viewBox="0 0 378 378" overflow="hidden"
 version="1.1" xmlns="http://www.w3.org/2000/svg"  xmlns:xlink="http://www.w3.org/1999/xlink">
<!--tangram  (Utilisateur) -->
<g stroke="rgb(0,0,139)" stroke-width="1.0627" stroke-linejoin="round" >
<path d="M131.6223 246.6947 L112.106 204.3605 L108.8446 206.0222 L105.7237 207.9347 L102.7625 210.0862 L99.9792 212.4634 L97.391 215.0516
 L95.0138 217.8349 L92.8623 220.7961 L90.9498 223.917 L89.2881 227.1784 L87.8874 230.5601z" fill="rgb(255,215,0)"/>
</g>
<g stroke="rgb(0,0,139)" stroke-width="1.0627" stroke-linejoin="round" >
<path d="M152.5997 258.6801 L165.2532 303.5462 L168.7344 302.4151 L172.116 301.0143 L175.3774 299.3526 L178.4983 297.4401 L181.4595 295.2886
 L184.2428 292.9115 L186.831 290.3233 L189.2082 287.5399 L191.3597 284.5787 L193.2722 281.4578z" fill="rgb(255,215,0)"/>
</g>
<g stroke="rgb(0,0,139)" stroke-width="1.0627" stroke-linejoin="round" >
<path d="M232.9098 210.8842 L299.0601 119.8361 L299.658 123.9596 L300.1477 128.0974 L300.529 132.2465 L300.8015 136.4042 L300.9651 140.5676
 L301.0196 144.7339 L300.9651 148.9002 L300.8015 153.0636 L300.529 157.2213 L300.1477 161.3704 L299.658 165.5082 L299.0601 169.6317
 L298.3545 173.7381 L297.5416 177.8247 L296.6221 181.8886 L295.5964 185.927 L294.4655 189.9372 L293.2299 193.9164 L291.8906 197.8619
 L290.4484 201.771 L288.9044 205.641 L287.2597 209.4692 L285.5153 213.2531 L283.6724 216.9901 L281.7324 220.6775 L279.6965 224.3128
 L277.5661 227.8937 L275.3428 231.4175 L273.0279 234.8819 L270.6232 238.2846z" fill="rgb(255,215,0)"/>
</g>
<g stroke="rgb(0,0,139)" stroke-width="1.0627" stroke-linejoin="round" >
<path d="M192.4377 225.7174 L86.8521 186.7648 L88.6459 190.5256 L90.5375 194.2381 L92.5256 197.8998 L94.6089 201.5082 L96.786 205.0608
 L99.0553 208.5552 L101.4153 211.9891 L103.8644 215.3599 L106.4008 218.6655 L109.023 221.9036 L111.729 225.0719 L114.517 228.1683
 L117.3851 231.1907 L120.3314 234.1369 L123.3537 237.0051 L126.4501 239.7931 L129.6185 242.4991 L132.8565 245.1212 L136.1621 247.6577
 L139.533 250.1068 L142.9668 252.4668 L146.4613 254.7361 L150.0139 256.9132 L153.6223 258.9965 L157.284 260.9846 L160.9965 262.8762
 L164.7572 264.67 L168.5636 266.3647 L172.4131 267.9592 L176.303 269.4524z" fill="rgb(255,215,0)"/>
</g>
<g stroke="rgb(0,0,139)" stroke-width="1.0627" stroke-linejoin="round" >
<path d="M105.9834 225.7174 L185.5623 225.7174 L105.9834 305.2964z" fill="rgb(255,215,0)"/>
</g>
<g stroke="rgb(0,0,139)" stroke-width="1.0627" stroke-linejoin="round" >
<path d="M236.5232 236.2061 L314.573 251.7312 L252.0482 158.1562z" fill="rgb(255,215,0)"/>
</g>
<g stroke="rgb(0,0,139)" stroke-width="1.0627" stroke-linejoin="round" >
<path d="M172.0945 200.0785 L214.4287 180.5621 L230.5634 136.8271 L211.0471 94.4929 L207.0473 96.4747 L203.165 98.6776 L199.4123 101.0947 L195.801 103.7184 L192.3425 106.5405
 L189.0477 109.5521 L185.927 112.7437 L182.9901 116.1053 L180.2463 119.6262 L177.7042 123.2954 L175.3719 127.1014 L173.2567 131.0322
 L171.3651 135.0754 L169.7033 139.2183 L168.2764 143.4479 L167.0888 147.7508 L166.1444 152.1136 L165.4462 156.5224 L164.9962 160.9634
 L164.7959 165.4227 L164.846 169.8862 L165.1463 174.3399 L165.6958 178.7697 L166.4928 183.1618 L167.5349 187.5022 L168.8186 191.7774
 L170.3401 195.9739 L172.0945 200.0785z" fill="rgb(255,215,0)"/>
</g>
<g stroke="rgb(0,0,139)" stroke-width="1.0627" stroke-linejoin="round" >
<path d="M261.845 225.7174 L218.11 209.5827 L175.7758 229.0991 L159.6411 272.8341 L163.8707 274.261 L168.1736 275.4485 L172.5363 276.3929 L176.9452 277.0912 L181.3862 277.5412
 L185.8455 277.7415 L190.309 277.6914 L194.7627 277.3911 L199.1925 276.8416 L203.5845 276.0445 L207.925 275.0025 L212.2002 273.7187
 L216.3967 272.1972 L220.5012 270.4429 L224.501 268.4611 L228.3833 266.2582 L232.136 263.8411 L235.7473 261.2173 L239.2058 258.3952
 L242.5006 255.3836 L245.6214 252.192 L248.5583 248.8305 L251.302 245.3096 L253.8441 241.6403 L256.1764 237.8343 L258.2917 233.9035
 L260.1832 229.8603 L261.845 225.7174z" fill="rgb(255,215,0)"/>
</g>
<g stroke="rgb(0,0,139)" stroke-width="1.0627" stroke-linejoin="round" >
<path d="M236.5232 112.8587 L252.6294 84.0989 L207.7634 96.7524 L220.4169 141.6185z" fill="rgb(255,215,0)"/>
</g>
</svg>
