<?xml version="1.0" encoding="utf-8" standalone="no"?>
<!DOCTYPE svg PUBLIC "-//W3C//DTD SVG 1.1//EN" "http://www.w3.org/TR/2001/REC-SVG-20010904/DTD/svg11.dtd">
<svg width="10cm" height="10cm" viewBox="0 0 378 378" overflow="hidden"
 version="1.1" xmlns="http://www.w3.org/2000/svg"  xmlns:xlink="http://www.w3.org/1999/xlink">
<!--tangram  (Utilisateur) -->
<g stroke="rgb(0,0,139)" stroke-width="1.0627" stroke-linejoin="round" >
<path d="M162.5612 220.1004 L189.9616 182.387 L186.9182 180.3535 L183.7246 178.565 L180.4005 177.0326 L176.9665 175.7657 L173.4436 174.7721
 L169.8536 174.058 L166.2187 173.6278 L162.5612 173.4841 L158.9038 173.6278 L155.2689 174.058z" fill="rgb(255,215,0)"/>
</g>
<g stroke="rgb(0,0,139)" stroke-width="1.0627" stroke-linejoin="round" >
<path d="M204.5159 181.442 L249.8441 192.3244 L250.5582 188.7344 L250.9885 185.0995 L251.1322 181.442 L250.9885 177.7845 L250.5582 174.1496
 L249.8441 170.5597 L248.8506 167.0368 L247.5837 163.6027 L246.0513 160.2787 L244.2628 157.0851z" fill="rgb(255,215,0)"/>
</g>
<g stroke="rgb(0,0,139)" stroke-width="1.0627" stroke-linejoin="round" >
<path d="M204.5159 178.1457 L247.5837 282.1206 L249.1277 278.2506 L250.5698 274.3416 L251.9091 270.3961 L253.1447 266.4168 L254.2757 262.4067
 L255.3013 258.3682 L256.2209 254.3043 L257.0338 250.2178 L257.7394 246.1113 L258.3373 241.9878 L258.827 237.8501 L259.2082 233.7009
 L259.4808 229.5432 L259.6443 225.3798 L259.6989 221.2136 L259.6443 217.0473 L259.4808 212.8839 L259.2082 208.7262 L258.827 204.577
 L258.3373 200.4393 L257.7394 196.3158 L257.0338 192.2093 L256.2209 188.1228 L255.3013 184.0589 L254.2757 180.0205 L253.1447 176.0103
 L251.9091 172.0311 L250.5698 168.0856 L249.1277 164.1765 L247.5837 160.3065z" fill="rgb(255,215,0)"/>
</g>
<g stroke="rgb(0,0,139)" stroke-width="1.0627" stroke-linejoin="round" >
<path d="M229.5207 148.4793 L336.5541 113.7021 L332.8172 111.8592 L329.0333 110.1148 L325.205 108.4701 L321.335 106.9261 L317.4259 105.4839
 L313.4804 104.1446 L309.5012 102.909 L305.491 101.7781 L301.4526 100.7524 L297.3887 99.8329 L293.3022 99.02 L289.1957 98.3144
 L285.0722 97.7165 L280.9345 97.2268 L276.7853 96.8455 L272.6276 96.573 L268.4642 96.4094 L264.2979 96.3549 L260.1317 96.4094
 L255.9683 96.573 L251.8106 96.8455 L247.6614 97.2268 L243.5237 97.7165 L239.4002 98.3144 L235.2937 99.02 L231.2072 99.8329
 L227.1433 100.7524 L223.1049 101.7781 L219.0947 102.909 L215.1155 104.1446z" fill="rgb(255,215,0)"/>
</g>
<g stroke="rgb(0,0,139)" stroke-width="1.0627" stroke-linejoin="round" >
<path d="M149.2105 228.7895 L209.7228 280.4719 L200.8929 168.2772z" fill="rgb(255,215,0)"/>
</g>
<g stroke="rgb(0,0,139)" stroke-width="1.0627" stroke-linejoin="round" >
<path d="M161.83 228.7895 L131.3765 302.3108 L235.3514 259.243z" fill="rgb(255,215,0)"/>
</g>
<g stroke="rgb(0,0,139)" stroke-width="1.0627" stroke-linejoin="round" >
<path d="M209.1775 173.4841 L242.1402 140.5214 L242.1402 93.9052 L209.1775 60.9425 L206.1109 64.1861 L203.231 67.5966 L200.5468 71.1632 L198.0669 74.8747 L195.799 78.7195
 L193.7502 82.6853 L191.927 86.7598 L190.3351 90.93 L188.9795 95.183 L187.8646 99.5053 L186.9937 103.8833 L186.3698 108.3033
 L185.9946 112.7513 L185.8694 117.2133 L185.9946 121.6753 L186.3698 126.1233 L186.9937 130.5433 L187.8646 134.9213 L188.9795 139.2436
 L190.3351 143.4966 L191.927 147.6668 L193.7502 151.7413 L195.799 155.7071 L198.0669 159.5519 L200.5468 163.2634 L203.231 166.83
 L206.1109 170.2405 L209.1775 173.4841z" fill="rgb(255,215,0)"/>
</g>
<g stroke="rgb(0,0,139)" stroke-width="1.0627" stroke-linejoin="round" >
<path d="M98.8981 249.7668 L143.2328 235.3616 L164.3961 193.8262 L149.9909 149.4915 L145.786 150.9894 L141.6716 152.7207 L137.6608 154.68 L133.7662 156.8611 L130 159.2571
 L126.374 161.8606 L122.8998 164.6632 L119.5881 167.6563 L116.4495 170.8303 L113.4938 174.1753 L110.7303 177.6808 L108.1677 181.3357
 L105.8141 185.1286 L103.6768 189.0475 L101.7626 193.08 L100.0776 197.2135 L98.6269 201.435 L97.4153 205.7312 L96.4464 210.0886
 L95.7234 214.4934 L95.2485 218.9319 L95.0233 223.3899 L95.0483 227.8537 L95.3236 232.3089 L95.8482 236.7418 L96.6206 241.1382
 L97.6383 245.4845 L98.8981 249.7668z" fill="rgb(255,215,0)"/>
</g>
<g stroke="rgb(0,0,139)" stroke-width="1.0627" stroke-linejoin="round" >
<path d="M111.1863 233.851 L144.149 233.851 L111.1863 266.8137 L78.2236 233.851z" fill="rgb(255,215,0)"/>
</g>
</svg>
