<?xml version="1.0" encoding="utf-8" standalone="no"?>
<!DOCTYPE svg PUBLIC "-//W3C//DTD SVG 1.1//EN" "http://www.w3.org/TR/2001/REC-SVG-20010904/DTD/svg11.dtd">
<svg width="10cm" height="10cm" viewBox="0 0 378 378" overflow="hidden"
 version="1.1" xmlns="http://www.w3.org/2000/svg"  xmlns:xlink="http://www.w3.org/1999/xlink">
<!--tangram  (Utilisateur) -->
<g stroke="rgb(0,0,139)" stroke-width="1.0627" stroke-linejoin="round" >
<path d="M117.3547 250.6737 L101.22 206.9387 L97.8383 208.3394 L94.577 210.0012 L91.4561 211.9137 L88.4948 214.0651 L85.7115 216.4423
 L83.1233 219.0305 L80.7461 221.8138 L78.5947 224.7751 L76.6822 227.896 L75.0204 231.1573z" fill="rgb(255,215,0)"/>
</g>
<g stroke="rgb(0,0,139)" stroke-width="1.0627" stroke-linejoin="round" >
<path d="M142.9936 257.9974 L165.7713 298.6699 L168.8922 296.7574 L171.8535 294.606 L174.6368 292.2288 L177.225 289.6406 L179.6022 286.8573
 L181.7536 283.896 L183.6661 280.7751 L185.3279 277.5138 L186.7286 274.1321 L187.8597 270.651z" fill="rgb(255,215,0)"/>
</g>
<g stroke="rgb(0,0,139)" stroke-width="1.0627" stroke-linejoin="round" >
<path d="M241.1505 206.9053 L332.1986 140.755 L331.493 144.8614 L330.6801 148.948 L329.7605 153.0118 L328.7349 157.0503 L327.6039 161.0605
 L326.3683 165.0397 L325.029 168.9852 L323.5869 172.8943 L322.0429 176.7643 L320.3981 180.5925 L318.6537 184.3764 L316.8109 188.1133
 L314.8709 191.8008 L312.835 195.4361 L310.7046 199.0169 L308.4812 202.5408 L306.1664 206.0052 L303.7616 209.4078 L301.2686 212.7464
 L298.6891 216.0185 L296.0248 219.222 L293.2775 222.3546 L290.4492 225.4142 L287.5418 228.3988 L284.5572 231.3062 L281.4976 234.1345
 L278.365 236.8818 L275.1615 239.5461 L271.8894 242.1256 L268.5508 244.6186z" fill="rgb(255,215,0)"/>
</g>
<g stroke="rgb(0,0,139)" stroke-width="1.0627" stroke-linejoin="round" >
<path d="M202.0437 225.0347 L99.8398 177.9181 L101.333 181.808 L102.9275 185.6574 L104.6222 189.4638 L106.416 193.2246 L108.3076 196.9371
 L110.2957 200.5988 L112.379 204.2072 L114.5561 207.7598 L116.8254 211.2542 L119.1854 214.688 L121.6345 218.0589 L124.1709 221.3645
 L126.7931 224.6026 L129.4991 227.7709 L132.2871 230.8673 L135.1552 233.8897 L138.1015 236.8359 L141.1238 239.7041 L144.2202 242.4921
 L147.3886 245.1981 L150.6266 247.8202 L153.9322 250.3567 L157.3031 252.8058 L160.7369 255.1658 L164.2314 257.4351 L167.784 259.6121
 L171.3924 261.6955 L175.0541 263.6836 L178.7666 265.5752 L182.5273 267.369z" fill="rgb(255,215,0)"/>
</g>
<g stroke="rgb(0,0,139)" stroke-width="1.0627" stroke-linejoin="round" >
<path d="M96.3774 225.0347 L175.9563 225.0347 L96.3774 304.6137z" fill="rgb(255,215,0)"/>
</g>
<g stroke="rgb(0,0,139)" stroke-width="1.0627" stroke-linejoin="round" >
<path d="M227.8826 237.8542 L294.0501 282.0659 L272.0943 171.6867z" fill="rgb(255,215,0)"/>
</g>
<g stroke="rgb(0,0,139)" stroke-width="1.0627" stroke-linejoin="round" >
<path d="M156.4615 204.0574 L200.1965 187.9227 L219.7128 145.5885 L203.5781 101.8535 L199.4352 103.5153 L195.392 105.4069 L191.4612 107.5221 L187.6552 109.8544 L183.986 112.3965
 L180.4651 115.1403 L177.1035 118.0772 L173.9119 121.1979 L170.9003 124.4927 L168.0782 127.9512 L165.4545 131.5625 L163.0374 135.3152
 L160.8344 139.1975 L158.8527 143.1973 L157.0983 147.3019 L155.5768 151.4983 L154.2931 155.7735 L153.251 160.114 L152.454 164.506
 L151.9044 168.9359 L151.6042 173.3895 L151.5541 177.853 L151.7544 182.3123 L152.2043 186.7534 L152.9026 191.1622 L153.847 195.5249
 L155.0346 199.8278 L156.4615 204.0574z" fill="rgb(255,215,0)"/>
</g>
<g stroke="rgb(0,0,139)" stroke-width="1.0627" stroke-linejoin="round" >
<path d="M258.8315 225.0347 L216.4973 205.5184 L172.7623 221.6531 L153.246 263.9873 L157.3505 265.7417 L161.547 267.2632 L165.8222 268.5469 L170.1626 269.589 L174.5547 270.386
 L178.9845 270.9356 L183.4382 271.2358 L187.9017 271.2859 L192.361 271.0856 L196.802 270.6357 L201.2109 269.9374 L205.5736 268.993
 L209.8765 267.8054 L214.1061 266.3785 L218.249 264.7167 L222.2922 262.8252 L226.223 260.7099 L230.029 258.3776 L233.6982 255.8355
 L237.2192 253.0917 L240.5807 250.1548 L243.7723 247.0341 L246.7839 243.7393 L249.606 240.2808 L252.2297 236.6695 L254.6469 232.9168
 L256.8498 229.0345 L258.8315 225.0347z" fill="rgb(255,215,0)"/>
</g>
<g stroke="rgb(0,0,139)" stroke-width="1.0627" stroke-linejoin="round" >
<path d="M227.8826 122.4647 L236.83 90.7396 L196.1575 113.5173 L218.9352 154.1898z" fill="rgb(255,215,0)"/>
</g>
</svg>
