<?xml version="1.0" encoding="utf-8" standalone="no"?>
<!DOCTYPE svg PUBLIC "-//W3C//DTD SVG 1.1//EN" "http://www.w3.org/TR/2001/REC-SVG-20010904/DTD/svg11.dtd">
<svg width="10cm" height="10cm" viewBox="0 0 378 378" overflow="hidden"
 version="1.1" xmlns="http://www.w3.org/2000/svg"  xmlns:xlink="http://www.w3.org/1999/xlink">
<!--tangram  (Utilisateur) -->
<g stroke="rgb(0,0,139)" stroke-width="1.0627" stroke-linejoin="round" >
<path d="M68.5833 240.7849 L74.0625 194.4917 L70.4134 194.2046 L66.7532 194.2046 L63.1041 194.4917 L59.4889 195.0643 L55.9298 195.9188
 L52.4486 197.0499 L49.0669 198.4506 L45.8056 200.1124 L42.6847 202.0249 L39.7235 204.1763z" fill="rgb(255,215,0)"/>
</g>
<g stroke="rgb(0,0,139)" stroke-width="1.0627" stroke-linejoin="round" >
<path d="M108.2071 229.1793 L154.8234 229.1793 A46.6163,46.6163 0 0,0 141.1698,196.2167z" fill="rgb(255,215,0)"/>
</g>
<g stroke="rgb(0,0,139)" stroke-width="1.0627" stroke-linejoin="round" >
<path d="M264.8485 194.9684 L360.806 253.7713 L359.7804 249.7328 L358.6494 245.7226 L357.4138 241.7434 L356.0745 237.7979 L354.6323 233.8888
 L353.0884 230.0188 L351.4436 226.1906 L349.6992 222.4067 L347.8564 218.6698 L345.9163 214.9823 L343.8804 211.347 L341.75 207.7662
 L339.5267 204.2423 L337.2118 200.7779 L334.8071 197.3753 L332.3141 194.0367 L329.7345 190.7646 L327.0702 187.5611 L324.323 184.4285
 L321.4947 181.3689 L318.5873 178.3843 L315.6027 175.4769 L312.543 172.6486 L309.4104 169.9013 L306.2069 167.237 L302.9348 164.6575
 L299.5963 162.1645 L296.1937 159.7597 L292.7292 157.4449 L289.2054 155.2215z" fill="rgb(255,215,0)"/>
</g>
<g stroke="rgb(0,0,139)" stroke-width="1.0627" stroke-linejoin="round" >
<path d="M231.8858 218.0423 L162.2119 129.6615 L161.7764 133.8053 L161.4495 137.959 L161.2314 142.1199 L161.1224 146.2851 L161.1224 150.4518
 L161.2314 154.617 L161.4495 158.7779 L161.7764 162.9317 L162.2119 167.0755 L162.7558 171.2064 L163.4076 175.3218 L164.1669 179.4186
 L165.0332 183.4942 L166.0059 187.5457 L167.0843 191.5703 L168.2677 195.5654 L169.5552 199.5281 L170.9461 203.4557 L172.4393 207.3456
 L174.0338 211.1951 L175.7285 215.0015 L177.5223 218.7622 L179.4139 222.4747 L181.402 226.1364 L183.4853 229.7448 L185.6624 233.2974
 L187.9317 236.7918 L190.2917 240.2257 L192.7408 243.5965 L195.2772 246.9021z" fill="rgb(255,215,0)"/>
</g>
<g stroke="rgb(0,0,139)" stroke-width="1.0627" stroke-linejoin="round" >
<path d="M90.4089 218.0423 L167.7891 199.465 L71.8316 140.6621z" fill="rgb(255,215,0)"/>
</g>
<g stroke="rgb(0,0,139)" stroke-width="1.0627" stroke-linejoin="round" >
<path d="M189 249.7911 L132.7292 306.0619 L245.2708 306.0619z" fill="rgb(255,215,0)"/>
</g>
<g stroke="rgb(0,0,139)" stroke-width="1.0627" stroke-linejoin="round" >
<path d="M89.6091 218.0423 L136.2254 218.0423 L169.1881 185.0796 L169.1881 138.4633 A79.5789,79.5789 0 0,0 89.6091,218.0423z" fill="rgb(255,215,0)"/>
</g>
<g stroke="rgb(0,0,139)" stroke-width="1.0627" stroke-linejoin="round" >
<path d="M248.767 218.0423 L250.5972 171.462 L218.954 137.2306 L172.3737 135.4004 L172.3236 139.8639 L172.5239 144.3232 L172.9739 148.7643 L173.6722 153.1731 L174.6165 157.5358
 L175.8041 161.8388 L177.231 166.0683 L178.8928 170.2112 L180.7844 174.2544 L182.8996 178.1852 L185.2319 181.9912 L187.774 185.6605
 L190.5178 189.1814 L193.4547 192.543 L196.5754 195.7345 L199.8702 198.7461 L203.3287 201.5682 L206.94 204.192 L210.6927 206.6091
 L214.575 208.812 L218.5748 210.7938 L222.6794 212.5482 L226.8758 214.0696 L231.151 215.3534 L235.4915 216.3955 L239.8835 217.1925
 L244.3134 217.742 L248.767 218.0423z" fill="rgb(255,215,0)"/>
</g>
<g stroke="rgb(0,0,139)" stroke-width="1.0627" stroke-linejoin="round" >
<path d="M187.5518 156.8271 L177.3658 125.4777 L156.2024 167.0131 L197.7378 188.1765z" fill="rgb(255,215,0)"/>
</g>
</svg>
