<?xml version="1.0" encoding="utf-8" standalone="no"?>
<!DOCTYPE svg PUBLIC "-//W3C//DTD SVG 1.1//EN" "http://www.w3.org/TR/2001/REC-SVG-20010904/DTD/svg11.dtd">
<svg width="10cm" height="10cm" viewBox="0 0 378 378" overflow="hidden"
 version="1.1" xmlns="http://www.w3.org/2000/svg"  xmlns:xlink="http://www.w3.org/1999/xlink">
<!--fond  (Utilisateur) -->
<g  stroke-linejoin="round" >
<polygon fill="rgb(0,0,139)" points="0,0,0,378,378,378,378,0"/>
</g>
<!--tangram  (Utilisateur) -->
<g stroke="rgb(0,0,139)" stroke-width="1.0627" stroke-linejoin="round" >
<path d="M283.9191 133.9289 L238.5909 123.0465 L237.8768 126.6365 L237.4466 130.2714 L237.3029 133.9289 L237.4466 137.5864 L237.8768 141.2213
 L238.5909 144.8113 L239.5844 148.3341 L240.8513 151.7682 L242.3837 155.0922 L244.1722 158.2858z" fill="rgb(255,215,0)"/>
</g>
<g stroke="rgb(0,0,139)" stroke-width="1.0627" stroke-linejoin="round" >
<path d="M131.9879 142.618 L107.631 182.3649 L110.8246 184.1534 L114.1487 185.6858 L117.5827 186.9527 L121.1056 187.9462 L124.6956 188.6603
 L128.3305 189.0906 L131.9879 189.2343 L135.6454 189.0906 L139.2803 188.6603 L142.8703 187.9462z" fill="rgb(255,215,0)"/>
</g>
<g stroke="rgb(0,0,139)" stroke-width="1.0627" stroke-linejoin="round" >
<path d="M135.2842 199.1231 L247.4789 190.2931 L244.2754 187.6288 L241.0033 185.0493 L237.6648 182.5563 L234.2621 180.1516 L230.7977 177.8367
 L227.2739 175.6133 L223.6931 173.483 L220.0577 171.4471 L216.3703 169.507 L212.6334 167.6642 L208.8495 165.9198 L205.0212 164.275
 L201.1512 162.7311 L197.2421 161.2889 L193.2966 159.9496 L189.3174 158.714 L185.3072 157.583 L181.2688 156.5574 L177.2049 155.6378
 L173.1183 154.825 L169.0119 154.1194 L164.8884 153.5215 L160.7507 153.0317 L156.6015 152.6505 L152.4438 152.378 L148.2804 152.2144
 L144.1141 152.1599 L139.9479 152.2144 L135.7844 152.378 L131.6267 152.6505z" fill="rgb(255,215,0)"/>
</g>
<g stroke="rgb(0,0,139)" stroke-width="1.0627" stroke-linejoin="round" >
<path d="M60.3669 225.4932 L133.4568 139.9159 L129.3077 140.2971 L125.1699 140.7869 L121.0464 141.3847 L116.94 142.0904 L112.8534 142.9032
 L108.7895 143.8228 L104.7511 144.8484 L100.7409 145.9794 L96.7617 147.215 L92.8162 148.5543 L88.9071 149.9965 L85.0371 151.5404
 L81.2089 153.1852 L77.425 154.9296 L73.688 156.7724 L70.0006 158.7125 L66.3653 160.7484 L62.7844 162.8787 L59.2606 165.1021
 L55.7962 167.417 L52.3936 169.8217 L49.055 172.3147 L45.7829 174.8942 L42.5794 177.5585 L39.4468 180.3058 L36.3871 183.1341
 L33.4026 186.0415 L30.4952 189.0261 L27.6668 192.0857 L24.9196 195.2184z" fill="rgb(255,215,0)"/>
</g>
<g stroke="rgb(0,0,139)" stroke-width="1.0627" stroke-linejoin="round" >
<path d="M298.4696 145.1831 L268.016 218.7044 L371.9909 175.6366z" fill="rgb(255,215,0)"/>
</g>
<g stroke="rgb(0,0,139)" stroke-width="1.0627" stroke-linejoin="round" >
<path d="M206.9053 275.4057 L150.6344 331.6766 L263.1761 331.6766z" fill="rgb(255,215,0)"/>
</g>
<g stroke="rgb(0,0,139)" stroke-width="1.0627" stroke-linejoin="round" >
<path d="M198.9474 267.4478 L206.2398 221.4055 L178.8394 183.6921 L132.7971 176.3998 L132.2227 180.8264 L131.8974 185.2784 L131.8223 189.7415 L131.9976 194.2018 L132.4226 198.6453
 L133.0962 203.058 L134.0161 207.426 L135.1795 211.7355 L136.5826 215.973 L138.2212 220.1252 L140.09 224.1789 L142.1832 228.1215
 L144.4941 231.9405 L147.0155 235.624 L149.7395 239.1602 L152.6575 242.5382 L155.7603 245.7473 L159.0382 248.7773 L162.4808 251.6187
 L166.0773 254.2627 L169.8164 256.7009 L173.6863 258.9255 L177.6749 260.9297 L181.7695 262.7071 L185.9574 264.2521 L190.2253 265.5598
 L194.5599 266.6262 L198.9474 267.4478z" fill="rgb(255,215,0)"/>
</g>
<g stroke="rgb(0,0,139)" stroke-width="1.0627" stroke-linejoin="round" >
<path d="M286.4842 195.8268 L248.7709 168.4264 L202.7285 175.7188 L175.3282 213.4322 L179.0116 215.9536 L182.8306 218.2645 L186.7732 220.3577 L190.827 222.2265 L194.9791 223.8651
 L199.2166 225.2683 L203.5262 226.4316 L207.8941 227.3515 L212.3068 228.0251 L216.7503 228.4502 L221.2106 228.6254 L225.6738 228.5503
 L230.1257 228.225 L234.5524 227.6507 L238.9399 226.829 L243.2744 225.7626 L247.5423 224.4549 L251.7302 222.9099 L255.8249 221.1325
 L259.8135 219.1283 L263.6834 216.9037 L267.4225 214.4655 L271.019 211.8216 L274.4616 208.9801 L277.7394 205.9501 L280.8422 202.741
 L283.7602 199.3631 L286.4842 195.8268z" fill="rgb(255,215,0)"/>
</g>
<g stroke="rgb(0,0,139)" stroke-width="1.0627" stroke-linejoin="round" >
<path d="M205.9398 186.9034 L238.8009 189.4897 L208.526 154.0424 L173.0787 184.3172z" fill="rgb(255,215,0)"/>
</g>
</svg>
