<?xml version="1.0" encoding="utf-8" standalone="no"?>
<!DOCTYPE svg PUBLIC "-//W3C//DTD SVG 1.1//EN" "http://www.w3.org/TR/2001/REC-SVG-20010904/DTD/svg11.dtd">
<svg width="10cm" height="10cm" viewBox="0 0 378 378" overflow="hidden"
 version="1.1" xmlns="http://www.w3.org/2000/svg"  xmlns:xlink="http://www.w3.org/1999/xlink">
<!--fond  (Utilisateur) -->
<g  stroke-linejoin="round" >
<polygon fill="rgb(0,0,139)" points="0,0,0,378,378,378,378,0"/>
</g>
<!--tangram  (Utilisateur) -->
<g stroke="rgb(0,0,139)" stroke-width="1.0627" stroke-linejoin="round" >
<path d="M220.3145 193.496 L266.8949 191.6658 L266.6077 188.0168 L266.0351 184.4016 L265.1806 180.8424 L264.0495 177.3613 L262.6488 173.9796
 L260.9871 170.7183 L259.0746 167.5974 L256.9231 164.6361 L254.5459 161.8528 L251.9577 159.2646z" fill="rgb(255,215,0)"/>
</g>
<g stroke="rgb(0,0,139)" stroke-width="1.0627" stroke-linejoin="round" >
<path d="M220.3145 86.5814 L173.842 82.924 L173.6983 86.5814 L173.842 90.2389 L174.2722 93.8738 L174.9863 97.4638 L175.9798 100.9867
 L177.2467 104.4207 L178.7791 107.7448 L180.5676 110.9384 L182.6012 113.9818 L184.8673 116.8563z" fill="rgb(255,215,0)"/>
</g>
<g stroke="rgb(0,0,139)" stroke-width="1.0627" stroke-linejoin="round" >
<path d="M251.6291 162.1814 L185.4788 71.1333 L184.8809 75.2569 L184.3912 79.3946 L184.0099 83.5437 L183.7374 87.7014 L183.5738 91.8649
 L183.5193 96.0311 L183.5738 100.1974 L183.7374 104.3608 L184.0099 108.5185 L184.3912 112.6677 L184.8809 116.8054 L185.4788 120.9289
 L186.1844 125.0353 L186.9973 129.1219 L187.9168 133.1858 L188.9425 137.2242 L190.0734 141.2344 L191.309 145.2136 L192.6483 149.1591
 L194.0905 153.0682 L195.6345 156.9382 L197.2792 160.7665 L199.0236 164.5504 L200.8665 168.2873 L202.8065 171.9747 L204.8424 175.6101
 L206.9728 179.1909 L209.1961 182.7147 L211.511 186.1792 L213.9157 189.5818z" fill="rgb(255,215,0)"/>
</g>
<g stroke="rgb(0,0,139)" stroke-width="1.0627" stroke-linejoin="round" >
<path d="M189 224.8105 L80.6837 194.2622 L82.767 197.8706 L84.9441 201.4232 L87.2134 204.9176 L89.5734 208.3515 L92.0225 211.7223
 L94.559 215.0279 L97.1811 218.266 L99.8871 221.4343 L102.6751 224.5307 L105.5432 227.5531 L108.4895 230.4994 L111.5119 233.3675
 L114.6083 236.1555 L117.7766 238.8615 L121.0147 241.4836 L124.3203 244.0201 L127.6911 246.4692 L131.125 248.8292 L134.6194 251.0985
 L138.172 253.2756 L141.7804 255.3589 L145.4421 257.347 L149.1546 259.2386 L152.9153 261.0324 L156.7217 262.7271 L160.5712 264.3216
 L164.4611 265.8148 L168.3887 267.2057 L172.3514 268.4932 L176.3465 269.6766z" fill="rgb(255,215,0)"/>
</g>
<g stroke="rgb(0,0,139)" stroke-width="1.0627" stroke-linejoin="round" >
<path d="M229.4864 144.0177 L287.923 89.9994 L175.4681 85.581z" fill="rgb(255,215,0)"/>
</g>
<g stroke="rgb(0,0,139)" stroke-width="1.0627" stroke-linejoin="round" >
<path d="M189 273.0749 L144.7883 339.2424 L255.1675 317.2866z" fill="rgb(255,215,0)"/>
</g>
<g stroke="rgb(0,0,139)" stroke-width="1.0627" stroke-linejoin="round" >
<path d="M260.6211 197.4749 L214.5787 190.1825 L176.8654 217.5829 L169.573 263.6252 L173.9996 264.1996 L178.4516 264.5249 L182.9147 264.6 L187.3751 264.4247 L191.8185 263.9997
 L196.2312 263.3261 L200.5992 262.4062 L204.9087 261.2428 L209.1462 259.8397 L213.2984 258.2011 L217.3521 256.3323 L221.2947 254.2391
 L225.1137 251.9282 L228.7972 249.4068 L232.3335 246.6828 L235.7114 243.7648 L238.9205 240.662 L241.9505 237.3841 L244.792 233.9415
 L247.4359 230.345 L249.8741 226.6059 L252.0987 222.736 L254.1029 218.7474 L255.8803 214.6528 L257.4253 210.4649 L258.733 206.197
 L259.7994 201.8624 L260.6211 197.4749z" fill="rgb(255,215,0)"/>
</g>
<g stroke="rgb(0,0,139)" stroke-width="1.0627" stroke-linejoin="round" >
<path d="M117.3789 197.4749 L146.2388 234.0835 L192.5319 239.5626 L229.1405 210.7028 L226.2798 207.2762 L223.2314 204.0154 L220.005 200.9306 L216.6107 198.0316 L213.0592 195.3275
 L209.3617 192.8268 L205.5298 190.5373 L201.5755 188.4663 L197.5113 186.6203 L193.35 185.005 L189.1047 183.6256 L184.7887 182.4864
 L180.4157 181.5911 L175.9993 180.9423 L171.5535 180.5422 L167.0922 180.3919 L162.6296 180.4921 L158.1795 180.8423 L153.7562 181.4415
 L149.3733 182.2878 L145.0448 183.3784 L140.7843 184.7101 L136.6052 186.2786 L132.5205 188.0789 L128.5433 190.1054 L124.6859 192.3517
 L120.9606 194.8108 L117.3789 197.4749z" fill="rgb(255,215,0)"/>
</g>
<g stroke="rgb(0,0,139)" stroke-width="1.0627" stroke-linejoin="round" >
<path d="M113.4 228.7895 L146.3627 228.7895 L113.4 195.8268 L80.4373 228.7895z" fill="rgb(255,215,0)"/>
</g>
</svg>
