<?xml version="1.0" encoding="utf-8" standalone="no"?>
<!DOCTYPE svg PUBLIC "-//W3C//DTD SVG 1.1//EN" "http://www.w3.org/TR/2001/REC-SVG-20010904/DTD/svg11.dtd">
<svg width="10cm" height="10cm" viewBox="0 0 378 378" overflow="hidden"
 version="1.1" xmlns="http://www.w3.org/2000/svg"  xmlns:xlink="http://www.w3.org/1999/xlink">
<!--fond  (Utilisateur) -->
<g  stroke-linejoin="round" >
<polygon fill="rgb(0,0,139)" points="0,0,0,378,378,378,378,0"/>
</g>
<!--tangram  (Utilisateur) -->
<g stroke="rgb(0,0,139)" stroke-width="1.0627" stroke-linejoin="round" >
<path d="M195.5925 158.5338 L233.3059 131.1334 L231.0398 128.2589 L228.5552 125.5711 L225.8674 123.0865 L222.9929 120.8204 L219.9495 118.7869
 L216.7559 116.9984 L213.4318 115.466 L209.9978 114.1991 L206.4749 113.2055 L202.8849 112.4914z" fill="rgb(255,215,0)"/>
</g>
<g stroke="rgb(0,0,139)" stroke-width="1.0627" stroke-linejoin="round" >
<path d="M195.5925 136.0255 L181.1873 91.6907 L177.7533 92.9576 L174.4292 94.4901 L171.2356 96.2786 L168.1922 98.3121 L165.3177 100.5782
 L162.6299 103.0628 L160.1452 105.7506 L157.8792 108.6251 L155.8456 111.6685 L154.0571 114.8621z" fill="rgb(255,215,0)"/>
</g>
<g stroke="rgb(0,0,139)" stroke-width="1.0627" stroke-linejoin="round" >
<path d="M202.1851 151.9412 L313.3411 169.5466 L310.8481 166.2081 L308.2686 162.936 L305.6043 159.7325 L302.857 156.5999 L300.0287 153.5402
 L297.1213 150.5557 L294.1367 147.6482 L291.0771 144.8199 L287.9445 142.0727 L284.741 139.4084 L281.4689 136.8288 L278.1303 134.3359
 L274.7277 131.9311 L271.2633 129.6163 L267.7395 127.3929 L264.1586 125.2625 L260.5233 123.2266 L256.8359 121.2866 L253.0989 119.4437
 L249.315 117.6993 L245.4868 116.0546 L241.6168 114.5106 L237.7077 113.0685 L233.7622 111.7291 L229.783 110.4936 L225.7728 109.3626
 L221.7344 108.3369 L217.6705 107.4174 L213.5839 106.6045 L209.4775 105.8989z" fill="rgb(255,215,0)"/>
</g>
<g stroke="rgb(0,0,139)" stroke-width="1.0627" stroke-linejoin="round" >
<path d="M189 165.1263 L223.7773 272.1598 L225.6201 268.4228 L227.3645 264.6389 L229.0093 260.8107 L230.5532 256.9407 L231.9954 253.0316
 L233.3347 249.0861 L234.5703 245.1069 L235.7013 241.0967 L236.7269 237.0583 L237.6465 232.9944 L238.4593 228.9078 L239.1649 224.8014
 L239.7628 220.6779 L240.2526 216.5401 L240.6338 212.391 L240.9063 208.2333 L241.0699 204.0699 L241.1244 199.9036 L241.0699 195.7373
 L240.9063 191.5739 L240.6338 187.4162 L240.2526 183.2671 L239.7628 179.1293 L239.1649 175.0058 L238.4593 170.8994 L237.6465 166.8128
 L236.7269 162.7489 L235.7013 158.7105 L234.5703 154.7003 L233.3347 150.7211z" fill="rgb(255,215,0)"/>
</g>
<g stroke="rgb(0,0,139)" stroke-width="1.0627" stroke-linejoin="round" >
<path d="M197.5234 210.9428 L276.1226 198.4939 L185.0746 132.3436z" fill="rgb(255,215,0)"/>
</g>
<g stroke="rgb(0,0,139)" stroke-width="1.0627" stroke-linejoin="round" >
<path d="M189 238.1127 L245.2708 181.8419 L132.7292 181.8419z" fill="rgb(255,215,0)"/>
</g>
<g stroke="rgb(0,0,139)" stroke-width="1.0627" stroke-linejoin="round" >
<path d="M141.2526 222.1969 L178.966 194.7966 L186.2584 148.7542 L158.858 111.0409 L155.3218 113.7649 L151.9438 116.6829 L148.7347 119.7857 L145.7047 123.0635 L142.8633 126.5061
 L140.2193 130.1026 L137.7811 133.8417 L135.5565 137.7116 L133.5523 141.7002 L131.7749 145.7949 L130.2299 149.9828 L128.9222 154.2507
 L127.8558 158.5852 L127.0342 162.9727 L126.4598 167.3994 L126.1345 171.8513 L126.0594 176.3145 L126.2347 180.7748 L126.6597 185.2183
 L127.3333 189.631 L128.2532 193.9989 L129.4166 198.3085 L130.8197 202.546 L132.4583 206.6981 L134.3271 210.7519 L136.4203 214.6945
 L138.7312 218.5135 L141.2526 222.1969z" fill="rgb(255,215,0)"/>
</g>
<g stroke="rgb(0,0,139)" stroke-width="1.0627" stroke-linejoin="round" >
<path d="M236.7474 222.1969 L195.212 243.3603 L180.8068 287.695 L201.9701 329.2304 L205.889 327.0931 L209.6818 324.7395 L213.3367 322.1769 L216.8422 319.4134 L220.1872 316.4577
 L223.3613 313.3191 L226.3543 310.0074 L229.157 306.5332 L231.7604 302.9072 L234.1565 299.141 L236.3376 295.2464 L238.2969 291.2356
 L240.0282 287.1212 L241.5261 282.9163 L242.7859 278.6339 L243.8035 274.2877 L244.5759 269.8913 L245.1006 265.4584 L245.3759 261.0031
 L245.4009 256.5394 L245.1756 252.0813 L244.7007 247.6429 L243.9777 243.238 L243.0089 238.8807 L241.7972 234.5845 L240.3466 230.363
 L238.6615 226.2295 L236.7474 222.1969z" fill="rgb(255,215,0)"/>
</g>
<g stroke="rgb(0,0,139)" stroke-width="1.0627" stroke-linejoin="round" >
<path d="M173.0842 228.7895 L206.0469 228.7895 L173.0842 195.8268 L140.1215 228.7895z" fill="rgb(255,215,0)"/>
</g>
</svg>
