<?xml version="1.0" encoding="utf-8" standalone="no"?>
<!DOCTYPE svg PUBLIC "-//W3C//DTD SVG 1.1//EN" "http://www.w3.org/TR/2001/REC-SVG-20010904/DTD/svg11.dtd">
<svg width="10cm" height="10cm" viewBox="0 0 378 378" overflow="hidden"
 version="1.1" xmlns="http://www.w3.org/2000/svg"  xmlns:xlink="http://www.w3.org/1999/xlink">
<!--fond  (Utilisateur) -->
<g  stroke-linejoin="round" >
<polygon fill="rgb(0,0,139)" points="0,0,0,378,378,378,378,0"/>
</g>
<!--tangram  (Utilisateur) -->
<g stroke="rgb(0,0,139)" stroke-width="1.0627" stroke-linejoin="round" >
<path d="M177.351 91.7258 L196.8673 49.3915 L193.4856 47.9908 L190.0045 46.8597 L186.4453 46.0052 L182.8301 45.4326 L179.1811 45.1455
 L175.5208 45.1455 L171.8718 45.4326 L168.2566 46.0052 L164.6974 46.8597 L161.2163 47.9908z" fill="rgb(255,215,0)"/>
</g>
<g stroke="rgb(0,0,139)" stroke-width="1.0627" stroke-linejoin="round" >
<path d="M152.0291 93.174 L195.7641 109.3087 L196.8952 105.8275 L197.7496 102.2684 L198.3222 98.6531 L198.6094 95.0041 L198.6094 91.3438
 L198.3222 87.6948 L197.7496 84.0796 L196.8952 80.5204 L195.7641 77.0393 L194.3633 73.6576z" fill="rgb(255,215,0)"/>
</g>
<g stroke="rgb(0,0,139)" stroke-width="1.0627" stroke-linejoin="round" >
<path d="M180.0474 223.8451 L268.4282 154.1712 L264.2844 153.7357 L260.1306 153.4088 L255.9697 153.1907 L251.8045 153.0817 L247.6379 153.0817
 L243.4727 153.1907 L239.3118 153.4088 L235.158 153.7357 L231.0142 154.1712 L226.8832 154.7151 L222.7679 155.3669 L218.671 156.1262
 L214.5955 156.9925 L210.544 157.9652 L206.5193 159.0436 L202.5243 160.227 L198.5616 161.5145 L194.6339 162.9054 L190.7441 164.3985
 L186.8946 165.993 L183.0882 167.6878 L179.3275 169.4815 L175.615 171.3731 L171.9533 173.3613 L168.3449 175.4446 L164.7922 177.6217
 L161.2978 179.891 L157.864 182.251 L154.4931 184.7 L151.1875 187.2365z" fill="rgb(255,215,0)"/>
</g>
<g stroke="rgb(0,0,139)" stroke-width="1.0627" stroke-linejoin="round" >
<path d="M140.0922 200.7712 L153.3201 89.0097 L150.082 91.6318 L146.9137 94.3378 L143.8173 97.1258 L140.7949 99.9939 L137.8487 102.9402
 L134.9806 105.9625 L132.1925 109.059 L129.4865 112.2273 L126.8644 115.4654 L124.3279 118.771 L121.8788 122.1418 L119.5188 125.5757
 L117.2495 129.0701 L115.0725 132.6227 L112.9892 136.2311 L111.001 139.8928 L109.1094 143.6053 L107.3156 147.366 L105.6209 151.1724
 L104.0264 155.0219 L102.5332 158.9118 L101.1424 162.8394 L99.8548 166.8021 L98.6714 170.7972 L97.593 174.8218 L96.6204 178.8733
 L95.7541 182.9489 L94.9948 187.0457 L94.343 191.1611 L93.7991 195.292z" fill="rgb(255,215,0)"/>
</g>
<g stroke="rgb(0,0,139)" stroke-width="1.0627" stroke-linejoin="round" >
<path d="M301.0296 187.3862 L345.2413 121.2187 L234.8621 143.1745z" fill="rgb(255,215,0)"/>
</g>
<g stroke="rgb(0,0,139)" stroke-width="1.0627" stroke-linejoin="round" >
<path d="M191.9842 275.4057 L135.7134 331.6766 L248.255 331.6766z" fill="rgb(255,215,0)"/>
</g>
<g stroke="rgb(0,0,139)" stroke-width="1.0627" stroke-linejoin="round" >
<path d="M124.3421 207.7636 L169.6704 196.8813 L194.0273 157.1344 L183.1449 111.8061 L178.8354 112.9695 L174.5979 114.3727 L170.4458 116.0112 L166.392 117.8801 L162.4494 119.9732
 L158.6304 122.2841 L154.9469 124.8056 L151.4107 127.5296 L148.0327 130.4476 L144.8237 133.5504 L141.7936 136.8282 L138.9522 140.2708
 L136.3082 143.8673 L133.8701 147.6064 L131.6454 151.4763 L129.6412 155.4649 L127.8639 159.5596 L126.3189 163.7474 L125.0111 168.0154
 L123.9447 172.3499 L123.1231 176.7374 L122.5487 181.1641 L122.2235 185.616 L122.1483 190.0792 L122.3236 194.5395 L122.7487 198.983
 L123.4222 203.3957 L124.3421 207.7636z" fill="rgb(255,215,0)"/>
</g>
<g stroke="rgb(0,0,139)" stroke-width="1.0627" stroke-linejoin="round" >
<path d="M271.5632 195.8268 L244.1628 233.5401 L251.4552 279.5825 L289.1685 306.9828 L291.69 303.2994 L294.0009 299.4804 L296.0941 295.5378 L297.9629 291.484 L299.6014 287.3319
 L301.0046 283.0944 L302.168 278.7849 L303.0879 274.4169 L303.7615 270.0042 L304.1865 265.5607 L304.3618 261.1004 L304.2866 256.6372
 L303.9614 252.1853 L303.387 247.7586 L302.5654 243.3711 L301.499 239.0366 L300.1912 234.7687 L298.6462 230.5808 L296.8689 226.4861
 L294.8647 222.4975 L292.64 218.6276 L290.2019 214.8885 L287.5579 211.292 L284.7165 207.8494 L281.6864 204.5716 L278.4774 201.4688
 L275.0994 198.5508 L271.5632 195.8268z" fill="rgb(255,215,0)"/>
</g>
<g stroke="rgb(0,0,139)" stroke-width="1.0627" stroke-linejoin="round" >
<path d="M183.7778 119.9783 L209.664 140.3853 L204.1848 94.0922 L157.8917 99.5713z" fill="rgb(255,215,0)"/>
</g>
</svg>
