<?xml version="1.0" encoding="utf-8" standalone="no"?>
<!DOCTYPE svg PUBLIC "-//W3C//DTD SVG 1.1//EN" "http://www.w3.org/TR/2001/REC-SVG-20010904/DTD/svg11.dtd">
<svg width="10cm" height="10cm" viewBox="0 0 378 378" overflow="hidden"
 version="1.1" xmlns="http://www.w3.org/2000/svg"  xmlns:xlink="http://www.w3.org/1999/xlink">
<!--fond  (Utilisateur) -->
<g  stroke-linejoin="round" >
<polygon fill="rgb(0,0,139)" points="0,0,0,378,378,378,378,0"/>
</g>
<!--tangram  (Utilisateur) -->
<g stroke="rgb(0,0,139)" stroke-width="1.0627" stroke-linejoin="round" >
<path d="M263.8537 164.8778 L256.5613 118.8355 L252.9714 119.5496 L249.4485 120.5431 L246.0145 121.81 L242.6904 123.3424 L239.4968 125.1309
 L236.4534 127.1645 L233.5789 129.4306 L230.8911 131.9152 L228.4064 134.603 L226.1404 137.4775z" fill="rgb(255,215,0)"/>
</g>
<g stroke="rgb(0,0,139)" stroke-width="1.0627" stroke-linejoin="round" >
<path d="M171.0069 119.5441 L217.3 114.065 L216.7274 110.4497 L215.873 106.8906 L214.7419 103.4094 L213.3411 100.0278 L211.6794 96.7664
 L209.7669 93.6455 L207.6154 90.6843 L205.2383 87.901 L202.65 85.3127 L199.8667 82.9356z" fill="rgb(255,215,0)"/>
</g>
<g stroke="rgb(0,0,139)" stroke-width="1.0627" stroke-linejoin="round" >
<path d="M185.8401 180.9936 L240.8303 82.8015 L236.8353 83.9849 L232.8726 85.2724 L228.945 86.6633 L225.0551 88.1564 L221.2056 89.7509
 L217.3992 91.4457 L213.6385 93.2394 L209.926 95.131 L206.2643 97.1192 L202.6559 99.2025 L199.1033 101.3796 L195.6088 103.6489
 L192.175 106.0089 L188.8041 108.4579 L185.4985 110.9944 L182.2605 113.6166 L179.0921 116.3226 L175.9957 119.1106 L172.9734 121.9787
 L170.0271 124.925 L167.159 127.9473 L164.371 131.0437 L161.665 134.2121 L159.0428 137.4501 L156.5063 140.7557 L154.0573 144.1266
 L151.6973 147.5604 L149.428 151.0549 L147.2509 154.6075 L145.1676 158.2159z" fill="rgb(255,215,0)"/>
</g>
<g stroke="rgb(0,0,139)" stroke-width="1.0627" stroke-linejoin="round" >
<path d="M112.4053 228.7895 L81.8569 120.4732 L79.8688 124.1349 L77.9772 127.8474 L76.1834 131.6081 L74.4887 135.4145 L72.8942 139.264
 L71.401 143.1539 L70.0101 147.0815 L68.7226 151.0442 L67.5392 155.0392 L66.4608 159.0639 L65.4881 163.1154 L64.6218 167.191
 L63.8625 171.2878 L63.2107 175.4031 L62.6669 179.5341 L62.2313 183.6779 L61.9044 187.8317 L61.6864 191.9926 L61.5773 196.1578
 L61.5773 200.3244 L61.6864 204.4896 L61.9044 208.6505 L62.2313 212.8043 L62.6669 216.9481 L63.2107 221.0791 L63.8625 225.1944
 L64.6218 229.2913 L65.4881 233.3669 L66.4608 237.4184 L67.5392 241.443z" fill="rgb(255,215,0)"/>
</g>
<g stroke="rgb(0,0,139)" stroke-width="1.0627" stroke-linejoin="round" >
<path d="M268.1983 139.556 L314.9736 203.9367 L332.579 92.7806z" fill="rgb(255,215,0)"/>
</g>
<g stroke="rgb(0,0,139)" stroke-width="1.0627" stroke-linejoin="round" >
<path d="M199.9421 275.4057 L143.6713 331.6766 L256.2129 331.6766z" fill="rgb(255,215,0)"/>
</g>
<g stroke="rgb(0,0,139)" stroke-width="1.0627" stroke-linejoin="round" >
<path d="M235.7526 239.5952 L205.4778 204.1479 L159.0052 200.4905 L123.5579 230.7653 L126.551 234.0769 L129.725 237.2156 L133.07 240.1713 L136.5755 242.9348 L140.2304 245.4974
 L144.0233 247.851 L147.9422 249.9883 L151.9747 251.9024 L156.1082 253.5875 L160.3297 255.0381 L164.6259 256.2498 L168.9833 257.2186
 L173.3881 257.9416 L177.8265 258.4165 L182.2846 258.6418 L186.7484 258.6168 L191.2036 258.3415 L195.6365 257.8168 L200.0329 257.0444
 L204.3792 256.0268 L208.6615 254.767 L212.8664 253.2691 L216.9808 251.5378 L220.9916 249.5785 L224.8862 247.3974 L228.6524 245.0013
 L232.2784 242.3979 L235.7526 239.5952z" fill="rgb(255,215,0)"/>
</g>
<g stroke="rgb(0,0,139)" stroke-width="1.0627" stroke-linejoin="round" >
<path d="M207.9 195.8268 L216.9944 150.1062 L191.0958 111.3462 L145.3752 102.2519 L144.6275 106.6526 L144.1277 111.0883 L143.8774 115.545 L143.8774 120.0088 L144.1277 124.4656
 L144.6275 128.9013 L145.3752 133.302 L146.3685 137.6539 L147.6042 141.9432 L149.0785 146.1565 L150.7868 150.2805 L152.7235 154.3022
 L154.8827 158.209 L157.2576 161.9886 L159.8407 165.6291 L162.6238 169.119 L165.5982 172.4474 L168.7546 175.6038 L172.083 178.5782
 L175.5729 181.3613 L179.2134 183.9444 L182.993 186.3193 L186.8998 188.4785 L190.9215 190.4153 L195.0455 192.1235 L199.2588 193.5978
 L203.5481 194.8335 L207.9 195.8268z" fill="rgb(255,215,0)"/>
</g>
<g stroke="rgb(0,0,139)" stroke-width="1.0627" stroke-linejoin="round" >
<path d="M164.1316 210.66 L197.0943 210.66 L164.1316 177.6973 L131.1689 210.66z" fill="rgb(255,215,0)"/>
</g>
</svg>
