<?xml version="1.0" encoding="utf-8" standalone="no"?>
<!DOCTYPE svg PUBLIC "-//W3C//DTD SVG 1.1//EN" "http://www.w3.org/TR/2001/REC-SVG-20010904/DTD/svg11.dtd">
<svg width="10cm" height="10cm" viewBox="0 0 378 378" overflow="hidden"
 version="1.1" xmlns="http://www.w3.org/2000/svg"  xmlns:xlink="http://www.w3.org/1999/xlink">
<!--fond  (Utilisateur) -->
<g  stroke-linejoin="round" >
<polygon fill="rgb(0,0,139)" points="0,0,0,378,378,378,378,0"/>
</g>
<!--tangram  (Utilisateur) -->
<g stroke="rgb(0,0,139)" stroke-width="1.0627" stroke-linejoin="round" >
<path d="M185.9865 156.203 L218.9492 123.2403 L216.2614 120.7557 L213.3869 118.4896 L210.3434 116.4561 L207.1499 114.6676 L203.8258 113.1352
 L200.3917 111.8683 L196.8689 110.8747 L193.2789 110.1606 L189.644 109.7304 L185.9865 109.5867z" fill="rgb(255,215,0)"/>
</g>
<g stroke="rgb(0,0,139)" stroke-width="1.0627" stroke-linejoin="round" >
<path d="M190.6481 151.5413 L197.9405 105.499 L194.3056 105.0688 L190.6481 104.9251 L186.9907 105.0688 L183.3557 105.499 L179.7658 106.2131
 L176.2429 107.2066 L172.8089 108.4735 L169.4848 110.0059 L166.2912 111.7944 L163.2478 113.828z" fill="rgb(255,215,0)"/>
</g>
<g stroke="rgb(0,0,139)" stroke-width="1.0627" stroke-linejoin="round" >
<path d="M190.6481 151.5413 L263.7381 237.1187 L264.0106 232.961 L264.1742 228.7975 L264.2287 224.6313 L264.1742 220.465 L264.0106 216.3016
 L263.7381 212.1439 L263.3568 207.9947 L262.8671 203.857 L262.2692 199.7335 L261.5636 195.6271 L260.7507 191.5405 L259.8312 187.4766
 L258.8055 183.4382 L257.6745 179.428 L256.439 175.4488 L255.0996 171.5033 L253.6575 167.5942 L252.1135 163.7242 L250.4688 159.8959
 L248.7244 156.112 L246.8815 152.3751 L244.9415 148.6877 L242.9056 145.0523 L240.7752 141.4715 L238.5519 137.9477 L236.237 134.4833
 L233.8323 131.0806 L231.3393 127.7421 L228.7597 124.47 L226.0954 121.2665z" fill="rgb(255,215,0)"/>
</g>
<g stroke="rgb(0,0,139)" stroke-width="1.0627" stroke-linejoin="round" >
<path d="M193.9444 148.2451 L135.1416 244.2026 L139.18 243.177 L143.1902 242.046 L147.1694 240.8104 L151.1149 239.4711 L155.024 238.0289
 L158.894 236.485 L162.7222 234.8402 L166.5061 233.0958 L170.2431 231.253 L173.9305 229.3129 L177.5658 227.277 L181.1467 225.1466
 L184.6705 222.9233 L188.1349 220.6084 L191.5376 218.2037 L194.8761 215.7107 L198.1482 213.1311 L201.3517 210.4668 L204.4843 207.7196
 L207.544 204.8913 L210.5285 201.9839 L213.4359 198.9993 L216.2643 195.9397 L219.0115 192.807 L221.6758 189.6035 L224.2553 186.3314
 L226.7483 182.9929 L229.1531 179.5903 L231.4679 176.1258 L233.6913 172.602z" fill="rgb(255,215,0)"/>
</g>
<g stroke="rgb(0,0,139)" stroke-width="1.0627" stroke-linejoin="round" >
<path d="M185.0211 228.7895 L264.3547 235.0332 L191.2647 149.4558z" fill="rgb(255,215,0)"/>
</g>
<g stroke="rgb(0,0,139)" stroke-width="1.0627" stroke-linejoin="round" >
<path d="M185.0211 228.7895 L215.4746 155.2681 L111.4997 198.3359z" fill="rgb(255,215,0)"/>
</g>
<g stroke="rgb(0,0,139)" stroke-width="1.0627" stroke-linejoin="round" >
<path d="M119.0271 223.1624 L165.4996 219.5049 L195.7745 184.0576 L192.117 137.5851 L187.6786 138.06 L183.2737 138.783 L178.9164 139.7518 L174.6202 140.9635 L170.3987 142.4141
 L166.2652 144.0992 L162.2326 146.0133 L158.3138 148.1506 L154.5209 150.5042 L150.866 153.0668 L147.3605 155.8303 L144.0155 158.786
 L140.8415 161.9247 L137.8484 165.2363 L135.0457 168.7106 L132.4423 172.3365 L130.0463 176.1027 L127.8652 179.9973 L125.9059 184.0081
 L124.1745 188.1225 L122.6766 192.3275 L121.4169 196.6098 L120.3992 200.956 L119.6268 205.3525 L119.1021 209.7853 L118.8268 214.2406
 L118.8018 218.7043 L119.0271 223.1624z" fill="rgb(255,215,0)"/>
</g>
<g stroke="rgb(0,0,139)" stroke-width="1.0627" stroke-linejoin="round" >
<path d="M249.6497 231.1203 L205.315 245.5255 L184.1516 287.0609 L198.5568 331.3956 L202.7618 329.8977 L206.8761 328.1664 L210.8869 326.2071 L214.7816 324.026 L218.5478 321.6299
 L222.1737 319.0265 L225.648 316.2238 L228.9596 313.2308 L232.0982 310.0568 L235.0539 306.7117 L237.8175 303.2063 L240.38 299.5513
 L242.7337 295.7585 L244.8709 291.8396 L246.7851 287.8071 L248.4702 283.6736 L249.9208 279.4521 L251.1325 275.1559 L252.1013 270.7985
 L252.8243 266.3937 L253.2992 261.9552 L253.5245 257.4971 L253.4995 253.0334 L253.2242 248.5781 L252.6995 244.1453 L251.9271 239.7488
 L250.9094 235.4026 L249.6497 231.1203z" fill="rgb(255,215,0)"/>
</g>
<g stroke="rgb(0,0,139)" stroke-width="1.0627" stroke-linejoin="round" >
<path d="M179.394 231.1203 L212.3567 231.1203 L179.394 264.083 L146.4313 231.1203z" fill="rgb(255,215,0)"/>
</g>
</svg>
