<?xml version="1.0" encoding="utf-8" standalone="no"?>
<!DOCTYPE svg PUBLIC "-//W3C//DTD SVG 1.1//EN" "http://www.w3.org/TR/2001/REC-SVG-20010904/DTD/svg11.dtd">
<svg width="10cm" height="10cm" viewBox="0 0 378 378" overflow="hidden"
 version="1.1" xmlns="http://www.w3.org/2000/svg"  xmlns:xlink="http://www.w3.org/1999/xlink">
<!--fond  (Utilisateur) -->
<g  stroke-linejoin="round" >
<polygon fill="rgb(0,0,139)" points="0,0,0,378,378,378,378,0"/>
</g>
<!--tangram  (Utilisateur) -->
<g stroke="rgb(0,0,139)" stroke-width="1.0627" stroke-linejoin="round" >
<path d="M191.56 97.3529 L200.6544 51.6323 L197.0392 51.0597 L193.3902 50.7725 L189.7299 50.7725 L186.0809 51.0597 L182.4657 51.6323
 L178.9065 52.4868 L175.4254 53.6179 L172.0437 55.0186 L168.7823 56.6804 L165.6614 58.5929z" fill="rgb(255,215,0)"/>
</g>
<g stroke="rgb(0,0,139)" stroke-width="1.0627" stroke-linejoin="round" >
<path d="M149.3569 99.7665 L188.1169 125.6651 L190.0294 122.5442 L191.6912 119.2829 L193.0919 115.9012 L194.223 112.42 L195.0775 108.8609
 L195.6501 105.2457 L195.9373 101.5967 L195.9373 97.9364 L195.6501 94.2874 L195.0775 90.6721z" fill="rgb(255,215,0)"/>
</g>
<g stroke="rgb(0,0,139)" stroke-width="1.0627" stroke-linejoin="round" >
<path d="M174.0789 220.5488 L267.6539 158.024 L263.557 157.2647 L259.4417 156.6129 L255.3107 156.0691 L251.1669 155.6335 L247.0131 155.3066
 L242.8522 155.0886 L238.687 154.9795 L234.5204 154.9795 L230.3552 155.0886 L226.1943 155.3066 L222.0405 155.6335 L217.8967 156.0691
 L213.7657 156.6129 L209.6504 157.2647 L205.5536 158.024 L201.478 158.8903 L197.4265 159.863 L193.4018 160.9414 L189.4068 162.1248
 L185.4441 163.4123 L181.5165 164.8032 L177.6266 166.2964 L173.7771 167.8909 L169.9707 169.5856 L166.21 171.3794 L162.4975 173.271
 L158.8358 175.2591 L155.2274 177.3424 L151.6748 179.5195 L148.1803 181.7888z" fill="rgb(255,215,0)"/>
</g>
<g stroke="rgb(0,0,139)" stroke-width="1.0627" stroke-linejoin="round" >
<path d="M129.4622 204.0675 L151.418 93.6883 L147.9842 96.0483 L144.6133 98.4974 L141.3077 101.0339 L138.0696 103.656 L134.9013 106.362
 L131.8049 109.15 L128.7825 112.0181 L125.8363 114.9644 L122.9681 117.9867 L120.1801 121.0832 L117.4741 124.2515 L114.852 127.4896
 L112.3155 130.7952 L109.8664 134.166 L107.5064 137.5999 L105.2371 141.0943 L103.0601 144.6469 L100.9767 148.2553 L98.9886 151.917
 L97.097 155.6295 L95.3032 159.3902 L93.6085 163.1966 L92.014 167.0461 L90.5208 170.936 L89.13 174.8636 L87.8424 178.8263
 L86.659 182.8214 L85.5806 186.846 L84.6079 190.8975 L83.7417 194.9731z" fill="rgb(255,215,0)"/>
</g>
<g stroke="rgb(0,0,139)" stroke-width="1.0627" stroke-linejoin="round" >
<path d="M300.6883 181.7591 L366.8558 137.5474 L256.4766 115.5916z" fill="rgb(255,215,0)"/>
</g>
<g stroke="rgb(0,0,139)" stroke-width="1.0627" stroke-linejoin="round" >
<path d="M193.9737 275.4057 L137.7029 331.6766 L250.2445 331.6766z" fill="rgb(255,215,0)"/>
</g>
<g stroke="rgb(0,0,139)" stroke-width="1.0627" stroke-linejoin="round" >
<path d="M134.2895 215.7215 L177.3573 197.8823 L195.1966 154.8144 L177.3573 111.7466 L173.2828 113.5698 L169.317 115.6186 L165.4723 117.8866 L161.7608 120.3665 L158.1942 123.0507
 L154.7837 125.9306 L151.54 128.9972 L148.4734 132.2408 L145.5935 135.6513 L142.9094 139.2179 L140.4294 142.9294 L138.1615 146.7741
 L136.1127 150.74 L134.2895 154.8144 L132.6976 158.9847 L131.342 163.2377 L130.2271 167.56 L129.3563 171.938 L128.7323 176.358
 L128.3571 180.806 L128.2319 185.268 L128.3571 189.73 L128.7323 194.178 L129.3563 198.598 L130.2271 202.976 L131.342 207.2983
 L132.6976 211.5512 L134.2895 215.7215z" fill="rgb(255,215,0)"/>
</g>
<g stroke="rgb(0,0,139)" stroke-width="1.0627" stroke-linejoin="round" >
<path d="M273.5526 195.8268 L273.5526 242.4431 L306.5153 275.4057 L353.1316 275.4057 L353.0064 270.9437 L352.6312 266.4957 L352.0072 262.0758 L351.1364 257.6978 L350.0214 253.3755
 L348.6659 249.1225 L347.074 244.9522 L345.2508 240.8777 L343.202 236.9119 L340.9341 233.0672 L338.4541 229.3557 L335.77 225.7891
 L332.8901 222.3786 L329.8234 219.1349 L326.5798 216.0683 L323.1693 213.1884 L319.6027 210.5043 L315.8912 208.0243 L312.0465 205.7564
 L308.0806 203.7076 L304.0062 201.8844 L299.8359 200.2925 L295.5829 198.937 L291.2606 197.822 L286.8826 196.9512 L282.4626 196.3272
 L278.0147 195.952 L273.5526 195.8268z" fill="rgb(255,215,0)"/>
</g>
<g stroke="rgb(0,0,139)" stroke-width="1.0627" stroke-linejoin="round" >
<path d="M186.7328 128.9017 L214.1402 147.2148 L205.0459 101.4942 L159.3253 110.5886z" fill="rgb(255,215,0)"/>
</g>
</svg>
