<?xml version="1.0" encoding="utf-8" standalone="no"?>
<!DOCTYPE svg PUBLIC "-//W3C//DTD SVG 1.1//EN" "http://www.w3.org/TR/2001/REC-SVG-20010904/DTD/svg11.dtd">
<svg width="10cm" height="10cm" viewBox="0 0 378 378" overflow="hidden"
 version="1.1" xmlns="http://www.w3.org/2000/svg"  xmlns:xlink="http://www.w3.org/1999/xlink">
<!--fond  (Utilisateur) -->
<g  stroke-linejoin="round" >
<polygon fill="rgb(0,0,139)" points="0,0,0,378,378,378,378,0"/>
</g>
<!--tangram  (Utilisateur) -->
<g stroke="rgb(0,0,139)" stroke-width="1.0627" stroke-linejoin="round" >
<path d="M275.2786 156.4372 L247.8782 118.7239 L245.0037 120.9899 L242.3159 123.4745 L239.8313 126.1624 L237.5652 129.0369 L235.5317 132.0803
 L233.7432 135.2739 L232.2107 138.598 L230.9439 142.032 L229.9503 145.5549 L229.2362 149.1448z" fill="rgb(255,215,0)"/>
</g>
<g stroke="rgb(0,0,139)" stroke-width="1.0627" stroke-linejoin="round" >
<path d="M157.1099 129.4329 L192.5571 159.7078 L194.8232 156.8333 L196.8568 153.7899 L198.6453 150.5963 L200.1777 147.2722 L201.4446 143.8381
 L202.4381 140.3153 L203.1522 136.7253 L203.5824 133.0904 L203.7261 129.4329 L203.5824 125.7754z" fill="rgb(255,215,0)"/>
</g>
<g stroke="rgb(0,0,139)" stroke-width="1.0627" stroke-linejoin="round" >
<path d="M166.9987 185.938 L252.576 112.8481 L248.4183 112.5755 L244.2549 112.412 L240.0886 112.3574 L235.9223 112.412 L231.7589 112.5755
 L227.6012 112.8481 L223.4521 113.2293 L219.3143 113.719 L215.1908 114.3169 L211.0844 115.0225 L206.9978 115.8354 L202.9339 116.755
 L198.8955 117.7806 L194.8853 118.9116 L190.9061 120.1472 L186.9606 121.4865 L183.0515 122.9286 L179.1815 124.4726 L175.3533 126.1173
 L171.5694 127.8617 L167.8324 129.7046 L164.145 131.6446 L160.5097 133.6805 L156.9288 135.8109 L153.405 138.0343 L149.9406 140.3491
 L146.5379 142.7539 L143.1994 145.2469 L139.9273 147.8264 L136.7238 150.4907z" fill="rgb(255,215,0)"/>
</g>
<g stroke="rgb(0,0,139)" stroke-width="1.0627" stroke-linejoin="round" >
<path d="M91.5158 228.7895 L100.3457 116.5948 L97.2131 119.342 L94.1534 122.1703 L91.1689 125.0778 L88.2614 128.0623 L85.4331 131.122
 L82.6859 134.2546 L80.0216 137.4581 L77.442 140.7302 L74.949 144.0687 L72.5443 147.4714 L70.2294 150.9358 L68.0061 154.4596
 L65.8757 158.0404 L63.8398 161.6758 L61.8998 165.3632 L60.0569 169.1001 L58.3125 172.884 L56.6678 176.7123 L55.1238 180.5823
 L53.6817 184.4914 L52.3423 188.4369 L51.1068 192.4161 L49.9758 196.4263 L48.9501 200.4647 L48.0306 204.5286 L47.2177 208.6152
 L46.5121 212.7216 L45.9142 216.8451 L45.4245 220.9829 L45.0432 225.132z" fill="rgb(255,215,0)"/>
</g>
<g stroke="rgb(0,0,139)" stroke-width="1.0627" stroke-linejoin="round" >
<path d="M278.1749 139.556 L290.6238 218.1552 L356.7741 127.1071z" fill="rgb(255,215,0)"/>
</g>
<g stroke="rgb(0,0,139)" stroke-width="1.0627" stroke-linejoin="round" >
<path d="M202.9263 275.4057 L146.6555 331.6766 L259.1971 331.6766z" fill="rgb(255,215,0)"/>
</g>
<g stroke="rgb(0,0,139)" stroke-width="1.0627" stroke-linejoin="round" >
<path d="M226.8 251.5321 L205.6367 209.9967 L161.302 195.5914 L119.7666 216.7548 L121.9038 220.6736 L124.2575 224.4665 L126.8201 228.1214 L129.5836 231.6269 L132.5393 234.9719
 L135.6779 238.146 L138.9895 241.139 L142.4638 243.9417 L146.0897 246.5451 L149.8559 248.9411 L153.7506 251.1222 L157.7614 253.0815
 L161.8757 254.8129 L166.0807 256.3108 L170.363 257.5705 L174.7092 258.5882 L179.1057 259.3606 L183.5385 259.8853 L187.9938 260.1606
 L192.4575 260.1856 L196.9156 259.9603 L201.3541 259.4854 L205.7589 258.7624 L210.1163 257.7936 L214.4125 256.5819 L218.634 255.1313
 L222.7675 253.4462 L226.8 251.5321z" fill="rgb(255,215,0)"/>
</g>
<g stroke="rgb(0,0,139)" stroke-width="1.0627" stroke-linejoin="round" >
<path d="M234.7579 195.8268 L216.9186 152.759 L173.8508 134.9197 L130.783 152.759 L132.6062 156.8334 L134.655 160.7993 L136.9229 164.644 L139.4029 168.3555 L142.087 171.9221
 L144.9669 175.3326 L148.0335 178.5762 L151.2772 181.6429 L154.6877 184.5228 L158.2543 187.2069 L161.9658 189.6869 L165.8105 191.9548
 L169.7763 194.0036 L173.8508 195.8268 L178.0211 197.4187 L182.2741 198.7742 L186.5964 199.8892 L190.9744 200.76 L195.3943 201.384
 L199.8423 201.7592 L204.3044 201.8844 L208.7664 201.7592 L213.2144 201.384 L217.6343 200.76 L222.0123 199.8892 L226.3346 198.7742
 L230.5876 197.4187 L234.7579 195.8268z" fill="rgb(255,215,0)"/>
</g>
<g stroke="rgb(0,0,139)" stroke-width="1.0627" stroke-linejoin="round" >
<path d="M179.0526 205.7156 L212.0153 205.7156 L179.0526 172.7529 L146.09 205.7156z" fill="rgb(255,215,0)"/>
</g>
</svg>
