<?xml version="1.0" encoding="utf-8" standalone="no"?>
<!DOCTYPE svg PUBLIC "-//W3C//DTD SVG 1.1//EN" "http://www.w3.org/TR/2001/REC-SVG-20010904/DTD/svg11.dtd">
<svg width="10cm" height="10cm" viewBox="0 0 378 378" overflow="hidden"
 version="1.1" xmlns="http://www.w3.org/2000/svg"  xmlns:xlink="http://www.w3.org/1999/xlink">
<!--tangram  (Utilisateur) -->
<g stroke="rgb(0,0,139)" stroke-width="1.0627" stroke-linejoin="round" >
<path d="M53.1502 268.5789 L53.1502 221.9627 L49.4928 222.1064 L45.8578 222.5366 L42.2679 223.2507 L38.745 224.2442 L35.311 225.5111
 L31.9869 227.0435 L28.7933 228.832 L25.7499 230.8656 L22.8754 233.1317 L20.1876 235.6163z" fill="rgb(255,215,0)"/>
</g>
<g stroke="rgb(0,0,139)" stroke-width="1.0627" stroke-linejoin="round" >
<path d="M99.7665 254.9254 L146.3828 254.9254 A46.6163,46.6163 0 0,0 132.7292,221.9627z" fill="rgb(255,215,0)"/>
</g>
<g stroke="rgb(0,0,139)" stroke-width="1.0627" stroke-linejoin="round" >
<path d="M278.2335 189 L357.8124 268.5789 L353.6462 268.5244 L349.4828 268.3608 L345.3251 268.0883 L341.1759 267.7071 L337.0382 267.2173
 L332.9147 266.6194 L328.8082 265.9138 L324.7217 265.101 L320.6578 264.1814 L316.6193 263.1558 L312.6092 262.0248 L308.6299 260.7892
 L304.6844 259.4499 L300.7754 258.0077 L296.9054 256.4638 L293.0771 254.819 L289.2932 253.0746 L285.5563 251.2318 L281.8689 249.2917
 L278.2335 247.2558 L274.6527 245.1255 L271.1288 242.9021 L267.6644 240.5872 L264.2618 238.1825 L260.9233 235.6895 L257.6511 233.11
 L254.4477 230.4457 L251.315 227.6984 L248.2554 224.8701 L245.2708 221.9627z" fill="rgb(255,215,0)"/>
</g>
<g stroke="rgb(0,0,139)" stroke-width="1.0627" stroke-linejoin="round" >
<path d="M245.2708 221.9627 L165.6919 142.3837 L169.8581 142.4383 L174.0215 142.6019 L178.1793 142.8744 L182.3284 143.2556 L186.4661 143.7453
 L190.5896 144.3432 L194.6961 145.0488 L198.7827 145.8617 L202.8465 146.7813 L206.885 147.8069 L210.8952 148.9379 L214.8744 150.1735
 L218.8199 151.5128 L222.729 152.9549 L226.599 154.4989 L230.4272 156.1437 L234.2111 157.8881 L237.948 159.7309 L241.6354 161.6709
 L245.2708 163.7068 L248.8516 165.8372 L252.3755 168.0606 L255.8399 170.3754 L259.2425 172.7802 L262.5811 175.2732 L265.8532 177.8527
 L269.0567 180.517 L272.1893 183.2643 L275.2489 186.0926 L278.2335 189z" fill="rgb(255,215,0)"/>
</g>
<g stroke="rgb(0,0,139)" stroke-width="1.0627" stroke-linejoin="round" >
<path d="M53.1502 221.9627 L132.7292 221.9627 L53.1502 301.5416z" fill="rgb(255,215,0)"/>
</g>
<g stroke="rgb(0,0,139)" stroke-width="1.0627" stroke-linejoin="round" >
<path d="M189 245.2708 L132.7292 301.5416 L245.2708 301.5416z" fill="rgb(255,215,0)"/>
</g>
<g stroke="rgb(0,0,139)" stroke-width="1.0627" stroke-linejoin="round" >
<path d="M86.1129 221.9627 L132.7292 221.9627 L165.6919 189 L165.6919 142.3837 A79.5789,79.5789 0 0,0 86.1129,221.9627z" fill="rgb(255,215,0)"/>
</g>
<g stroke="rgb(0,0,139)" stroke-width="1.0627" stroke-linejoin="round" >
<path d="M245.2708 221.9627 L212.3081 189 L165.6919 189 L132.7292 221.9627 L135.9728 225.0293 L139.3833 227.9092 L142.9499 230.5933 L146.6614 233.0733 L150.5062 235.3412
 L154.472 237.39 L158.5465 239.2132 L162.7167 240.8051 L166.9697 242.1607 L171.292 243.2756 L175.67 244.1464 L180.09 244.7704
 L184.538 245.1456 L189 245.2708 L193.462 245.1456 L197.91 244.7704 L202.33 244.1464 L206.708 243.2756 L211.0303 242.1607
 L215.2833 240.8051 L219.4535 239.2132 L223.528 237.39 L227.4938 235.3412 L231.3386 233.0733 L235.0501 230.5933 L238.6167 227.9092
 L242.0272 225.0293 L245.2708 221.9627z" fill="rgb(255,215,0)"/>
</g>
<g stroke="rgb(0,0,139)" stroke-width="1.0627" stroke-linejoin="round" >
<path d="M189 165.6919 L165.6919 142.3837 L165.6919 189 L212.3081 189z" fill="rgb(255,215,0)"/>
</g>
</svg>
