<?xml version="1.0" encoding="utf-8" standalone="no"?>
<!DOCTYPE svg PUBLIC "-//W3C//DTD SVG 1.1//EN" "http://www.w3.org/TR/2001/REC-SVG-20010904/DTD/svg11.dtd">
<svg width="10cm" height="10cm" viewBox="0 0 378 378" overflow="hidden"
 version="1.1" xmlns="http://www.w3.org/2000/svg"  xmlns:xlink="http://www.w3.org/1999/xlink">
<!--tangram  (Utilisateur) -->
<g stroke="rgb(0,0,139)" stroke-width="1.0627" stroke-linejoin="round" >
<path d="M177.3459 223.9622 L177.3459 177.3459 L173.6885 177.4896 L170.0535 177.9199 L166.4636 178.6339 L162.9407 179.6275 L159.5067 180.8944
 L156.1826 182.4268 L152.989 184.2153 L149.9456 186.2488 L147.0711 188.5149 L144.3833 190.9995z" fill="rgb(255,215,0)"/>
</g>
<g stroke="rgb(0,0,139)" stroke-width="1.0627" stroke-linejoin="round" >
<path d="M200.6541 217.1354 L218.4933 260.2032 L221.8174 258.6708 L225.011 256.8823 L228.0544 254.8488 L230.9289 252.5827 L233.6167 250.0981
 L236.1014 247.4103 L238.3674 244.5358 L240.401 241.4923 L242.1895 238.2987 L243.7219 234.9747z" fill="rgb(255,215,0)"/>
</g>
<g stroke="rgb(0,0,139)" stroke-width="1.0627" stroke-linejoin="round" >
<path d="M200.6541 200.6541 L304.629 157.5863 L300.759 156.0423 L296.8499 154.6001 L292.9044 153.2608 L288.9252 152.0252 L284.915 150.8943
 L280.8766 149.8686 L276.8127 148.9491 L272.7261 148.1362 L268.6197 147.4306 L264.4962 146.8327 L260.3584 146.343 L256.2093 145.9617
 L252.0516 145.6892 L247.8882 145.5256 L243.7219 145.4711 L239.5556 145.5256 L235.3922 145.6892 L231.2345 145.9617 L227.0854 146.343
 L222.9476 146.8327 L218.8241 147.4306 L214.7177 148.1362 L210.6311 148.9491 L206.5672 149.8686 L202.5288 150.8943 L198.5186 152.0252
 L194.5394 153.2608 L190.5939 154.6001 L186.6848 156.0423 L182.8148 157.5863z" fill="rgb(255,215,0)"/>
</g>
<g stroke="rgb(0,0,139)" stroke-width="1.0627" stroke-linejoin="round" >
<path d="M193.8273 184.1727 L193.8273 71.6311 L190.9198 74.6157 L188.0915 77.6753 L185.3443 80.8079 L182.68 84.0114 L180.1005 87.2835
 L177.6075 90.6221 L175.2027 94.0247 L172.8879 97.4891 L170.6645 101.013 L168.5341 104.5938 L166.4982 108.2291 L164.5582 111.9166
 L162.7153 115.6535 L160.9709 119.4374 L159.3262 123.2656 L157.7822 127.1356 L156.3401 131.0447 L155.0007 134.9902 L153.7652 138.9694
 L152.6342 142.9796 L151.6085 147.0181 L150.689 151.0819 L149.8761 155.1685 L149.1705 159.2749 L148.5726 163.3985 L148.0829 167.5362
 L147.7016 171.6853 L147.4291 175.843 L147.2655 180.0065 L147.211 184.1727z" fill="rgb(255,215,0)"/>
</g>
<g stroke="rgb(0,0,139)" stroke-width="1.0627" stroke-linejoin="round" >
<path d="M149.2105 228.7895 L222.7319 259.243 L179.6641 155.2681z" fill="rgb(255,215,0)"/>
</g>
<g stroke="rgb(0,0,139)" stroke-width="1.0627" stroke-linejoin="round" >
<path d="M212.3081 228.7895 L285.8295 259.243 L242.7617 155.2681z" fill="rgb(255,215,0)"/>
</g>
<g stroke="rgb(0,0,139)" stroke-width="1.0627" stroke-linejoin="round" >
<path d="M223.9622 177.3459 L256.9249 144.3833 L256.9249 97.767 L223.9622 64.8043 L220.8956 68.048 L218.0157 71.4585 L215.3315 75.0251 L212.8516 78.7366 L210.5837 82.5813
 L208.5349 86.5471 L206.7117 90.6216 L205.1198 94.7919 L203.7642 99.0448 L202.6493 103.3671 L201.7784 107.7452 L201.1544 112.1651
 L200.7793 116.6131 L200.6541 121.0751 L200.7793 125.5371 L201.1544 129.9851 L201.7784 134.4051 L202.6493 138.7831 L203.7642 143.1054
 L205.1198 147.3584 L206.7117 151.5287 L208.5349 155.6031 L210.5837 159.569 L212.8516 163.4137 L215.3315 167.1252 L218.0157 170.6918
 L220.8956 174.1023 L223.9622 177.3459z" fill="rgb(255,215,0)"/>
</g>
<g stroke="rgb(0,0,139)" stroke-width="1.0627" stroke-linejoin="round" >
<path d="M177.3459 240.4435 L177.3459 193.8273 L144.3833 160.8646 L97.767 160.8646 L97.8922 165.3266 L98.2674 169.7746 L98.8914 174.1946 L99.7622 178.5726 L100.8771 182.8949
 L102.2327 187.1479 L103.8246 191.3181 L105.6478 195.3926 L107.6966 199.3584 L109.9645 203.2031 L112.4445 206.9146 L115.1286 210.4813
 L118.0085 213.8918 L121.0751 217.1354 L124.3188 220.202 L127.7293 223.0819 L131.2959 225.7661 L135.0074 228.246 L138.8521 230.514
 L142.8179 232.5627 L146.8924 234.386 L151.0627 235.9778 L155.3157 237.3334 L159.638 238.4483 L164.016 239.3192 L168.4359 239.9432
 L172.8839 240.3183 L177.3459 240.4435z" fill="rgb(255,215,0)"/>
</g>
<g stroke="rgb(0,0,139)" stroke-width="1.0627" stroke-linejoin="round" >
<path d="M184.1727 160.8646 L217.1354 160.8646 L184.1727 193.8273 L151.21 160.8646z" fill="rgb(255,215,0)"/>
</g>
</svg>
