<?xml version="1.0" encoding="utf-8" standalone="no"?>
<!DOCTYPE svg PUBLIC "-//W3C//DTD SVG 1.1//EN" "http://www.w3.org/TR/2001/REC-SVG-20010904/DTD/svg11.dtd">
<svg width="10cm" height="10cm" viewBox="0 0 378 378" overflow="hidden"
 version="1.1" xmlns="http://www.w3.org/2000/svg"  xmlns:xlink="http://www.w3.org/1999/xlink">
<!--tangram  (Utilisateur) -->
<g stroke="rgb(0,0,139)" stroke-width="1.0627" stroke-linejoin="round" >
<path d="M169.4123 194.6614 L202.375 161.6987 L199.6871 159.2141 L196.8127 156.948 L193.7692 154.9145 L190.5756 153.126 L187.2516 151.5936
 L183.8175 150.3267 L180.2946 149.3331 L176.7047 148.619 L173.0698 148.1888 L169.4123 148.0451z" fill="rgb(255,215,0)"/>
</g>
<g stroke="rgb(0,0,139)" stroke-width="1.0627" stroke-linejoin="round" >
<path d="M199.7129 164.3608 L239.4598 140.0039 L237.4262 136.9605 L235.1602 134.086 L232.6756 131.3981 L229.9877 128.9135 L227.1132 126.6475
 L224.0698 124.6139 L220.8762 122.8254 L217.5521 121.293 L214.1181 120.0261 L210.5952 119.0326z" fill="rgb(255,215,0)"/>
</g>
<g stroke="rgb(0,0,139)" stroke-width="1.0627" stroke-linejoin="round" >
<path d="M199.7129 164.3608 L230.2612 272.6771 L232.2494 269.0154 L234.141 265.3029 L235.9347 261.5422 L237.6295 257.7358 L239.224 253.8863
 L240.7172 249.9964 L242.108 246.0688 L243.3956 242.1061 L244.5789 238.1111 L245.6573 234.0864 L246.63 230.0349 L247.4963 225.9593
 L248.2556 221.8625 L248.9074 217.7471 L249.4513 213.6162 L249.8868 209.4724 L250.2137 205.3186 L250.4318 201.1577 L250.5409 196.9925
 L250.5409 192.8259 L250.4318 188.6607 L250.2137 184.4997 L249.8868 180.346 L249.4513 176.2022 L248.9074 172.0712 L248.2556 167.9559
 L247.4963 163.859 L246.63 159.7834 L245.6573 155.7319 L244.5789 151.7073z" fill="rgb(255,215,0)"/>
</g>
<g stroke="rgb(0,0,139)" stroke-width="1.0627" stroke-linejoin="round" >
<path d="M221.1386 142.9351 L297.532 225.5769 L297.641 221.4117 L297.641 217.2451 L297.532 213.0799 L297.3139 208.919 L296.987 204.7652
 L296.5514 200.6214 L296.0076 196.4904 L295.3558 192.3751 L294.5965 188.2782 L293.7302 184.2027 L292.7575 180.1512 L291.6791 176.1265
 L290.4957 172.1315 L289.2082 168.1688 L287.8173 164.2411 L286.3241 160.3513 L284.7296 156.5018 L283.0349 152.6954 L281.2411 148.9347
 L279.3495 145.2222 L277.3614 141.5605 L275.2781 137.9521 L273.101 134.3994 L270.8317 130.905 L268.4717 127.4712 L266.0226 124.1003
 L263.4862 120.7947 L260.864 117.5566 L258.158 114.3883 L255.37 111.2919z" fill="rgb(255,215,0)"/>
</g>
<g stroke="rgb(0,0,139)" stroke-width="1.0627" stroke-linejoin="round" >
<path d="M163.1368 228.7895 L232.5692 267.6734 L202.0208 159.3572z" fill="rgb(255,215,0)"/>
</g>
<g stroke="rgb(0,0,139)" stroke-width="1.0627" stroke-linejoin="round" >
<path d="M163.1368 228.7895 L207.3485 294.957 L229.3043 184.5778z" fill="rgb(255,215,0)"/>
</g>
<g stroke="rgb(0,0,139)" stroke-width="1.0627" stroke-linejoin="round" >
<path d="M171.8602 192.2134 L212.5327 169.4357 L225.1863 124.5697 L202.4086 83.8972 L198.5767 86.1866 L194.8791 88.6874 L191.3276 91.3915 L187.9333 94.2905 L184.7069 97.3752
 L181.6586 100.636 L178.7979 104.0626 L176.1338 107.6442 L173.6747 111.3696 L171.4283 115.227 L169.4018 119.2042 L167.6015 123.2889
 L166.033 127.468 L164.7014 131.7285 L163.6107 136.057 L162.7644 140.4398 L162.1652 144.8632 L161.815 149.3133 L161.7149 153.7759
 L161.8651 158.2372 L162.2652 162.683 L162.914 167.0994 L163.8094 171.4724 L164.9486 175.7884 L166.3279 180.0337 L167.9432 184.195
 L169.7892 188.2592 L171.8602 192.2134z" fill="rgb(255,215,0)"/>
</g>
<g stroke="rgb(0,0,139)" stroke-width="1.0627" stroke-linejoin="round" >
<path d="M145.5386 243.9398 L166.702 285.4752 L211.0367 299.8804 L252.5721 278.717 L250.4348 274.7982 L248.0812 271.0053 L245.5186 267.3504 L242.7551 263.8449 L239.7994 260.4999
 L236.6607 257.3259 L233.3491 254.3328 L229.8748 251.5302 L226.2489 248.9267 L222.4827 246.5307 L218.5881 244.3496 L214.5772 242.3903
 L210.4629 240.659 L206.2579 239.161 L201.9756 237.9013 L197.6294 236.8836 L193.2329 236.1112 L188.8001 235.5865 L184.3448 235.3113
 L179.8811 235.2862 L175.423 235.5115 L170.9846 235.9864 L166.5797 236.7094 L162.2223 237.6783 L157.9262 238.8899 L153.7047 240.3405
 L149.5711 242.0256 L145.5386 243.9398z" fill="rgb(255,215,0)"/>
</g>
<g stroke="rgb(0,0,139)" stroke-width="1.0627" stroke-linejoin="round" >
<path d="M126.5608 243.9398 L159.5235 243.9398 L126.5608 276.9024 L93.5981 243.9398z" fill="rgb(255,215,0)"/>
</g>
</svg>
